<?xml version="1.0" encoding="UTF-8"?>
<svg id="_圖層_2" data-name="圖層 2" xmlns="http://www.w3.org/2000/svg" viewBox="0 0 18.31 28.33">
  <defs>
    <style>
      .cls-1 {
        fill: #c2a357;
      }
    </style>
  </defs>
  <g id="_圖層_1-2" data-name="圖層 1">
    <path class="cls-1" d="M8.9,25.17C8.9,20.28,4.9,16.28,0,16.28v-1.2c3.88,0,7.29,3.08,8.71,6.55,0,.02,.03,.03,.05,.02,.02,0,.03-.03,.03-.05-.65-4.48-4.3-7.98-8.8-8.46v-1.19c4.04,.5,7.48,3.83,8.81,7.62,0,.02,.03,.03,.05,.03,.02,0,.03-.02,.03-.04-.13-5.08-3.93-9.25-8.9-9.81v-1.18c4.05,.54,7.48,3.88,8.82,7.69,0,.02,.03,.03,.05,.03,.02,0,.04-.02,.04-.04v-.84c0-4.51-3.69-8.2-8.2-8.2v-1.2c3.64,0,6.84,2.96,8.12,6.25,0,.02,.03,.03,.05,.03,.02,0,.03-.02,.03-.04v-1.1c0-3.13-2.56-5.69-5.69-5.69v-1.2c2.44,0,4.6,2.12,5.61,4.26,0,.02,.03,.03,.05,.02,.02,0,.03-.02,.03-.04v-1.86c0-1.8-1.47-3.28-3.28-3.28v-1.2c1.33,0,2.52,1.38,3.2,2.45,.01,.02,.03,.02,.05,.02,.02,0,.03-.02,.03-.04l-.37-4.59h1.26l-.37,4.59s.01,.04,.03,.04c.02,0,.04,0,.05-.02,.68-1.07,1.87-2.45,3.2-2.45v1.2c-1.8,0-3.27,1.47-3.28,3.27v1.87s.01,.04,.03,.04c.02,0,.04,0,.05-.02,1.01-2.13,3.17-4.25,5.61-4.25v1.2c-3.13,0-5.69,2.56-5.69,5.68v1.11s.01,.04,.03,.04c.02,0,.04,0,.05-.03,1.28-3.29,4.48-6.25,8.12-6.25v1.2c-4.51,0-8.2,3.69-8.2,8.19v.85s.01,.04,.04,.04c.02,0,.04,0,.05-.03,1.34-3.8,4.77-7.15,8.82-7.69v1.18c-4.91,.56-8.77,4.67-8.9,9.81,0,.02,.01,.04,.03,.04,.02,0,.04,0,.05-.03,1.34-3.78,4.77-7.11,8.81-7.62v1.19c-4.49,.48-8.14,3.99-8.8,8.46,0,.02,.01,.04,.03,.05,.02,0,.04,0,.05-.03,1.42-3.47,4.83-6.55,8.71-6.55v1.2c-4.89,0-8.89,4-8.89,8.89,0,1.05,0,2.1,0,3.16h-.51v-3.16h0Z"/>
  </g>
</svg>