<svg width="825" height="1027" viewBox="0 0 825 1027" fill="none" xmlns="http://www.w3.org/2000/svg">
<rect x="92.25" y="213.25" width="63.5" height="83.5" stroke="#C4A657" stroke-width="0.5"/>
<rect x="262.25" y="880.25" width="40.5" height="53.5" stroke="#C4A657" stroke-width="0.5"/>
<rect x="710.25" y="0.25" width="40.5" height="53.5" stroke="#C4A657" stroke-width="0.5"/>
<rect x="784.25" y="691.25" width="40.5" height="53.5" stroke="#C4A657" stroke-width="0.5"/>
<rect x="578.25" y="825.25" width="34.5" height="45.5" fill="#C4A657" stroke="#C4A657" stroke-width="0.5"/>
<rect x="516.25" y="95.25" width="11.5" height="15.5" fill="#C4A657" stroke="#C4A657" stroke-width="0.5"/>
<rect x="60.25" y="538.25" width="20.5" height="27.5" fill="#C4A657" stroke="#C4A657" stroke-width="0.5"/>
<path d="M8.224 696.952L8.224 706.168L7.328 706.392L7.328 696.472L8.224 696.952ZM0.383999 713.944C0.383999 714.051 0.319999 714.104 0.191999 714.104C0.063999 714.104 -1.00758e-06 714.051 -1.00291e-06 713.944C-9.84264e-07 713.517 0.0213324 712.856 0.0639991 711.96C0.106666 711.021 0.127999 710.349 0.127999 709.944C0.127999 709.411 0.106666 708.76 0.0639993 707.992C0.0213326 707.267 -6.85861e-07 706.691 -6.67211e-07 706.264C-6.63481e-07 706.179 0.0639993 706.136 0.191999 706.136C0.319999 706.136 0.383999 706.179 0.383999 706.264C0.383999 706.819 0.437333 707.213 0.543999 707.448C0.671999 707.704 0.885333 707.832 1.184 707.832C1.54667 707.832 2.15467 707.619 3.008 707.192L15.84 700.696L18.592 702.264L4.544 695.896C3.92533 695.619 3.34933 695.48 2.816 695.48C2.048 695.48 1.45067 695.747 1.024 696.28C0.597333 696.835 0.384 697.571 0.384 698.488C0.384 698.595 0.32 698.648 0.192 698.648C0.0639997 698.648 -3.31973e-07 698.595 -3.27311e-07 698.488C-3.10526e-07 698.104 0.021333 697.549 0.0639997 696.824C0.106666 696.013 0.128 695.309 0.128 694.712C0.128 694.136 0.106667 693.443 0.0639999 692.632C0.0213333 691.907 -1.39876e-08 691.32 5.59506e-09 690.872C9.3251e-09 690.787 0.064 690.744 0.192 690.744C0.32 690.744 0.384 690.787 0.384 690.872C0.384 691.469 0.501333 691.971 0.736 692.376C0.992 692.781 1.42933 693.187 2.048 693.592C2.688 693.997 3.62667 694.477 4.864 695.032L20.128 701.976C20.192 702.019 20.224 702.115 20.224 702.264C20.224 702.435 20.192 702.531 20.128 702.552L4.384 710.552C2.86933 711.299 1.824 711.917 1.248 712.408C0.671999 712.899 0.383999 713.411 0.383999 713.944ZM20.352 730.395C20.352 731.398 20.2667 732.411 20.096 733.435C19.9467 734.481 19.744 735.313 19.488 735.931C19.424 736.123 19.3387 736.241 19.232 736.283C19.1467 736.347 18.9867 736.39 18.752 736.411L14.304 736.827C14.24 736.827 14.1973 736.774 14.176 736.667C14.1547 736.561 14.1867 736.486 14.272 736.443C16.0213 735.846 17.3547 734.993 18.272 733.883C19.2107 732.774 19.68 731.441 19.68 729.883C19.68 728.433 19.2853 727.131 18.496 725.979C17.728 724.849 16.6187 723.953 15.168 723.291C13.7173 722.651 12.0213 722.331 10.08 722.331C8.11733 722.331 6.38933 722.662 4.896 723.323C3.424 724.006 2.28267 724.934 1.472 726.107C0.682665 727.302 0.287998 728.667 0.287998 730.203C0.287998 731.675 0.682665 732.913 1.472 733.915C2.28266 734.918 3.60533 735.867 5.44 736.763C5.504 736.785 5.52533 736.849 5.504 736.955C5.48266 737.062 5.44 737.115 5.376 737.115L1.408 736.635C1.152 736.593 0.981331 736.55 0.895998 736.507C0.831998 736.465 0.757331 736.347 0.671998 736.155C-0.0320019 734.193 -0.384002 732.209 -0.384002 730.203C-0.384002 727.921 0.0426651 725.873 0.895999 724.059C1.77067 722.267 2.98667 720.859 4.544 719.835C6.10133 718.811 7.872 718.299 9.856 718.299C11.8827 718.299 13.6853 718.822 15.264 719.867C16.864 720.934 18.112 722.385 19.008 724.219C19.904 726.075 20.352 728.134 20.352 730.395ZM20.352 755.377C20.352 756.379 20.2667 757.393 20.096 758.417C19.9467 759.462 19.744 760.294 19.488 760.913C19.424 761.105 19.3387 761.222 19.232 761.265C19.1467 761.329 18.9867 761.371 18.752 761.393L14.304 761.809C14.24 761.809 14.1973 761.755 14.176 761.649C14.1547 761.542 14.1867 761.467 14.272 761.425C16.0213 760.827 17.3547 759.974 18.272 758.865C19.2107 757.755 19.68 756.422 19.68 754.865C19.68 753.414 19.2853 752.113 18.496 750.961C17.728 749.83 16.6187 748.934 15.168 748.273C13.7173 747.633 12.0213 747.313 10.08 747.313C8.11733 747.313 6.38933 747.643 4.896 748.305C3.424 748.987 2.28266 749.915 1.472 751.089C0.682664 752.283 0.287997 753.649 0.287997 755.185C0.287997 756.657 0.682664 757.894 1.472 758.897C2.28266 759.899 3.60533 760.849 5.44 761.745C5.504 761.766 5.52533 761.83 5.504 761.937C5.48266 762.043 5.44 762.097 5.376 762.097L1.408 761.617C1.152 761.574 0.98133 761.531 0.895997 761.489C0.831997 761.446 0.75733 761.329 0.671997 761.137C-0.032003 759.174 -0.384003 757.19 -0.384003 755.185C-0.384003 752.902 0.0426641 750.854 0.895997 749.041C1.77066 747.249 2.98666 745.841 4.544 744.817C6.10133 743.793 7.872 743.281 9.856 743.281C11.8827 743.281 13.6853 743.803 15.264 744.849C16.864 745.915 18.112 747.366 19.008 749.201C19.904 751.057 20.352 753.115 20.352 755.377ZM-0.384004 778.406C-0.384004 776.422 0.074663 774.651 0.991996 773.094C1.93066 771.558 3.18933 770.363 4.768 769.51C6.368 768.678 8.10666 768.262 9.984 768.262C12.1813 768.262 14.0587 768.816 15.616 769.926C17.1947 771.035 18.3787 772.454 19.168 774.182C19.9573 775.931 20.352 777.712 20.352 779.526C20.352 781.552 19.872 783.334 18.912 784.87C17.9733 786.406 16.7253 787.579 15.168 788.39C13.6107 789.222 11.9573 789.638 10.208 789.638C8.26666 789.638 6.48533 789.126 4.864 788.102C3.24266 787.078 1.96266 785.702 1.024 783.974C0.0853294 782.267 -0.384004 780.411 -0.384004 778.406ZM0.415996 779.462C0.415996 780.656 0.757329 781.723 1.44 782.662C2.144 783.622 3.15733 784.368 4.48 784.902C5.824 785.435 7.424 785.702 9.28 785.702C11.2427 785.702 12.992 785.403 14.528 784.806C16.0853 784.208 17.3013 783.344 18.176 782.214C19.0507 781.083 19.488 779.76 19.488 778.246C19.488 776.304 18.752 774.811 17.28 773.766C15.8293 772.72 13.792 772.198 11.168 772.198C9.09866 772.198 7.24266 772.507 5.6 773.126C3.97866 773.766 2.70933 774.63 1.792 775.718C0.874663 776.827 0.415996 778.075 0.415996 779.462ZM19.264 798.458L19.2 799.386L4.064 799.034C2.912 799.012 2.00533 799.236 1.344 799.706C0.703995 800.196 0.383995 800.879 0.383995 801.754C0.383995 801.818 0.319995 801.85 0.191995 801.85C0.0639952 801.85 -4.844e-06 801.818 -4.8412e-06 801.754C-4.81602e-06 801.178 0.0106619 800.73 0.0319952 800.41L0.0639953 798.65L0.0319954 796.634C0.0106621 796.292 -4.58243e-06 795.834 -4.55725e-06 795.258C-4.55445e-06 795.194 0.0639954 795.162 0.191995 795.162C0.319995 795.162 0.383995 795.194 0.383995 795.258C0.383995 796.132 0.714662 796.826 1.376 797.338C2.03733 797.85 2.93333 798.116 4.064 798.138L19.264 798.458ZM0.383994 821.05C0.383994 821.092 0.319994 821.114 0.191994 821.114C0.0639943 821.114 -5.68652e-06 821.092 -5.68466e-06 821.05C-5.65295e-06 820.324 0.010661 819.748 0.0319944 819.322L0.0639945 816.954L0.0319946 814.554C0.0106613 814.148 -5.35874e-06 813.594 -5.32797e-06 812.89C-5.32517e-06 812.826 0.0639947 812.794 0.191995 812.794C0.319995 812.794 0.383995 812.826 0.383995 812.89C0.383995 813.572 0.437328 814.074 0.543995 814.394C0.671995 814.735 0.885328 814.959 1.18399 815.066C1.48266 815.172 1.95199 815.204 2.59199 815.162L16.8 814.426L19.36 816.058L0.223995 807.898C0.138662 807.855 0.0959949 807.77 0.0959949 807.642C0.0959949 807.514 0.138662 807.428 0.223995 807.386L17.344 798.394C18.1333 797.967 18.7093 797.519 19.072 797.05C19.4347 796.602 19.616 796.079 19.616 795.482C19.616 795.418 19.68 795.386 19.808 795.386C19.936 795.386 20 795.418 20 795.482L19.968 796.986C19.9467 797.284 19.936 797.668 19.936 798.138L19.968 799.834C19.9893 800.026 20 800.271 20 800.57C20 800.847 19.904 801.06 19.712 801.21C19.52 801.359 19.0613 801.636 18.336 802.042L4.896 809.21L2.01599 807.61L19.2 815.098C19.4987 815.226 19.7013 815.354 19.808 815.482C19.936 815.631 20 815.823 20 816.058C20 816.25 19.9893 816.463 19.968 816.698C19.9467 816.954 19.936 817.242 19.936 817.562L19.968 819.45C19.9893 819.748 20 820.175 20 820.73C20 820.794 19.936 820.826 19.808 820.826C19.68 820.826 19.616 820.794 19.616 820.73C19.616 819.727 19.4133 819.002 19.008 818.554C18.6027 818.106 17.9733 817.903 17.12 817.946L2.59199 818.714C1.93066 818.756 1.45066 818.831 1.15199 818.938C0.853328 819.066 0.650661 819.279 0.543994 819.578C0.437328 819.898 0.383994 820.388 0.383994 821.05ZM2.71999 831.943C2.03733 831.943 1.53599 832.018 1.21599 832.167C0.917327 832.317 0.703994 832.594 0.575994 832.999C0.447994 833.426 0.383994 834.098 0.383994 835.015C0.383994 835.079 0.319994 835.111 0.191994 835.111C0.0639937 835.111 -6.2979e-06 835.079 -6.29511e-06 835.015C-6.25687e-06 834.141 0.0106604 833.458 0.0319938 832.967L0.0639939 830.183L0.031994 827.847C0.0106607 827.421 -5.93796e-06 826.845 -5.90625e-06 826.119C-5.90345e-06 826.055 0.0639941 826.023 0.191994 826.023C0.319994 826.023 0.383994 826.055 0.383994 826.119C0.383994 826.802 0.437327 827.293 0.543994 827.591C0.650661 827.911 0.853327 828.125 1.15199 828.231C1.47199 828.338 1.95199 828.391 2.59199 828.391L17.408 828.391C18.048 828.391 18.5173 828.338 18.816 828.231C19.1147 828.125 19.3173 827.911 19.424 827.591C19.552 827.271 19.616 826.781 19.616 826.119C19.616 826.055 19.68 826.023 19.808 826.023C19.936 826.023 20 826.055 20 826.119L19.968 827.815C19.9253 828.797 19.904 829.575 19.904 830.151C19.904 830.663 19.936 831.271 20 831.975C20.0213 832.253 20.0427 832.605 20.064 833.031C20.0853 833.458 20.096 833.949 20.096 834.503C20.096 836.679 19.6373 838.397 18.72 839.655C17.824 840.914 16.4267 841.543 14.528 841.543C13.2053 841.543 12.0853 841.202 11.168 840.519C10.2507 839.837 9.55733 838.951 9.08799 837.863C8.61866 836.797 8.38399 835.698 8.38399 834.567C8.38399 833.991 8.43733 833.49 8.54399 833.063C8.54399 833.021 8.59733 832.999 8.70399 832.999C8.76799 832.999 8.83199 833.01 8.89599 833.031C8.95999 833.074 8.98133 833.117 8.95999 833.159C8.87466 833.479 8.83199 833.842 8.83199 834.247C8.83199 835.229 9.29066 836.039 10.208 836.679C11.1253 837.341 12.4267 837.671 14.112 837.671C15.7973 837.671 17.0987 837.309 18.016 836.583C18.9333 835.879 19.392 834.845 19.392 833.479C19.392 832.882 19.2533 832.477 18.976 832.263C18.6987 832.05 18.1547 831.943 17.344 831.943L2.71999 831.943ZM2.71999 852.735C2.16533 852.735 1.75999 852.777 1.50399 852.863C1.26933 852.948 1.10933 853.108 1.02399 853.343C0.93866 853.599 0.895993 854.004 0.895993 854.559L0.895993 855.647C0.895993 857.311 1.33333 858.751 2.20799 859.967C3.10399 861.183 4.30933 861.993 5.82399 862.399C5.86666 862.399 5.88799 862.441 5.88799 862.527C5.88799 862.569 5.86666 862.612 5.82399 862.655C5.80266 862.719 5.78133 862.751 5.75999 862.751C3.64799 862.559 1.88799 862.463 0.479993 862.463C0.309326 862.463 0.181326 862.42 0.0959925 862.335C0.0319925 862.271 -7.48135e-06 862.153 -7.47389e-06 861.983L-6.81368e-06 846.879C-6.81181e-06 846.836 0.0639932 846.815 0.191993 846.815C0.319993 846.815 0.383993 846.836 0.383993 846.879C0.383993 847.561 0.437326 848.052 0.543993 848.351C0.65066 848.671 0.853326 848.884 1.15199 848.991C1.47199 849.119 1.95199 849.183 2.59199 849.183L17.408 849.183C18.048 849.183 18.5173 849.119 18.816 848.991C19.1147 848.884 19.3173 848.671 19.424 848.351C19.552 848.031 19.616 847.54 19.616 846.879C19.616 846.836 19.68 846.815 19.808 846.815C19.936 846.815 20 846.836 20 846.879L19.968 848.511C19.9253 849.492 19.904 850.303 19.904 850.943C19.904 851.583 19.9253 852.393 19.968 853.375L20 855.007C20 855.071 19.936 855.103 19.808 855.103C19.68 855.103 19.616 855.071 19.616 855.007C19.616 854.345 19.552 853.855 19.424 853.535C19.3173 853.215 19.104 853.001 18.784 852.895C18.4853 852.788 18.016 852.735 17.376 852.735L2.71999 852.735ZM2.59199 873.82C1.93066 873.82 1.45066 873.874 1.15199 873.98C0.853325 874.087 0.650659 874.29 0.543992 874.588C0.437325 874.908 0.383992 875.41 0.383992 876.092C0.383992 876.156 0.319992 876.188 0.191992 876.188C0.0639919 876.188 -8.09344e-06 876.156 -8.09064e-06 876.092C-8.05987e-06 875.388 0.0106586 874.834 0.031992 874.428L0.0639921 871.996L0.0319922 869.628C0.0106589 869.202 -7.76426e-06 868.626 -7.73256e-06 867.9C-7.73069e-06 867.858 0.0639923 867.836 0.191992 867.836C0.319992 867.836 0.383992 867.858 0.383992 867.9C0.383992 868.583 0.437326 869.084 0.543992 869.404C0.650659 869.724 0.853326 869.938 1.15199 870.044C1.47199 870.172 1.95199 870.236 2.59199 870.236L17.408 870.236C18.048 870.236 18.5173 870.172 18.816 870.044C19.1147 869.938 19.3173 869.724 19.424 869.404C19.552 869.084 19.616 868.583 19.616 867.9C19.616 867.858 19.68 867.836 19.808 867.836C19.936 867.836 20 867.858 20 867.9L19.968 869.628C19.9253 870.61 19.904 871.399 19.904 871.996C19.904 872.658 19.9253 873.479 19.968 874.46L20 876.092C20 876.156 19.936 876.188 19.808 876.188C19.68 876.188 19.616 876.156 19.616 876.092C19.616 875.431 19.552 874.94 19.424 874.62C19.296 874.3 19.072 874.087 18.752 873.98C18.4533 873.874 17.984 873.82 17.344 873.82L2.59199 873.82ZM16.768 886.262C16 886.262 15.3173 886.454 14.72 886.838C14.1227 887.243 13.6 887.734 13.152 888.31C12.704 888.886 12.16 889.664 11.52 890.646C10.8373 891.712 10.24 892.566 9.72799 893.206C9.21599 893.846 8.58666 894.39 7.83999 894.838C7.11466 895.286 6.27199 895.51 5.31199 895.51C4.20266 895.51 3.21066 895.211 2.33599 894.614C1.48266 894.016 0.810658 893.184 0.319991 892.118C-0.149342 891.072 -0.384009 889.899 -0.384009 888.598C-0.384009 887.659 -0.256009 886.656 -8.50579e-06 885.59C0.277325 884.544 0.575992 883.84 0.895992 883.478C0.981325 883.371 1.05599 883.286 1.11999 883.222C1.20532 883.179 1.33332 883.158 1.50399 883.158L6.59199 883.062L6.62399 883.062C6.70933 883.062 6.75199 883.115 6.75199 883.222C6.77333 883.328 6.74133 883.392 6.65599 883.414C5.35466 884.054 4.29866 884.608 3.48799 885.078C2.67732 885.568 1.96266 886.176 1.34399 886.902C0.725325 887.648 0.415991 888.491 0.415991 889.43C0.415991 890.283 0.639991 890.987 1.08799 891.542C1.55732 892.096 2.34666 892.374 3.45599 892.374C4.39466 892.374 5.21599 892.16 5.91999 891.734C6.62399 891.328 7.22132 890.827 7.71199 890.23C8.20266 889.632 8.78932 888.811 9.47199 887.766C10.1333 886.742 10.6987 885.942 11.168 885.366C11.6373 884.811 12.2027 884.331 12.864 883.926C13.5253 883.52 14.304 883.318 15.2 883.318C16.3307 883.318 17.28 883.638 18.048 884.278C18.8373 884.939 19.4133 885.782 19.776 886.806C20.16 887.83 20.352 888.907 20.352 890.038C20.352 890.784 20.2773 891.542 20.128 892.31C20 893.078 19.84 893.696 19.648 894.166C19.5627 894.358 19.4667 894.486 19.36 894.55C19.2747 894.614 19.1573 894.646 19.008 894.646L14.304 894.646C14.24 894.646 14.1867 894.592 14.144 894.486C14.1227 894.379 14.144 894.315 14.208 894.294L14.816 894.038C16.16 893.504 17.3013 892.875 18.24 892.15C19.1787 891.446 19.648 890.454 19.648 889.174C19.648 888.32 19.4027 887.616 18.912 887.062C18.4213 886.528 17.7067 886.262 16.768 886.262ZM17.344 917.739C17.984 917.739 18.4533 917.675 18.752 917.547C19.072 917.419 19.296 917.173 19.424 916.811C19.552 916.448 19.616 915.872 19.616 915.083C19.616 915.019 19.68 914.987 19.808 914.987C19.936 914.987 20 915.019 20 915.083L19.968 916.651C19.9253 917.717 19.904 918.677 19.904 919.531C19.904 920.107 19.9253 920.928 19.968 921.995L20 923.787C20 923.851 19.936 923.883 19.808 923.883C19.68 923.883 19.616 923.851 19.616 923.787C19.616 923.061 19.552 922.517 19.424 922.155C19.3173 921.813 19.1147 921.579 18.816 921.451C18.5173 921.344 18.048 921.291 17.408 921.291L2.59199 921.291C1.95199 921.291 1.47199 921.344 1.15199 921.451C0.853323 921.579 0.650657 921.813 0.54399 922.155C0.437323 922.496 0.38399 923.04 0.38399 923.787C0.38399 923.851 0.31999 923.883 0.19199 923.883C0.0639898 923.883 -1.01782e-05 923.851 -1.01754e-05 923.787C-1.01428e-05 923.04 0.0106566 922.443 0.0319899 921.995L0.06399 919.531L0.0319901 916.651C0.0106568 916.267 -9.82387e-06 915.744 -9.79496e-06 915.083C-9.79216e-06 915.019 0.0639902 914.987 0.19199 914.987C0.31999 914.987 0.38399 915.019 0.38399 915.083C0.38399 915.872 0.437323 916.448 0.54399 916.811C0.650657 917.173 0.853323 917.419 1.15199 917.547C1.45066 917.675 1.93066 917.739 2.59199 917.739L17.344 917.739ZM10.848 905.515L10.848 919.371L9.95199 919.371L9.95199 905.515L10.848 905.515ZM17.408 903.851C18.048 903.851 18.5173 903.787 18.816 903.659C19.1147 903.531 19.3173 903.296 19.424 902.955C19.552 902.635 19.616 902.112 19.616 901.387C19.616 901.323 19.68 901.291 19.808 901.291C19.936 901.291 20 901.323 20 901.387L19.968 903.115C19.9253 904.096 19.904 904.885 19.904 905.483C19.904 906.293 19.9253 907.232 19.968 908.299L20 910.059C20 910.101 19.936 910.123 19.808 910.123C19.68 910.123 19.616 910.101 19.616 910.059C19.616 909.291 19.552 908.725 19.424 908.363C19.296 908 19.072 907.744 18.752 907.595C18.4533 907.467 17.984 907.403 17.344 907.403L2.59199 907.403C1.95199 907.403 1.47199 907.467 1.15199 907.595C0.853324 907.723 0.650657 907.968 0.543991 908.331C0.437324 908.693 0.38399 909.269 0.38399 910.059C0.38399 910.101 0.31999 910.123 0.19199 910.123C0.0639904 910.123 -9.57722e-06 910.101 -9.57535e-06 910.059C-9.54271e-06 909.312 0.0106572 908.715 0.0319905 908.267L0.0639906 905.483L0.0319907 903.083C0.0106574 902.656 -9.22613e-06 902.069 -9.19349e-06 901.323C-9.19162e-06 901.28 0.0639908 901.259 0.191991 901.259C0.319991 901.259 0.383991 901.28 0.383991 901.323C0.383991 902.069 0.437324 902.613 0.543991 902.955C0.650657 903.296 0.853324 903.531 1.15199 903.659C1.47199 903.787 1.95199 903.851 2.59199 903.851L17.408 903.851ZM19.264 932.064L19.2 932.992L4.06399 932.64C2.91199 932.619 2.00532 932.843 1.34399 933.312C0.703989 933.803 0.383989 934.485 0.383989 935.36C0.383989 935.424 0.319989 935.456 0.191989 935.456C0.0639893 935.456 -1.06841e-05 935.424 -1.06813e-05 935.36C-1.06561e-05 934.784 0.010656 934.336 0.0319894 934.016L0.0639895 932.256L0.0319895 930.24C0.0106562 929.899 -1.04225e-05 929.44 -1.03974e-05 928.864C-1.03946e-05 928.8 0.0639896 928.768 0.19199 928.768C0.31999 928.768 0.38399 928.8 0.38399 928.864C0.38399 929.739 0.714656 930.432 1.37599 930.944C2.03732 931.456 2.93332 931.723 4.06399 931.744L19.264 932.064ZM0.383988 954.656C0.383988 954.699 0.319988 954.72 0.191988 954.72C0.0639885 954.72 -1.15266e-05 954.699 -1.15248e-05 954.656C-1.14931e-05 953.931 0.0106552 953.355 0.0319886 952.928L0.0639887 950.56L0.0319888 948.16C0.0106554 947.755 -1.11989e-05 947.2 -1.11681e-05 946.496C-1.11653e-05 946.432 0.0639888 946.4 0.191989 946.4C0.319989 946.4 0.383989 946.432 0.383989 946.496C0.383989 947.179 0.437322 947.68 0.543989 948C0.671989 948.341 0.885322 948.565 1.18399 948.672C1.48266 948.779 1.95199 948.811 2.59199 948.768L16.8 948.032L19.36 949.664L0.223989 941.504C0.138656 941.461 0.0959891 941.376 0.0959891 941.248C0.0959891 941.12 0.138656 941.035 0.223989 940.992L17.344 932C18.1333 931.573 18.7093 931.125 19.072 930.656C19.4347 930.208 19.616 929.685 19.616 929.088C19.616 929.024 19.68 928.992 19.808 928.992C19.936 928.992 20 929.024 20 929.088L19.968 930.592C19.9467 930.891 19.936 931.275 19.936 931.744L19.968 933.44C19.9893 933.632 20 933.877 20 934.176C20 934.453 19.904 934.667 19.712 934.816C19.52 934.965 19.0613 935.243 18.336 935.648L4.89599 942.816L2.01599 941.216L19.2 948.704C19.4987 948.832 19.7013 948.96 19.808 949.088C19.936 949.237 20 949.429 20 949.664C20 949.856 19.9893 950.069 19.968 950.304C19.9467 950.56 19.936 950.848 19.936 951.168L19.968 953.056C19.9893 953.355 20 953.781 20 954.336C20 954.4 19.936 954.432 19.808 954.432C19.68 954.432 19.616 954.4 19.616 954.336C19.616 953.333 19.4133 952.608 19.008 952.16C18.6027 951.712 17.9733 951.509 17.12 951.552L2.59199 952.32C1.93066 952.363 1.45066 952.437 1.15199 952.544C0.853322 952.672 0.650655 952.885 0.543989 953.184C0.437322 953.504 0.383989 953.995 0.383988 954.656ZM-1.17562e-05 959.95C-1.17534e-05 959.886 0.0639882 959.854 0.191988 959.854C0.319988 959.854 0.383988 959.886 0.383988 959.95C0.383988 960.632 0.437322 961.123 0.543988 961.422C0.650655 961.742 0.853322 961.955 1.15199 962.062C1.47199 962.168 1.95199 962.222 2.59199 962.222L17.408 962.222C18.048 962.222 18.5173 962.168 18.816 962.062C19.1147 961.955 19.3173 961.742 19.424 961.422C19.552 961.102 19.616 960.611 19.616 959.95C19.616 959.886 19.68 959.854 19.808 959.854C19.936 959.854 20 959.886 20 959.95L20 973.518C20 973.731 19.904 973.838 19.712 973.838L15.456 973.902C15.4133 973.902 15.3813 973.838 15.36 973.71C15.3387 973.603 15.36 973.539 15.424 973.518C16.6613 973.176 17.5787 972.6 18.176 971.79C18.7733 970.979 19.072 969.912 19.072 968.59L19.072 967.63C19.072 966.99 18.9333 966.52 18.656 966.222C18.3787 965.923 17.952 965.774 17.376 965.774L2.71999 965.774C2.10132 965.774 1.64265 965.891 1.34399 966.126C1.04532 966.36 0.895988 966.734 0.895988 967.246L0.895988 968.302C0.895988 969.966 1.23732 971.299 1.91999 972.302C2.60265 973.304 3.65865 974.04 5.08799 974.51C5.13065 974.51 5.15199 974.552 5.15199 974.638C5.15199 974.702 5.13065 974.755 5.08799 974.798C5.06665 974.862 5.04532 974.894 5.02399 974.894C3.35999 974.68 1.84532 974.574 0.479988 974.574C0.309321 974.574 0.181321 974.542 0.0959876 974.478C0.0319876 974.414 -1.23828e-05 974.286 -1.23744e-05 974.094L-1.17562e-05 959.95ZM7.13599 972.302C8.01065 972.302 8.69332 971.96 9.18399 971.278C9.69599 970.616 9.95199 969.656 9.95199 968.398L9.95199 964.078L10.848 964.078L10.848 968.43C10.848 969.667 11.0613 970.616 11.488 971.278C11.9147 971.939 12.512 972.27 13.28 972.27C13.344 972.27 13.376 972.323 13.376 972.43C13.376 972.558 13.344 972.622 13.28 972.622L10.4 972.59L8.86399 972.622C8.13865 972.664 7.56265 972.686 7.13599 972.686C7.09332 972.686 7.07199 972.622 7.07199 972.494C7.07199 972.366 7.09332 972.302 7.13599 972.302ZM19.264 983.558L19.2 984.518L4.06399 984.518C2.93332 984.518 2.03732 984.752 1.37599 985.222C0.714654 985.691 0.383987 986.342 0.383987 987.174C0.383987 987.216 0.319987 987.238 0.191987 987.238C0.0639871 987.238 -1.2948e-05 987.216 -1.29462e-05 987.174C-1.29201e-05 986.576 0.0106538 986.118 0.0319871 985.798L0.0639872 984.07L0.0319873 982.086C0.010654 981.723 -1.26851e-05 981.2 -1.26552e-05 980.518C-1.26524e-05 980.454 0.0639873 980.422 0.191987 980.422C0.319987 980.422 0.383987 980.454 0.383987 980.518C0.383987 981.456 0.714654 982.192 1.37599 982.726C2.03732 983.28 2.93332 983.558 4.06399 983.558L19.264 983.558ZM-0.480014 999.878C-0.544014 999.878 -0.58668 999.824 -0.608014 999.718C-0.629347 999.632 -0.61868 999.568 -0.576014 999.526L17.376 983.75C18.2293 983.003 18.816 982.363 19.136 981.83C19.456 981.296 19.616 980.752 19.616 980.198C19.616 980.155 19.68 980.134 19.808 980.134C19.936 980.134 20 980.155 20 980.198L19.968 981.542C19.9467 981.819 19.936 982.224 19.936 982.758L19.968 985.19C19.9893 985.488 20 985.851 20 986.278C20 986.448 19.9573 986.576 19.872 986.662C19.7867 986.747 19.6053 986.896 19.328 987.11C18.8373 987.472 18.5067 987.728 18.336 987.878L4.79999 999.622L-0.480014 999.878ZM-0.480014 999.878L0.479987 998.95L15.904 998.95C17.056 998.95 17.9627 998.715 18.624 998.246C19.2853 997.776 19.616 997.126 19.616 996.294C19.616 996.251 19.68 996.23 19.808 996.23C19.936 996.23 20 996.251 20 996.294L19.968 997.67C19.9253 998.352 19.904 998.928 19.904 999.398C19.904 999.824 19.9253 1000.42 19.968 1001.19L20 1002.63C20 1002.67 19.936 1002.69 19.808 1002.69C19.68 1002.69 19.616 1002.67 19.616 1002.63C19.616 1001.78 19.2747 1001.1 18.592 1000.61C17.9307 1000.12 17.0347 999.878 15.904 999.878L-0.480014 999.878ZM19.264 1013.33C19.264 1010.79 17.6107 1008.97 14.304 1007.86C14.24 1007.84 14.208 1007.77 14.208 1007.67C14.2293 1007.56 14.272 1007.51 14.336 1007.51C15.1893 1007.59 16.288 1007.69 17.632 1007.79C18.9973 1007.9 20.0213 1007.95 20.704 1007.95C20.8107 1007.95 20.864 1008.01 20.864 1008.11C20.864 1008.24 20.8107 1008.31 20.704 1008.31C20.2347 1008.31 20 1008.91 20 1010.13C19.936 1011.96 19.904 1014.11 19.904 1016.56C19.904 1017.82 19.9253 1019.15 19.968 1020.56L20 1022.74C20 1023.55 20.0533 1024.13 20.16 1024.5C20.2667 1024.88 20.48 1025.13 20.8 1025.23C20.8853 1025.25 20.928 1025.32 20.928 1025.43C20.928 1025.55 20.8853 1025.62 20.8 1025.62C20.16 1025.55 19.136 1025.48 17.728 1025.39C16.32 1025.33 15.1893 1025.3 14.336 1025.3C14.272 1025.3 14.24 1025.24 14.24 1025.14C14.24 1025.03 14.272 1024.97 14.336 1024.95C15.9787 1024.63 17.2053 1024.03 18.016 1023.15C18.848 1022.28 19.264 1021.2 19.264 1019.92C19.264 1019.3 19.1253 1018.89 18.848 1018.67C18.592 1018.48 18.0907 1018.39 17.344 1018.39L2.59199 1018.39C1.93065 1018.39 1.45065 1018.45 1.15199 1018.58C0.853319 1018.71 0.650652 1018.95 0.543986 1019.31C0.437319 1019.68 0.383986 1020.25 0.383986 1021.04C0.383986 1021.11 0.319986 1021.14 0.191986 1021.14C0.0639856 1021.14 -1.44293e-05 1021.11 -1.44266e-05 1021.04C-1.4393e-05 1020.27 0.0106523 1019.67 0.0319857 1019.22L0.0639858 1016.56L0.0319859 1013.97C0.0106526 1013.52 -1.40708e-05 1012.9 -1.40363e-05 1012.11C-1.40335e-05 1012.05 0.063986 1012.02 0.191986 1012.02C0.319986 1012.02 0.383986 1012.05 0.383986 1012.11C0.383986 1012.88 0.437319 1013.45 0.543986 1013.81C0.650653 1014.19 0.853319 1014.45 1.15199 1014.58C1.47199 1014.73 1.95199 1014.8 2.59199 1014.8L17.408 1014.8C18.1333 1014.8 18.624 1014.71 18.88 1014.51C19.136 1014.32 19.264 1013.93 19.264 1013.33Z" fill="#C4A657"/>
</svg>
