<?xml version="1.0" encoding="UTF-8"?>
<svg id="_圖層_2" data-name="圖層 2" xmlns="http://www.w3.org/2000/svg" viewBox="0 0 323.59 195.93">
  <defs>
    <style>
      .cls-1 {
        fill: #c2a357;
      }

      .cls-2 {
        fill: #fff;
      }
    </style>
  </defs>
  <g id="_圖層_1-2" data-name="圖層 1">
    <g>
      <g>
        <g>
          <path d="M161.32,90.13h-57.22c-.06,0-.12-.05-.12-.12V44.25c0-.07,.05-.12,.12-.12h57.22c.06,0,.12,.05,.12,.12v45.76c0,.07-.05,.12-.12,.12Zm-57.1-.24h56.98V44.37h-56.98v45.52Z"/>
          <path class="cls-1" d="M246.66,106.88h-53.6c-.06,0-.12-.05-.12-.12V63.65c0-.07,.05-.12,.12-.12h53.6c.06,0,.12,.05,.12,.12v43.11c0,.07-.05,.12-.12,.12Zm-53.48-.24h53.36V63.77h-53.36v42.87Z"/>
          <path d="M246.66,159.3h-53.6c-.06,0-.12-.05-.12-.12v-43.21c0-.07,.05-.12,.12-.12h53.6c.06,0,.12,.05,.12,.12v43.21c0,.06-.05,.12-.12,.12Zm-53.48-.24h53.36v-42.97h-53.36v42.97Z"/>
          <path d="M210.9,143.82s-.03,0-.04,0c-.06-.02-.09-.09-.07-.15l3.72-10.88c.03-.1,.19-.1,.23,0l3.72,10.88c.02,.06-.01,.13-.07,.15-.06,.02-.13-.01-.15-.07l-3.61-10.55-3.61,10.55s-.06,.08-.11,.08Z"/>
          <path d="M216.97,140.2h-4.61c-.06,0-.12-.05-.12-.12s.05-.12,.12-.12h4.61c.06,0,.12,.05,.12,.12s-.05,.12-.12,.12Z"/>
          <path d="M222.85,143.43c-.06,0-.12-.05-.12-.12v-9.99c0-.07,.05-.12,.12-.12s.12,.05,.12,.12v9.99c0,.07-.05,.12-.12,.12Z"/>
          <path d="M224.22,138.82s-.08-.02-.1-.06l-1.37-2.25c-.03-.06-.02-.13,.04-.16,.06-.03,.13-.01,.16,.04l1.37,2.25c.03,.06,.02,.13-.04,.16-.02,.01-.04,.02-.06,.02Z"/>
          <path d="M229.81,139.8c-.06,0-.12-.05-.12-.12v-.18h-4.39c-.06,0-.12-.05-.12-.12v-3.14c0-.07,.05-.12,.12-.12h4.51c.06,0,.12,.05,.12,.12v3.43c0,.07-.05,.12-.12,.12Zm-4.39-.53h4.27v-2.9h-4.27v2.9Z"/>
          <path d="M229.81,137.94h-4.51c-.06,0-.12-.05-.12-.12s.05-.12,.12-.12h4.51c.06,0,.12,.05,.12,.12s-.05,.12-.12,.12Z"/>
          <path d="M227.36,136.57c-.06,0-.12-.05-.12-.12v-3.43c0-.07,.05-.12,.12-.12s.12,.05,.12,.12v3.43c0,.07-.05,.12-.12,.12Z"/>
          <path d="M227.55,134.81h-3.13c-.06,0-.12-.05-.12-.12s.05-.12,.12-.12h3.13c.06,0,.12,.05,.12,.12s-.05,.12-.12,.12Z"/>
          <path d="M224.03,136.18h-2.65c-.06,0-.12-.05-.12-.12s.05-.12,.12-.12h2.65c.06,0,.12,.05,.12,.12s-.05,.12-.12,.12Z"/>
          <path d="M221.58,140.49s-.02,0-.04,0c-.06-.02-.1-.09-.08-.15l1.27-3.92c.02-.06,.09-.1,.15-.08,.06,.02,.1,.09,.08,.15l-1.27,3.92c-.02,.05-.06,.08-.11,.08Z"/>
          <path d="M224.42,142.61s-.09-.03-.11-.07c-.03-.06,0-.13,.06-.16,1.21-.57,2.21-1.59,2.82-2.88,.03-.06,.1-.08,.16-.06,.06,.03,.08,.1,.06,.16-.63,1.34-1.67,2.4-2.93,2.99-.02,0-.03,.01-.05,.01Z"/>
          <path d="M230.53,143.17s-.05,0-.07-.02c-1.35-.92-2.49-2.19-3.31-3.67-.03-.06-.01-.13,.05-.16,.06-.03,.13-.01,.16,.05,.8,1.46,1.92,2.7,3.24,3.59,.05,.04,.07,.11,.03,.16-.02,.03-.06,.05-.1,.05Z"/>
          <path d="M227.36,143.43c-.06,0-.12-.05-.12-.12v-6.86c0-.07,.05-.12,.12-.12s.12,.05,.12,.12v6.86c0,.07-.05,.12-.12,.12Z"/>
          <path d="M230.79,134.81h-3.23c-.06,0-.12-.05-.12-.12s.05-.12,.12-.12h3.23c.06,0,.12,.05,.12,.12s-.05,.12-.12,.12Z"/>
          <path d="M227.36,143.62c-.06,0-.12-.05-.12-.12v-.2c0-.07,.05-.12,.12-.12s.12,.05,.12,.12v.2c0,.07-.05,.12-.12,.12Z"/>
          <path d="M75.59,24.78c-.05,0-.1-.04-.11-.09-.02-.06,.02-.13,.08-.14l3.43-.88c.06-.02,.13,.02,.14,.09,.02,.06-.02,.13-.08,.14l-3.43,.88s-.02,0-.03,0Z"/>
          <path d="M75.49,24.78h-.2c-.06,0-.12-.05-.12-.12s.05-.12,.12-.12h.2c.06,0,.12,.05,.12,.12s-.05,.12-.12,.12Z"/>
          <path d="M75.2,24.87h-.2c-.06,0-.12-.05-.12-.12s.05-.12,.12-.12h.2c.06,0,.12,.05,.12,.12s-.05,.12-.12,.12Z"/>
          <path d="M70.49,26.15c-.05,0-.1-.04-.11-.09-.02-.06,.02-.13,.08-.15l4.41-1.18c.07-.02,.13,.02,.15,.08,.02,.06-.02,.13-.08,.15l-4.41,1.18s-.02,0-.03,0Z"/>
          <path d="M70.39,26.15h-.29c-.06,0-.12-.05-.12-.12s.05-.12,.12-.12h.29c.06,0,.12,.05,.12,.12s-.05,.12-.12,.12Z"/>
          <path d="M70,26.25h-.19c-.06,0-.12-.05-.12-.12s.05-.12,.12-.12h.19c.06,0,.12,.05,.12,.12s-.05,.12-.12,.12Z"/>
          <path d="M63.73,27.91c-.05,0-.1-.04-.11-.09-.02-.06,.02-.13,.08-.15l2.65-.69,3.33-.88c.07-.02,.13,.02,.15,.08s-.02,.13-.08,.14l-5.98,1.57s-.02,0-.03,0Z"/>
          <path d="M63.44,28.01s-.08-.02-.11-.07c-.03-.06,0-.13,.05-.16l.2-.1c.06-.03,.13,0,.16,.05,.03,.06,0,.13-.05,.16l-.2,.1s-.03,.01-.05,.01Z"/>
          <path d="M63.34,28.01h-.2c-.06,0-.12-.05-.12-.12s.05-.12,.12-.12h.2c.06,0,.12,.05,.12,.12s-.05,.12-.12,.12Z"/>
          <path d="M60.4,28.79c-.05,0-.1-.04-.11-.09-.02-.06,.02-.13,.08-.15l2.65-.69c.06-.02,.13,.02,.14,.08,.02,.06-.02,.13-.08,.15l-2.65,.69s-.02,0-.03,0Z"/>
          <path d="M62.46,98.46s-.07-.01-.09-.04l-2.06-2.35s-.04-.12,.01-.17c.05-.04,.12-.04,.17,.01l2.06,2.35s.04,.12-.01,.17c-.02,.02-.05,.03-.08,.03Z"/>
          <path d="M62.65,98.75s-.08-.02-.11-.07l-.1-.2c-.03-.06,0-.13,.05-.16,.06-.02,.13,0,.16,.05l.1,.2c.03,.06,0,.13-.05,.16-.02,0-.03,.01-.05,.01Z"/>
          <path d="M62.95,98.95s-.06-.01-.08-.03l-.2-.2s-.05-.12,0-.17,.12-.05,.17,0l.2,.2s.05,.12,0,.17c-.02,.02-.05,.03-.08,.03Z"/>
          <path d="M65.89,102.47s-.07-.01-.09-.04l-2.94-3.43s-.04-.12,.01-.17c.05-.04,.12-.04,.17,.01l2.94,3.43s.04,.12-.01,.17c-.02,.02-.05,.03-.08,.03Z"/>
          <path d="M66.18,102.77s-.06-.01-.08-.03l-.2-.2s-.05-.12,0-.17c.05-.05,.12-.05,.17,0l.2,.2s.05,.12,0,.17c-.02,.02-.05,.04-.08,.04Z"/>
          <path d="M66.38,103.06s-.08-.02-.11-.07l-.1-.2c-.03-.06,0-.13,.05-.16,.06-.03,.13,0,.16,.05l.1,.2c.03,.06,0,.13-.05,.16-.02,0-.03,.01-.05,.01Z"/>
          <path d="M68.53,105.51s-.07-.01-.09-.04l-2.06-2.45c-.04-.05-.04-.13,.02-.17,.05-.04,.13-.04,.17,.01l2.06,2.45c.04,.05,.04,.13-.02,.17-.02,.02-.05,.03-.08,.03Z"/>
          <path d="M197.57,35.06s-.01,0-.02,0l-4.31-.69c-.06-.01-.11-.07-.1-.14,.01-.07,.07-.11,.14-.1l4.31,.69c.06,.01,.11,.07,.1,.14,0,.06-.06,.1-.12,.1Z"/>
          <path d="M197.96,35.16h-.29c-.06,0-.12-.05-.12-.12s.05-.12,.12-.12h.29c.06,0,.12,.05,.12,.12s-.05,.12-.12,.12Z"/>
          <path d="M198.26,35.26s-.04,0-.05-.01l-.2-.1c-.06-.03-.08-.1-.05-.16,.03-.06,.1-.08,.16-.05l.2,.1c.06,.03,.08,.1,.05,.16-.02,.04-.06,.07-.11,.07Z"/>
          <path d="M202.86,36.04s-.01,0-.02,0l-4.51-.78c-.06-.01-.11-.07-.1-.14s.07-.11,.14-.1l4.51,.78c.06,.01,.11,.07,.1,.14-.01,.06-.06,.1-.12,.1Z"/>
          <path d="M203.16,36.04h-.2c-.06,0-.12-.05-.12-.12s.05-.12,.12-.12h.2c.06,0,.12,.05,.12,.12s-.05,.12-.12,.12Z"/>
          <path d="M203.55,36.14h-.29c-.06,0-.12-.05-.12-.12s.05-.12,.12-.12h.29c.06,0,.12,.05,.12,.12s-.05,.12-.12,.12Z"/>
          <path d="M211.68,37.61s-.01,0-.02,0l-3.82-.69-4.21-.78c-.06-.01-.11-.07-.1-.14,.01-.06,.08-.1,.14-.09l4.21,.78,3.82,.69c.06,.01,.11,.07,.1,.14-.01,.06-.06,.1-.12,.1Z"/>
          <path d="M212.07,37.61h-.2c-.06,0-.12-.05-.12-.12s.05-.12,.12-.12h.2c.06,0,.12,.05,.12,.12s-.05,.12-.12,.12Z"/>
          <path d="M212.37,37.71h-.2c-.06,0-.12-.05-.12-.12s.05-.12,.12-.12h.2c.06,0,.12,.05,.12,.12s-.05,.12-.12,.12Z"/>
          <path d="M216.97,38.49s-.01,0-.02,0l-4.51-.78c-.06-.01-.11-.07-.1-.14,.01-.06,.07-.12,.14-.1l4.51,.78c.06,.01,.11,.07,.1,.14-.01,.06-.06,.1-.12,.1Z"/>
          <path d="M217.27,38.59s-.04,0-.05-.01l-.19-.1c-.06-.03-.08-.1-.05-.16,.03-.06,.1-.08,.16-.05l.19,.1c.06,.03,.08,.1,.05,.16-.02,.04-.06,.07-.11,.07Z"/>
          <path d="M217.66,38.59h-.2c-.06,0-.12-.05-.12-.12s.05-.12,.12-.12h.2c.06,0,.12,.05,.12,.12s-.05,.12-.12,.12Z"/>
          <path d="M222.26,39.47s-.01,0-.02,0l-4.51-.78c-.06-.01-.11-.07-.1-.14,.01-.06,.07-.12,.14-.1l4.51,.78c.06,.01,.11,.07,.1,.14-.01,.06-.06,.1-.12,.1Z"/>
          <path d="M222.56,39.47h-.2c-.06,0-.12-.05-.12-.12s.05-.12,.12-.12h.2c.06,0,.12,.05,.12,.12s-.05,.12-.12,.12Z"/>
          <path d="M222.85,39.57s-.04,0-.05-.01l-.2-.1c-.06-.03-.08-.1-.05-.16,.03-.06,.1-.08,.16-.05l.2,.1c.06,.03,.08,.1,.05,.16-.02,.04-.06,.07-.11,.07Z"/>
          <path d="M227.46,40.35s-.01,0-.02,0l-4.41-.78c-.06-.01-.11-.07-.1-.14,.01-.06,.07-.11,.14-.1l4.41,.78c.06,.01,.11,.07,.1,.14-.01,.06-.06,.1-.12,.1Z"/>
          <path d="M227.85,40.45s-.02,0-.04,0l-.29-.1c-.06-.02-.1-.09-.08-.15,.02-.06,.09-.1,.15-.08l.29,.1c.06,.02,.1,.09,.08,.15-.02,.05-.06,.08-.11,.08Z"/>
          <path d="M228.14,40.45h-.2c-.06,0-.12-.05-.12-.12s.05-.12,.12-.12h.2c.06,0,.12,.05,.12,.12s-.05,.12-.12,.12Z"/>
          <path d="M235.49,41.73s-.01,0-.02,0l-3.43-.59-3.82-.69c-.06-.01-.11-.07-.1-.14s.06-.12,.14-.1l3.82,.69,3.43,.59c.06,.01,.11,.07,.1,.14-.01,.06-.06,.1-.12,.1Z"/>
          <path d="M235.78,41.82h-.2c-.06,0-.12-.05-.12-.12s.05-.12,.12-.12h.2c.06,0,.12,.05,.12,.12s-.05,.12-.12,.12Z"/>
          <path d="M236.18,41.92s-.02,0-.04,0l-.29-.1c-.06-.02-.1-.09-.08-.15,.02-.06,.09-.09,.15-.07l.29,.1c.06,.02,.1,.09,.08,.15-.02,.05-.06,.08-.11,.08Z"/>
          <path d="M240.68,42.71s-.01,0-.02,0l-4.41-.78c-.06-.01-.11-.07-.1-.14,.01-.06,.07-.11,.14-.1l4.41,.78c.06,.01,.11,.07,.1,.14-.01,.06-.06,.1-.12,.1Z"/>
          <path d="M241.07,42.71h-.19c-.06,0-.12-.05-.12-.12s.05-.12,.12-.12h.19c.06,0,.12,.05,.12,.12s-.05,.12-.12,.12Z"/>
          <path d="M241.37,42.8h-.2c-.06,0-.12-.05-.12-.12s.05-.12,.12-.12h.2c.06,0,.12,.05,.12,.12s-.05,.12-.12,.12Z"/>
          <path d="M245.97,43.59s-.01,0-.02,0l-4.51-.78c-.06-.01-.11-.07-.1-.14,.01-.06,.07-.12,.14-.1l4.51,.78c.06,.01,.11,.07,.1,.14-.01,.06-.06,.1-.12,.1Z"/>
          <path d="M246.27,43.69s-.04,0-.05-.01l-.2-.1c-.06-.03-.08-.1-.05-.16,.03-.06,.1-.08,.16-.05l.2,.1c.06,.03,.08,.1,.05,.16-.02,.04-.06,.07-.11,.07Z"/>
          <path d="M246.66,43.69h-.2c-.06,0-.12-.05-.12-.12s.05-.12,.12-.12h.2c.06,0,.12,.05,.12,.12s-.05,.12-.12,.12Z"/>
          <path d="M250.09,44.37s-.01,0-.02,0l-3.33-.59c-.06-.01-.11-.07-.1-.14,.01-.06,.07-.12,.14-.1l3.33,.59c.06,.01,.11,.07,.1,.14-.01,.06-.06,.1-.12,.1Z"/>
          <path d="M262.53,59.07c-.06,0-.11-.05-.12-.11l-.2-2.35-.58-2.23c-.02-.06,.02-.13,.08-.15,.06-.02,.13,.02,.14,.08l.59,2.25,.2,2.37c0,.07-.04,.12-.11,.13,0,0,0,0,0,0Z"/>
          <path d="M261.75,54.37s-.08-.02-.11-.07l-.1-.2c-.03-.06,0-.13,.05-.16,.06-.03,.13,0,.16,.05l.1,.2c.03,.06,0,.13-.05,.16-.02,0-.04,.01-.05,.01Z"/>
          <path d="M261.55,53.97s-.08-.02-.11-.07l-.1-.2c-.03-.06,0-.13,.05-.16,.06-.03,.13,0,.16,.05l.1,.2c.03,.06,0,.13-.05,.16-.02,0-.03,.01-.05,.01Z"/>
          <path d="M261.46,53.68s-.09-.03-.11-.07l-.59-1.27-1.17-2.05-.48-.57c-.04-.05-.04-.13,.02-.17,.05-.04,.13-.04,.17,.02l.49,.59,1.19,2.08,.59,1.28c.03,.06,0,.13-.06,.16-.02,0-.03,.01-.05,.01Z"/>
          <path d="M259.1,49.66s-.06-.01-.08-.03l-.1-.1s-.05-.12,0-.17c.05-.05,.12-.05,.17,0l.1,.1s.05,.12,0,.17c-.02,.02-.05,.04-.08,.04Z"/>
          <path d="M258.91,49.47s-.08-.02-.11-.07l-.1-.2c-.03-.06,0-.13,.05-.16,.06-.03,.13,0,.16,.05l.1,.2c.03,.06,0,.13-.05,.16-.02,0-.04,.01-.05,.01Z"/>
          <path d="M258.71,49.17s-.07-.01-.09-.04l-.49-.59-1.75-1.45-1.26-.77c-.06-.03-.07-.11-.04-.16,.03-.06,.11-.07,.16-.04l1.27,.78,1.78,1.48,.51,.6c.04,.05,.04,.13-.02,.17-.02,.02-.05,.03-.08,.03Z"/>
          <path d="M255.09,46.23s-.04,0-.05-.01l-.2-.1c-.06-.03-.08-.1-.05-.16,.03-.06,.1-.08,.16-.05l.2,.1c.06,.03,.08,.1,.05,.16-.02,.04-.06,.07-.11,.07Z"/>
          <path d="M254.89,46.04s-.04,0-.05-.01l-.2-.1c-.06-.03-.08-.1-.05-.16,.03-.06,.1-.08,.16-.05l.2,.1c.06,.03,.08,.1,.05,.16-.02,.04-.06,.07-.11,.07Z"/>
          <path d="M254.6,45.84h-.1s-.03,0-.04,0l-2.16-.88-2.24-.58c-.06-.02-.1-.08-.08-.15,.02-.06,.08-.1,.14-.08l2.25,.59,2.15,.88h.08c.06,0,.12,.05,.12,.12s-.05,.12-.12,.12Z"/>
          <path d="M262.53,64.07c-.06,0-.12-.05-.12-.12v-5c0-.07,.05-.12,.12-.12s.12,.05,.12,.12v5c0,.07-.05,.12-.12,.12Z"/>
          <path d="M262.53,64.36c-.06,0-.12-.05-.12-.12v-.2c0-.07,.05-.12,.12-.12s.12,.05,.12,.12v.2c0,.07-.05,.12-.12,.12Z"/>
          <path d="M262.53,64.75c-.06,0-.12-.05-.12-.12v-.2c0-.07,.05-.12,.12-.12s.12,.05,.12,.12v.2c0,.07-.05,.12-.12,.12Z"/>
          <path d="M262.53,69.36c-.06,0-.12-.05-.12-.12v-4.51c0-.07,.05-.12,.12-.12s.12,.05,.12,.12v4.51c0,.07-.05,.12-.12,.12Z"/>
          <path d="M262.53,69.75c-.06,0-.12-.05-.12-.12v-.2c0-.07,.05-.12,.12-.12s.12,.05,.12,.12v.2c0,.07-.05,.12-.12,.12Z"/>
          <path d="M262.53,70.04c-.06,0-.12-.05-.12-.12v-.2c0-.07,.05-.12,.12-.12s.12,.05,.12,.12v.2c0,.07-.05,.12-.12,.12Z"/>
          <path d="M262.53,74.75c-.06,0-.12-.05-.12-.12v-4.6c0-.07,.05-.12,.12-.12s.12,.05,.12,.12v4.6c0,.07-.05,.12-.12,.12Z"/>
          <path d="M262.53,75.04c-.06,0-.12-.05-.12-.12v-.2c0-.07,.05-.12,.12-.12s.12,.05,.12,.12v.2c0,.07-.05,.12-.12,.12Z"/>
          <path d="M262.53,75.43c-.06,0-.12-.05-.12-.12v-.29c0-.07,.05-.12,.12-.12s.12,.05,.12,.12v.29c0,.07-.05,.12-.12,.12Z"/>
          <path d="M262.53,80.04c-.06,0-.12-.05-.12-.12v-4.51c0-.07,.05-.12,.12-.12s.12,.05,.12,.12v4.51c0,.07-.05,.12-.12,.12Z"/>
          <path d="M262.53,80.43c-.06,0-.12-.05-.12-.12v-.29c0-.07,.05-.12,.12-.12s.12,.05,.12,.12v.29c0,.07-.05,.12-.12,.12Z"/>
          <path d="M262.53,80.72c-.06,0-.12-.05-.12-.12v-.2c0-.07,.05-.12,.12-.12s.12,.05,.12,.12v.2c0,.07-.05,.12-.12,.12Z"/>
          <path d="M262.53,88.17c-.06,0-.12-.05-.12-.12v-7.35c0-.07,.05-.12,.12-.12s.12,.05,.12,.12v7.35c0,.07-.05,.12-.12,.12Z"/>
          <path d="M262.53,88.56c-.06,0-.12-.05-.12-.12v-.2c0-.07,.05-.12,.12-.12s.12,.05,.12,.12v.2c0,.07-.05,.12-.12,.12Z"/>
          <path d="M262.53,88.85c-.06,0-.12-.05-.12-.12v-.2c0-.07,.05-.12,.12-.12s.12,.05,.12,.12v.2c0,.07-.05,.12-.12,.12Z"/>
          <path d="M262.53,93.56c-.06,0-.12-.05-.12-.12v-4.51c0-.07,.05-.12,.12-.12s.12,.05,.12,.12v4.51c0,.07-.05,.12-.12,.12Z"/>
          <path d="M262.53,93.85c-.06,0-.12-.05-.12-.12v-.2c0-.07,.05-.12,.12-.12s.12,.05,.12,.12v.2c0,.07-.05,.12-.12,.12Z"/>
          <path d="M262.53,94.24c-.06,0-.12-.05-.12-.12v-.2c0-.07,.05-.12,.12-.12s.12,.05,.12,.12v.2c0,.07-.05,.12-.12,.12Z"/>
          <path d="M262.53,102.18c-.06,0-.12-.05-.12-.12v-7.84c0-.07,.05-.12,.12-.12s.12,.05,.12,.12v7.84c0,.07-.05,.12-.12,.12Z"/>
          <path d="M262.53,102.57c-.06,0-.12-.05-.12-.12v-.29c0-.07,.05-.12,.12-.12s.12,.05,.12,.12v.29c0,.07-.05,.12-.12,.12Z"/>
          <path d="M262.53,102.87c-.06,0-.12-.05-.12-.12v-.2c0-.07,.05-.12,.12-.12s.12,.05,.12,.12v.2c0,.07-.05,.12-.12,.12Z"/>
          <path d="M262.53,107.47c-.06,0-.12-.05-.12-.12v-4.51c0-.07,.05-.12,.12-.12s.12,.05,.12,.12v4.51c0,.07-.05,.12-.12,.12Z"/>
          <path d="M262.53,107.86c-.06,0-.12-.05-.12-.12v-.2c0-.07,.05-.12,.12-.12s.12,.05,.12,.12v.2c0,.07-.05,.12-.12,.12Z"/>
          <path d="M262.53,108.16c-.06,0-.12-.05-.12-.12v-.2c0-.07,.05-.12,.12-.12s.12,.05,.12,.12v.2c0,.07-.05,.12-.12,.12Z"/>
          <path d="M262.53,114.04c-.06,0-.12-.05-.12-.12v-5.68c0-.07,.05-.12,.12-.12s.12,.05,.12,.12v5.68c0,.07-.05,.12-.12,.12Z"/>
          <path d="M262.53,114.43c-.06,0-.12-.05-.12-.12v-.29c0-.07,.05-.12,.12-.12s.12,.05,.12,.12v.29c0,.07-.05,.12-.12,.12Z"/>
          <path d="M262.53,114.72c-.06,0-.12-.05-.12-.12v-.2c0-.07,.05-.12,.12-.12s.12,.05,.12,.12v.2c0,.07-.05,.12-.12,.12Z"/>
          <path d="M262.53,119.33c-.06,0-.12-.05-.12-.12v-4.51c0-.07,.05-.12,.12-.12s.12,.05,.12,.12v4.51c0,.07-.05,.12-.12,.12Z"/>
          <path d="M262.53,119.72c-.06,0-.12-.05-.12-.12v-.2c0-.07,.05-.12,.12-.12s.12,.05,.12,.12v.2c0,.07-.05,.12-.12,.12Z"/>
          <path d="M262.53,120.01c-.06,0-.12-.05-.12-.12v-.2c0-.07,.05-.12,.12-.12s.12,.05,.12,.12v.2c0,.07-.05,.12-.12,.12Z"/>
          <path d="M262.53,125.11c-.06,0-.12-.05-.12-.12v-4.9c0-.07,.05-.12,.12-.12s.12,.05,.12,.12v4.9c0,.07-.05,.12-.12,.12Z"/>
          <path d="M262.53,125.5c-.06,0-.12-.05-.12-.12v-.29c0-.07,.05-.12,.12-.12s.12,.05,.12,.12v.29c0,.07-.05,.12-.12,.12Z"/>
          <path d="M262.53,125.79c-.06,0-.12-.05-.12-.12v-.2c0-.07,.05-.12,.12-.12s.12,.05,.12,.12v.2c0,.07-.05,.12-.12,.12Z"/>
          <path d="M262.53,130.5c-.06,0-.12-.05-.12-.12v-4.61c0-.07,.05-.12,.12-.12s.12,.05,.12,.12v4.61c0,.07-.05,.12-.12,.12Z"/>
          <path d="M262.53,130.79c-.06,0-.12-.05-.12-.12v-.2c0-.07,.05-.12,.12-.12s.12,.05,.12,.12v.2c0,.07-.05,.12-.12,.12Z"/>
          <path d="M262.53,131.18c-.06,0-.12-.05-.12-.12v-.29c0-.07,.05-.12,.12-.12s.12,.05,.12,.12v.29c0,.07-.05,.12-.12,.12Z"/>
          <path d="M262.53,135.79c-.06,0-.12-.05-.12-.12v-4.51c0-.07,.05-.12,.12-.12s.12,.05,.12,.12v4.51c0,.07-.05,.12-.12,.12Z"/>
          <path d="M262.53,136.18c-.06,0-.12-.05-.12-.12v-.29c0-.07,.05-.12,.12-.12s.12,.05,.12,.12v.29c0,.07-.05,.12-.12,.12Z"/>
          <path d="M262.53,136.47c-.06,0-.12-.05-.12-.12v-.2c0-.07,.05-.12,.12-.12s.12,.05,.12,.12v.2c0,.07-.05,.12-.12,.12Z"/>
          <path d="M262.53,141.18c-.06,0-.12-.05-.12-.12v-4.61c0-.07,.05-.12,.12-.12s.12,.05,.12,.12v4.61c0,.07-.05,.12-.12,.12Z"/>
          <path d="M262.53,141.47c-.06,0-.12-.05-.12-.12v-.2c0-.07,.05-.12,.12-.12s.12,.05,.12,.12v.2c0,.07-.05,.12-.12,.12Z"/>
          <path d="M262.53,141.76c-.06,0-.12-.05-.12-.12v-.2c0-.07,.05-.12,.12-.12s.12,.05,.12,.12v.2c0,.07-.05,.12-.12,.12Z"/>
          <path d="M262.53,146.47c-.06,0-.12-.05-.12-.12v-4.51c0-.07,.05-.12,.12-.12s.12,.05,.12,.12v4.51c0,.06-.05,.12-.12,.12Z"/>
          <path d="M262.53,146.76c-.06,0-.12-.05-.12-.12v-.2c0-.06,.05-.12,.12-.12s.12,.05,.12,.12v.2c0,.06-.05,.12-.12,.12Z"/>
          <path d="M262.53,147.15c-.06,0-.12-.05-.12-.12v-.2c0-.06,.05-.12,.12-.12s.12,.05,.12,.12v.2c0,.06-.05,.12-.12,.12Z"/>
          <path d="M262.53,151.76c-.06,0-.12-.05-.12-.12v-4.51c0-.06,.05-.12,.12-.12s.12,.05,.12,.12v4.51c0,.06-.05,.12-.12,.12Z"/>
          <path d="M262.53,152.15c-.06,0-.12-.05-.12-.12v-.2c0-.06,.05-.12,.12-.12s.12,.05,.12,.12v.2c0,.06-.05,.12-.12,.12Z"/>
          <path d="M262.53,152.44c-.06,0-.12-.05-.12-.12v-.2c0-.06,.05-.12,.12-.12s.12,.05,.12,.12v.2c0,.06-.05,.12-.12,.12Z"/>
          <path d="M262.53,156.46c-.06,0-.12-.05-.12-.12v-3.92c0-.06,.05-.12,.12-.12s.12,.05,.12,.12v3.92c0,.06-.05,.12-.12,.12Z"/>
          <path d="M249.21,169.2c-.06,0-.12-.05-.12-.11,0-.07,.05-.12,.11-.13l2.06-.1,2.43-.49c.06-.01,.13,.03,.14,.09,.01,.06-.03,.13-.09,.14l-2.45,.49-2.07,.1h0Z"/>
          <path d="M253.81,168.51s-.08-.02-.11-.07c-.03-.06,0-.13,.05-.16l.2-.1c.06-.03,.13,0,.16,.05,.03,.06,0,.13-.05,.16l-.2,.1s-.03,.01-.05,.01Z"/>
          <path d="M254.11,168.41s-.08-.02-.11-.06c-.03-.06,0-.13,.05-.16l.2-.1c.06-.02,.13,0,.16,.05,.03,.06,0,.13-.05,.16l-.2,.1s-.04,.01-.05,.01Z"/>
          <path d="M254.4,168.31s-.09-.03-.11-.08c-.02-.06,0-.13,.07-.15l.78-.29,1.74-1.07,1.26-.97c.05-.04,.13-.03,.17,.02,.04,.05,.03,.13-.02,.17l-1.27,.98-1.77,1.08-.8,.3s-.03,0-.04,0Z"/>
          <path d="M258.32,165.87s-.06-.01-.08-.04c-.05-.05-.05-.12,0-.17l.2-.2s.12-.05,.17,0,.05,.12,0,.17l-.2,.2s-.05,.04-.08,.04Z"/>
          <path d="M258.61,165.67s-.04,0-.05-.01c-.06-.03-.08-.1-.05-.16l.1-.2c.03-.06,.1-.08,.16-.05,.06,.03,.08,.1,.05,.16l-.1,.2s-.06,.06-.11,.06Z"/>
          <path d="M258.81,165.38s-.05,0-.08-.03c-.05-.04-.06-.12-.01-.17l1.08-1.27,1.16-1.65,.29-.77c.02-.06,.09-.09,.15-.07,.06,.02,.09,.09,.07,.15l-.29,.78s0,.02-.01,.03l-1.18,1.67-1.08,1.28s-.06,.04-.09,.04Z"/>
          <path d="M261.36,161.56s-.04,0-.05-.01c-.06-.03-.08-.1-.05-.16l.1-.2c.03-.06,.1-.08,.16-.05,.06,.03,.08,.1,.05,.16l-.1,.2s-.06,.06-.11,.06Z"/>
          <path d="M261.55,161.26s-.04,0-.05-.01c-.06-.03-.08-.1-.05-.16l.1-.19c.03-.06,.1-.08,.16-.05,.06,.03,.08,.1,.05,.16l-.1,.19s-.06,.07-.11,.07Z"/>
          <path d="M261.65,160.87s-.04,0-.05-.01c-.06-.03-.08-.1-.05-.16l.2-.39,.48-1.94,.19-2.04c0-.06,.06-.11,.12-.11,0,0,0,0,.01,0,.07,0,.11,.06,.11,.13l-.2,2.06-.49,1.98-.2,.42s-.06,.07-.11,.07Z"/>
          <path d="M249.21,169.2h0l-4.31-.2c-.07,0-.12-.06-.11-.12s.06-.11,.12-.11h0l4.31,.2c.07,0,.12,.06,.11,.12s-.06,.11-.12,.11Z"/>
          <path d="M244.8,169h-.2c-.06,0-.12-.05-.12-.12s.05-.12,.12-.12h.2c.06,0,.12,.05,.12,.12s-.05,.12-.12,.12Z"/>
          <path d="M244.5,169h-.19c-.06,0-.12-.05-.12-.12s.05-.12,.12-.12h.19c.06,0,.12,.05,.12,.12s-.05,.12-.12,.12Z"/>
          <path d="M244.11,169h0l-4.51-.2c-.07,0-.12-.06-.11-.12s.06-.11,.12-.11h0l4.51,.2c.07,0,.12,.06,.11,.12s-.06,.11-.12,.11Z"/>
          <path d="M239.51,168.81h-.2c-.06,0-.12-.05-.12-.12s.05-.12,.12-.12h.2c.06,0,.12,.05,.12,.12s-.05,.12-.12,.12Z"/>
          <path d="M239.12,168.81h-.2c-.06,0-.12-.05-.12-.12s.05-.12,.12-.12h.2c.06,0,.12,.05,.12,.12s-.05,.12-.12,.12Z"/>
          <path d="M238.82,168.71h0l-4.51-.2c-.07,0-.12-.06-.11-.12s.06-.11,.12-.11h0l4.51,.2c.07,0,.12,.06,.11,.12s-.06,.11-.12,.11Z"/>
          <path d="M234.22,168.51h-.29c-.06,0-.12-.05-.12-.12s.05-.12,.12-.12h.29c.06,0,.12,.05,.12,.12s-.05,.12-.12,.12Z"/>
          <path d="M233.83,168.51h-.2c-.06,0-.12-.05-.12-.12s.05-.12,.12-.12h.2c.06,0,.12,.05,.12,.12s-.05,.12-.12,.12Z"/>
          <path d="M233.53,168.51h0l-4.61-.2c-.07,0-.12-.06-.11-.12,0-.07,.06-.13,.12-.11l4.61,.2c.07,0,.12,.06,.11,.12s-.06,.11-.12,.11Z"/>
          <path d="M228.83,168.31h-.2c-.06,0-.12-.05-.12-.12s.05-.12,.12-.12h.2c.06,0,.12,.05,.12,.12s-.05,.12-.12,.12Z"/>
          <path d="M228.53,168.31h-.29c-.06,0-.12-.05-.12-.12s.05-.12,.12-.12h.29c.06,0,.12,.05,.12,.12s-.05,.12-.12,.12Z"/>
          <path d="M228.14,168.31h0l-4.51-.19c-.07,0-.12-.06-.11-.12s.06-.11,.12-.11h0l4.51,.19c.07,0,.12,.06,.11,.12s-.06,.11-.12,.11Z"/>
          <path d="M223.54,168.12s-.04,0-.05-.01l-.2-.1c-.06-.03-.08-.1-.05-.16,.03-.06,.1-.08,.16-.05l.2,.1c.06,.03,.08,.1,.05,.16-.02,.04-.06,.06-.11,.06Z"/>
          <path d="M223.15,168.02h-.2c-.06,0-.12-.05-.12-.12s.05-.12,.12-.12h.2c.06,0,.12,.05,.12,.12s-.05,.12-.12,.12Z"/>
          <path d="M222.85,168.02h0l-4.51-.2c-.07,0-.12-.06-.11-.12s.06-.11,.12-.11h0l4.51,.2c.07,0,.12,.06,.11,.12s-.06,.11-.12,.11Z"/>
          <path d="M218.25,167.83h-.29c-.06,0-.12-.05-.12-.12s.05-.12,.12-.12h.29c.06,0,.12,.05,.12,.12s-.05,.12-.12,.12Z"/>
          <path d="M217.85,167.83h-.2c-.06,0-.12-.05-.12-.12s.05-.12,.12-.12h.2c.06,0,.12,.05,.12,.12s-.05,.12-.12,.12Z"/>
          <path d="M217.56,167.83h0l-4.61-.2c-.07,0-.12-.06-.11-.12s.06-.11,.12-.11h0l4.61,.2c.07,0,.12,.06,.11,.12s-.06,.11-.12,.11Z"/>
          <path d="M212.86,167.63h-.2c-.06,0-.12-.05-.12-.12s.05-.12,.12-.12h.2c.06,0,.12,.05,.12,.12s-.05,.12-.12,.12Z"/>
          <path d="M212.56,167.63h-.29c-.06,0-.12-.05-.12-.12s.05-.12,.12-.12h.29c.06,0,.12,.05,.12,.12s-.05,.12-.12,.12Z"/>
          <path d="M212.17,167.53h0l-4.21-.1-2.75-.2c-.07,0-.12-.06-.11-.13,0-.06,.06-.11,.12-.11h0l2.74,.2,4.21,.1c.06,0,.12,.06,.12,.12,0,.06-.05,.12-.12,.12Z"/>
          <path d="M205.12,167.24h-.29c-.06,0-.12-.05-.12-.12s.05-.12,.12-.12h.29c.06,0,.12,.05,.12,.12s-.05,.12-.12,.12Z"/>
          <path d="M204.72,167.24h-.2c-.06,0-.12-.05-.12-.12s.05-.12,.12-.12h.2c.06,0,.12,.05,.12,.12s-.05,.12-.12,.12Z"/>
          <path d="M204.43,167.24h0l-4.51-.2c-.07,0-.12-.06-.11-.12s.06-.11,.12-.11h0l4.51,.2c.07,0,.12,.06,.11,.12s-.06,.11-.12,.11Z"/>
          <path d="M199.73,167.04h-.2c-.06,0-.12-.05-.12-.12s.05-.12,.12-.12h.2c.06,0,.12,.05,.12,.12s-.05,.12-.12,.12Z"/>
          <path d="M199.43,167.04h-.2c-.06,0-.12-.05-.12-.12s.05-.12,.12-.12h.2c.06,0,.12,.05,.12,.12s-.05,.12-.12,.12Z"/>
          <path d="M199.14,167.04h0l-4.61-.2c-.07,0-.12-.06-.11-.12s.06-.11,.12-.11h0l4.61,.2c.07,0,.12,.06,.11,.12s-.06,.11-.12,.11Z"/>
          <path d="M194.44,166.85s-.04,0-.05-.01l-.2-.1c-.06-.03-.08-.1-.05-.16,.03-.06,.1-.08,.16-.05l.2,.1c.06,.03,.08,.1,.05,.16-.02,.04-.06,.07-.11,.07Z"/>
          <path d="M194.14,166.75h-.29c-.06,0-.12-.05-.12-.12s.05-.12,.12-.12h.29c.06,0,.12,.05,.12,.12s-.05,.12-.12,.12Z"/>
          <path d="M193.75,166.75h0l-2.74-.1-4.51-.2c-.07,0-.12-.06-.11-.12s.06-.11,.12-.11h0l4.51,.2,2.74,.1c.06,0,.12,.06,.11,.12,0,.06-.06,.11-.12,.11Z"/>
          <path d="M186.4,166.45h-.29c-.06,0-.12-.05-.12-.12s.05-.12,.12-.12h.29c.06,0,.12,.05,.12,.12s-.05,.12-.12,.12Z"/>
          <path d="M186.01,166.45h-.2c-.06,0-.12-.05-.12-.12s.05-.12,.12-.12h.2c.06,0,.12,.05,.12,.12s-.05,.12-.12,.12Z"/>
          <path d="M185.72,166.45h0l-4.51-.2c-.07,0-.12-.06-.11-.12,0-.07,.06-.12,.12-.11l4.51,.2c.07,0,.12,.06,.11,.12s-.06,.11-.12,.11Z"/>
          <path d="M181.01,166.26s-.04,0-.05-.01l-.2-.1c-.06-.03-.08-.1-.05-.16,.03-.06,.1-.08,.16-.05l.2,.1c.06,.03,.08,.1,.05,.16-.02,.04-.06,.07-.11,.07Z"/>
          <path d="M180.72,166.16h-.2c-.06,0-.12-.05-.12-.12s.05-.12,.12-.12h.2c.06,0,.12,.05,.12,.12s-.05,.12-.12,.12Z"/>
          <path d="M180.33,166.16h0l-6.86-.29c-.07,0-.12-.06-.11-.12,0-.06,.06-.11,.12-.11h0l6.86,.29c.07,0,.12,.06,.11,.12s-.06,.11-.12,.11Z"/>
          <path d="M173.27,165.87h-.2c-.06,0-.12-.05-.12-.12s.05-.12,.12-.12h.2c.06,0,.12,.05,.12,.12s-.05,.12-.12,.12Z"/>
          <path d="M172.98,165.87h-.2c-.06,0-.12-.05-.12-.12s.05-.12,.12-.12h.2c.06,0,.12,.05,.12,.12s-.05,.12-.12,.12Z"/>
          <path d="M172.59,165.87h0l-4.51-.2c-.07,0-.12-.06-.11-.12s.06-.11,.12-.11h0l4.51,.2c.07,0,.12,.06,.11,.12s-.06,.11-.12,.11Z"/>
          <path d="M167.98,165.67h-.2c-.06,0-.12-.05-.12-.12s.05-.12,.12-.12h.2c.06,0,.12,.05,.12,.12s-.05,.12-.12,.12Z"/>
          <path d="M167.69,165.57h-.29c-.06,0-.12-.05-.12-.12s.05-.12,.12-.12h.29c.06,0,.12,.05,.12,.12s-.05,.12-.12,.12Z"/>
          <path d="M167.3,165.57h0l-4.51-.2c-.07,0-.12-.06-.11-.12s.06-.11,.12-.11h0l4.51,.2c.07,0,.12,.06,.11,.12s-.06,.11-.12,.11Z"/>
          <path d="M162.69,165.38h-.29c-.06,0-.12-.05-.12-.12s.05-.12,.12-.12h.29c.06,0,.12,.05,.12,.12s-.05,.12-.12,.12Z"/>
          <path d="M162.3,165.38h-.2c-.06,0-.12-.05-.12-.12s.05-.12,.12-.12h.2c.06,0,.12,.05,.12,.12s-.05,.12-.12,.12Z"/>
          <path d="M162.01,165.38h0l-4.51-.2c-.07,0-.12-.06-.11-.12s.06-.11,.12-.11h0l4.51,.2c.07,0,.12,.06,.11,.12s-.06,.11-.12,.11Z"/>
          <path d="M157.3,165.18h-.2c-.06,0-.12-.05-.12-.12s.05-.12,.12-.12h.2c.06,0,.12,.05,.12,.12s-.05,.12-.12,.12Z"/>
          <path d="M157.01,165.18h-.2c-.06,0-.12-.05-.12-.12s.05-.12,.12-.12h.2c.06,0,.12,.05,.12,.12s-.05,.12-.12,.12Z"/>
          <path d="M156.62,165.18h0l-4.51-.2c-.07,0-.12-.06-.11-.12s.06-.11,.12-.11h0l4.51,.2c.07,0,.12,.06,.11,.12s-.06,.11-.12,.11Z"/>
          <path d="M152.01,164.89h-.2c-.06,0-.12-.05-.12-.12s.05-.12,.12-.12h.2c.06,0,.12,.05,.12,.12s-.05,.12-.12,.12Z"/>
          <path d="M151.72,164.89h-.29c-.06,0-.12-.05-.12-.12s.05-.12,.12-.12h.29c.06,0,.12,.05,.12,.12s-.05,.12-.12,.12Z"/>
          <path d="M151.33,164.89h0l-4.51-.2c-.07,0-.12-.06-.11-.12s.06-.11,.12-.11h0l4.51,.2c.07,0,.12,.06,.11,.12s-.06,.11-.12,.11Z"/>
          <path d="M146.72,164.69h-.29c-.06,0-.12-.05-.12-.12s.05-.12,.12-.12h.29c.06,0,.12,.05,.12,.12s-.05,.12-.12,.12Z"/>
          <path d="M146.33,164.69h-.2c-.06,0-.12-.05-.12-.12s.05-.12,.12-.12h.2c.06,0,.12,.05,.12,.12s-.05,.12-.12,.12Z"/>
          <path d="M146.03,164.69h0l-2.45-.1-4.9-.29c-.06,0-.11-.06-.11-.13,0-.06,.06-.11,.12-.11h0l4.9,.29,2.45,.1c.06,0,.12,.06,.11,.12,0,.06-.06,.11-.12,.11Z"/>
          <path d="M138.59,164.3h-.2c-.06,0-.12-.05-.12-.12s.05-.12,.12-.12h.2c.06,0,.12,.05,.12,.12s-.05,.12-.12,.12Z"/>
          <path d="M138.29,164.3h-.29c-.06,0-.12-.05-.12-.12s.05-.12,.12-.12h.29c.06,0,.12,.05,.12,.12s-.05,.12-.12,.12Z"/>
          <path d="M137.9,164.3h0l-4.51-.2c-.07,0-.12-.06-.11-.12s.06-.11,.12-.11h0l4.51,.2c.07,0,.12,.06,.11,.12s-.06,.11-.12,.11Z"/>
          <path d="M133.3,164.1h-.29c-.06,0-.12-.05-.12-.12s.05-.12,.12-.12h.29c.06,0,.12,.05,.12,.12s-.05,.12-.12,.12Z"/>
          <path d="M132.91,164.1h-.2c-.06,0-.12-.05-.12-.12s.05-.12,.12-.12h.2c.06,0,.12,.05,.12,.12s-.05,.12-.12,.12Z"/>
          <path d="M132.61,164.1h0l-4.9-.2c-.06,0-.12-.06-.11-.12,0-.06,.06-.11,.12-.11h0l4.9,.2c.06,0,.12,.06,.11,.12,0,.06-.06,.11-.12,.11Z"/>
          <path d="M114.29,158.52s-.05,0-.07-.03l-.49-.39-1.78-1.87s-.04-.12,0-.17c.05-.04,.12-.04,.17,0l1.76,1.86,.48,.38c.05,.04,.06,.12,.02,.17-.02,.03-.06,.04-.09,.04Z"/>
          <path d="M114.58,158.71s-.04,0-.05-.01l-.2-.1c-.06-.03-.08-.1-.05-.16,.03-.06,.1-.08,.16-.05l.2,.1c.06,.03,.08,.1,.05,.16-.02,.04-.06,.06-.11,.06Z"/>
          <path d="M114.88,158.91s-.04,0-.05-.01l-.2-.1c-.06-.03-.08-.1-.05-.16,.03-.06,.1-.08,.16-.05l.2,.1c.06,.03,.08,.1,.05,.16-.02,.04-.06,.06-.11,.06Z"/>
          <path d="M118.7,161.46s-.04,0-.05-.01l-.78-.39-2.17-1.38-.8-.7s-.05-.12-.01-.17c.04-.05,.12-.06,.17-.01l.78,.69,2.14,1.36,.77,.38c.06,.03,.08,.1,.05,.16-.02,.04-.06,.07-.11,.07Z"/>
          <path d="M119.09,161.65s-.02,0-.04,0l-.29-.1c-.06-.02-.1-.09-.08-.15s.09-.1,.15-.08l.29,.1c.06,.02,.1,.09,.08,.15-.02,.05-.06,.08-.11,.08Z"/>
          <path d="M119.38,161.75s-.04,0-.05-.01l-.2-.1c-.06-.03-.08-.1-.05-.16,.03-.06,.1-.08,.16-.05l.2,.1c.06,.03,.08,.1,.05,.16-.02,.04-.06,.06-.11,.06Z"/>
          <path d="M123.7,163.32s-.02,0-.03,0l-1.08-.29-2.36-.79-.8-.4c-.06-.03-.08-.1-.05-.16,.03-.06,.1-.08,.16-.05l.78,.39,2.34,.78,1.07,.29c.06,.02,.1,.08,.08,.15-.01,.05-.06,.09-.11,.09Z"/>
          <path d="M124.09,163.32h-.29c-.06,0-.12-.05-.12-.12s.05-.12,.12-.12h.29c.06,0,.12,.05,.12,.12s-.05,.12-.12,.12Z"/>
          <path d="M124.38,163.42h-.2c-.06,0-.12-.05-.12-.12s.05-.12,.12-.12h.2c.06,0,.12,.05,.12,.12s-.05,.12-.12,.12Z"/>
          <path d="M127.71,163.91s0,0-.01,0l-2.55-.29-.71-.2c-.06-.02-.1-.08-.08-.15,.02-.06,.09-.1,.15-.08l.69,.2,2.53,.29c.06,0,.11,.07,.1,.13,0,.06-.06,.1-.12,.1Z"/>
          <path d="M112.04,156.26s-.07-.01-.09-.04l-2.45-2.84s-.04-.12,.01-.17c.05-.04,.12-.04,.17,.01l2.45,2.84s.04,.12-.01,.17c-.02,.02-.05,.03-.08,.03Z"/>
          <path d="M109.49,153.32s-.08-.02-.11-.07l-.1-.2c-.03-.06,0-.13,.05-.16,.06-.02,.13,0,.16,.05l.1,.2c.03,.06,0,.13-.05,.16-.02,0-.03,.01-.05,.01Z"/>
          <path d="M109.29,153.03s-.06-.01-.08-.04l-.1-.1s-.04-.12,0-.17c.05-.04,.12-.04,.17,0l.1,.1s.04,.12,0,.17c-.02,.02-.05,.03-.08,.03Z"/>
          <path d="M109.1,152.84s-.07-.01-.09-.04l-2.94-3.43s-.04-.13,.01-.17c.05-.04,.12-.04,.17,.01l2.94,3.43s.04,.13-.01,.17c-.02,.02-.05,.03-.08,.03Z"/>
          <path d="M106.06,149.31s-.08-.02-.11-.07l-.1-.2c-.03-.06,0-.13,.05-.16,.06-.02,.13,0,.16,.05l.1,.2c.03,.06,0,.13-.05,.16-.02,0-.03,.01-.05,.01Z"/>
          <path d="M105.86,149.01s-.06-.01-.08-.04l-.2-.2s-.05-.12,0-.17,.12-.05,.17,0l.2,.2s.05,.12,0,.17c-.02,.02-.05,.04-.08,.04Z"/>
          <path d="M105.67,148.72s-.06-.01-.09-.04l-3.04-3.43s-.04-.12,0-.17c.05-.04,.12-.04,.17,.01l3.04,3.43s.04,.12,0,.17c-.02,.02-.05,.03-.08,.03Z"/>
          <path d="M102.63,145.19s-.04,0-.05-.01l-.2-.1c-.06-.03-.08-.1-.05-.16,.03-.06,.1-.08,.16-.05l.2,.1c.06,.03,.08,.1,.05,.16-.02,.04-.06,.07-.11,.07Z"/>
          <path d="M102.34,145s-.08-.02-.11-.07l-.1-.2c-.03-.06,0-.13,.05-.16,.06-.03,.13,0,.16,.05l.1,.2c.03,.06,0,.13-.05,.16-.02,0-.04,.01-.05,.01Z"/>
          <path d="M102.14,144.7s-.07-.01-.09-.04l-2.94-3.43s-.04-.12,.01-.17c.05-.04,.13-.04,.17,.01l2.94,3.43s.04,.12-.01,.17c-.02,.02-.05,.03-.08,.03Z"/>
          <path d="M99.1,141.18s-.08-.02-.11-.07l-.1-.2c-.03-.06,0-.13,.05-.16,.06-.03,.13,0,.16,.05l.1,.2c.03,.06,0,.13-.05,.16-.02,0-.04,.01-.05,.01Z"/>
          <path d="M98.91,140.98s-.06-.01-.08-.03l-.2-.2s-.05-.12,0-.17,.12-.05,.17,0l.2,.2s.05,.12,0,.17c-.02,.02-.05,.03-.08,.03Z"/>
          <path d="M98.71,140.69s-.07-.01-.09-.04l-2.94-3.43s-.04-.12,.01-.17c.05-.04,.13-.04,.17,.01l2.94,3.43s.04,.12-.01,.17c-.02,.02-.05,.03-.08,.03Z"/>
          <path d="M95.67,137.16s-.06-.01-.08-.03l-.2-.2s-.05-.12,0-.17,.12-.05,.17,0l.2,.2s.05,.12,0,.17c-.02,.02-.05,.03-.08,.03Z"/>
          <path d="M95.48,136.86s-.06-.01-.08-.03l-.2-.2s-.05-.12,0-.17,.12-.05,.17,0l.2,.2s.05,.12,0,.17c-.02,.02-.05,.03-.08,.03Z"/>
          <path d="M95.18,136.67s-.07-.01-.09-.04l-2.94-3.53c-.04-.05-.04-.13,.02-.17,.05-.04,.13-.04,.17,.02l2.94,3.53c.04,.05,.04,.13-.02,.17-.02,.02-.05,.03-.08,.03Z"/>
          <path d="M92.15,133.14s-.08-.02-.11-.07l-.1-.2c-.03-.06,0-.13,.05-.16,.06-.03,.13,0,.16,.05l.1,.2c.03,.06,0,.13-.05,.16-.02,0-.03,.01-.05,.01Z"/>
          <path d="M91.95,132.85s-.08-.02-.11-.07l-.1-.2c-.03-.06,0-.13,.05-.16,.06-.03,.13,0,.16,.05l.1,.2c.03,.06,0,.13-.05,.16-.02,0-.03,.01-.05,.01Z"/>
          <path d="M91.75,132.55s-.07-.01-.09-.04l-2.94-3.43s-.04-.12,.01-.17c.05-.04,.13-.04,.17,.01l2.94,3.43s.04,.12-.01,.17c-.02,.02-.05,.03-.08,.03Z"/>
          <path d="M88.72,129.03s-.04,0-.05-.01l-.2-.1c-.06-.03-.08-.1-.05-.16,.03-.06,.1-.08,.16-.05l.2,.1c.06,.03,.08,.1,.05,.16-.02,.04-.06,.07-.11,.07Z"/>
          <path d="M88.52,128.83s-.06-.01-.08-.03l-.2-.2s-.05-.12,0-.17c.05-.05,.12-.05,.17,0l.2,.2s.05,.12,0,.17c-.02,.02-.05,.04-.08,.04Z"/>
          <path d="M88.23,128.54s-.07-.01-.09-.04l-2.94-3.43s-.04-.12,.01-.17c.05-.04,.13-.03,.17,.01l2.94,3.43s.04,.12-.01,.17c-.02,.02-.05,.03-.08,.03Z"/>
          <path d="M85.29,125.01s-.06-.01-.08-.03l-.2-.2s-.05-.12,0-.17,.12-.05,.17,0l.2,.2s.05,.12,0,.17c-.02,.02-.05,.03-.08,.03Z"/>
          <path d="M84.99,124.72s-.06-.01-.08-.03l-.1-.1s-.05-.12,0-.17c.05-.05,.12-.05,.17,0l.1,.1s.05,.12,0,.17c-.02,.02-.05,.04-.08,.04Z"/>
          <path d="M84.8,124.52s-.07-.01-.09-.04l-2.94-3.43s-.04-.12,.01-.17c.05-.04,.13-.04,.17,.01l2.94,3.43s.04,.12-.01,.17c-.02,.02-.05,.03-.08,.03Z"/>
          <path d="M81.76,120.99s-.08-.02-.11-.07l-.1-.2c-.03-.06,0-.13,.05-.16,.06-.03,.13,0,.16,.05l.1,.2c.03,.06,0,.13-.05,.16-.02,0-.04,.01-.05,.01Z"/>
          <path d="M81.56,120.7s-.06-.01-.08-.03l-.2-.2s-.05-.12,0-.17,.12-.05,.17,0l.2,.2s.05,.12,0,.17c-.02,.02-.05,.03-.08,.03Z"/>
          <path d="M81.37,120.4s-.06-.01-.09-.04l-3.04-3.43s-.04-.12,0-.17c.05-.04,.12-.04,.17,.01l3.04,3.43s.04,.12,0,.17c-.02,.02-.05,.03-.08,.03Z"/>
          <path d="M78.33,116.88s-.04,0-.05-.01l-.2-.1c-.06-.03-.08-.1-.05-.16,.03-.06,.1-.08,.16-.05l.2,.1c.06,.03,.08,.1,.05,.16-.02,.04-.06,.07-.11,.07Z"/>
          <path d="M78.04,116.68s-.08-.02-.11-.07l-.1-.2c-.03-.06,0-.13,.05-.16,.06-.03,.13,0,.16,.05l.1,.2c.03,.06,0,.13-.05,.16-.02,0-.03,.01-.05,.01Z"/>
          <path d="M77.84,116.39s-.07-.01-.09-.04l-2.94-3.43s-.04-.12,.01-.17c.05-.04,.13-.04,.17,.01l2.94,3.43s.04,.12-.01,.17c-.02,.02-.05,.03-.08,.03Z"/>
          <path d="M74.8,112.86s-.08-.02-.11-.07l-.1-.2c-.03-.06,0-.13,.05-.16,.06-.03,.13,0,.16,.05l.1,.2c.03,.06,0,.13-.05,.16-.02,0-.03,.01-.05,.01Z"/>
          <path d="M74.61,112.57s-.06-.01-.08-.04l-.1-.1s-.04-.12,0-.17,.12-.05,.17,0l.1,.1s.04,.12,0,.17c-.02,.02-.05,.03-.08,.03Z"/>
          <path d="M74.41,112.37s-.07-.01-.09-.04l-2.94-3.43s-.04-.12,.01-.17c.05-.04,.13-.04,.17,.01l2.94,3.43s.04,.12-.01,.17c-.02,.02-.05,.03-.08,.03Z"/>
          <path d="M71.37,108.84s-.06-.01-.08-.03l-.2-.2s-.05-.12,0-.17,.12-.05,.17,0l.2,.2s.05,.12,0,.17c-.02,.02-.05,.03-.08,.03Z"/>
          <path d="M71.18,108.55s-.06-.01-.08-.03l-.2-.2s-.05-.12,0-.17c.05-.05,.12-.05,.17,0l.2,.2s.05,.12,0,.17c-.02,.02-.05,.04-.08,.04Z"/>
          <path d="M70.88,108.35s-.07-.01-.09-.04l-2.35-2.84s-.03-.07-.02-.11c.01-.04,.04-.07,.08-.08l3.14-.88c.06-.02,.13,.02,.15,.08,.02,.06-.02,.13-.08,.15l-2.96,.83,2.24,2.7c.04,.05,.04,.13-.02,.17-.02,.02-.05,.03-.08,.03Z"/>
          <path d="M71.77,104.63s-.08-.02-.11-.07c-.03-.06,0-.13,.05-.16l.2-.1c.06-.03,.13,0,.16,.05,.03,.06,0,.13-.05,.16l-.2,.1s-.03,.01-.05,.01Z"/>
          <path d="M72.06,104.53s-.1-.03-.11-.08c-.02-.06,.01-.13,.08-.15l.29-.1c.06-.02,.13,.01,.15,.07,.02,.06-.01,.13-.08,.15l-.29,.1s-.02,0-.04,0Z"/>
          <path d="M72.45,104.43c-.05,0-.1-.03-.11-.09-.02-.06,.02-.13,.08-.15l4.31-1.18c.07-.02,.13,.02,.15,.08,.02,.06-.02,.13-.08,.15l-4.31,1.18s-.02,0-.03,0Z"/>
          <path d="M76.96,103.26s-.08-.02-.11-.07c-.03-.06,0-.13,.05-.16l.2-.1c.06-.03,.13,0,.16,.05,.03,.06,0,.13-.05,.16l-.2,.1s-.03,.01-.05,.01Z"/>
          <path d="M77.25,103.16s-.08-.02-.11-.07c-.03-.06,0-.13,.05-.16l.2-.1c.06-.03,.13,0,.16,.05,.03,.06,0,.13-.05,.16l-.2,.1s-.03,.01-.05,.01Z"/>
          <path d="M77.55,103.06c-.05,0-.1-.04-.11-.09-.02-.06,.02-.13,.08-.15l4.41-1.18c.07-.01,.13,.02,.15,.08,.02,.06-.02,.13-.08,.15l-4.41,1.18s-.02,0-.03,0Z"/>
          <path d="M82.05,101.89s-.08-.02-.11-.07c-.03-.06,0-.13,.05-.16l.2-.1c.06-.03,.13,0,.16,.05,.03,.06,0,.13-.05,.16l-.2,.1s-.03,.01-.05,.01Z"/>
          <path d="M82.35,101.79s-.1-.03-.11-.08c-.02-.06,.01-.13,.08-.15l.29-.1c.06-.02,.13,.01,.15,.07,.02,.06-.01,.13-.08,.15l-.29,.1s-.02,0-.04,0Z"/>
          <path d="M82.74,101.69c-.05,0-.1-.04-.12-.09-.02-.06,.02-.13,.09-.14l3.13-.78,3.33-.88c.07-.02,.13,.02,.15,.08,.02,.06-.02,.13-.08,.14l-3.33,.88-3.14,.78s-.02,0-.03,0Z"/>
          <path d="M89.6,99.93h-.29c-.06,0-.12-.05-.12-.12s.05-.12,.12-.12h.29c.06,0,.12,.05,.12,.12s-.05,.12-.12,.12Z"/>
          <path d="M89.89,99.83h-.2c-.06,0-.12-.05-.12-.12s.05-.12,.12-.12h.2c.06,0,.12,.05,.12,.12s-.05,.12-.12,.12Z"/>
          <path d="M89.99,99.73c-.05,0-.1-.04-.12-.09-.02-.06,.02-.13,.09-.14l4.41-1.08c.06-.02,.13,.02,.14,.09,.02,.06-.02,.13-.09,.14l-4.41,1.08s-.02,0-.03,0Z"/>
          <path d="M94.69,98.55h-.2c-.06,0-.12-.05-.12-.12s.05-.12,.12-.12h.2c.06,0,.12,.05,.12,.12s-.05,.12-.12,.12Z"/>
          <path d="M95.09,98.46h-.29c-.06,0-.12-.05-.12-.12s.05-.12,.12-.12h.29c.06,0,.12,.05,.12,.12s-.05,.12-.12,.12Z"/>
          <path d="M95.18,98.36c-.05,0-.1-.04-.11-.09-.02-.06,.02-.13,.08-.14l3.22-.85-.75-2.83c-.02-.06,.02-.13,.08-.15,.06-.02,.13,.02,.15,.08l.78,2.94s0,.06-.01,.09c-.02,.03-.04,.05-.07,.05l-3.33,.88s-.02,0-.03,0Z"/>
          <path d="M97.73,94.44s-.08-.02-.11-.07l-.1-.2c-.03-.06,0-.13,.05-.16,.06-.03,.13,0,.16,.05l.1,.2c.03,.06,0,.13-.05,.16-.02,0-.04,.01-.05,.01Z"/>
          <path d="M97.63,94.15s-.1-.03-.11-.08l-.1-.29c-.02-.06,.01-.13,.08-.15,.06-.02,.13,.01,.15,.08l.1,.29c.02,.06-.01,.13-.08,.15-.01,0-.02,0-.04,0Z"/>
          <path d="M97.53,93.75c-.05,0-.1-.03-.11-.09l-1.18-4.31c-.02-.06,.02-.13,.08-.15,.06-.02,.13,.02,.15,.08l1.18,4.31c.02,.06-.02,.13-.08,.15-.01,0-.02,0-.03,0Z"/>
          <path d="M96.36,89.25s-.08-.02-.11-.07l-.1-.2c-.03-.06,0-.13,.05-.16,.06-.03,.13,0,.16,.05l.1,.2c.03,.06,0,.13-.05,.16-.02,0-.03,.01-.05,.01Z"/>
          <path d="M96.26,88.95s-.08-.02-.11-.07l-.1-.2c-.03-.06,0-.13,.05-.16,.06-.03,.13,0,.16,.05l.1,.2c.03,.06,0,.13-.05,.16-.02,0-.04,.01-.05,.01Z"/>
          <path d="M96.16,88.66c-.05,0-.1-.04-.11-.09l-1.18-4.41c-.02-.06,.02-.13,.08-.15,.07-.02,.13,.02,.15,.08l1.18,4.41c.02,.06-.02,.13-.08,.15-.01,0-.02,0-.03,0Z"/>
          <path d="M94.99,84.15s-.08-.02-.11-.07l-.1-.2c-.03-.06,0-.13,.05-.16,.06-.03,.13,0,.16,.05l.1,.2c.03,.06,0,.13-.05,.16-.02,0-.03,.01-.05,.01Z"/>
          <path d="M94.89,83.86s-.1-.03-.11-.08l-.1-.29c-.02-.06,.01-.13,.08-.15,.06-.02,.13,.01,.15,.07l.1,.29c.02,.06-.01,.13-.08,.15-.01,0-.02,0-.04,0Z"/>
          <path d="M94.79,83.47c-.05,0-.1-.04-.11-.09l-1.18-4.41c-.02-.06,.02-.13,.08-.15,.06-.02,.13,.02,.15,.08l1.18,4.41c.02,.06-.02,.13-.08,.15-.01,0-.02,0-.03,0Z"/>
          <path d="M93.61,78.96s-.08-.02-.11-.07l-.1-.2c-.03-.06,0-.13,.05-.16,.06-.03,.13,0,.16,.05l.1,.2c.03,.06,0,.13-.05,.16-.02,0-.03,.01-.05,.01Z"/>
          <path d="M93.52,78.66s-.08-.02-.11-.07l-.1-.2c-.03-.06,0-.13,.05-.16,.06-.03,.13,0,.16,.05l.1,.2c.03,.06,0,.13-.05,.16-.02,0-.03,.01-.05,.01Z"/>
          <path d="M93.42,78.37c-.05,0-.1-.04-.11-.09l-1.18-4.41c-.02-.06,.02-.13,.08-.15,.06-.02,.13,.02,.15,.08l1.18,4.41c.02,.06-.02,.13-.08,.15-.01,0-.02,0-.03,0Z"/>
          <path d="M92.24,73.86s-.1-.03-.11-.08l-.1-.29c-.02-.06,.01-.13,.07-.15,.07-.02,.13,.01,.15,.07l.1,.29c.02,.06-.01,.13-.07,.15-.01,0-.03,0-.04,0Z"/>
          <path d="M92.15,73.47s-.08-.02-.11-.07l-.1-.2c-.03-.06,0-.13,.05-.16,.06-.03,.13,0,.16,.05l.1,.2c.03,.06,0,.13-.05,.16-.02,0-.03,.01-.05,.01Z"/>
          <path d="M92.05,73.18c-.05,0-.1-.04-.11-.09l-1.18-4.41c-.02-.06,.02-.13,.08-.15,.06-.02,.13,.02,.15,.08l1.18,4.41c.02,.06-.02,.13-.08,.15-.01,0-.02,0-.03,0Z"/>
          <path d="M90.87,68.67s-.08-.02-.11-.07l-.1-.2c-.03-.06,0-.13,.05-.16,.06-.03,.13,0,.16,.05l.1,.2c.03,.06,0,.13-.05,.16-.02,0-.04,.01-.05,.01Z"/>
          <path d="M90.77,68.38c-.06,0-.12-.05-.12-.12v-.2c0-.07,.05-.12,.12-.12s.12,.05,.12,.12v.2c0,.07-.05,.12-.12,.12Z"/>
          <path d="M90.68,67.98c-.05,0-.1-.03-.11-.09l-1.18-4.31c-.02-.06,.02-.13,.08-.15,.07-.02,.13,.02,.15,.08l1.18,4.31c.02,.06-.02,.13-.08,.15-.01,0-.02,0-.03,0Z"/>
          <path d="M89.5,63.58s-.1-.03-.11-.08l-.1-.29c-.02-.06,.01-.13,.08-.15,.06-.02,.13,.01,.15,.08l.1,.29c.02,.06-.01,.13-.08,.15-.01,0-.02,0-.04,0Z"/>
          <path d="M89.4,63.18c-.06,0-.12-.05-.12-.12v-.2c0-.07,.05-.12,.12-.12s.12,.05,.12,.12v.2c0,.07-.05,.12-.12,.12Z"/>
          <path d="M89.3,62.89c-.05,0-.1-.04-.11-.09l-1.18-4.41c-.02-.06,.02-.13,.08-.15,.06-.02,.13,.02,.15,.08l1.18,4.41c.02,.06-.02,.13-.08,.15-.01,0-.02,0-.03,0Z"/>
          <path d="M88.13,58.38c-.06,0-.12-.05-.12-.12v-.2c0-.07,.05-.12,.12-.12s.12,.05,.12,.12v.2c0,.07-.05,.12-.12,.12Z"/>
          <path d="M88.03,58.09c-.06,0-.12-.05-.12-.12v-.29c0-.07,.05-.12,.12-.12s.12,.05,.12,.12v.29c0,.07-.05,.12-.12,.12Z"/>
          <path d="M87.93,57.7c-.05,0-.1-.04-.11-.09l-1.18-4.41c-.02-.06,.02-.13,.08-.15,.07-.02,.13,.02,.15,.08l1.18,4.41c.02,.06-.02,.13-.08,.15-.01,0-.02,0-.03,0Z"/>
          <path d="M86.76,53.19c-.06,0-.12-.05-.12-.12v-.2c0-.07,.05-.12,.12-.12s.12,.05,.12,.12v.2c0,.07-.05,.12-.12,.12Z"/>
          <path d="M86.66,52.9c-.06,0-.12-.05-.12-.12v-.2c0-.07,.05-.12,.12-.12s.12,.05,.12,.12v.2c0,.07-.05,.12-.12,.12Z"/>
          <path d="M86.56,52.6c-.05,0-.1-.04-.12-.09l-1.08-4.41c-.02-.06,.02-.13,.09-.14,.06-.02,.13,.02,.14,.09l1.08,4.41c.02,.06-.02,.13-.09,.14,0,0-.02,0-.03,0Z"/>
          <path d="M85.39,48.09c-.06,0-.12-.05-.12-.12v-.2c0-.07,.05-.12,.12-.12s.12,.05,.12,.12v.2c0,.07-.05,.12-.12,.12Z"/>
          <path d="M85.29,47.7c-.06,0-.12-.05-.12-.12v-.2c0-.07,.05-.12,.12-.12s.12,.05,.12,.12v.2c0,.07-.05,.12-.12,.12Z"/>
          <path d="M85.19,47.41c-.05,0-.1-.04-.12-.09l-1.08-4.41c-.02-.06,.02-.13,.09-.14,.06-.02,.13,.02,.14,.09l1.08,4.41c.02,.06-.02,.13-.09,.14,0,0-.02,0-.03,0Z"/>
          <path d="M84.01,42.9c-.06,0-.12-.05-.12-.12v-.2c0-.07,.05-.12,.12-.12s.12,.05,.12,.12v.2c0,.07-.05,.12-.12,.12Z"/>
          <path d="M83.92,42.61c-.06,0-.12-.05-.12-.12v-.2c0-.07,.05-.12,.12-.12s.12,.05,.12,.12v.2c0,.07-.05,.12-.12,.12Z"/>
          <path d="M83.92,42.22c-.05,0-.1-.03-.11-.09l-1.17-4.31c-.02-.06,.02-.13,.08-.15,.06-.02,.13,.02,.15,.08l1.17,4.31c.02,.06-.02,.13-.08,.15-.01,0-.02,0-.03,0Z"/>
          <path d="M82.64,37.81c-.06,0-.12-.05-.12-.12v-.29c0-.07,.05-.12,.12-.12s.12,.05,.12,.12v.29c0,.07-.05,.12-.12,.12Z"/>
          <path d="M82.54,37.41c-.06,0-.12-.05-.12-.12v-.2c0-.07,.05-.12,.12-.12s.12,.05,.12,.12v.2c0,.07-.05,.12-.12,.12Z"/>
          <path d="M82.54,37.12c-.05,0-.1-.04-.11-.09l-1.18-4.41c-.02-.06,.02-.13,.08-.15,.07-.02,.13,.02,.15,.08l1.18,4.41c.02,.06-.02,.13-.08,.15-.01,0-.02,0-.03,0Z"/>
          <path d="M81.27,32.61c-.06,0-.12-.05-.12-.12v-.2c0-.07,.05-.12,.12-.12s.12,.05,.12,.12v.2c0,.07-.05,.12-.12,.12Z"/>
          <path d="M81.27,32.32s-.1-.03-.11-.08l-.1-.29c-.02-.06,.01-.13,.08-.15,.06-.02,.13,.01,.15,.08l.1,.29c.02,.06-.01,.13-.08,.15-.01,0-.02,0-.04,0Z"/>
          <path d="M81.17,31.93c-.05,0-.1-.03-.11-.09l-1.18-4.31c-.02-.06,.02-.13,.08-.15,.06-.02,.13,.02,.15,.08l1.18,4.31c.02,.06-.02,.13-.08,.15-.01,0-.02,0-.03,0Z"/>
          <path d="M80,27.42s-.08-.02-.11-.07l-.1-.2c-.03-.06,0-.13,.05-.16,.06-.03,.13,0,.16,.05l.1,.2c.03,.06,0,.13-.05,.16-.02,0-.04,.01-.05,.01Z"/>
          <path d="M79.9,27.13s-.08-.02-.11-.07l-.1-.2c-.03-.06,0-.13,.05-.16,.06-.03,.13,0,.16,.05l.1,.2c.03,.06,0,.13-.05,.16-.02,0-.03,.01-.05,.01Z"/>
          <path d="M79.8,26.83c-.05,0-.1-.04-.11-.09l-.78-2.94c-.02-.06,.02-.13,.08-.15l2.74-.78c.06-.02,.13,.02,.15,.08,.02,.06-.02,.13-.08,.15l-2.63,.75,.75,2.83c.02,.06-.02,.13-.08,.15-.01,0-.02,0-.03,0Z"/>
          <path d="M81.86,23.11s-.08-.02-.11-.07c-.03-.06,0-.13,.05-.16l.2-.1c.06-.03,.13,0,.16,.05,.03,.06,0,.13-.05,.16l-.2,.1s-.03,.01-.05,.01Z"/>
          <path d="M82.15,23.01s-.08-.02-.11-.07c-.03-.06,0-.13,.05-.16l.2-.1c.06-.03,.13,0,.16,.05,.03,.06,0,.13-.05,.16l-.2,.1s-.03,.01-.05,.01Z"/>
          <path d="M82.54,22.91c-.05,0-.1-.03-.11-.09-.02-.06,.02-.13,.08-.15l4.31-1.18c.06-.02,.13,.02,.15,.08,.02,.06-.02,.13-.08,.15l-4.31,1.18s-.02,0-.03,0Z"/>
          <path d="M86.95,21.74s-.1-.03-.11-.08c-.02-.06,.01-.13,.08-.15l.29-.1c.06-.02,.13,.01,.15,.07,.02,.06-.01,.13-.08,.15l-.29,.1s-.02,0-.04,0Z"/>
          <path d="M87.34,21.64s-.08-.02-.11-.07c-.03-.06,0-.13,.05-.16l.2-.1c.06-.03,.13,0,.16,.05,.03,.06,0,.13-.05,.16l-.2,.1s-.03,.01-.05,.01Z"/>
          <path d="M87.64,21.54c-.05,0-.1-.04-.12-.09-.02-.06,.02-.13,.09-.14l2.74-.69c.07-.02,.13,.02,.15,.09,.02,.06-.02,.13-.09,.14l-2.74,.69s-.02,0-.03,0Z"/>
          <path d="M111.94,19.97s-.01,0-.02,0l-2.45-.39c-.06-.01-.11-.07-.1-.14,0-.06,.07-.11,.14-.1l2.45,.39c.06,.01,.11,.07,.1,.14,0,.06-.06,.1-.12,.1Z"/>
          <path d="M109.39,19.58h-.29c-.06,0-.12-.05-.12-.12s.05-.12,.12-.12h.29c.06,0,.12,.05,.12,.12s-.05,.12-.12,.12Z"/>
          <path d="M109,19.58s-.04,0-.05-.01l-.2-.1c-.06-.03-.08-.1-.05-.16,.03-.06,.1-.08,.16-.05l.2,.1c.06,.03,.08,.1,.05,.16-.02,.04-.06,.07-.11,.07Z"/>
          <path d="M108.7,19.48s0,0-.01,0l-1.08-.1-3.42-.2c-.07,0-.12-.06-.11-.13,0-.06,.06-.11,.12-.11,0,0,0,0,0,0l3.43,.2,1.08,.1c.06,0,.11,.06,.11,.13,0,.06-.06,.11-.12,.11Z"/>
          <path d="M104,19.19h-.2c-.06,0-.12-.05-.12-.12s.05-.12,.12-.12h.2c.06,0,.12,.05,.12,.12s-.05,.12-.12,.12Z"/>
          <path d="M103.71,19.19h-.2c-.06,0-.12-.05-.12-.12s.05-.12,.12-.12h.2c.06,0,.12,.05,.12,.12s-.05,.12-.12,.12Z"/>
          <path d="M98.81,19.39c-.06,0-.12-.05-.12-.12s.05-.12,.12-.12h.1l4.41-.2c.06,0,.12,.05,.12,.12s-.05,.12-.12,.12h-.1l-4.41,.2Z"/>
          <path d="M98.71,19.39h-.2c-.06,0-.12-.05-.12-.12s.05-.12,.12-.12h.2c.06,0,.12,.05,.12,.12s-.05,.12-.12,.12Z"/>
          <path d="M98.12,19.48s-.1-.03-.11-.08c-.02-.06,.01-.13,.08-.15l.29-.1c.06-.02,.13,.01,.15,.07,.02,.06-.01,.13-.08,.15l-.29,.1s-.02,0-.04,0Z"/>
          <path d="M93.52,20.17c-.05,0-.1-.03-.11-.09-.02-.06,.02-.13,.08-.15l1.08-.29,3.45-.4c.07,0,.13,.04,.13,.1,0,.06-.04,.12-.1,.13l-3.43,.39-1.06,.29s-.02,0-.03,0Z"/>
          <path d="M93.42,20.17h-.2c-.06,0-.12-.05-.12-.12s.05-.12,.12-.12h.2c.06,0,.12,.05,.12,.12s-.05,.12-.12,.12Z"/>
          <path d="M93.13,20.27h-.2c-.06,0-.12-.05-.12-.12s.05-.12,.12-.12h.2c.06,0,.12,.05,.12,.12s-.05,.12-.12,.12Z"/>
          <path d="M90.38,20.86c-.05,0-.1-.04-.12-.09-.02-.06,.02-.13,.09-.14l2.35-.59c.07-.02,.13,.02,.15,.09,.02,.06-.02,.13-.09,.14l-2.35,.59s-.02,0-.03,0Z"/>
          <path d="M115.76,20.56s-.01,0-.02,0l-3.82-.59c-.06-.01-.11-.07-.1-.14,0-.07,.06-.11,.14-.1l3.82,.59c.06,.01,.11,.07,.1,.14,0,.06-.06,.1-.12,.1Z"/>
          <path d="M116.05,20.66h-.2c-.06,0-.12-.05-.12-.12s.05-.12,.12-.12h.2c.06,0,.12,.05,.12,.12s-.05,.12-.12,.12Z"/>
          <path d="M116.35,20.76s-.04,0-.05-.01l-.2-.1c-.06-.03-.08-.1-.05-.16,.03-.06,.1-.08,.16-.05l.2,.1c.06,.03,.08,.1,.05,.16-.02,.04-.06,.07-.11,.07Z"/>
          <path d="M122.91,21.93s-.02,0-.02,0l-2.55-.49-3.82-.69c-.06-.01-.11-.07-.1-.14,.01-.06,.06-.1,.12-.1,0,0,.01,0,.02,0l3.82,.69,2.55,.49c.06,.01,.1,.07,.09,.14-.01,.06-.06,.1-.12,.1Z"/>
          <path d="M123.3,21.93h-.29c-.06,0-.12-.05-.12-.12s.05-.12,.12-.12h.29c.06,0,.12,.05,.12,.12s-.05,.12-.12,.12Z"/>
          <path d="M123.6,22.03s-.04,0-.05-.01l-.2-.1c-.06-.03-.08-.1-.05-.16,.03-.06,.1-.08,.16-.05l.2,.1c.06,.03,.08,.1,.05,.16-.02,.04-.06,.07-.11,.07Z"/>
          <path d="M128.2,22.82s-.01,0-.02,0l-4.51-.78c-.06-.01-.11-.07-.1-.14,.01-.06,.07-.12,.14-.1l4.51,.78c.06,.01,.11,.07,.1,.14-.01,.06-.06,.1-.12,.1Z"/>
          <path d="M128.5,22.91s-.04,0-.05-.01l-.2-.1c-.06-.03-.08-.1-.05-.16,.03-.06,.1-.08,.16-.05l.2,.1c.06,.03,.08,.1,.05,.16-.02,.04-.06,.07-.11,.07Z"/>
          <path d="M128.89,22.91h-.29c-.06,0-.12-.05-.12-.12s.05-.12,.12-.12h.29c.06,0,.12,.05,.12,.12s-.05,.12-.12,.12Z"/>
          <path d="M133.4,23.8s-.02,0-.02,0l-4.41-.88c-.06-.01-.11-.08-.09-.14,.01-.06,.08-.1,.14-.09l4.41,.88c.06,.01,.11,.08,.09,.14-.01,.06-.06,.1-.12,.1Z"/>
          <path d="M133.79,23.8h-.29c-.06,0-.12-.05-.12-.12s.05-.12,.12-.12h.29c.06,0,.12,.05,.12,.12s-.05,.12-.12,.12Z"/>
          <path d="M134.08,23.89s-.04,0-.05-.01l-.2-.1c-.06-.03-.08-.1-.05-.16,.03-.06,.1-.08,.16-.05l.2,.1c.06,.03,.08,.1,.05,.16-.02,.04-.06,.07-.11,.07Z"/>
          <path d="M138.69,24.68s-.01,0-.02,0l-4.51-.78c-.06-.01-.11-.07-.1-.14s.07-.11,.14-.1l4.51,.78c.06,.01,.11,.07,.1,.14-.01,.06-.06,.1-.12,.1Z"/>
          <path d="M138.98,24.78s-.04,0-.05-.01l-.2-.1c-.06-.03-.08-.1-.05-.16,.03-.06,.1-.08,.16-.05l.2,.1c.06,.03,.08,.1,.05,.16-.02,.04-.06,.07-.11,.07Z"/>
          <path d="M139.37,24.78h-.29c-.06,0-.12-.05-.12-.12s.05-.12,.12-.12h.29c.06,0,.12,.05,.12,.12s-.05,.12-.12,.12Z"/>
          <path d="M143.88,25.66s-.01,0-.02,0l-4.41-.78c-.06-.01-.11-.07-.1-.14,.01-.06,.07-.11,.14-.1l4.41,.78c.06,.01,.11,.07,.1,.14-.01,.06-.06,.1-.12,.1Z"/>
          <path d="M144.27,25.66h-.2c-.06,0-.12-.05-.12-.12s.05-.12,.12-.12h.2c.06,0,.12,.05,.12,.12s-.05,.12-.12,.12Z"/>
          <path d="M144.56,25.76s-.04,0-.05-.01l-.2-.1c-.06-.03-.08-.1-.05-.16,.03-.06,.1-.08,.16-.05l.2,.1c.06,.03,.08,.1,.05,.16-.02,.04-.06,.07-.11,.07Z"/>
          <path d="M149.17,26.54s-.01,0-.02,0l-4.51-.78c-.06-.01-.11-.07-.1-.14,.01-.06,.07-.12,.14-.1l4.51,.78c.06,.01,.11,.07,.1,.14-.01,.06-.06,.1-.12,.1Z"/>
          <path d="M149.46,26.64s-.04,0-.05-.01l-.2-.1c-.06-.03-.08-.1-.05-.16,.03-.06,.1-.08,.16-.05l.2,.1c.06,.03,.08,.1,.05,.16-.02,.04-.06,.07-.11,.07Z"/>
          <path d="M149.86,26.64h-.2c-.06,0-.12-.05-.12-.12s.05-.12,.12-.12h.2c.06,0,.12,.05,.12,.12s-.05,.12-.12,.12Z"/>
          <path d="M154.46,27.52s-.01,0-.02,0l-4.51-.78c-.06-.01-.11-.07-.1-.14,.01-.06,.07-.11,.14-.1l4.51,.78c.06,.01,.11,.07,.1,.14-.01,.06-.06,.1-.12,.1Z"/>
          <path d="M154.76,27.52h-.2c-.06,0-.12-.05-.12-.12s.05-.12,.12-.12h.2c.06,0,.12,.05,.12,.12s-.05,.12-.12,.12Z"/>
          <path d="M155.05,27.62s-.04,0-.05-.01l-.2-.1c-.06-.03-.08-.1-.05-.16,.03-.06,.1-.08,.16-.05l.2,.1c.06,.03,.08,.1,.05,.16-.02,.04-.06,.07-.11,.07Z"/>
          <path d="M159.65,28.4s-.01,0-.02,0l-4.51-.78c-.06-.01-.11-.07-.1-.14,.01-.06,.07-.12,.14-.1l4.51,.78c.06,.01,.11,.07,.1,.14-.01,.06-.06,.1-.12,.1Z"/>
          <path d="M160.05,28.5s-.02,0-.04,0l-.29-.1c-.06-.02-.1-.09-.08-.15,.02-.06,.09-.1,.15-.08l.29,.1c.06,.02,.1,.09,.08,.15-.02,.05-.06,.08-.11,.08Z"/>
          <path d="M160.34,28.5h-.2c-.06,0-.12-.05-.12-.12s.05-.12,.12-.12h.2c.06,0,.12,.05,.12,.12s-.05,.12-.12,.12Z"/>
          <path d="M168.77,30.07s-.01,0-.02,0l-2.74-.49-2.94-.59-2.64-.39c-.06-.01-.11-.07-.1-.14,.01-.06,.06-.11,.13-.1l2.65,.39,2.94,.59,2.74,.49c.06,.01,.11,.07,.1,.14-.01,.06-.06,.1-.12,.1Z"/>
          <path d="M169.16,30.07h-.29c-.06,0-.12-.05-.12-.12s.05-.12,.12-.12h.29c.06,0,.12,.05,.12,.12s-.05,.12-.12,.12Z"/>
          <path d="M169.45,30.16s-.04,0-.05-.01l-.2-.1c-.06-.03-.08-.1-.05-.16,.03-.06,.1-.08,.16-.05l.2,.1c.06,.03,.08,.1,.05,.16-.02,.04-.06,.07-.11,.07Z"/>
          <path d="M174.06,30.95s-.01,0-.02,0l-4.51-.78c-.06-.01-.11-.07-.1-.14,.01-.06,.07-.12,.14-.1l4.51,.78c.06,.01,.11,.07,.1,.14-.01,.06-.06,.1-.12,.1Z"/>
          <path d="M174.35,31.05s-.04,0-.05-.01l-.2-.1c-.06-.03-.08-.1-.05-.16,.03-.06,.1-.08,.16-.05l.2,.1c.06,.03,.08,.1,.05,.16-.02,.04-.06,.07-.11,.07Z"/>
          <path d="M174.74,31.05h-.29c-.06,0-.12-.05-.12-.12s.05-.12,.12-.12h.29c.06,0,.12,.05,.12,.12s-.05,.12-.12,.12Z"/>
          <path d="M179.25,31.93s-.02,0-.02,0l-4.41-.88c-.06-.01-.11-.08-.09-.14,.01-.06,.08-.1,.14-.09l4.41,.88c.06,.01,.11,.08,.09,.14-.01,.06-.06,.1-.12,.1Z"/>
          <path d="M179.64,31.93h-.2c-.06,0-.12-.05-.12-.12s.05-.12,.12-.12h.2c.06,0,.12,.05,.12,.12s-.05,.12-.12,.12Z"/>
          <path d="M179.94,32.03s-.04,0-.05-.01l-.2-.1c-.06-.03-.08-.1-.05-.16,.03-.06,.1-.08,.16-.05l.2,.1c.06,.03,.08,.1,.05,.16-.02,.04-.06,.07-.11,.07Z"/>
          <path d="M184.54,32.81s-.01,0-.02,0l-4.51-.78c-.06-.01-.11-.07-.1-.14,.01-.06,.07-.11,.14-.1l4.51,.78c.06,.01,.11,.07,.1,.14-.01,.06-.06,.1-.12,.1Z"/>
          <path d="M184.84,32.91s-.04,0-.05-.01l-.2-.1c-.06-.03-.08-.1-.05-.16,.03-.06,.1-.08,.16-.05l.2,.1c.06,.03,.08,.1,.05,.16-.02,.04-.06,.07-.11,.07Z"/>
          <path d="M185.23,32.91h-.2c-.06,0-.12-.05-.12-.12s.05-.12,.12-.12h.2c.06,0,.12,.05,.12,.12s-.05,.12-.12,.12Z"/>
          <path d="M189.83,33.69s-.01,0-.02,0l-4.51-.78c-.06-.01-.11-.07-.1-.14,.01-.06,.07-.12,.14-.1l4.51,.78c.06,.01,.11,.07,.1,.14-.01,.06-.06,.1-.12,.1Z"/>
          <path d="M190.13,33.79h-.2c-.06,0-.12-.05-.12-.12s.05-.12,.12-.12h.2c.06,0,.12,.05,.12,.12s-.05,.12-.12,.12Z"/>
          <path d="M190.42,33.89s-.04,0-.05-.01l-.2-.1c-.06-.03-.08-.1-.05-.16,.03-.06,.1-.08,.16-.05l.2,.1c.06,.03,.08,.1,.05,.16-.02,.04-.06,.07-.11,.07Z"/>
          <path d="M193.26,34.38s-.01,0-.02,0l-2.65-.49c-.06-.01-.11-.07-.1-.14,.01-.06,.08-.1,.14-.09l2.65,.49c.06,.01,.11,.07,.1,.14-.01,.06-.06,.1-.12,.1Z"/>
        </g>
        <rect class="cls-1" x="193.06" y="63.29" width="54" height="44"/>
        <g>
          <path class="cls-2" d="M214.32,84.84c.72,.35,1.28,.84,1.67,1.45,.39,.62,.59,1.31,.59,2.08,0,.85-.21,1.62-.62,2.3-.42,.69-.99,1.23-1.72,1.62-.73,.39-1.54,.59-2.44,.59-.53,0-1.1-.02-1.73-.07-.22-.02-.49-.03-.79-.05-.3-.02-.64-.02-1.01-.02l-1.63,.02c-.29,.02-.7,.02-1.22,.02-.03,0-.05-.05-.05-.14s.02-.14,.05-.14c.61,0,1.06-.04,1.34-.13s.49-.24,.6-.47c.11-.22,.17-.58,.17-1.06v-11.11c0-.48-.05-.83-.16-1.06-.1-.22-.3-.38-.59-.47-.29-.09-.73-.13-1.32-.13-.05,0-.07-.05-.07-.14s.02-.14,.07-.14l1.18,.02c.67,.03,1.22,.05,1.63,.05,.29,0,.56,0,.8-.02,.25-.02,.46-.03,.64-.05,.51-.05,.98-.07,1.39-.07,1.34,0,2.35,.29,3.02,.88s1.01,1.35,1.01,2.29-.32,1.67-.97,2.32c-.65,.65-1.51,1.11-2.58,1.38l.26-.26c.93,0,1.75,.18,2.47,.53Zm-4.68-6.67c-.19,.06-.34,.22-.43,.46-.1,.24-.14,.62-.14,1.15v4.7l-.77-.19c.69,.05,1.3,.07,1.85,.07,1.17,0,2.03-.3,2.59-.9,.56-.6,.84-1.4,.84-2.39,0-.9-.24-1.62-.73-2.17-.49-.55-1.24-.83-2.27-.83-.43,0-.74,.03-.94,.1Zm4.4,13.38c.57-.6,.85-1.46,.85-2.58,0-1.22-.36-2.2-1.07-2.95-.71-.75-1.69-1.14-2.94-1.15-.91-.03-1.75,0-2.52,.12l.7-.26v6.12c0,.42,.06,.74,.18,.96s.35,.39,.7,.49c.34,.1,.84,.16,1.5,.16,1.17,0,2.04-.3,2.6-.9Z"/>
          <path class="cls-2" d="M223.47,83.82c3.3,1.34,2.27,3.47,1.2,2.61-.18-.7-.72-1.62-1.2-2.27v8.08c0,.14-.51,.42-.99,.42h-.26v-7.3c-.64,1.34-1.47,2.56-2.51,3.62l-.22-.19c1.25-1.82,2.07-4.24,2.53-6.61h-2.03l-.13-.46h2.37v-3.76l1.83,.19c-.03,.24-.16,.4-.58,.46v3.1h.4l.71-1.01s.82,.7,1.28,1.22c-.03,.18-.19,.26-.42,.26h-1.97v1.65Zm7.27,3.03c.91,1.57,2.53,2.87,4.02,3.51l-.03,.18c-.5,.06-.88,.46-1.06,1.12-1.39-1.04-2.58-2.69-3.31-4.8v5.33c0,.16-.53,.46-.96,.46h-.26v-4.47c-1.14,1.49-2.72,2.69-4.64,3.59l-.18-.24c1.86-1.18,3.33-2.85,4.23-4.67h-1.46v.27c0,.11-.4,.38-.99,.38h-.19v-6.05l1.38,.58h1.86v-1.54h-3.63l-.13-.46h3.76v-2.1l1.81,.19c-.05,.22-.16,.38-.59,.45v1.46h2.03l.75-1.02s.88,.7,1.39,1.23c-.05,.18-.19,.26-.4,.26h-3.78v1.54h1.95l.64-.72,1.41,1.1c-.1,.11-.34,.24-.66,.3v4.24c-.02,.11-.64,.37-1.04,.37h-.19v-.48h-1.73Zm-3.65-4.34v1.71h2.05v-1.71h-2.05Zm2.05,3.86v-1.68h-2.05v1.68h2.05Zm1.22-3.86v1.71h2.11v-1.71h-2.11Zm2.11,3.86v-1.68h-2.11v1.68h2.11Z"/>
        </g>
        <g>
          <path d="M127.79,60.73c.69,.14,1.38,.39,2.06,.74,.11,.06,.18,.12,.19,.17,.02,.05,.04,.17,.07,.36l.29,2.86s-.04,.08-.13,.08c-.09,0-.14-.01-.16-.06-.74-2.67-2.38-4.01-4.94-4.01-1.34,0-2.53,.3-3.56,.89-1.03,.59-1.83,1.44-2.39,2.53-.56,1.1-.84,2.37-.84,3.83s.31,2.67,.94,3.83c.62,1.16,1.46,2.08,2.51,2.75,1.05,.67,2.19,1.01,3.42,1.01,1.31,0,2.38-.32,3.19-.96,.82-.64,1.44-1.62,1.87-2.93,0-.03,.04-.05,.12-.05,.11,0,.17,.02,.17,.07l-.24,2.64c-.02,.19-.04,.31-.07,.36-.03,.05-.1,.1-.19,.17-.83,.4-1.61,.68-2.34,.84-.73,.16-1.56,.24-2.51,.24-1.68,0-3.18-.33-4.5-1-1.32-.66-2.35-1.6-3.08-2.8-.74-1.2-1.1-2.58-1.1-4.13s.38-2.84,1.13-4c.75-1.16,1.79-2.06,3.11-2.7,1.32-.64,2.8-.96,4.45-.96,1.01,0,1.86,.07,2.54,.22Z"/>
          <path d="M137.47,66.82c3.3,1.34,2.27,3.47,1.2,2.61-.18-.7-.72-1.62-1.2-2.27v8.08c0,.14-.51,.42-.99,.42h-.26v-7.3c-.64,1.34-1.47,2.56-2.51,3.62l-.22-.19c1.25-1.82,2.07-4.24,2.53-6.61h-2.03l-.13-.46h2.37v-3.76l1.83,.19c-.03,.24-.16,.4-.58,.46v3.1h.4l.71-1.01s.82,.7,1.28,1.22c-.03,.18-.19,.26-.42,.26h-1.97v1.65Zm7.27,3.03c.91,1.57,2.53,2.87,4.02,3.51l-.03,.18c-.5,.06-.88,.46-1.06,1.12-1.39-1.04-2.58-2.69-3.31-4.8v5.33c0,.16-.53,.46-.96,.46h-.26v-4.47c-1.14,1.49-2.72,2.69-4.64,3.59l-.18-.24c1.86-1.18,3.33-2.85,4.23-4.67h-1.46v.27c0,.11-.4,.38-.99,.38h-.19v-6.05l1.38,.58h1.86v-1.54h-3.63l-.13-.46h3.76v-2.1l1.81,.19c-.05,.22-.16,.38-.59,.45v1.46h2.03l.75-1.02s.88,.7,1.39,1.23c-.05,.18-.19,.26-.4,.26h-3.78v1.54h1.95l.64-.72,1.41,1.1c-.1,.11-.34,.24-.66,.3v4.24c-.02,.11-.64,.37-1.04,.37h-.19v-.48h-1.73Zm-3.65-4.34v1.71h2.05v-1.71h-2.05Zm2.05,3.86v-1.68h-2.05v1.68h2.05Zm1.22-3.86v1.71h2.11v-1.71h-2.11Zm2.11,3.86v-1.68h-2.11v1.68h2.11Z"/>
        </g>
        <g>
          <path d="M119.33,115.68c-.1,0-.23-.01-.38-.02-.16,0-.33-.01-.51-.01h-.73c-.13,.02-.31,.02-.54,.02-.01,0-.02-.02-.02-.06s0-.07,.02-.07c.27,0,.47-.02,.6-.05s.21-.11,.26-.21,.07-.26,.07-.48v-5c0-.22-.02-.37-.06-.47-.04-.1-.13-.17-.25-.21-.13-.04-.33-.06-.6-.06-.01,0-.02-.02-.02-.06s0-.06,.02-.06h.54c.3,.03,.54,.03,.72,.03,.27,0,.54-.01,.81-.03,.32-.01,.54-.02,.66-.02,.75,0,1.41,.14,1.99,.43,.58,.29,1.02,.68,1.34,1.18,.32,.5,.48,1.05,.48,1.67,0,.7-.16,1.32-.49,1.85-.33,.54-.77,.95-1.33,1.24-.56,.29-1.17,.44-1.83,.44-.21,0-.45-.01-.72-.03Zm2.15-.49c.45-.24,.79-.6,1.04-1.07,.25-.47,.37-1.04,.37-1.7,0-.63-.12-1.19-.36-1.71-.24-.51-.58-.91-1.01-1.21-.44-.29-.95-.44-1.52-.44-.31,0-.55,.02-.72,.05-.17,.04-.29,.11-.37,.22-.08,.11-.12,.27-.12,.49v4.86c0,.22,.03,.38,.09,.51,.06,.12,.18,.21,.34,.27,.17,.06,.41,.09,.72,.09,.58,0,1.09-.12,1.53-.36Z"/>
          <path d="M126.72,111.64c1.48,.6,1.02,1.56,.54,1.17-.08-.32-.32-.73-.54-1.02v3.64c0,.06-.23,.19-.45,.19h-.12v-3.28c-.29,.6-.66,1.15-1.13,1.63l-.1-.09c.56-.82,.93-1.91,1.14-2.97h-.91l-.06-.21h1.07v-1.69l.82,.09c-.01,.11-.07,.18-.26,.21v1.4h.18l.32-.45s.37,.32,.58,.55c-.01,.08-.09,.12-.19,.12h-.89v.74Zm3.27,1.36c.41,.71,1.14,1.29,1.81,1.58v.08c-.24,.03-.41,.21-.49,.5-.63-.47-1.16-1.21-1.49-2.16v2.4c0,.07-.24,.21-.43,.21h-.12v-2.01c-.51,.67-1.22,1.21-2.09,1.61l-.08-.11c.84-.53,1.5-1.28,1.9-2.1h-.66v.12s-.18,.17-.45,.17h-.09v-2.72l.62,.26h.83v-.69h-1.63l-.06-.21h1.69v-.94l.81,.09c-.02,.1-.07,.17-.27,.2v.66h.91l.34-.46s.4,.32,.63,.55c-.02,.08-.09,.12-.18,.12h-1.7v.69h.88l.29-.32,.63,.5s-.15,.11-.29,.14v1.91c0,.05-.29,.17-.47,.17h-.09v-.22h-.78Zm-1.64-1.95v.77h.92v-.77h-.92Zm.92,1.74v-.76h-.92v.76h.92Zm.55-1.74v.77h.95v-.77h-.95Zm.95,1.74v-.76h-.95v.76h.95Z"/>
        </g>
        <rect class="cls-1" x="192.8" y="115.49" width="54" height="44"/>
        <g>
          <path class="cls-2" d="M220.99,144.83c0,.1-.03,.14-.1,.14-.3,0-.78-.02-1.42-.05-.64-.03-1.1-.05-1.39-.05-.35,0-.8,.02-1.34,.05-.51,.03-.9,.05-1.18,.05-.06,0-.1-.05-.1-.14s.03-.14,.1-.14c.61,0,1.04-.06,1.31-.17s.4-.31,.4-.6c0-.24-.1-.58-.29-1.01l-5.33-11.26,.6-.74-4.66,11.02c-.22,.54-.34,.99-.34,1.34,0,.94,.78,1.42,2.35,1.42,.08,0,.12,.05,.12,.14s-.04,.14-.12,.14c-.29,0-.7-.02-1.25-.05-.61-.03-1.14-.05-1.58-.05-.42,0-.9,.02-1.44,.05-.48,.03-.88,.05-1.2,.05-.08,0-.12-.05-.12-.14s.04-.14,.12-.14c.45,0,.83-.08,1.14-.25,.31-.17,.61-.46,.89-.89,.28-.42,.59-1.04,.92-1.84l5.06-11.95s.09-.07,.17-.07,.13,.02,.14,.07l5.66,11.93c.54,1.18,1.01,1.98,1.39,2.39s.84,.61,1.37,.61c.06,0,.1,.05,.1,.14Zm-11.98-6.94h6.36l.17,.48h-6.77l.24-.48Z"/>
          <path class="cls-2" d="M223.2,136.01c3.3,1.34,2.27,3.47,1.2,2.61-.18-.71-.72-1.62-1.2-2.27v8.08c0,.14-.51,.42-.99,.42h-.26v-7.3c-.64,1.34-1.47,2.56-2.51,3.62l-.22-.19c1.25-1.83,2.07-4.24,2.53-6.61h-2.03l-.13-.46h2.37v-3.76l1.83,.19c-.03,.24-.16,.4-.58,.46v3.1h.4l.71-1.01s.82,.71,1.28,1.22c-.03,.18-.19,.26-.42,.26h-1.97v1.65Zm7.27,3.03c.91,1.57,2.53,2.87,4.02,3.51l-.03,.18c-.5,.06-.88,.46-1.06,1.12-1.39-1.04-2.58-2.69-3.31-4.8v5.33c0,.16-.53,.46-.96,.46h-.26v-4.47c-1.14,1.49-2.72,2.69-4.64,3.59l-.18-.24c1.86-1.18,3.33-2.85,4.23-4.67h-1.46v.27c0,.11-.4,.38-.99,.38h-.19v-6.05l1.38,.58h1.86v-1.54h-3.63l-.13-.46h3.76v-2.1l1.81,.19c-.05,.22-.16,.38-.59,.45v1.46h2.03l.75-1.03s.88,.71,1.39,1.23c-.05,.18-.19,.26-.4,.26h-3.78v1.54h1.95l.64-.72,1.41,1.1c-.1,.11-.34,.24-.66,.3v4.24c-.02,.11-.64,.37-1.04,.37h-.19v-.48h-1.73Zm-3.65-4.34v1.71h2.05v-1.71h-2.05Zm2.05,3.86v-1.68h-2.05v1.68h2.05Zm1.22-3.86v1.71h2.11v-1.71h-2.11Zm2.11,3.86v-1.68h-2.11v1.68h2.11Z"/>
        </g>
        <path d="M127.71,123.74s-.02,0-.04,0l-1.73-.55-.07,.45s-.03,.07-.06,.09c-.03,.02-.07,.02-.11,0l-1.54-.82-.15,.46s-.04,.06-.08,.08c-.04,0-.08,0-.11-.02l-1.44-1.08-.14,.43s-.04,.07-.08,.08c-.04,0-.08,0-.11-.03l-1.27-1.26-.21,.36s-.05,.05-.09,.06c0,0,0,0-.01,0-.03,0-.07-.02-.09-.04l-1.17-1.35-.21,.35s-.06,.06-.1,.06h0s-.08-.02-.1-.05l-1-1.54-.29,.29s-.07,.04-.1,.03c-.04,0-.07-.03-.09-.07l-.73-1.55-.38,.23s-.07,.02-.1,0c-.03-.01-.06-.04-.07-.07l-.54-1.62-.36,.22s-.07,.02-.11,0c-.03-.02-.06-.05-.07-.08l-.36-1.72-.36,.14s-.08,.01-.11-.01c-.03-.02-.05-.06-.06-.09l-.09-1.8-.44,.15s-.08,0-.11-.02c-.03-.03-.05-.06-.04-.1l.18-1.8-.44,.07s-.08,0-.11-.04c-.03-.03-.04-.07-.02-.11l.54-1.71h-.43s-.08-.02-.1-.06c-.02-.04-.02-.08,0-.12l.82-1.64-.46-.15s-.07-.04-.08-.08c-.01-.04,0-.08,.02-.11l1.18-1.36-.37-.22s-.06-.06-.06-.1,.02-.08,.05-.1l1.45-1-.39-.39s-.04-.07-.03-.11,.04-.07,.07-.09l1.73-.64-.22-.37s-.02-.08,0-.11c.02-.04,.05-.06,.09-.07l1.71-.27-.14-.35s-.01-.08,.01-.11c.02-.03,.06-.05,.1-.05,0,0,0,0,0,0l1.81,.09-.07-.44s0-.08,.04-.11c.03-.03,.08-.04,.11-.02l1.73,.55,.08-.45s.03-.07,.06-.09c.03-.02,.07-.02,.11,0l1.54,.82,.15-.46s.04-.06,.08-.07c.03-.01,.07,0,.1,.01l1.44,.99,.14-.35s.04-.06,.08-.07c.04-.01,.08,0,.1,.03l1.34,1.17,.13-.34s.05-.07,.09-.07c.04-.01,.08,0,.11,.04l1.17,1.35,.21-.35s.06-.06,.1-.06h0s.08,.02,.1,.05l1,1.54,.29-.29s.07-.04,.1-.03c.04,0,.07,.03,.09,.06l.81,1.52,.28-.28s.07-.04,.11-.03c.04,0,.07,.04,.09,.07l.63,1.71,.27-.2s.07-.03,.11-.02c.04,.01,.07,.05,.07,.09l.36,1.73,.46-.15s.07,0,.1,.01c.03,.02,.05,.05,.05,.09l.09,1.73,.46-.08s.07,0,.1,.03c.03,.03,.04,.06,.04,.1l-.18,1.71,.43-.07c.05,0,.08,0,.11,.04,.03,.03,.04,.07,.03,.11l-.46,1.74,.37,.07s.07,.03,.08,.06c.02,.03,.02,.07,0,.1l-.73,1.55,.37,.15s.06,.04,.07,.08,0,.07-.02,.1l-1.09,1.36,.37,.22s.05,.05,.06,.09c0,.04-.01,.08-.04,.1l-1.56,1.29,.3,.3s.04,.07,.03,.11c0,.04-.04,.07-.07,.09l-1.63,.63,.22,.37s.02,.08,0,.11c-.02,.04-.05,.06-.09,.07l-1.82,.27,.15,.45s0,.08-.02,.11c-.03,.03-.06,.04-.1,.04l-1.81-.18,.07,.44s0,.08-.04,.11c-.02,.02-.05,.03-.08,.03Zm-1.86-.83s.02,0,.04,0l1.68,.53-.07-.4s0-.07,.03-.1c.03-.03,.06-.04,.1-.04l1.78,.18-.14-.41s0-.07,.01-.1c.02-.03,.05-.05,.08-.06l1.78-.27-.2-.34s-.02-.07-.01-.1c.01-.03,.04-.06,.07-.07l1.59-.62-.26-.26s-.04-.06-.04-.09c0-.03,.02-.06,.04-.09l1.54-1.26-.35-.21s-.05-.05-.06-.08,0-.07,.02-.09l1.08-1.34-.34-.14s-.06-.04-.07-.07c-.01-.03-.01-.06,0-.09l.72-1.53-.34-.07s-.06-.03-.08-.05-.02-.06-.01-.09l.44-1.68-.41,.07s-.07,0-.1-.03c-.03-.03-.04-.06-.04-.1l.18-1.71-.43,.07s-.07,0-.09-.02c-.03-.02-.04-.05-.04-.09l-.09-1.71-.44,.15s-.07,0-.1-.01-.05-.05-.06-.08l-.35-1.68-.24,.18s-.07,.03-.1,.02c-.04-.01-.06-.04-.08-.07l-.62-1.69-.26,.26s-.07,.04-.1,.03c-.04,0-.07-.03-.09-.06l-.81-1.52-.28,.28s-.06,.03-.1,.03c-.04,0-.07-.02-.09-.05l-.98-1.51-.2,.33s-.05,.05-.09,.06c0,0,0,0-.01,0-.03,0-.07-.02-.09-.04l-1.15-1.32-.12,.31s-.04,.06-.08,.07c-.04,.01-.08,0-.1-.03l-1.34-1.17-.13,.34s-.04,.06-.08,.07c-.03,.01-.07,0-.1-.02l-1.44-.99-.15,.44s-.04,.06-.07,.07c-.03,.01-.07,.01-.1,0l-1.52-.81-.07,.43s-.03,.06-.06,.08-.07,.02-.1,.01l-1.68-.53,.07,.4s0,.07-.03,.1c-.02,.03-.05,.04-.09,.04,0,0,0,0,0,0l-1.77-.09,.13,.32s.01,.07,0,.1c-.02,.03-.05,.05-.08,.06l-1.69,.27,.2,.34s.02,.07,0,.1c-.01,.03-.04,.06-.07,.07l-1.69,.62,.36,.36s.04,.06,.03,.09c0,.03-.02,.07-.05,.09l-1.42,.97,.33,.2s.05,.05,.06,.08c0,.03,0,.07-.03,.1l-1.16,1.34,.42,.14s.06,.04,.07,.07c.01,.03,.01,.07,0,.1l-.8,1.59h.4s.07,.02,.1,.05c.02,.03,.03,.07,.02,.11l-.53,1.68,.4-.07s.07,0,.1,.03c.03,.03,.04,.06,.04,.1l-.18,1.78,.42-.14s.07,0,.1,.01c.03,.02,.05,.05,.05,.09l.09,1.79,.33-.13s.07-.01,.1,0c.03,.02,.05,.05,.06,.08l.36,1.7,.35-.21s.07-.02,.1,0c.03,.01,.06,.04,.07,.07l.54,1.62,.36-.22s.06-.02,.09-.01c.03,.01,.06,.03,.07,.06l.71,1.51,.27-.27s.06-.04,.1-.03c.04,0,.07,.02,.09,.05l.98,1.51,.2-.33s.05-.05,.09-.06c.05,0,.07,.01,.1,.04l1.17,1.35,.21-.35s.05-.05,.09-.06c.04,0,.07,0,.1,.03l1.24,1.24,.14-.41s.04-.06,.08-.08c.04,0,.08,0,.11,.02l1.44,1.08,.14-.43s.04-.06,.07-.07,.07-.01,.1,0l1.52,.8,.07-.43s.03-.06,.06-.08c.02-.01,.04-.02,.06-.02Z"/>
        <polygon class="cls-1" points="251.16 85.65 256.8 88.49 256.8 85.65 256.8 82.81 251.16 85.65"/>
        <polygon class="cls-1" points="251.16 136.65 256.8 139.49 256.8 136.65 256.8 133.81 251.16 136.65"/>
      </g>
      <g>
        <path d="M159.62,11.58c.45,.36,.53,.57,.39,.83-.25,.5-1.12,.34-1.93,.01-2.58-.98-3.95-2.84-4.58-5.15h-3.66v3.96c1.11-.35,2.58-.85,4.09-1.37l.07,.2c-1.04,.57-2.79,1.55-4.8,2.56-.1,.17-.22,.27-.34,.32l-.64-1.22c.43-.25,.5-.35,.5-.69V.41l1.3,.53h6.82l.59-.64,1.28,.98c-.1,.11-.31,.22-.59,.28v3.29c-.01,.1-.57,.34-.95,.34h-.18v-.71h-2.82c.03,.8,.14,1.62,.35,2.4h3.18l.77-.95s.85,.64,1.39,1.13c-.04,.15-.18,.22-.39,.22h-4.82c.59,1.82,1.81,3.39,3.85,4.06,.29,.1,.42,.06,.53-.14,.17-.29,.41-.85,.59-1.36l.17,.03-.17,1.72Zm-9.78-7.52h7.14V1.36h-7.14v2.7Zm3.54,2.8c-.18-.76-.29-1.57-.34-2.4h-3.21v2.4h3.54Z"/>
        <path d="M168.44,5.63c-.1,.11-.27,.18-.56,.22-.11,3.95-.41,5.7-.98,6.28-.38,.38-.87,.53-1.41,.53,0-.32-.04-.59-.21-.73-.15-.15-.53-.28-.95-.36v-.24c.43,.04,1.11,.1,1.37,.1,.24,0,.34-.04,.45-.15,.39-.36,.63-2.12,.73-5.56h-1.58c-.14,2.69-.62,5.21-2.42,7.21l-.22-.22c1.62-2.73,1.57-6.22,1.58-9.5h-1.37l-.11-.41h4.13l.69-.91s.79,.63,1.25,1.09c-.03,.15-.17,.22-.36,.22h-3.07c-.01,.7-.03,1.4-.05,2.09h1.41l.59-.63,1.12,.97ZM164.5,.06c2.94,.94,1.96,3.08,.95,2.26-.07-.73-.6-1.62-1.09-2.16l.14-.1Zm10.07,6.79s.79,.63,1.28,1.09c-.04,.15-.18,.22-.38,.22h-3.22c-.39,1.99-1.5,3.57-4.65,4.78l-.18-.22c2.52-1.25,3.39-2.76,3.71-4.55h-2.82l-.11-.42h3c.1-.7,.11-1.46,.13-2.24h-1.11c-.5,.76-1.11,1.37-1.75,1.82l-.18-.14c.73-.95,1.4-2.42,1.72-3.99l1.55,.46c-.06,.15-.22,.28-.53,.27-.17,.42-.35,.8-.56,1.16h3.08l.7-.88s.77,.62,1.26,1.08c-.04,.15-.18,.22-.38,.22h-2.63c-.03,.78-.07,1.54-.18,2.24h1.56l.7-.9Zm-6.72-2.23c.88-1.08,1.67-2.76,2.09-4.57l1.61,.49c-.06,.15-.22,.28-.53,.28-.22,.56-.49,1.06-.77,1.54h3.45l.73-.94s.81,.64,1.32,1.12c-.04,.15-.2,.22-.39,.22h-5.37c-.57,.81-1.23,1.5-1.95,1.99l-.18-.14Zm4.76,4.15c3.91,2.4,3.12,4.83,1.99,3.92-.27-1.18-1.37-2.77-2.16-3.81l.17-.11Z"/>
        <path d="M181.55,10.56c.7-.17,1.46-.35,2.21-.55l.06,.2c-1.19,.55-2.8,1.27-5.01,2.14-.06,.17-.2,.29-.34,.34l-.52-1.33c.21-.04,.5-.1,.85-.17V6.23l1.32,.14c-.03,.15-.14,.27-.39,.31v4.3l.81-.18V4.79h-.74v.34c0,.08-.32,.32-.85,.32h-.15V.52l1.18,.49h1.93l.53-.59,1.2,.91c-.1,.1-.31,.21-.57,.27v3.38c-.03,.08-.53,.28-.85,.28h-.17v-.46h-.49v2.2h.45l.62-.87s.71,.63,1.13,1.06c-.04,.15-.17,.22-.37,.22h-1.83v3.15Zm-1.75-6.18h2.24V1.42h-2.24v2.97Zm10.24-2.3c-.1,.13-.25,.17-.57,.2-.46,1.05-1.09,2.03-1.89,2.9,.95,.76,2.17,1.33,3.68,1.71l-.04,.14c-.43,.13-.73,.42-.83,.97-.5-.2-.97-.41-1.39-.64l1.06,.83c-.1,.1-.22,.17-.52,.22v4.2c0,.06-.39,.29-.92,.29h-.2v-.95h-3.15v.69c0,.08-.35,.29-.9,.29h-.18V7.68c-.5,.24-1.04,.46-1.6,.66l-.11-.2c1.6-.74,2.94-1.79,3.98-3.01-.43-.59-.78-1.23-1.09-1.92-.6,.78-1.29,1.44-2.03,1.93l-.18-.14c1.04-1.13,2.03-2.98,2.54-5l1.57,.53c-.07,.17-.24,.29-.55,.27-.13,.32-.27,.62-.42,.91h1.96l.67-.63,1.11,1.01Zm-1.12,5.23c-.76-.45-1.39-.97-1.92-1.54-.73,.67-1.55,1.26-2.52,1.77l.94,.39h2.97l.53-.62Zm-.49,4.23v-3.21h-3.15v3.21h3.15Zm-2.34-9.43c-.15,.27-.32,.53-.49,.78,.35,.62,.77,1.19,1.29,1.7,.59-.77,1.04-1.61,1.37-2.48h-2.17Z"/>
      </g>
      <g>
        <path d="M281.94,95.27c.44,1.75-.24,2.9-.85,3.32-.38,.28-.92,.31-1.11-.03-.15-.31,.06-.63,.37-.83,.64-.38,1.32-1.36,1.36-2.48h.24Zm.56-2.84v.7c0,.11-.49,.36-.95,.36h-.15v-4.93l1.2,.52h2.98v-2.16l1.64,.17c-.03,.2-.15,.34-.52,.39v1.6h3l.59-.64,1.26,.97c-.1,.11-.31,.24-.59,.29v3.29c-.01,.1-.57,.31-.94,.31h-.18v-.87h-3.14v1.61c0,.14-.5,.42-.92,.42h-.2v-2.03h-3.08Zm0-2.94v2.54h3.08v-2.54h-3.08Zm7.19,8.68c.38,.13,.48,.25,.48,.46,0,.53-.55,.7-3.36,.7h-2c-1.39,0-1.69-.21-1.69-1.06v-3.57l1.55,.15c-.03,.18-.15,.31-.43,.35v2.84c0,.24,.07,.29,.74,.29h1.91c.83,0,1.47-.01,1.72-.03,.21-.03,.27-.06,.35-.2,.14-.25,.32-.88,.52-1.71h.18l.04,1.76Zm-4.06-3.67c3.26,1.09,2.38,3.45,1.33,2.63-.1-.88-.83-1.9-1.48-2.52l.15-.11Zm1.08-5.01v2.54h3.14v-2.54h-3.14Zm3.14,5.7c3.67,1.44,2.7,4.1,1.53,3.18-.11-1.04-.92-2.31-1.68-3.07l.15-.11Z"/>
        <path d="M306.58,94.85s.84,.63,1.33,1.11c-.04,.15-.15,.22-.36,.22h-5.14v2.13c0,.85-.18,1.34-1.69,1.48-.06-.34-.13-.6-.34-.77-.24-.17-.6-.31-1.29-.41v-.21s1.58,.11,1.88,.11c.25,0,.32-.07,.32-.27v-2.07h-5.39l-.13-.42h5.52v-1.27l1.09,.11c.52-.35,1.18-.84,1.65-1.27h-3.89c-1.58,.83-3.31,1.55-5.11,2.09l-.11-.22c1.33-.52,2.63-1.15,3.87-1.86h-.94l-.12-.41h1.75c.69-.42,1.36-.87,2-1.33h-6.22l-.13-.41h4.97v-1.93h-3.68l-.11-.41h3.8v-1.95l1.58,.14c-.03,.18-.14,.31-.46,.36v1.44h1.64l.73-.9s.62,.46,1.11,.9c.46-.49,.88-.97,1.25-1.43l1.32,1.05c-.13,.13-.28,.15-.6,.03-.81,.88-1.85,1.81-3.07,2.69h2.3l.73-.92s.84,.66,1.34,1.11c-.04,.15-.17,.22-.36,.22h-4.58c-.66,.46-1.37,.91-2.13,1.33h3.39l.66-.62,1.12,1.06c-.11,.1-.28,.13-.59,.14-.6,.39-1.68,.85-2.58,1.16-.06,.2-.18,.28-.48,.32v.77h3.45l.73-.91Zm-4.57-3.67c.83-.63,1.58-1.27,2.25-1.93h-3.05v1.93h.8Z"/>
        <path d="M313.88,97.43c.7-.17,1.46-.35,2.21-.55l.06,.2c-1.19,.55-2.8,1.27-5.02,2.14-.06,.17-.2,.29-.34,.34l-.52-1.33c.21-.04,.5-.1,.85-.17v-4.96l1.32,.14c-.03,.15-.14,.27-.39,.31v4.3l.81-.18v-6.01h-.74v.34c0,.08-.32,.32-.85,.32h-.15v-4.93l1.18,.49h1.93l.53-.59,1.2,.91c-.1,.1-.31,.21-.57,.27v3.38c-.03,.08-.53,.28-.85,.28h-.17v-.46h-.49v2.2h.45l.62-.87s.71,.63,1.13,1.06c-.04,.15-.17,.22-.36,.22h-1.83v3.15Zm-1.75-6.18h2.24v-2.97h-2.24v2.97Zm10.24-2.3c-.1,.13-.25,.17-.57,.2-.46,1.05-1.09,2.03-1.89,2.9,.95,.76,2.17,1.33,3.68,1.71l-.04,.14c-.43,.13-.73,.42-.83,.97-.5-.2-.97-.41-1.39-.64l1.06,.83c-.1,.1-.22,.17-.52,.22v4.2c0,.06-.39,.29-.92,.29h-.2v-.95h-3.15v.69c0,.08-.35,.29-.9,.29h-.18v-5.25c-.5,.24-1.04,.46-1.6,.66l-.11-.2c1.6-.74,2.94-1.79,3.98-3.01-.43-.59-.78-1.23-1.09-1.92-.6,.78-1.29,1.44-2.03,1.93l-.18-.14c1.04-1.13,2.03-2.98,2.54-5l1.57,.53c-.07,.17-.24,.29-.55,.27-.13,.32-.27,.62-.42,.91h1.96l.67-.63,1.11,1.01Zm-1.12,5.23c-.76-.45-1.39-.97-1.92-1.54-.73,.67-1.55,1.26-2.52,1.77l.94,.39h2.97l.53-.62Zm-.49,4.23v-3.21h-3.15v3.21h3.15Zm-2.34-9.43c-.15,.27-.32,.53-.49,.78,.35,.62,.77,1.19,1.29,1.7,.59-.77,1.04-1.61,1.37-2.48h-2.17Z"/>
      </g>
      <g>
        <path d="M128.57,191.4c.43,1.75-.24,2.9-.85,3.32-.38,.28-.93,.31-1.11-.03-.15-.31,.06-.63,.36-.83,.64-.38,1.32-1.36,1.36-2.48h.24Zm.56-2.84v.7c0,.11-.49,.36-.95,.36h-.15v-4.93l1.2,.52h2.98v-2.16l1.64,.17c-.03,.2-.15,.34-.52,.39v1.6h3l.59-.64,1.26,.97c-.1,.11-.31,.24-.59,.29v3.29c-.01,.1-.57,.31-.94,.31h-.18v-.87h-3.14v1.61c0,.14-.5,.42-.92,.42h-.2v-2.03h-3.08Zm0-2.94v2.54h3.08v-2.54h-3.08Zm7.19,8.68c.38,.13,.48,.25,.48,.46,0,.53-.55,.7-3.36,.7h-2c-1.39,0-1.69-.21-1.69-1.06v-3.57l1.55,.15c-.03,.18-.15,.31-.43,.35v2.84c0,.24,.07,.29,.74,.29h1.91c.83,0,1.47-.01,1.72-.03,.21-.03,.27-.06,.35-.2,.14-.25,.32-.88,.52-1.71h.18l.04,1.76Zm-4.06-3.67c3.26,1.09,2.38,3.45,1.33,2.63-.1-.88-.83-1.91-1.49-2.52l.15-.11Zm1.08-5.01v2.54h3.14v-2.54h-3.14Zm3.14,5.7c3.67,1.44,2.7,4.1,1.53,3.18-.11-1.04-.92-2.31-1.68-3.07l.15-.11Z"/>
        <path d="M153.21,190.98s.84,.63,1.33,1.11c-.04,.15-.15,.22-.37,.22h-5.14v2.13c0,.85-.18,1.34-1.7,1.48-.06-.34-.12-.6-.34-.77-.24-.17-.6-.31-1.29-.41v-.21s1.58,.11,1.88,.11c.25,0,.32-.07,.32-.27v-2.07h-5.39l-.13-.42h5.52v-1.27l1.09,.11c.52-.35,1.18-.84,1.65-1.28h-3.89c-1.58,.83-3.3,1.56-5.11,2.09l-.11-.22c1.33-.52,2.63-1.15,3.87-1.86h-.94l-.13-.41h1.75c.69-.42,1.36-.87,2-1.33h-6.22l-.12-.41h4.97v-1.93h-3.68l-.11-.41h3.8v-1.95l1.58,.14c-.03,.18-.14,.31-.46,.36v1.44h1.64l.73-.9s.62,.46,1.11,.9c.46-.49,.88-.97,1.25-1.43l1.32,1.05c-.13,.13-.28,.15-.6,.03-.81,.88-1.85,1.81-3.07,2.69h2.3l.73-.92s.84,.66,1.34,1.11c-.04,.15-.17,.22-.36,.22h-4.58c-.66,.46-1.37,.91-2.13,1.33h3.39l.66-.62,1.12,1.07c-.11,.1-.28,.13-.59,.14-.6,.39-1.68,.85-2.58,1.16-.06,.2-.18,.28-.48,.32v.77h3.45l.73-.91Zm-4.57-3.67c.83-.63,1.58-1.27,2.26-1.93h-3.05v1.93h.8Z"/>
        <path d="M160.52,193.56c.7-.17,1.46-.35,2.21-.55l.06,.2c-1.19,.55-2.8,1.27-5.01,2.14-.06,.17-.2,.29-.34,.34l-.52-1.33c.21-.04,.5-.1,.85-.17v-4.96l1.32,.14c-.03,.15-.14,.27-.39,.31v4.3l.81-.18v-6.01h-.74v.34c0,.08-.32,.32-.85,.32h-.15v-4.93l1.18,.49h1.93l.53-.59,1.2,.91c-.1,.1-.31,.21-.57,.27v3.38c-.03,.08-.53,.28-.85,.28h-.17v-.46h-.49v2.2h.45l.62-.87s.71,.63,1.13,1.06c-.04,.15-.17,.22-.37,.22h-1.83v3.15Zm-1.75-6.18h2.24v-2.97h-2.24v2.97Zm10.24-2.3c-.1,.13-.25,.17-.57,.2-.46,1.05-1.09,2.03-1.89,2.9,.95,.76,2.17,1.33,3.68,1.71l-.04,.14c-.43,.13-.73,.42-.83,.97-.5-.2-.97-.41-1.39-.64l1.06,.83c-.1,.1-.22,.17-.52,.22v4.2c0,.06-.39,.29-.92,.29h-.2v-.95h-3.15v.69c0,.08-.35,.29-.9,.29h-.18v-5.25c-.5,.24-1.04,.46-1.6,.66l-.11-.2c1.6-.74,2.94-1.79,3.98-3.01-.43-.59-.78-1.23-1.09-1.92-.6,.78-1.29,1.44-2.03,1.93l-.18-.14c1.04-1.13,2.03-2.98,2.54-5l1.57,.53c-.07,.17-.24,.29-.55,.27-.13,.32-.27,.62-.42,.91h1.96l.67-.63,1.11,1.01Zm-1.12,5.23c-.76-.45-1.39-.97-1.92-1.54-.73,.67-1.55,1.26-2.52,1.76l.94,.39h2.97l.53-.62Zm-.49,4.23v-3.21h-3.15v3.21h3.15Zm-2.34-9.43c-.15,.27-.32,.53-.49,.78,.35,.62,.77,1.19,1.29,1.7,.59-.77,1.04-1.61,1.37-2.48h-2.17Z"/>
        <path d="M179.03,193.62v1.19h-6.3v-.95c.84-.84,1.65-1.72,2.33-2.42,1.55-1.62,2.2-2.82,2.2-4.05s-.73-2.09-1.88-2.09c-.22,0-.52,.03-.83,.1l-.31,1.12c-.18,.7-.45,.97-.84,.97-.32,0-.59-.17-.74-.46,.21-1.57,1.55-2.33,3.08-2.33,1.98,0,2.86,1.08,2.86,2.62,0,1.32-.71,2.37-3.07,4.59-.43,.42-1.09,1.05-1.79,1.71h5.29Z"/>
        <path d="M183.18,188.86c.5-.15,.99-.22,1.55-.22,1.99,0,3.35,1.11,3.35,3.1s-1.42,3.28-3.59,3.28c-1.55,0-2.55-.71-2.86-2.13,.13-.32,.39-.49,.73-.49,.45,0,.64,.22,.83,.97l.25,.92c.32,.1,.62,.14,.94,.14,1.53,0,2.35-.99,2.35-2.54s-.91-2.44-2.39-2.44c-.49,0-1,.06-1.49,.2l-.39-.11,.32-4.62h5.01v1.19h-4.43l-.2,2.76Z"/>
        <path d="M196.75,185.09c-2.93,.7-4.37,2.24-4.61,4.64,.64-.64,1.44-.99,2.28-.99,1.67,0,2.79,1.18,2.79,3.01,0,2.09-1.29,3.26-3.14,3.26-2.04,0-3.32-1.58-3.32-4.29,0-3.03,2.12-5.59,5.91-6.02l.08,.39Zm-4.65,5.42c0,2.63,.76,3.91,2.02,3.91,1.05,0,1.78-.83,1.78-2.51s-.73-2.34-1.82-2.34c-.66,0-1.37,.18-1.98,.71v.22Z"/>
        <path d="M208.47,188c1.02,1.25,2.81,2.21,4.45,2.63v.17c-.45,.08-.78,.42-.91,.95-.87-.38-1.65-.91-2.34-1.58-.06,.01-.11,.03-.17,.04v2.44c0,.07-.58,.29-.92,.29h-.18v-.56h-4.31v1.92c0,.32,.1,.41,.98,.41h2.55c1.02,0,1.95-.01,2.27-.04,.25-.01,.36-.07,.46-.18,.15-.21,.35-.71,.55-1.44h.17l.03,1.47c.43,.11,.57,.24,.57,.46,0,.55-.62,.69-4.13,.69h-2.52c-1.62,0-2.04-.2-2.04-1.18v-4.31c-.95,.85-2.09,1.54-3.28,2.06l-.11-.2c1.64-1,3.07-2.52,3.75-4.03h-3.42l-.11-.41h3.71v-2.02h-2.75l-.13-.42h2.87v-2.13l1.57,.15c-.03,.18-.14,.31-.45,.36v1.61h3.1v-2.13l1.58,.15c-.03,.18-.14,.31-.45,.36v1.61h1.01l.74-.91s.84,.63,1.36,1.11c-.04,.15-.18,.22-.39,.22h-2.72v2.02h1.67l.76-.94s.88,.64,1.39,1.12c-.03,.15-.17,.22-.35,.22h-3.85Zm-3.71,0c-.29,.52-.64,1.01-1.06,1.46l.55,.22h4.05l.5-.55c-.25-.36-.48-.73-.67-1.13h-3.36Zm3.64,3.98v-1.9h-4.31v1.9h4.31Zm-3.77-4.38h3.1v-2.02h-3.1v2.02Z"/>
      </g>
      <g>
        <path d="M11.21,87.99s.91,.67,1.46,1.18c-.04,.15-.2,.22-.38,.22H6.84v1.81h3.47l.56-.64,1.3,.99c-.08,.1-.31,.22-.59,.27v6.64c0,.84-.2,1.36-1.72,1.5-.03-.35-.11-.64-.32-.8-.24-.18-.6-.32-1.29-.42v-.21s1.51,.11,1.86,.11c.25,0,.34-.1,.34-.31v-6.71H2.31v7.91c0,.14-.48,.42-.94,.42h-.2v-9.29l1.23,.53h3.29v-1.81H.11l-.11-.42H5.7v-2l1.65,.15c-.03,.2-.17,.34-.52,.39v1.46h3.59l.78-.98Zm-4.4,8.75v2.61c0,.07-.35,.29-.91,.29h-.18v-2.9H2.9l-.11-.41h2.93v-1.74H3.25l-.1-.41h3.59c.29-.69,.63-1.68,.81-2.37l1.48,.43c-.06,.15-.24,.27-.52,.25-.36,.5-.9,1.15-1.4,1.68h.9l.6-.73s.69,.52,1.12,.91c-.04,.15-.18,.22-.36,.22h-2.56v1.74h1.25l.66-.81s.76,.57,1.22,.99c-.04,.15-.15,.22-.35,.22h-2.77Zm-2.89-4.86c2.61,.91,1.57,2.8,.64,2-.04-.64-.45-1.44-.8-1.92l.15-.08Z"/>
        <path d="M18.13,90.12c-.36,.85-1.08,1.46-2.67,1.78l-.17-.21c1.04-.32,1.51-.88,1.71-1.57h-1.53l-.11-.41h2.8v-1.06h-2.31l-.11-.41h2.42v-1.25l1.44,.14c-.01,.17-.12,.28-.39,.32v.78h.94l.59-.69s.69,.48,1.12,.87c-.04,.15-.17,.22-.36,.22h-2.28v1.06h1.34l.6-.7s.7,.49,1.15,.88c-.04,.15-.17,.22-.36,.22h-1.57v.59c0,.14,.03,.18,.17,.18h.57s.13,0,.17-.01c.06-.01,.15-.03,.24-.04h.17c.27,.1,.38,.17,.38,.35,0,.35-.31,.48-1.34,.48h-.5c-.71,0-.8-.22-.8-.77v-.77h-1.29Zm9.81,3.87c.24,.35,.32,.6,.18,.81-.27,.38-.87,.2-1.25-.17-.91-.92-1.08-3.04-1.08-5.24h-1.13c-.07,.78-.18,1.53-.43,2.19,1.77,1.18,1.33,2.51,.43,2.06-.18-.38-.49-.78-.84-1.19-.52,.83-1.34,1.55-2.65,2.14l1.64,.25c-.06,.22-.22,.32-.52,.34-.04,.22-.1,.46-.17,.69h3.46l.62-.62,1.15,.97c-.11,.1-.27,.18-.56,.21-.22,1.53-.64,2.72-1.27,3.12-.38,.25-.92,.39-1.58,.39,0-.31-.07-.59-.31-.74-.22-.18-.86-.35-1.47-.43v-.22c.66,.06,1.86,.15,2.17,.15,.27,0,.41-.03,.53-.13,.32-.22,.63-1.13,.81-2.3h-3.7c-.69,1.72-2.33,3.03-6.37,3.67l-.07-.2c3.18-.76,4.6-1.98,5.21-3.47h-4.31l-.12-.41h4.58c.13-.41,.2-.81,.24-1.25h-.04s-.17-.21-.17-.21c1.21-.74,1.88-1.61,2.26-2.61-.42-.41-.88-.74-1.28-1.02l.14-.14c.52,.14,.97,.31,1.34,.49,.14-.55,.2-1.13,.24-1.74h-1.51l-.13-.41h1.65c.03-.62,.03-1.26,.03-1.96l1.54,.14c-.03,.18-.15,.32-.46,.36-.01,.49-.03,.98-.06,1.46h.98l.59-.6,1.12,.92c-.08,.08-.29,.17-.53,.21-.07,1.47,.07,3.52,.52,4.09,.08,.08,.13,.07,.18-.07,.13-.32,.27-.71,.39-1.11l.17,.03-.15,1.53Zm-8.74-1.15v1.01c.7-.1,1.42-.2,2.16-.29l.04,.22c-1.16,.36-2.76,.83-4.99,1.4-.07,.18-.2,.28-.32,.32l-.56-1.23c.56-.04,1.5-.14,2.63-.29v-1.13h-2.03l-.11-.41h2.14v-1.02l1.42,.14c-.03,.14-.11,.25-.38,.29v.59h.74l.55-.62s.63,.45,1.04,.8c-.04,.15-.17,.22-.36,.22h-1.96Z"/>
        <path d="M34.71,90.67c-.08,.15-.21,.22-.55,.17-.31,.48-.73,1.04-1.21,1.61l.67,.27c-.03,.11-.15,.21-.41,.24v6.6c-.01,.11-.45,.39-.91,.39h-.18v-6.54c-.49,.52-1.01,1.02-1.54,1.46l-.15-.15c1.08-1.4,2.21-3.49,2.76-4.82l1.51,.78Zm-.08-2.83c-.1,.15-.22,.21-.55,.14-.76,.9-2.07,2.12-3.39,2.94l-.17-.15c1.04-1.06,2.13-2.68,2.66-3.74l1.44,.81Zm5.49,8.94c-1.19,.46-2.87,1.05-5.27,1.81-.07,.17-.2,.28-.35,.32l-.73-1.36c.53-.06,1.4-.17,2.44-.34v-2.11h-1.93l-.11-.41h2.04v-2l1.5,.14c-.03,.17-.12,.28-.41,.34v1.53h.77l.64-.84s.74,.59,1.21,1.02c-.04,.15-.18,.22-.38,.22h-2.24v1.95c.87-.14,1.82-.29,2.77-.45l.04,.18Zm2.31-6.23s.81,.63,1.29,1.09c-.04,.15-.17,.22-.36,.22h-1.16v6.47c0,.84-.21,1.43-1.68,1.57-.01-.35-.11-.64-.32-.81-.24-.2-.6-.34-1.32-.43v-.2s1.58,.1,1.89,.1c.27,0,.34-.07,.34-.27v-6.43h-1.51c.13,.13,.27,.24,.38,.35-.03,.15-.17,.22-.36,.22h-5.53l-.11-.41h2.26v-2.2h-1.88l-.11-.41h1.99v-2.06l1.54,.14c-.03,.18-.14,.31-.46,.36v1.55h.57l.64-.84s.73,.59,1.18,1.04c-.04,.14-.17,.21-.36,.21h-2.03v2.2h.81l.67-.85s.35,.29,.71,.6l-.08-.32h2.33l.7-.91Zm-2.8-1.68l-.11-.42h2.04l.67-.88s.78,.63,1.26,1.08c-.04,.15-.17,.22-.36,.22h-3.5Z"/>
      </g>
    </g>
  </g>
</svg>