<?xml version="1.0" encoding="UTF-8"?>
<svg id="_圖層_2" data-name="圖層 2" xmlns="http://www.w3.org/2000/svg" viewBox="0 0 513.04 203.13">
  <defs>
    <style>
      .cls-1 {
        fill: #333;
      }
    </style>
  </defs>
  <g id="_圖層_1-2" data-name="圖層 1">
    <g>
      <g>
        <path class="cls-1" d="M7.95,55.19l-.52,.83c-.71-.72-1.46-1.34-2.25-1.85v4.83h-.92v-4.73c-1.02,1.35-2.12,2.47-3.3,3.35l-.57-.69c1.8-1.38,3.08-2.78,3.83-4.19H.77v-.91h3.49v-2.05h.92v2.05h2.7v.91h-2.7v.4c1.21,.8,2.14,1.48,2.77,2.05Zm7.88-5.65l-.41,.77c-1.88-1.21-4.06-2.26-6.54-3.15v3.35h-.95v-4.17c-1.55,1.6-3.72,2.92-6.5,3.97l-.49-.77c2.87-1.04,4.98-2.28,6.34-3.73H1.11v-.9H7.93v-1.68h.95v1.68h6.83v.9h-6.83v.47c2.77,.98,5.09,2.06,6.95,3.25Zm.47,7.47l-.5,.77c-1.73-1.38-2.88-2.59-3.45-3.61v4.83h-.98v-4.78c-1.04,1.34-2.17,2.52-3.38,3.52l-.63-.69c1.89-1.5,3.21-2.94,3.98-4.32h-2.63v-.91h2.66v-2.01h.98v2.01h3.59v.91h-3.56c.79,1.5,2.09,2.92,3.92,4.26Z"/>
        <path class="cls-1" d="M26.36,44.57h-1.06v14.48h-.84v-3.43l-3.76,1.37-.36-.81c.5-.17,.89-.31,1.17-.41v-11.2h-.97v-.81h5.83v.81Zm-1.91,2.82v-2.82h-2.07v2.82h2.07Zm0,3.77v-2.9h-2.07v2.9h2.07Zm0,3.54v-2.68h-2.07v3.44c.56-.19,1.25-.45,2.07-.76Zm6.23-3.73l-.76,.4c-.08-.28-.16-.52-.24-.72-.96,.26-2.18,.51-3.67,.76l-.25-.67c.88-.79,1.75-1.83,2.61-3.13-.66,.14-1.35,.26-2.07,.36l-.25-.65c.84-1.07,1.54-2.43,2.09-4.1l.79,.31c-.61,1.52-1.23,2.7-1.87,3.53,.87-.14,1.5-.26,1.87-.36l.89-1.57,.79,.4c-1.18,2.05-2.34,3.69-3.5,4.92,.78-.13,1.54-.31,2.29-.53-.16-.36-.29-.62-.38-.76l.72-.38c.3,.47,.62,1.21,.94,2.2Zm-.36,3.11c0,1.46-.26,2.56-.77,3.31-.52,.75-1.32,1.32-2.4,1.72l-.5-.76c1.6-.46,2.49-1.38,2.68-2.78h-2.8v-3.37h.88v2.5h2.06v-2.92h.86v2.29Zm5.67-3.13l-.74,.36c-.06-.25-.12-.46-.18-.62-1.43,.31-2.73,.54-3.89,.69l-.25-.76c.91-.8,1.74-1.8,2.5-2.99-.94,.18-1.71,.31-2.32,.4l-.25-.7c.86-.95,1.64-2.32,2.35-4.12l.83,.27c-.67,1.55-1.37,2.76-2.11,3.64,.77-.12,1.45-.25,2.04-.4,.3-.42,.6-.96,.9-1.61l.79,.29c-.91,1.96-2.07,3.64-3.47,5.04,.73-.09,1.61-.27,2.63-.53-.07-.23-.21-.54-.41-.93l.72-.31c.39,.62,.68,1.37,.88,2.27Zm-.6,5.1h-2.8v2.99h-.88v-7.24h.88v3.42h1.94v-3.01h.86v3.84Z"/>
        <path class="cls-1" d="M55.02,58.97h-.96v-1.33h-12.13v1.33h-.99v-15.34h14.08v15.34Zm-.96-2.3v-12.11h-12.13v12.11h12.13Zm-.95-8.55v.94h-4.75c-.02,.46-.09,.96-.23,1.48,2.19,1.82,3.83,3.48,4.93,4.98l-.67,.63c-1.42-1.82-2.94-3.36-4.55-4.63-.77,1.87-2.33,3.42-4.7,4.67l-.57-.74c1.46-.74,2.63-1.68,3.5-2.82,.88-1.13,1.33-2.33,1.36-3.57h-4.5v-.94h4.54c.05-.98,.07-1.86,.05-2.63h.95c.02,.64,0,1.52-.05,2.63h4.7Z"/>
        <path class="cls-1" d="M75.41,45.43h-13.28v5.19c0,3.23-.47,6.06-1.42,8.48l-.77-.65c.87-2.27,1.3-4.88,1.3-7.81v-6.05h6.73c-.23-.39-.47-.77-.72-1.15l.93-.22c.3,.38,.57,.84,.81,1.37h6.42v.84Zm-10.22,9.69c-.56,1.31-1.26,2.46-2.12,3.45l-.7-.61c.79-.87,1.44-1.95,1.96-3.23l.86,.38Zm1.01-9.05c-.22,.71-.59,1.52-1.12,2.43v5.63h-.9v-4.35c-.24,.34-.61,.77-1.12,1.29l-.6-.7c1.44-1.52,2.41-3.06,2.92-4.62l.81,.33Zm9.02,7.9h-7.99v-4.5c-.3,.38-.71,.86-1.23,1.44l-.54-.76c1.42-1.58,2.42-3.05,2.99-4.39l.79,.31c-.16,.42-.38,.85-.63,1.29h2.71c-.09-.23-.32-.64-.69-1.22l.88-.25c.26,.36,.53,.85,.79,1.48h2.87v.83h-3.31v1.04h3.06v.83h-3.06v1.13h3.06v.83h-3.06v1.12h3.37v.83Zm-2.34,2.73c-.04,.61-.15,1.07-.32,1.39s-.44,.52-.79,.62-1.23,.15-2.65,.15c-.98,0-1.61-.04-1.89-.11s-.5-.22-.65-.44c-.15-.22-.23-.55-.23-.98v-2.59h.91v2.65c0,.29,.08,.46,.25,.52,.17,.06,.77,.09,1.82,.09,1.12,0,1.79-.03,2-.08,.21-.06,.37-.18,.47-.38,.11-.2,.16-.59,.16-1.18l.91,.34Zm-1.91-7.47v-1.04h-2.83v1.04h2.83Zm.02,1.97v-1.13h-2.85v1.13h2.85Zm0,1.94v-1.12h-2.85v1.12h2.85Zm-.18,3.22l-.79,.51c-.53-.77-1.05-1.39-1.56-1.85l.79-.53c.54,.53,1.07,1.15,1.56,1.87Zm4.88,1.59l-.77,.47c-.66-1.22-1.38-2.28-2.18-3.19l.79-.48c.86,1.02,1.58,2.09,2.16,3.21Z"/>
        <path class="cls-1" d="M84.72,58.12h-.94v-1.42h-2.5v1.82h-.93v-14.17h4.38v13.77Zm-.94-8.1v-4.73h-2.5v4.73h2.5Zm0,5.75v-4.84h-2.5v4.84h2.5Zm11.27-9.62h-4.19v2.61h3.71v.91h-8.43v-.91h3.78v-2.61h-4.4v-.95h4.4v-1.97h.94v1.97h4.19v.95Zm.41,6.64h-2v4.66c0,.6-.16,1-.49,1.2-.33,.2-.96,.29-1.91,.29-.28,0-.63,0-1.04-.02l-.38-.97c.58,.04,1.09,.06,1.53,.06,.59,0,.97-.04,1.12-.14,.16-.09,.24-.25,.24-.47v-4.62h-7.03v-.92h7.03v-1.67h.92v1.67h2v.92Zm-5.41,3.64l-.81,.48c-.63-.97-1.41-1.89-2.33-2.75l.79-.54c.77,.73,1.55,1.67,2.35,2.81Z"/>
        <path class="cls-1" d="M104.22,43.52c-.18,.47-.43,1.07-.76,1.78l-.49,1.05v12.67h-.97v-10.81c-.76,1.29-1.44,2.28-2.06,2.97l-.54-.89c1.43-1.75,2.72-4.11,3.87-7.09l.94,.33Zm11,5.06l-6.44,.64c.09,2.13,.4,3.86,.93,5.2s1.15,2.3,1.88,2.89c.73,.58,1.23,.87,1.49,.87,.13,0,.23-.05,.31-.14s.2-.53,.37-1.3,.26-1.54,.26-2.29l.97,.41c-.08,.97-.21,1.82-.4,2.55s-.39,1.2-.6,1.41-.48,.31-.81,.31c-.59,0-1.32-.37-2.21-1.11-.88-.74-1.6-1.83-2.15-3.28-.55-1.45-.89-3.25-1.01-5.43l-3.85,.4-.09-.98,3.87-.38c-.09-1.59-.14-2.93-.14-4.02,0-.38,0-.75,.02-1.1h.95c-.02,1.95,.02,3.62,.13,5.01l6.44-.63,.09,.96Zm-1.53-2.11l-.81,.48c-.63-.97-1.44-1.9-2.45-2.77l.83-.5c1.14,.94,1.95,1.87,2.43,2.79Z"/>
        <path class="cls-1" d="M135.06,57.96l-.31,.83h-4.9c-2.86,0-4.92-.31-6.2-.93-1.27-.62-2.22-1.43-2.84-2.44-.16,1.15-.42,2.32-.77,3.52l-.81-.45c.64-2.1,.96-4.63,.98-7.58l.84,.12c0,.73-.05,1.75-.15,3.06,.49,.84,1.06,1.54,1.7,2.09v-6.51h-3.24v-.91h3.08v-2.52h-2.67v-.84h2.67v-2.18h.9v2.18h1.91v.84h-1.91v2.52h2.65v.91h-2.49v3.01h1.73v.88h-1.73v3.26c1.31,.76,3.23,1.13,5.77,1.13h5.79Zm-.79-6.86c0,2.88-.15,4.6-.44,5.18s-.97,.86-2.03,.86c-.19,0-.43,0-.71-.03l-.31-.83c.34,.02,.64,.03,.91,.03,.57,0,.95-.07,1.12-.22,.17-.14,.28-.27,.33-.37,.04-.1,.09-.61,.15-1.52s.08-1.67,.08-2.28h-5.48c-.6,.56-1.18,.96-1.75,1.22l-.54-.67c1.12-.54,2.03-1.31,2.73-2.3l.77,.36c-.08,.12-.22,.31-.41,.55h5.58Zm0-6.42c-.04,2.72-.18,4.34-.43,4.86-.25,.51-.82,.77-1.71,.77-.16,0-.38,0-.68-.03l-.29-.84c.61,.04,.98,.05,1.12,.05,.5,0,.8-.25,.91-.75s.17-1.58,.17-3.23h-5.65c-.44,.55-.94,1.01-1.49,1.39l-.51-.65c1.1-.78,1.94-1.79,2.52-3.04l.74,.4c-.18,.4-.39,.76-.63,1.08h5.94Zm-2.11,10.34h-2.37c-.24,1.14-1.26,1.87-3.06,2.18l-.47-.77c1.39-.15,2.26-.62,2.61-1.41h-2.14v-2.06h.81v1.25h1.49c.06-.51,.09-1.08,.09-1.71l.83,.02c0,.65-.02,1.22-.06,1.7h1.46v-1.25h.81v2.06Zm.02-6.63h-2.22c-.38,1.15-1.41,1.8-3.08,1.92l-.3-.77c1.28-.09,2.09-.48,2.43-1.15h-1.96v-1.91h.83v1.1h1.37c.06-.41,.09-.91,.09-1.51h.81c.02,.35,0,.86-.05,1.51h1.26v-1.1h.84v1.91Z"/>
        <path class="cls-1" d="M147.29,49.12h-1.7c-.73,0-1.09-.36-1.09-1.08v-.95h-1.77c-.49,1.27-1.53,2.24-3.14,2.89l-.43-.74c1.32-.52,2.19-1.24,2.63-2.15h-2.61v-.83h3.71v-1.13h-2.8v-.83h2.8v-.98h.89v.98h3.09v.83h-3.09v1.13h3.37v.83h-1.78v.95c0,.19,.11,.29,.34,.29h1.58v.79Zm-.29,3.38c-2.51,.35-5,.62-7.49,.83l-.09-.88c1.42-.1,2.58-.2,3.47-.31v-1.39h-2.65v-.83h2.65v-1.44h.89v1.44h2.82v.83h-2.82v1.3c.76-.08,1.83-.21,3.22-.41v.86Zm6.3,1.82c-.08,1.58-.21,2.67-.41,3.26s-.47,.98-.83,1.16c-.35,.19-.91,.28-1.67,.28l-1.52-.03-.36-.95c.53,.04,1.36,.05,2.5,.05,.51,0,.85-.26,1.02-.79s.25-1.23,.25-2.11h-5.4c-1.1,2.37-3.35,3.66-6.77,3.88l-.47-.91c3.26-.22,5.33-1.21,6.19-2.97h-5.51v-.88h5.91c.15-.38,.27-.8,.38-1.26l.92,.09c-.04,.35-.13,.74-.27,1.17h6.03Zm1.53-3.9c-.23,1.92-.72,2.87-1.45,2.87-.46,0-.84-.34-1.12-1.01-.29-.67-.43-1.62-.43-2.86v-3.09h-1.35c-.11,1.27-.24,2.29-.4,3.06,.44,.56,.88,1.16,1.32,1.82l-.65,.57c-.25-.43-.58-.9-.98-1.42-.37,.99-.86,1.84-1.48,2.56l-.82-.4c.84-1.01,1.39-1.99,1.64-2.94-.35-.47-.83-1-1.44-1.6l.63-.6c.36,.35,.71,.71,1.05,1.1,.12-.72,.2-1.44,.24-2.15h-1.82v-.89h1.85c.01-.33,.02-1.05,.02-2.14h.92c-.01,1.01-.03,1.72-.05,2.14h2.19v3.89c0,.85,.08,1.57,.23,2.15s.3,.88,.44,.88c.22,0,.42-.79,.6-2.36l.86,.4Z"/>
        <path class="cls-1" d="M174.7,58.18h-15.73v-.93h7.37v-12.26h-6.61v-.99h14.15v.99h-6.57v12.26h7.39v.93Z"/>
        <path class="cls-1" d="M183.76,43.44c-.38,.86-.74,1.64-1.07,2.34l-.5,.99v12.25h-.97v-10.53c-1.03,1.45-1.72,2.37-2.09,2.76l-.52-.91c1.71-2,3.13-4.4,4.25-7.22l.91,.31Zm10.65,3.18h-5.7v3.14h4.91v.91h-4.91v3.37h5.26v.94h-5.26v4.04h-.96v-12.4h-1.67c-.59,1.36-1.44,2.77-2.56,4.22l-.63-.77c1.48-1.83,2.65-4.16,3.5-6.99l.84,.36c-.11,.4-.36,1.15-.76,2.25h7.94v.93Z"/>
        <path class="cls-1" d="M214.18,58.61h-15.64v-.9h7.4v-2.54h-6.23v-.88h6.23v-1.89h.93v1.89h6.11v.88h-6.11v2.54h7.31v.9Zm-6.06-10.1h-2.58v4.07h-.92v-4.07h-2.41c-.13,1.78-.99,3.3-2.58,4.54l-.76-.63c1.49-1.18,2.3-2.49,2.42-3.91h-2.65v-.91h2.7c.06-1.08,.09-2.06,.09-2.94h-2.25v-.88h8.69v.88h-2.34v2.94h2.58v.91Zm-3.5-.91v-2.94h-2.25c0,.71-.04,1.69-.11,2.94h2.36Zm5.63,2.58h-.91v-6.01h.91v6.01Zm3.12,1.48c0,.34-.1,.62-.29,.84-.19,.22-.41,.36-.65,.42-.24,.06-.69,.09-1.35,.09-.35,0-.79,0-1.31-.03l-.4-.98c.6,.05,1.17,.08,1.69,.08s.81-.02,.94-.05c.13-.03,.24-.12,.32-.28s.13-.33,.13-.53v-7.85h.92v8.28Z"/>
        <path class="cls-1" d="M221.37,55.7c-.69,1.16-1.45,2.08-2.29,2.75l-.81-.58c.87-.66,1.65-1.53,2.34-2.63l.76,.46Zm4.43-2.74c0,.45-.15,.78-.45,1-.3,.21-.87,.32-1.71,.32-.24,0-.5,0-.76-.02l-.36-.84c1.2,.04,1.9,.02,2.09-.05s.29-.21,.29-.4v-1c-1.14,.28-2.5,.57-4.09,.88l-.41-.63c-.14,.83-.46,1.63-.96,2.4l-.86-.51c.72-.87,1.08-2.17,1.08-3.92v-2.09h6.13v4.88Zm.81-6.03l-.77,.54c-.22-.41-.42-.71-.59-.91-2.86,.33-4.96,.56-6.3,.69l-.27-.7c1.02-.79,1.87-1.88,2.56-3.3l.98,.24c-.59,1.15-1.2,2.07-1.85,2.77,1.74-.17,3.16-.34,4.25-.52-.36-.47-.72-.86-1.08-1.19l.77-.48c.73,.68,1.51,1.63,2.32,2.86Zm-1.71,4.16v-2.14h-4.29v.66c1.15,.08,2.26,.22,3.33,.41l-.27,.85c-1.04-.19-2.07-.33-3.09-.41-.02,.49-.06,1-.12,1.53,1.78-.3,3.26-.61,4.45-.91Zm5.81,5.31c-.05,.57-.16,1.02-.33,1.35s-.35,.57-.56,.7c-.21,.13-.66,.22-1.36,.27-.7,.05-1.53,.08-2.5,.08-1.61,0-2.61-.09-2.99-.26s-.58-.53-.58-1.05v-2.5h.92v2.3c0,.3,.13,.48,.4,.54,.27,.06,1.05,.09,2.35,.09,1,0,1.76-.02,2.29-.07s.85-.13,.97-.24,.23-.31,.33-.6c.09-.29,.14-.61,.14-.95l.91,.33Zm-2.8-.14l-.69,.62c-.41-.47-1.07-1.05-1.98-1.73l.68-.62c.81,.55,1.48,1.13,1.99,1.73Zm5.41-7.97h-4.75c-.39,0-.69-.11-.92-.34-.23-.22-.34-.54-.34-.94v-3.73h.89v1.25h4.9v.88h-4.9v1.58c0,.11,.05,.21,.14,.32s.19,.16,.29,.16h4.69v.83Zm.18,4.21c-.03,.56-.15,.97-.37,1.25-.22,.28-.45,.46-.71,.53-.26,.07-.88,.11-1.88,.11-.7,0-1.28-.02-1.76-.07-.47-.04-.79-.12-.93-.22s-.27-.24-.38-.43c-.11-.18-.16-.45-.16-.79v-3.78h.91v1.2h4.91v.87h-4.91v1.71c0,.26,.09,.43,.26,.51s.78,.12,1.82,.12c.52,0,.97-.01,1.34-.04,.38-.03,.63-.14,.77-.33,.14-.2,.21-.53,.21-1l.89,.34Zm.41,5.2l-.72,.6c-.75-1.05-1.48-1.92-2.18-2.59l.69-.6c.84,.8,1.58,1.67,2.21,2.59Z"/>
        <path class="cls-1" d="M244.43,56.52h-2.41v2.43h-.89v-2.43h-2.95v-.91h2.95v-1.67h-2.21v-6.75h2.21v-1.48h-2.7v-.84h2.7v-1.58h.89v1.58h2.39v.84h-2.39v1.48h2.25v6.75h-2.25v1.67h2.41v.91Zm-3.3-6.46v-2.02h-1.33v2.02h1.33Zm0,3.04v-2.16h-1.33v2.16h1.33Zm2.21-3.04v-2.02h-1.33v2.02h1.33Zm0,3.04v-2.16h-1.33v2.16h1.33Zm10.37,.34l-.67,.55c-.13-.25-.28-.49-.47-.72-2.32,.22-4.76,.39-7.31,.51l-.25-.83c1.62-.05,2.83-.09,3.65-.12v-1.29h-3.15v-4.97h3.15v-1.22h-3.52v-.84h3.52v-1.2h.94v1.2h3.71v.84h-3.71v1.22h3.16v4.97h-.61c.65,.66,1.17,1.29,1.55,1.91Zm.07,2.08h-2.07v2.23c0,.35-.1,.63-.3,.85-.2,.21-.39,.33-.57,.35s-.74,.03-1.67,.03l-.27-.84c.86,0,1.35,0,1.47-.02s.23-.07,.33-.17,.14-.2,.14-.3v-2.13h-5.76v-.84h5.76v-.69h.88v.69h2.07v.84Zm-5.79,2.32l-.76,.49c-.36-.62-.84-1.22-1.44-1.78l.68-.48c.65,.57,1.16,1.16,1.52,1.78Zm.68-9.28v-1.18h-2.25v1.18h2.25Zm0,2.12v-1.33h-2.25v1.33h2.25Zm3.21-2.12v-1.18h-2.27v1.18h2.27Zm0,2.12v-1.33h-2.27v1.33h2.27Zm.12,.85h-2.39v1.2c.77-.05,1.55-.13,2.34-.22-.25-.29-.42-.47-.5-.55l.55-.43Z"/>
        <path class="cls-1" d="M273.66,58.21l-.33,.81c-2.93,0-5.44-.36-7.54-1.09-2.08,.69-4.62,1.06-7.63,1.12l-.31-.82c2.78-.05,5.02-.32,6.71-.79-1.25-.73-2.15-1.31-2.7-1.74l.69-.51c1.26,.93,2.34,1.55,3.25,1.87,1.26-.52,2.39-1.4,3.4-2.63h-7.29c-.89,.67-1.88,1.21-2.95,1.63l-.58-.7c1.86-.72,3.3-1.64,4.32-2.76l.88,.34c-.12,.23-.33,.45-.61,.67h10.12v.83h-2.85c-.9,1.27-2,2.26-3.3,2.99,1.72,.53,3.95,.79,6.7,.79Zm-14.04-7.79c-.17,.71-.51,1.51-1.03,2.39l-.67-.4c.46-.79,.78-1.54,.98-2.23l.72,.24Zm3.63-1.01l-.71,.25-.15-.53c-1.5,.25-2.81,.44-3.94,.56l-.24-.76c.87-.57,1.71-1.31,2.52-2.23-.65,.08-1.39,.16-2.21,.25l-.25-.72c.89-.82,1.7-1.84,2.43-3.06l.72,.27c-.66,1.05-1.32,1.93-1.99,2.63,.71-.06,1.39-.16,2.04-.29l.7-.88,.74,.36c-1.14,1.51-2.24,2.67-3.3,3.51,.86-.08,1.67-.21,2.44-.38-.09-.3-.2-.56-.33-.77l.67-.29c.42,.77,.7,1.46,.84,2.07Zm-1.98,3.06l-.79,.16c-.04-.89-.16-1.63-.34-2.21l.76-.18c.21,.66,.33,1.41,.38,2.23Zm1.66-.43l-.72,.14c-.11-.73-.28-1.39-.51-2l.76-.18c.24,.67,.4,1.35,.47,2.04Zm5.29-6.7h-4.97v-.77h2.18c-.12-.31-.31-.68-.57-1.12l.77-.33c.29,.44,.54,.92,.76,1.44h1.84v.77Zm-.47,3.31h-4.12v-.76h4.12v.76Zm.02-1.66h-4.12v-.76h4.12v.76Zm.03,5.33h-4.12v-2.79h4.12v2.79Zm-.78-.76v-1.27h-2.57v1.27h2.57Zm2.69-1.05c-.19,.81-.48,1.56-.87,2.27l-.7-.33c.3-.51,.57-1.27,.82-2.29l.76,.34Zm3.65-1.01l-.72,.24c-.05-.26-.11-.47-.18-.62-1.42,.25-2.78,.44-4.07,.56l-.24-.77c.72-.46,1.56-1.17,2.5-2.14-.86,.11-1.55,.18-2.07,.21l-.22-.76c.79-.68,1.61-1.69,2.47-3.02l.74,.29c-.63,1-1.32,1.88-2.07,2.63,.63-.05,1.28-.14,1.94-.25,.42-.5,.7-.83,.83-1l.7,.36c-.96,1.25-2.11,2.43-3.47,3.54,.98-.08,1.88-.21,2.68-.4-.04-.21-.14-.46-.31-.76l.72-.24c.36,.74,.62,1.45,.76,2.13Zm-1.92,3.04l-.77,.13c.03-.56-.07-1.31-.29-2.23l.79-.15c.2,.74,.29,1.49,.27,2.25Zm2.02-.34l-.77,.2c-.15-.76-.36-1.43-.63-2.01l.74-.24c.32,.74,.54,1.43,.67,2.05Z"/>
        <path class="cls-1" d="M285.32,52.8c-.43-.23-.65-.52-.65-.87,0-.17,.07-.34,.22-.52,.15-.18,.35-.27,.62-.27,.56,0,.84,.37,.84,1.11,0,.6-.35,1.19-1.06,1.75l-.38-.29c.27-.36,.4-.66,.4-.91Z"/>
        <path class="cls-1" d="M303.28,56.97c-2.47,.9-4.29,1.51-5.46,1.84l-.36-.9c.38-.1,.64-.18,.79-.24v-6.93h.91v6.66c.32-.07,.72-.2,1.2-.38v-7.7h-2.13v-5.44h4.32v5.44h-1.28v2.48h1.64v.91h-1.64v3.97c.56-.15,1.23-.39,2-.72v1.01Zm-1.68-8.57v-3.58h-2.43v3.58h2.43Zm11.7,.89l-.59,.76c-1.86-1.02-3.11-2.37-3.74-4.05h-1.46c-.86,1.65-2.09,2.98-3.69,3.99l-.77-.66c1.59-1.01,2.72-2.12,3.38-3.33h-2.95v-.89h3.4c.24-.6,.43-1.21,.56-1.84l.93,.2c-.12,.57-.28,1.12-.47,1.63h5.04v.89h-2.97c.66,1.42,1.77,2.52,3.33,3.3Zm-.52,2.91h-5.91l-.59,1.84h5.36c-.06,1.49-.2,2.6-.4,3.33-.2,.73-.46,1.2-.79,1.41-.33,.21-1.02,.31-2.08,.31-.51,0-1.08-.02-1.71-.06l-.24-.95c.82,.04,1.85,.05,3.09,.05,.29,0,.51-.15,.67-.46,.16-.31,.32-1.21,.46-2.72h-5.62l.83-2.74h-2.17v-.88h9.09v.88Zm-2.3-2.61h-4.55v-.88h4.55v.88Z"/>
        <path class="cls-1" d="M333.13,54l-.54,.84c-2.77-1.04-4.83-2.48-6.18-4.32h-2.48c-1.42,1.79-3.47,3.18-6.14,4.17l-.47-.84c2.41-.83,4.23-1.94,5.46-3.33h-3.89v-6.87h12.67v6.87h-3.96c1.11,1.45,2.95,2.61,5.52,3.47Zm-10.53-.99c.17,3.09-1.14,5.09-3.92,5.99l-.58-.81c.7-.19,1.34-.5,1.92-.94,.59-.43,1.01-.92,1.27-1.47,.26-.55,.39-1.48,.39-2.78h.91Zm2.14-6.41v-2.05h-4.91v2.05h4.91Zm0,3.02v-2.14h-4.91v2.14h4.91Zm5.87-3.02v-2.05h-4.91v2.05h4.91Zm0,3.02v-2.14h-4.91v2.14h4.91Zm-2.2,9.36h-.98v-5.98h.98v5.98Z"/>
        <path class="cls-1" d="M342.5,46.58h-.96l.58,.43c-.3,1.44-.58,2.58-.85,3.43h1.23v.91h-2.02c0,1.06-.04,1.94-.11,2.63h1.75v.86h-1.87c-.32,1.48-.97,2.86-1.95,4.12l-.7-.52c.9-1.19,1.49-2.39,1.75-3.6h-1.85v-.86h2.02c.1-.77,.14-1.64,.12-2.63h-2.49v-.91h1.32c-.16-1.1-.4-2.24-.7-3.43l.62-.43h-1.03v-.9h2.3c-.18-.71-.41-1.45-.7-2.21l.84-.29c.29,.73,.55,1.56,.77,2.5h1.93v.9Zm-1.23,0h-2.65c.27,1.25,.5,2.53,.69,3.86h1.03c.4-1.32,.71-2.61,.93-3.86Zm5.42,.53c.03,1.88,0,4.03-.1,6.44s-.19,3.8-.29,4.16c-.09,.36-.28,.66-.54,.88s-.77,.34-1.51,.34c-.18,0-.38,0-.58-.03l-.31-.9c.33,.02,.6,.04,.83,.04,.47,0,.76-.04,.89-.12,.12-.08,.22-.18,.29-.31,.07-.12,.14-.62,.2-1.47s.12-2.03,.17-3.52c.05-1.49,.08-3.04,.1-4.66h-1.26c-.17,5.08-1.05,8.73-2.65,10.96l-.76-.47c.73-1.03,1.31-2.31,1.72-3.83,.42-1.52,.67-3.74,.76-6.67h-.98v-.86h.99c.08-1.44,.12-2.73,.12-3.86h.86c0,1.49-.03,2.77-.09,3.86h2.11Zm6.1,4.28h-2.49v2.63h2.13v.89h-2.13v4.1h-.9v-4.1h-2.01v-.89h2.01v-2.63h-2.03v-.91h1.13c-.25-1.19-.55-2.32-.89-3.4l.6-.44h-.98v-.9h2.42c-.39-1.29-.63-2.06-.74-2.32l.86-.24c.13,.3,.41,1.16,.83,2.56h1.98v.9h-.98l.69,.46c-.28,1.15-.62,2.28-1.01,3.38h1.51v.91Zm-1.34-4.75h-3.02c.4,1.29,.74,2.58,1.01,3.84h.94c.45-1.37,.81-2.65,1.07-3.84Z"/>
        <path class="cls-1" d="M363.22,43.59c-1.06,3.28-2.97,5.9-5.72,7.88l-.72-.72c2.64-1.79,4.48-4.29,5.5-7.49l.94,.33Zm8.17,15.09l-.84,.48c-.38-.93-.75-1.69-1.12-2.29-3.4,.88-6.78,1.46-10.13,1.76l-.27-.91c1.83-2.16,3.59-5.24,5.26-9.25l.91,.4c-1.52,3.6-3.11,6.5-4.76,8.7,2.32-.16,5.16-.67,8.53-1.53-.54-.96-1.27-2.07-2.2-3.33l.83-.49c1.66,2.29,2.93,4.45,3.8,6.47Zm1.34-8.07l-.61,.79c-2.16-1.41-3.88-3.72-5.17-6.94h-1.2v-.98h1.94c1.05,3.25,2.73,5.63,5.04,7.13Z"/>
        <path class="cls-1" d="M386.29,52.23l-.63,.69c-.87-.96-1.84-1.81-2.9-2.58l.67-.7c1.2,.9,2.15,1.76,2.87,2.59Z"/>
        <path class="cls-1" d="M412.23,58.4h-11.75v.61h-.99v-7.87c-.66,.73-1.45,1.46-2.36,2.21l-.7-.74c2.19-1.75,3.84-3.63,4.97-5.63h-4.46v-.93h4.93c.4-.75,.8-1.71,1.18-2.88l.95,.2c-.32,.93-.68,1.82-1.06,2.68h8.98v.93h-9.45c-.62,1.1-1.27,2.08-1.98,2.95v7.52h5.19v-5.07h-3.95v-.94h3.95v-3.33h.97v3.33h4.34v.94h-4.34v5.07h5.6v.94Z"/>
        <path class="cls-1" d="M432.05,53.57h-8.09v4.03c0,.11,.05,.21,.15,.31,.1,.1,.22,.15,.34,.15h1.41c2.6,0,4.08-.04,4.46-.12s.57-.91,.57-2.49l.98,.33c-.06,1.31-.22,2.14-.46,2.49s-.54,.55-.9,.62-1.74,.11-4.15,.11c-1.07,0-1.79-.01-2.17-.03-.38-.02-.67-.16-.88-.43-.21-.27-.32-.55-.32-.85v-4.12h-6.57v-.94h6.57v-2.96c-1.58,.12-2.78,.19-3.62,.21l-.38-.91c4.39-.16,7.63-.63,9.72-1.41l.54,.84c-1.52,.5-3.28,.88-5.29,1.12v3.11h8.09v.94Zm-.63-3.78h-.97v-3.66h-12.49v3.66h-.96v-4.62h6.75c-.32-.65-.62-1.17-.91-1.57l.9-.38c.32,.48,.67,1.13,1.05,1.95h6.64v4.62Z"/>
        <path class="cls-1" d="M451.9,58.18h-15.73v-.93h7.37v-12.26h-6.61v-.99h14.15v.99h-6.57v12.26h7.39v.93Z"/>
        <path class="cls-1" d="M460.96,43.44c-.38,.86-.74,1.64-1.07,2.34l-.5,.99v12.25h-.97v-10.53c-1.03,1.45-1.72,2.37-2.09,2.76l-.52-.91c1.71-2,3.13-4.4,4.25-7.22l.91,.31Zm10.65,3.18h-5.7v3.14h4.91v.91h-4.91v3.37h5.26v.94h-5.26v4.04h-.96v-12.4h-1.67c-.59,1.36-1.44,2.77-2.56,4.22l-.63-.77c1.48-1.83,2.65-4.16,3.5-6.99l.84,.36c-.11,.4-.36,1.15-.76,2.25h7.94v.93Z"/>
        <path class="cls-1" d="M485.29,52.23l-.63,.69c-.87-.96-1.84-1.81-2.9-2.58l.67-.7c1.2,.9,2.15,1.76,2.87,2.59Z"/>
        <path class="cls-1" d="M497.54,54.63c-.22,1.52-.6,3.01-1.16,4.46l-.86-.46c.47-1.08,.85-2.44,1.13-4.08l.89,.07Zm4.44-8.1c-1.02,1.92-2.59,4.02-4.71,6.3,.96-.12,1.93-.35,2.92-.67-.12-.36-.28-.74-.47-1.13l.87-.19c.4,.79,.75,1.69,1.04,2.7l-.86,.34c-.05-.23-.14-.54-.27-.92-1.39,.48-2.94,.81-4.62,.98l-.21-.72c1.29-1.28,2.49-2.66,3.61-4.14-1.25,.22-2.3,.35-3.13,.4l-.05-.74c1.5-1.82,2.58-3.64,3.23-5.46l.92,.34c-.67,1.66-1.59,3.25-2.76,4.79,.86-.04,1.69-.17,2.5-.38,.48-.73,.85-1.34,1.1-1.85l.9,.36Zm-2.1,11.92l-.98,.24c-.01-1.34-.15-2.69-.41-4.05l.88-.09c.28,1.29,.45,2.59,.51,3.9Zm2.16-2.11l-.83,.2c-.21-.77-.48-1.46-.83-2.09l.88-.14c.35,.69,.61,1.36,.78,2.03Zm3.2-4.26c-.16,2.69-1.34,4.82-3.54,6.39l-.6-.76c1.8-1.18,2.84-2.77,3.13-4.77h-2.14v-.86h3.15Zm6.16,5.48l-.67,.71c-1.56-.98-2.81-2.28-3.76-3.9v3.33c0,.38-.12,.7-.35,.96-.23,.26-.8,.39-1.71,.39-.31,0-.59-.01-.83-.04l-.31-.9c.26,.02,.6,.03,1.04,.03,.53,0,.86-.04,.99-.12,.13-.08,.2-.21,.2-.41v-7.04h-3.49v-5.6h2.41c.35-.49,.68-1.09,.99-1.8l.9,.4c-.25,.53-.52,1-.83,1.41h4.31v5.6h-3.33v2.05c.09,.26,.27,.59,.52,1.01,.81-.6,1.55-1.34,2.21-2.21l.63,.72c-.67,.79-1.45,1.54-2.35,2.25,.88,1.23,2.02,2.29,3.41,3.17Zm-2.06-10.23v-1.51h-5.89v1.51h5.89Zm0,2.4v-1.53h-5.89v1.53h5.89Z"/>
        <path class="cls-1" d="M16.21,94.55H.58v-.93H7.3v-14.35h.96v5.64h7.16v.95h-7.16v7.76h7.95v.93Z"/>
        <path class="cls-1" d="M36.17,82.79l-.4,.86c-1.95-.47-3.51-1-4.69-1.6v.7h-5.82v-.69c-1.27,.66-2.78,1.25-4.54,1.75l-.48-.82c3.22-.83,5.81-2.12,7.76-3.87l1.04,.31c-.13,.13-.22,.22-.28,.27,1.89,1.42,4.36,2.44,7.41,3.08Zm-1.78,5.47h-12.5v-4.42h12.5v4.42Zm-.79,6.73h-.91v-.76h-9.04v.76h-.95v-5.69h10.89v5.69Zm-5.92-7.59v-2.7h-4.86v2.7h4.86Zm5.02,3.95v-1.17h-9.04v1.17h9.04Zm0,2.03v-1.2h-9.04v1.2h9.04Zm-6.51-6.89l-.67,.5c-.4-.53-.85-1.04-1.35-1.53l.69-.45c.5,.4,.94,.89,1.34,1.48Zm4.46-4.6c-.91-.47-1.77-1.01-2.58-1.6-.79,.6-1.59,1.14-2.42,1.6h4.99Zm2.82,5.51v-2.7h-4.84v2.7h4.84Zm-1.36-2.01c-.42,.62-.87,1.14-1.35,1.58l-.7-.5c.49-.38,.92-.84,1.3-1.39l.76,.31Z"/>
        <path class="cls-1" d="M45.16,81.94h-4.99v-.87h2.35c-.19-.5-.43-1.03-.72-1.58l.76-.33c.29,.53,.59,1.16,.88,1.91h1.73v.87Zm-.25,2.55h-4.32v-.84h4.32v.84Zm0,2.67h-4.32v-.85h4.32v.85Zm-.16,7.48h-.85v-1.04h-2.27v1.29h-.86v-5.89h3.98v5.63Zm-.85-1.91v-2.84h-2.27v2.84h2.27Zm12.01,.08c-.18,.71-.39,1.26-.64,1.66-.25,.4-.61,.59-1.08,.59-.6,0-1.19-.54-1.75-1.63-.73,.5-1.57,.98-2.5,1.42l-.55-.76c1.03-.38,1.94-.87,2.73-1.46-.28-.93-.44-1.98-.48-3.16h-2.79v1.55c.66-.18,1.27-.38,1.85-.6l.1,.83c-.97,.32-1.62,.53-1.95,.63v1.77c0,.35-.1,.65-.29,.91s-.67,.38-1.41,.38c-.17,0-.4,0-.7-.03l-.27-.83,1.49-.02c.08,0,.15-.04,.22-.11s.11-.15,.11-.23v-1.58c-.8,.27-1.55,.45-2.25,.54l-.24-.81c1.11-.22,1.94-.41,2.49-.57v-1.82h-2.36v-.77h2.36v-1.2c-.8,.13-1.49,.2-2.05,.22l-.36-.84c1.65,.02,3.2-.22,4.66-.7l.41,.65c-.53,.23-1.13,.4-1.8,.52v1.35h2.72c-.02-.86-.04-1.61-.04-2.25h.88c-.04,.66-.01,1.41,.07,2.25h3.35v.77h-3.35c.09,1.21,.23,2.06,.4,2.53,.57-.53,1.1-1.17,1.6-1.92l.7,.51c-.62,.86-1.29,1.62-2.01,2.29,.42,.84,.78,1.27,1.07,1.27,.34,0,.64-.59,.91-1.78l.77,.44Zm-.16-6.99h-10.12v-.79h4.55v-1.2h-3.8v-.77h3.8v-1.1h-4.21v-.85h9.5v.85h-4.43v1.1h3.88v.77h-3.88v1.2h4.7v.79Zm-6.16-5.4l-.83,.4c-.33-.42-.75-.82-1.24-1.21l.81-.4c.46,.35,.88,.76,1.26,1.21Zm4.29-.72c-.56,.5-1.04,.88-1.46,1.13l-.79-.53c.56-.32,1.05-.69,1.49-1.12l.76,.51Zm1.24,8.13l-.69,.43c-.22-.42-.54-.88-.97-1.4l.67-.41c.37,.38,.7,.83,.98,1.38Z"/>
        <path class="cls-1" d="M75.59,90.55h-3.24v2.77c0,.72-.17,1.18-.52,1.39-.35,.21-.97,.31-1.87,.31-.42,0-.86-.02-1.34-.05l-.4-.93c.69,.02,1.25,.03,1.66,.03,.56,0,.95-.01,1.17-.04,.23-.03,.34-.21,.34-.55v-2.93h-11.43v-.91h11.43v-1.67h-9.77v-.87h5.76v-1.62h-6.61v-.88h6.61v-1.21h.92v1.21h6.51v.88h-6.51v1.62h5.72v.87h-1.68v1.67h3.24v.91Zm-7.97-8.75h-5.01c-.6,.76-1.2,1.39-1.81,1.89l-.74-.64c1.24-.9,2.26-2.19,3.04-3.88l.93,.31c-.24,.46-.52,.94-.83,1.44h4.41v.88Zm-2.18,1.92l-.9,.38c-.28-.45-.66-.91-1.16-1.38l.82-.38c.39,.26,.8,.72,1.24,1.38Zm1.42,9.85l-.76,.59c-.9-1-1.79-1.8-2.68-2.43l.73-.62c1.2,.9,2.1,1.71,2.71,2.45Zm8.51-11.78h-5.7c-.4,.47-.76,.83-1.1,1.1l-.72-.54c1.04-.93,1.79-1.98,2.23-3.14l.89,.33c-.25,.55-.48,1.01-.7,1.37h5.11v.88Zm-2.23,1.89l-.9,.45c-.29-.46-.71-.93-1.26-1.42l.88-.43c.52,.43,.95,.89,1.27,1.4Z"/>
        <path class="cls-1" d="M95.39,91.48c-.09,1.03-.28,1.89-.58,2.59-.3,.7-.66,1.04-1.09,1.04-.46,0-1-.39-1.63-1.16s-1.09-1.57-1.38-2.4c-1.36,1.38-2.79,2.55-4.28,3.52l-.7-.74c1.99-1.29,3.52-2.56,4.59-3.82-.58-2.12-.95-4.56-1.12-7.32h-6.65v2.44h4.81c-.02,1.49-.09,2.81-.22,3.98-.13,1.16-.27,1.88-.42,2.15s-.37,.48-.65,.64c-.28,.15-.81,.23-1.59,.23-.24,0-.54,0-.89-.03l-.3-.98c.42,.06,.82,.1,1.22,.1,.51,0,.85-.04,1.01-.12,.16-.08,.3-.18,.4-.3,.1-.12,.21-.69,.34-1.7,.13-1.01,.19-2.02,.19-3.04h-3.88c-.11,3.3-.81,6.16-2.11,8.57l-.74-.67c1.28-2.31,1.92-5.27,1.92-8.86v-3.35h7.49c-.05-1.31-.07-2.32-.07-3.02h.94c0,.92,.03,1.93,.09,3.02h4.97v.92h-4.93c.09,2.31,.39,4.47,.9,6.46,1.01-1.38,1.82-3.04,2.43-4.98l.95,.31c-.84,2.3-1.86,4.24-3.04,5.81,.33,.93,.74,1.71,1.25,2.32,.5,.62,.84,.93,1,.93,.18,0,.36-.34,.55-1.02s.28-1.35,.28-2.01l.96,.48Zm-.98-10.05l-.81,.58c-.52-.63-1.21-1.26-2.07-1.89l.76-.62c.83,.55,1.53,1.19,2.12,1.92Z"/>
        <path class="cls-1" d="M114.83,88.09c0,1.16-.06,2.29-.19,3.39s-.25,1.81-.37,2.14-.3,.59-.53,.81c-.23,.22-.55,.38-.94,.49s-1.03,.16-1.9,.16l-.36-1.03c.27,.02,.83,.04,1.67,.04,.29,0,.54-.07,.76-.2,.21-.13,.36-.32,.45-.55,.09-.24,.18-.74,.29-1.5s.17-1.71,.2-2.83h-11.06c-.84,1.01-1.78,1.94-2.82,2.79l-.54-.88c2.79-2.21,4.62-4.92,5.49-8.12h-4.79v-.94h5c.27-1.19,.45-2.09,.53-2.7l.91,.2c-.09,.66-.24,1.49-.47,2.5h6.63c-.18,1.01-.39,2.06-.63,3.14h1.78c-.11,.97-.29,2-.54,3.09h1.44Zm-10.92-7.04l-.83,.51c-.4-.61-.91-1.23-1.51-1.85l.81-.51c.59,.59,1.1,1.21,1.53,1.85Zm.47,9.36c-.5,1.68-1.15,3.12-1.92,4.34l-.86-.47c.74-1.1,1.39-2.46,1.94-4.1l.84,.23Zm8.45-4.5h-8.02c-.3,.64-.73,1.37-1.27,2.18h8.89c.16-.81,.3-1.54,.4-2.18Zm-1.15-3.11h-5.73c-.18,.69-.43,1.42-.74,2.2h5.98c.16-.63,.32-1.36,.49-2.2Zm-4.68,11.7l-.99,.18c.05-1.2-.11-2.63-.47-4.31l.89-.19c.28,1.27,.47,2.7,.57,4.32Zm2.87-.95l-.92,.33c-.21-1.24-.53-2.42-.98-3.54l.86-.29c.39,1.03,.74,2.19,1.05,3.5Zm2.58-.99l-.85,.4c-.25-.84-.65-1.75-1.19-2.75l.81-.4c.46,.79,.87,1.71,1.23,2.75Z"/>
        <path class="cls-1" d="M133.02,95.06h-1.01v-1.59h-9.5v1.59h-1.05v-15.39h11.56v15.39Zm-1.01-9.06v-5.36h-9.5v5.36h9.5Zm0,6.5v-5.55h-9.5v5.55h9.5Z"/>
        <path class="cls-1" d="M154.14,85.95h-.95v-2.87h-12.53v2.87h-.93v-3.78h6.73v-2.87h.95v2.87h6.73v3.78Zm-1.1,6.85c0,.59-.15,.98-.44,1.18-.29,.2-.86,.3-1.7,.3-.3,0-.59-.01-.87-.04l-.36-.91c1.34,0,2.08-.03,2.22-.08s.21-.19,.21-.42v-2.33h-4.67v4.58h-.93v-4.58h-4.68v3.79h-.93v-4.68h5.62v-1.48h-4.05v-3.83h9.04v3.83h-4.05v1.48h5.6v3.19Zm-9.26-11.42l-.91,.41c-.37-.66-.8-1.29-1.29-1.87l.88-.45c.56,.63,1,1.27,1.32,1.91Zm6.75,5.84v-2h-7.11v2h7.11Zm1.91-7.21c-.38,.63-.84,1.23-1.37,1.8l-.77-.54c.56-.65,.99-1.22,1.29-1.71l.85,.45Z"/>
        <path class="cls-1" d="M166.52,88.8c-.43-.23-.65-.52-.65-.87,0-.17,.07-.34,.22-.52,.15-.18,.35-.27,.62-.27,.56,0,.84,.37,.84,1.11,0,.6-.35,1.19-1.06,1.75l-.38-.29c.27-.36,.4-.66,.4-.91Z"/>
        <path class="cls-1" d="M183.76,94.95h-.94v-7.11h-1.71c-.12,3.28-.62,5.59-1.49,6.93l-.83-.56c.93-1.48,1.39-3.6,1.39-6.37h-1.37v-.9h4.02v-2.34h-3.15v-4.45h.95v3.54h2.2v-4.45h.94v15.7Zm9.86-13.25c-1.76,2.77-4.62,4.65-8.59,5.63l-.62-.86c2.12-.39,3.93-1.1,5.44-2.13-.73-.6-1.83-1.28-3.28-2.03-.48,.33-.96,.63-1.44,.9l-.72-.72c2.03-1.02,3.5-2.14,4.41-3.37l.88,.43c-.3,.42-.67,.83-1.11,1.23h5.02v.91Zm.84,7.15h-2.1v4.83c0,.51-.17,.86-.5,1.05-.33,.19-1,.29-2.01,.29-.32,0-.65,0-.99-.03l-.33-.97c.75,.04,1.35,.05,1.79,.05,.48,0,.78-.04,.91-.12s.18-.2,.18-.34v-4.75h-6.8v-.93h6.8v-2.2h.94v2.2h2.1v.93Zm-9.45-3.9l-.02-.87c.81,0,1.77-.08,2.87-.25l.02,.86c-1.3,.17-2.26,.25-2.87,.25Zm3.62,7.61l-.77,.55c-.6-1.05-1.37-2.07-2.31-3.08l.74-.54c.96,.98,1.74,2,2.35,3.06Zm3.83-10.85h-4.97l-.06,.04c1.16,.66,2.21,1.32,3.16,2,.67-.55,1.29-1.23,1.87-2.03Z"/>
        <path class="cls-1" d="M214.3,94.18h-15.73v-.93h7.37v-12.26h-6.61v-.99h14.15v.99h-6.57v12.26h7.39v.93Z"/>
        <path class="cls-1" d="M223.36,79.44c-.38,.86-.74,1.64-1.07,2.34l-.5,.99v12.25h-.97v-10.53c-1.03,1.45-1.72,2.37-2.09,2.76l-.52-.91c1.71-2,3.13-4.4,4.25-7.22l.91,.31Zm10.65,3.18h-5.7v3.14h4.91v.91h-4.91v3.37h5.26v.94h-5.26v4.04h-.96v-12.4h-1.67c-.59,1.36-1.44,2.77-2.56,4.22l-.63-.77c1.48-1.83,2.65-4.16,3.5-6.99l.84,.36c-.11,.4-.36,1.15-.76,2.25h7.94v.93Z"/>
        <path class="cls-1" d="M243.41,80.81h-.72v14.24h-.84v-2.97c-1.43,.64-2.59,1.1-3.49,1.4l-.29-.79c.5-.18,.84-.3,1.03-.38v-11.5h-.77v-.87h5.09v.87Zm-1.56,2.8v-2.8h-1.89v2.8h1.89Zm0,3.96v-3.1h-1.89v3.1h1.89Zm0,3.59v-2.75h-1.89v3.54c.33-.11,.96-.38,1.89-.79Zm12.02,.62c-.19,2.12-.67,3.18-1.46,3.18-.69,0-1.27-.8-1.72-2.39-.9,.98-1.76,1.71-2.58,2.16l-.48-.67c1-.69,1.93-1.55,2.79-2.58-.26-1.66-.41-3.7-.45-6.12h-6.5v-.87h1.71c-.15-.92-.35-1.82-.58-2.7h-.62v-.83h2.27c-.09-.32-.32-.77-.69-1.35l.79-.43c.31,.5,.6,1.1,.86,1.78h2.09v.83h-.72c-.09,.96-.24,1.86-.45,2.7h1.8v-5.18h.88c-.02,2.25-.04,3.98-.04,5.2h2.99v.84h-2.94c0,2.01,.1,3.64,.31,4.9,.52-.93,.99-2.17,1.42-3.74l.77,.29c-.52,1.97-1.18,3.57-1.99,4.82,.11,.64,.28,1.19,.51,1.64,.24,.46,.42,.68,.56,.68,.1,0,.22-.25,.36-.74s.24-1.13,.3-1.92l.79,.48Zm-5.2,.79h-4.35v-5.96h4.35v5.96Zm-.86-3.47v-1.66h-2.63v1.66h2.63Zm0,2.65v-1.82h-2.63v1.82h2.63Zm-.12-9.94h-2.18c.26,1.02,.44,1.92,.55,2.7h1.2c.15-.71,.3-1.61,.43-2.7Zm5.76,1.35l-.81,.34c-.23-.87-.55-1.75-.98-2.63l.79-.34c.47,1,.81,1.87,.99,2.63Z"/>
        <path class="cls-1" d="M262.88,89.17c-1.84,1.03-3.4,1.77-4.68,2.23l-.38-.92c.84-.26,1.61-.57,2.3-.93v-5.08h-2.08v-.9h2.08v-4.26h.94v4.26h1.78v.9h-1.78v4.67c.64-.3,1.19-.6,1.65-.89l.16,.92Zm10.7-2.04h-6.57c-.21,.37-.47,.78-.79,1.23h6.77c-.04,1.06-.12,2.17-.25,3.34-.12,1.16-.23,1.85-.31,2.07-.08,.22-.22,.43-.41,.63s-.42,.35-.69,.45-.78,.15-1.52,.15c-.19,0-.39,0-.6-.02l-.36-.91c.48,.05,.94,.07,1.39,.07,.49,0,.81-.06,.97-.18,.16-.12,.28-.28,.35-.47,.08-.2,.16-.74,.26-1.63,.1-.89,.17-1.77,.21-2.64h-1.08c-1.1,2.52-3.03,4.44-5.8,5.76l-.69-.66c2.71-1.29,4.55-2.99,5.52-5.1h-1.65c-1.17,1.81-3.1,3.31-5.78,4.5l-.64-.74c2.53-1.07,4.31-2.32,5.34-3.76h-1.8c-.8,.76-1.7,1.42-2.72,1.96l-.67-.69c1.82-.93,3.12-2.04,3.91-3.35h-3.45v-.9h11.07v.9Zm-1.26-2.14h-8.6v-5.29h8.6v5.29Zm-.92-3.12v-1.27h-6.75v1.27h6.75Zm0,2.23v-1.38h-6.75v1.38h6.75Z"/>
        <path class="cls-1" d="M287.29,88.23l-.63,.69c-.87-.96-1.84-1.81-2.9-2.58l.67-.7c1.2,.9,2.15,1.76,2.87,2.59Z"/>
        <path class="cls-1" d="M312.47,83.92h-12.09v2.8c0,3.46-.72,6.18-2.16,8.17l-.77-.57c1.33-1.85,2-4.24,2-7.19v-7.46h13.03v4.25Zm-.95-.91v-2.41h-11.14v2.41h11.14Zm1.69,4.22h-5.76v2.37h4.62v5.44h-.96v-.96h-8.3v.96h-.95v-5.44h4.64v-2.37h-5.47v-.87h5.47v-1.78h.94v1.78h5.76v.87Zm-2.09,5.96v-2.69h-8.3v2.69h8.3Z"/>
        <path class="cls-1" d="M321.15,89.19c-.88,2.19-1.9,4.06-3.04,5.63l-.77-.63c1.11-1.48,2.11-3.32,2.99-5.52l.83,.52Zm.36-3.24l-.52,.79c-1.21-.87-2.35-1.56-3.44-2.07l.52-.79c1.37,.68,2.52,1.37,3.44,2.07Zm.33-4.32l-.62,.72c-1.07-.97-2.09-1.74-3.07-2.3l.54-.82c1.31,.85,2.36,1.65,3.15,2.4Zm10.32,13.41h-.96v-1.57h-7.54v1.57h-.98v-12.95h3.21c.42-.93,.75-1.88,1.01-2.87l.95,.24c-.22,.81-.53,1.69-.93,2.63h5.24v12.95Zm-.96-7.8v-4.24h-7.54v4.24h7.54Zm0,5.33v-4.41h-7.54v4.41h7.54Z"/>
        <path class="cls-1" d="M342.19,79.54c-.19,.53-.5,1.2-.91,2.02l-.61,1.2v12.22h-.96v-10.65c-.63,.96-1.42,1.91-2.37,2.87l-.51-.94c1.83-1.72,3.31-4.06,4.45-7l.91,.29Zm10.56,15.03h-11.13v-.93h4.86v-4.84h-3.99v-.94h3.99v-4.14h-4.54v-.93h4.77c-.19-.87-.63-1.96-1.32-3.26l.94-.33c.51,1.1,.96,2.29,1.36,3.59h4.83v.93h-5.09v4.14h4.52v.94h-4.52v4.84h5.31v.93Z"/>
        <path class="cls-1" d="M372.65,89.57h-8.09v4.03c0,.11,.05,.21,.15,.31,.1,.1,.21,.15,.34,.15h1.41c2.6,0,4.08-.04,4.46-.12s.57-.91,.57-2.49l.98,.33c-.06,1.31-.22,2.14-.46,2.49s-.54,.55-.9,.62-1.74,.11-4.15,.11c-1.07,0-1.79-.01-2.17-.03-.38-.02-.67-.16-.88-.43-.21-.27-.32-.55-.32-.85v-4.12h-6.57v-.94h6.57v-2.96c-1.58,.12-2.78,.19-3.62,.21l-.38-.91c4.39-.16,7.63-.63,9.72-1.41l.54,.84c-1.52,.5-3.28,.88-5.29,1.12v3.11h8.09v.94Zm-.63-3.78h-.97v-3.66h-12.49v3.66h-.96v-4.62h6.75c-.32-.65-.62-1.17-.91-1.57l.9-.38c.32,.48,.67,1.13,1.05,1.95h6.64v4.62Z"/>
        <path class="cls-1" d="M386.29,88.23l-.63,.69c-.87-.96-1.84-1.81-2.9-2.58l.67-.7c1.2,.9,2.15,1.76,2.87,2.59Z"/>
        <path class="cls-1" d="M401.03,79.52l-1.26,2.92v12.56h-.96v-10.74c-.7,1.19-1.34,2.14-1.92,2.84l-.57-.88c1.28-1.52,2.57-3.89,3.87-7.11l.84,.41Zm11.27,12.24l-.62,.77c-2.34-2.33-4-4.87-4.96-7.63v10.11h-.95v-10.05c-.84,2.32-2.48,4.83-4.91,7.54l-.67-.79c2.61-2.68,4.35-5.43,5.24-8.26h-4.72v-.92h5.06v-3.26h.95v3.26h5.1v.92h-4.79c1.07,3.15,2.82,5.92,5.27,8.31Z"/>
        <path class="cls-1" d="M419.34,90.77c-.81,1.58-1.58,2.73-2.3,3.45l-.81-.55c.88-.88,1.65-1.98,2.29-3.28l.83,.38Zm4.55-7.49h-3.16v1.94h2.61v4.07h-6.03v-4.07h2.52v-1.94h-3.35v-.88h3.35v-1.87h-2.81v-.88h6.46v.88h-2.75v1.87h3.16v.88Zm-1.49,5.12v-2.29h-4.17v2.29h4.17Zm6.01,3.97c-.08,.93-.24,1.55-.47,1.88-.23,.33-.55,.52-.94,.58s-1.26,.08-2.59,.08-2.24-.03-2.54-.08c-.3-.06-.53-.22-.7-.48s-.25-.62-.25-1.07v-3.08h.94v3.2c0,.28,.12,.46,.36,.54,.24,.09,1.15,.13,2.72,.13,1.08,0,1.69-.02,1.85-.07,.15-.04,.29-.16,.43-.35,.13-.19,.23-.71,.3-1.54l.91,.26Zm-2.53-.19l-.89,.31c-.67-1.01-1.3-1.82-1.87-2.43l.89-.31c.9,1.03,1.52,1.84,1.87,2.43Zm5.38-2.88h-6.55v-8.53h2.03c.4-.47,.73-.99,.99-1.56l.88,.27c-.21,.4-.49,.83-.83,1.29h3.47v8.53Zm-.91-6.08v-1.58h-4.74v1.58h4.74Zm0,2.59v-1.71h-4.74v1.71h4.74Zm0,2.63v-1.77h-4.74v1.77h4.74Zm1.6,5.07l-.79,.46c-.68-1.1-1.58-2.24-2.7-3.45l.77-.47c1.17,1.29,2.08,2.45,2.72,3.45Z"/>
        <path class="cls-1" d="M452,93.73l-.33,.96c-1.12,.02-2.26,.03-3.39,.03-2.1,0-3.6-.02-4.5-.06s-1.81-.22-2.72-.53c-.91-.31-1.69-.8-2.34-1.45-.51,.89-1.14,1.68-1.89,2.38l-.7-.54c1.62-1.57,2.6-3.54,2.92-5.92h-2.65v-.88c.79-1.06,1.58-2.31,2.39-3.74h-2.61v-.88h3.71v.88c-.92,1.54-1.72,2.79-2.39,3.74h2.46v.88c-.19,1.24-.47,2.33-.86,3.3,.63,.65,1.38,1.14,2.25,1.46s2.08,.48,3.62,.48c2.9,0,5.24-.03,7.02-.09Zm-12.41-11.82l-.74,.57c-.63-1.01-1.36-1.93-2.17-2.75l.68-.54c.84,.76,1.58,1.66,2.23,2.72Zm6.18,.52h-2.95c.02,.52,0,1.2-.05,2.07h2.58c-.01,1.65-.08,3.22-.2,4.7s-.24,2.33-.36,2.56-.32,.42-.61,.58c-.29,.16-.83,.22-1.61,.18l-.28-.94c.23,.04,.47,.05,.72,.05,.38,0,.63-.04,.76-.11,.13-.07,.23-.19,.3-.34s.16-.96,.25-2.43,.15-2.58,.16-3.34h-1.72c-.16,3.08-.8,5.41-1.92,7l-.76-.54c1.32-1.83,1.94-4.98,1.85-9.43h-1.39v-.92h2.18c-.12-.6-.4-1.29-.85-2.07l.85-.31c.45,.89,.75,1.68,.91,2.37h2.14v.92Zm6.03-.11h-4.36c-.53,.79-1.01,1.39-1.46,1.81l-.64-.59c1.2-1.23,2.11-2.68,2.73-4.36l.77,.34c-.27,.7-.56,1.33-.88,1.89h3.83v.91Zm-.02,6.28h-2.47v2.72c0,.43-.13,.74-.38,.92s-.72,.28-1.41,.28c-.22,0-.51,0-.86-.02l-.28-.92,1.67-.02c.07,0,.15-.04,.22-.14,.08-.09,.12-.18,.12-.26v-2.58h-2.47v-.88h2.47v-1.03c.56-.53,1.08-1.08,1.58-1.63h-3.49v-.86h4.66v.86c-.77,.83-1.38,1.47-1.84,1.91v.76h2.47v.88Z"/>
        <path class="cls-1" d="M461.89,91.89c-1.73,1.15-3.54,2.09-5.41,2.81l-.62-.83c1.66-.57,3.48-1.46,5.44-2.66l.59,.69Zm9.69-1.6h-7.29v4.73h-.95v-4.73h-7.35v-.96h7.35v-1.15h.95v1.15h7.29v.96Zm-10.2-2.56l-.76,.41c-.11-.4-.19-.7-.25-.88l-4.05,.52-.19-.84c1.02-.91,1.95-1.97,2.8-3.17l-2.44,.31-.17-.76c.88-1.05,1.73-2.45,2.52-4.17l.83,.31c-.56,1.19-1.27,2.4-2.13,3.64l2.04-.22c.4-.59,.74-1.11,.99-1.55l.77,.43c-1.38,2.16-2.7,3.85-3.95,5.06l2.66-.33c-.06-.27-.2-.62-.41-1.05l.69-.4c.39,.67,.74,1.57,1.05,2.68Zm4.64-.02h-4.28v-6.89h1.24c.31-.5,.59-1.08,.84-1.73l.91,.2c-.17,.46-.42,.97-.76,1.53h2.05v6.89Zm-.91-4.02v-1.98h-2.49v1.98h2.49Zm0,3.17v-2.29h-2.49v2.29h2.49Zm6.6,7l-.62,.7c-1.46-.94-3.2-1.82-5.22-2.65l.59-.72c2.25,.96,4,1.85,5.26,2.66Zm.04-6.15l-.76,.47c-.05-.18-.14-.49-.28-.91l-4.05,.47-.2-.79c1.06-.97,1.97-2.05,2.74-3.24l-2.54,.25-.17-.7c.91-1.11,1.7-2.46,2.38-4.07l.83,.31c-.64,1.42-1.29,2.59-1.96,3.52l2.03-.21c.25-.39,.54-.89,.86-1.49l.83,.36c-1.2,2.12-2.42,3.83-3.66,5.13l2.59-.29c-.12-.38-.29-.76-.51-1.15l.74-.38c.5,.93,.88,1.84,1.12,2.73Z"/>
        <path class="cls-1" d="M485.29,88.23l-.63,.69c-.87-.96-1.84-1.81-2.9-2.58l.67-.7c1.2,.9,2.15,1.76,2.87,2.59Z"/>
        <path class="cls-1" d="M511.18,92.01h-7.35v1.8c0,.35-.11,.61-.33,.8s-.48,.28-.79,.28l-2.14,.02-.31-.9c.35,.02,.69,.03,1.04,.03,.81,0,1.29-.04,1.42-.11s.2-.21,.2-.43v-1.49h-7.38v-.84h7.38v-.72c1.14-.4,2.11-.79,2.92-1.17h-7.24v-.84h9.17v.84c-1.22,.62-2.54,1.2-3.95,1.73v.16h7.35v.84Zm-.38-2.43h-.94v-2.27h-13.01v2.27h-.91v-3.11h.94l-.07-6.49c1.18-.14,2.3-.43,3.37-.86l.41,.72c-.82,.37-1.78,.65-2.88,.84v1.28h2.9v.83h-2.88l.02,1.39h2.85v.84h-2.81l.02,1.44h11.04l.02-1.44h-2.85v-.84h2.87l.02-1.39h-2.88v-.83h2.92l.04-1.3h-3.11v-.83h4.03l-.16,6.63h1.08v3.11Zm-5.1-4.12l-.59,.58c-.16-.16-.69-.6-1.58-1.32-.9,.62-1.62,1.04-2.18,1.27l-.45-.74c.32-.13,.98-.49,1.96-1.07-.21-.19-.46-.38-.76-.58s-.52-.35-.66-.45l.54-.56c.87,.6,1.39,.97,1.56,1.1,.67-.52,1.06-.87,1.17-1.04l.68,.47c-.11,.15-.5,.52-1.19,1.12,.26,.18,.76,.59,1.51,1.22Zm-.05-3.44l-.59,.52c-.45-.43-.96-.85-1.53-1.24-.59,.4-1.28,.79-2.06,1.15l-.4-.72c.53-.23,1.13-.55,1.78-.98-.42-.37-.85-.7-1.3-.98l.6-.53c.71,.52,1.17,.86,1.37,1.03,.54-.43,.96-.83,1.26-1.2l.69,.36c-.23,.33-.66,.79-1.3,1.37,.22,.12,.71,.53,1.48,1.22Z"/>
        <path class="cls-1" d="M5.9,120.24c-1.51,.98-3.09,1.84-4.75,2.58l-.41-.82c1.27-.51,2.88-1.37,4.83-2.58l.34,.83Zm1.76,.91c0,1.01-.4,1.51-1.2,1.51-.46,0-.85,0-1.17-.02l-.31-.88c.21,.01,.62,.02,1.22,.02,.36,0,.54-.17,.54-.5v-4.74H.89v-.88H7.66v5.48Zm-2.82-2.72l-.47,.74c-.94-.47-1.88-.81-2.82-.99l.48-.81c1.04,.25,1.98,.61,2.81,1.06Zm9.74,12.54h-.94v-.91H3.18v.91h-.93v-7.36H7.43c.23-.38,.44-.79,.61-1.25l.94,.17-.49,1.08h6.09v7.36Zm-.94-4.66v-1.8H3.18v1.8H13.64Zm0,2.83v-1.92H3.18v1.92H13.64Zm.02-8.95c-1.93,.95-3.47,1.6-4.62,1.96l-.31-.83c1.54-.52,3.1-1.2,4.7-2.02l.23,.89Zm1.77,.9c0,.56-.1,.96-.31,1.21-.21,.25-.69,.37-1.45,.37-.32,0-.6-.01-.83-.04l-.31-.91c.3,.02,.58,.04,.83,.04,.49,0,.8-.04,.93-.12,.13-.08,.19-.22,.19-.41v-4.69h-5.72v-.88h6.66v5.43Zm-3.19-2.5l-.48,.74c-.73-.49-1.54-.93-2.44-1.31l.55-.72c1,.43,1.79,.86,2.37,1.29Z"/>
        <path class="cls-1" d="M29.4,116.39c-.76,1.28-1.59,2.44-2.51,3.5h1.94v.88h-2.79c-.66,.68-1.26,1.26-1.81,1.73h3.47v.81c-.75,.75-1.53,1.46-2.34,2.13v.88c1.07-.18,2.15-.4,3.23-.67l-.04,.94c-1,.23-2.06,.45-3.2,.64v2.47c0,.39-.11,.7-.33,.93s-.74,.35-1.56,.35c-.3,0-.61-.01-.94-.04l-.29-.95c.32,.03,.7,.04,1.14,.04,.51,0,.82-.04,.93-.11s.16-.21,.16-.4v-2.1c-1.58,.25-2.86,.44-3.85,.55l-.22-.86c1.54-.21,2.9-.42,4.07-.63v-1.42c.63-.53,1.25-1.09,1.85-1.7h-3.28c-.77,.57-1.5,1.07-2.17,1.48l-.62-.77c1.96-1.14,3.48-2.24,4.55-3.3h-4.21v-.88h3.3v-2.06h-2.76v-.84h2.76v-1.75h.91v1.75h2.11v.84h-2.11v2.06h.89c1.08-1.12,2.04-2.43,2.87-3.93l.83,.43Zm6.77,13.83l-.57,.85c-1.46-.96-2.6-1.96-3.42-3.02-1.32,1.31-2.64,2.31-3.96,3.01l-.61-.82c1.72-.9,3.06-1.92,4.04-3.04-.61-1.08-1.12-2.61-1.53-4.61l.91-.33c.33,1.85,.74,3.23,1.24,4.14,1.27-2.02,1.84-4.47,1.73-7.36h-2.74c-.71,1.72-1.48,3.13-2.29,4.23l-.72-.67c1.56-2.03,2.58-4.5,3.04-7.42l.92,.24c-.2,1.01-.42,1.91-.67,2.7h4.5v.92h-1.12c-.02,3.53-.73,6.28-2.14,8.24,.79,1.08,1.92,2.06,3.38,2.93Z"/>
        <path class="cls-1" d="M55.74,117.36h-9.17c-.94,1.01-1.96,1.9-3.06,2.65,3.46-.19,6.18-.42,8.16-.7-.64-.38-1.16-.66-1.56-.84l.76-.65c1.41,.68,2.8,1.6,4.19,2.76l-.69,.68c-.67-.54-1.17-.93-1.51-1.17-3.52,.43-7.33,.76-11.44,.98l-.27-1.01c1.36-.3,2.73-1.19,4.1-2.68h-4.98v-.93h5.86c.35-.38,.69-.82,1.03-1.32l1.03,.31c-.15,.21-.42,.55-.79,1.01h8.35v.93Zm-1.96,12.21c0,.93-.68,1.39-2.05,1.39-.56,0-1.15-.03-1.79-.08l-.3-.9c.28,.01,1.14,.02,2.58,.02,.4,0,.6-.22,.6-.65v-2.87c-3.28,.84-6.45,1.53-9.5,2.06l-.36-.7c-.28,1.18-.91,2.26-1.89,3.23l-.74-.65c.81-.77,1.33-1.56,1.56-2.37,.23-.81,.35-2,.35-3.57v-2.66h11.54v7.76Zm-.96-3.96v-2.88h-9.63v1.3c2.96,.15,5.36,.38,7.19,.69l-.36,.88c-1.99-.35-4.26-.57-6.83-.67,0,.52-.06,1.41-.18,2.68,2.46-.3,5.72-.96,9.81-2Z"/>
        <path class="cls-1" d="M75.59,126.55h-3.24v2.77c0,.72-.17,1.18-.52,1.39-.35,.21-.97,.31-1.87,.31-.42,0-.86-.02-1.34-.05l-.4-.93c.69,.02,1.25,.03,1.66,.03,.56,0,.95-.01,1.17-.04,.23-.03,.34-.21,.34-.55v-2.93h-11.43v-.91h11.43v-1.67h-9.77v-.87h5.76v-1.62h-6.61v-.88h6.61v-1.21h.92v1.21h6.51v.88h-6.51v1.62h5.72v.87h-1.68v1.67h3.24v.91Zm-7.97-8.75h-5.01c-.6,.76-1.2,1.39-1.81,1.89l-.74-.64c1.24-.9,2.26-2.19,3.04-3.88l.93,.31c-.24,.46-.52,.94-.83,1.44h4.41v.88Zm-2.18,1.92l-.9,.38c-.28-.45-.66-.91-1.16-1.38l.82-.38c.39,.26,.8,.72,1.24,1.38Zm1.42,9.85l-.76,.59c-.9-1-1.79-1.8-2.68-2.43l.73-.62c1.2,.9,2.1,1.71,2.71,2.45Zm8.51-11.78h-5.7c-.4,.47-.76,.83-1.1,1.1l-.72-.54c1.04-.93,1.79-1.98,2.23-3.14l.89,.33c-.25,.55-.48,1.01-.7,1.37h5.11v.88Zm-2.23,1.89l-.9,.45c-.29-.46-.71-.93-1.26-1.42l.88-.43c.52,.43,.95,.89,1.27,1.4Z"/>
        <path class="cls-1" d="M95.45,130.54h-15.68v-.91h7.62v-4.86h-5.77v-.96h5.77v-4.1h-4.88c-.68,1.25-1.43,2.29-2.25,3.12l-.76-.65c1.59-1.65,2.76-3.76,3.49-6.32l.93,.24c-.24,.87-.55,1.75-.93,2.65h4.39v-3.53h.97v3.53h6.84v.97h-6.84v4.1h6.01v.96h-6.01v4.86h7.09v.91Z"/>
        <path class="cls-1" d="M103.72,124.97c-.98,2.33-2.14,4.34-3.47,6.03l-.72-.68c1.31-1.58,2.45-3.55,3.4-5.92l.79,.57Zm-.38-2.53l-.59,.76c-.98-.98-2.05-1.8-3.21-2.45l.58-.79c1.15,.7,2.23,1.53,3.22,2.49Zm.38-4.7l-.55,.76c-.98-.98-2.04-1.83-3.17-2.54l.62-.74c1.17,.74,2.2,1.58,3.11,2.52Zm11.54,3.52h-5.33v3.07h4.14v6.65h-.93v-1.29h-7.31v1.29h-.93v-6.65h4.14v-3.07h-5.37v-.88h5.37v-3.11c-1.6,.16-3.09,.23-4.48,.21l-.4-.9c3.84,.02,7.1-.4,9.76-1.26l.5,.81c-1.19,.42-2.68,.74-4.48,.98v3.26h5.33v.88Zm-2.12,7.55v-3.57h-7.31v3.57h7.31Z"/>
        <path class="cls-1" d="M126.79,116.09c-1.71,.72-3.49,1.18-5.34,1.38v2.14h4.71v5.24h-4.73c-.16,2.58-.63,4.59-1.42,6.03l-.79-.55c.87-1.71,1.31-3.73,1.31-6.07v-7.52c2.44-.27,4.39-.76,5.85-1.46l.41,.82Zm-1.55,7.85v-3.45h-3.8v3.45h3.8Zm9.81-2.09h-2.05v9.22h-.89v-9.22h-3.23c0,2.47-.2,4.29-.61,5.48s-1.05,2.43-1.91,3.74l-.76-.62c1.02-1.44,1.67-2.73,1.94-3.87,.28-1.14,.41-2.65,.41-4.53v-5.49c2.44-.12,4.57-.54,6.39-1.28l.49,.82c-1.6,.66-3.59,1.09-5.96,1.29v3.59h6.17v.88Z"/>
        <path class="cls-1" d="M154.83,124.04h-7.45c-.26,.67-.5,1.22-.74,1.63h7v4.02c0,.84-.62,1.26-1.87,1.26-.26,0-.58-.02-.98-.05l-.26-.88c.35,.04,.7,.05,1.05,.05,.54,0,.86-.04,.98-.11,.11-.07,.17-.2,.17-.37v-3.07h-3.22v4.22h-.88v-4.22h-3.19v4.2h-.88v-4.2h-3.26v4.54h-.88v-5.39h5.26c.23-.45,.47-.99,.72-1.63h-7.21v-.83h15.64v.83Zm-.38-2.36h-.9v-2.95h-6.09v4.01h-.9v-4.01h-6.06v2.97h-.91v-3.8h6.97v-1.35h-6.39v-.81h13.62v.81h-6.34v1.35h6.99v3.78Zm-8.57,.04c-1.18,.36-2.59,.61-4.23,.74l-.43-.82c1.52-.05,2.95-.27,4.3-.64l.36,.72Zm-.05-1.84l-.36,.79c-1.48-.35-2.82-.55-4.02-.6l.33-.77c1.48,.1,2.83,.29,4.05,.58Zm7,.19c-1.2,.31-2.6,.5-4.21,.56l-.36-.83c1.2,.01,2.59-.15,4.17-.49l.4,.76Zm.14,1.68l-.4,.77c-1.27-.34-2.68-.59-4.25-.74l.45-.77c1.69,.23,3.09,.48,4.19,.74Z"/>
        <path class="cls-1" d="M174.58,126.29c-.02,.81-.12,1.65-.3,2.52-.18,.86-.46,1.41-.84,1.64-.38,.23-1.16,.35-2.34,.35-.81,0-1.4-.02-1.77-.06-.37-.04-.66-.18-.87-.42s-.32-.55-.32-.92v-7.51h-3.31c-.1,2.33-.52,4.2-1.25,5.61-.74,1.41-2.06,2.61-3.99,3.61l-.65-.83c1.35-.6,2.48-1.48,3.41-2.66,.92-1.18,1.41-3.09,1.47-5.74h-4.55v-.97h15.12v.97h-5.26v7.42c0,.22,.11,.37,.33,.45s.63,.12,1.23,.12c1.16,0,1.81-.03,1.96-.09s.29-.16,.43-.3,.26-.59,.38-1.34,.17-1.49,.17-2.23l.96,.36Zm-1.6-9.69h-12.37v-.95h12.37v.95Z"/>
        <path class="cls-1" d="M194.48,121.38h-7.52c-1.2,.93-2.52,1.64-3.96,2.14l2.81-.09c1.79-.08,2.72-.13,2.79-.17,.66-.34,1.4-.77,2.21-1.29l.74,.56c-2.96,1.92-5.93,3.18-8.92,3.8,3.11-.07,6.12-.24,9.05-.5-.42-.46-.89-.9-1.41-1.32l.79-.54c1.25,1.1,2.3,2.22,3.16,3.38l-.69,.59c-.41-.54-.76-.97-1.06-1.29-1.9,.15-3.67,.26-5.33,.33v2.7c0,.5-.15,.85-.44,1.03-.29,.18-.88,.28-1.75,.28-.2,0-.4,0-.59-.02l-.23-.93c.35,.05,.68,.07,1.01,.07,.47,0,.77-.04,.87-.13,.11-.08,.16-.2,.16-.34v-2.63c-1.61,.05-3.65,.07-6.13,.07l-.11-.83c2.47-.55,4.82-1.28,7.04-2.2-1.26,.14-2.7,.21-4.33,.21-.46,0-.93,0-1.41-.02l-.09-.81c1.48-.5,2.9-1.19,4.28-2.07h-6.64v-.83h7.37v-1.48h-5.58v-.83h5.58v-1.26h-6.57v-.83h6.57v-.92h1.01v.92h6.46v.83h-6.46v1.26h5.36v.83h-5.36v1.48h7.3v.83Zm-10.27,6.87c-1.1,.87-2.65,1.71-4.65,2.52l-.59-.81c1.82-.65,3.34-1.44,4.57-2.38l.67,.67Zm9.97,1.8l-.61,.74c-1.39-1.01-2.93-1.85-4.61-2.52l.58-.77c1.8,.73,3.35,1.58,4.64,2.56Z"/>
        <path class="cls-1" d="M200.32,119.27c-.23,1.72-.57,3.15-.99,4.27l-.88-.34c.38-.92,.69-2.28,.93-4.09l.94,.16Zm4.05,2.11l-.63,.7c-.43-.63-1.01-1.31-1.75-2.06v10.98h-.95v-15.64h.95v3.4c.99,.91,1.78,1.78,2.38,2.61Zm9.77,2.68h-5.91c-.4,2.85-2.05,5.25-4.95,7.18l-.62-.81c2.7-1.77,4.22-3.89,4.59-6.37h-4.4v-.96h4.54c.09-.77,.15-2.07,.16-3.9h-3.49v-.96h3.51c.04-.91,.05-1.91,.05-2.99h.94c.01,.61,0,1.61-.05,2.99h4.19v4.86h1.44v.96Zm-2.42-.96v-3.9h-3.22c-.06,2.49-.1,3.79-.11,3.9h3.32Zm2.54,7.33l-.69,.65c-1.65-2.2-3.21-3.86-4.68-4.97l.61-.69c1.71,1.35,3.29,3.02,4.75,5.02Z"/>
        <path class="cls-1" d="M234.15,129.75l-.25,.9h-6.39c-2.97,0-5.1-.65-6.39-1.96-.64,.91-1.36,1.73-2.14,2.45l-.74-.63c1.95-1.66,3.13-3.6,3.56-5.81h-3.01v-.89c1.68-2.08,2.64-3.31,2.88-3.69h-3.23v-.88h4.32v.88l-2.83,3.69h2.81v.89c-.27,1.24-.66,2.31-1.17,3.22,1.21,1.22,3.03,1.84,5.47,1.84h7.11Zm-12.01-11.77l-.66,.69c-.53-.76-1.39-1.64-2.58-2.63l.64-.72c1.15,.97,2.01,1.85,2.59,2.66Zm11.81,9.55l-.58,.76c-1.58-1.55-2.93-2.62-4.04-3.2v4.01h-.94v-4.54c-1.11,1.4-2.57,2.64-4.39,3.73l-.61-.76c1.97-1.14,3.47-2.4,4.5-3.78h-3.48v-4.09h3.98v-1.63h-4.55v-.92h4.55v-1.81h.94v1.81h4.55v.92h-4.55v1.63h3.9v4.09h-3.9v.34c1.65,.88,3.19,2.03,4.62,3.44Zm-5.56-4.69v-2.25h-3.04v2.25h3.04Zm3.9,0v-2.25h-2.96v2.25h2.96Z"/>
        <path class="cls-1" d="M244.26,128.23c-1.79,1.03-3.64,1.8-5.55,2.32l-.65-.81c2.13-.56,3.95-1.28,5.44-2.18l.76,.67Zm9.48-1.46h-7.35v4.19h-.9v-4.19h-7.37v-.88h7.37v-.79h.9v.79h7.35v.88Zm-.56-2.37h-12.81v-4.95c-.48,.57-1.01,1.12-1.6,1.65l-.56-.74c1.5-1.38,2.73-3.13,3.69-5.24l.87,.31c-.15,.36-.4,.86-.76,1.49h4.39c-.13-.48-.33-.96-.57-1.44l.83-.38c.25,.5,.49,1.11,.7,1.82h5.56v.84h-5.84v1.32h5.26v.84h-5.26v1.35h5.26v.83h-5.26v1.4h6.1v.89Zm-7.03-5.31v-1.32h-4.65c-.06,.14-.13,.24-.21,.31v1.01h4.86Zm0,2.2v-1.35h-4.86v1.35h4.86Zm0,2.22v-1.4h-4.86v1.4h4.86Zm7.58,6.42l-.58,.76c-1.42-.91-3.22-1.73-5.4-2.47l.57-.72c2.13,.74,3.93,1.56,5.41,2.43Z"/>
        <path class="cls-1" d="M259.84,126.74c-.28,1.72-.65,3.08-1.13,4.1l-.88-.47c.5-.97,.88-2.26,1.13-3.86l.88,.22Zm4.74-1.15l-.83,.43c-.06-.33-.18-.68-.36-1.05-1.62,.41-3.34,.75-5.17,1.01l-.25-.88c1.32-.94,2.51-2.18,3.59-3.71-1.4,.15-2.47,.25-3.21,.29l-.18-.82c1.32-1.45,2.41-3.29,3.28-5.52l.83,.36c-.71,1.88-1.61,3.52-2.68,4.93,1.07-.05,1.94-.12,2.61-.22,.41-.65,.77-1.29,1.07-1.91l.83,.45c-1.41,2.59-2.86,4.55-4.36,5.87,1.24-.19,2.32-.42,3.24-.69-.11-.3-.28-.64-.51-1.01l.83-.4c.6,1.07,1.02,2.02,1.26,2.85Zm-2.42,4.75l-1,.14c.02-.97-.08-2.19-.33-3.66l.86-.21c.31,1.4,.47,2.64,.47,3.73Zm2.42-.77l-.88,.34c-.18-.97-.48-2.01-.89-3.1l.79-.34c.49,1.1,.81,2.13,.98,3.1Zm8.95-10.91h-4.14v2.75h3.56v.88h-7.92v-.88h3.45v-2.75h-3.96v-.87h3.96v-2.46h.91v2.46h4.14v.87Zm-1.05,12.32h-.91v-1.02h-5.15v1.02h-.92v-6.6h6.99v6.6Zm-.91-1.94v-3.76h-5.15v3.76h5.15Z"/>
        <path class="cls-1" d="M293.43,130.4h-11.75v.61h-.99v-7.87c-.66,.73-1.45,1.46-2.36,2.21l-.7-.74c2.19-1.75,3.84-3.63,4.97-5.63h-4.46v-.93h4.93c.4-.75,.8-1.71,1.18-2.88l.95,.2c-.32,.93-.68,1.82-1.06,2.68h8.98v.93h-9.45c-.62,1.1-1.27,2.08-1.98,2.95v7.52h5.19v-5.07h-3.95v-.94h3.95v-3.33h.97v3.33h4.34v.94h-4.34v5.07h5.6v.94Z"/>
        <path class="cls-1" d="M307.19,118.99h-1.22v2.06h-3.11v1.06h3.12v2.76h-3.16c-.33,.54-.64,.99-.92,1.34h2.2c.1-.17,.19-.38,.26-.64l.9,.22c-.02,.15-.06,.29-.12,.42h1.91v.8h-2.28c-.43,.83-.98,1.51-1.63,2.02,1.03,.46,1.89,.89,2.59,1.28l-.59,.67c-.87-.49-1.81-.95-2.82-1.36-1.12,.69-2.55,1.15-4.28,1.36l-.33-.85c1.52-.19,2.71-.51,3.57-.94-.89-.38-1.69-.67-2.4-.89,.32-.33,.7-.76,1.16-1.29h-2.49v-.8h3.18c.37-.47,.69-.92,.98-1.34h-2.88v-2.76h3.16v-1.06h-3.16v-2.06h-1.27v-.83h1.27v-1.9h3.16v-.98h.89v.98h3.11v1.9h1.22v.83Zm-5.22-.83v-1.12h-2.27v1.12h2.27Zm0,2.07v-1.24h-2.27v1.24h2.27Zm0,3.82v-1.12h-2.26v1.12h2.26Zm1.69,2.96h-2.43c-.13,.18-.4,.5-.79,.96,.52,.16,1.09,.37,1.71,.62,.59-.38,1.09-.9,1.5-1.58Zm1.42-8.86v-1.12h-2.22v1.12h2.22Zm0,2.07v-1.24h-2.22v1.24h2.22Zm0,3.82v-1.12h-2.22v1.12h2.22Zm8.12-5.01h-.83c-.12,3.76-.76,6.66-1.9,8.7,.63,.92,1.53,1.78,2.69,2.58l-.53,.74c-1.15-.72-2.08-1.57-2.77-2.55-.86,.96-1.88,1.8-3.08,2.55l-.54-.74c1.32-.84,2.35-1.71,3.09-2.59-.82-1.62-1.32-3.3-1.5-5.04l.84-.29c.32,1.99,.74,3.48,1.27,4.46,.55-.97,.95-2.21,1.2-3.7,.17-1.02,.29-2.39,.37-4.11h-2.45c-.57,1.46-1.22,2.64-1.95,3.55l-.71-.53c1.15-1.5,2.08-3.79,2.77-6.86l.87,.16c-.12,.76-.35,1.68-.69,2.79h3.87v.89Z"/>
        <path class="cls-1" d="M323.69,115.63c-1.44,3.3-3.35,5.78-5.74,7.42l-.65-.74c2.31-1.55,4.13-3.87,5.44-6.96l.95,.28Zm6.54,6.32c-.03,1.93-.14,3.66-.34,5.19s-.4,2.49-.59,2.86-.46,.63-.8,.79-.94,.24-1.79,.24c-.37,0-.85-.01-1.43-.04l-.21-.97c.66,.06,1.26,.09,1.82,.09s.89-.04,1.04-.11,.29-.17,.4-.3c.11-.13,.24-.52,.38-1.18,.14-.65,.25-1.46,.34-2.43,.08-.96,.14-2.03,.17-3.19h-4.62c-.4,3.53-2.38,6.31-5.94,8.33l-.58-.76c3.3-1.85,5.13-4.38,5.49-7.58h-3.4v-.96h10.06Zm2.91,.24l-.64,.81c-2.37-1.69-4.02-3.9-4.94-6.63h-1.34v-.97h2.01c.9,2.99,2.53,5.25,4.91,6.79Z"/>
        <path class="cls-1" d="M343.28,118.28l-.7,.59c-.54-.7-1.18-1.43-1.92-2.18-.53,.98-1.24,1.97-2.13,2.95h3.81v.89h-1.49v1.94h2.13v.86h-2.13v5.62c.39-.11,1.1-.33,2.14-.67v.87c-2.13,.71-3.99,1.27-5.56,1.67l-.31-.88c1.75-.44,2.69-.68,2.81-.72v-5.89h-2.52v-.86h2.52v-1.94h-1.68v-.58c-.19,.22-.42,.45-.7,.69l-.48-.79c1.55-1.52,2.66-3.1,3.33-4.72l.84,.24c-.12,.32-.19,.48-.19,.48,.86,.84,1.61,1.66,2.23,2.43Zm-4.12,10.04l-.82,.17c-.13-1.17-.38-2.4-.76-3.69l.85-.2c.39,1.52,.63,2.77,.72,3.73Zm3.8-3.67c-.22,1.35-.47,2.39-.76,3.11l-.77-.29c.28-.77,.53-1.77,.76-3.01l.77,.18Zm9.88,5.88h-9.77v-.84h4.48v-1.42h-3.88v-.84h3.88v-1.24h-3.59v-5.04h8.03v5.04h-3.55v1.24h3.84v.84h-3.84v1.42h4.39v.84Zm-.18-10.44h-9.49v-.86h2.56c-.26-.83-.47-1.38-.63-1.65h-1.56v-.85h3.81c-.11-.3-.32-.71-.64-1.24l.86-.29c.33,.55,.58,1.06,.76,1.53h3.9v.85h-1.47c-.27,.64-.52,1.19-.74,1.65h2.65v.86Zm-5.12,3.19v-1.32h-2.66v1.32h2.66Zm0,2.08v-1.31h-2.66v1.31h2.66Zm2.21-7.79h-3.66c.29,.71,.5,1.26,.63,1.65h2.29c.25-.5,.5-1.05,.74-1.65Zm1.33,5.7v-1.32h-2.65v1.32h2.65Zm0,2.08v-1.31h-2.65v1.31h2.65Z"/>
        <path class="cls-1" d="M371.68,129.42c0,.42-.12,.74-.35,.98s-.53,.38-.9,.4-.85,.04-1.44,.04c-.42,0-.81,0-1.19-.03l-.4-.99c.94,.09,1.82,.13,2.65,.13,.16,0,.31-.06,.45-.19s.2-.29,.2-.49v-9.77h-5.17c.29,2.54,1.83,5.03,4.62,7.47l-.68,.66c-2.51-2.27-4.03-4.49-4.58-6.65-.88,2.34-2.43,4.54-4.64,6.58l-.67-.69c2.23-1.83,3.84-4.29,4.83-7.37h-5.6v11.5h-.97v-12.47h6.64c-.06-.56-.11-1.34-.16-2.34h-1.7v-.94h2.63c-.02,.28-.03,.57-.03,.88,0,.7,.05,1.5,.16,2.4h6.28v10.89Z"/>
        <path class="cls-1" d="M382.98,130.64h-.91v-1.55h-3.88v1.91h-.91v-12.76h1.67c.45-.8,.88-1.83,1.28-3.09l.9,.18c-.21,.63-.62,1.6-1.22,2.91h3.08v12.4Zm-.91-7.63v-3.87h-3.88v3.87h3.88Zm0,5.17v-4.26h-3.88v4.26h3.88Zm9.92-9.92c-.07,2.7-.2,5.2-.39,7.51s-.38,3.68-.58,4.09-.44,.7-.74,.87c-.3,.17-.87,.26-1.72,.26-.37,0-.85,0-1.45-.03l-.29-.91c.49,.02,1.02,.03,1.59,.03,.53,0,.87,0,1.02-.02s.31-.09,.47-.22c.16-.14,.28-.3,.35-.48,.07-.19,.16-.88,.28-2.07s.21-2.51,.29-3.95c.08-1.44,.13-2.83,.17-4.19h-4.69c-.63,1.25-1.35,2.43-2.18,3.56l-.74-.52c1.58-2.07,2.69-4.37,3.35-6.92l.91,.24c-.29,.96-.62,1.88-.98,2.75h5.33Zm-3.31,8.07l-.76,.54c-.58-1.34-1.45-2.73-2.61-4.19l.77-.5c1.08,1.3,1.94,2.69,2.59,4.16Z"/>
        <path class="cls-1" d="M397.15,121.06c.96-.62,2.05-.92,3.28-.92,2.26,0,3.38,1.2,3.38,3.59v6.35h-1.47v-1.53h-.05c-.67,1.17-1.67,1.76-2.99,1.76-.96,0-1.72-.26-2.27-.77-.55-.51-.83-1.19-.83-2.04,0-1.8,1.07-2.85,3.2-3.16l2.94-.42c0-1.69-.67-2.53-2.02-2.53-1.18,0-2.23,.4-3.16,1.2v-1.55Zm2.8,4.41c-.83,.11-1.41,.31-1.74,.6-.33,.29-.49,.74-.49,1.34,0,.49,.17,.88,.52,1.19s.8,.46,1.37,.46c.78,0,1.43-.28,1.94-.83s.77-1.25,.77-2.08v-.98l-2.38,.32Z"/>
        <path class="cls-1" d="M408.58,130.09v-14.39h1.46v14.39h-1.46Z"/>
        <path class="cls-1" d="M415.05,130.09v-14.39h1.46v14.39h-1.46Z"/>
        <path class="cls-1" d="M426.46,125.25h-5.18v-1.17h5.18v1.17Z"/>
        <path class="cls-1" d="M430.88,116.87c0-.28,.09-.51,.28-.7,.18-.19,.41-.29,.67-.29s.51,.1,.7,.29,.29,.42,.29,.69-.1,.48-.29,.68-.42,.29-.7,.29-.5-.09-.68-.28-.27-.42-.27-.69Zm.2,13.22v-9.72h1.46v9.72h-1.46Z"/>
        <path class="cls-1" d="M445.53,130.09h-1.47v-5.55c0-2.1-.77-3.15-2.3-3.15-.8,0-1.46,.3-1.98,.9-.52,.6-.77,1.35-.77,2.25v5.55h-1.47v-9.72h1.47v1.63h.04c.73-1.24,1.79-1.85,3.19-1.85,1.07,0,1.88,.34,2.44,1.03s.84,1.68,.84,2.98v5.94Z"/>
        <path class="cls-1" d="M455.25,125.25h-5.18v-1.17h5.18v1.17Z"/>
        <path class="cls-1" d="M459.2,125.35c0-1.62,.44-2.89,1.32-3.82,.88-.93,2.08-1.39,3.6-1.39,1.43,0,2.55,.45,3.36,1.34s1.22,2.14,1.22,3.72-.44,2.77-1.32,3.71-2.04,1.41-3.49,1.41-2.53-.45-3.4-1.35-1.3-2.11-1.3-3.61Zm1.49-.06c0,1.15,.3,2.07,.9,2.75s1.4,1.03,2.4,1.03,1.81-.33,2.37-1,.84-1.61,.84-2.81-.28-2.19-.83-2.86c-.55-.67-1.35-1.01-2.38-1.01s-1.81,.35-2.41,1.04c-.6,.69-.9,1.65-.9,2.86Z"/>
        <path class="cls-1" d="M481.01,130.09h-1.47v-5.55c0-2.1-.77-3.15-2.3-3.15-.8,0-1.46,.3-1.98,.9-.52,.6-.77,1.35-.77,2.25v5.55h-1.47v-9.72h1.47v1.63h.04c.73-1.24,1.79-1.85,3.19-1.85,1.07,0,1.88,.34,2.44,1.03s.84,1.68,.84,2.98v5.94Z"/>
        <path class="cls-1" d="M493.52,125.59h-6.89c.03,1.12,.33,1.98,.89,2.58s1.33,.9,2.31,.9c1.1,0,2.11-.37,3.03-1.1v1.41c-.85,.63-1.97,.95-3.38,.95s-2.42-.44-3.2-1.33-1.17-2.13-1.17-3.74c0-1.48,.42-2.7,1.27-3.67s1.91-1.45,3.18-1.45,2.22,.41,2.92,1.23,1.05,1.96,1.05,3.43v.79Zm-1.51-1.29c0-.91-.23-1.62-.66-2.13-.43-.51-1.04-.76-1.82-.76-.71,0-1.33,.25-1.87,.76s-.87,1.22-1.01,2.13h5.36Z"/>
        <path class="cls-1" d="M513.04,130.54h-15.68v-.91h7.62v-4.86h-5.77v-.96h5.77v-4.1h-4.88c-.68,1.25-1.43,2.29-2.25,3.12l-.76-.65c1.59-1.65,2.76-3.76,3.49-6.32l.93,.24c-.24,.87-.55,1.75-.93,2.65h4.39v-3.53h.97v3.53h6.84v.97h-6.84v4.1h6.01v.96h-6.01v4.86h7.09v.91Z"/>
        <path class="cls-1" d="M4.72,160.97c-.98,2.33-2.14,4.34-3.47,6.03l-.72-.68c1.31-1.58,2.45-3.55,3.4-5.92l.79,.57Zm-.38-2.53l-.59,.76c-.98-.98-2.05-1.8-3.21-2.45l.58-.79c1.15,.7,2.23,1.53,3.22,2.49Zm.38-4.7l-.55,.76c-.98-.98-2.04-1.83-3.17-2.54l.62-.74c1.17,.74,2.2,1.58,3.11,2.52Zm11.54,3.52h-5.33v3.07h4.14v6.65h-.93v-1.29H6.83v1.29h-.93v-6.65h4.14v-3.07H4.67v-.88h5.37v-3.11c-1.6,.16-3.09,.23-4.48,.21l-.4-.9c3.84,.02,7.1-.4,9.76-1.26l.5,.81c-1.19,.42-2.68,.74-4.48,.98v3.26h5.33v.88Zm-2.12,7.55v-3.57H6.83v3.57h7.31Z"/>
        <path class="cls-1" d="M35.27,166.95h-.93v-1.22h-12.23v1.22h-.96v-15.28h14.12v15.28Zm-.93-2.1v-12.33h-12.23v12.33h12.23Zm-.4-4.27l-.7,.56c-1.03-1.14-2.13-2.15-3.31-3.04h-3.4c-.47,.56-.79,.92-.96,1.08h5.19c0,1.39-.13,2.26-.4,2.58s-.65,.49-1.17,.49c-.35,0-.73,0-1.15-.02l-.36-.89h1.46c.28,0,.46-.09,.54-.28s.12-.54,.12-1.06h-4.01v2.7c0,.33,.21,.5,.64,.5h4.5c.35,0,.6-.13,.76-.38s.24-.71,.27-1.38l.91,.38c-.09,.7-.23,1.21-.41,1.52s-.39,.51-.65,.6-.64,.13-1.16,.13h-4.39c-.91,0-1.37-.45-1.37-1.35v-2.95c-.64,.56-1.26,.99-1.85,1.3l-.57-.74c1.11-.6,2.09-1.34,2.94-2.23h-2.35v-.85h2.99c.28-.34,.52-.72,.72-1.13h-3.29v-.84h3.7c.33-.73,.59-1.51,.78-2.34l.88,.24c-.15,.62-.38,1.32-.67,2.1h4.74v.84h-5.12c-.26,.52-.47,.89-.65,1.13h6.3v.85h-2.14c1.43,1.22,2.31,2.04,2.65,2.48Zm-7.83-5.94l-.79,.4c-.32-.59-.69-1.1-1.12-1.54l.69-.48c.52,.53,.92,1.07,1.21,1.62Zm6.01-1.09c-.59,.71-1.08,1.22-1.46,1.51l-.74-.56c.49-.37,.96-.84,1.41-1.41l.79,.46Z"/>
        <path class="cls-1" d="M47.72,160.8c-.43-.23-.65-.52-.65-.87,0-.17,.07-.34,.22-.52,.15-.18,.35-.27,.62-.27,.56,0,.84,.37,.84,1.11,0,.6-.35,1.19-1.06,1.75l-.38-.29c.27-.36,.4-.66,.4-.91Z"/>
        <path class="cls-1" d="M70.43,154.93l-.49,.83c-1.31-1.27-2.8-2.42-4.47-3.45-.4,.47-1.07,1.08-1.99,1.83h4.04v.82h-4.11v-.76c-1.1,.81-2.1,1.46-3.01,1.97l-.49-.81c2.33-1.26,4.11-2.67,5.33-4.23l.99,.25c-.04,.09-.09,.16-.15,.21,1.76,1.18,3.21,2.3,4.34,3.36Zm-1.17,12.08h-.87v-.91h-5.2v.91h-.9v-3.96c-.29,1.67-.83,2.97-1.64,3.91l-.67-.59c1.12-1.71,1.68-3.79,1.68-6.25v-4.13h7.6v4.99h-6.71c-.01,.3-.06,.76-.14,1.36h6.85v4.66Zm-.89-8.96v-1.18h-5.77v1.18h5.77Zm0,2.09v-1.23h-5.77v1.23h5.77Zm.02,5.11v-2.04h-5.2v2.04h5.2Zm6.82,.21c0,.42-.11,.75-.33,1.01-.25,.29-.59,.45-1.03,.49-.52,.02-1.04,.04-1.57,.04h-.71l-.34-.98c.78,.02,1.61,.02,2.5-.02,.15,0,.28-.08,.4-.22,.11-.14,.17-.29,.17-.44v-14.07h.91v14.18Zm-3.03-1.78h-.9s0-11.57,0-11.57h.9v11.57Z"/>
        <path class="cls-1" d="M95.54,165.75l-.18,.92c-.6,.01-2.76,.02-6.46,.02-3.05,0-5.22-.66-6.5-1.99-.72,1.01-1.42,1.8-2.08,2.38l-.7-.63c1.68-1.37,2.84-3.28,3.51-5.76h-3.02v-.83c.83-1,1.76-2.22,2.79-3.68h-3.14v-.94h4.34v.94c-.52,.74-1.42,1.95-2.7,3.63h2.72v.89c-.32,1.18-.74,2.27-1.28,3.25,.62,.59,1.28,1.02,2,1.28,.72,.26,1.48,.42,2.27,.48,.79,.06,2.4,.09,4.82,.09,1.8,0,3.01-.02,3.61-.05Zm-12.08-11.79l-.7,.62c-.75-.98-1.63-1.87-2.65-2.66l.65-.67c1.13,.86,2.03,1.76,2.7,2.71Zm11.87,4.04h-10.63v-.88h4.96v-2.59h-2.9c-.54,.83-.92,1.39-1.13,1.68l-.77-.49c.98-1.23,1.72-2.63,2.21-4.21l.88,.2c-.24,.79-.49,1.44-.74,1.94h2.45v-2.38h.91v2.38h3.88v.88h-3.88v2.59h4.75v.88Zm-1.08,5.85h-8.19v-4.32h8.19v4.32Zm-.94-.88v-2.52h-6.31v2.52h6.31Z"/>
        <path class="cls-1" d="M115.32,166.09l-.34,.9c-3.6-.22-6.58-.8-8.94-1.74-1.51,1.04-3.51,1.66-6.01,1.84l-.47-.92c2.23-.08,4.05-.52,5.46-1.34-1.25-.6-2.36-1.28-3.31-2.06l.76-.59c.9,.79,2,1.46,3.3,2.01,.61-.66,1-1.6,1.19-2.81h-5.58v-6.73h5.67v-2h-7.32v-.88h15.46v.88h-7.18v2h5.5v6.73h-5.6c-.19,1.36-.59,2.42-1.19,3.17,2.31,.86,5.18,1.38,8.62,1.55Zm-8.3-8.62v-1.92h-4.68v1.92h4.68Zm-.02,.88h-4.66v2.13h4.62c.04-.47,.05-.93,.05-1.37,0-.26,0-.51-.02-.76Zm5.51,2.13v-2.13h-4.52c0,.96-.02,1.67-.05,2.13h4.57Zm0-3.01v-1.92h-4.52v1.92h4.52Z"/>
        <path class="cls-1" d="M132.83,153.52c-2.79,3.28-7.16,5.39-13.12,6.35l-.43-.95c2.73-.36,5.03-.95,6.89-1.77-.73-.76-1.76-1.63-3.09-2.59-.92,.52-1.89,.97-2.9,1.35l-.57-.83c2.91-1.09,5.04-2.4,6.39-3.93l.96,.36c-.34,.47-.73,.88-1.16,1.22h7.04v.77Zm2.02,6.47c0,.18-.33,.71-.99,1.6-.36,.48-.76,.93-1.19,1.34-.43,.41-.9,.8-1.41,1.16s-1.11,.71-1.8,1.06-1.54,.68-2.56,.98-2.05,.52-3.1,.67c-1.05,.15-2.06,.22-3.01,.22l-.45-.97c3.22,0,5.97-.49,8.24-1.48-.76-.91-1.81-1.87-3.16-2.88-1.12,.59-2.48,1.07-4.06,1.42l-.53-.9c3.81-.7,6.76-2.33,8.86-4.9l.9,.38c-.41,.5-.85,.98-1.33,1.43h5.58v.85Zm-3.43-6.32h-6.84c-.13,.11-.34,.25-.62,.41,1.1,.79,2.13,1.67,3.11,2.65,1.63-.77,3.08-1.79,4.35-3.06Zm2.31,6.39h-5.55c-.53,.41-1.14,.81-1.82,1.19,1.08,.84,2.13,1.79,3.13,2.85,1.93-1.05,3.34-2.39,4.24-4.03Z"/>
        <path class="cls-1" d="M154.02,154.32h-12.87v6.73c0,2.16-.38,4.14-1.15,5.95l-.74-.57c.69-2.03,1.04-4.28,1.04-6.75v-7.99h13.72v2.63Zm-.92-.76v-1.12h-11.94v1.12h11.94Zm1.13,7.43c0,.95-.04,1.96-.11,3.03-.07,1.07-.12,1.73-.15,1.99-.03,.26-.15,.48-.35,.66s-.46,.26-.76,.26h-1.03l-.31-.81h1.28c.11,0,.19-.06,.25-.19,.06-.13,.12-.64,.18-1.54,.06-.9,.1-1.79,.11-2.68h-5.36v.74h3.64v2.07h-1.28c.31,.39,.63,.9,.96,1.53l-.65,.4c-.06-.12-.16-.32-.31-.58-2.65,.34-5.26,.6-7.85,.77l-.27-.68c1.01-.05,2.63-.18,4.88-.41v-1.03h-3.63v-2.02c-.66,.38-1.25,.65-1.75,.83l-.4-.67c1.56-.63,2.78-1.47,3.67-2.52h-2.32v-2.27h11.43v2.27h-8.04c-.22,.32-.45,.6-.69,.84h8.85Zm-7.36-4.04c-1.18,.22-2.68,.43-4.5,.64l-.24-.68c1.47-.18,2.99-.39,4.55-.65l.18,.69Zm-.05-1.7l-.2,.72c-1.46-.28-2.92-.45-4.37-.52l.25-.74c1.01,.04,2.45,.22,4.32,.54Zm-.67,4.23v-.93h-2.68v.93h2.68Zm.95,2.97v-.74h-2.6c-.46,.39-.75,.64-.89,.74h3.49Zm0,1.44v-.81h-2.77v.81h2.77Zm2.58-4.41v-.93h-2.75v.93h2.75Zm-.93-2.14h-.86v-2.47h.86v2.47Zm2.07,6.55v-.81h-2.82v.81h2.82Zm-.72,.63h-2.1v.9l1.91-.21-.27-.41,.47-.27Zm4.5-9.04c-1.54,.24-3.08,.4-4.62,.47l-.29-.7c1.56-.05,3.1-.21,4.61-.47l.3,.7Zm.24,1.49l-.22,.69c-1.58-.33-3.17-.56-4.76-.69l.12-.7c1.93,.16,3.55,.4,4.86,.7Zm-1.55,2.5v-.93h-2.79v.93h2.79Z"/>
        <path class="cls-1" d="M166.28,155.16h-4.32c-.03,1.17-.06,2.01-.09,2.54h3.54c.02,1.88-.04,3.66-.18,5.35-.13,1.68-.28,2.68-.44,2.99-.16,.31-.4,.54-.72,.69s-1,.21-2.05,.17l-.28-.95c.71,.06,1.17,.09,1.36,.09,.26,0,.51-.09,.75-.27,.23-.18,.4-1.06,.48-2.63s.13-2.68,.13-3.31c0-.42,0-.82-.03-1.2h-2.63c-.26,3.38-.99,6.2-2.2,8.45l-.76-.54c.9-1.73,1.48-3.4,1.74-5.02,.26-1.62,.4-3.73,.43-6.33h-1.85v-.92h3.26c-.23-.97-.56-1.87-.99-2.68l.83-.34c.41,.85,.79,1.86,1.13,3.02h2.88v.92Zm8.49,1.96l-.59,.79c-1.29-.91-2.64-2.52-4.05-4.83-1.15,1.96-2.43,3.57-3.83,4.83l-.62-.62c1.99-1.92,3.43-3.95,4.34-6.11l.88,.31c-.05,.12-.14,.35-.29,.67,1.29,2.22,2.67,3.88,4.16,4.97Zm-1.55,9.14l-.61,.69c-1.51-1.42-3.37-2.8-5.56-4.16l.59-.77c2.36,1.49,4.22,2.9,5.58,4.25Zm-.36-5.36l-.64,.7c-1.13-1.15-2.54-2.22-4.22-3.23l.56-.69c1.47,.81,2.9,1.88,4.3,3.22Z"/>
        <path class="cls-1" d="M192.78,167h-.98v-1.26h-10.41v1.26h-.97v-13.68h4.95c.43-.69,.76-1.41,.98-2.16l.95,.22c-.24,.7-.53,1.34-.88,1.94h6.35v13.68Zm-.98-10.05v-2.65h-10.41v2.65h10.41Zm0,3.8v-2.83h-10.41v2.83h10.41Zm0,4.07v-3.12h-10.41v3.12h10.41Z"/>
        <path class="cls-1" d="M213.89,162c-.13,1.96-.36,3.21-.66,3.76s-.9,.83-1.77,.84-3.06,.02-6.57,.02c-1.69,0-2.79,0-3.32-.03s-.95-.17-1.27-.46c-.32-.29-.48-.84-.48-1.67v-6.88h11.72v-5h-12.76v-.93h13.73v6.86h-11.73v6.37c0,.19,.07,.36,.2,.5,.13,.14,.28,.22,.44,.24s.84,.04,2.03,.06,2.31,.03,3.38,.03c2.44,0,3.92-.02,4.44-.06s.86-.13,1.01-.27,.28-.56,.4-1.25,.2-1.54,.23-2.54l.98,.41Z"/>
        <path class="cls-1" d="M223.32,166.12h-.94v-1.42h-2.5v1.82h-.93v-14.17h4.38v13.77Zm-.94-8.1v-4.73h-2.5v4.73h2.5Zm0,5.75v-4.84h-2.5v4.84h2.5Zm11.27-9.62h-4.19v2.61h3.71v.91h-8.43v-.91h3.78v-2.61h-4.4v-.95h4.4v-1.97h.94v1.97h4.19v.95Zm.41,6.64h-2v4.66c0,.6-.16,1-.49,1.2-.33,.2-.96,.29-1.91,.29-.28,0-.63,0-1.04-.02l-.38-.97c.58,.04,1.09,.06,1.53,.06,.59,0,.97-.04,1.12-.14,.16-.09,.24-.25,.24-.47v-4.62h-7.03v-.92h7.03v-1.67h.92v1.67h2v.92Zm-5.41,3.64l-.81,.48c-.63-.97-1.41-1.89-2.33-2.75l.79-.54c.77,.73,1.55,1.67,2.35,2.81Z"/>
        <path class="cls-1" d="M245.22,157.48h-5.36v9.48h-.96v-15.31h6.32v5.83Zm-.93-3.42v-1.51h-4.43v1.51h4.43Zm0,2.54v-1.64h-4.43v1.64h4.43Zm5.2,8.73h-7.04v-6.39h7.04v6.39Zm-.92-3.71v-1.8h-5.2v1.8h5.2Zm0,2.83v-1.93h-5.2v1.93h5.2Zm4.52,1.08c0,.45-.13,.81-.4,1.06s-.75,.39-1.45,.39h-.96l-.34-.93c.28,.02,.82,.04,1.62,.04,.17,0,.31-.06,.43-.18s.17-.27,.17-.43v-7.99h-5.3v-5.83h6.23v13.88Zm-.93-11.47v-1.51h-4.38v1.51h4.38Zm0,2.54v-1.64h-4.38v1.64h4.38Z"/>
        <path class="cls-1" d="M264.18,166.64h-.91v-1.55h-3.88v1.91h-.91v-12.76h1.67c.45-.8,.88-1.83,1.28-3.09l.9,.18c-.21,.63-.62,1.6-1.22,2.91h3.08v12.4Zm-.91-7.63v-3.87h-3.88v3.87h3.88Zm0,5.17v-4.26h-3.88v4.26h3.88Zm9.92-9.92c-.07,2.7-.2,5.2-.39,7.51s-.38,3.68-.58,4.09-.44,.7-.74,.87c-.3,.17-.88,.26-1.72,.26-.37,0-.85,0-1.45-.03l-.29-.91c.49,.02,1.02,.03,1.59,.03,.53,0,.88,0,1.02-.02s.31-.09,.47-.22c.16-.14,.28-.3,.35-.48,.07-.19,.16-.88,.28-2.07s.21-2.51,.29-3.95c.08-1.44,.13-2.83,.17-4.19h-4.69c-.63,1.25-1.35,2.43-2.18,3.56l-.74-.52c1.58-2.07,2.69-4.37,3.35-6.92l.91,.24c-.29,.96-.62,1.88-.98,2.75h5.33Zm-3.31,8.07l-.76,.54c-.58-1.34-1.45-2.73-2.61-4.19l.77-.5c1.08,1.3,1.94,2.69,2.59,4.16Z"/>
        <path class="cls-1" d="M290.61,166.09v-9.19c0-.7,.05-1.57,.14-2.63h-.04c-.16,.64-.3,1.07-.4,1.28l-4.75,10.54h-.67l-4.74-10.47c-.12-.28-.25-.73-.4-1.35h-.04c.05,.48,.08,1.35,.08,2.6v9.22h-1.46v-13.61h1.95l4.26,9.59c.33,.76,.54,1.29,.63,1.61h.06c.18-.47,.4-1.03,.66-1.65l4.36-9.54h1.85v13.61h-1.49Z"/>
        <path class="cls-1" d="M305.05,161.59h-6.89c.03,1.12,.33,1.98,.89,2.58s1.33,.9,2.31,.9c1.1,0,2.11-.37,3.03-1.1v1.41c-.85,.63-1.97,.95-3.38,.95s-2.42-.44-3.2-1.33-1.17-2.13-1.17-3.74c0-1.48,.42-2.7,1.27-3.67s1.91-1.45,3.18-1.45,2.22,.41,2.92,1.23,1.05,1.96,1.05,3.43v.79Zm-1.51-1.29c0-.91-.23-1.62-.66-2.13-.43-.51-1.04-.76-1.82-.76-.71,0-1.33,.25-1.87,.76s-.87,1.22-1.01,2.13h5.36Z"/>
        <path class="cls-1" d="M323.69,153.84h-3.93v12.24h-1.5v-12.24h-3.92v-1.37h9.35v1.37Z"/>
        <path class="cls-1" d="M327.25,152.87c0-.28,.09-.51,.28-.7,.18-.19,.41-.29,.67-.29s.51,.1,.7,.29,.29,.42,.29,.69-.09,.48-.29,.68-.42,.29-.7,.29-.5-.09-.68-.28-.27-.42-.27-.69Zm.2,13.22v-9.72h1.46v9.72h-1.46Z"/>
        <path class="cls-1" d="M347.61,166.09h-1.47v-5.58c0-1.13-.17-1.93-.51-2.41s-.91-.71-1.7-.71c-.66,0-1.23,.31-1.71,.93s-.72,1.36-.72,2.21v5.55h-1.46v-5.78c0-1.95-.75-2.92-2.26-2.92-.69,0-1.26,.3-1.72,.89s-.68,1.34-.68,2.26v5.55h-1.47v-9.72h1.47v1.54h.04c.68-1.18,1.68-1.77,3.01-1.77,.63,0,1.2,.19,1.71,.56,.51,.37,.85,.86,1.03,1.47,.72-1.35,1.8-2.03,3.23-2.03,2.14,0,3.21,1.32,3.21,3.96v5.99Z"/>
        <path class="cls-1" d="M360.14,161.59h-6.89c.03,1.12,.33,1.98,.89,2.58s1.33,.9,2.31,.9c1.1,0,2.11-.37,3.03-1.1v1.41c-.85,.63-1.97,.95-3.38,.95s-2.42-.44-3.2-1.33-1.17-2.13-1.17-3.74c0-1.48,.42-2.7,1.27-3.67s1.91-1.45,3.18-1.45,2.22,.41,2.92,1.23,1.05,1.96,1.05,3.43v.79Zm-1.51-1.29c0-.91-.23-1.62-.66-2.13-.43-.51-1.04-.76-1.82-.76-.71,0-1.33,.25-1.87,.76s-.87,1.22-1.01,2.13h5.36Z"/>
        <path class="cls-1" d="M371.53,160.8c-.43-.23-.65-.52-.65-.87,0-.17,.07-.34,.22-.52,.15-.18,.35-.27,.62-.27,.56,0,.84,.37,.84,1.11,0,.6-.35,1.19-1.06,1.75l-.38-.29c.27-.36,.4-.66,.4-.91Z"/>
        <path class="cls-1" d="M391.91,166.09h-1.47v-1.54h-.04c-.64,1.18-1.64,1.77-3,1.77-2.32,0-3.48-1.38-3.48-4.14v-5.81h1.45v5.56c0,2.09,.8,3.14,2.39,3.14,.79,0,1.43-.29,1.92-.87s.75-1.32,.75-2.23v-5.6h1.47v9.72Z"/>
        <path class="cls-1" d="M401.87,157.87c-.27-.21-.66-.31-1.17-.31-.69,0-1.25,.33-1.69,.98-.44,.65-.66,1.51-.66,2.57v4.97h-1.47v-9.72h1.47v2.01h.04c.22-.69,.56-1.23,1.02-1.61s.96-.57,1.51-.57c.42,0,.73,.04,.95,.13v1.54Z"/>
        <path class="cls-1" d="M406.84,164.66v1.42h-1.47v-14.39h1.47v6.39h.04c.77-1.3,1.89-1.95,3.37-1.95,1.24,0,2.21,.44,2.93,1.31s1.07,2.04,1.07,3.5c0,1.62-.4,2.92-1.2,3.9-.8,.98-1.88,1.47-3.25,1.47-1.28,0-2.26-.55-2.92-1.65h-.04Zm0-2.52c0,.83,.27,1.52,.82,2.08s1.22,.84,2.01,.84c.96,0,1.71-.37,2.25-1.11s.82-1.76,.82-3.06c0-1.08-.25-1.94-.76-2.57-.51-.63-1.2-.94-2.07-.94s-1.63,.32-2.21,.95c-.58,.63-.87,1.44-.87,2.41v1.39Z"/>
        <path class="cls-1" d="M418.53,157.06c.96-.62,2.05-.92,3.28-.92,2.26,0,3.38,1.2,3.38,3.59v6.35h-1.47v-1.53h-.05c-.67,1.17-1.67,1.76-2.99,1.76-.96,0-1.72-.26-2.27-.77-.55-.51-.83-1.19-.83-2.04,0-1.8,1.07-2.85,3.2-3.16l2.94-.42c0-1.69-.67-2.53-2.02-2.53-1.18,0-2.23,.4-3.16,1.2v-1.55Zm2.8,4.41c-.83,.11-1.41,.31-1.74,.6-.33,.29-.49,.74-.49,1.34,0,.49,.17,.88,.52,1.19s.8,.46,1.37,.46c.78,0,1.43-.28,1.94-.83s.77-1.25,.77-2.08v-.98l-2.38,.32Z"/>
        <path class="cls-1" d="M437.94,166.09h-1.47v-5.55c0-2.1-.77-3.15-2.3-3.15-.8,0-1.46,.3-1.98,.9-.52,.6-.77,1.35-.77,2.25v5.55h-1.47v-9.72h1.47v1.63h.04c.73-1.24,1.79-1.85,3.19-1.85,1.07,0,1.88,.34,2.44,1.03s.84,1.68,.84,2.98v5.94Z"/>
        <path class="cls-1" d="M457.16,153.84h-3.93v12.24h-1.5v-12.24h-3.92v-1.37h9.35v1.37Z"/>
        <path class="cls-1" d="M458.25,161.35c0-1.62,.44-2.89,1.32-3.82,.88-.93,2.08-1.39,3.6-1.39,1.43,0,2.55,.45,3.36,1.34s1.22,2.14,1.22,3.72-.44,2.77-1.32,3.71-2.04,1.41-3.49,1.41-2.53-.45-3.4-1.35-1.3-2.11-1.3-3.61Zm1.49-.06c0,1.15,.3,2.07,.9,2.75s1.4,1.03,2.4,1.03,1.81-.33,2.37-1,.84-1.61,.84-2.81-.28-2.19-.83-2.86c-.55-.67-1.35-1.01-2.38-1.01s-1.81,.35-2.41,1.04c-.6,.69-.9,1.65-.9,2.86Z"/>
        <path class="cls-1" d="M484.19,156.37l-2.92,9.72h-1.52l-2.04-7.04c-.08-.26-.13-.56-.15-.88h-.04c0,.16-.07,.45-.2,.86l-2.21,7.06h-1.46l-2.95-9.72h1.54l2.06,7.37c.06,.23,.11,.52,.13,.86h.07c.02-.27,.08-.56,.18-.88l2.28-7.36h1.34l2.05,7.39c.05,.2,.1,.49,.14,.86h.08c0-.24,.06-.53,.16-.86l2.02-7.39h1.45Z"/>
        <path class="cls-1" d="M495.47,161.59h-6.89c.03,1.12,.33,1.98,.89,2.58s1.33,.9,2.31,.9c1.1,0,2.11-.37,3.03-1.1v1.41c-.85,.63-1.97,.95-3.38,.95s-2.42-.44-3.2-1.33-1.17-2.13-1.17-3.74c0-1.48,.42-2.7,1.27-3.67s1.91-1.45,3.18-1.45,2.22,.41,2.92,1.23,1.05,1.96,1.05,3.43v.79Zm-1.51-1.29c0-.91-.23-1.62-.66-2.13-.43-.51-1.04-.76-1.82-.76-.71,0-1.33,.25-1.87,.76s-.87,1.22-1.01,2.13h5.36Z"/>
        <path class="cls-1" d="M504.65,157.87c-.27-.21-.66-.31-1.17-.31-.69,0-1.25,.33-1.69,.98-.44,.65-.66,1.51-.66,2.57v4.97h-1.47v-9.72h1.47v2.01h.04c.22-.69,.56-1.23,1.02-1.61s.96-.57,1.51-.57c.42,0,.73,.04,.95,.13v1.54Z"/>
        <path class="cls-1" d="M3.23,197.88c-.56,1.43-1.25,2.66-2.05,3.69l-.79-.54c.67-.81,1.34-2,2.01-3.56l.83,.41Zm5.49-1.44h-3.64v6.61h-.9v-6.61H.51v-.86h3.67v-1.77H.72v-.9H2.91c-.11-.56-.42-1.45-.94-2.67l.63-.43H.84v-.93h3.31c-.18-.42-.43-.85-.76-1.3l.86-.38c.29,.39,.59,.95,.92,1.68h3.15v.93h-1.44l.67,.41c-.22,.66-.59,1.56-1.12,2.69h2.09v.9h-3.45v1.77h3.64v.86Zm-2.11-6.63H2.87c.48,1.17,.82,2.21,1.03,3.1h1.51c.51-1.01,.91-2.04,1.2-3.1Zm1.57,10.08l-.83,.5c-.28-.73-.69-1.58-1.24-2.55l.76-.43c.5,.76,.94,1.59,1.32,2.48Zm7.9-5.91h-1.94v9.08h-.92v-9.08h-2.68c0,4.01-.76,7.06-2.29,9.13l-.76-.58c.78-1.16,1.33-2.34,1.67-3.55s.5-2.8,.5-4.78v-5.4c2.27-.31,4.11-.82,5.54-1.54l.7,.74c-1.59,.74-3.38,1.26-5.34,1.57v3.51h5.53v.9Z"/>
        <path class="cls-1" d="M23.72,197.09c-.7,2.1-1.61,4.09-2.73,5.98l-.74-.63c1.07-1.78,1.96-3.69,2.66-5.74l.81,.4Zm.04-2.81l-.62,.7c-.88-.93-1.83-1.73-2.87-2.43l.58-.74c1.24,.79,2.21,1.61,2.91,2.46Zm.13-4.75l-.76,.69c-.84-1.03-1.64-1.82-2.4-2.36l.65-.72c.8,.58,1.63,1.38,2.5,2.39Zm6.32,10.56h-2.58v2.91h-.89v-2.91h-2.72v-.85h2.72v-1.69h-2.01v-6.1h2.01v-1.64h-2.53v-.86h2.53v-1.7h.91v1.7h2.37v.86h-2.37v1.64h1.94v6.1h-1.96v1.69h2.58v.85Zm-1.49-6.13v-1.69h-3.07v1.69h3.07Zm0,2.74v-1.89h-3.07v1.89h3.07Zm6.87,5c0,.44-.14,.77-.41,.98-.28,.21-.75,.32-1.43,.32-.26,0-.55-.01-.85-.04l-.27-.88c.6,.06,1.05,.09,1.37,.09,.21,0,.38-.07,.52-.21s.22-.31,.22-.51v-4.23h-2.74c-.12,2.47-.57,4.41-1.34,5.84l-.77-.49c.37-.65,.68-1.58,.94-2.8s.39-3.1,.39-5.65v-6.42h4.39v14.02Zm-.86-5.34v-3.5h-2.63v1.42l-.04,2.07h2.67Zm0-4.41v-3.38h-2.63v3.38h2.63Z"/>
        <path class="cls-1" d="M43.63,197.23c-.66,1.92-1.58,3.87-2.76,5.85l-.79-.65c1.03-1.62,1.92-3.52,2.68-5.7l.87,.5Zm-.04-2.73l-.66,.7c-.81-.87-1.76-1.66-2.83-2.38l.58-.74c1.2,.84,2.17,1.64,2.91,2.42Zm.33-4.83l-.62,.76c-1.08-1.18-1.97-2.01-2.66-2.49l.62-.74c1.07,.86,1.95,1.68,2.66,2.47Zm2.76,5.77c0,2.14-.18,3.73-.54,4.76s-1.12,1.97-2.29,2.81l-.74-.69c.68-.39,1.29-1.04,1.85-1.93s.81-2.55,.76-4.95h.96Zm9.19-.74l-.79,.62c-.29-.46-.65-.94-1.08-1.46-3.54,.41-6.61,.71-9.21,.9l-.24-.93c1.39-.76,2.6-2.02,3.64-3.78h-3.76v-.94h4.3c.23-.43,.51-1.08,.84-1.92l.98,.25c-.11,.3-.36,.86-.74,1.67h5.77v.94h-6.26c-.89,1.58-1.89,2.8-3.01,3.66,2.3-.15,4.62-.36,6.96-.63-.49-.56-1.02-1.07-1.6-1.55l.74-.63c1.37,1.2,2.52,2.47,3.45,3.81Zm-6.15,8.31h-.94v-7.58h.94v7.58Zm6.08-.21h-2.39c-.9,0-1.35-.42-1.35-1.27v-6.09h.91v5.96c0,.32,.18,.48,.54,.48h2.29v.92Z"/>
        <path class="cls-1" d="M64.99,187.54c-.19,.53-.5,1.2-.91,2.02l-.61,1.2v12.22h-.96v-10.65c-.63,.96-1.42,1.91-2.37,2.87l-.51-.94c1.83-1.72,3.31-4.06,4.45-7l.91,.29Zm10.56,15.03h-11.13v-.93h4.86v-4.84h-3.99v-.94h3.99v-4.14h-4.54v-.93h4.77c-.19-.87-.63-1.96-1.32-3.26l.94-.33c.51,1.1,.96,2.29,1.36,3.59h4.83v.93h-5.09v4.14h4.52v.94h-4.52v4.84h5.31v.93Z"/>
        <path class="cls-1" d="M95.45,197.57h-8.09v4.03c0,.11,.05,.21,.15,.31,.1,.1,.22,.15,.34,.15h1.41c2.6,0,4.08-.04,4.46-.12s.57-.91,.57-2.49l.98,.33c-.06,1.31-.22,2.14-.46,2.49s-.54,.55-.9,.62-1.74,.11-4.15,.11c-1.07,0-1.79-.01-2.17-.03-.38-.02-.67-.16-.88-.43-.21-.27-.32-.55-.32-.85v-4.12h-6.57v-.94h6.57v-2.96c-1.58,.12-2.78,.19-3.62,.21l-.38-.91c4.39-.16,7.63-.63,9.72-1.41l.54,.84c-1.52,.5-3.28,.88-5.29,1.12v3.11h8.09v.94Zm-.63-3.78h-.97v-3.66h-12.49v3.66h-.96v-4.62h6.75c-.32-.65-.62-1.17-.91-1.57l.9-.38c.32,.48,.67,1.13,1.05,1.95h6.64v4.62Z"/>
        <path class="cls-1" d="M115.19,199.48c-.09,1.03-.28,1.89-.58,2.59-.3,.7-.66,1.04-1.09,1.04-.46,0-1-.39-1.63-1.16s-1.09-1.57-1.38-2.4c-1.36,1.38-2.79,2.55-4.28,3.52l-.7-.74c1.99-1.29,3.52-2.56,4.59-3.82-.58-2.12-.95-4.56-1.12-7.32h-6.65v2.44h4.81c-.02,1.49-.09,2.81-.22,3.98-.13,1.16-.27,1.88-.42,2.15s-.37,.48-.65,.64c-.28,.15-.81,.23-1.59,.23-.24,0-.54,0-.89-.03l-.3-.98c.42,.06,.82,.1,1.22,.1,.51,0,.85-.04,1.01-.12,.16-.08,.3-.18,.4-.3,.1-.12,.21-.69,.34-1.7,.13-1.01,.19-2.02,.19-3.04h-3.88c-.11,3.3-.81,6.16-2.11,8.57l-.74-.67c1.28-2.31,1.92-5.27,1.92-8.86v-3.35h7.49c-.05-1.31-.07-2.32-.07-3.02h.94c0,.92,.03,1.93,.09,3.02h4.97v.92h-4.93c.09,2.31,.39,4.47,.9,6.46,1.01-1.38,1.82-3.04,2.43-4.98l.95,.31c-.84,2.3-1.86,4.24-3.04,5.81,.33,.93,.74,1.71,1.25,2.32,.5,.62,.84,.93,1,.93,.18,0,.36-.34,.55-1.02s.28-1.35,.28-2.01l.96,.48Zm-.98-10.05l-.81,.58c-.52-.63-1.21-1.26-2.07-1.89l.76-.62c.83,.55,1.53,1.19,2.12,1.92Z"/>
        <path class="cls-1" d="M134.63,196.09c0,1.16-.06,2.29-.19,3.39s-.25,1.81-.37,2.14-.3,.59-.53,.81c-.23,.22-.55,.38-.94,.49s-1.03,.16-1.9,.16l-.36-1.03c.27,.02,.83,.04,1.67,.04,.29,0,.54-.07,.76-.2,.21-.13,.36-.32,.45-.55,.09-.24,.18-.74,.29-1.5s.17-1.71,.2-2.83h-11.06c-.84,1.01-1.78,1.94-2.82,2.79l-.54-.88c2.79-2.21,4.62-4.92,5.49-8.12h-4.79v-.94h5c.27-1.19,.45-2.09,.53-2.7l.91,.2c-.09,.66-.24,1.49-.47,2.5h6.63c-.18,1.01-.39,2.06-.63,3.14h1.78c-.11,.97-.29,2-.54,3.09h1.44Zm-10.92-7.04l-.83,.51c-.4-.61-.91-1.23-1.51-1.85l.81-.51c.59,.59,1.1,1.21,1.53,1.85Zm.47,9.36c-.5,1.68-1.15,3.12-1.92,4.34l-.86-.47c.74-1.1,1.39-2.46,1.94-4.1l.84,.23Zm8.45-4.5h-8.02c-.3,.64-.73,1.37-1.27,2.18h8.89c.16-.81,.3-1.54,.4-2.18Zm-1.15-3.11h-5.73c-.18,.69-.43,1.42-.74,2.2h5.98c.16-.63,.32-1.36,.49-2.2Zm-4.68,11.7l-.99,.18c.05-1.2-.11-2.63-.47-4.31l.89-.19c.28,1.27,.47,2.7,.57,4.32Zm2.87-.95l-.92,.33c-.21-1.24-.53-2.42-.98-3.54l.86-.29c.39,1.03,.74,2.19,1.05,3.5Zm2.58-.99l-.85,.4c-.25-.84-.65-1.75-1.19-2.75l.81-.4c.46,.79,.87,1.71,1.23,2.75Z"/>
        <path class="cls-1" d="M154.07,191.92h-12.09v2.8c0,3.46-.72,6.18-2.16,8.17l-.77-.57c1.33-1.85,2-4.24,2-7.19v-7.46h13.03v4.25Zm-.95-.91v-2.41h-11.14v2.41h11.14Zm1.69,4.22h-5.76v2.37h4.62v5.44h-.96v-.96h-8.3v.96h-.95v-5.44h4.64v-2.37h-5.47v-.87h5.47v-1.78h.94v1.78h5.76v.87Zm-2.09,5.96v-2.69h-8.3v2.69h8.3Z"/>
        <path class="cls-1" d="M163.99,187.54c-.19,.53-.5,1.2-.91,2.02l-.61,1.2v12.22h-.96v-10.65c-.63,.96-1.42,1.91-2.37,2.87l-.51-.94c1.83-1.72,3.31-4.06,4.45-7l.91,.29Zm10.56,15.03h-11.13v-.93h4.86v-4.84h-3.99v-.94h3.99v-4.14h-4.54v-.93h4.77c-.19-.87-.63-1.96-1.32-3.26l.94-.33c.51,1.1,.96,2.29,1.36,3.59h4.83v.93h-5.09v4.14h4.52v.94h-4.52v4.84h5.31v.93Z"/>
        <path class="cls-1" d="M180.57,199.64c-.2,1.08-.58,2.2-1.13,3.37l-.79-.4c.45-.86,.83-1.93,1.15-3.22l.77,.25Zm2.61-5.83c-1.09,1.84-2.12,3.15-3.08,3.94,.67-.04,1.29-.12,1.87-.23-.05-.33-.12-.6-.2-.79l.72-.25c.29,.83,.46,1.58,.51,2.27l-.8,.22c0-.23-.02-.47-.07-.72-.84,.16-1.86,.31-3.06,.43l-.21-.81c.7-.5,1.37-1.15,2-1.94-.59,.07-1.16,.11-1.71,.11l-.18-.65c.68-.72,1.25-1.65,1.72-2.79l.8,.26c-.28,.79-.77,1.58-1.46,2.38,.33-.01,.78-.04,1.36-.1,.35-.48,.67-1.03,.96-1.63l.83,.31Zm3.4-1.65h-7v-4.45h7v4.45Zm-.88-2.59v-1.06h-5.2v1.06h5.2Zm0,1.74v-.97h-5.2v.97h5.2Zm-3.09,11.29l-.89,.1c.05-.88-.05-1.87-.31-2.97l.83-.11c.2,.97,.32,1.96,.36,2.99Zm4.85-4.09l-.76,.27c-.02-.22-.07-.45-.14-.69-1.05,.24-2.04,.42-2.97,.53l-.23-.74c.66-.53,1.27-1.24,1.85-2.13-.76,.09-1.35,.16-1.78,.2l-.13-.74c.65-.76,1.1-1.64,1.35-2.63l.88,.26c-.4,.98-.82,1.74-1.26,2.27,.59-.05,1.05-.1,1.39-.16,.24-.39,.49-.9,.74-1.51l.83,.36c-.9,1.7-1.79,2.99-2.68,3.88,.65-.06,1.24-.17,1.76-.34-.03-.16-.12-.4-.28-.72l.76-.25c.3,.65,.53,1.36,.68,2.12Zm-2.63,3.67l-.83,.18c-.06-.93-.25-1.83-.57-2.7l.81-.17c.34,1.01,.54,1.9,.59,2.68Zm2.25-.83l-.77,.31c-.16-.72-.46-1.46-.88-2.23l.76-.31c.39,.75,.69,1.49,.9,2.23Zm7.31-12.71h-2.9c-.17,.8-.34,1.51-.5,2.11h2.63v8.75h-3.78l.59,.54c-.99,1.22-1.95,2.18-2.87,2.89l-.63-.59c1.39-1.18,2.31-2.13,2.77-2.85h-1.49v-8.75h1.82c.19-.52,.37-1.22,.53-2.11h-3.14v-.81h6.99v.81Zm-1.67,4.7v-1.73h-3.64v1.73h3.64Zm0,2.61v-1.75h-3.64v1.75h3.64Zm0,2.7v-1.84h-3.64v1.84h3.64Zm1.81,3.71l-.59,.62c-.73-.84-1.62-1.63-2.68-2.37l.57-.67c1.05,.74,1.95,1.54,2.7,2.42Z"/>
        <path class="cls-1" d="M214.18,200.01h-7.35v1.8c0,.35-.11,.61-.33,.8s-.48,.28-.79,.28l-2.14,.02-.31-.9c.35,.02,.69,.03,1.04,.03,.81,0,1.29-.04,1.42-.11s.2-.21,.2-.43v-1.49h-7.38v-.84h7.38v-.72c1.14-.4,2.11-.79,2.92-1.17h-7.24v-.84h9.17v.84c-1.22,.62-2.54,1.2-3.95,1.73v.16h7.35v.84Zm-.38-2.43h-.94v-2.27h-13.01v2.27h-.91v-3.11h.94l-.07-6.49c1.18-.14,2.3-.43,3.37-.86l.41,.72c-.82,.37-1.78,.65-2.88,.84v1.28h2.9v.83h-2.88l.02,1.39h2.85v.84h-2.81l.02,1.44h11.04l.02-1.44h-2.85v-.84h2.87l.02-1.39h-2.88v-.83h2.92l.04-1.3h-3.11v-.83h4.03l-.16,6.63h1.08v3.11Zm-5.1-4.12l-.59,.58c-.16-.16-.69-.6-1.58-1.32-.9,.62-1.62,1.04-2.18,1.27l-.45-.74c.32-.13,.98-.49,1.96-1.07-.21-.19-.46-.38-.76-.58s-.52-.35-.66-.45l.54-.56c.87,.6,1.39,.97,1.56,1.1,.67-.52,1.06-.87,1.17-1.04l.68,.47c-.11,.15-.5,.52-1.19,1.12,.26,.18,.76,.59,1.51,1.22Zm-.05-3.44l-.59,.52c-.45-.43-.96-.85-1.53-1.24-.59,.4-1.28,.79-2.06,1.15l-.4-.72c.53-.23,1.13-.55,1.78-.98-.42-.37-.85-.7-1.3-.98l.6-.53c.71,.52,1.17,.86,1.37,1.03,.54-.43,.96-.83,1.26-1.2l.69,.36c-.23,.33-.66,.79-1.3,1.37,.22,.12,.71,.53,1.48,1.22Z"/>
        <path class="cls-1" d="M226.19,193.37c.5,0,.93,.17,1.29,.52s.54,.78,.54,1.3-.16,.95-.49,1.29-.75,.51-1.27,.51c-.47,0-.88-.15-1.24-.45-.36-.3-.54-.76-.54-1.38,0-.58,.18-1.02,.55-1.33s.75-.46,1.17-.46Zm1.09,1.83c0-.31-.11-.56-.32-.75-.21-.19-.47-.29-.76-.29s-.54,.1-.73,.31c-.2,.21-.29,.45-.29,.73,0,.26,.09,.5,.28,.73s.44,.34,.76,.34c.3,0,.56-.1,.76-.3s.3-.46,.3-.77Z"/>
      </g>
      <g>
        <path d="M12.35,1.43c-.23,.25-.78,.4-1.49,.44,1.51,2.1,5.25,4.41,9.01,5.56l-.02,.25c-.76,.17-1.41,.78-1.62,1.51-3.25-1.72-6.47-4.43-7.98-7.35C8.08,5.27,4.3,8.21,.19,9.97l-.19-.27C3.32,7.75,6.42,4.7,7.98,1.81H3.82l-.19-.61h6.01L10.37,.08l1.97,1.34Zm4.75,15.31s1.26,1.01,2.06,1.74c-.06,.23-.27,.32-.57,.32H1.09l-.17-.61h7.98v-4.49H3.19l-.17-.61h5.88v-3.95H3.84l-.17-.61H13.12l1.05-1.24s1.15,.88,1.91,1.51c-.06,.23-.27,.34-.57,.34h-4.87v3.95h3.57l1.07-1.3s1.22,.9,1.95,1.58c-.04,.23-.23,.34-.52,.34h-6.07v4.49h5.29l1.15-1.45Z"/>
        <path d="M30.47,12.51c-1.47,1.16-3.53,2.62-6.09,4.18-.04,.25-.19,.5-.42,.61l-.94-1.95c.67-.21,1.66-.59,2.77-1.05v-5.65h-2.21l-.17-.61h2.37V2.92h-2.31l-.17-.61h4.45l.99-1.34s1.11,.95,1.78,1.62c-.04,.23-.25,.34-.54,.34h-2.58v5.12h.57l.88-1.3s1.01,.95,1.6,1.58c-.06,.23-.25,.34-.54,.34h-2.5v4.96c.97-.42,1.95-.88,2.94-1.36l.13,.27Zm11.8-4.96c-.15,.19-.32,.23-.69,.17-.92,.86-2.33,2.02-3.49,2.9,1.24,2.46,2.94,3.91,4.81,4.98l-.06,.23c-.71,.15-1.24,.76-1.47,1.57-2.62-2.27-4.2-4.98-4.96-10.54v10.35c0,1.26-.27,2-2.41,2.2-.06-.5-.17-.9-.46-1.13-.34-.27-.82-.46-1.76-.61v-.31s2.08,.17,2.5,.17c.38,0,.48-.13,.48-.44v-4.6c-1.2,1.09-2.75,2.5-4.72,4.12,0,.25-.12,.5-.31,.63l-1.39-1.89c1.09-.48,3.72-1.93,6.42-3.49V5h-5.33l-.17-.61h5.5V.15l2.39,.27c-.04,.29-.21,.48-.74,.57v3.4h3.23l.84-1.03c-.25,.25-.65,.32-1.07,.06-.29-.82-1.22-1.81-2-2.33l.19-.19c2.86,.31,3.38,1.7,2.96,2.35l.15-.19s1.18,.92,1.91,1.6c-.06,.23-.25,.34-.54,.34h-5.61c.29,2.04,.78,3.72,1.36,5.08,.86-1.16,1.74-2.65,2.42-3.84l2.02,1.32Zm-11.76-1.05c4.49,2.25,2.86,5.44,1.34,4.07-.1-1.28-.9-2.9-1.58-3.97l.23-.11Z"/>
        <path d="M63.88,.29s1.26,.97,2.02,1.66c-.06,.21-.29,.32-.55,.32h-4.87c-.5,.82-1.11,1.72-1.62,2.37h3.53l.84-.88,1.74,1.34c-.1,.15-.38,.29-.74,.36V14.78c-.02,.13-.84,.52-1.41,.52h-.27v-.9h-6.05v.65c0,.19-.67,.57-1.41,.57h-.25V3.88l1.76,.76h1.57c.11-.65,.23-1.6,.32-2.37h-4.64c.23,.19,.44,.38,.63,.57-.06,.23-.27,.34-.57,.34h-2.71v13.31c0,1.26-.31,2.21-2.48,2.39-.04-.53-.17-.99-.44-1.26-.31-.29-.84-.48-1.83-.65v-.29s2.12,.15,2.54,.15,.5-.12,.5-.42V3.17h-3.09l-.17-.61h5.14l1.09-1.43s.59,.46,1.2,.99l-.13-.44h9.22l1.09-1.39Zm-11.82,18.88c2-.94,4.3-2.62,5.42-4.05l2.02,1.28c-.11,.17-.34,.21-.67,.08-1.43,1.18-4.22,2.42-6.57,3l-.19-.32Zm4.45-13.92v2.39h6.05v-2.39h-6.05Zm0,5.42h6.05v-2.42h-6.05v2.42Zm6.05,3.13v-2.52h-6.05v2.52h6.05Zm-2.41,1.51c6.45,.95,5.84,4.81,3.86,3.95-.73-1.28-2.62-2.88-4.05-3.76l.19-.19Z"/>
        <path d="M79.67,12.2c1.64,3.23,5.08,4.83,9.41,5.48l-.04,.25c-.71,.15-1.22,.69-1.43,1.53-4.03-1.11-6.72-3.02-8.17-6.7-.82,2.86-2.96,5.08-9.93,6.7l-.17-.38c5.77-1.89,7.68-4.07,8.36-6.89h-8.04l-.17-.61h8.33c.15-.78,.21-1.58,.25-2.46l2.6,.25c-.04,.29-.27,.52-.76,.57-.06,.57-.13,1.11-.21,1.64h5.86l1.13-1.43s1.28,.99,2.06,1.7c-.04,.23-.25,.34-.54,.34h-8.55Zm-2.94-9.26c-.1,.21-.32,.32-.8,.23-1.24,1.91-3.51,4.26-6.19,5.67l-.21-.25c2.14-1.78,4.03-4.62,4.91-6.76l2.29,1.11Zm3.28,5.38c0,.15-.74,.5-1.39,.5h-.31V.1l2.48,.25c-.04,.29-.21,.5-.78,.59v7.37Zm2.1-6c7.73,2.16,6.89,6.93,4.77,5.67-.69-1.93-3.04-4.18-4.98-5.44l.21-.23Z"/>
        <path d="M106.42,14.32v-1.45h-3.76v1.37c0,.21-.73,.59-1.34,.59h-.31V6.89h-3.55v10.52h10.83l1.18-1.53s1.34,1.05,2.14,1.81c-.06,.23-.27,.34-.57,.34h-13.44l-.61,.95-1.83-1.18c.13-.17,.38-.36,.61-.5V6.89h-3.13l-.15-.63h3.28V.57l2.44,.25c-.04,.31-.25,.5-.76,.59V6.26h3.55V.15l2.44,.25c-.06,.29-.23,.52-.78,.61V6.26h3.76V.48l2.46,.25c-.06,.29-.23,.5-.78,.59V6.26h.95l1.09-1.41s1.22,.99,1.97,1.7c-.06,.23-.25,.34-.57,.34h-3.44v6.89c0,.19-.73,.55-1.36,.55h-.32Zm0-2.06V6.89h-3.76v5.38h3.76Z"/>
        <path d="M122.95,.92c-.08,.25-.34,.44-.82,.42-.61,1.55-1.3,3-2.1,4.35l1.05,.4c-.08,.17-.29,.29-.67,.36v12.45c-.02,.13-.69,.55-1.34,.55h-.34V7.71c-.92,1.28-1.93,2.41-2.98,3.34l-.29-.19c1.87-2.56,3.8-6.72,4.87-10.79l2.62,.86Zm11.57,16.57c.69,.92,.76,1.32,.53,1.6-.59,.76-2.06,.11-3.07-.65-3.28-2.39-4.91-6.26-5.63-10.88l-4.79,.55-.23-.59,4.93-.57c-.29-2.08-.42-4.28-.42-6.59l2.56,.32c-.04,.25-.23,.5-.76,.59-.02,1.85,.06,3.72,.29,5.5l3.88-.44,.97-1.51s1.39,.82,2.23,1.41c-.02,.21-.25,.36-.5,.4l-6.49,.76c.59,3.97,2,7.45,4.85,9.34,.38,.32,.52,.32,.71-.08,.31-.52,.78-1.6,1.09-2.44l.21,.04-.38,3.25ZM129.44,.84c4.81,.67,3.74,3.88,2.06,2.96-.38-.94-1.41-2.1-2.25-2.79l.19-.17Z"/>
        <path d="M165.67,8.13c-.15,.17-.4,.29-.84,.34-.06,6.61-.27,9.66-1.09,10.56-.52,.61-1.32,.71-2.27,.71,0-.4-.06-.67-.31-.88-.31-.23-1.05-.42-1.79-.55l.02-.36c.78,.08,1.99,.19,2.41,.19,.38,0,.55-.06,.71-.23,.54-.59,.71-3.8,.78-9.66h-8.29c-.36,.55-.8,1.07-1.22,1.58l1.11,.5h1.91v-1.89l1.97,.21c-.04,.23-.19,.4-.57,.46v1.22h1.81l.71-.74,1.47,1.16c-.08,.1-.36,.25-.67,.32v2.86c-.02,.12-.69,.44-1.11,.44h-.23v-.5h-1.97v1.78l1.85-.19c-.23-.4-.48-.76-.73-1.03l.23-.13c3.88,1.32,2.5,4.05,1.18,2.96-.04-.44-.21-.92-.44-1.41-1.51,.44-3.53,.99-6.19,1.66-.11,.25-.31,.42-.53,.46l-.86-1.87c.86-.04,2.33-.17,4.09-.34v-1.91h-2.02v.34c0,.13-.59,.4-1.13,.4h-.19v-4.45c-.52,.5-1.07,.99-1.66,1.34v.02c.04,2.75-.19,5.67-1.15,7.05-.4,.63-1.15,.86-2.21,.86,0-.57-.1-.96-.36-1.15-.27-.19-.74-.42-1.34-.55v-.36s1.39,.12,2.1,.12c.32,0,.46-.06,.61-.27,.57-.82,.76-3.38,.76-5.69,0-.48,0-.94-.02-1.41-1.05,1.34-2.69,2.75-4.43,3.74l-.23-.23c1.85-1.6,3.51-3.93,4.39-6.19-.13-.8-.34-1.55-.61-2.31-.88,.97-1.89,1.85-2.98,2.6l-.23-.25c.99-.99,1.91-2.25,2.71-3.53-.5-1.01-1.2-1.93-2.08-2.86l.31-.25c.92,.67,1.7,1.41,2.29,2.16,.57-1.03,1.05-2.04,1.36-2.88l2.2,1.09c-.1,.23-.29,.34-.8,.25-.5,.84-1.16,1.76-1.95,2.71,1.15,1.99,1.55,4.28,1.62,6.76,1.01-1.22,1.93-3.02,2.48-4.72-.25,.13-.61,.25-.96,.25h-.23V.59l1.58,.69h7.92l.76-.76,1.6,1.2c-.1,.15-.38,.29-.69,.34v3.7c-.02,.15-.76,.48-1.24,.48h-.25v-.67h-8.21v.32l2.04,.71c-.08,.21-.36,.38-.78,.36-.08,.23-.21,.44-.36,.67h7.64l.9-.95,1.72,1.45Zm-11.17-6.24v3.04h1.95V1.89h-1.95Zm.29,9.05v2.31h2.02v-2.31h-2.02Zm4.74-6V1.89h-1.8v3.04h1.8Zm-1.32,6v2.31h1.97v-2.31h-1.97Zm2.6-9.05v3.04h1.89V1.89h-1.89Z"/>
        <path d="M186.56,15.94s1.36,1.03,2.2,1.78c-.06,.23-.27,.34-.57,.34h-18.75l-.19-.63h10.62c1.18-3.23,2.41-7.66,3.09-10.88l2.69,.74c-.08,.27-.34,.46-.82,.46-.9,2.69-2.6,6.66-4.41,9.68h4.93l1.2-1.49Zm-16.25-10.6l-.17-.61h14.49l1.2-1.47s1.34,1.01,2.16,1.74c-.04,.23-.25,.34-.57,.34h-17.11Zm3,1.43c5.31,5.77,3.97,11.13,2,9.18-.02-2.83-1.24-6.49-2.31-9.09l.31-.08ZM176.69,.06c5.12,1.8,3.67,5.35,1.93,4.07-.27-1.3-1.3-2.9-2.16-3.95l.23-.12Z"/>
        <path d="M209.66,4.16c-.15,.17-.46,.36-.9,.46v14.13c-.04,.17-.88,.61-1.49,.61h-.25v-1.45h-9.57v.84c0,.21-.65,.65-1.43,.65h-.29V2.83l1.87,.84h2.73c.34-1.09,.61-2.54,.73-3.59l2.77,.48c-.06,.25-.29,.46-.73,.48-.5,.78-1.26,1.79-2.04,2.62h5.73l.92-1.07,1.95,1.55Zm-12.22,.11v3.86h9.57v-3.86h-9.57Zm0,4.45v3.93h9.57v-3.93h-9.57Zm9.57,8.57v-4.01h-9.57v4.01h9.57Z"/>
        <path d="M234.06,5.44c-.17,.21-.59,.42-1.11,.52v12.75c-.02,.17-.84,.57-1.45,.57h-.25v-1.62h-12.14v1.16c0,.21-.67,.61-1.39,.61h-.29V4.09l1.83,.82h4.98V.25l2.48,.27c-.06,.29-.23,.5-.76,.59v3.8h5.04l.97-1.11,2.1,1.64Zm-14.95,.08v5.27h5.12V5.52h-5.12Zm0,11.53h5.12v-5.63h-5.12v5.63Zm6.84-11.53v5.27h5.29V5.52h-5.29Zm5.29,11.53v-5.63h-5.29v5.63h5.29Z"/>
        <path d="M265.16,17.57c.38,.92,.46,1.53,.15,1.76-.71,.46-1.53-.17-2.1-1.03-1.93-2.6-1.93-9.76-1.87-16h-11.4V6.61c0,3.82-.21,9.09-3.59,12.81l-.31-.19c2.08-3.8,2.27-8.44,2.27-12.6V.94l1.93,.76h10.88l.97-1.05,1.91,1.64c-.15,.15-.44,.32-.92,.4-.29,4.51-.17,11.88,1.16,13.71,.17,.25,.25,.21,.36-.08,.25-.78,.46-1.55,.65-2.35l.25,.06-.32,3.55Zm-6.78-3.84c4.75,2.65,3.21,6.09,1.72,4.68-.04-.61-.25-1.26-.52-1.93-2.12,.46-4.91,1.01-8.69,1.66-.12,.25-.36,.4-.57,.44l-.9-2.06c1.13-.02,3.09-.11,5.44-.25v-3.53h-2.29v.88c0,.13-.61,.46-1.18,.46h-.21V7.1l1.49,.65h2.18v-2.73h-4.12l-.17-.61h7.73l.88-1.22s1.03,.86,1.62,1.49c-.06,.23-.25,.34-.52,.34h-3.91v2.73h2.06l.71-.73,1.51,1.15c-.06,.15-.34,.29-.65,.34v4.64c-.02,.15-.71,.44-1.18,.44h-.23v-.84h-2.23v3.44c.99-.04,1.97-.11,3-.19-.34-.78-.8-1.51-1.24-2.12l.25-.15Zm-3.53-1.6v-3.78h-2.29v3.78h2.29Zm1.51-3.78v3.78h2.23v-3.78h-2.23Z"/>
        <path d="M273.86,7.37c4.24,1.64,2.88,4.43,1.49,3.3-.19-.88-.86-2-1.49-2.81v11.04c0,.19-.67,.57-1.24,.57h-.34V10.06c-.78,1.72-1.76,3.28-3.04,4.66l-.27-.27c1.53-2.44,2.48-5.65,3-8.8h-2.67l-.15-.63h3.13V0l2.35,.25c-.06,.32-.21,.5-.78,.59V5.02h.78l.97-1.28s1.07,.9,1.72,1.57c-.04,.23-.25,.34-.55,.34h-2.92v1.72Zm13.63-4.09c-.15,.19-.38,.25-.9,.27-.8,1.6-1.83,3.07-3.13,4.35,1.47,.92,3.23,1.66,5.35,2.18l-.04,.21c-.67,.21-1.13,.65-1.28,1.45-.55-.21-1.09-.44-1.6-.69l1.34,1.03c-.15,.19-.38,.29-.8,.38v6.36c0,.1-.61,.42-1.39,.42h-.27v-1.26h-5.12v.99c0,.1-.53,.44-1.32,.44h-.27v-7.98c-.84,.36-1.74,.67-2.67,.94l-.17-.31c2.52-1.03,4.68-2.44,6.38-4.14-.88-.96-1.58-2.02-2.2-3.19-.84,1.28-1.85,2.31-2.94,3.13l-.29-.21c1.45-1.76,2.79-4.58,3.53-7.56l2.37,.82c-.11,.23-.34,.42-.82,.4-.19,.46-.42,.92-.63,1.39h4.18l1.03-.94,1.66,1.53Zm-2.04,7.54c-1.16-.57-2.14-1.26-3-2.06-1.11,.95-2.39,1.76-3.86,2.42l1.3,.55h4.83l.74-.9Zm-.67,6.53v-5.02h-5.12v5.02h5.12Zm-4.47-14.03c-.19,.34-.38,.67-.59,.95,.69,1.07,1.55,2.04,2.62,2.86,1.03-1.16,1.83-2.46,2.44-3.8h-4.47Z"/>
        <path d="M308.76,3.11c-.17,.17-.5,.23-1.03,.25-3.21,3.95-7.92,6.45-15.01,7.71l-.15-.34c5.84-1.64,10.21-3.97,13.1-7.69h-5.38c-.63,.44-1.3,.86-2.02,1.28,3.93,.46,3.44,3.15,1.89,2.56-.46-.74-1.58-1.62-2.58-2.18-1.36,.74-2.88,1.39-4.43,1.85l-.17-.27c3.38-1.58,6.57-4.22,8.06-6.28l2.67,.71c-.08,.23-.38,.38-.99,.36-.46,.44-1.01,.9-1.6,1.36h4.81l.99-.92,1.83,1.6Zm2.79,7.45c-.19,.19-.5,.25-1.03,.27-3.49,5.1-8.67,7.56-17.17,8.57l-.13-.36c7.18-1.55,12.11-3.8,15.24-8.55h-5.65c-.8,.55-1.66,1.07-2.6,1.58,4.58,.73,3.91,3.97,2.16,3.15-.44-1.03-1.72-2.12-2.88-2.79-1.58,.78-3.3,1.47-5.1,1.95l-.15-.29c4.2-1.68,7.94-4.54,9.76-6.93l2.75,.69c-.1,.23-.4,.38-1.03,.36-.61,.57-1.3,1.13-2.08,1.7h5.02l1.01-.99,1.87,1.64Z"/>
        <path d="M320,8.25c4.14,1.83,2.73,4.54,1.39,3.42-.17-.94-.8-2.12-1.39-2.98v10.16c0,.21-.67,.55-1.28,.55h-.34V10.33c-.73,1.55-1.68,2.98-2.86,4.24l-.29-.25c1.51-2.39,2.44-5.52,2.94-8.63h-2.67l-.17-.61h3.04V.1l2.37,.25c-.06,.32-.21,.5-.76,.59V5.08h.53l.99-1.3s1.07,.92,1.72,1.58c-.06,.23-.27,.34-.55,.34h-2.69v2.56Zm7.31,5.33c-.15,.19-.36,.25-.82,.27-.84,2.12-2.62,3.97-5.31,5.04l-.19-.27c1.87-1.18,3.15-2.98,3.78-4.89h-2.69l-.17-.61h2.81l.94-.9,1.64,1.37Zm-4.62-10.56h3.67c-.1-.04-.23-.08-.34-.17-.17-.88-.92-1.95-1.57-2.58l.21-.15c3.17,.63,3.11,2.56,2.25,2.9h2.25c.38-.9,.84-2.1,1.11-2.96l2.35,.59c-.08,.25-.32,.44-.78,.42-.55,.59-1.32,1.32-2.04,1.95h1.93l.99-1.22s1.13,.84,1.83,1.49c-.06,.23-.23,.34-.53,.34h-4.89v1.58h1.97l.99-1.2s1.11,.84,1.83,1.49c-.06,.23-.27,.34-.57,.34h-4.22v1.7h2.77l1.03-1.3s1.18,.92,1.89,1.58c-.06,.23-.27,.34-.55,.34h-11.9l-.17-.61h5.29v-1.7h-3.91l-.17-.63h4.07v-1.58h-4.64l-.17-.61Zm12.05,9.03c-.15,.21-.32,.29-.8,.15-.86,.53-2.23,1.37-3.38,2.04,1.2,1.39,2.81,2.44,4.54,2.94l-.02,.21c-.63,.17-1.13,.69-1.32,1.53-2.16-1.15-3.65-3.06-4.58-5.73v4.22c0,1.13-.25,1.85-2.33,2.04-.06-.46-.15-.84-.46-1.07-.27-.25-.73-.44-1.68-.57v-.34s2.02,.15,2.46,.15c.36,0,.44-.13,.44-.42v-5.59h-3.57l-.11-.63h3.53l.74-.82,1.91,1.41c-.15,.17-.48,.36-.92,.44v.02c.29,.67,.67,1.32,1.13,1.89,.84-.99,1.95-2.39,2.48-3.19l1.95,1.32Zm-9.07-3.44c5.52-.42,5.35,2.58,3.88,2.23-.61-.59-2.1-1.45-3.95-1.91l.06-.31Z"/>
        <path d="M338.35,11.21c2.04-2.6,4.18-6.84,5.4-11.15l2.6,.88c-.08,.25-.36,.44-.84,.4-.63,1.6-1.36,3.09-2.2,4.45l.9,.34c-.08,.19-.27,.34-.65,.38v12.35c-.04,.15-.74,.55-1.39,.55h-.31V7.98c-1.01,1.32-2.1,2.5-3.23,3.44l-.27-.21Zm18.85,5.82c.61,.23,.8,.42,.8,.76,0,.82-.97,1.07-5.1,1.07h-2.77c-2.1,0-2.81-.44-2.81-2.02V.5l2.37,.25c-.02,.27-.21,.52-.76,.59V7.52h5.52l1.03-1.34s1.15,.95,1.87,1.64c-.06,.23-.25,.34-.57,.34h-7.85v8.29c0,.63,.25,.86,1.36,.86h2.69c1.18,0,2.08,0,2.48-.06,.29-.02,.44-.08,.57-.29,.21-.34,.53-1.47,.84-2.83h.27l.06,2.92Z"/>
      </g>
    </g>
  </g>
</svg>