<?xml version="1.0" encoding="UTF-8"?>
<svg id="_圖層_2" data-name="圖層 2" xmlns="http://www.w3.org/2000/svg" viewBox="0 0 517.83 300.83">
  <defs>
    <style>
      .cls-1 {
        fill: #fff;
      }

      .cls-2 {
        fill: #c1a257;
      }
    </style>
  </defs>
  <g id="_圖層_7" data-name="圖層 7">
    <g>
      <g>
        <circle class="cls-2" cx="66.92" cy="65.92" r="65.92"/>
        <g>
          <path class="cls-1" d="M49.8,51.44l-.7,.86c-.99-1.14-2.08-2.09-3.28-2.87l.66-.86c1.02,.67,2.12,1.63,3.32,2.87Zm-.23,3.11c-.83,2.78-1.79,5.05-2.87,6.79l-.88-.63c1.08-1.79,1.99-3.99,2.75-6.61l1,.45Zm.55-8.43l-.69,.82c-.89-.9-1.98-1.78-3.28-2.64l.57-.84c1.4,.81,2.54,1.7,3.4,2.66Zm12.06,13.34c0,.67-.15,1.15-.44,1.42-.29,.28-.68,.43-1.15,.47-.47,.04-1.47,.04-3,.03l-.41-1.04c.39,.04,.96,.06,1.74,.06,.71,0,1.17,0,1.38-.03s.4-.09,.56-.23,.24-.29,.24-.46v-1.45h-8.82c-.3,1.17-.91,2.24-1.84,3.23l-.82-.73c1.33-1.31,1.99-3.18,1.99-5.6v-2.85h10.56v7.18Zm1.39-8.45h-13.38v-.96h6.11v-1.62h-5.07v-.94h5.07v-1.44h-5.54v-1h5.54v-1.5h1.04v1.5h5.99v1h-5.99v1.46h5.44v.92h-5.44v1.62h6.22v.96Zm-2.48,6.24v-1.56h-8.45c0,.33-.03,.85-.1,1.56h8.55Zm0-2.52v-1.46h-8.41v1.46h8.41Z"/>
          <path class="cls-1" d="M72.32,49.8c1.16,1.69,1.74,3.33,1.74,4.93,0,.45-.21,.91-.64,1.38-.43,.47-1.23,.67-2.4,.62l-.45-1c.91,.05,1.54-.02,1.91-.19,.37-.17,.55-.54,.55-1.1,0-1.48-.62-2.97-1.86-4.45,.65-1.83,1.17-3.48,1.58-4.93h-2.77v16.3h-1.04v-17.32h4.92v.98l-1.55,4.78Zm5.66,5.73c-1.24,1.81-2.62,3.34-4.14,4.59l-.86-.73c1.46-1.13,2.81-2.61,4.06-4.46l.94,.6Zm8.2-6.69l-.63,.92c-.69-.38-1.15-.65-1.4-.8v.98h-3.87v2.5h5.34v1.03h-5.34v6.42c0,.33-.13,.67-.4,1.01-.27,.34-.9,.51-1.91,.51-.31,0-.63-.01-.96-.04l-.43-1.02c.34,.03,.69,.05,1.05,.05,.77,0,1.23-.06,1.37-.18,.14-.12,.21-.29,.21-.49v-6.27h-4.58v-1.03h4.58v-2.5h-3.67v-1.02l-1.27,.84-.82-.82c2.52-1.45,4.58-3.31,6.2-5.6l.96,.51c-.09,.16-.17,.28-.22,.35,1.33,1.83,3.25,3.38,5.76,4.64Zm-2.15,.04c-1.64-1.07-3.08-2.33-4.31-3.79-1.15,1.37-2.5,2.63-4.05,3.79h8.36Zm2.07,10.62l-.92,.65c-.86-1.52-1.97-3.02-3.34-4.5l.84-.68c1.32,1.37,2.46,2.88,3.42,4.52Z"/>
          <path class="cls-1" d="M38.65,75.52l-.7,.82c-.79-.84-1.9-1.71-3.34-2.62l.7-.8c1.25,.69,2.36,1.56,3.34,2.6Zm.43,2.97c-1.17,2.84-2.37,5.11-3.63,6.79l-.82-.71c1.18-1.65,2.36-3.88,3.55-6.69l.9,.61Zm.18-8.46l-.67,.84c-.79-.88-1.88-1.77-3.26-2.67l.76-.84c1.3,.89,2.35,1.78,3.17,2.67Zm13.21,10.23h-5.8v3.5c0,.38-.1,.7-.29,.95-.2,.26-.41,.42-.63,.5-.22,.08-.74,.12-1.54,.12-.54,0-1.08-.02-1.61-.06l-.35-1.06c1.86,.03,2.89,.02,3.08-.03,.19-.05,.28-.19,.28-.42v-3.5h-5.89v-1.03h5.89v-1.31c1.86-.95,3.05-1.59,3.57-1.94h-8.86v-1.05h10.92v1c-1.6,1.03-3.12,1.9-4.55,2.61v.69h5.8v1.03Zm-1.02-11.79c-2.68,.75-6.44,1.3-11.28,1.66l-.4-1.05c4.12-.21,7.84-.74,11.19-1.59l.49,.98Zm-8.67,5.38l-.99,.38c-.3-.86-.85-1.9-1.66-3.13l.97-.33c.69,.91,1.25,1.93,1.68,3.08Zm3.93-.23l-.96,.33c-.36-1.11-.82-2.16-1.38-3.14l1.03-.32c.58,1.03,1.01,2.07,1.31,3.13Zm4.98-3.22c-.69,1.5-1.46,2.77-2.31,3.83l-.98-.53c.85-.94,1.63-2.16,2.33-3.66l.96,.36Z"/>
          <path class="cls-1" d="M60.94,78.56c-.91,2.45-1.95,4.67-3.13,6.64l-.84-.72c1.12-1.82,2.15-3.94,3.07-6.37l.9,.45Zm-.06-3.18l-.71,.78c-.82-.98-1.86-1.97-3.14-2.99l.74-.74c1.29,1,2.32,1.98,3.11,2.95Zm.21-5.4l-.8,.76c-.77-.92-1.69-1.77-2.77-2.56l.7-.71c1.17,.81,2.13,1.64,2.87,2.51Zm6.48,1.25h-3.58c0,.55-.04,1.68-.11,3.4h3.12c-.04,2.3-.13,4.39-.26,6.27-.13,1.88-.26,2.97-.37,3.27s-.32,.56-.61,.79c-.3,.23-.69,.35-1.19,.35-.42,0-.71,0-.88-.02l-.35-1.04c.19,.02,.4,.03,.65,.03,.57,0,.94-.06,1.11-.19,.17-.13,.29-.29,.36-.48,.07-.2,.16-1.21,.28-3.04s.19-3.46,.21-4.88h-2.11c-.23,3.85-1.34,7.08-3.34,9.7l-.88-.64c1.04-1.3,1.87-2.88,2.48-4.74s.89-4.79,.85-8.76h-1.35v-1h2.76c-.33-.93-.71-1.77-1.14-2.52l.94-.39c.43,.75,.85,1.71,1.27,2.91h2.13v1Zm7.22,.09h-5.38c-.45,.86-.98,1.69-1.59,2.49l-.91-.55c1.53-2.04,2.53-4.03,2.99-5.95l1.07,.31c-.35,1.07-.7,1.96-1.05,2.7h4.87v1.01Zm.04,8.38h-3.05v3.83c0,.73-.19,1.21-.57,1.44-.38,.23-.93,.34-1.65,.34h-.98l-.37-1.06c.71,.03,1.38,.04,2.01,.04,.12,0,.24-.07,.36-.21,.12-.14,.18-.27,.18-.39v-3.98h-2.99v-1h2.99v-1.68c.75-.75,1.36-1.43,1.85-2.03h-4.04v-1.02h5.32v1.02c-.95,1.1-1.65,1.9-2.13,2.42v1.29h3.05v1Z"/>
          <path class="cls-1" d="M87.99,70.15h-2.48v1.04h-1.08v-1.04h-4.87v-.98h4.87v-1.7h1.08v1.7h2.48v.98Zm8.47,15.15h-1.02v-.9h-13.81v.9h-1.04v-13.25h15.87v13.25Zm-1.02-1.92v-10.29h-13.81v10.29h13.81Zm-.95-2.19l-.61,.84c-1.15-.77-2.76-1.58-4.85-2.44v3.11h-.96v-3.87c-1.21,1.25-2.86,2.41-4.96,3.48l-.62-.88c2.23-1.11,3.96-2.32,5.17-3.62h-5.09v-.98h5.5v-1.44c-1.33,.09-2.85,.13-4.55,.1l-.39-.96c4.54-.03,7.88-.27,10-.72l.53,.93c-1.49,.26-3.03,.44-4.62,.55v1.54h5.3v.98h-5.3v.69c2.06,.82,3.89,1.71,5.46,2.69Zm2.89-11.05h-4.86v1.08h-1.07v-1.08h-2.54v-.98h2.54v-1.7h1.07v1.7h4.86v.98Z"/>
        </g>
      </g>
      <g>
        <circle class="cls-2" cx="259.42" cy="65.92" r="65.92"/>
        <g>
          <path class="cls-1" d="M242.3,51.44l-.7,.86c-.99-1.14-2.08-2.09-3.28-2.87l.66-.86c1.02,.67,2.12,1.63,3.32,2.87Zm-.23,3.11c-.83,2.78-1.79,5.05-2.87,6.79l-.88-.63c1.08-1.79,1.99-3.99,2.75-6.61l1,.45Zm.55-8.43l-.69,.82c-.89-.9-1.98-1.78-3.28-2.64l.57-.84c1.4,.81,2.54,1.7,3.4,2.66Zm12.06,13.34c0,.67-.15,1.15-.44,1.42-.29,.28-.68,.43-1.15,.47-.47,.04-1.47,.04-3,.03l-.41-1.04c.39,.04,.96,.06,1.74,.06,.71,0,1.17,0,1.38-.03s.4-.09,.56-.23,.24-.29,.24-.46v-1.45h-8.82c-.3,1.17-.91,2.24-1.84,3.23l-.82-.73c1.33-1.31,1.99-3.18,1.99-5.6v-2.85h10.56v7.18Zm1.39-8.45h-13.38v-.96h6.11v-1.62h-5.07v-.94h5.07v-1.44h-5.54v-1h5.54v-1.5h1.04v1.5h5.99v1h-5.99v1.46h5.44v.92h-5.44v1.62h6.22v.96Zm-2.48,6.24v-1.56h-8.45c0,.33-.03,.85-.1,1.56h8.55Zm0-2.52v-1.46h-8.41v1.46h8.41Z"/>
          <path class="cls-1" d="M264.82,49.8c1.16,1.69,1.74,3.33,1.74,4.93,0,.45-.21,.91-.64,1.38-.43,.47-1.23,.67-2.4,.62l-.45-1c.91,.05,1.54-.02,1.91-.19,.37-.17,.55-.54,.55-1.1,0-1.48-.62-2.97-1.86-4.45,.65-1.83,1.17-3.48,1.58-4.93h-2.77v16.3h-1.04v-17.32h4.92v.98l-1.55,4.78Zm5.66,5.73c-1.24,1.81-2.62,3.34-4.14,4.59l-.86-.73c1.46-1.13,2.81-2.61,4.06-4.46l.94,.6Zm8.2-6.69l-.63,.92c-.69-.38-1.15-.65-1.4-.8v.98h-3.87v2.5h5.34v1.03h-5.34v6.42c0,.33-.13,.67-.4,1.01-.27,.34-.9,.51-1.91,.51-.31,0-.63-.01-.96-.04l-.43-1.02c.34,.03,.69,.05,1.05,.05,.77,0,1.23-.06,1.37-.18,.14-.12,.21-.29,.21-.49v-6.27h-4.58v-1.03h4.58v-2.5h-3.67v-1.02l-1.27,.84-.82-.82c2.52-1.45,4.58-3.31,6.2-5.6l.96,.51c-.09,.16-.17,.28-.22,.35,1.33,1.83,3.25,3.38,5.76,4.64Zm-2.15,.04c-1.64-1.07-3.08-2.33-4.31-3.79-1.15,1.37-2.5,2.63-4.05,3.79h8.36Zm2.07,10.62l-.92,.65c-.86-1.52-1.97-3.02-3.34-4.5l.84-.68c1.32,1.37,2.46,2.88,3.42,4.52Z"/>
          <path class="cls-1" d="M219.89,75.52l-.7,.82c-.79-.84-1.9-1.71-3.34-2.62l.7-.8c1.25,.69,2.36,1.56,3.34,2.6Zm.43,2.97c-1.17,2.84-2.37,5.11-3.63,6.79l-.82-.71c1.18-1.65,2.36-3.88,3.55-6.69l.9,.61Zm.18-8.46l-.67,.84c-.79-.88-1.88-1.77-3.26-2.67l.76-.84c1.3,.89,2.35,1.78,3.17,2.67Zm13.21,10.23h-5.8v3.5c0,.38-.1,.7-.29,.95-.2,.26-.41,.42-.63,.5-.22,.08-.74,.12-1.54,.12-.54,0-1.08-.02-1.61-.06l-.35-1.06c1.86,.03,2.89,.02,3.08-.03,.19-.05,.28-.19,.28-.42v-3.5h-5.89v-1.03h5.89v-1.31c1.86-.95,3.05-1.59,3.57-1.94h-8.86v-1.05h10.92v1c-1.6,1.03-3.12,1.9-4.55,2.61v.69h5.8v1.03Zm-1.02-11.79c-2.68,.75-6.44,1.3-11.28,1.66l-.4-1.05c4.12-.21,7.84-.74,11.19-1.59l.49,.98Zm-8.67,5.38l-.99,.38c-.3-.86-.85-1.9-1.66-3.13l.97-.33c.69,.91,1.25,1.93,1.68,3.08Zm3.93-.23l-.96,.33c-.36-1.11-.82-2.16-1.38-3.14l1.03-.32c.58,1.03,1.01,2.07,1.31,3.13Zm4.98-3.22c-.69,1.5-1.46,2.77-2.31,3.83l-.98-.53c.85-.94,1.63-2.16,2.33-3.66l.96,.36Z"/>
          <path class="cls-1" d="M242.19,78.56c-.91,2.45-1.95,4.67-3.13,6.64l-.84-.72c1.12-1.82,2.15-3.94,3.07-6.37l.9,.45Zm-.06-3.18l-.71,.78c-.82-.98-1.86-1.97-3.14-2.99l.74-.74c1.29,1,2.32,1.98,3.11,2.95Zm.21-5.4l-.8,.76c-.77-.92-1.69-1.77-2.77-2.56l.7-.71c1.17,.81,2.13,1.64,2.87,2.51Zm6.48,1.25h-3.58c0,.55-.04,1.68-.11,3.4h3.12c-.04,2.3-.13,4.39-.26,6.27-.13,1.88-.26,2.97-.37,3.27s-.32,.56-.61,.79c-.3,.23-.69,.35-1.19,.35-.42,0-.71,0-.88-.02l-.35-1.04c.19,.02,.4,.03,.65,.03,.57,0,.94-.06,1.11-.19,.17-.13,.29-.29,.36-.48,.07-.2,.16-1.21,.28-3.04s.19-3.46,.21-4.88h-2.11c-.23,3.85-1.34,7.08-3.34,9.7l-.88-.64c1.04-1.3,1.87-2.88,2.48-4.74s.89-4.79,.85-8.76h-1.35v-1h2.76c-.33-.93-.71-1.77-1.14-2.52l.94-.39c.43,.75,.85,1.71,1.27,2.91h2.13v1Zm7.22,.09h-5.38c-.45,.86-.98,1.69-1.59,2.49l-.91-.55c1.53-2.04,2.53-4.03,2.99-5.95l1.07,.31c-.35,1.07-.7,1.96-1.05,2.7h4.87v1.01Zm.04,8.38h-3.05v3.83c0,.73-.19,1.21-.57,1.44-.38,.23-.93,.34-1.65,.34h-.98l-.37-1.06c.71,.03,1.38,.04,2.01,.04,.12,0,.24-.07,.36-.21,.12-.14,.18-.27,.18-.39v-3.98h-2.99v-1h2.99v-1.68c.75-.75,1.36-1.43,1.85-2.03h-4.04v-1.02h5.32v1.02c-.95,1.1-1.65,1.9-2.13,2.42v1.29h3.05v1Z"/>
          <path class="cls-1" d="M278.61,70.23h-13.46v5.85c0,4.11-1.03,7.23-3.09,9.37l-.82-.84c1.8-1.91,2.73-4.28,2.79-7.1-.47,.37-1.44,1.04-2.93,2.01l-.47-.9c1.36-.84,2.51-1.64,3.44-2.4v-7.01h6.64c-.13-.49-.38-1.03-.77-1.64l1.04-.33c.43,.88,.71,1.54,.84,1.97h6.79v1.02Zm-15.44,4.12l-.99,.43c-.21-1.07-.66-2.31-1.35-3.73l.9-.47c.65,1.34,1.12,2.6,1.44,3.77Zm15.21-.76h-5.66c0,.89-.03,1.68-.1,2.37h5.11v7.92c0,.33-.1,.62-.3,.87-.2,.25-.45,.4-.75,.45-.3,.05-.81,.08-1.54,.08-.35,0-.7-.01-1.06-.03l-.3-1.06c.47,.03,.9,.05,1.31,.05,.77,0,1.23-.05,1.38-.14,.15-.1,.22-.26,.22-.49v-6.64h-4.18c-.08,.58-.18,1.04-.31,1.39,1.58,1.09,2.87,2.16,3.85,3.2l-.72,.79c-1.13-1.19-2.28-2.2-3.46-3.03-.73,1.46-1.71,2.6-2.93,3.44l-.63-.88c1.8-1.28,2.84-2.91,3.13-4.9h-3.68v8.3h-1.07v-9.31h4.84c.09-.71,.13-1.5,.11-2.37h-5.54v-1.07h12.27v1.07Z"/>
          <path class="cls-1" d="M301.19,74.15h-17.9v-.94h8.45v-1.37h-7.01v-.92h7.01v-1.46h-7.87v-.96h7.87v-1.13h1.04v1.13h7.88v.96h-7.88v1.46h7.43v.92h-7.43v1.37h8.41v.94Zm-.06,5.46h-2.27c-.09,.91-.2,1.71-.33,2.38h2.17v.94h-2.29c-.17,.85-.42,1.46-.72,1.82s-.92,.54-1.83,.54c-.51,0-.98-.02-1.42-.05l-.32-.98c1.08,.04,1.72,.06,1.9,.06,.77,0,1.21-.46,1.31-1.39h-5.85c-.63,.97-1.42,1.79-2.35,2.44l-.92-.7c.76-.49,1.42-1.07,2-1.74h-5.17c.24-1.53,.4-2.64,.47-3.32h-2.21v-.96h2.36c.18-1.37,.3-2.41,.37-3.11h13.04c.02,.9-.03,1.93-.14,3.11h2.21v.96Zm-9.57,0h-4.95l-.31,2.38h4.56c.38-.89,.61-1.68,.7-2.38Zm.2-3.11h-4.78c-.06,.75-.14,1.47-.25,2.15h4.89c.07-.58,.11-1.3,.14-2.15Zm6.01,3.11h-5.11c-.09,.72-.3,1.51-.65,2.38h5.45c.17-1.08,.27-1.87,.31-2.38Zm.21-3.11h-5.11c-.03,.76-.08,1.48-.15,2.15h5.15c.07-.71,.11-1.42,.11-2.15Z"/>
        </g>
      </g>
      <g>
        <circle class="cls-2" cx="451.92" cy="65.92" r="65.92"/>
        <g>
          <path class="cls-1" d="M434.8,51.44l-.7,.86c-.99-1.14-2.08-2.09-3.28-2.87l.66-.86c1.02,.67,2.12,1.63,3.32,2.87Zm-.23,3.11c-.83,2.78-1.79,5.05-2.87,6.79l-.88-.63c1.08-1.79,1.99-3.99,2.75-6.61l1,.45Zm.55-8.43l-.69,.82c-.89-.9-1.98-1.78-3.28-2.64l.57-.84c1.4,.81,2.54,1.7,3.4,2.66Zm12.06,13.34c0,.67-.15,1.15-.44,1.42-.29,.28-.68,.43-1.15,.47-.47,.04-1.47,.04-3,.03l-.41-1.04c.39,.04,.96,.06,1.74,.06,.71,0,1.17,0,1.38-.03s.4-.09,.56-.23,.24-.29,.24-.46v-1.45h-8.82c-.3,1.17-.91,2.24-1.84,3.23l-.82-.73c1.33-1.31,1.99-3.18,1.99-5.6v-2.85h10.56v7.18Zm1.39-8.45h-13.38v-.96h6.11v-1.62h-5.07v-.94h5.07v-1.44h-5.54v-1h5.54v-1.5h1.04v1.5h5.99v1h-5.99v1.46h5.44v.92h-5.44v1.62h6.22v.96Zm-2.48,6.24v-1.56h-8.45c0,.33-.03,.85-.1,1.56h8.55Zm0-2.52v-1.46h-8.41v1.46h8.41Z"/>
          <path class="cls-1" d="M457.32,49.8c1.16,1.69,1.74,3.33,1.74,4.93,0,.45-.21,.91-.64,1.38-.43,.47-1.23,.67-2.4,.62l-.45-1c.91,.05,1.54-.02,1.91-.19,.37-.17,.55-.54,.55-1.1,0-1.48-.62-2.97-1.86-4.45,.65-1.83,1.17-3.48,1.58-4.93h-2.77v16.3h-1.04v-17.32h4.92v.98l-1.55,4.78Zm5.66,5.73c-1.24,1.81-2.62,3.34-4.14,4.59l-.86-.73c1.46-1.13,2.81-2.61,4.06-4.46l.94,.6Zm8.2-6.69l-.63,.92c-.69-.38-1.15-.65-1.4-.8v.98h-3.87v2.5h5.34v1.03h-5.34v6.42c0,.33-.13,.67-.4,1.01-.27,.34-.9,.51-1.91,.51-.31,0-.63-.01-.96-.04l-.43-1.02c.34,.03,.69,.05,1.05,.05,.77,0,1.23-.06,1.37-.18,.14-.12,.21-.29,.21-.49v-6.27h-4.58v-1.03h4.58v-2.5h-3.67v-1.02l-1.27,.84-.82-.82c2.52-1.45,4.58-3.31,6.2-5.6l.96,.51c-.09,.16-.17,.28-.22,.35,1.33,1.83,3.25,3.38,5.76,4.64Zm-2.15,.04c-1.64-1.07-3.08-2.33-4.31-3.79-1.15,1.37-2.5,2.63-4.05,3.79h8.36Zm2.07,10.62l-.92,.65c-.86-1.52-1.97-3.02-3.34-4.5l.84-.68c1.32,1.37,2.46,2.88,3.42,4.52Z"/>
          <path class="cls-1" d="M437.49,83.97l-.37,1.01c-1.07,.01-2.17,.02-3.29,.02-2.08,0-3.83-.02-5.27-.06s-2.61-.25-3.53-.6-1.75-.89-2.5-1.59c-.65,.96-1.42,1.83-2.33,2.63l-.8-.72c1.98-1.76,3.31-3.97,3.96-6.63h-3.46v-.98c1.46-1.78,2.53-3.2,3.2-4.27h-3.53v-.98h4.85v.98c-1.27,1.76-2.33,3.18-3.2,4.25h3.24v1c-.36,1.45-.84,2.73-1.44,3.83,.63,.66,1.42,1.17,2.37,1.53s2.23,.55,3.84,.58c1.61,.03,3.33,.04,5.18,.04,1.09,0,2.11-.01,3.06-.03Zm-13.72-13.6l-.8,.68c-.67-.97-1.62-1.97-2.88-3.01l.75-.7c1.41,1.17,2.38,2.18,2.93,3.03Zm12.67,11.01c0,.54-.15,.91-.46,1.1s-.85,.29-1.63,.29c-.27,0-.62-.01-1.07-.03l-.34-1.06c.29,.04,.67,.06,1.12,.06,.66,0,1.05-.04,1.17-.1,.12-.07,.18-.21,.18-.41v-6.3h-8.55v7.81h-1.02v-8.77h1.33v-6.05h7.94v6.05h1.33v7.4Zm-2.4-10.66v-1.82h-5.8v5.07h2.21v-3.26h3.6Zm-.45,10.01h-4.88v-4.06h4.88v4.06Zm-.98-.95v-2.15h-2.93v2.15h2.93Zm1.43-5.8v-2.23h-2.56v2.23h2.56Z"/>
          <path class="cls-1" d="M452.43,70.27h-7.65c-.52,.76-1.2,1.55-2.05,2.38l-.8-.74c1.58-1.49,2.66-3.02,3.22-4.58l.96,.37c-.15,.58-.39,1.09-.72,1.54h7.04v1.04Zm.1,7.32h-1.58c-.07,1.53-.13,2.73-.2,3.61h1.33v1.04h-1.42c-.06,1.26-.29,2.08-.71,2.48-.41,.39-1.19,.59-2.34,.59-.37,0-.75-.01-1.14-.04l-.39-1.06c.87,.02,1.49,.03,1.87,.03,.62,0,1.03-.12,1.24-.35s.34-.78,.38-1.65h-6.59c.26-2.11,.44-3.66,.54-4.64h-1.46v-1.04h1.56c.13-1.01,.27-2.5,.43-4.46h7.06c-.04,2.04-.08,3.53-.13,4.46h1.54v1.04Zm-2.64,0h-5.26c-.14,1.53-.27,2.73-.39,3.61h5.44l.21-3.61Zm.1-4.47h-4.91c-.07,1-.19,2.15-.34,3.44h5.19c.04-1.8,.06-2.94,.06-3.44Zm-1.35,6.95l-.8,.72c-.7-.82-1.39-1.5-2.07-2.03l.76-.74c.73,.56,1.43,1.24,2.11,2.05Zm.28-4.71l-.73,.78c-.77-.78-1.53-1.42-2.3-1.93l.74-.77c1,.69,1.77,1.33,2.29,1.92Zm10.97,9.29l-.74,.78c-1.39-.9-2.54-1.95-3.46-3.16-1.03,1.21-2.24,2.27-3.64,3.2l-.66-.84c1.69-1.15,2.93-2.23,3.71-3.26-.81-1.44-1.38-3.25-1.72-5.42l1-.47c.31,2.16,.76,3.8,1.37,4.91,1.09-1.73,1.73-4.64,1.91-8.72h-3.2c-.58,1.73-1.27,3.1-2.06,4.12l-.72-.76c1.34-2.08,2.29-4.66,2.87-7.75l1.04,.19c-.15,.78-.41,1.83-.78,3.15h5.05v1.06h-1.15c-.23,4.5-1.02,7.74-2.39,9.74,.77,1.12,1.95,2.2,3.56,3.24Z"/>
          <path class="cls-1" d="M482.36,68.9h-7.16c-.27,.93-.57,1.75-.9,2.44h6.5v7.24h-4.96v5.13c0,.41-.16,.77-.47,1.08-.32,.32-1.02,.47-2.12,.47-.35,0-.7-.02-1.03-.05l-.41-1.06,2.34-.04c.19,0,.34-.08,.46-.24s.19-.34,.19-.54v-4.76h-5.04v-7.24h3.34c.41-.68,.74-1.49,.99-2.44h-6.85v7.24c0,3.73-.59,6.81-1.77,9.23l-.98-.58c.54-.96,.95-2.24,1.24-3.85,.29-1.61,.43-3.19,.43-4.74v-8.32h16.2v1.02Zm-9.74,11.31c-.91,1.38-2.15,2.77-3.75,4.17l-.88-.82c1.71-1.39,2.93-2.69,3.67-3.89l.96,.53Zm7.12-5.82v-2.03h-8.94v2.03h8.94Zm0,3.15v-2.15h-8.94v2.15h8.94Zm2.6,6.2l-.86,.73c-.94-1.47-2.14-2.81-3.6-4l.88-.8c1.45,1.37,2.64,2.73,3.58,4.08Z"/>
        </g>
      </g>
      <g>
        <circle class="cls-2" cx="65.92" cy="234.92" r="65.92"/>
        <g>
          <path class="cls-1" d="M51.65,229.15c0,.35-.14,.65-.42,.9-.28,.26-.58,.38-.9,.38-.9,0-1.49,0-1.76-.02l-.41-1.06c.35,.03,.72,.04,1.11,.04,.69,0,1.08-.04,1.2-.11,.11-.07,.17-.19,.17-.36v-6.26c-1.05,1.03-1.99,1.85-2.83,2.48l-.59-.82c.81-.59,1.94-1.59,3.42-2.99v-1.84l-.7,.65c-.65-.95-1.54-1.93-2.7-2.93v4c0,3.89-.58,7-1.74,9.33l-.88-.76c1.08-2.2,1.62-5.24,1.62-9.1v-7.63h5.41v16.09Zm-1.02-9.9v-5.17h-3.4v2.79l.55-.54c.95,.77,1.89,1.75,2.85,2.93Zm12.07,6.4c-.11,2.14-.33,3.45-.63,3.93s-.91,.72-1.81,.72c-1.17,0-1.75-.42-1.75-1.27v-14.91h-3.27v6.11c0,4.81-.72,8.25-2.17,10.32l-.86-.72c1.34-1.78,2.02-4.7,2.02-8.78v-7.97h5.28v15.79c0,.13,.05,.23,.14,.29,.09,.06,.38,.09,.86,.09,.29,0,.5-.08,.61-.24,.11-.16,.22-.63,.33-1.41,.11-.78,.17-1.55,.19-2.32l1.06,.37Z"/>
          <path class="cls-1" d="M84.81,214.93c-.27,.91-.71,1.94-1.31,3.09l-1.08-.22c.39-.62,.73-1.3,1.04-2.03h-7.67v1.09l5.6-.21,.06,.74-5.66,.16v.41c0,.1,.05,.2,.16,.31s.21,.16,.31,.16h6.55v.74h-6.79c-.85,0-1.27-.39-1.27-1.17v-.37l-3.4,.11-.04-.76,3.44-.1v-1.11h-4.52v4.72c0,4.33-.67,7.64-2.01,9.92l-.88-.67c1.26-2.16,1.89-4.91,1.89-8.23v-6.58h5.74v-2.4h1.03v.72h7.99v.8h-7.99v.88h8.81Zm-1.18,13.93c0,.59-.15,.99-.46,1.2-.31,.21-.87,.31-1.7,.31-.31,0-.62,0-.94-.03l-.28-.86c.51,.04,1.05,.06,1.63,.06,.15,0,.31-.05,.48-.16s.25-.23,.25-.37v-.65c-3.57,.47-6.65,.79-9.24,.98l-.48-.72c-.38,.71-.88,1.32-1.51,1.84l-.8-.67c1.33-.98,1.94-2.64,1.84-4.97h11.2v4.04Zm.59-4.89h-12.54v-4.01h12.54v4.01Zm-6.79-2.39v-.82h-4.7v.82h4.7Zm0,1.63v-.84h-4.7v.84h4.7Zm5.19,4.38v-1.97h-9.14c0,.39-.02,.65-.06,.78,2.94,0,5.4,.1,7.4,.31l-.23,.8c-1.84-.2-3.66-.3-5.44-.3-.59,0-1.2,0-1.82,.03-.06,.41-.17,.84-.34,1.29,3.48-.22,6.69-.53,9.63-.94Zm.53-5.95v-.88h-4.7v.88h4.7Zm0,1.57v-.84h-4.7v.84h4.7Z"/>
          <path class="cls-1" d="M26.96,236.73c-.14,.54-.38,1.29-.73,2.25l-.52,1.42v13.97h-1.06v-11.55c-.67,1.26-1.27,2.29-1.8,3.1l-.7-.99c1.54-2.23,2.81-5.07,3.79-8.53l1.02,.33Zm4.43,12.32c-1.35,2.04-2.68,3.58-4,4.62l-.74-.74c1.42-1.21,2.72-2.73,3.9-4.56l.84,.68Zm8.69-2.21h-6.03v7.57h-1.07v-7.57h-6.25v-1.05h6.25v-2.43h-4.67v-6.3h10.38v6.3h-4.64v2.43h6.03v1.05Zm-2.46-4.53v-4.29h-8.22v4.29h8.22Zm2.6,10.5l-.75,.76c-1.12-1.64-2.43-3.16-3.94-4.57l.82-.78c1.74,1.76,3.03,3.29,3.87,4.58Z"/>
          <path class="cls-1" d="M48.73,247.7c-1.02,2.6-2.08,4.76-3.19,6.48l-.92-.61c1.01-1.45,2.05-3.53,3.11-6.24l1,.37Zm.11-3.48l-.6,.86c-1.04-.99-2.22-1.84-3.54-2.58l.61-.86c1.27,.74,2.45,1.6,3.53,2.58Zm.43-5.34l-.68,.8c-.76-.74-1.88-1.56-3.36-2.46l.66-.84c1.34,.81,2.47,1.64,3.38,2.5Zm1.8,11.85c-.55,1.4-1.16,2.58-1.84,3.54l-.95-.53c.63-.84,1.24-1.99,1.83-3.46l.96,.45Zm4.72-.82l-.94,.41c-.16-.49-.29-.85-.39-1.09-1.58,.3-3.13,.52-4.62,.66l-.31-.74c1.37-.96,2.44-1.93,3.2-2.91l-2.89,.43-.35-.81c.87-.75,1.74-1.8,2.62-3.18l1.01,.41c-.19,.33-.84,1.13-1.93,2.4,.48-.03,1.3-.16,2.46-.39,.32-.41,.57-.74,.74-.99l.94,.48c-1.02,1.49-2.25,2.85-3.69,4.09,1.09-.13,1.88-.26,2.38-.37-.12-.34-.24-.6-.37-.77l.9-.41c.55,.87,.96,1.8,1.25,2.78Zm5.72-7.57h-11.31v-5.41h11.31v5.41Zm-1.04-3.17v-1.25h-9.19v1.25h9.19Zm0,2.23v-1.33h-9.19v1.33h9.19Zm-6.22,12.55l-1.02,.22c-.01-.96-.14-2.09-.39-3.4l1.03-.14c.25,1.21,.38,2.32,.38,3.32Zm8.37-4.41l-.84,.56-.59-1.05c-2.1,.42-3.65,.71-4.66,.88l-.31-.76c1.07-.83,2.03-1.76,2.87-2.78-.61,.11-1.48,.22-2.62,.33l-.27-.76c.75-.79,1.48-1.87,2.19-3.24l.96,.37c-.43,.94-.96,1.77-1.61,2.5,.7-.09,1.44-.2,2.21-.35,.16-.16,.45-.56,.86-1.19l.94,.47c-1.03,1.48-2.18,2.84-3.46,4.08,.82-.11,1.58-.25,2.29-.41-.05-.07-.13-.17-.22-.31-.09-.14-.16-.23-.19-.26l.82-.54c.57,.64,1.12,1.46,1.64,2.46Zm-4.2,4.38l-1.06,.31c-.17-1-.5-2.15-.97-3.44l1.01-.29c.49,1.37,.83,2.5,1.02,3.42Zm4.16-.28l-.96,.49c-.67-1.38-1.34-2.52-2.01-3.44l1-.49c.77,1.16,1.43,2.3,1.97,3.44Z"/>
          <path class="cls-1" d="M72.85,244.98l-.8,.67c-.39-.71-.81-1.39-1.27-2.05v10.72h-1.06v-10.16c-.75,2.14-1.41,3.71-1.99,4.72l-.59-1.13c1.04-1.82,1.89-4.04,2.56-6.65h-2.4v-1.02h2.42v-3.75h1.06v3.75h1.52v1.02h-1.52v1.09c.73,.89,1.42,1.81,2.07,2.79Zm12.42,6.11c-.14,1.14-.35,2-.63,2.58-.28,.58-.67,.87-1.16,.87-.89,0-1.87-.93-2.93-2.79-1.11,.94-2.43,1.76-3.95,2.46l-.72-.82c1.59-.58,3-1.41,4.21-2.5-.61-1.27-1.02-2.5-1.23-3.68h-3.74l-.13,1.23c1.13,.6,2.09,1.26,2.89,2l-.59,.86c-.51-.56-1.33-1.18-2.44-1.86-.42,1.96-1.27,3.62-2.56,4.99l-.94-.66c1.67-1.46,2.56-3.65,2.68-6.56h-1.82v-1.03h6.44c-.39-3.27-.61-6.56-.66-9.86l1.05,.04c.09,4.43,.32,7.7,.69,9.82h2.07c-.05-.12-.22-.44-.49-.96l.84-.35c.27,.33,.51,.77,.72,1.31h2.19v1.03h-5.13c.15,.88,.47,1.84,.96,2.89,.66-.68,1.25-1.49,1.78-2.44l.8,.51c-.64,1.09-1.37,2.04-2.19,2.85,.28,.57,.64,1.12,1.08,1.65,.44,.53,.78,.79,1.02,.79,.19,0,.37-.18,.52-.53s.31-1.13,.46-2.33l.9,.49Zm-7.28-6.05l-.92,.26c-.02-.24-.07-.55-.16-.94-1.45,.13-2.7,.27-3.75,.41l-.16-.74c.87-1.04,1.59-1.98,2.17-2.84l-2.13,.32-.27-.88c.92-1.53,1.62-2.91,2.09-4.15l.92,.43c-.41,.97-1.02,2.12-1.82,3.48,.65-.06,1.3-.16,1.96-.31,.29-.42,.62-.97,.97-1.66l.88,.49c-.99,1.66-2.12,3.25-3.4,4.74,.67-.03,1.44-.11,2.29-.22-.09-.48-.24-.94-.43-1.37l.9-.25c.36,.83,.65,1.9,.86,3.22Zm7.08-.06l-.92,.28c-.03-.22-.11-.54-.23-.96-1.11,.13-2.33,.29-3.68,.49l-.27-.88c.86-1.02,1.56-1.92,2.11-2.72-.57,.07-1.25,.17-2.07,.32l-.31-.88c.85-1.36,1.53-2.69,2.05-4.01l.92,.41c-.57,1.19-1.16,2.3-1.78,3.36,.41-.05,1.06-.16,1.95-.31,.25-.37,.55-.86,.9-1.45l.88,.45c-.73,1.25-1.8,2.77-3.22,4.57l2.24-.26c-.11-.47-.24-.83-.37-1.11l.9-.28c.36,.89,.66,1.88,.9,2.97Z"/>
          <path class="cls-1" d="M100.93,243.95h-5.02v2.42h4.36v5.74c0,.85-.48,1.27-1.44,1.27h-1.49l-.39-1.06h1.82c.13,0,.25-.06,.34-.17s.15-.24,.15-.39v-4.38h-3.35v6.85h-1.03v-6.85h-3.25v6.09h-1.03v-7.11h4.28v-2.42h-5.21v-1.02h5.21v-2.77h-3.32c-.37,.74-.74,1.36-1.12,1.87l-.92-.5c.99-1.35,1.75-2.95,2.29-4.83l1.04,.19c-.24,.79-.51,1.53-.82,2.25h2.85v-2.75h1.03v2.75h4.59v1.02h-4.59v2.77h5.02v1.02Zm2.46,6.75h-1.06v-12.75h1.06v12.75Zm3.61,2.13c0,.39-.14,.71-.43,.97s-.64,.39-1.07,.39h-2.62l-.37-1.08h2.95c.12,0,.23-.06,.33-.19s.16-.26,.16-.38v-16.14h1.05v16.43Z"/>
        </g>
      </g>
      <g>
        <circle class="cls-2" cx="258.42" cy="234.92" r="65.92"/>
        <g>
          <path class="cls-1" d="M243.54,221.29c-.66,.34-1.45,.71-2.38,1.11v6.56c0,.53-.17,.9-.5,1.13-.33,.23-.85,.34-1.56,.34h-.93l-.39-1.1,1.81-.02c.34,0,.51-.19,.51-.58v-5.88c-.91,.34-1.79,.65-2.66,.94l-.35-1.07c1.12-.34,2.12-.68,3.01-1.02v-4.57h-2.62v-1.04h2.62v-3.53h1.06v3.53h2.22v1.04h-2.22v4.1c.7-.24,1.42-.55,2.17-.92l.21,.98Zm5.05-8c-.84,.62-1.94,1.19-3.32,1.72v11.19c1.06-.57,2.01-1.11,2.85-1.61l.26,1.04c-1.42,.89-2.75,1.67-3.99,2.34l-.49-.93c.2-.29,.3-.56,.3-.79v-11.93c1.36-.45,2.61-1.08,3.75-1.89l.64,.86Zm5.99,12.77c0,.63-.16,1.08-.48,1.35-.32,.27-1.19,.38-2.6,.31l-.39-1.04c1.12,0,1.75,0,1.91-.02s.28-.09,.38-.22c.1-.13,.14-.27,.14-.43v-11.09h-3.27v15.52h-1.07v-16.59h5.38v12.22Z"/>
          <path class="cls-1" d="M270.93,220.09h-5.02v2.42h4.36v5.74c0,.85-.48,1.27-1.44,1.27h-1.49l-.39-1.06h1.82c.13,0,.25-.06,.34-.17s.15-.24,.15-.39v-4.38h-3.35v6.85h-1.03v-6.85h-3.25v6.09h-1.03v-7.11h4.28v-2.42h-5.21v-1.02h5.21v-2.77h-3.32c-.37,.74-.74,1.36-1.12,1.87l-.92-.5c.99-1.35,1.75-2.95,2.29-4.83l1.04,.19c-.24,.79-.51,1.53-.82,2.25h2.85v-2.75h1.03v2.75h4.59v1.02h-4.59v2.77h5.02v1.02Zm2.46,6.75h-1.06v-12.75h1.06v12.75Zm3.61,2.13c0,.39-.14,.71-.43,.97s-.64,.39-1.07,.39h-2.62l-.37-1.08h2.95c.12,0,.23-.06,.33-.19s.16-.26,.16-.38v-16.14h1.05v16.43Z"/>
          <path class="cls-1" d="M245.34,243.62h-8.06v-.92h3.83v-1.43h-3.03v-.88h3.03v-1.48h-3.44v-.96h3.44v-1.52h1.05v1.52h3.17v.96h-3.17v1.48h2.72v.88h-2.72v1.43h3.19v.92Zm-.67,9.21c0,1-.59,1.51-1.78,1.51-.29,0-.62-.02-1.01-.06l-.41-1.02c.33,.01,.89,.02,1.68,.02,.31,0,.47-.17,.47-.51v-1.76h-4.24c-.27,1.45-.63,2.55-1.08,3.29l-.9-.53c.72-1.26,1.08-2.89,1.08-4.9v-3.94h6.18v7.9Zm-1.05-2.79v-1.59h-4.09c0,.51-.01,1.04-.04,1.59h4.13Zm0-2.58v-1.55h-4.09v1.55h4.09Zm11.5-.57h-1.23v3.17h-3.34v2.69c0,.57-.15,.98-.44,1.21-.3,.23-.77,.35-1.41,.35-.35,0-.74-.01-1.19-.03l-.47-1.06c.6,.04,1.09,.06,1.47,.06,.47,0,.75-.04,.85-.13,.1-.09,.16-.24,.16-.45v-2.63h-3.28v-.92h3.28v-2.25h-3.85v-.96h3.85v-2.13h-3.28v-.94h7.65v3.07h1.23v.96Zm-.68-9.55c-2.01,.71-4.75,1.16-8.2,1.33l-.39-.97c3.48-.16,6.16-.57,8.06-1.24l.53,.88Zm-6.07,4.53l-.96,.31c-.39-.78-.86-1.54-1.41-2.27l.94-.39c.57,.76,1.05,1.54,1.43,2.35Zm2.79-.2l-.92,.28c-.47-1.26-.81-2.07-1.01-2.45l.97-.35c.35,.73,.67,1.57,.96,2.52Zm1.7,4.25v-2.13h-2.3v2.13h2.3Zm0,3.21v-2.25h-2.3v2.25h2.3Zm1.78-9.71c-.57,1.32-1.06,2.24-1.48,2.76l-.88-.51c.61-.83,1.1-1.73,1.46-2.71l.9,.46Z"/>
          <path class="cls-1" d="M277.21,243.81h-1.04v-3.5h-7.16v4.04h-1.03v-4.04h-6.68v3.5h-1.07v-4.46h7.75v-1.51h-7.01v-.96h15.57v.96h-7.53v1.51h8.2v4.46Zm.62,8.04c-.09,.83-.3,1.43-.63,1.78-.33,.35-.91,.55-1.75,.6-.83,.05-1.78,.08-2.82,.08-.91,0-1.76-.02-2.57-.06s-1.35-.19-1.63-.46c-.28-.27-.42-.69-.42-1.27v-1.51h-6.53v-5.85h14.15v5.85h-6.54v1.59c0,.17,.06,.3,.18,.39,.12,.09,.55,.16,1.3,.21s1.58,.08,2.5,.08c1.59,0,2.53-.04,2.81-.12,.28-.08,.48-.28,.61-.61s.21-.75,.25-1.25l1.09,.56Zm-10.69-8.12c-1.64,.43-3.18,.68-4.62,.77l-.33-.94c1.52-.07,3.05-.28,4.6-.63l.34,.8Zm0-2.09l-.34,.88c-1.13-.28-2.62-.49-4.46-.64l.45-.88c1.71,.15,3.16,.36,4.36,.64Zm.87,5.95v-1.48h-5.46v1.48h5.46Zm0,2.45v-1.53h-5.46v1.53h5.46Zm6.54-2.45v-1.48h-5.46v1.48h5.46Zm0,2.45v-1.53h-5.46v1.53h5.46Zm.61-6.29l-.47,.86c-1.43-.38-3.04-.65-4.82-.8l.45-.82c2.1,.18,3.71,.43,4.84,.76Zm-.14-1.85c-1.69,.3-3.25,.5-4.67,.6l-.31-.84c1.41-.11,2.95-.32,4.6-.64l.37,.88Z"/>
        </g>
      </g>
      <g>
        <circle class="cls-2" cx="450.92" cy="234.92" r="65.92"/>
        <g>
          <path class="cls-1" d="M433.8,220.44l-.7,.86c-.99-1.14-2.08-2.09-3.28-2.87l.66-.86c1.02,.67,2.12,1.63,3.32,2.87Zm-.23,3.11c-.83,2.78-1.79,5.05-2.87,6.79l-.88-.63c1.08-1.79,1.99-3.99,2.75-6.61l1,.45Zm.55-8.43l-.69,.82c-.89-.9-1.98-1.78-3.28-2.64l.57-.84c1.4,.81,2.54,1.7,3.4,2.66Zm12.06,13.34c0,.67-.15,1.15-.44,1.42-.29,.28-.68,.43-1.15,.47-.47,.04-1.47,.04-3,.03l-.41-1.04c.39,.04,.96,.06,1.74,.06,.71,0,1.17,0,1.38-.03s.4-.09,.56-.23,.24-.29,.24-.46v-1.45h-8.82c-.3,1.17-.91,2.24-1.84,3.23l-.82-.73c1.33-1.31,1.99-3.18,1.99-5.6v-2.85h10.56v7.18Zm1.39-8.45h-13.38v-.96h6.11v-1.62h-5.07v-.94h5.07v-1.44h-5.54v-1h5.54v-1.5h1.04v1.5h5.99v1h-5.99v1.46h5.44v.92h-5.44v1.62h6.22v.96Zm-2.48,6.24v-1.56h-8.45c0,.33-.03,.85-.1,1.56h8.55Zm0-2.52v-1.46h-8.41v1.46h8.41Z"/>
          <path class="cls-1" d="M456.32,218.8c1.16,1.69,1.74,3.33,1.74,4.93,0,.45-.21,.91-.64,1.38-.43,.47-1.23,.67-2.4,.62l-.45-1c.91,.05,1.54-.02,1.91-.19,.37-.17,.55-.54,.55-1.1,0-1.48-.62-2.97-1.86-4.45,.65-1.83,1.17-3.48,1.58-4.93h-2.77v16.3h-1.04v-17.32h4.92v.98l-1.55,4.78Zm5.66,5.73c-1.24,1.81-2.62,3.34-4.14,4.59l-.86-.73c1.46-1.13,2.81-2.61,4.06-4.46l.94,.6Zm8.2-6.69l-.63,.92c-.69-.38-1.15-.65-1.4-.8v.98h-3.87v2.5h5.34v1.03h-5.34v6.42c0,.33-.13,.67-.4,1.01-.27,.34-.9,.51-1.91,.51-.31,0-.63-.01-.96-.04l-.43-1.02c.34,.03,.69,.05,1.05,.05,.77,0,1.23-.06,1.37-.18,.14-.12,.21-.29,.21-.49v-6.27h-4.58v-1.03h4.58v-2.5h-3.67v-1.02l-1.27,.84-.82-.82c2.52-1.45,4.58-3.31,6.2-5.6l.96,.51c-.09,.16-.17,.28-.22,.35,1.33,1.83,3.25,3.38,5.76,4.64Zm-2.15,.04c-1.64-1.07-3.08-2.33-4.31-3.79-1.15,1.37-2.5,2.63-4.05,3.79h8.36Zm2.07,10.62l-.92,.65c-.86-1.52-1.97-3.02-3.34-4.5l.84-.68c1.32,1.37,2.46,2.88,3.42,4.52Z"/>
          <path class="cls-1" d="M413.38,237.88c0,.21-.56,1.88-1.68,5.01,1.03,1.58,1.54,3.17,1.54,4.76,0,.6-.11,1.08-.32,1.43-.21,.35-.48,.59-.81,.71-.33,.12-.94,.19-1.83,.19l-.51-1.06c.5,.02,.88,.03,1.15,.03,.55,0,.91-.11,1.07-.34,.16-.23,.24-.58,.24-1.07,0-1.44-.55-2.96-1.64-4.58,.59-1.59,1.14-3.29,1.66-5.09h-3.44v16.38h-1.05v-17.43h5.61v1.05Zm4.39-1.31c-.2,.69-.52,1.55-.95,2.61l-.65,1.55v13.53h-1.02v-11.62c-.59,.98-1.07,1.68-1.46,2.11l-.73-.68c1.54-2.06,2.8-4.65,3.8-7.75l1.01,.25Zm7.3,4.78h-1.88v11.23c0,1.08-.6,1.62-1.81,1.62h-1.53l-.45-1.02h2.13c.43,0,.65-.22,.65-.66v-11.17h-5.09v-1.02h5.09v-4.08h1.01v4.08h1.88v1.02Zm-4.31,7.38l-.92,.41c-.66-1.96-1.39-3.73-2.21-5.31l.96-.43c.82,1.64,1.54,3.42,2.17,5.33Z"/>
          <path class="cls-1" d="M447.6,245.51h-6.09c-1.03,.64-2.23,1.26-3.59,1.86h7.2v6.91h-1.04v-.82h-8.57v.8h-1.07v-5.58c-1.39,.47-2.73,.86-4.01,1.17l-.51-.94c4.37-1.12,7.58-2.26,9.65-3.4h-9.74v-.99h7.92v-1.84h-6.03v-.98h6.03v-1.64h1.06v1.64h4.25v.98h-4.25v1.84h2.44c1.72-1.12,3.26-2.4,4.6-3.85l.86,.66c-1.4,1.38-2.65,2.44-3.77,3.19h4.65v.99Zm-9.33-6.55h-2.48v1.77h-1.02v-1.77h-4.89v-1.02h4.89v-1.54h1.02v1.54h2.48v1.02Zm5.81,10.95v-1.54h-8.57v1.54h8.57Zm0,2.54v-1.6h-8.57v1.6h8.57Zm3.62-13.48h-4.88v1.77h-1.09v-1.77h-2.48v-1.02h2.48v-1.54h1.09v1.54h4.88v1.02Z"/>
          <path class="cls-1" d="M470.13,250.13h-17.78v-1.03h5.09v-2.39h-4.47v-1.01h4.47v-2.09h-3.19v-6.74h14.05v6.74h-3.22v2.09h4.46v1.01h-4.46v2.39h5.03v1.03Zm-10.95,1.2c-1.41,1.07-3.46,2.07-6.13,3.01l-.7-.92c2.32-.71,4.33-1.63,6.01-2.76l.82,.67Zm1.56-11.62v-1.8h-5.42v1.8h5.42Zm0,2.89v-1.86h-5.42v1.86h5.42Zm3.3,3.11v-2.09h-5.52v2.09h5.52Zm0,3.4v-2.39h-5.52v2.39h5.52Zm3.23-9.39v-1.8h-5.43v1.8h5.43Zm0,2.89v-1.86h-5.43v1.86h5.43Zm2.83,10.88l-.57,.89c-1.74-.99-3.81-1.89-6.2-2.69l.66-.94c2.57,.89,4.61,1.8,6.11,2.74Z"/>
          <path class="cls-1" d="M480.62,250.58h-1.07v-.99h-3.09v1.76h-1.04v-13.53h5.19v12.76Zm-1.07-2.05v-9.66h-3.09v9.66h3.09Zm13.26,3.17l-.78,.82c-1.55-1.18-3.15-3.29-4.79-6.34v8.19h-1.04v-8.23c-1.84,3.08-3.59,5.21-5.23,6.38l-.72-.86c1.95-1.42,3.79-3.72,5.52-6.91h-4.43v-1.04h4.86v-3.49h-4.27v-1.04h4.27v-2.77h1.04v2.77h4.64v1.04h-4.64v3.49h5.2v1.04h-4.71c1.27,2.87,2.96,5.19,5.07,6.95Z"/>
        </g>
      </g>
    </g>
  </g>
</svg>