<?xml version="1.0" encoding="UTF-8"?>
<svg id="_圖層_2" data-name="圖層 2" xmlns="http://www.w3.org/2000/svg" viewBox="0 0 866.09 929.25">
  <defs>
    <style>
      .cls-1 {
        stroke-miterlimit: 10;
      }

      .cls-1, .cls-2 {
        fill: none;
        stroke: #8a6e4b;
        stroke-linecap: round;
        stroke-width: 0px;
      }

      .cls-2 {
        stroke-linejoin: round;
      }

      .cls-3 {
        fill: #8a6e4b;
      }
    </style>
  </defs>
  <g id="_圖層_1-2" data-name="圖層 1">
    <g>
      <g>
        <path class="cls-3" d="m865.84,138.97h-115.39c-.14,0-.25-.11-.25-.25V.25c0-.14.11-.25.25-.25h115.39c.14,0,.25.11.25.25v138.47c0,.14-.11.25-.25.25Zm-115.14-.5h114.89V.5h-114.89v137.97Z"/>
        <path class="cls-3" d="m428.3,911.65l322.15,17.35h-322.15v-17.35Zm322.15,0h-322.15l322.15,17.35v-17.35Z"/>
        <path class="cls-1" d="m428.3,911.65l322.15,17.35h-322.15v-17.35Zm322.15,0h-322.15l322.15,17.35v-17.35Z"/>
        <path class="cls-3" d="m865.84,929.25h-115.39c-.14,0-.25-.11-.25-.25v-138.47c0-.14.11-.25.25-.25h115.39c.14,0,.25.11.25.25v138.47c0,.14-.11.25-.25.25Zm-115.14-.5h114.89v-137.97h-114.89v137.97Z"/>
        <path class="cls-3" d="m.25,117.95l34.62,20.77H.25v-20.77Zm34.62,0H.25l34.62,20.77v-20.77Z"/>
        <path class="cls-1" d="m.25,117.95l34.62,20.77H.25v-20.77Zm34.62,0H.25l34.62,20.77v-20.77Z"/>
        <path class="cls-3" d="m14.1,138.72l20.77,128.04H14.1v-128.04Zm20.77,0H14.1l20.77,128.04v-128.04Z"/>
        <path class="cls-1" d="m14.1,138.72l20.77,128.04H14.1v-128.04Zm20.77,0H14.1l20.77,128.04v-128.04Z"/>
        <path class="cls-3" d="m14.1,266.76l86.5,20.77H14.1v-20.77Zm86.5,0H14.1l86.5,20.77v-20.77Z"/>
        <path class="cls-1" d="m14.1,266.76l86.5,20.77H14.1v-20.77Zm86.5,0H14.1l86.5,20.77v-20.77Z"/>
        <path class="cls-3" d="m14.1,287.53l17.35,624.12H14.1V287.53Zm17.35,0H14.1l17.35,624.12V287.53Z"/>
        <path class="cls-1" d="m14.1,287.53l17.35,624.12H14.1V287.53Zm17.35,0H14.1l17.35,624.12V287.53Z"/>
        <path class="cls-3" d="m14.1,911.65l287.28,17.35H14.1v-17.35Zm287.28,0H14.1l287.28,17.35v-17.35Z"/>
        <path class="cls-1" d="m14.1,911.65l287.28,17.35H14.1v-17.35Zm287.28,0H14.1l287.28,17.35v-17.35Z"/>
        <path class="cls-3" d="m301.37,911.9H31.45c-.14,0-.25-.11-.25-.25s.11-.25.25-.25h269.92c.14,0,.25.11.25.25s-.11.25-.25.25Z"/>
        <path class="cls-3" d="m750.45,911.9h-322.15c-.14,0-.25-.11-.25-.25s.11-.25.25-.25h322.15c.14,0,.25.11.25.25s-.11.25-.25.25Z"/>
        <path class="cls-3" d="m301.37,929.25H14.1c-.14,0-.25-.11-.25-.25s.11-.25.25-.25h287.28c.14,0,.25.11.25.25s-.11.25-.25.25Z"/>
        <path class="cls-3" d="m750.45,929.25h-322.15c-.14,0-.25-.11-.25-.25v-17.35c0-.14.11-.25.25-.25s.25.11.25.25v17.1h321.9c.14,0,.25.11.25.25s-.11.25-.25.25Z"/>
        <path class="cls-3" d="m301.37,929.25c-.14,0-.25-.11-.25-.25v-17.35c0-.14.11-.25.25-.25s.25.11.25.25v17.35c0,.14-.11.25-.25.25Z"/>
        <path class="cls-3" d="m565.83,138.97h-34.53c-.14,0-.25-.11-.25-.25s.11-.25.25-.25h34.53c.14,0,.25.11.25.25s-.11.25-.25.25Z"/>
        <path class="cls-3" d="m323.6,138.97h-98.38c-.14,0-.25-.11-.25-.25s.11-.25.25-.25h98.38c.14,0,.25.11.25.25s-.11.25-.25.25Z"/>
        <path class="cls-3" d="m204.45,117.95l119.15,20.77h-119.15v-20.77Zm119.15,0h-119.15l119.15,20.77v-20.77Z"/>
        <path class="cls-1" d="m204.45,117.95l119.15,20.77h-119.15v-20.77Zm119.15,0h-119.15l119.15,20.77v-20.77Z"/>
        <path class="cls-3" d="m204.45,138.72l20.77,148.81h-20.77v-148.81Zm20.77,0h-20.77l20.77,148.81v-148.81Z"/>
        <path class="cls-1" d="m204.45,138.72l20.77,148.81h-20.77v-148.81Zm20.77,0h-20.77l20.77,148.81v-148.81Z"/>
        <path class="cls-3" d="m14.1,138.97H.25c-.14,0-.25-.11-.25-.25s.11-.25.25-.25h13.85c.14,0,.25.11.25.25s-.11.25-.25.25Z"/>
        <path class="cls-3" d="m750.45,69.73H239.06c-.14,0-.25-.11-.25-.25s.11-.25.25-.25h511.39c.14,0,.25.11.25.25s-.11.25-.25.25Z"/>
        <path class="cls-3" d="m565.83,118.2h-34.53c-.14,0-.25-.11-.25-.25s.11-.25.25-.25h34.53c.14,0,.25.11.25.25s-.11.25-.25.25Z"/>
        <path class="cls-3" d="m204.45,31.53c-.06,0-.13-.02-.18-.07-.1-.1-.1-.26,0-.35l19.49-19.49c.1-.1.26-.1.35,0s.1.26,0,.35l-19.49,19.49s-.11.07-.18.07Z"/>
        <path class="cls-3" d="m204.45,55.97c-.06,0-.13-.02-.18-.07-.1-.1-.1-.26,0-.35l34.62-34.62c.1-.1.26-.1.35,0s.1.26,0,.35l-34.62,34.62s-.11.07-.18.07Z"/>
        <path class="cls-3" d="m204.45,80.42c-.06,0-.13-.02-.18-.07-.1-.1-.1-.26,0-.35l34.62-34.62c.1-.1.26-.1.35,0s.1.26,0,.35l-34.62,34.62s-.11.07-.18.07Z"/>
        <path class="cls-3" d="m204.45,104.95c-.06,0-.13-.02-.18-.07-.1-.1-.1-.26,0-.35l34.62-34.62c.1-.1.26-.1.35,0s.1.26,0,.35l-34.62,34.62s-.11.07-.18.07Z"/>
        <path class="cls-3" d="m215.73,118.2c-.06,0-.13-.02-.18-.07-.1-.1-.1-.26,0-.35l23.33-23.42c.1-.1.26-.1.35,0,.1.1.1.26,0,.35l-23.33,23.42s-.11.07-.18.07Z"/>
        <path class="cls-3" d="m323.6,118.2h-119.15c-.14,0-.25-.11-.25-.25s.11-.25.25-.25h119.15c.14,0,.25.11.25.25s-.11.25-.25.25Z"/>
        <path class="cls-3" d="m.25,15.46c-.06,0-.13-.02-.18-.07-.1-.1-.1-.26,0-.35l3.42-3.42c.1-.1.26-.1.35,0s.1.26,0,.35L.43,15.38s-.11.07-.18.07Z"/>
        <path class="cls-3" d="m.25,39.9c-.06,0-.13-.02-.18-.07-.1-.1-.1-.26,0-.35L27.94,11.61c.1-.1.26-.1.35,0s.1.26,0,.35L.43,39.83s-.11.07-.18.07Z"/>
        <path class="cls-3" d="m.25,64.35c-.06,0-.13-.02-.18-.07-.1-.1-.1-.26,0-.35L34.69,29.39c.1-.1.26-.1.35,0s.1.26,0,.35L.43,64.28s-.11.07-.18.07Z"/>
        <path class="cls-3" d="m.25,88.88c-.06,0-.13-.02-.18-.07-.1-.1-.1-.26,0-.35l34.62-34.62c.1-.1.26-.1.35,0s.1.26,0,.35L.43,88.81s-.11.07-.18.07Z"/>
        <path class="cls-3" d="m.25,113.33c-.06,0-.13-.02-.18-.07-.1-.1-.1-.26,0-.35l34.62-34.62c.1-.1.26-.1.35,0s.1.26,0,.35L.43,113.25s-.11.07-.18.07Z"/>
        <path class="cls-3" d="m19.91,118.2c-.06,0-.13-.02-.18-.07-.1-.1-.1-.26,0-.35l14.96-14.96c.1-.1.26-.1.35,0s.1.26,0,.35l-14.96,14.96s-.11.07-.18.07Z"/>
        <path class="cls-3" d="m34.87,267.01c-.14,0-.25-.11-.25-.25V118.2H.25c-.14,0-.25-.11-.25-.25s.11-.25.25-.25h34.62c.14,0,.25.11.25.25v148.81c0,.14-.11.25-.25.25Z"/>
        <path class="cls-3" d="m14.1,287.78c-.14,0-.25-.11-.25-.25v-148.81c0-.14.11-.25.25-.25s.25.11.25.25v148.81c0,.14-.11.25-.25.25Z"/>
        <path class="cls-3" d="m100.6,267.01H34.87c-.14,0-.25-.11-.25-.25s.11-.25.25-.25h65.73c.14,0,.25.11.25.25s-.11.25-.25.25Z"/>
        <path class="cls-3" d="m100.6,287.78H14.1c-.14,0-.25-.11-.25-.25s.11-.25.25-.25h86.5c.14,0,.25.11.25.25s-.11.25-.25.25Z"/>
        <path class="cls-3" d="m225.22,287.78h-20.77c-.14,0-.25-.11-.25-.25V117.95c0-.14.11-.25.25-.25s.25.11.25.25v169.33h20.27v-148.56c0-.14.11-.25.25-.25s.25.11.25.25v148.81c0,.14-.11.25-.25.25Z"/>
        <path class="cls-3" d="m100.6,287.78c-.14,0-.25-.11-.25-.25v-20.77c0-.14.11-.25.25-.25s.25.11.25.25v20.77c0,.14-.11.25-.25.25Z"/>
        <path class="cls-3" d="m213.68,807.8l11.54,103.85h-11.54v-103.85Zm11.54,0h-11.54l11.54,103.85v-103.85Z"/>
        <path class="cls-1" d="m213.68,807.8l11.54,103.85h-11.54v-103.85Zm11.54,0h-11.54l11.54,103.85v-103.85Z"/>
        <path class="cls-3" d="m31.45,622.07l193.77,11.54H31.45v-11.54Zm193.77,0H31.45l193.77,11.54v-11.54Z"/>
        <path class="cls-1" d="m31.45,622.07l193.77,11.54H31.45v-11.54Zm193.77,0H31.45l193.77,11.54v-11.54Z"/>
        <path class="cls-3" d="m92.56,633.61l11.54,69.23h-11.54v-69.23Zm11.54,0h-11.54l11.54,69.23v-69.23Z"/>
        <path class="cls-1" d="m92.56,633.61l11.54,69.23h-11.54v-69.23Zm11.54,0h-11.54l11.54,69.23v-69.23Z"/>
        <path class="cls-3" d="m31.45,702.84l72.65,11.54H31.45v-11.54Zm72.65,0H31.45l72.65,11.54v-11.54Z"/>
        <path class="cls-1" d="m31.45,702.84l72.65,11.54H31.45v-11.54Zm72.65,0H31.45l72.65,11.54v-11.54Z"/>
        <path class="cls-3" d="m213.68,633.61l11.54,81.97h-11.54v-81.97Zm11.54,0h-11.54l11.54,81.97v-81.97Z"/>
        <path class="cls-1" d="m213.68,633.61l11.54,81.97h-11.54v-81.97Zm11.54,0h-11.54l11.54,81.97v-81.97Z"/>
        <path class="cls-3" d="m31.45,911.9c-.14,0-.25-.11-.25-.25V287.53c0-.14.11-.25.25-.25s.25.11.25.25v624.12c0,.14-.11.25-.25.25Z"/>
        <path class="cls-3" d="m14.1,929.25c-.14,0-.25-.11-.25-.25V287.53c0-.14.11-.25.25-.25s.25.11.25.25v641.48c0,.14-.11.25-.25.25Z"/>
        <path class="cls-3" d="m204.45,52.38H34.87c-.14,0-.25-.11-.25-.25s.11-.25.25-.25h169.58c.14,0,.25.11.25.25s-.11.25-.25.25Z"/>
        <path class="cls-3" d="m204.45,69.73H34.87c-.14,0-.25-.11-.25-.25s.11-.25.25-.25h169.58c.14,0,.25.11.25.25s-.11.25-.25.25Z"/>
        <path class="cls-3" d="m204.45,287.78h-6.92c-.14,0-.25-.11-.25-.25v-11.54c0-.14.11-.25.25-.25h6.92c.14,0,.25.11.25.25s-.11.25-.25.25h-6.67v11.04h6.67c.14,0,.25.11.25.25s-.11.25-.25.25Z"/>
        <path class="cls-3" d="m107.52,287.78h-6.92c-.14,0-.25-.11-.25-.25s.11-.25.25-.25h6.67v-11.04h-6.67c-.14,0-.25-.11-.25-.25s.11-.25.25-.25h6.92c.14,0,.25.11.25.25v11.54c0,.14-.11.25-.25.25Z"/>
        <path class="cls-3" d="m197.52,279.66h-90c-.14,0-.25-.11-.25-.25s.11-.25.25-.25h90c.14,0,.25.11.25.25s-.11.25-.25.25Z"/>
        <path class="cls-3" d="m197.52,287.78h-90c-.14,0-.25-.11-.25-.25s.11-.25.25-.25h90c.14,0,.25.11.25.25s-.11.25-.25.25Z"/>
        <path class="cls-3" d="m197.52,276.24h-3.42c-.14,0-.25-.11-.25-.25v-90c0-.14.11-.25.25-.25h3.42c.14,0,.25.11.25.25v90c0,.14-.11.25-.25.25Zm-3.17-.5h2.92v-89.5h-2.92v89.5Z"/>
        <path class="cls-3" d="m107.52,276.19c-.14,0-.25-.11-.25-.25,0-49.74,40.47-90.21,90.21-90.21.14,0,.25.11.25.25s-.11.25-.25.25c-49.47,0-89.71,40.24-89.71,89.71,0,.14-.11.25-.25.25Z"/>
        <path class="cls-3" d="m308.29,929.25h-6.92c-.14,0-.25-.11-.25-.25s.11-.25.25-.25h6.67v-13.35h-6.67c-.14,0-.25-.11-.25-.25s.11-.25.25-.25h6.92c.14,0,.25.11.25.25v13.85c0,.14-.11.25-.25.25Z"/>
        <path class="cls-3" d="m428.3,929.25h-6.92c-.14,0-.25-.11-.25-.25v-13.85c0-.14.11-.25.25-.25h6.92c.14,0,.25.11.25.25s-.11.25-.25.25h-6.67v13.35h6.67c.14,0,.25.11.25.25s-.11.25-.25.25Z"/>
        <path class="cls-3" d="m311.8,915.41h-3.5c-.14,0-.25-.11-.25-.25v-113.08c0-.14.11-.25.25-.25h3.5c.14,0,.25.11.25.25v113.08c0,.14-.11.25-.25.25Zm-3.25-.5h3v-112.58h-3v112.58Z"/>
        <path class="cls-3" d="m421.29,915.36c-.14,0-.25-.11-.25-.25,0-62.19-50.6-112.79-112.79-112.79-.14,0-.25-.11-.25-.25s.11-.25.25-.25c62.47,0,113.29,50.82,113.29,113.29,0,.14-.11.25-.25.25Z"/>
        <path class="cls-3" d="m865.84,790.79c-.14,0-.25-.11-.25-.25V138.72c0-.14.11-.25.25-.25s.25.11.25.25v651.82c0,.14-.11.25-.25.25Z"/>
        <path class="cls-3" d="m848.49,790.79c-.14,0-.25-.11-.25-.25V138.72c0-.14.11-.25.25-.25s.25.11.25.25v651.82c0,.14-.11.25-.25.25Z"/>
        <path class="cls-3" d="m34.87,703.09c-.14,0-.25-.11-.25-.25v-69.23c0-.14.11-.25.25-.25s.25.11.25.25v69.23c0,.14-.11.25-.25.25Z"/>
        <path class="cls-3" d="m565.83,138.97c-.14,0-.25-.11-.25-.25v-20.77c0-.14.11-.25.25-.25s.25.11.25.25v20.77c0,.14-.11.25-.25.25Z"/>
        <path class="cls-3" d="m750.45,118.2h-184.62c-.14,0-.25-.11-.25-.25s.11-.25.25-.25h184.62c.14,0,.25.11.25.25s-.11.25-.25.25Z"/>
        <path class="cls-3" d="m750.45,138.97h-184.62c-.14,0-.25-.11-.25-.25s.11-.25.25-.25h184.62c.14,0,.25.11.25.25s-.11.25-.25.25Z"/>
        <path class="cls-3" d="m572.75,138.97c-.14,0-.25-.11-.25-.25v-13.85c0-.14.11-.25.25-.25s.25.11.25.25v13.85c0,.14-.11.25-.25.25Z"/>
        <path class="cls-3" d="m743.52,138.97c-.14,0-.25-.11-.25-.25v-13.85c0-.14.11-.25.25-.25s.25.11.25.25v13.85c0,.14-.11.25-.25.25Z"/>
        <path class="cls-3" d="m743.52,129.74h-90c-.14,0-.25-.11-.25-.25s.11-.25.25-.25h90c.14,0,.25.11.25.25s-.11.25-.25.25Z"/>
        <path class="cls-3" d="m662.75,134.35h-90c-.14,0-.25-.11-.25-.25s.11-.25.25-.25h90c.14,0,.25.11.25.25s-.11.25-.25.25Z"/>
        <path class="cls-3" d="m750.45,125.12h-184.62c-.14,0-.25-.11-.25-.25s.11-.25.25-.25h184.62c.14,0,.25.11.25.25s-.11.25-.25.25Z"/>
        <path class="cls-3" d="m658.14,143.58c-.14,0-.25-.11-.25-.25v-23.08c0-.14.11-.25.25-.25s.25.11.25.25v23.08c0,.14-.11.25-.25.25Z"/>
        <path class="cls-3" d="m531.29,138.97c-.14,0-.25-.11-.25-.25v-20.77c0-.14.11-.25.25-.25s.25.11.25.25v20.77c0,.14-.11.25-.25.25Z"/>
        <path class="cls-3" d="m323.6,138.97c-.14,0-.25-.11-.25-.25v-20.77c0-.14.11-.25.25-.25s.25.11.25.25v20.77c0,.14-.11.25-.25.25Z"/>
        <path class="cls-3" d="m531.29,118.2h-207.7c-.14,0-.25-.11-.25-.25s.11-.25.25-.25h207.7c.14,0,.25.11.25.25s-.11.25-.25.25Z"/>
        <path class="cls-3" d="m531.29,138.97h-207.7c-.14,0-.25-.11-.25-.25s.11-.25.25-.25h207.7c.14,0,.25.11.25.25s-.11.25-.25.25Z"/>
        <path class="cls-3" d="m330.52,138.97c-.14,0-.25-.11-.25-.25v-13.85c0-.14.11-.25.25-.25s.25.11.25.25v13.85c0,.14-.11.25-.25.25Z"/>
        <path class="cls-3" d="m524.37,138.97c-.14,0-.25-.11-.25-.25v-13.85c0-.14.11-.25.25-.25s.25.11.25.25v13.85c0,.14-.11.25-.25.25Z"/>
        <path class="cls-3" d="m524.37,129.74h-101.54c-.14,0-.25-.11-.25-.25s.11-.25.25-.25h101.54c.14,0,.25.11.25.25s-.11.25-.25.25Z"/>
        <path class="cls-3" d="m432.06,134.35h-101.54c-.14,0-.25-.11-.25-.25s.11-.25.25-.25h101.54c.14,0,.25.11.25.25s-.11.25-.25.25Z"/>
        <path class="cls-3" d="m531.29,125.12h-207.7c-.14,0-.25-.11-.25-.25s.11-.25.25-.25h207.7c.14,0,.25.11.25.25s-.11.25-.25.25Z"/>
        <path class="cls-3" d="m427.44,143.58c-.14,0-.25-.11-.25-.25v-23.08c0-.14.11-.25.25-.25s.25.11.25.25v23.08c0,.14-.11.25-.25.25Z"/>
        <path class="cls-3" d="m347.53,63.92h-3.5c-.14,0-.25-.11-.25-.25v-11.54c0-.14.11-.25.25-.25h3.5c.14,0,.25.11.25.25v11.54c0,.14-.11.25-.25.25Zm-3.25-.5h3v-11.04h-3v11.04Z"/>
        <path class="cls-3" d="m332.57,63.92h-3.5c-.14,0-.25-.11-.25-.25v-11.54c0-.14.11-.25.25-.25h3.5c.14,0,.25.11.25.25v11.54c0,.14-.11.25-.25.25Zm-3.25-.5h3v-11.04h-3v11.04Z"/>
        <path class="cls-3" d="m317.53,63.92h-3.42c-.14,0-.25-.11-.25-.25v-11.54c0-.14.11-.25.25-.25h3.42c.14,0,.25.11.25.25v11.54c0,.14-.11.25-.25.25Zm-3.17-.5h2.92v-11.04h-2.92v11.04Z"/>
        <path class="cls-3" d="m302.57,63.92h-3.5c-.14,0-.25-.11-.25-.25v-11.54c0-.14.11-.25.25-.25h3.5c.14,0,.25.11.25.25v11.54c0,.14-.11.25-.25.25Zm-3.25-.5h3v-11.04h-3v11.04Z"/>
        <path class="cls-3" d="m287.53,63.92h-3.42c-.14,0-.25-.11-.25-.25v-11.54c0-.14.11-.25.25-.25h3.42c.14,0,.25.11.25.25v11.54c0,.14-.11.25-.25.25Zm-3.17-.5h2.92v-11.04h-2.92v11.04Z"/>
        <path class="cls-3" d="m272.57,63.92h-3.5c-.14,0-.25-.11-.25-.25v-11.54c0-.14.11-.25.25-.25h3.5c.14,0,.25.11.25.25v11.54c0,.14-.11.25-.25.25Zm-3.25-.5h3v-11.04h-3v11.04Z"/>
        <path class="cls-3" d="m257.52,63.92h-3.42c-.14,0-.25-.11-.25-.25v-11.54c0-.14.11-.25.25-.25h3.42c.14,0,.25.11.25.25v11.54c0,.14-.11.25-.25.25Zm-3.17-.5h2.92v-11.04h-2.92v11.04Z"/>
        <path class="cls-3" d="m242.57,63.92h-3.5c-.14,0-.25-.11-.25-.25v-11.54c0-.14.11-.25.25-.25h3.5c.14,0,.25.11.25.25v11.54c0,.14-.11.25-.25.25Zm-3.25-.5h3v-11.04h-3v11.04Z"/>
        <path class="cls-3" d="m362.49,63.92h-3.42c-.14,0-.25-.11-.25-.25v-11.54c0-.14.11-.25.25-.25h3.42c.14,0,.25.11.25.25v11.54c0,.14-.11.25-.25.25Zm-3.17-.5h2.92v-11.04h-2.92v11.04Z"/>
        <path class="cls-3" d="m239.06,118.2c-.14,0-.25-.11-.25-.25V12.04h-34.12v105.91c0,.14-.11.25-.25.25s-.25-.11-.25-.25V11.79c0-.14.11-.25.25-.25h34.62c.14,0,.25.11.25.25v106.16c0,.14-.11.25-.25.25Z"/>
        <path class="cls-3" d="m34.87,118.2c-.14,0-.25-.11-.25-.25V12.04H.5v105.91c0,.14-.11.25-.25.25s-.25-.11-.25-.25V11.79c0-.14.11-.25.25-.25h34.62c.14,0,.25.11.25.25v106.16c0,.14-.11.25-.25.25Z"/>
        <path class="cls-3" d="m213.68,808.05H31.45c-.14,0-.25-.11-.25-.25s.11-.25.25-.25h182.23c.14,0,.25.11.25.25s-.11.25-.25.25Z"/>
        <path class="cls-3" d="m213.68,813.86H31.45c-.14,0-.25-.11-.25-.25s.11-.25.25-.25h182.23c.14,0,.25.11.25.25s-.11.25-.25.25Z"/>
        <path class="cls-3" d="m136.32,699.16c-.13,0-.23-.1-.25-.22l-4.53-43.33v-3.96h-3.68c-.14,0-.25-.11-.25-.25v-6.92c0-.14.11-.25.25-.25s.25.11.25.25v6.67h3.68c.14,0,.25.11.25.25v4.19l4.53,43.31c.01.14-.09.26-.22.28,0,0-.02,0-.03,0Z"/>
        <path class="cls-3" d="m153.55,714.63c-9.01,0-16.52-6.76-17.46-15.72-.01-.14.08-.26.22-.28.14-.01.26.08.27.22.92,8.71,8.21,15.27,16.96,15.27.14,0,.25.11.25.25s-.11.25-.25.25Z"/>
        <path class="cls-3" d="m160.77,714.63h-7.18c-.14,0-.25-.11-.25-.25s.11-.25.25-.25h7.18c.14,0,.25.11.25.25s-.11.25-.25.25Z"/>
        <path class="cls-3" d="m160.73,714.63c-.14,0-.25-.11-.25-.25s.11-.25.25-.25c8.75,0,16.05-6.57,16.96-15.27.01-.14.13-.23.27-.22.14.01.24.14.22.28-.94,8.96-8.45,15.72-17.46,15.72Z"/>
        <path class="cls-3" d="m177.95,699.16s-.02,0-.03,0c-.14-.01-.24-.14-.22-.28l4.62-43.33v-19.63c0-.14.11-.25.25-.25s.25.11.25.25v19.66l-4.62,43.36c-.01.13-.12.22-.25.22Z"/>
        <path class="cls-3" d="m182.48,636.12c-.14,0-.25-.11-.25-.25,0-1.11-.9-2.01-2.02-2.01-.14,0-.25-.11-.25-.25s.11-.25.25-.25c1.39,0,2.52,1.13,2.52,2.51,0,.14-.11.25-.25.25Z"/>
        <path class="cls-3" d="m180.26,633.86h-46.16c-.14,0-.25-.11-.25-.25s.11-.25.25-.25h46.16c.14,0,.25.11.25.25s-.11.25-.25.25Z"/>
        <path class="cls-3" d="m131.79,636.12c-.14,0-.25-.11-.25-.25,0-1.39,1.13-2.51,2.52-2.51.14,0,.25.11.25.25s-.11.25-.25.25c-1.11,0-2.02.9-2.02,2.01,0,.14-.11.25-.25.25Z"/>
        <path class="cls-3" d="m131.79,644.71h-3.93c-.14,0-.25-.11-.25-.25s.11-.25.25-.25h3.68v-8.3c0-.14.11-.25.25-.25s.25.11.25.25v8.55c0,.14-.11.25-.25.25Z"/>
        <path class="cls-3" d="m140.94,698.64c-.13,0-.23-.1-.25-.22l-3.93-37.61c-.01-.14.09-.26.22-.28.14-.02.26.09.27.22l3.93,37.61c.01.14-.09.26-.22.28,0,0-.02,0-.03,0Z"/>
        <path class="cls-3" d="m138.63,698.9c-.13,0-.23-.1-.25-.22l-3.68-35.39c-.01-.14.09-.26.22-.27.14-.01.26.08.27.22l3.68,35.39c.01.14-.09.26-.22.27,0,0-.02,0-.03,0Z"/>
        <path class="cls-3" d="m173.42,698.64s-.02,0-.03,0c-.14-.01-.24-.14-.22-.28l3.93-37.61c.01-.14.14-.25.27-.22.14.01.24.14.22.28l-3.93,37.61c-.01.13-.12.22-.25.22Z"/>
        <path class="cls-3" d="m175.73,698.9s-.02,0-.03,0c-.14-.01-.24-.14-.22-.27l3.68-35.39c.01-.14.14-.23.27-.22.14.01.24.14.22.27l-3.68,35.39c-.01.13-.12.22-.25.22Z"/>
        <path class="cls-3" d="m132.48,651.63c-.14,0-.25-.11-.25-.25v-6.92c0-.14.11-.25.25-.25s.25.11.25.25v6.92c0,.14-.11.25-.25.25Z"/>
        <path class="cls-3" d="m134.88,663.45c-.13,0-.23-.1-.25-.22-.07-.71.16-1.42.63-1.95.48-.53,1.16-.83,1.87-.83.14,0,.25.11.25.25s-.11.25-.25.25c-.57,0-1.12.24-1.5.67-.38.42-.57.99-.51,1.56.01.14-.08.26-.22.28,0,0-.02,0-.03,0Z"/>
        <path class="cls-3" d="m179.3,663.45s-.02,0-.03,0c-.14-.01-.24-.14-.22-.28.06-.57-.12-1.14-.51-1.56s-.93-.67-1.5-.67c-.14,0-.25-.11-.25-.25s.11-.25.25-.25c.71,0,1.39.3,1.87.83.48.53.71,1.24.63,1.95-.01.13-.12.22-.25.22Z"/>
        <path class="cls-3" d="m177.09,660.95h-39.92c-.14,0-.25-.11-.25-.25s.11-.25.25-.25h39.92c.14,0,.25.11.25.25s-.11.25-.25.25Z"/>
        <path class="cls-3" d="m131.79,655.82c-.07,0-.14-.03-.19-.09-.09-.11-.08-.26.03-.35l3.76-3.16c.11-.09.26-.08.35.03s.08.26-.03.35l-3.76,3.16s-.1.06-.16.06Z"/>
        <path class="cls-3" d="m182.56,655.82c-.06,0-.11-.02-.16-.06l-3.76-3.16c-.11-.09-.12-.25-.03-.35.09-.11.25-.12.35-.03l3.76,3.16c.11.09.12.25.03.35-.05.06-.12.09-.19.09Z"/>
        <path class="cls-3" d="m135.55,637.7c-.06,0-.13-.03-.18-.08l-3.08-3.16c-.1-.1-.09-.26,0-.35.1-.1.26-.09.35,0l3.08,3.16c.1.1.09.26,0,.35-.05.05-.11.07-.17.07Z"/>
        <path class="cls-3" d="m178.72,637.7c-.06,0-.13-.02-.18-.07-.1-.1-.1-.26,0-.35l3.16-3.16c.1-.1.26-.1.35,0s.1.26,0,.35l-3.16,3.16s-.11.07-.18.07Z"/>
        <path class="cls-3" d="m178.08,652.99c-.12,0-.23-.09-.25-.21-.02-.14.07-.26.21-.29.44-.07.77-.44.77-.89,0-.14.11-.25.25-.25s.25.11.25.25c0,.7-.5,1.28-1.19,1.39-.01,0-.03,0-.04,0Z"/>
        <path class="cls-3" d="m136.19,652.99s-.03,0-.04,0c-.69-.11-1.19-.69-1.19-1.39,0-.14.11-.25.25-.25s.25.11.25.25c0,.45.32.83.77.89.14.02.23.15.21.29-.02.12-.13.21-.25.21Z"/>
        <path class="cls-3" d="m135.21,638.43c-.14,0-.25-.11-.25-.25,0-.77.63-1.4,1.4-1.4.14,0,.25.11.25.25s-.11.25-.25.25c-.5,0-.9.41-.9.9,0,.14-.11.25-.25.25Z"/>
        <path class="cls-3" d="m179.06,638.43c-.14,0-.25-.11-.25-.25,0-.5-.41-.9-.9-.9-.14,0-.25-.11-.25-.25s.11-.25.25-.25c.77,0,1.4.63,1.4,1.4,0,.14-.11.25-.25.25Z"/>
        <path class="cls-3" d="m179.06,651.89c-.14,0-.25-.11-.25-.25v-13.42c0-.14.11-.25.25-.25s.25.11.25.25v13.42c0,.14-.11.25-.25.25Z"/>
        <path class="cls-3" d="m177.95,637.36h-41.54c-.14,0-.25-.11-.25-.25s.11-.25.25-.25h41.54c.14,0,.25.11.25.25s-.11.25-.25.25Z"/>
        <path class="cls-3" d="m135.21,651.89c-.14,0-.25-.11-.25-.25v-13.42c0-.14.11-.25.25-.25s.25.11.25.25v13.42c0,.14-.11.25-.25.25Z"/>
        <path class="cls-3" d="m157.14,654.63c-7.01,0-14.02-.54-20.98-1.61-.14-.02-.23-.15-.21-.29.02-.14.15-.23.29-.21,13.87,2.14,27.94,2.14,41.81,0,.14-.02.26.07.29.21s-.07.26-.21.29c-6.96,1.07-13.97,1.61-20.98,1.61Z"/>
        <path class="cls-3" d="m157.14,658.05c-8.49,0-16.99-.77-25.42-2.32-.14-.03-.23-.16-.2-.29.03-.14.15-.23.29-.2,16.81,3.08,33.85,3.08,50.66,0,.13-.03.27.07.29.2s-.07.27-.2.29c-8.43,1.55-16.93,2.32-25.42,2.32Z"/>
        <path class="cls-3" d="m132.48,644.71h-.68c-.14,0-.25-.11-.25-.25s.11-.25.25-.25h.68c.14,0,.25.11.25.25s-.11.25-.25.25Z"/>
        <polygon class="cls-3" points="132.48 651.21 132.39 651.3 132.31 651.38 132.39 651.47 132.48 651.56 132.56 651.47 132.65 651.38 132.56 651.3 132.48 651.21"/>
        <polygon class="cls-2" points="132.48 651.21 132.39 651.3 132.31 651.38 132.39 651.47 132.48 651.56 132.56 651.47 132.65 651.38 132.56 651.3 132.48 651.21"/>
        <polygon class="cls-3" points="132.48 651.21 132.39 651.3 132.31 651.38 132.39 651.47 132.48 651.56 132.56 651.47 132.65 651.38 132.56 651.3 132.48 651.21"/>
        <polygon class="cls-2" points="132.48 651.21 132.39 651.3 132.31 651.38 132.39 651.47 132.48 651.56 132.56 651.47 132.65 651.38 132.56 651.3 132.48 651.21"/>
        <polygon class="cls-3" points="132.48 651.21 132.39 651.3 132.31 651.38 132.39 651.47 132.48 651.56 132.56 651.47 132.65 651.38 132.56 651.3 132.48 651.21"/>
        <polygon class="cls-2" points="132.48 651.21 132.39 651.3 132.31 651.38 132.39 651.47 132.48 651.56 132.56 651.47 132.65 651.38 132.56 651.3 132.48 651.21"/>
        <polygon class="cls-3" points="132.48 651.21 132.39 651.3 132.31 651.38 132.39 651.47 132.48 651.56 132.56 651.47 132.65 651.38 132.56 651.3 132.48 651.21"/>
        <polygon class="cls-2" points="132.48 651.21 132.39 651.3 132.31 651.38 132.39 651.47 132.48 651.56 132.56 651.47 132.65 651.38 132.56 651.3 132.48 651.21"/>
        <path class="cls-3" d="m132.48,651.63h-.68c-.14,0-.25-.11-.25-.25s.11-.25.25-.25h.68c.14,0,.25.11.25.25s-.11.25-.25.25Z"/>
        <path class="cls-3" d="m153.55,710.01c-6.64,0-12.18-4.98-12.87-11.59-.01-.14.08-.26.22-.28.14-.02.26.09.27.22.67,6.35,5.99,11.14,12.37,11.14.14,0,.25.11.25.25s-.11.25-.25.25Z"/>
        <path class="cls-3" d="m153.55,712.32c-7.83,0-14.35-5.87-15.17-13.65-.01-.14.08-.26.22-.28.14-.02.26.09.27.22.79,7.53,7.1,13.21,14.67,13.21.14,0,.25.11.25.25s-.11.25-.25.25Z"/>
        <path class="cls-3" d="m160.77,710.01h-7.18c-.14,0-.25-.11-.25-.25s.11-.25.25-.25h7.18c.14,0,.25.11.25.25s-.11.25-.25.25Z"/>
        <path class="cls-3" d="m160.77,712.32h-7.18c-.14,0-.25-.11-.25-.25s.11-.25.25-.25h7.18c.14,0,.25.11.25.25s-.11.25-.25.25Z"/>
        <path class="cls-3" d="m160.73,710.01c-.14,0-.25-.11-.25-.25s.11-.25.25-.25c6.38,0,11.7-4.79,12.37-11.14.01-.14.13-.25.27-.22.14.01.24.14.22.28-.7,6.61-6.23,11.59-12.87,11.59Z"/>
        <path class="cls-3" d="m160.73,712.32c-.14,0-.25-.11-.25-.25s.11-.25.25-.25c7.57,0,13.88-5.68,14.67-13.21.01-.14.13-.25.27-.22.14.01.24.14.22.28-.82,7.78-7.34,13.65-15.17,13.65Z"/>
        <path class="cls-3" d="m151.37,674.11s-.03,0-.04,0c-.14-.02-.23-.15-.21-.29l.17-1.03.26-1.13s.01-.04.02-.06l.51-.94.62-.8c.08-.11.24-.13.35-.04.11.08.13.24.04.35l-.6.77-.47.88-.25,1.08-.17,1.01c-.02.12-.13.21-.25.21Z"/>
        <path class="cls-3" d="m154.27,669.16c-.09,0-.18-.05-.22-.14-.06-.12-.01-.27.11-.33l.51-.26,1.06-.36,1.15-.18,1.08.08.53.09c.14.02.23.15.21.29-.02.14-.15.24-.29.21l-.51-.09-1-.08-1.05.17-.98.33-.48.24s-.07.03-.11.03Z"/>
        <path class="cls-3" d="m162.65,672.49c-.1,0-.2-.06-.23-.17l-.34-.94-.57-.89-.74-.82-.81-.56c-.11-.08-.14-.24-.06-.35.08-.11.23-.14.35-.06l.85.6.81.89.62.97.37.99c.05.13-.02.27-.15.32-.03,0-.06.01-.09.01Z"/>
        <path class="cls-3" d="m161.37,678.05c-.06,0-.13-.02-.18-.07-.1-.1-.1-.26,0-.35l.34-.34.56-.9.41-.99.16-.97v-.47c0-.14.11-.25.25-.25s.25.11.25.25v.51l-.17,1.07-.44,1.08-.62.98-.38.38s-.11.07-.18.07Z"/>
        <path class="cls-3" d="m156.94,679.93l-1.17-.17c-.14-.02-.23-.15-.21-.29.02-.14.15-.23.29-.21l1.11.17.97-.09,1.08-.25.89-.41c.13-.06.27,0,.33.12.06.13,0,.27-.12.33l-.94.43-1.16.27-1.06.09Z"/>
        <path class="cls-3" d="m154.27,679.07s-.09-.01-.13-.04l-.43-.26-.88-.7-.72-.89-.54-.98-.19-.55c-.04-.13.03-.27.16-.32.13-.04.27.03.32.16l.17.51.49.9.66.82.82.64.4.24c.12.07.16.22.09.34-.05.08-.13.12-.21.12Z"/>
        <path class="cls-3" d="m42.39,869.33s-.09-.01-.13-.03l-10.94-6.41c-.08-.04-.12-.13-.12-.21,0-.09.05-.17.12-.22l10.94-6.5c.08-.05.17-.05.25,0,.08.04.13.13.13.22v12.91c0,.09-.05.17-.13.22-.04.02-.08.03-.12.03Zm-10.45-6.66l10.2,5.98v-12.03l-10.2,6.05Z"/>
        <path class="cls-3" d="m130.68,813.86h-3.42c-.14,0-.25-.11-.25-.25v-5.81c0-.14.11-.25.25-.25h3.42c.14,0,.25.11.25.25v5.81c0,.14-.11.25-.25.25Zm-3.17-.5h2.92v-5.31h-2.92v5.31Z"/>
        <path class="cls-3" d="m196.41,813.86h-3.42c-.14,0-.25-.11-.25-.25s.11-.25.25-.25h3.17v-5.56c0-.14.11-.25.25-.25s.25.11.25.25v5.81c0,.14-.11.25-.25.25Z"/>
        <path class="cls-3" d="m146.49,855.49c-.06,0-.13-.02-.18-.07-.1-.1-.1-.26,0-.35l44.02-44.1c.1-.1.26-.1.35,0s.1.26,0,.35l-44.02,44.1s-.11.07-.18.07Z"/>
        <path class="cls-3" d="m148.89,857.88c-.06,0-.13-.02-.18-.07-.1-.1-.1-.26,0-.35l44.1-44.02c.1-.1.26-.1.35,0s.1.26,0,.35l-44.1,44.02s-.11.07-.18.07Z"/>
        <path class="cls-3" d="m196.41,813.86h-3.42c-.14,0-.25-.11-.25-.25v-5.81c0-.14.11-.25.25-.25h3.42c.14,0,.25.11.25.25s-.11.25-.25.25h-3.17v5.31h3.17c.14,0,.25.11.25.25s-.11.25-.25.25Z"/>
        <path class="cls-3" d="m192.99,813.86c-.06,0-.13-.02-.18-.07l-2.48-2.48c-.1-.1-.1-.26,0-.35s.26-.1.35,0l2.48,2.48c.1.1.1.26,0,.35-.05.05-.11.07-.18.07Z"/>
        <path class="cls-3" d="m148.92,857.85c-.06,0-.13-.02-.18-.07-11.81-11.81-18.31-27.51-18.31-44.21,0-.14.11-.25.25-.25s.25.11.25.25c0,16.56,6.45,32.14,18.16,43.85.1.1.1.26,0,.35-.05.05-.11.07-.18.07Z"/>
        <path class="cls-3" d="m225.22,715.83h-11.54c-.14,0-.25-.11-.25-.25s.11-.25.25-.25h11.54c.14,0,.25.11.25.25s-.11.25-.25.25Z"/>
        <path class="cls-3" d="m225.22,808.05h-11.54c-.14,0-.25-.11-.25-.25s.11-.25.25-.25h11.54c.14,0,.25.11.25.25s-.11.25-.25.25Z"/>
        <path class="cls-3" d="m555.23,842.67h-11.54c-.14,0-.25-.11-.25-.25s.11-.25.25-.25h11.54c.14,0,.25.11.25.25s-.11.25-.25.25Z"/>
        <path class="cls-3" d="m531.29,117.95l34.53,20.77h-34.53v-20.77Zm34.53,0h-34.53l34.53,20.77v-20.77Z"/>
        <path class="cls-1" d="m531.29,117.95l34.53,20.77h-34.53v-20.77Zm34.53,0h-34.53l34.53,20.77v-20.77Z"/>
        <path class="cls-3" d="m543.69,242.48l11.54,305.74h-11.54V242.48Zm11.54,0h-11.54l11.54,305.74V242.48Z"/>
        <path class="cls-1" d="m543.69,242.48l11.54,305.74h-11.54V242.48Zm11.54,0h-11.54l11.54,305.74V242.48Z"/>
        <path class="cls-3" d="m543.69,548.22l304.8,11.54h-304.8v-11.54Zm304.8,0h-304.8l304.8,11.54v-11.54Z"/>
        <path class="cls-1" d="m543.69,548.22l304.8,11.54h-304.8v-11.54Zm304.8,0h-304.8l304.8,11.54v-11.54Z"/>
        <path class="cls-3" d="m543.69,559.76l11.54,178.9h-11.54v-178.9Zm11.54,0h-11.54l11.54,178.9v-178.9Z"/>
        <path class="cls-1" d="m543.69,559.76l11.54,178.9h-11.54v-178.9Zm11.54,0h-11.54l11.54,178.9v-178.9Z"/>
        <path class="cls-3" d="m543.69,842.42l11.54,69.23h-11.54v-69.23Zm11.54,0h-11.54l11.54,69.23v-69.23Z"/>
        <path class="cls-1" d="m543.69,842.42l11.54,69.23h-11.54v-69.23Zm11.54,0h-11.54l11.54,69.23v-69.23Z"/>
        <path class="cls-3" d="m750.45,790.53l115.39,138.47h-115.39v-138.47Zm115.39,0h-115.39l115.39,138.47v-138.47Z"/>
        <path class="cls-1" d="m750.45,790.53l115.39,138.47h-115.39v-138.47Zm115.39,0h-115.39l115.39,138.47v-138.47Z"/>
        <path class="cls-3" d="m848.49,138.72l17.35,651.82h-17.35V138.72Zm17.35,0h-17.35l17.35,651.82V138.72Z"/>
        <path class="cls-1" d="m848.49,138.72l17.35,651.82h-17.35V138.72Zm17.35,0h-17.35l17.35,651.82V138.72Z"/>
        <path class="cls-3" d="m750.45.25l115.39,138.47h-115.39V.25Zm115.39,0h-115.39l115.39,138.47V.25Z"/>
        <path class="cls-1" d="m750.45.25l115.39,138.47h-115.39V.25Zm115.39,0h-115.39l115.39,138.47V.25Z"/>
        <path class="cls-3" d="m555.23,738.9h-11.54c-.14,0-.25-.11-.25-.25s.11-.25.25-.25h11.54c.14,0,.25.11.25.25s-.11.25-.25.25Z"/>
        <path class="cls-3" d="m555.23,548.47c-.14,0-.25-.11-.25-.25V242.48c0-.14.11-.25.25-.25s.25.11.25.25v305.74c0,.14-.11.25-.25.25Z"/>
        <path class="cls-3" d="m555.23,738.9c-.14,0-.25-.11-.25-.25v-178.89c0-.14.11-.25.25-.25s.25.11.25.25v178.89c0,.14-.11.25-.25.25Z"/>
        <path class="cls-3" d="m555.23,911.9c-.14,0-.25-.11-.25-.25v-69.23c0-.14.11-.25.25-.25s.25.11.25.25v69.23c0,.14-.11.25-.25.25Z"/>
        <path class="cls-3" d="m543.69,738.9c-.14,0-.25-.11-.25-.25V242.48c0-.14.11-.25.25-.25s.25.11.25.25v496.17c0,.14-.11.25-.25.25Z"/>
        <path class="cls-3" d="m543.69,911.9c-.14,0-.25-.11-.25-.25v-69.23c0-.14.11-.25.25-.25s.25.11.25.25v69.23c0,.14-.11.25-.25.25Z"/>
        <path class="cls-3" d="m555.23,242.73h-11.54c-.14,0-.25-.11-.25-.25s.11-.25.25-.25h11.54c.14,0,.25.11.25.25s-.11.25-.25.25Z"/>
        <path class="cls-3" d="m848.49,548.47h-293.26c-.14,0-.25-.11-.25-.25s.11-.25.25-.25h293.26c.14,0,.25.11.25.25s-.11.25-.25.25Z"/>
        <path class="cls-3" d="m848.49,560.01h-293.26c-.14,0-.25-.11-.25-.25s.11-.25.25-.25h293.26c.14,0,.25.11.25.25s-.11.25-.25.25Z"/>
        <path class="cls-3" d="m225.22,622.32H31.45c-.14,0-.25-.11-.25-.25s.11-.25.25-.25h193.77c.14,0,.25.11.25.25s-.11.25-.25.25Z"/>
        <path class="cls-3" d="m92.56,633.86H31.45c-.14,0-.25-.11-.25-.25s.11-.25.25-.25h61.11c.14,0,.25.11.25.25s-.11.25-.25.25Z"/>
        <path class="cls-3" d="m213.68,633.86h-109.58c-.14,0-.25-.11-.25-.25s.11-.25.25-.25h109.58c.14,0,.25.11.25.25s-.11.25-.25.25Z"/>
        <path class="cls-3" d="m225.22,715.83c-.14,0-.25-.11-.25-.25v-93.51c0-.14.11-.25.25-.25s.25.11.25.25v93.51c0,.14-.11.25-.25.25Z"/>
        <path class="cls-3" d="m225.22,911.9c-.14,0-.25-.11-.25-.25v-103.85c0-.14.11-.25.25-.25s.25.11.25.25v103.85c0,.14-.11.25-.25.25Z"/>
        <path class="cls-3" d="m213.68,715.83c-.14,0-.25-.11-.25-.25v-81.97c0-.14.11-.25.25-.25s.25.11.25.25v81.97c0,.14-.11.25-.25.25Z"/>
        <path class="cls-3" d="m213.68,911.9c-.14,0-.25-.11-.25-.25v-103.85c0-.14.11-.25.25-.25s.25.11.25.25v103.85c0,.14-.11.25-.25.25Z"/>
        <path class="cls-3" d="m555.23,842.67c-.14,0-.25-.11-.25-.25v-6.67h-11.04v6.67c0,.14-.11.25-.25.25s-.25-.11-.25-.25v-6.92c0-.14.11-.25.25-.25h11.54c.14,0,.25.11.25.25v6.92c0,.14-.11.25-.25.25Z"/>
        <path class="cls-3" d="m555.23,745.74h-11.54c-.14,0-.25-.11-.25-.25v-6.84c0-.14.11-.25.25-.25s.25.11.25.25v6.59h11.04v-6.59c0-.14.11-.25.25-.25s.25.11.25.25v6.84c0,.14-.11.25-.25.25Z"/>
        <path class="cls-3" d="m645.15,835.74h-89.92c-.14,0-.25-.11-.25-.25v-3.42c0-.14.11-.25.25-.25h89.92c.14,0,.25.11.25.25v3.42c0,.14-.11.25-.25.25Zm-89.67-.5h89.42v-2.92h-89.42v2.92Z"/>
        <path class="cls-3" d="m645.15,835.7c-.14,0-.25-.11-.25-.25,0-49.47-40.24-89.71-89.71-89.71-.14,0-.25-.11-.25-.25s.11-.25.25-.25c49.74,0,90.21,40.47,90.21,90.21,0,.14-.11.25-.25.25Z"/>
        <path class="cls-3" d="m555.23,145.89h-11.54c-.14,0-.25-.11-.25-.25v-6.92c0-.14.11-.25.25-.25s.25.11.25.25v6.67h11.04v-6.67c0-.14.11-.25.25-.25s.25.11.25.25v6.92c0,.14-.11.25-.25.25Z"/>
        <path class="cls-3" d="m555.23,242.73c-.14,0-.25-.11-.25-.25v-6.67h-11.04v6.67c0,.14-.11.25-.25.25s-.25-.11-.25-.25v-6.92c0-.14.11-.25.25-.25h11.54c.14,0,.25.11.25.25v6.92c0,.14-.11.25-.25.25Z"/>
        <path class="cls-3" d="m645.15,149.31h-89.92c-.14,0-.25-.11-.25-.25v-3.42c0-.14.11-.25.25-.25h89.92c.14,0,.25.11.25.25v3.42c0,.14-.11.25-.25.25Zm-89.67-.5h89.42v-2.92h-89.42v2.92Z"/>
        <path class="cls-3" d="m555.18,235.81c-.14,0-.25-.11-.25-.25s.11-.25.25-.25c49.47,0,89.71-40.24,89.71-89.71,0-.14.11-.25.25-.25s.25.11.25.25c0,49.74-40.47,90.21-90.21,90.21Z"/>
        <path class="cls-3" d="m225.22,808.05c-.14,0-.25-.11-.25-.25v-6.67h-11.04v6.67c0,.14-.11.25-.25.25s-.25-.11-.25-.25v-6.92c0-.14.11-.25.25-.25h11.54c.14,0,.25.11.25.25v6.92c0,.14-.11.25-.25.25Z"/>
        <path class="cls-3" d="m225.22,722.75h-11.54c-.14,0-.25-.11-.25-.25v-6.92c0-.14.11-.25.25-.25s.25.11.25.25v6.67h11.04v-6.67c0-.14.11-.25.25-.25s.25.11.25.25v6.92c0,.14-.11.25-.25.25Z"/>
        <path class="cls-3" d="m217.18,801.13c-.14,0-.25-.11-.25-.25v-78.38c0-.14.11-.25.25-.25s.25.11.25.25v78.38c0,.14-.11.25-.25.25Z"/>
        <path class="cls-3" d="m225.22,801.13c-.14,0-.25-.11-.25-.25v-78.38c0-.14.11-.25.25-.25s.25.11.25.25v78.38c0,.14-.11.25-.25.25Z"/>
        <path class="cls-3" d="m213.68,801.13h-78.46c-.14,0-.25-.11-.25-.25v-3.42c0-.14.11-.25.25-.25h78.46c.14,0,.25.11.25.25v3.42c0,.14-.11.25-.25.25Zm-78.21-.5h77.96v-2.92h-77.96v2.92Z"/>
        <path class="cls-3" d="m135.21,801.08c-.14,0-.25-.11-.25-.25,0-43.38,35.29-78.67,78.67-78.67.14,0,.25.11.25.25s-.11.25-.25.25c-43.1,0-78.17,35.07-78.17,78.17,0,.14-.11.25-.25.25Z"/>
        <path class="cls-3" d="m104.1,808.05H31.45c-.14,0-.25-.11-.25-.25v-93.42c0-.14.11-.25.25-.25h72.65c.14,0,.25.11.25.25v93.42c0,.14-.11.25-.25.25Zm-72.4-.5h72.15v-92.92H31.7v92.92Z"/>
        <path class="cls-3" d="m52.21,759.47s-.01,0-.02,0c-.14,0-.24-.13-.23-.27.18-2.61.65-5.2,1.41-7.7.04-.13.18-.21.31-.17.13.04.21.18.17.31-.74,2.46-1.21,5.02-1.39,7.59,0,.13-.12.23-.25.23Z"/>
        <path class="cls-3" d="m53.68,751.85s-.05,0-.07-.01c-.13-.04-.21-.18-.17-.31.87-2.87,2.2-5.56,3.96-7.98.08-.11.24-.14.35-.05.11.08.14.24.06.35-1.73,2.38-3.04,5.01-3.89,7.83-.03.11-.13.18-.24.18Z"/>
        <path class="cls-3" d="m57.52,743.94c-.05,0-.1-.02-.15-.05-.11-.08-.14-.24-.06-.35,1.71-2.35,3.86-4.28,6.4-5.72.12-.07.27-.03.34.09.07.12.03.27-.09.34-2.47,1.41-4.57,3.28-6.24,5.58-.05.07-.12.1-.2.1Z"/>
        <path class="cls-3" d="m63.8,738.3c-.09,0-.17-.04-.22-.13-.07-.12-.03-.27.09-.34,2.09-1.19,4.47-1.82,6.87-1.82.14,0,.25.11.25.25s-.11.25-.25.25c-2.32,0-4.61.61-6.62,1.75-.04.02-.08.03-.12.03Z"/>
        <path class="cls-3" d="m77.3,738.3s-.08-.01-.12-.03c-2.01-1.15-4.3-1.75-6.62-1.75-.14,0-.25-.11-.25-.25s.11-.25.25-.25c2.41,0,4.78.63,6.87,1.82.12.07.16.22.09.34-.05.08-.13.13-.22.13Z"/>
        <path class="cls-3" d="m83.67,743.94c-.08,0-.15-.04-.2-.1-1.67-2.3-3.77-4.17-6.24-5.58-.12-.07-.16-.22-.09-.34s.22-.16.34-.09c2.53,1.44,4.68,3.37,6.4,5.72.08.11.06.27-.06.35-.04.03-.1.05-.15.05Z"/>
        <path class="cls-3" d="m87.51,751.85c-.11,0-.21-.07-.24-.18-.85-2.82-2.16-5.45-3.89-7.83-.08-.11-.06-.27.06-.35.11-.08.27-.06.35.05,1.76,2.42,3.1,5.11,3.96,7.98.04.13-.03.27-.17.31-.02,0-.05.01-.07.01Z"/>
        <path class="cls-3" d="m89.06,761.85c-.14,0-.25-.11-.25-.25,0-3.37-.49-6.72-1.47-9.95-.04-.13.04-.27.17-.31.13-.04.27.03.31.17.99,3.28,1.49,6.67,1.49,10.09,0,.14-.11.25-.25.25Z"/>
        <path class="cls-3" d="m87.58,771.87s-.05,0-.07-.01c-.13-.04-.21-.18-.17-.31.97-3.23,1.47-6.58,1.47-9.95,0-.14.11-.25.25-.25s.25.11.25.25c0,3.42-.5,6.82-1.49,10.09-.03.11-.13.18-.24.18Z"/>
        <path class="cls-3" d="m83.59,779.84c-.05,0-.1-.02-.15-.05-.11-.08-.14-.24-.06-.35,1.73-2.38,3.04-5.01,3.89-7.83.04-.13.18-.21.31-.17.13.04.21.18.17.31-.87,2.87-2.2,5.55-3.96,7.98-.05.07-.12.1-.2.1Z"/>
        <path class="cls-3" d="m77.35,785.5c-.09,0-.17-.04-.22-.13-.07-.12-.03-.27.09-.34,2.47-1.41,4.57-3.28,6.24-5.58.08-.11.24-.14.35-.05.11.08.14.24.06.35-1.71,2.35-3.86,4.28-6.4,5.72-.04.02-.08.03-.12.03Z"/>
        <path class="cls-3" d="m70.55,787.28c-.14,0-.25-.11-.25-.25s.11-.25.25-.25c2.32,0,4.61-.61,6.62-1.75.12-.07.27-.03.34.09.07.12.03.27-.09.34-2.09,1.19-4.46,1.82-6.87,1.82Z"/>
        <path class="cls-3" d="m70.55,787.28c-2.41,0-4.78-.63-6.87-1.82-.12-.07-.16-.22-.09-.34.07-.12.22-.16.34-.09,2.01,1.15,4.3,1.75,6.62,1.75.14,0,.25.11.25.25s-.11.25-.25.25Z"/>
        <path class="cls-3" d="m63.84,785.5s-.08-.01-.12-.03c-2.53-1.44-4.68-3.37-6.4-5.72-.08-.11-.06-.27.06-.35s.27-.06.35.05c1.67,2.3,3.77,4.17,6.24,5.58.12.07.16.22.09.34-.05.08-.13.13-.22.13Z"/>
        <path class="cls-3" d="m57.6,779.84c-.08,0-.15-.04-.2-.1-1.76-2.42-3.1-5.11-3.96-7.98-.04-.13.04-.27.17-.31.13-.04.27.03.31.17.85,2.82,2.16,5.45,3.89,7.83.08.11.06.27-.06.35-.04.03-.1.05-.15.05Z"/>
        <path class="cls-3" d="m53.61,771.87c-.11,0-.21-.07-.24-.18-.75-2.5-1.23-5.09-1.41-7.7,0-.14.09-.26.23-.27.13-.03.26.09.27.23.18,2.57.64,5.12,1.39,7.59.04.13-.03.27-.17.31-.02,0-.05.01-.07.01Z"/>
        <path class="cls-3" d="m45.81,770.61c-.14,0-.25-.11-.25-.25v-17.35c0-.14.11-.25.25-.25s.25.11.25.25v17.35c0,.14-.11.25-.25.25Z"/>
        <path class="cls-3" d="m45.81,764.8c-.13,0-.24-.1-.25-.23-.01-.14.09-.26.23-.27l12.91-1.03c.13-.01.26.09.27.23.01.14-.09.26-.23.27l-12.91,1.03s-.01,0-.02,0Z"/>
        <path class="cls-3" d="m58.71,760.01s-.01,0-.02,0l-12.91-.94c-.14,0-.24-.13-.23-.27.01-.14.14-.25.27-.23l12.91.94c.14,0,.24.13.23.27,0,.13-.12.23-.25.23Z"/>
        <path class="cls-3" d="m51.62,753.26h-5.81c-.14,0-.25-.11-.25-.25s.11-.25.25-.25h5.81c.14,0,.25.11.25.25s-.11.25-.25.25Z"/>
        <path class="cls-3" d="m51.62,770.61h-5.81c-.14,0-.25-.11-.25-.25s.11-.25.25-.25h5.81c.14,0,.25.11.25.25s-.11.25-.25.25Z"/>
        <path class="cls-3" d="m51.62,759.5c-.14,0-.25-.11-.25-.25v-6.24c0-.14.11-.25.25-.25s.25.11.25.25v6.24c0,.14-.11.25-.25.25Z"/>
        <path class="cls-3" d="m51.62,770.61c-.14,0-.25-.11-.25-.25v-6.24c0-.14.11-.25.25-.25s.25.11.25.25v6.24c0,.14-.11.25-.25.25Z"/>
        <path class="cls-3" d="m51.62,756.17h-5.81c-.14,0-.25-.11-.25-.25s.11-.25.25-.25h5.81c.14,0,.25.11.25.25s-.11.25-.25.25Z"/>
        <path class="cls-3" d="m51.62,767.71h-5.81c-.14,0-.25-.11-.25-.25s.11-.25.25-.25h5.81c.14,0,.25.11.25.25s-.11.25-.25.25Z"/>
        <path class="cls-3" d="m48.71,759.07c-.14,0-.25-.11-.25-.25v-5.81c0-.14.11-.25.25-.25s.25.11.25.25v5.81c0,.14-.11.25-.25.25Z"/>
        <path class="cls-3" d="m48.67,758.99c-1.72,0-3.11-1.4-3.11-3.11s1.4-3.11,3.11-3.11,3.11,1.4,3.11,3.11-1.4,3.11-3.11,3.11Zm0-5.73c-1.44,0-2.61,1.17-2.61,2.61s1.17,2.61,2.61,2.61,2.61-1.17,2.61-2.61-1.17-2.61-2.61-2.61Z"/>
        <path class="cls-3" d="m48.67,770.53c-1.72,0-3.11-1.4-3.11-3.11s1.4-3.11,3.11-3.11,3.11,1.4,3.11,3.11-1.4,3.11-3.11,3.11Zm0-5.73c-1.44,0-2.61,1.17-2.61,2.61s1.17,2.61,2.61,2.61,2.61-1.17,2.61-2.61-1.17-2.61-2.61-2.61Z"/>
        <path class="cls-3" d="m48.71,770.61c-.14,0-.25-.11-.25-.25v-5.81c0-.14.11-.25.25-.25s.25.11.25.25v5.81c0,.14-.11.25-.25.25Z"/>
        <path class="cls-3" d="m46.66,758.22c-.06,0-.13-.02-.18-.07-.1-.1-.1-.26,0-.35l4.1-4.1c.1-.1.26-.1.35,0s.1.26,0,.35l-4.1,4.1s-.11.07-.18.07Z"/>
        <path class="cls-3" d="m50.76,758.22c-.06,0-.13-.02-.18-.07l-4.1-4.1c-.1-.1-.1-.26,0-.35s.26-.1.35,0l4.1,4.1c.1.1.1.26,0,.35-.05.05-.11.07-.18.07Z"/>
        <path class="cls-3" d="m46.66,769.76c-.06,0-.13-.02-.18-.07-.1-.1-.1-.26,0-.35l4.1-4.1c.1-.1.26-.1.35,0s.1.26,0,.35l-4.1,4.1s-.11.07-.18.07Z"/>
        <path class="cls-3" d="m50.76,769.76c-.06,0-.13-.02-.18-.07l-4.1-4.1c-.1-.1-.1-.26,0-.35s.26-.1.35,0l4.1,4.1c.1.1.1.26,0,.35-.05.05-.11.07-.18.07Z"/>
        <path class="cls-3" d="m58.67,763.69c-.14,0-.25-.11-.25-.25s.11-.25.25-.25c.88,0,1.59-.71,1.59-1.59s-.71-1.59-1.59-1.59c-.14,0-.25-.11-.25-.25s.11-.25.25-.25c1.15,0,2.09.94,2.09,2.09s-.94,2.09-2.09,2.09Z"/>
        <path class="cls-3" d="m48.67,763.18c-.77,0-1.4-.63-1.4-1.4s.63-1.4,1.4-1.4,1.4.63,1.4,1.4-.63,1.4-1.4,1.4Zm0-2.31c-.5,0-.9.41-.9.9s.41.9.9.9.9-.41.9-.9-.41-.9-.9-.9Z"/>
        <path class="cls-3" d="m61.41,764.71c-.92,0-1.82-.41-2.42-1.15-.09-.11-.07-.26.04-.35.11-.09.26-.07.35.04.7.86,1.86,1.18,2.9.82,1.04-.37,1.74-1.36,1.74-2.46s-.7-2.09-1.74-2.46c-1.04-.37-2.21-.04-2.9.82-.09.11-.24.12-.35.04-.11-.09-.12-.25-.04-.35.83-1.02,2.22-1.41,3.46-.97,1.24.44,2.07,1.62,2.07,2.93s-.83,2.49-2.07,2.93c-.34.12-.69.18-1.04.18Z"/>
        <path class="cls-3" d="m61.41,765.91c-1.54,0-3.01-.83-3.78-2.24-.07-.12-.02-.27.1-.34.12-.07.27-.02.34.1.84,1.52,2.6,2.29,4.29,1.86,1.69-.43,2.86-1.95,2.86-3.69s-1.18-3.26-2.86-3.69c-1.69-.43-3.45.33-4.29,1.86-.07.12-.22.17-.34.1-.12-.07-.17-.22-.1-.34.95-1.73,2.94-2.59,4.85-2.1,1.91.49,3.24,2.21,3.24,4.17s-1.33,3.69-3.24,4.17c-.36.09-.72.14-1.07.14Z"/>
        <path class="cls-3" d="m61.45,791.04c-.11,0-.21-.08-.24-.19l-2.31-9.32c-.03-.13.05-.27.18-.3.13-.04.27.05.3.18l2.31,9.32c.03.13-.05.27-.18.3-.02,0-.04,0-.06,0Z"/>
        <path class="cls-3" d="m59.14,742.15s-.04,0-.06,0c-.13-.03-.22-.17-.18-.3l2.31-9.32c.03-.13.17-.22.3-.18.13.03.22.17.18.3l-2.31,9.32c-.03.11-.13.19-.24.19Z"/>
        <path class="cls-3" d="m85.58,783.49c-.06,0-.11-.02-.16-.06-.11-.09-.12-.25-.03-.35,2.33-2.84,4.12-6.05,5.3-9.53.04-.13.19-.2.32-.16.13.04.2.19.16.32-1.21,3.54-3.02,6.8-5.39,9.68-.05.06-.12.09-.19.09Z"/>
        <path class="cls-3" d="m77.29,790.09c-.09,0-.18-.05-.22-.14-.06-.12-.01-.27.11-.34,3.17-1.6,5.92-3.8,8.17-6.54.09-.11.25-.12.35-.04.11.09.12.25.03.35-2.3,2.8-5.1,5.04-8.33,6.67-.04.02-.07.03-.11.03Z"/>
        <path class="cls-3" d="m68.33,792.24c-.14,0-.25-.11-.25-.25s.11-.25.25-.25c3.07,0,6.14-.73,8.87-2.11.12-.06.27-.01.34.11.06.12.01.27-.11.34-2.81,1.42-5.95,2.17-9.1,2.17Z"/>
        <path class="cls-3" d="m68.33,792.24c-3.15,0-6.29-.75-9.1-2.17-.12-.06-.17-.21-.11-.34.06-.12.21-.17.34-.11,2.74,1.38,5.81,2.11,8.87,2.11.14,0,.25.11.25.25s-.11.25-.25.25Z"/>
        <path class="cls-3" d="m59.28,790.09s-.08,0-.11-.03c-3.23-1.63-6.04-3.87-8.33-6.67-.09-.11-.07-.26.03-.35.11-.09.26-.07.35.04,2.25,2.74,5,4.94,8.17,6.54.12.06.17.21.11.34-.04.09-.13.14-.22.14Z"/>
        <path class="cls-3" d="m51,783.49c-.07,0-.14-.03-.19-.09-2.37-2.89-4.18-6.15-5.39-9.69-.04-.13.03-.27.16-.32.13-.05.27.02.32.16,1.19,3.48,2.97,6.69,5.3,9.53.09.11.07.26-.03.35-.05.04-.1.06-.16.06Z"/>
        <path class="cls-3" d="m45.74,773.84c-.1,0-.2-.07-.24-.17-1.33-3.89-2-7.96-2-12.07,0-.14.11-.25.25-.25s.25.11.25.25c0,4.06.66,8.07,1.97,11.91.04.13-.03.27-.16.32-.03,0-.05.01-.08.01Z"/>
        <path class="cls-3" d="m43.76,761.85c-.14,0-.25-.11-.25-.25,0-4.12.67-8.18,2-12.07.04-.13.19-.2.32-.16.13.04.2.19.16.32-1.31,3.84-1.97,7.85-1.97,11.91,0,.14-.11.25-.25.25Z"/>
        <path class="cls-3" d="m45.65,749.9s-.05,0-.08-.01c-.13-.04-.2-.19-.16-.32,1.2-3.54,3.02-6.8,5.39-9.68.09-.11.25-.12.35-.04.11.09.12.25.03.35-2.33,2.84-4.12,6.05-5.3,9.53-.04.1-.13.17-.24.17Z"/>
        <path class="cls-3" d="m51.03,740.3c-.06,0-.11-.02-.16-.06-.11-.09-.12-.25-.03-.35,2.3-2.8,5.1-5.04,8.33-6.67.12-.06.27-.01.34.11.06.12.01.27-.11.34-3.17,1.6-5.92,3.8-8.17,6.54-.05.06-.12.09-.19.09Z"/>
        <path class="cls-3" d="m59.34,733.69c-.09,0-.18-.05-.22-.14-.06-.12-.01-.27.11-.34,2.81-1.42,5.95-2.17,9.1-2.17.14,0,.25.11.25.25s-.11.25-.25.25c-3.07,0-6.14.73-8.87,2.11-.04.02-.07.03-.11.03Z"/>
        <path class="cls-3" d="m77.32,733.69s-.08,0-.11-.03c-2.74-1.38-5.81-2.11-8.87-2.11-.14,0-.25-.11-.25-.25s.11-.25.25-.25c3.15,0,6.29.75,9.1,2.17.12.06.17.21.11.34-.04.09-.13.14-.22.14Z"/>
        <path class="cls-3" d="m85.55,740.3c-.07,0-.14-.03-.19-.09-2.25-2.74-5-4.95-8.17-6.54-.12-.06-.17-.21-.11-.34.06-.12.21-.17.34-.11,3.23,1.63,6.04,3.87,8.33,6.67.09.11.07.26-.03.35-.05.04-.1.06-.16.06Z"/>
        <path class="cls-3" d="m90.92,749.9c-.1,0-.2-.07-.24-.17-1.18-3.48-2.97-6.69-5.3-9.53-.09-.11-.07-.26.03-.35.11-.09.26-.07.35.04,2.37,2.89,4.19,6.15,5.39,9.68.04.13-.03.27-.16.32-.03,0-.05.01-.08.01Z"/>
        <path class="cls-3" d="m92.82,761.85c-.14,0-.25-.11-.25-.25,0-4.06-.66-8.07-1.97-11.91-.04-.13.03-.27.16-.32.13-.05.27.02.32.16,1.33,3.9,2,7.96,2,12.07,0,.14-.11.25-.25.25Z"/>
        <path class="cls-3" d="m90.83,773.84s-.05,0-.08-.01c-.13-.04-.2-.19-.16-.32,1.31-3.84,1.97-7.85,1.97-11.91,0-.14.11-.25.25-.25s.25.11.25.25c0,4.11-.67,8.18-2,12.07-.04.1-.13.17-.24.17Z"/>
        <path class="cls-3" d="m87.1,784.74c-.06,0-.11-.02-.16-.06-.11-.09-.12-.25-.03-.35,2.49-3.02,4.38-6.44,5.65-10.14.04-.13.19-.2.32-.16.13.04.2.19.16.32-1.28,3.76-3.21,7.23-5.73,10.3-.05.06-.12.09-.19.09Z"/>
        <path class="cls-3" d="m78.18,791.85c-.09,0-.18-.05-.22-.14-.06-.12-.01-.27.11-.34,3.42-1.72,6.38-4.09,8.81-7.05.09-.11.25-.12.35-.03.11.09.12.25.03.35-2.47,3.01-5.49,5.43-8.97,7.18-.04.02-.07.03-.11.03Z"/>
        <path class="cls-3" d="m68.33,794.2c-.14,0-.25-.11-.25-.25s.11-.25.25-.25c3.37,0,6.75-.8,9.76-2.32.12-.06.27-.01.34.11.06.12.01.27-.11.34-3.08,1.55-6.53,2.38-9.98,2.38Z"/>
        <path class="cls-3" d="m68.33,794.2c-3.45,0-6.9-.82-9.99-2.38-.12-.06-.17-.21-.11-.34.06-.12.21-.17.34-.11,3.01,1.52,6.39,2.32,9.76,2.32.14,0,.25.11.25.25s-.11.25-.25.25Z"/>
        <path class="cls-3" d="m58.4,791.85s-.08,0-.11-.03c-3.48-1.75-6.49-4.17-8.97-7.18-.09-.11-.07-.26.03-.35.11-.09.26-.07.35.03,2.43,2.96,5.39,5.33,8.81,7.05.12.06.17.21.11.34-.04.09-.13.14-.22.14Z"/>
        <path class="cls-3" d="m49.48,784.74c-.07,0-.14-.03-.19-.09-2.52-3.07-4.45-6.54-5.73-10.3-.04-.13.03-.27.16-.32.13-.05.27.02.32.16,1.26,3.71,3.16,7.12,5.65,10.14.09.11.07.26-.03.35-.05.04-.1.06-.16.06Z"/>
        <path class="cls-3" d="m43.88,774.48c-.1,0-.2-.07-.24-.17-1.39-4.1-2.1-8.37-2.1-12.7,0-.14.11-.25.25-.25s.25.11.25.25c0,4.28.7,8.5,2.08,12.54.04.13-.03.27-.16.32-.03,0-.05.01-.08.01Z"/>
        <path class="cls-3" d="m41.79,761.85c-.14,0-.25-.11-.25-.25,0-4.33.71-8.61,2.1-12.71.04-.13.19-.2.32-.16.13.04.2.19.16.32-1.38,4.05-2.08,8.27-2.08,12.54,0,.14-.11.25-.25.25Z"/>
        <path class="cls-3" d="m43.79,749.27s-.05,0-.08-.01c-.13-.04-.2-.19-.16-.32,1.28-3.76,3.21-7.23,5.73-10.3.09-.11.25-.12.35-.04s.12.25.03.35c-2.48,3.03-4.38,6.44-5.65,10.14-.04.1-.13.17-.24.17Z"/>
        <path class="cls-3" d="m49.51,739.06c-.06,0-.11-.02-.16-.06-.11-.09-.12-.25-.03-.35,2.47-3.01,5.49-5.43,8.97-7.18.12-.06.27-.01.34.11.06.12.01.27-.11.34-3.41,1.72-6.38,4.09-8.81,7.05-.05.06-.12.09-.19.09Z"/>
        <path class="cls-3" d="m58.46,731.93c-.09,0-.18-.05-.22-.14-.06-.12-.01-.27.11-.34,3.08-1.55,6.54-2.38,9.99-2.38.14,0,.25.11.25.25s-.11.25-.25.25c-3.37,0-6.75.8-9.76,2.32-.04.02-.07.03-.11.03Z"/>
        <path class="cls-3" d="m78.2,731.93s-.08,0-.11-.03c-3.01-1.52-6.39-2.32-9.76-2.32-.14,0-.25-.11-.25-.25s.11-.25.25-.25c3.45,0,6.9.82,9.98,2.38.12.06.17.21.11.34-.04.09-.13.14-.22.14Z"/>
        <path class="cls-3" d="m87.06,739.06c-.07,0-.14-.03-.19-.09-2.43-2.96-5.39-5.33-8.81-7.05-.12-.06-.17-.21-.11-.34.06-.12.21-.17.34-.11,3.48,1.75,6.5,4.17,8.97,7.18.09.11.07.26-.03.35-.05.04-.1.06-.16.06Z"/>
        <path class="cls-3" d="m92.78,749.27c-.1,0-.2-.07-.24-.17-1.26-3.7-3.16-7.12-5.65-10.14-.09-.11-.07-.26.03-.35.11-.09.26-.07.35.04,2.52,3.07,4.45,6.54,5.73,10.3.04.13-.03.27-.16.32-.03,0-.05.01-.08.01Z"/>
        <path class="cls-3" d="m94.78,761.85c-.14,0-.25-.11-.25-.25,0-4.28-.7-8.5-2.08-12.54-.04-.13.03-.27.16-.32.13-.05.27.02.32.16,1.39,4.1,2.1,8.37,2.1,12.71,0,.14-.11.25-.25.25Z"/>
        <path class="cls-3" d="m92.69,774.48s-.05,0-.08-.01c-.13-.04-.2-.19-.16-.32,1.38-4.05,2.08-8.27,2.08-12.54,0-.14.11-.25.25-.25s.25.11.25.25c0,4.33-.71,8.61-2.1,12.7-.04.1-.13.17-.24.17Z"/>
        <path class="cls-3" d="m92.56,703.09H31.45c-.14,0-.25-.11-.25-.25s.11-.25.25-.25h61.11c.14,0,.25.11.25.25s-.11.25-.25.25Z"/>
        <path class="cls-3" d="m104.1,714.63H31.45c-.14,0-.25-.11-.25-.25s.11-.25.25-.25h72.4v-80.52c0-.14.11-.25.25-.25s.25.11.25.25v80.77c0,.14-.11.25-.25.25Z"/>
        <path class="cls-3" d="m92.56,703.09c-.14,0-.25-.11-.25-.25v-69.23c0-.14.11-.25.25-.25s.25.11.25.25v69.23c0,.14-.11.25-.25.25Z"/>
        <path class="cls-3" d="m34.87,703.09c-.06,0-.11-.02-.16-.06-.11-.09-.12-.25-.03-.35l57.69-69.23c.09-.11.25-.12.35-.03.11.09.12.25.03.35l-57.69,69.23c-.05.06-.12.09-.19.09Z"/>
        <path class="cls-3" d="m92.56,703.09c-.07,0-.14-.03-.19-.09l-57.69-69.23c-.09-.11-.07-.26.03-.35.11-.09.26-.08.35.03l57.69,69.23c.09.11.07.26-.03.35-.05.04-.1.06-.16.06Z"/>
        <path class="cls-3" d="m344.79,116.83h-103.85c-.14,0-.25-.11-.25-.25v-50.77c0-.14.11-.25.25-.25h103.85c.14,0,.25.11.25.25v50.77c0,.14-.11.25-.25.25Zm-103.6-.5h103.35v-50.27h-103.35v50.27Z"/>
        <path class="cls-3" d="m240.94,116.83c-.09,0-.18-.05-.22-.14-.06-.12,0-.27.11-.33l103.85-50.77c.12-.06.27,0,.33.12.06.12,0,.27-.11.33l-103.85,50.77s-.07.03-.11.03Z"/>
        <path class="cls-3" d="m266.5,101.1c-.11,0-.21-.07-.24-.18l-6.85-22.3-6.77,22.29c-.04.13-.18.21-.31.17-.13-.04-.21-.18-.17-.31l7.01-23.08c.03-.11.13-.18.24-.18h0c.11,0,.21.07.24.18l7.09,23.08c.04.13-.03.27-.17.31-.02,0-.05.01-.07.01Z"/>
        <path class="cls-3" d="m263.85,93.41h-8.8c-.14,0-.25-.11-.25-.25s.11-.25.25-.25h8.8c.14,0,.25.11.25.25s-.11.25-.25.25Z"/>
        <path class="cls-3" d="m328.04,112.9h-3.5s-.09-.01-.12-.03l-1.79-1.03s-.05-.04-.07-.06l-1.71-2.22s-.02-.04-.03-.05l-.94-2.22-.87-3.28s0-.04,0-.06v-5.56s0-.04,0-.06l.85-3.25.95-2.26s.02-.04.03-.05l1.71-2.22s.04-.04.07-.06l1.79-1.11s.09-.04.13-.04h3.5s.09.01.13.04l1.79,1.11s.05.04.07.06l1.71,2.22s.03.04.04.06l.85,2.22c.05.13-.01.27-.14.32-.13.05-.27-.01-.32-.14l-.84-2.19-1.66-2.16-1.7-1.05h-3.36l-1.7,1.05-1.66,2.16-.93,2.19-.84,3.18v5.49l.85,3.22.92,2.16,1.66,2.16,1.69.97h3.37l1.69-.97,1.66-2.15.84-2.19c.05-.13.19-.19.32-.14.13.05.19.19.14.32l-.85,2.22s-.02.04-.04.06l-1.71,2.22s-.05.05-.07.06l-1.79,1.03s-.08.03-.12.03Z"/>
        <path class="cls-3" d="m77.18,184.35c-.14,0-.25-.11-.25-.25v-58.55c0-.14.11-.25.25-.25s.25.11.25.25v58.55c0,.14-.11.25-.25.25Z"/>
        <path class="cls-3" d="m82.05,168.8c-.05,0-.1-.02-.15-.05l-.87-.64h-.94c-.09,0-.18-.05-.22-.14-.04-.08-.03-.19.02-.26l.51-.68c.08-.11.24-.13.35-.05.11.08.13.24.05.35l-.21.28h.53c.05,0,.1.02.15.05l.8.58,1.85-1.24,1.91-3.49.42-4.82-.43-4.92-1.53-5.6-2.46-4.91c-.03-.06-.03-.13-.01-.2l1.54-4.19,2.41-11.72h-8.58c-.14,0-.25-.11-.25-.25s.11-.25.25-.25h8.89c.08,0,.15.03.19.09.05.06.07.13.05.21l-2.48,12.05-1.51,4.12,2.43,4.86,1.56,5.69.44,5-.43,4.92s-.01.07-.03.1l-1.97,3.59s-.05.07-.08.09l-2.05,1.37s-.09.04-.14.04Z"/>
        <path class="cls-3" d="m114.19,143.41h-19.23c-.14,0-.25-.11-.25-.25v-17.61c0-.14.11-.25.25-.25h19.23c.14,0,.25.11.25.25v17.61c0,.14-.11.25-.25.25Zm-18.98-.5h18.73v-17.11h-18.73v17.11Z"/>
        <path class="cls-3" d="m114.19,134.95h-19.23c-.14,0-.25-.11-.25-.25s.11-.25.25-.25h19.23c.14,0,.25.11.25.25s-.11.25-.25.25Z"/>
        <path class="cls-3" d="m118.12,151.19h-28.63c-.14,0-.25-.11-.25-.25s.11-.25.25-.25h28.63c.14,0,.25.11.25.25s-.11.25-.25.25Z"/>
        <path class="cls-3" d="m90,168.8c-.06,0-.11-.02-.16-.06-.11-.09-.12-.24-.04-.35l3.4-4.16,3.49-7.75,1.44-5.6c.03-.13.17-.21.3-.18.13.03.21.17.18.3l-1.45,5.64-3.52,7.82s-.02.04-.03.06l-3.42,4.19c-.05.06-.12.09-.19.09Z"/>
        <path class="cls-3" d="m113.16,182.9h-2.48s-.06,0-.08-.01l-1.97-.68c-.13-.05-.2-.19-.15-.32.05-.13.19-.2.32-.15l1.93.67h2.29l2.38-4.02.51-4.9v-13.83h-19.5c-.14,0-.25-.11-.25-.25s.11-.25.25-.25h19.74c.14,0,.25.11.25.25v14.1l-.51,4.98s-.02.07-.03.1l-2.48,4.19c-.05.08-.13.12-.22.12Z"/>
        <path class="cls-3" d="m89.48,182.22c-.06,0-.13-.02-.18-.07-.1-.1-.1-.26,0-.35l4.96-4.96,5.33-8.39,2.47-7.75c.04-.13.18-.2.31-.16.13.04.2.18.16.31l-2.48,7.78s-.02.04-.03.06l-5.38,8.46-4.99,5s-.11.07-.18.07Z"/>
        <path class="cls-3" d="m99.83,184.35c-.05,0-.11-.02-.16-.05-.11-.09-.13-.24-.04-.35l3.91-4.93,4-9.12,1.95-9.18c.03-.14.16-.22.3-.19.13.03.22.16.19.3l-1.97,9.23-4.03,9.19s-.02.04-.03.05l-3.93,4.96c-.05.06-.12.09-.2.09Z"/>
        <path class="cls-3" d="m174.36,129.99h-35.98c-.14,0-.25-.11-.25-.25s.11-.25.25-.25h35.98c.14,0,.25.11.25.25s-.11.25-.25.25Z"/>
        <path class="cls-3" d="m156.58,135.63c-.14,0-.25-.11-.25-.25v-10.51c0-.14.11-.25.25-.25s.25.11.25.25v10.51c0,.14-.11.25-.25.25Z"/>
        <path class="cls-3" d="m172.39,135.63h-30.6c-.14,0-.25-.11-.25-.25s.11-.25.25-.25h30.6c.14,0,.25.11.25.25s-.11.25-.25.25Z"/>
        <path class="cls-3" d="m171.45,148.37h-27.69c-.14,0-.25-.11-.25-.25v-7.09c0-.14.11-.25.25-.25h27.69c.14,0,.25.11.25.25v7.09c0,.14-.11.25-.25.25Zm-27.44-.5h27.19v-6.59h-27.19v6.59Z"/>
        <path class="cls-3" d="m175.81,161.79c-.14,0-.25-.11-.25-.25v-7.53h-36.94v7.53c0,.14-.11.25-.25.25s-.25-.11-.25-.25v-7.78c0-.14.11-.25.25-.25h37.44c.14,0,.25.11.25.25v7.78c0,.14-.11.25-.25.25Z"/>
        <path class="cls-3" d="m171.45,159.65h-28.21c-.14,0-.25-.11-.25-.25s.11-.25.25-.25h28.21c.14,0,.25.11.25.25s-.11.25-.25.25Z"/>
        <path class="cls-3" d="m147.69,169.48s-.09-.01-.14-.04c-.12-.08-.15-.23-.07-.35l6.41-9.83c.08-.12.23-.15.35-.07.12.08.15.23.07.35l-6.41,9.83c-.05.07-.13.11-.21.11Z"/>
        <path class="cls-3" d="m144.79,170.25c-.13,0-.24-.1-.25-.23,0-.14.1-.26.23-.27l23.68-1.45c.12,0,.26.1.26.23,0,.14-.1.26-.23.27l-23.68,1.45h-.02Z"/>
        <path class="cls-3" d="m170.43,172.3c-.08,0-.15-.03-.2-.1l-1.03-1.37-1.48-2.86-1.44-2.11c-.08-.11-.05-.27.07-.35.11-.08.27-.05.35.07l1.45,2.14,1.47,2.85,1,1.33c.08.11.06.27-.05.35-.04.03-.1.05-.15.05Z"/>
        <path class="cls-3" d="m171.88,177.26h-29.57c-.14,0-.25-.11-.25-.25s.11-.25.25-.25h29.57c.14,0,.25.11.25.25s-.11.25-.25.25Z"/>
        <path class="cls-3" d="m156.58,184.35c-.14,0-.25-.11-.25-.25v-14.1c0-.14.11-.25.25-.25s.25.11.25.25v14.1c0,.14-.11.25-.25.25Z"/>
        <path class="cls-3" d="m175.38,184.35h-37.01c-.14,0-.25-.11-.25-.25s.11-.25.25-.25h37.01c.14,0,.25.11.25.25s-.11.25-.25.25Z"/>
      </g>
      <g>
        <path class="cls-3" d="m438.36,510.23c-.98,1.7-2.62,3.4-4.9,5.1-3.75,2.73-7.98,4.09-12.68,4.09-5.9,0-10.82-1.97-14.76-5.9-4.61-4.61-6.91-11.2-6.91-19.79,0-7.92,2.28-14.29,6.84-19.12,4.16-4.38,9.23-6.57,15.23-6.57,2.37,0,4.87.4,7.51,1.21,2.64.81,4,1.21,4.09,1.21,1.16,0,1.95-.76,2.35-2.28l1.74-.13.54,16.16-1.41.14c-2.15-9.44-6.91-14.15-14.29-14.15-2.1,0-4.25.38-6.44,1.14-2.42.94-4.32,2.15-5.7,3.62-3.71,4.16-5.59,10.46-5.63,18.92-.04,7.51,1.99,13.37,6.1,17.57,3.49,3.58,7.69,5.37,12.61,5.37,5.5,0,10.46-2.59,14.89-7.78l.8,1.21Z"/>
        <path class="cls-3" d="m468.34,502.45c0,5.1-1.72,9.19-5.16,12.28-3.45,3.13-7.78,4.69-13.01,4.69-1.48,0-2.86-.22-4.16-.67-1.88-.67-2.82-1.54-2.82-2.62,0-1.52.63-2.28,1.88-2.28.18,0,.34.02.47.07,2.46,1.07,3.76,1.63,3.89,1.68,1.97.71,3.78,1.01,5.43.87,2.73-.18,5.12-1.34,7.18-3.49,2.01-2.1,3.02-4.63,3.02-7.58,0-5.1-1.59-8.59-4.76-10.46-3.13-1.83-6.48-2.66-10.06-2.48v-.2c3.44-1.21,6.3-2.86,8.59-4.96,2.59-2.37,3.89-4.81,3.89-7.31,0-2.19-.83-4.29-2.48-6.31-1.83-2.19-3.98-3.29-6.44-3.29-2.77,0-5.79,3.13-9.06,9.39l-1.21-.27c2.06-7.65,6.21-11.47,12.48-11.47,3.62,0,6.33,1.25,8.12,3.75,1.25,1.79,1.88,3.78,1.88,5.97,0,4.25-2.06,7.92-6.17,11,2.68,1.52,4.49,2.82,5.43,3.89,2.06,2.33,3.09,5.59,3.09,9.79Z"/>
      </g>
      <g>
        <path class="cls-3" d="m467.45,550.01h-64.7c-.09,0-.17-.05-.22-.12l-32.31-55.98c-.04-.08-.04-.17,0-.25l32.31-56.07c.04-.08.13-.12.22-.12h64.7c.09,0,.17.05.22.12l32.39,56.07c.04.08.04.17,0,.25l-32.39,55.98c-.04.08-.13.12-.22.12Zm-64.56-.5h64.41l32.25-55.73-32.25-55.82h-64.41l-32.17,55.82,32.17,55.73Z"/>
        <path class="cls-3" d="m33.76,490.77c-.14,0-.25-.11-.25-.25v-2.22c0-.14.11-.25.25-.25s.25.11.25.25v2.22c0,.14-.11.25-.25.25Z"/>
        <path class="cls-3" d="m34.01,491.03c-.14,0-.25-.11-.25-.25v-2.73c0-.14.11-.25.25-.25s.25.11.25.25v2.73c0,.14-.11.25-.25.25Z"/>
        <path class="cls-3" d="m33.76,490.77h-.85c-.14,0-.25-.11-.25-.25s.11-.25.25-.25h.85c.14,0,.25.11.25.25s-.11.25-.25.25Z"/>
        <path class="cls-3" d="m33.76,488.55h-.85c-.14,0-.25-.11-.25-.25s.11-.25.25-.25h.85c.14,0,.25.11.25.25s-.11.25-.25.25Z"/>
        <path class="cls-3" d="m34.01,491.03c-.06,0-.13-.02-.18-.07l-.26-.26c-.1-.1-.1-.26,0-.35s.26-.1.35,0l.26.26c.1.1.1.26,0,.35-.05.05-.11.07-.18.07Z"/>
        <path class="cls-3" d="m33.76,488.55c-.06,0-.13-.02-.18-.07-.1-.1-.1-.26,0-.35l.26-.26c.1-.1.26-.1.35,0s.1.26,0,.35l-.26.26s-.11.07-.18.07Z"/>
        <path class="cls-3" d="m32.9,490.77c-.14,0-.25-.11-.25-.25v-2.22c0-.14.11-.25.25-.25s.25.11.25.25v2.22c0,.14-.11.25-.25.25Z"/>
        <path class="cls-3" d="m32.9,490.6h-1.45c-.14,0-.25-.11-.25-.25s.11-.25.25-.25h1.45c.14,0,.25.11.25.25s-.11.25-.25.25Z"/>
        <path class="cls-3" d="m32.9,488.72h-1.45c-.14,0-.25-.11-.25-.25s.11-.25.25-.25h1.45c.14,0,.25.11.25.25s-.11.25-.25.25Z"/>
        <path class="cls-3" d="m34.95,491.03h-.94c-.14,0-.25-.11-.25-.25s.11-.25.25-.25h.94c.14,0,.25.11.25.25s-.11.25-.25.25Z"/>
        <path class="cls-3" d="m34.95,488.3h-.94c-.14,0-.25-.11-.25-.25s.11-.25.25-.25h.94c.14,0,.25.11.25.25s-.11.25-.25.25Z"/>
        <path class="cls-3" d="m42.56,489.66h-.94c-.14,0-.25-.11-.25-.25s.11-.25.25-.25h.94c.14,0,.25.11.25.25s-.11.25-.25.25Z"/>
        <path class="cls-3" d="m50.94,489.66h-7.52c-.14,0-.25-.11-.25-.25s.11-.25.25-.25h7.52c.14,0,.25.11.25.25s-.11.25-.25.25Z"/>
        <path class="cls-3" d="m44.78,498.72h-4.1c-.14,0-.25-.11-.25-.25s.11-.25.25-.25h4.1c.14,0,.25.11.25.25s-.11.25-.25.25Z"/>
        <path class="cls-3" d="m44.78,480.77h-4.1c-.14,0-.25-.11-.25-.25s.11-.25.25-.25h4.1c.14,0,.25.11.25.25s-.11.25-.25.25Z"/>
        <path class="cls-3" d="m40.68,498.72c-.14,0-.25-.11-.25-.25v-5.47c0-.14.11-.25.25-.25s.25.11.25.25v5.47c0,.14-.11.25-.25.25Z"/>
        <path class="cls-3" d="m44.78,498.72c-.14,0-.25-.11-.25-.25v-5.04c0-.14.11-.25.25-.25s.25.11.25.25v5.04c0,.14-.11.25-.25.25Z"/>
        <path class="cls-3" d="m44.78,485.99h-4.1c-.14,0-.25-.11-.25-.25s.11-.25.25-.25h4.1c.14,0,.25.11.25.25s-.11.25-.25.25Z"/>
        <path class="cls-3" d="m44.78,493.77h-4.1c-.14,0-.25-.11-.25-.25s.11-.25.25-.25h4.1c.14,0,.25.11.25.25s-.11.25-.25.25Z"/>
        <path class="cls-3" d="m39.57,492.06h-.01l-4.02-.17c-.14,0-.25-.12-.24-.26,0-.14.09-.25.26-.24l4.02.17c.14,0,.25.12.24.26,0,.13-.12.24-.25.24Z"/>
        <path class="cls-3" d="m35.46,487.44c-.14,0-.25-.11-.25-.25,0-.14.11-.25.24-.25l4.1-.08h0c.14,0,.25.11.25.25,0,.14-.11.25-.24.25l-4.1.08h0Z"/>
        <path class="cls-3" d="m46.66,486.84h-1.11c-.14,0-.25-.11-.25-.25s.11-.25.25-.25h1.11c.14,0,.25.11.25.25s-.11.25-.25.25Z"/>
        <path class="cls-3" d="m47.43,492.14c-.14,0-.25-.11-.25-.25v-4.44c0-.14.11-.25.25-.25s.25.11.25.25v4.44c0,.14-.11.25-.25.25Z"/>
        <path class="cls-3" d="m46.66,492.91h-1.11c-.14,0-.25-.11-.25-.25s.11-.25.25-.25h1.11c.14,0,.25.11.25.25s-.11.25-.25.25Z"/>
        <path class="cls-3" d="m34.99,491.56c-.11,0-.21-.07-.24-.18-.4-1.29-.41-2.66-.02-3.96.04-.13.18-.21.31-.17.13.04.21.18.17.31-.36,1.2-.35,2.47.02,3.67.04.13-.03.27-.16.31-.02,0-.05.01-.07.01Z"/>
        <path class="cls-3" d="m45.55,490.26c-.14,0-.25-.11-.25-.25v-1.2c0-.14.11-.25.25-.25s.25.11.25.25v1.2c0,.14-.11.25-.25.25Z"/>
        <path class="cls-3" d="m45.98,490.43c-.14,0-.25-.11-.25-.25v-1.54c0-.14.11-.25.25-.25s.25.11.25.25v1.54c0,.14-.11.25-.25.25Z"/>
        <path class="cls-3" d="m46.41,490.43h-.43s-.06,0-.09-.02l-.43-.17c-.13-.05-.19-.2-.14-.33s.2-.19.32-.14l.38.15h.13v-1.04h-.18c-.14,0-.25-.11-.25-.25s.11-.25.25-.25h.43c.14,0,.25.11.25.25v1.54c0,.14-.11.25-.25.25Z"/>
        <path class="cls-3" d="m46.41,490.43c-.11,0-.21-.07-.24-.18-.04-.13.04-.27.17-.31l1.71-.51c.13-.04.27.04.31.17.04.13-.04.27-.17.31l-1.71.51s-.05.01-.07.01Z"/>
        <path class="cls-3" d="m48.11,489.32s-.04,0-.06,0l-1.71-.43c-.13-.03-.22-.17-.18-.3.03-.13.17-.22.3-.18l1.71.43c.13.03.22.17.18.3-.03.11-.13.19-.24.19Z"/>
        <path class="cls-3" d="m45.55,489.06c-.1,0-.19-.06-.23-.16-.05-.13.01-.27.14-.33l.43-.17c.13-.05.27.01.32.14s-.01.27-.14.33l-.43.17s-.06.02-.09.02Z"/>
        <path class="cls-3" d="m35.49,491.88h0c-.3-.01-.57-.21-.66-.51-.04-.13.03-.27.16-.31.14-.04.27.03.31.17.03.09.11.15.2.15.14,0,.25.12.24.26,0,.13-.12.24-.25.24Z"/>
        <path class="cls-3" d="m35.06,487.78s-.05,0-.07-.01c-.13-.04-.21-.18-.17-.31.09-.3.36-.51.67-.51h0c.13,0,.25.11.25.24,0,.14-.1.25-.24.26-.1,0-.18.07-.21.16-.03.11-.13.18-.24.18Z"/>
        <path class="cls-3" d="m47.43,487.65c-.14,0-.25-.11-.25-.25,0-.31-.25-.56-.56-.56-.14,0-.25-.11-.25-.25s.11-.25.25-.25c.59,0,1.06.48,1.06,1.06,0,.14-.11.25-.25.25Z"/>
        <path class="cls-3" d="m44.78,486.07c-.14,0-.25-.11-.25-.25v-5.3c0-.14.11-.25.25-.25s.25.11.25.25v5.3c0,.14-.11.25-.25.25Z"/>
        <path class="cls-3" d="m45.51,486.84c-.59,0-1.06-.48-1.06-1.06,0-.14.11-.25.25-.25s.25.11.25.25c0,.31.25.56.56.56.14,0,.25.11.25.25s-.11.25-.25.25Z"/>
        <path class="cls-3" d="m41.79,487.27c-.13,0-.25-.11-.25-.24,0-.14.1-.25.24-.26l2.82-.08c.12,0,.25.11.26.24,0,.14-.1.25-.24.26l-2.82.08h0Z"/>
        <path class="cls-3" d="m39.47,487.36c-.14,0-.25-.11-.25-.24,0-.14.11-.25.24-.26.5-.01.88-.41.88-.9,0-.14.11-.25.25-.25s.25.11.25.25c0,.77-.6,1.38-1.37,1.4h0Z"/>
        <path class="cls-3" d="m39.57,487.36c-.13,0-.24-.11-.25-.24,0-.14.1-.25.24-.26l2.22-.09c.16.02.25.1.26.24s-.1.25-.24.26l-2.22.09h0Z"/>
        <path class="cls-3" d="m46.62,492.91c-.14,0-.25-.11-.25-.25s.11-.25.25-.25c.31,0,.56-.25.56-.56,0-.14.11-.25.25-.25s.25.11.25.25c0,.59-.48,1.06-1.06,1.06Z"/>
        <path class="cls-3" d="m44.7,493.64c-.14,0-.25-.11-.25-.25,0-.59.48-1.06,1.06-1.06.14,0,.25.11.25.25s-.11.25-.25.25c-.31,0-.56.25-.56.56,0,.14-.11.25-.25.25Z"/>
        <path class="cls-3" d="m40.59,493.21c-.14,0-.25-.11-.25-.25,0-.49-.38-.88-.87-.9-.14,0-.25-.12-.24-.26,0-.14.13-.23.26-.24.76.03,1.35.65,1.35,1.4,0,.14-.11.25-.25.25Z"/>
        <path class="cls-3" d="m43.16,492.23h-.01l-3.59-.17c-.14,0-.24-.12-.24-.26,0-.14.12-.22.26-.24l3.59.17c.14,0,.24.12.24.26,0,.13-.12.24-.25.24Z"/>
        <path class="cls-3" d="m40.68,486.24c-.14,0-.25-.11-.25-.25v-5.47c0-.14.11-.25.25-.25s.25.11.25.25v5.47c0,.14-.11.25-.25.25Z"/>
        <path class="cls-3" d="m94.87,524.28H31.45c-.14,0-.25-.11-.25-.25v-69.23c0-.14.11-.25.25-.25h63.42c.14,0,.25.11.25.25v69.23c0,.14-.11.25-.25.25Zm-63.17-.5h62.92v-68.73H31.7v68.73Z"/>
        <path class="cls-3" d="m90.25,511.54c-.14,0-.25-.11-.25-.25v-43.76c0-.14.11-.25.25-.25s.25.11.25.25v43.76c0,.14-.11.25-.25.25Z"/>
        <path class="cls-3" d="m90.17,467.74c-.14,0-.25-.11-.25-.25,0-1.77-1.44-3.21-3.21-3.21-.14,0-.25-.11-.25-.25s.11-.25.25-.25c2.05,0,3.71,1.67,3.71,3.71,0,.14-.11.25-.25.25Z"/>
        <path class="cls-3" d="m86.75,515.05h-42.65c-.14,0-.25-.11-.25-.25s.11-.25.25-.25h42.65c.14,0,.25.11.25.25s-.11.25-.25.25Z"/>
        <path class="cls-3" d="m86.71,514.96c-.14,0-.25-.11-.25-.25s.11-.25.25-.25c1.77,0,3.21-1.44,3.21-3.21,0-.14.11-.25.25-.25s.25.11.25.25c0,2.05-1.67,3.71-3.71,3.71Z"/>
        <path class="cls-3" d="m37.17,524.28c-.14,0-.25-.11-.25-.25v-69.23c0-.14.11-.25.25-.25s.25.11.25.25v69.23c0,.14-.11.25-.25.25Z"/>
        <path class="cls-3" d="m40.68,511.54c-.14,0-.25-.11-.25-.25v-43.76c0-.14.11-.25.25-.25s.25.11.25.25v43.76c0,.14-.11.25-.25.25Z"/>
        <path class="cls-3" d="m44.06,514.96c-2.05,0-3.71-1.67-3.71-3.71,0-.14.11-.25.25-.25s.25.11.25.25c0,1.77,1.44,3.21,3.21,3.21.14,0,.25.11.25.25s-.11.25-.25.25Z"/>
        <path class="cls-3" d="m40.59,467.74c-.14,0-.25-.11-.25-.25,0-2.05,1.67-3.71,3.71-3.71.14,0,.25.11.25.25s-.11.25-.25.25c-1.77,0-3.21,1.44-3.21,3.21,0,.14-.11.25-.25.25Z"/>
        <path class="cls-3" d="m86.75,464.28h-42.65c-.14,0-.25-.11-.25-.25s.11-.25.25-.25h42.65c.14,0,.25.11.25.25s-.11.25-.25.25Z"/>
        <path class="cls-3" d="m31.45,490.6c-.14,0-.25-.11-.25-.25v-1.88c0-.14.11-.25.25-.25s.25.11.25.25v1.88c0,.14-.11.25-.25.25Z"/>
        <path class="cls-3" d="m65.42,494.19c-2.66,0-4.82-2.16-4.82-4.82s2.16-4.82,4.82-4.82,4.82,2.16,4.82,4.82-2.16,4.82-4.82,4.82Zm0-9.15c-2.38,0-4.32,1.94-4.32,4.32s1.94,4.32,4.32,4.32,4.32-1.94,4.32-4.32-1.94-4.32-4.32-4.32Z"/>
        <path class="cls-3" d="m94.87,391.62h-57.69c-.14,0-.25-.11-.25-.25v-86.58c0-.14.11-.25.25-.25h57.69c.14,0,.25.11.25.25v86.58c0,.14-.11.25-.25.25Zm-57.44-.5h57.19v-86.08h-57.19v86.08Z"/>
        <path class="cls-3" d="m93.67,390.43h-55.3c-.14,0-.25-.11-.25-.25v-84.19c0-.14.11-.25.25-.25h55.3c.14,0,.25.11.25.25v84.19c0,.14-.11.25-.25.25Zm-55.05-.5h54.8v-83.69h-54.8v83.69Z"/>
        <path class="cls-3" d="m100.6,530.01H31.45c-.14,0-.25-.11-.25-.25v-242.23c0-.14.11-.25.25-.25h69.15c.14,0,.25.11.25.25v242.23c0,.14-.11.25-.25.25Zm-68.9-.5h68.65v-241.73H31.7v241.73Z"/>
        <path class="cls-3" d="m63.12,339.06c-6.48,0-11.75-5.27-11.75-11.75s5.27-11.75,11.75-11.75,11.75,5.27,11.75,11.75-5.27,11.75-11.75,11.75Zm0-22.99c-6.2,0-11.25,5.04-11.25,11.25s5.04,11.25,11.25,11.25,11.25-5.04,11.25-11.25-5.04-11.25-11.25-11.25Z"/>
        <path class="cls-3" d="m63.12,380.51c-6.48,0-11.75-5.27-11.75-11.75s5.27-11.75,11.75-11.75,11.75,5.27,11.75,11.75-5.27,11.75-11.75,11.75Zm0-22.99c-6.2,0-11.25,5.04-11.25,11.25s5.04,11.25,11.25,11.25,11.25-5.04,11.25-11.25-5.04-11.25-11.25-11.25Z"/>
        <path class="cls-3" d="m63.16,370.86c-.14,0-.25-.11-.25-.25v-3.59c0-.14.11-.25.25-.25s.25.11.25.25v3.59c0,.14-.11.25-.25.25Z"/>
        <path class="cls-3" d="m64.95,369.06h-3.59c-.14,0-.25-.11-.25-.25s.11-.25.25-.25h3.59c.14,0,.25.11.25.25s-.11.25-.25.25Z"/>
        <path class="cls-3" d="m63.16,329.4c-.14,0-.25-.11-.25-.25v-3.59c0-.14.11-.25.25-.25s.25.11.25.25v3.59c0,.14-.11.25-.25.25Z"/>
        <path class="cls-3" d="m64.95,327.61h-3.59c-.14,0-.25-.11-.25-.25s.11-.25.25-.25h3.59c.14,0,.25.11.25.25s-.11.25-.25.25Z"/>
        <path class="cls-3" d="m750.45,911.9h-195.22c-.14,0-.25-.11-.25-.25v-69.23c0-.14.11-.25.25-.25h195.22c.14,0,.25.11.25.25v69.23c0,.14-.11.25-.25.25Zm-194.97-.5h194.72v-68.73h-194.72v68.73Z"/>
        <path class="cls-3" d="m747.03,908.48h-188.38c-.14,0-.25-.11-.25-.25v-62.31c0-.14.11-.25.25-.25h188.38c.14,0,.25.11.25.25v62.31c0,.14-.11.25-.25.25Zm-188.13-.5h187.88v-61.81h-187.88v61.81Z"/>
        <path class="cls-3" d="m747.03,878.48h-188.38c-.14,0-.25-.11-.25-.25s.11-.25.25-.25h188.38c.14,0,.25.11.25.25s-.11.25-.25.25Z"/>
        <path class="cls-3" d="m747.03,876.17h-188.38c-.14,0-.25-.11-.25-.25s.11-.25.25-.25h188.38c.14,0,.25.11.25.25s-.11.25-.25.25Z"/>
        <path class="cls-3" d="m772.07,682.32h-216.85c-.14,0-.25-.11-.25-.25v-122.31c0-.14.11-.25.25-.25h216.85c.14,0,.25.11.25.25v122.31c0,.14-.11.25-.25.25Zm-216.6-.5h216.35v-121.81h-216.35v121.81Z"/>
        <path class="cls-3" d="m595.57,682.32c-.14,0-.25-.11-.25-.25v-122.31c0-.14.11-.25.25-.25s.25.11.25.25v122.31c0,.14-.11.25-.25.25Z"/>
        <path class="cls-3" d="m609.33,682.32s-.03,0-.05,0c-.14-.03-.23-.16-.2-.29l22.39-122.31c.03-.14.16-.23.29-.2.14.03.23.16.2.29l-22.39,122.31c-.02.12-.13.21-.25.21Z"/>
        <path class="cls-3" d="m595.57,656.93h-31.11c-.14,0-.25-.11-.25-.25v-71.54c0-.14.11-.25.25-.25h31.11c.14,0,.25.11.25.25v71.54c0,.14-.11.25-.25.25Zm-30.86-.5h30.61v-71.04h-30.61v71.04Z"/>
        <path class="cls-3" d="m595.57,682.32c-.14,0-.25-.11-.25-.25v-30c0-.14.11-.25.25-.25s.25.11.25.25v30c0,.14-.11.25-.25.25Z"/>
        <path class="cls-3" d="m774.38,421.63h-219.15c-.14,0-.25-.11-.25-.25v-173.08c0-.14.11-.25.25-.25h219.15c.14,0,.25.11.25.25v173.08c0,.14-.11.25-.25.25Zm-218.9-.5h218.65v-172.58h-218.65v172.58Z"/>
        <path class="cls-3" d="m595.57,421.63c-.14,0-.25-.11-.25-.25v-173.08c0-.14.11-.25.25-.25s.25.11.25.25v173.08c0,.14-.11.25-.25.25Z"/>
        <path class="cls-3" d="m631.73,421.63c-.12,0-.22-.08-.25-.21l-24.62-134.28v-38.85c0-.14.11-.25.25-.25s.25.11.25.25v38.81l24.61,134.23c.02.14-.07.27-.2.29-.02,0-.03,0-.05,0Z"/>
        <path class="cls-3" d="m595.57,412.4h-31.11c-.14,0-.25-.11-.25-.25v-71.54c0-.14.11-.25.25-.25h31.11c.14,0,.25.11.25.25v71.54c0,.14-.11.25-.25.25Zm-30.86-.5h30.61v-71.04h-30.61v71.04Z"/>
        <path class="cls-3" d="m595.57,329.32h-31.11c-.14,0-.25-.11-.25-.25v-71.54c0-.14.11-.25.25-.25h31.11c.14,0,.25.11.25.25v71.54c0,.14-.11.25-.25.25Zm-30.86-.5h30.61v-71.04h-30.61v71.04Z"/>
        <path class="cls-3" d="m599.16,447.52h-35.98c-.14,0-.25-.11-.25-.25s.11-.25.25-.25h35.98c.14,0,.25.11.25.25s-.11.25-.25.25Z"/>
        <path class="cls-3" d="m581.08,462.74c-8.55,0-15.51-6.96-15.51-15.51s6.96-15.51,15.51-15.51,15.51,6.96,15.51,15.51-6.96,15.51-15.51,15.51Zm0-30.51c-8.27,0-15.01,6.73-15.01,15.01s6.73,15.01,15.01,15.01,15.01-6.73,15.01-15.01-6.73-15.01-15.01-15.01Z"/>
        <path class="cls-3" d="m581.08,457.18c-5.49,0-9.95-4.46-9.95-9.95s4.46-9.95,9.95-9.95,9.95,4.46,9.95,9.95-4.46,9.95-9.95,9.95Zm0-19.4c-5.21,0-9.45,4.24-9.45,9.45s4.24,9.45,9.45,9.45,9.45-4.24,9.45-9.45-4.24-9.45-9.45-9.45Z"/>
        <path class="cls-3" d="m581.13,465.56c-.14,0-.25-.11-.25-.25v-35.98c0-.14.11-.25.25-.25s.25.11.25.25v35.98c0,.14-.11.25-.25.25Z"/>
        <path class="cls-3" d="m607.11,473.51h-51.88c-.14,0-.25-.11-.25-.25v-51.88c0-.14.11-.25.25-.25h51.88c.14,0,.25.11.25.25v51.88c0,.14-.11.25-.25.25Zm-51.63-.5h51.38v-51.38h-51.38v51.38Z"/>
        <path class="cls-3" d="m756.26,548.47h-201.03c-.14,0-.25-.11-.25-.25v-69.15c0-.14.11-.25.25-.25h201.03c.14,0,.25.11.25.25v69.15c0,.14-.11.25-.25.25Zm-200.78-.5h200.53v-68.65h-200.53v68.65Z"/>
        <path class="cls-3" d="m752.76,545.05h-194.11c-.14,0-.25-.11-.25-.25v-62.31c0-.14.11-.25.25-.25h194.11c.14,0,.25.11.25.25v62.31c0,.14-.11.25-.25.25Zm-193.86-.5h193.61v-61.81h-193.61v61.81Z"/>
        <path class="cls-3" d="m752.76,515.05h-194.11c-.14,0-.25-.11-.25-.25s.11-.25.25-.25h194.11c.14,0,.25.11.25.25s-.11.25-.25.25Z"/>
        <path class="cls-3" d="m752.76,512.74h-194.11c-.14,0-.25-.11-.25-.25s.11-.25.25-.25h194.11c.14,0,.25.11.25.25s-.11.25-.25.25Z"/>
        <path class="cls-3" d="m848.49,548.47h-92.23c-.14,0-.25-.11-.25-.25v-57.69c0-.14.11-.25.25-.25h92.23c.14,0,.25.11.25.25v57.69c0,.14-.11.25-.25.25Zm-91.98-.5h91.73v-57.19h-91.73v57.19Z"/>
        <path class="cls-3" d="m828.31,490.77h-51.88c-.14,0-.25-.11-.25-.25v-34.53c0-.14.11-.25.25-.25h51.88c.14,0,.25.11.25.25v34.53c0,.14-.11.25-.25.25Zm-51.63-.5h51.38v-34.03h-51.38v34.03Z"/>
        <path class="cls-3" d="m828.31,461.97h-51.88c-.14,0-.25-.11-.25-.25s.11-.25.25-.25h51.88c.14,0,.25.11.25.25s-.11.25-.25.25Z"/>
        <path class="cls-3" d="m37.6,610.69s-.06,0-.09-.02l-6.15-2.31c-.1-.04-.16-.13-.16-.23v-58.63c0-.11.07-.2.17-.24l6.15-2.22c.13-.04.27.02.32.15.05.13-.02.27-.15.32l-5.99,2.16v58.29l5.99,2.25c.13.05.19.19.15.32-.04.1-.13.16-.23.16Z"/>
        <path class="cls-3" d="m117.95,622.32H37.6c-.14,0-.25-.11-.25-.25v-86.5c0-.14.11-.25.25-.25h80.34c.14,0,.25.11.25.25v86.5c0,.14-.11.25-.25.25Zm-80.09-.5h79.84v-86H37.85v86Z"/>
        <path class="cls-3" d="m113.33,622.32c-.14,0-.25-.11-.25-.25v-86.5c0-.14.11-.25.25-.25s.25.11.25.25v86.5c0,.14-.11.25-.25.25Z"/>
        <path class="cls-3" d="m543.69,911.9h-115.39c-.14,0-.25-.11-.25-.25v-46.16c0-.14.11-.25.25-.25h115.39c.14,0,.25.11.25.25v46.16c0,.14-.11.25-.25.25Zm-115.14-.5h114.89v-45.66h-114.89v45.66Z"/>
        <path class="cls-3" d="m543.69,911.9s-.06,0-.09-.02l-115.39-46.16c-.13-.05-.19-.2-.14-.33s.2-.19.32-.14l115.39,46.16c.13.05.19.2.14.33-.04.1-.13.16-.23.16Z"/>
        <path class="cls-3" d="m481.89,733.09h-51.88c-.14,0-.25-.11-.25-.25v-34.62c0-.14.11-.25.25-.25h51.88c.14,0,.25.11.25.25v34.62c0,.14-.11.25-.25.25Zm-51.63-.5h51.38v-34.12h-51.38v34.12Z"/>
        <path class="cls-3" d="m415.05,727.36h-51.97c-.14,0-.25-.11-.25-.25s.11-.25.25-.25h51.97c.14,0,.25.11.25.25s-.11.25-.25.25Z"/>
        <path class="cls-3" d="m415.05,577.36h-51.97c-.14,0-.25-.11-.25-.25s.11-.25.25-.25h51.97c.14,0,.25.11.25.25s-.11.25-.25.25Z"/>
        <path class="cls-3" d="m491.72,698.47h-138.47c-.14,0-.25-.11-.25-.25v-92.31c0-.14.11-.25.25-.25h138.47c.14,0,.25.11.25.25v92.31c0,.14-.11.25-.25.25Zm-138.22-.5h137.97v-91.81h-137.97v91.81Z"/>
        <path class="cls-3" d="m481.89,727.36h-51.88c-.14,0-.25-.11-.25-.25s.11-.25.25-.25h51.88c.14,0,.25.11.25.25s-.11.25-.25.25Z"/>
        <path class="cls-3" d="m415.05,733.09h-51.97c-.14,0-.25-.11-.25-.25v-34.62c0-.14.11-.25.25-.25h51.97c.14,0,.25.11.25.25v34.62c0,.14-.11.25-.25.25Zm-51.72-.5h51.47v-34.12h-51.47v34.12Z"/>
        <path class="cls-3" d="m481.89,577.36h-51.88c-.14,0-.25-.11-.25-.25s.11-.25.25-.25h51.88c.14,0,.25.11.25.25s-.11.25-.25.25Z"/>
        <path class="cls-3" d="m481.89,606.16h-51.88c-.14,0-.25-.11-.25-.25v-34.62c0-.14.11-.25.25-.25h51.88c.14,0,.25.11.25.25v34.62c0,.14-.11.25-.25.25Zm-51.63-.5h51.38v-34.12h-51.38v34.12Z"/>
        <path class="cls-3" d="m415.05,606.16h-51.97c-.14,0-.25-.11-.25-.25v-34.62c0-.14.11-.25.25-.25h51.97c.14,0,.25.11.25.25v34.62c0,.14-.11.25-.25.25Zm-51.72-.5h51.47v-34.12h-51.47v34.12Z"/>
        <path class="cls-3" d="m543.69,738.9h-51.97c-.14,0-.25-.11-.25-.25v-173.08c0-.14.11-.25.25-.25h51.97c.14,0,.25.11.25.25v173.08c0,.14-.11.25-.25.25Zm-51.72-.5h51.47v-172.58h-51.47v172.58Z"/>
        <path class="cls-3" d="m491.72,738.9s-.05,0-.07-.01c-.13-.04-.21-.18-.17-.31l51.97-173.08c.04-.13.18-.21.31-.17.13.04.21.18.17.31l-51.97,173.08c-.03.11-.13.18-.24.18Z"/>
        <path class="cls-3" d="m537.88,387.01h-5.73c-.14,0-.25-.11-.25-.25v-138.47c0-.14.11-.25.25-.25h5.73c.14,0,.25.11.25.25v138.47c0,.14-.11.25-.25.25Zm-5.48-.5h5.23v-137.97h-5.23v137.97Z"/>
        <path class="cls-3" d="m543.69,375.47h-5.81c-.14,0-.25-.11-.25-.25s.11-.25.25-.25h5.56v-114.89h-5.56c-.14,0-.25-.11-.25-.25s.11-.25.25-.25h5.81c.14,0,.25.11.25.25v115.39c0,.14-.11.25-.25.25Z"/>
        <path class="cls-3" d="m532.15,383.51h-2.31c-.14,0-.25-.11-.25-.25s.11-.25.25-.25h2.31c.14,0,.25.11.25.25s-.11.25-.25.25Z"/>
        <path class="cls-3" d="m529.84,383.51c-.14,0-.25-.11-.25-.25v-131.54c0-.14.11-.25.25-.25h2.31c.14,0,.25.11.25.25s-.11.25-.25.25h-2.06v131.29c0,.14-.11.25-.25.25Z"/>
        <path class="cls-3" d="m329.07,473.51h-103.85c-.14,0-.25-.11-.25-.25V196.41c0-.14.11-.25.25-.25h103.85c.14,0,.25.11.25.25v276.85c0,.14-.11.25-.25.25Zm-103.6-.5h103.35V196.66h-103.35v276.35Z"/>
        <path class="cls-3" d="m242.57,456.24c-.14,0-.25-.11-.25-.25v-242.32c0-.14.11-.25.25-.25h86.5c.14,0,.25.11.25.25s-.11.25-.25.25h-86.25v242.07c0,.14-.11.25-.25.25Z"/>
        <path class="cls-3" d="m261.97,450.86s-.09-.01-.13-.03c-.06-.03-.1-.09-.12-.15l-13.33-50.17c-.02-.06,0-.13.03-.19.03-.06.09-.1.15-.12l21.62-5.73c.14-.04.27.04.31.18.04.13-.04.27-.18.31l-21.38,5.66,13.21,49.69,49.69-13.21-13.21-49.69-5.91,1.56c-.13.03-.27-.04-.31-.18-.04-.13.04-.27.18-.31l6.15-1.62c.13-.03.27.04.31.18l13.33,50.17c.04.13-.04.27-.18.31l-50.17,13.33s-.04,0-.06,0Z"/>
        <path class="cls-3" d="m284.19,403.25s-.1-.01-.14-.04l-38.89-26.5c-.1-.07-.14-.2-.09-.31l20.77-44.62c.03-.06.09-.11.15-.13.07-.02.14-.01.2.02l44.62,26.5c.12.07.16.22.09.34l-26.5,44.62c-.04.06-.09.1-.16.12-.02,0-.04,0-.05,0Zm-38.57-26.83l38.49,26.23,26.23-44.17-44.16-26.23-20.56,44.17Z"/>
        <path class="cls-3" d="m329.07,456.24h-86.5c-.14,0-.25-.11-.25-.25s.11-.25.25-.25h86.5c.14,0,.25.11.25.25s-.11.25-.25.25Z"/>
        <path class="cls-3" d="m402.27,381.11c-25.56,0-46.36-20.8-46.36-46.36s20.8-46.36,46.36-46.36,46.36,20.8,46.36,46.36-20.8,46.36-46.36,46.36Zm0-92.23c-25.29,0-45.86,20.57-45.86,45.86s20.57,45.86,45.86,45.86,45.86-20.57,45.86-45.86-20.57-45.86-45.86-45.86Z"/>
        <path class="cls-3" d="m344.79,116.83h-103.85c-.14,0-.25-.11-.25-.25v-50.77c0-.14.11-.25.25-.25h103.85c.14,0,.25.11.25.25v50.77c0,.14-.11.25-.25.25Zm-103.6-.5h103.35v-50.27h-103.35v50.27Z"/>
        <path class="cls-3" d="m240.94,116.83c-.09,0-.18-.05-.22-.14-.06-.12,0-.27.11-.33l103.85-50.77c.12-.06.27,0,.33.12.06.12,0,.27-.11.33l-103.85,50.77s-.07.03-.11.03Z"/>
        <path class="cls-3" d="m266.5,101.1c-.11,0-.21-.07-.24-.18l-6.85-22.3-6.77,22.29c-.04.13-.18.21-.31.17-.13-.04-.21-.18-.17-.31l7.01-23.08c.03-.11.13-.18.24-.18h0c.11,0,.21.07.24.18l7.09,23.08c.04.13-.03.27-.17.31-.02,0-.05.01-.07.01Z"/>
        <path class="cls-3" d="m263.85,93.41h-8.8c-.14,0-.25-.11-.25-.25s.11-.25.25-.25h8.8c.14,0,.25.11.25.25s-.11.25-.25.25Z"/>
        <path class="cls-3" d="m328.04,112.9h-3.5s-.09-.01-.12-.03l-1.79-1.03s-.05-.04-.07-.06l-1.71-2.22s-.02-.04-.03-.05l-.94-2.22-.87-3.28s0-.04,0-.06v-5.56s0-.04,0-.06l.85-3.25.95-2.26s.02-.04.03-.05l1.71-2.22s.04-.04.07-.06l1.79-1.11s.09-.04.13-.04h3.5s.09.01.13.04l1.79,1.11s.05.04.07.06l1.71,2.22s.03.04.04.06l.85,2.22c.05.13-.01.27-.14.32-.13.05-.27-.01-.32-.14l-.84-2.19-1.66-2.16-1.7-1.05h-3.36l-1.7,1.05-1.66,2.16-.93,2.19-.84,3.18v5.49l.85,3.22.92,2.16,1.66,2.16,1.69.97h3.37l1.69-.97,1.66-2.15.84-2.19c.05-.13.19-.19.32-.14.13.05.19.19.14.32l-.85,2.22s-.02.04-.04.06l-1.71,2.22s-.05.05-.07.06l-1.79,1.03s-.08.03-.12.03Z"/>
        <path class="cls-3" d="m682.33,899.25c-.14,0-.25-.11-.25-.25v-46.16c0-.14.11-.25.25-.25s.25.11.25.25v46.16c0,.14-.11.25-.25.25Z"/>
        <path class="cls-3" d="m671.47,899.25c-.14,0-.25-.11-.25-.25v-46.16c0-.14.11-.25.25-.25s.25.11.25.25v46.16c0,.14-.11.25-.25.25Z"/>
        <path class="cls-3" d="m697.71,899.17c-.13,0-.24-.1-.25-.23l-4.02-45.98c-.01-.14.09-.26.23-.27.14-.02.26.09.27.23l4.02,45.98c.01.14-.09.26-.23.27,0,0-.02,0-.02,0Z"/>
        <path class="cls-3" d="m636.85,899.17s-.01,0-.02,0c-.14-.01-.24-.13-.23-.27l4.02-45.98c.01-.14.13-.25.27-.23.14.01.24.13.23.27l-4.02,45.98c-.01.13-.12.23-.25.23Z"/>
        <path class="cls-3" d="m625.15,899.17s-.01,0-.02,0c-.14-.01-.24-.13-.23-.27l4.02-45.98c.01-.14.12-.25.27-.23.14.01.24.13.23.27l-4.02,45.98c-.01.13-.12.23-.25.23Z"/>
        <path class="cls-3" d="m731.22,899.25c-.14,0-.25-.11-.25-.25v-46.16c0-.14.11-.25.25-.25s.25.11.25.25v46.16c0,.14-.11.25-.25.25Z"/>
        <path class="cls-3" d="m719.85,899.25c-.14,0-.25-.11-.25-.25v-46.16c0-.14.11-.25.25-.25s.25.11.25.25v46.16c0,.14-.11.25-.25.25Z"/>
        <path class="cls-3" d="m585.06,899.25c-.14,0-.25-.11-.25-.25v-46.16c0-.14.11-.25.25-.25s.25.11.25.25v46.16c0,.14-.11.25-.25.25Z"/>
        <path class="cls-3" d="m574.29,899.25c-.14,0-.25-.11-.25-.25v-46.16c0-.14.11-.25.25-.25s.25.11.25.25v46.16c0,.14-.11.25-.25.25Z"/>
        <path class="cls-3" d="m600.53,899.17c-.13,0-.24-.1-.25-.23l-4.02-45.98c-.01-.14.09-.26.23-.27.14-.02.26.09.27.23l4.02,45.98c.01.14-.09.26-.23.27,0,0-.02,0-.02,0Z"/>
        <path class="cls-3" d="m682.33,535.82c-.14,0-.25-.11-.25-.25v-46.16c0-.14.11-.25.25-.25s.25.11.25.25v46.16c0,.14-.11.25-.25.25Z"/>
        <path class="cls-3" d="m671.47,535.82c-.14,0-.25-.11-.25-.25v-46.16c0-.14.11-.25.25-.25s.25.11.25.25v46.16c0,.14-.11.25-.25.25Z"/>
        <path class="cls-3" d="m697.71,535.73c-.13,0-.24-.1-.25-.23l-4.02-45.98c-.01-.14.09-.26.23-.27.14-.02.26.09.27.23l4.02,45.98c.01.14-.09.26-.23.27,0,0-.02,0-.02,0Z"/>
        <path class="cls-3" d="m636.85,535.73s-.01,0-.02,0c-.14-.01-.24-.13-.23-.27l4.02-45.98c.01-.14.13-.24.27-.23.14.01.24.13.23.27l-4.02,45.98c-.01.13-.12.23-.25.23Z"/>
        <path class="cls-3" d="m625.15,535.73s-.01,0-.02,0c-.14-.01-.24-.13-.23-.27l4.02-45.98c.01-.14.12-.24.27-.23.14.01.24.13.23.27l-4.02,45.98c-.01.13-.12.23-.25.23Z"/>
        <path class="cls-3" d="m731.22,535.82c-.14,0-.25-.11-.25-.25v-46.16c0-.14.11-.25.25-.25s.25.11.25.25v46.16c0,.14-.11.25-.25.25Z"/>
        <path class="cls-3" d="m719.85,535.82c-.14,0-.25-.11-.25-.25v-46.16c0-.14.11-.25.25-.25s.25.11.25.25v46.16c0,.14-.11.25-.25.25Z"/>
        <path class="cls-3" d="m585.06,535.82c-.14,0-.25-.11-.25-.25v-46.16c0-.14.11-.25.25-.25s.25.11.25.25v46.16c0,.14-.11.25-.25.25Z"/>
        <path class="cls-3" d="m574.29,535.82c-.14,0-.25-.11-.25-.25v-46.16c0-.14.11-.25.25-.25s.25.11.25.25v46.16c0,.14-.11.25-.25.25Z"/>
        <path class="cls-3" d="m600.53,535.73c-.13,0-.24-.1-.25-.23l-4.02-45.98c-.01-.14.09-.26.23-.27.14-.02.26.09.27.23l4.02,45.98c.01.14-.09.26-.23.27,0,0-.02,0-.02,0Z"/>
        <path class="cls-3" d="m.25,138.97c-.14,0-.25-.11-.25-.25v-20.77c0-.14.11-.25.25-.25s.25.11.25.25v20.77c0,.14-.11.25-.25.25Z"/>
        <path class="cls-3" d="m848.49,790.79h-57.61c-.14,0-.25-.11-.25-.25v-92.31c0-.14.11-.25.25-.25h57.61c.14,0,.25.11.25.25v92.31c0,.14-.11.25-.25.25Zm-57.36-.5h57.11v-91.81h-57.11v91.81Z"/>
        <path class="cls-3" d="m790.88,770.61h-34.62c-.14,0-.25-.11-.25-.25v-51.97c0-.14.11-.25.25-.25h34.62c.14,0,.25.11.25.25v51.97c0,.14-.11.25-.25.25Zm-34.37-.5h34.12v-51.47h-34.12v51.47Z"/>
        <path class="cls-3" d="m761.99,770.61c-.14,0-.25-.11-.25-.25v-51.97c0-.14.11-.25.25-.25s.25.11.25.25v51.97c0,.14-.11.25-.25.25Z"/>
        <path class="cls-3" d="m848.49,695.82h-69.15c-.14,0-.25-.11-.25-.25v-135.82c0-.14.11-.25.25-.25h69.15c.14,0,.25.11.25.25v135.82c0,.14-.11.25-.25.25Zm-68.9-.5h68.65v-135.32h-68.65v135.32Z"/>
        <path class="cls-3" d="m846.18,692.15h-62.22c-.14,0-.25-.11-.25-.25l-1.2-128.64c0-.07.03-.13.07-.18.05-.05.11-.07.18-.07h62.31c.14,0,.25.11.25.25l1.11,128.64c0,.07-.03.13-.07.18-.05.05-.11.07-.18.07Zm-61.98-.5h61.72l-1.11-128.14h-61.81l1.19,128.14Z"/>
        <path class="cls-3" d="m815.07,692.15c-.14,0-.25-.11-.25-.25v-128.64c0-.14.11-.25.25-.25s.25.11.25.25v128.64c0,.14-.11.25-.25.25Z"/>
        <path class="cls-3" d="m812.76,692.15c-.14,0-.25-.11-.25-.25v-128.64c0-.14.11-.25.25-.25s.25.11.25.25v128.64c0,.14-.11.25-.25.25Z"/>
        <path class="cls-3" d="m835.84,628.21h-46.16c-.14,0-.25-.11-.25-.25s.11-.25.25-.25h46.16c.14,0,.25.11.25.25s-.11.25-.25.25Z"/>
        <path class="cls-3" d="m835.84,638.98h-46.16c-.14,0-.25-.11-.25-.25s.11-.25.25-.25h46.16c.14,0,.25.11.25.25s-.11.25-.25.25Z"/>
        <path class="cls-3" d="m789.77,616.76c-.13,0-.24-.1-.25-.23-.01-.14.09-.26.23-.27l45.98-4.02c.14-.03.26.09.27.23.01.14-.09.26-.23.27l-45.98,4.02s-.02,0-.02,0Z"/>
        <path class="cls-3" d="m835.75,657.53s-.01,0-.02,0l-45.98-4.02c-.14-.01-.24-.13-.23-.27.01-.14.13-.24.27-.23l45.98,4.02c.14.01.24.13.23.27-.01.13-.12.23-.25.23Z"/>
        <path class="cls-3" d="m835.75,669.24s-.01,0-.02,0l-45.98-4.02c-.14-.01-.24-.13-.23-.27.01-.14.13-.24.27-.23l45.98,4.02c.14.01.24.13.23.27-.01.13-.12.23-.25.23Z"/>
        <path class="cls-3" d="m835.84,579.24h-46.16c-.14,0-.25-.11-.25-.25s.11-.25.25-.25h46.16c.14,0,.25.11.25.25s-.11.25-.25.25Z"/>
        <path class="cls-3" d="m835.84,590.61h-46.16c-.14,0-.25-.11-.25-.25s.11-.25.25-.25h46.16c.14,0,.25.11.25.25s-.11.25-.25.25Z"/>
      </g>
    </g>
  </g>
</svg>