<?xml version="1.0" encoding="UTF-8"?>
<svg id="_圖層_2" data-name="圖層 2" xmlns="http://www.w3.org/2000/svg" viewBox="0 0 1090.15 922.01">
  <defs>
    <style>
      .cls-1 {
        stroke-miterlimit: 10;
      }

      .cls-1, .cls-2 {
        fill: none;
        stroke: #8a6e4b;
        stroke-linecap: round;
        stroke-width: 0px;
      }

      .cls-2 {
        stroke-linejoin: round;
      }

      .cls-3 {
        fill: #8a6e4b;
      }
    </style>
  </defs>
  <g id="_圖層_1-2" data-name="圖層 1">
    <g>
      <g>
        <path class="cls-3" d="m181.84,121.59H.25c-.14,0-.25-.11-.25-.25V.25c0-.14.11-.25.25-.25h181.59c.14,0,.25.11.25.25v121.09c0,.14-.11.25-.25.25ZM.5,121.09h181.09V.5H.5v120.59Z"/>
        <path class="cls-3" d="m181.84,922.01H.25c-.14,0-.25-.11-.25-.25v-120.99c0-.14.11-.25.25-.25h181.59c.14,0,.25.11.25.25v120.99c0,.14-.11.25-.25.25Zm-181.34-.5h181.09v-120.49H.5v120.49Z"/>
        <path class="cls-3" d="m20.48,237.06l382.02,24.22H20.48v-24.22Zm382.02,0H20.48l382.02,24.22v-24.22Z"/>
        <path class="cls-1" d="m20.48,237.06l382.02,24.22H20.48v-24.22Zm382.02,0H20.48l382.02,24.22v-24.22Z"/>
        <path class="cls-3" d="m20.48,261.27l24.22,65.28h-24.22v-65.28Zm24.22,0h-24.22l24.22,65.28v-65.28Z"/>
        <path class="cls-1" d="m20.48,261.27l24.22,65.28h-24.22v-65.28Zm24.22,0h-24.22l24.22,65.28v-65.28Z"/>
        <path class="cls-3" d="m378.28,761.7l24.22,135.84h-24.22v-135.84Zm24.22,0h-24.22l24.22,135.84v-135.84Z"/>
        <path class="cls-1" d="m378.28,761.7l24.22,135.84h-24.22v-135.84Zm24.22,0h-24.22l24.22,135.84v-135.84Z"/>
        <path class="cls-3" d="m181.84,897.54l220.66,24.22h-220.66v-24.22Zm220.66,0h-220.66l220.66,24.22v-24.22Z"/>
        <path class="cls-1" d="m181.84,897.54l220.66,24.22h-220.66v-24.22Zm220.66,0h-220.66l220.66,24.22v-24.22Z"/>
        <path class="cls-3" d="m.25,800.77l181.59,120.99H.25v-120.99Zm181.59,0H.25l181.59,120.99v-120.99Z"/>
        <path class="cls-1" d="m.25,800.77l181.59,120.99H.25v-120.99Zm181.59,0H.25l181.59,120.99v-120.99Z"/>
        <path class="cls-3" d="m20.48,541.73l24.22,65.28h-24.22v-65.28Zm24.22,0h-24.22l24.22,65.28v-65.28Z"/>
        <path class="cls-1" d="m20.48,541.73l24.22,65.28h-24.22v-65.28Zm24.22,0h-24.22l24.22,65.28v-65.28Z"/>
        <path class="cls-3" d="m20.48,607.01l382.02,24.22H20.48v-24.22Zm382.02,0H20.48l382.02,24.22v-24.22Z"/>
        <path class="cls-1" d="m20.48,607.01l382.02,24.22H20.48v-24.22Zm382.02,0H20.48l382.02,24.22v-24.22Z"/>
        <path class="cls-3" d="m294.86,631.23l107.64,9.37h-107.64v-9.37Zm107.64,0h-107.64l107.64,9.37v-9.37Z"/>
        <path class="cls-1" d="m294.86,631.23l107.64,9.37h-107.64v-9.37Zm107.64,0h-107.64l107.64,9.37v-9.37Z"/>
        <path class="cls-3" d="m1069.76,686.35l20.13,215.28h-20.13v-215.28Zm20.13,0h-20.13l20.13,215.28v-215.28Z"/>
        <path class="cls-1" d="m1069.76,686.35l20.13,215.28h-20.13v-215.28Zm20.13,0h-20.13l20.13,215.28v-215.28Z"/>
        <path class="cls-3" d="m402.5,901.63l687.39,20.13H402.5v-20.13Zm687.39,0H402.5l687.39,20.13v-20.13Z"/>
        <path class="cls-1" d="m402.5,901.63l687.39,20.13H402.5v-20.13Zm687.39,0H402.5l687.39,20.13v-20.13Z"/>
        <path class="cls-3" d="m1089.9,922.01c-.14,0-.25-.11-.25-.25v-235.41c0-.14.11-.25.25-.25s.25.11.25.25v235.41c0,.14-.11.25-.25.25Z"/>
        <path class="cls-3" d="m181.84.25l220.66,24.22h-220.66V.25ZM402.5.25h-220.66l220.66,24.22V.25Z"/>
        <path class="cls-1" d="m181.84.25l220.66,24.22h-220.66V.25ZM402.5.25h-220.66l220.66,24.22V.25Z"/>
        <path class="cls-3" d="m378.28,24.47l24.22,24.22h-24.22v-24.22Zm24.22,0h-24.22l24.22,24.22v-24.22Z"/>
        <path class="cls-1" d="m378.28,24.47l24.22,24.22h-24.22v-24.22Zm24.22,0h-24.22l24.22,24.22v-24.22Z"/>
        <path class="cls-3" d="m.25.25l181.59,121.09H.25V.25ZM181.84.25H.25l181.59,121.09V.25Z"/>
        <path class="cls-1" d="m.25.25l181.59,121.09H.25V.25ZM181.84.25H.25l181.59,121.09V.25Z"/>
        <path class="cls-3" d="m1089.9,538.6c-.14,0-.25-.11-.25-.25V.25c0-.14.11-.25.25-.25s.25.11.25.25v538.1c0,.14-.11.25-.25.25Z"/>
        <path class="cls-3" d="m1069.76,901.88c-.14,0-.25-.11-.25-.25v-215.28c0-.14.11-.25.25-.25s.25.11.25.25v215.28c0,.14-.11.25-.25.25Z"/>
        <path class="cls-3" d="m1069.76,538.6c-.14,0-.25-.11-.25-.25V20.48c0-.14.11-.25.25-.25s.25.11.25.25v517.86c0,.14-.11.25-.25.25Z"/>
        <path class="cls-3" d="m402.5,922.01h-220.66c-.14,0-.25-.11-.25-.25s.11-.25.25-.25h220.66c.14,0,.25.11.25.25s-.11.25-.25.25Z"/>
        <path class="cls-3" d="m378.28,897.79h-196.44c-.14,0-.25-.11-.25-.25s.11-.25.25-.25h196.44c.14,0,.25.11.25.25s-.11.25-.25.25Z"/>
        <path class="cls-3" d="m1069.76,901.88H402.5c-.14,0-.25-.11-.25-.25s.11-.25.25-.25h667.26c.14,0,.25.11.25.25s-.11.25-.25.25Z"/>
        <path class="cls-3" d="m1089.9,922.01H402.5c-.14,0-.25-.11-.25-.25s.11-.25.25-.25h687.39c.14,0,.25.11.25.25s-.11.25-.25.25Z"/>
        <path class="cls-3" d="m1089.9,538.6h-20.13c-.14,0-.25-.11-.25-.25s.11-.25.25-.25h20.13c.14,0,.25.11.25.25s-.11.25-.25.25Z"/>
        <path class="cls-3" d="m1089.9,686.6h-20.13c-.14,0-.25-.11-.25-.25s.11-.25.25-.25h20.13c.14,0,.25.11.25.25s-.11.25-.25.25Z"/>
        <path class="cls-3" d="m402.5.5h-220.66c-.14,0-.25-.11-.25-.25s.11-.25.25-.25h220.66c.14,0,.25.11.25.25s-.11.25-.25.25Z"/>
        <path class="cls-3" d="m378.28,24.72h-196.44c-.14,0-.25-.11-.25-.25s.11-.25.25-.25h196.44c.14,0,.25.11.25.25s-.11.25-.25.25Z"/>
        <path class="cls-3" d="m362.14,81.23h-180.3c-.14,0-.25-.11-.25-.25s.11-.25.25-.25h180.3c.14,0,.25.11.25.25s-.11.25-.25.25Z"/>
        <path class="cls-3" d="m20.48,237.31c-.14,0-.25-.11-.25-.25v-115.71c0-.14.11-.25.25-.25s.25.11.25.25v115.71c0,.14-.11.25-.25.25Z"/>
        <path class="cls-3" d="m101.11,227.84c-.14,0-.25-.11-.25-.25v-106.24c0-.14.11-.25.25-.25s.25.11.25.25v106.24c0,.14-.11.25-.25.25Z"/>
        <path class="cls-3" d="m20.48,801.02c-.14,0-.25-.11-.25-.25v-169.53c0-.14.11-.25.25-.25s.25.11.25.25v169.53c0,.14-.11.25-.25.25Z"/>
        <path class="cls-3" d="m7.03,252.75c-.06,0-.13-.02-.18-.07-.1-.1-.1-.26,0-.35l13.45-13.45c.1-.1.26-.1.35,0s.1.26,0,.35l-13.45,13.45s-.11.07-.18.07Z"/>
        <path class="cls-3" d="m10.62,277.67c-.06,0-.13-.02-.18-.07-.1-.1-.1-.26,0-.35l9.87-9.87c.1-.1.26-.1.35,0s.1.26,0,.35l-9.87,9.87s-.11.07-.18.07Z"/>
        <path class="cls-3" d="m20.48,326.81c-.14,0-.25-.11-.25-.25v-89.5c0-.14.11-.25.25-.25s.25.11.25.25v89.5c0,.14-.11.25-.25.25Z"/>
        <path class="cls-3" d="m7.03,595.21c-.06,0-.13-.02-.18-.07-.1-.1-.1-.26,0-.35l4.09-4.09c.1-.1.26-.1.35,0s.1.26,0,.35l-4.09,4.09s-.11.07-.18.07Z"/>
        <path class="cls-3" d="m7.03,623.71c-.06,0-.13-.02-.18-.07-.1-.1-.1-.26,0-.35l13.45-13.46c.1-.1.26-.1.35,0s.1.26,0,.35l-13.45,13.46s-.11.07-.18.07Z"/>
        <path class="cls-3" d="m20.48,631.48c-.14,0-.25-.11-.25-.25v-89.5c0-.14.11-.25.25-.25s.25.11.25.25v89.5c0,.14-.11.25-.25.25Z"/>
        <path class="cls-3" d="m44.7,326.81c-.14,0-.25-.11-.25-.25v-65.28c0-.14.11-.25.25-.25s.25.11.25.25v65.28c0,.14-.11.25-.25.25Z"/>
        <path class="cls-3" d="m44.7,607.27c-.14,0-.25-.11-.25-.25v-65.28c0-.14.11-.25.25-.25s.25.11.25.25v65.28c0,.14-.11.25-.25.25Z"/>
        <path class="cls-3" d="m141.48,801.02c-.14,0-.25-.11-.25-.25v-169.53c0-.14.11-.25.25-.25s.25.11.25.25v169.53c0,.14-.11.25-.25.25Z"/>
        <path class="cls-3" d="m121.34,801.02c-.14,0-.25-.11-.25-.25v-169.53c0-.14.11-.25.25-.25s.25.11.25.25v169.53c0,.14-.11.25-.25.25Z"/>
        <path class="cls-3" d="m402.5,607.27H44.7c-.14,0-.25-.11-.25-.25s.11-.25.25-.25h357.8c.14,0,.25.11.25.25s-.11.25-.25.25Z"/>
        <path class="cls-3" d="m294.86,631.48H20.48c-.14,0-.25-.11-.25-.25s.11-.25.25-.25h274.38c.14,0,.25.11.25.25s-.11.25-.25.25Z"/>
        <path class="cls-3" d="m402.5,48.94c-.14,0-.25-.11-.25-.25V.25c0-.14.11-.25.25-.25s.25.11.25.25v48.44c0,.14-.11.25-.25.25Z"/>
        <path class="cls-3" d="m402.5,261.52c-.14,0-.25-.11-.25-.25v-24.22c0-.14.11-.25.25-.25s.25.11.25.25v24.22c0,.14-.11.25-.25.25Z"/>
        <path class="cls-3" d="m255.89,227.84c-.14,0-.25-.11-.25-.25V80.98c0-.14.11-.25.25-.25s.25.11.25.25v146.61c0,.14-.11.25-.25.25Z"/>
        <path class="cls-3" d="m402.5,640.85c-.14,0-.25-.11-.25-.25v-33.59c0-.14.11-.25.25-.25s.25.11.25.25v33.59c0,.14-.11.25-.25.25Z"/>
        <path class="cls-3" d="m402.5,922.01c-.14,0-.25-.11-.25-.25v-160.06c0-.14.11-.25.25-.25s.25.11.25.25v160.06c0,.14-.11.25-.25.25Z"/>
        <path class="cls-3" d="m378.28,48.94c-.14,0-.25-.11-.25-.25v-24.22c0-.14.11-.25.25-.25s.25.11.25.25v24.22c0,.14-.11.25-.25.25Z"/>
        <path class="cls-3" d="m378.28,897.79c-.14,0-.25-.11-.25-.25v-135.84c0-.14.11-.25.25-.25s.25.11.25.25v135.84c0,.14-.11.25-.25.25Z"/>
        <path class="cls-3" d="m378.28,237.31H20.48c-.14,0-.25-.11-.25-.25s.11-.25.25-.25h357.8c.14,0,.25.11.25.25s-.11.25-.25.25Z"/>
        <path class="cls-3" d="m389.05,261.27l13.45,224.65h-13.45v-224.65Zm13.45,0h-13.45l13.45,224.65v-224.65Z"/>
        <path class="cls-1" d="m389.05,261.27l13.45,224.65h-13.45v-224.65Zm13.45,0h-13.45l13.45,224.65v-224.65Z"/>
        <path class="cls-3" d="m402.5,261.52H44.7c-.14,0-.25-.11-.25-.25s.11-.25.25-.25h357.8c.14,0,.25.11.25.25s-.11.25-.25.25Z"/>
        <path class="cls-3" d="m1089.9.5H402.5c-.14,0-.25-.11-.25-.25s.11-.25.25-.25h687.39c.14,0,.25.11.25.25s-.11.25-.25.25Z"/>
        <path class="cls-3" d="m854.49,418.65l13.45,33.69h-13.45v-33.69Zm13.45,0h-13.45l13.45,33.69v-33.69Z"/>
        <path class="cls-1" d="m854.49,418.65l13.45,33.69h-13.45v-33.69Zm13.45,0h-13.45l13.45,33.69v-33.69Z"/>
        <path class="cls-3" d="m523.59,452.33l411.62,13.45h-411.62v-13.45Zm411.62,0h-411.62l411.62,13.45v-13.45Z"/>
        <path class="cls-1" d="m523.59,452.33l411.62,13.45h-411.62v-13.45Zm411.62,0h-411.62l411.62,13.45v-13.45Z"/>
        <path class="cls-3" d="m854.49,20.48l13.45,263.62h-13.45V20.48Zm13.45,0h-13.45l13.45,263.62V20.48Z"/>
        <path class="cls-1" d="m854.49,20.48l13.45,263.62h-13.45V20.48Zm13.45,0h-13.45l13.45,263.62V20.48Z"/>
        <path class="cls-3" d="m854.49,284.1l13.45,121.09h-13.45v-121.09Zm13.45,0h-13.45l13.45,121.09v-121.09Z"/>
        <path class="cls-1" d="m854.49,284.1l13.45,121.09h-13.45v-121.09Zm13.45,0h-13.45l13.45,121.09v-121.09Z"/>
        <path class="cls-3" d="m854.49,405.19l94.18,13.45h-94.18v-13.45Zm94.18,0h-94.18l94.18,13.45v-13.45Z"/>
        <path class="cls-1" d="m854.49,405.19l94.18,13.45h-94.18v-13.45Zm94.18,0h-94.18l94.18,13.45v-13.45Z"/>
        <path class="cls-3" d="m935.21,418.65l13.45,33.69h-13.45v-33.69Zm13.45,0h-13.45l13.45,33.69v-33.69Z"/>
        <path class="cls-1" d="m935.21,418.65l13.45,33.69h-13.45v-33.69Zm13.45,0h-13.45l13.45,33.69v-33.69Z"/>
        <path class="cls-3" d="m935.21,452.33l26.91,13.45h-26.91v-13.45Zm26.91,0h-26.91l26.91,13.45v-13.45Z"/>
        <path class="cls-1" d="m935.21,452.33l26.91,13.45h-26.91v-13.45Zm26.91,0h-26.91l26.91,13.45v-13.45Z"/>
        <path class="cls-3" d="m1069.76,20.73H402.5c-.14,0-.25-.11-.25-.25s.11-.25.25-.25h667.26c.14,0,.25.11.25.25s-.11.25-.25.25Z"/>
        <path class="cls-3" d="m1089.9,546.67h-16.15c-.14,0-.25-.11-.25-.25v-8.07c0-.14.11-.25.25-.25s.25.11.25.25v7.82h15.65v-7.82c0-.14.11-.25.25-.25s.25.11.25.25v8.07c0,.14-.11.25-.25.25Z"/>
        <path class="cls-3" d="m1089.9,686.6c-.14,0-.25-.11-.25-.25v-7.82h-15.65v7.82c0,.14-.11.25-.25.25s-.25-.11-.25-.25v-8.07c0-.14.11-.25.25-.25h16.15c.14,0,.25.11.25.25v8.07c0,.14-.11.25-.25.25Z"/>
        <path class="cls-3" d="m1073.75,550.75h-131.86c-.14,0-.25-.11-.25-.25v-4.09c0-.14.11-.25.25-.25h131.86c.14,0,.25.11.25.25v4.09c0,.14-.11.25-.25.25Zm-131.61-.5h131.36v-3.59h-131.36v3.59Z"/>
        <path class="cls-3" d="m1073.7,678.43c-72.82,0-132.06-59.24-132.06-132.06,0-.14.11-.25.25-.25s.25.11.25.25c0,72.54,59.02,131.56,131.56,131.56.14,0,.25.11.25.25s-.11.25-.25.25Z"/>
        <path class="cls-3" d="m101.11,227.84c-.07,0-.13-.03-.18-.08-.09-.1-.09-.26,0-.35L255.72,80.8c.1-.09.26-.09.35,0,.09.1.09.26,0,.35L101.28,227.77s-.11.07-.17.07Z"/>
        <path class="cls-3" d="m255.89,227.84s-.1-.01-.14-.04L100.97,121.55c-.11-.08-.14-.23-.06-.35.08-.11.23-.14.35-.06l154.78,106.24c.11.08.14.23.06.35-.05.07-.13.11-.21.11Z"/>
        <path class="cls-3" d="m205.16,821.45c-.14,0-.25-.11-.25-.25v-68.27c0-.14.11-.25.25-.25s.25.11.25.25v68.27c0,.14-.11.25-.25.25Z"/>
        <path class="cls-3" d="m210.84,803.41c-.06,0-.11-.02-.16-.06l-1.03-.84h-1.11c-.09,0-.18-.05-.22-.14-.04-.08-.03-.19.02-.26l.6-.8c.08-.11.24-.13.35-.05.11.08.13.24.05.35l-.3.4h.7c.06,0,.11.02.16.06l.95.78,2.19-1.55,2.24-3.99.49-5.73-.5-5.74-1.79-6.53-2.87-5.63c-.03-.06-.04-.13-.01-.2l1.79-4.98,2.82-13.62h-10.06c-.14,0-.25-.11-.25-.25s.11-.25.25-.25h10.37c.08,0,.15.03.19.09.05.06.07.13.05.21l-2.89,13.95-1.77,4.92,2.84,5.58,1.81,6.63.51,5.82-.5,5.82s-.01.07-.03.1l-2.29,4.09s-.04.06-.07.08l-2.39,1.69s-.09.05-.14.05Z"/>
        <path class="cls-3" d="m248.32,773.81h-22.42c-.14,0-.25-.11-.25-.25v-20.63c0-.14.11-.25.25-.25h22.42c.14,0,.25.11.25.25v20.63c0,.14-.11.25-.25.25Zm-22.17-.5h21.92v-20.13h-21.92v20.13Z"/>
        <path class="cls-3" d="m248.32,763.94h-22.42c-.14,0-.25-.11-.25-.25s.11-.25.25-.25h22.42c.14,0,.25.11.25.25s-.11.25-.25.25Z"/>
        <path class="cls-3" d="m252.9,782.78h-33.39c-.14,0-.25-.11-.25-.25s.11-.25.25-.25h33.39c.14,0,.25.11.25.25s-.11.25-.25.25Z"/>
        <path class="cls-3" d="m220.11,803.41c-.05,0-.11-.02-.16-.05-.11-.09-.13-.24-.04-.35l3.97-4.96,4.07-9.04,1.68-6.54c.03-.13.17-.21.3-.18.13.03.21.17.18.3l-1.69,6.58-4.1,9.11s-.02.04-.03.05l-3.99,4.98c-.05.06-.12.09-.2.09Z"/>
        <path class="cls-3" d="m247.12,819.85h-2.89s-.06,0-.09-.02l-2.29-.9c-.13-.05-.19-.2-.14-.32.05-.13.2-.19.32-.14l2.25.88h2.7l2.79-4.81.59-5.73v-16.17h-22.77c-.14,0-.25-.11-.25-.25s.11-.25.25-.25h23.02c.14,0,.25.11.25.25v16.44l-.6,5.81s-.01.07-.03.1l-2.89,4.98c-.04.08-.13.12-.22.12Z"/>
        <path class="cls-3" d="m219.51,818.96c-.06,0-.13-.02-.18-.07-.1-.1-.1-.26,0-.35l5.78-5.68,6.23-9.8,2.88-9.04c.04-.13.18-.2.31-.16.13.04.2.18.16.31l-2.89,9.07s-.02.04-.03.06l-6.28,9.87-5.82,5.73s-.11.07-.18.07Z"/>
        <path class="cls-3" d="m231.57,821.45c-.05,0-.11-.02-.16-.05-.11-.09-.13-.24-.04-.35l4.56-5.76,4.67-10.63,2.28-10.62c.03-.13.16-.22.3-.19.14.03.22.16.19.3l-2.29,10.66-4.7,10.71s-.02.04-.03.05l-4.58,5.78c-.05.06-.12.09-.2.09Z"/>
        <path class="cls-3" d="m318.48,758.16h-41.96c-.14,0-.25-.11-.25-.25s.11-.25.25-.25h41.96c.14,0,.25.11.25.25s-.11.25-.25.25Z"/>
        <path class="cls-3" d="m297.75,764.74c-.14,0-.25-.11-.25-.25v-12.36c0-.14.11-.25.25-.25s.25.11.25.25v12.36c0,.14-.11.25-.25.25Z"/>
        <path class="cls-3" d="m316.19,764.74h-35.68c-.14,0-.25-.11-.25-.25s.11-.25.25-.25h35.68c.14,0,.25.11.25.25s-.11.25-.25.25Z"/>
        <path class="cls-3" d="m314.99,779.49h-32.19c-.14,0-.25-.11-.25-.25v-8.17c0-.14.11-.25.25-.25h32.19c.14,0,.25.11.25.25v8.17c0,.14-.11.25-.25.25Zm-31.94-.5h31.69v-7.67h-31.69v7.67Z"/>
        <path class="cls-3" d="m320.18,795.13c-.14,0-.25-.11-.25-.25v-8.82h-43.15v8.82c0,.14-.11.25-.25.25s-.25-.11-.25-.25v-9.07c0-.14.11-.25.25-.25h43.65c.14,0,.25.11.25.25v9.07c0,.14-.11.25-.25.25Z"/>
        <path class="cls-3" d="m314.99,792.64h-32.79c-.14,0-.25-.11-.25-.25s.11-.25.25-.25h32.79c.14,0,.25.11.25.25s-.11.25-.25.25Z"/>
        <path class="cls-3" d="m287.39,804.2s-.09-.01-.14-.04c-.12-.08-.15-.23-.07-.35l7.47-11.56c.07-.12.23-.15.35-.07s.15.23.07.35l-7.47,11.56c-.05.07-.13.11-.21.11Z"/>
        <path class="cls-3" d="m284,805c-.13,0-.24-.1-.25-.24,0-.14.1-.26.24-.26l27.61-1.59c.14-.02.26.1.26.23,0,.14-.1.26-.24.26l-27.61,1.59s0,0-.01,0Z"/>
        <path class="cls-3" d="m313.9,807.49c-.08,0-.16-.04-.2-.11l-1.2-1.69-1.71-3.32-1.68-2.36c-.08-.11-.05-.27.06-.35.11-.08.27-.05.35.06l1.69,2.39,1.71,3.32,1.18,1.66c.08.11.05.27-.06.35-.04.03-.09.05-.14.05Z"/>
        <path class="cls-3" d="m315.59,813.27h-34.48c-.14,0-.25-.11-.25-.25s.11-.25.25-.25h34.48c.14,0,.25.11.25.25s-.11.25-.25.25Z"/>
        <path class="cls-3" d="m297.75,821.45c-.14,0-.25-.11-.25-.25v-16.44c0-.14.11-.25.25-.25s.25.11.25.25v16.44c0,.14-.11.25-.25.25Z"/>
        <path class="cls-3" d="m319.68,821.45h-43.16c-.14,0-.25-.11-.25-.25s.11-.25.25-.25h43.16c.14,0,.25.11.25.25s-.11.25-.25.25Z"/>
        <path class="cls-3" d="m402.5,640.85h-107.64c-.14,0-.25-.11-.25-.25s.11-.25.25-.25h107.64c.14,0,.25.11.25.25s-.11.25-.25.25Z"/>
        <path class="cls-3" d="m362.14,227.84H101.11c-.14,0-.25-.11-.25-.25s.11-.25.25-.25h261.02c.14,0,.25.11.25.25s-.11.25-.25.25Z"/>
        <path class="cls-3" d="m294.86,640.85c-.14,0-.25-.11-.25-.25v-9.37c0-.14.11-.25.25-.25s.25.11.25.25v9.37c0,.14-.11.25-.25.25Z"/>
        <path class="cls-3" d="m20.48,631.48H7.03c-.14,0-.25-.11-.25-.25v-40.36c0-.14.11-.25.25-.25h13.45c.14,0,.25.11.25.25s-.11.25-.25.25H7.28v39.86h13.2c.14,0,.25.11.25.25s-.11.25-.25.25Z"/>
        <path class="cls-3" d="m20.48,277.67H7.03c-.14,0-.25-.11-.25-.25v-40.36c0-.14.11-.25.25-.25h13.45c.14,0,.25.11.25.25s-.11.25-.25.25H7.28v39.86h13.2c.14,0,.25.11.25.25s-.11.25-.25.25Z"/>
        <path class="cls-3" d="m44.7,326.81h-24.22c-.14,0-.25-.11-.25-.25s.11-.25.25-.25h24.22c.14,0,.25.11.25.25s-.11.25-.25.25Z"/>
        <path class="cls-3" d="m44.7,541.98h-24.22c-.14,0-.25-.11-.25-.25s.11-.25.25-.25h24.22c.14,0,.25.11.25.25s-.11.25-.25.25Z"/>
        <path class="cls-3" d="m20.48,541.98c-.14,0-.25-.11-.25-.25v-215.18c0-.14.11-.25.25-.25s.25.11.25.25v215.18c0,.14-.11.25-.25.25Z"/>
        <path class="cls-3" d="m44.7,541.98c-.14,0-.25-.11-.25-.25v-215.18c0-.14.11-.25.25-.25s.25.11.25.25v215.18c0,.14-.11.25-.25.25Z"/>
        <path class="cls-3" d="m44.7,334.88h-16.15c-.14,0-.25-.11-.25-.25s.11-.25.25-.25h16.15c.14,0,.25.11.25.25s-.11.25-.25.25Z"/>
        <path class="cls-3" d="m44.7,533.91h-16.15c-.14,0-.25-.11-.25-.25s.11-.25.25-.25h16.15c.14,0,.25.11.25.25s-.11.25-.25.25Z"/>
        <path class="cls-3" d="m33.94,439.73c-.14,0-.25-.11-.25-.25v-104.85c0-.14.11-.25.25-.25s.25.11.25.25v104.85c0,.14-.11.25-.25.25Z"/>
        <path class="cls-3" d="m39.32,533.91c-.14,0-.25-.11-.25-.25v-104.95c0-.14.11-.25.25-.25s.25.11.25.25v104.95c0,.14-.11.25-.25.25Z"/>
        <path class="cls-3" d="m28.56,541.98c-.14,0-.25-.11-.25-.25v-215.18c0-.14.11-.25.25-.25s.25.11.25.25v215.18c0,.14-.11.25-.25.25Z"/>
        <path class="cls-3" d="m50.08,434.34h-26.91c-.14,0-.25-.11-.25-.25s.11-.25.25-.25h26.91c.14,0,.25.11.25.25s-.11.25-.25.25Z"/>
        <path class="cls-3" d="m402.5,237.31h-24.22c-.14,0-.25-.11-.25-.25s.11-.25.25-.25h24.22c.14,0,.25.11.25.25s-.11.25-.25.25Z"/>
        <path class="cls-3" d="m402.5,48.94h-24.22c-.14,0-.25-.11-.25-.25s.11-.25.25-.25h24.22c.14,0,.25.11.25.25s-.11.25-.25.25Z"/>
        <path class="cls-3" d="m378.28,237.31c-.14,0-.25-.11-.25-.25V48.69c0-.14.11-.25.25-.25s.25.11.25.25v188.37c0,.14-.11.25-.25.25Z"/>
        <path class="cls-3" d="m402.5,237.31c-.14,0-.25-.11-.25-.25V48.69c0-.14.11-.25.25-.25s.25.11.25.25v188.37c0,.14-.11.25-.25.25Z"/>
        <path class="cls-3" d="m402.5,229.23h-16.15c-.14,0-.25-.11-.25-.25s.11-.25.25-.25h16.15c.14,0,.25.11.25.25s-.11.25-.25.25Z"/>
        <path class="cls-3" d="m402.5,57.01h-16.15c-.14,0-.25-.11-.25-.25s.11-.25.25-.25h16.15c.14,0,.25.11.25.25s-.11.25-.25.25Z"/>
        <path class="cls-3" d="m391.74,148.5c-.14,0-.25-.11-.25-.25V56.76c0-.14.11-.25.25-.25s.25.11.25.25v91.49c0,.14-.11.25-.25.25Z"/>
        <path class="cls-3" d="m397.12,229.23c-.14,0-.25-.11-.25-.25v-91.49c0-.14.11-.25.25-.25s.25.11.25.25v91.49c0,.14-.11.25-.25.25Z"/>
        <path class="cls-3" d="m386.35,237.31c-.14,0-.25-.11-.25-.25V48.69c0-.14.11-.25.25-.25s.25.11.25.25v188.37c0,.14-.11.25-.25.25Z"/>
        <path class="cls-3" d="m407.88,143.12h-26.91c-.14,0-.25-.11-.25-.25s.11-.25.25-.25h26.91c.14,0,.25.11.25.25s-.11.25-.25.25Z"/>
        <path class="cls-3" d="m402.5,761.95h-24.22c-.14,0-.25-.11-.25-.25s.11-.25.25-.25h24.22c.14,0,.25.11.25.25s-.11.25-.25.25Z"/>
        <path class="cls-3" d="m402.5,648.93h-13.45c-.14,0-.25-.11-.25-.25v-8.07c0-.14.11-.25.25-.25s.25.11.25.25v7.82h12.95v-7.82c0-.14.11-.25.25-.25s.25.11.25.25v8.07c0,.14-.11.25-.25.25Z"/>
        <path class="cls-3" d="m402.5,761.95c-.14,0-.25-.11-.25-.25v-7.82h-12.95v7.82c0,.14-.11.25-.25.25s-.25-.11-.25-.25v-8.07c0-.14.11-.25.25-.25h13.45c.14,0,.25.11.25.25v8.07c0,.14-.11.25-.25.25Z"/>
        <path class="cls-3" d="m393.03,753.87c-.14,0-.25-.11-.25-.25v-104.95c0-.14.11-.25.25-.25s.25.11.25.25v104.95c0,.14-.11.25-.25.25Z"/>
        <path class="cls-3" d="m402.5,753.87c-.14,0-.25-.11-.25-.25v-104.95c0-.14.11-.25.25-.25s.25.11.25.25v104.95c0,.14-.11.25-.25.25Z"/>
        <path class="cls-3" d="m389.05,653.01h-104.95c-.14,0-.25-.11-.25-.25v-4.09c0-.14.11-.25.25-.25h104.95c.14,0,.25.11.25.25v4.09c0,.14-.11.25-.25.25Zm-104.7-.5h104.45v-3.59h-104.45v3.59Z"/>
        <path class="cls-3" d="m389,753.77c-57.98,0-105.15-47.17-105.15-105.15,0-.14.11-.25.25-.25s.25.11.25.25c0,57.7,46.94,104.65,104.65,104.65.14,0,.25.11.25.25s-.11.25-.25.25Z"/>
        <path class="cls-3" d="m269.35,227.84c-.14,0-.25-.11-.25-.25V80.98c0-.14.11-.25.25-.25s.25.11.25.25v146.61c0,.14-.11.25-.25.25Z"/>
        <path class="cls-3" d="m276.02,227.84c-.14,0-.25-.11-.25-.25V80.98c0-.14.11-.25.25-.25s.25.11.25.25v146.61c0,.14-.11.25-.25.25Z"/>
        <path class="cls-3" d="m362.14,227.84c-.14,0-.25-.11-.25-.25V80.98c0-.14.11-.25.25-.25s.25.11.25.25v146.61c0,.14-.11.25-.25.25Z"/>
        <path class="cls-3" d="m1069.76,155.28h-201.82c-.14,0-.25-.11-.25-.25s.11-.25.25-.25h201.82c.14,0,.25.11.25.25s-.11.25-.25.25Z"/>
        <path class="cls-3" d="m1069.76,148.5h-201.82c-.14,0-.25-.11-.25-.25s.11-.25.25-.25h201.82c.14,0,.25.11.25.25s-.11.25-.25.25Z"/>
        <path class="cls-3" d="m888.57,247.17h-8.07c-.14,0-.25-.11-.25-.25s.11-.25.25-.25h7.82v-4.24c0-.14.11-.25.25-.25h4.88l50.6-5.28c.14-.02.26.09.27.22.01.14-.09.26-.22.27l-50.63,5.28h-4.66v4.24c0,.14-.11.25-.25.25Z"/>
        <path class="cls-3" d="m943.96,237.29c-.13,0-.23-.1-.25-.22-.01-.14.08-.26.22-.27,10.17-1.07,17.84-9.59,17.84-19.82,0-.14.11-.25.25-.25s.25.11.25.25c0,10.49-7.86,19.22-18.29,20.32,0,0-.02,0-.03,0Z"/>
        <path class="cls-3" d="m962.12,217.27c-.14,0-.25-.11-.25-.25v-8.37c0-.14.11-.25.25-.25s.25.11.25.25v8.37c0,.14-.11.25-.25.25Z"/>
        <path class="cls-3" d="m962.02,208.85c-.14,0-.25-.11-.25-.25,0-10.23-7.67-18.75-17.84-19.82-.14-.01-.24-.14-.22-.27.01-.14.14-.24.27-.22,10.43,1.1,18.29,9.83,18.29,20.32,0,.14-.11.25-.25.25Z"/>
        <path class="cls-3" d="m944.08,188.77s-.02,0-.03,0l-50.63-5.28h-22.8c-.14,0-.25-.11-.25-.25s.11-.25.25-.25h22.82l50.66,5.28c.14.01.24.14.22.27-.01.13-.12.22-.25.22Z"/>
        <path class="cls-3" d="m867.94,186.13c-.14,0-.25-.11-.25-.25,0-1.59,1.3-2.89,2.89-2.89.14,0,.25.11.25.25s-.11.25-.25.25c-1.32,0-2.39,1.07-2.39,2.39,0,.14-.11.25-.25.25Z"/>
        <path class="cls-3" d="m867.94,240c-.14,0-.25-.11-.25-.25v-53.82c0-.14.11-.25.25-.25s.25.11.25.25v53.82c0,.14-.11.25-.25.25Z"/>
        <path class="cls-3" d="m870.58,242.59c-1.59,0-2.89-1.3-2.89-2.89,0-.14.11-.25.25-.25s.25.11.25.25c0,1.32,1.07,2.39,2.39,2.39.14,0,.25.11.25.25s-.11.25-.25.25Z"/>
        <path class="cls-3" d="m880.5,247.17c-.14,0-.25-.11-.25-.25v-4.24h-9.62c-.14,0-.25-.11-.25-.25s.11-.25.25-.25h9.87c.14,0,.25.11.25.25v4.49c0,.14-.11.25-.25.25Z"/>
        <path class="cls-3" d="m899.53,236.61c-.13,0-.24-.1-.25-.22-.01-.14.09-.26.22-.27l43.95-4.58c.14-.01.26.09.27.22.01.14-.09.26-.22.27l-43.95,4.58s-.02,0-.03,0Z"/>
        <path class="cls-3" d="m902.52,239c-.13,0-.24-.1-.25-.22-.01-.14.09-.26.22-.27l41.26-4.29c.14-.02.26.09.27.22.01.14-.09.26-.22.27l-41.26,4.29s-.02,0-.03,0Z"/>
        <path class="cls-3" d="m943.49,194.15s-.02,0-.03,0l-43.95-4.58c-.14-.01-.24-.14-.22-.27.01-.14.13-.24.27-.22l43.95,4.58c.14.01.24.14.22.27-.01.13-.12.22-.25.22Z"/>
        <path class="cls-3" d="m943.79,191.46s-.02,0-.03,0l-41.26-4.29c-.14-.01-.24-.14-.22-.27.01-.14.13-.24.27-.22l41.26,4.29c.14.01.24.14.22.27-.01.13-.12.22-.25.22Z"/>
        <path class="cls-3" d="m888.57,241.79h-8.07c-.14,0-.25-.11-.25-.25s.11-.25.25-.25h8.07c.14,0,.25.11.25.25s-.11.25-.25.25Z"/>
        <path class="cls-3" d="m902.18,238.9c-.71,0-1.4-.26-1.93-.74-.61-.55-.96-1.33-.96-2.15,0-.14.11-.25.25-.25s.25.11.25.25c0,.68.29,1.32.79,1.78.5.45,1.18.67,1.85.6.14-.02.26.08.27.22.01.14-.08.26-.22.27-.1.01-.2.02-.3.02Z"/>
        <path class="cls-3" d="m899.53,189.81c-.14,0-.25-.11-.25-.25,0-.82.35-1.6.96-2.15.61-.55,1.42-.81,2.24-.73.14.01.24.14.22.27-.01.14-.14.23-.27.22-.67-.07-1.35.15-1.85.6-.5.45-.79,1.1-.79,1.78,0,.14-.11.25-.25.25Z"/>
        <path class="cls-3" d="m899.53,236.31c-.14,0-.25-.11-.25-.25v-46.44c0-.14.11-.25.25-.25s.25.11.25.25v46.44c0,.14-.11.25-.25.25Z"/>
        <path class="cls-3" d="m893.45,242.69c-.07,0-.14-.03-.19-.09l-3.59-4.39c-.09-.11-.07-.26.04-.35.11-.09.26-.07.35.04l3.59,4.39c.09.11.07.26-.04.35-.05.04-.1.06-.16.06Z"/>
        <path class="cls-3" d="m889.87,187.87c-.06,0-.11-.02-.16-.06-.11-.09-.12-.24-.04-.35l3.59-4.39c.09-.11.25-.12.35-.04.11.09.12.24.04.35l-3.59,4.39c-.05.06-.12.09-.19.09Z"/>
        <path class="cls-3" d="m868.74,241.89c-.06,0-.13-.02-.17-.07-.1-.1-.1-.25,0-.35l3.59-3.69c.1-.1.25-.1.35,0,.1.1.1.25,0,.35l-3.59,3.69c-.05.05-.11.08-.18.08Z"/>
        <path class="cls-3" d="m872.33,187.87c-.06,0-.13-.02-.18-.07l-3.59-3.59c-.1-.1-.1-.26,0-.35s.26-.1.35,0l3.59,3.59c.1.1.1.26,0,.35-.05.05-.11.07-.18.07Z"/>
        <path class="cls-3" d="m890.25,188.61c-.12,0-.23-.09-.25-.21-.08-.54-.54-.93-1.08-.93-.14,0-.25-.11-.25-.25s.11-.25.25-.25c.79,0,1.46.57,1.58,1.35.02.14-.07.26-.21.29-.01,0-.03,0-.04,0Z"/>
        <path class="cls-3" d="m888.92,238.6c-.14,0-.25-.11-.25-.25s.11-.25.25-.25c.54,0,1-.39,1.08-.93.02-.14.15-.23.29-.21.14.02.23.15.21.29-.12.78-.78,1.35-1.58,1.35Z"/>
        <path class="cls-3" d="m873.27,238.6c-.88,0-1.6-.72-1.6-1.6,0-.14.11-.25.25-.25s.25.11.25.25c0,.6.49,1.1,1.1,1.1.14,0,.25.11.25.25s-.11.25-.25.25Z"/>
        <path class="cls-3" d="m871.93,188.82c-.14,0-.25-.11-.25-.25,0-.88.72-1.6,1.6-1.6.14,0,.25.11.25.25s-.11.25-.25.25c-.6,0-1.1.49-1.1,1.1,0,.14-.11.25-.25.25Z"/>
        <path class="cls-3" d="m888.97,187.57h-15.65c-.14,0-.25-.11-.25-.25s.11-.25.25-.25h15.65c.14,0,.25.11.25.25s-.11.25-.25.25Z"/>
        <path class="cls-3" d="m871.93,237.31c-.14,0-.25-.11-.25-.25v-48.44c0-.14.11-.25.25-.25s.25.11.25.25v48.44c0,.14-.11.25-.25.25Z"/>
        <path class="cls-3" d="m888.97,238.6h-15.65c-.14,0-.25-.11-.25-.25s.11-.25.25-.25h15.65c.14,0,.25.11.25.25s-.11.25-.25.25Z"/>
        <path class="cls-3" d="m890.29,237.46s-.03,0-.04,0c-.14-.02-.23-.15-.21-.29,2.5-16.18,2.5-32.58,0-48.76-.02-.14.07-.26.21-.29.14-.02.26.07.29.21,2.5,16.23,2.5,32.69,0,48.92-.02.12-.13.21-.25.21Z"/>
        <path class="cls-3" d="m893.46,242.63s-.03,0-.05,0c-.14-.02-.23-.16-.2-.29,3.59-19.6,3.59-39.48,0-59.09-.02-.14.06-.27.2-.29.14-.02.27.07.29.2,3.6,19.66,3.6,39.6,0,59.27-.02.12-.13.21-.25.21Z"/>
        <path class="cls-3" d="m880.5,242.69c-.14,0-.25-.11-.25-.25v-.9c0-.14.11-.25.25-.25s.25.11.25.25v.9c0,.14-.11.25-.25.25Z"/>
        <polygon class="cls-3" points="888.57 241.34 888.47 241.44 888.37 241.54 888.47 241.64 888.57 241.74 888.67 241.64 888.77 241.54 888.67 241.44 888.57 241.34"/>
        <polygon class="cls-2" points="888.57 241.34 888.47 241.44 888.37 241.54 888.47 241.64 888.57 241.74 888.67 241.64 888.77 241.54 888.67 241.44 888.57 241.34"/>
        <polygon class="cls-3" points="888.57 241.34 888.47 241.44 888.37 241.54 888.47 241.64 888.57 241.74 888.67 241.64 888.77 241.54 888.67 241.44 888.57 241.34"/>
        <polygon class="cls-2" points="888.57 241.34 888.47 241.44 888.37 241.54 888.47 241.64 888.57 241.74 888.67 241.64 888.77 241.54 888.67 241.44 888.57 241.34"/>
        <polygon class="cls-3" points="888.57 241.34 888.47 241.44 888.37 241.54 888.47 241.64 888.57 241.74 888.67 241.64 888.77 241.54 888.67 241.44 888.57 241.34"/>
        <polygon class="cls-2" points="888.57 241.34 888.47 241.44 888.37 241.54 888.47 241.64 888.57 241.74 888.67 241.64 888.77 241.54 888.67 241.44 888.57 241.34"/>
        <polygon class="cls-3" points="888.57 241.34 888.47 241.44 888.37 241.54 888.47 241.64 888.57 241.74 888.67 241.64 888.77 241.54 888.67 241.44 888.57 241.34"/>
        <polygon class="cls-2" points="888.57 241.34 888.47 241.44 888.37 241.54 888.47 241.64 888.57 241.74 888.67 241.64 888.77 241.54 888.67 241.44 888.57 241.34"/>
        <path class="cls-3" d="m888.57,242.69c-.14,0-.25-.11-.25-.25v-.9c0-.14.11-.25.25-.25s.25.11.25.25v.9c0,.14-.11.25-.25.25Z"/>
        <path class="cls-3" d="m943.39,231.94c-.13,0-.23-.1-.25-.22-.01-.14.08-.26.22-.27,7.43-.78,13.03-7,13.03-14.47,0-.14.11-.25.25-.25s.25.11.25.25c0,7.72-5.79,14.16-13.47,14.97,0,0-.02,0-.03,0Z"/>
        <path class="cls-3" d="m943.67,234.62c-.13,0-.23-.1-.25-.22-.01-.14.08-.26.22-.27,8.8-.93,15.43-8.3,15.43-17.15,0-.14.11-.25.25-.25s.25.11.25.25c0,9.1-6.83,16.69-15.88,17.64,0,0-.02,0-.03,0Z"/>
        <path class="cls-3" d="m956.74,217.27c-.14,0-.25-.11-.25-.25v-8.37c0-.14.11-.25.25-.25s.25.11.25.25v8.37c0,.14-.11.25-.25.25Z"/>
        <path class="cls-3" d="m959.43,217.27c-.14,0-.25-.11-.25-.25v-8.37c0-.14.11-.25.25-.25s.25.11.25.25v8.37c0,.14-.11.25-.25.25Z"/>
        <path class="cls-3" d="m956.64,208.85c-.14,0-.25-.11-.25-.25,0-7.47-5.6-13.69-13.03-14.47-.14-.01-.24-.14-.22-.27.01-.14.14-.24.27-.22,7.68.81,13.47,7.24,13.47,14.97,0,.14-.11.25-.25.25Z"/>
        <path class="cls-3" d="m959.33,208.85c-.14,0-.25-.11-.25-.25,0-8.85-6.64-16.22-15.43-17.15-.14-.01-.24-.14-.22-.27.01-.14.14-.24.27-.22,9.05.95,15.88,8.54,15.88,17.64,0,.14-.11.25-.25.25Z"/>
        <path class="cls-3" d="m914.88,219.76s-.01,0-.02,0l-1.3-.1-1.24-.31s-.04-.01-.06-.02l-1.1-.6-1.03-.82c-.11-.09-.13-.24-.04-.35.09-.11.24-.12.35-.04l1,.8,1.03.56,1.17.29,1.25.09c.14.01.24.13.23.27-.01.13-.12.23-.25.23Z"/>
        <path class="cls-3" d="m909.1,216.38c-.08,0-.17-.04-.21-.12l-.3-.5-.42-1.25-.21-1.34v-1.33s0-.06.01-.09l.2-.5c.05-.13.2-.19.32-.14.13.05.19.2.14.32l-.18.45v1.25l.2,1.26.39,1.15.28.45c.07.12.03.27-.09.34-.04.02-.08.04-.13.04Z"/>
        <path class="cls-3" d="m909.1,209.7s-.1-.01-.14-.05c-.11-.08-.14-.23-.06-.35l.7-1,.93-.93,1.14-.73,1.23-.52c.13-.05.27,0,.33.13.05.13,0,.27-.13.33l-1.2.5-1.06.68-.85.86-.67.96c-.05.07-.13.11-.21.11Z"/>
        <path class="cls-3" d="m919.47,208.2c-.06,0-.13-.02-.18-.07l-.4-.4-1.05-.66-1.16-.48-1.14-.18h-.56c-.14,0-.25-.11-.25-.25s.11-.25.25-.25h.6l1.24.2,1.25.51,1.13.72.44.43c.1.1.1.26,0,.35-.05.05-.11.07-.18.07Z"/>
        <path class="cls-3" d="m921.46,214.58s-.03,0-.04,0c-.14-.02-.23-.15-.21-.29l.2-1.2-.1-1.24-.29-1.15-.48-1.05c-.06-.13,0-.27.12-.33.13-.06.27,0,.33.12l.5,1.1.31,1.24.11,1.34-.2,1.26c-.02.12-.13.21-.25.21Z"/>
        <path class="cls-3" d="m916.78,219.47c-.12,0-.23-.09-.25-.21-.02-.14.07-.27.21-.29l.56-.09,1.16-.58.95-.77.76-.96.28-.47c.07-.12.22-.16.34-.09.12.07.16.22.09.34l-.3.5-.82,1.02-1.04.84-1.24.63s-.05.02-.07.02l-.6.1s-.03,0-.04,0Z"/>
        <path class="cls-3" d="m975.58,155.28c-.14,0-.25-.11-.25-.25v-6.78c0-.14.11-.25.25-.25s.25.11.25.25v6.78c0,.14-.11.25-.25.25Z"/>
        <path class="cls-3" d="m1056.31,155.28c-.14,0-.25-.11-.25-.25v-6.53h-3.84c-.14,0-.25-.11-.25-.25s.11-.25.25-.25h4.09c.14,0,.25.11.25.25v6.78c0,.14-.11.25-.25.25Z"/>
        <path class="cls-3" d="m1049.33,151.39c-.06,0-.13-.02-.18-.07l-51.33-51.43c-.1-.1-.1-.26,0-.35.1-.1.26-.1.35,0l51.33,51.43c.1.1.1.26,0,.35-.05.05-.11.07-.18.07Z"/>
        <path class="cls-3" d="m979.57,155.28h-3.99c-.14,0-.25-.11-.25-.25s.11-.25.25-.25h3.74v-6.28h-3.74c-.14,0-.25-.11-.25-.25s.11-.25.25-.25h3.99c.14,0,.25.11.25.25v6.78c0,.14-.11.25-.25.25Z"/>
        <path class="cls-3" d="m1052.22,148.5c-.06,0-.13-.02-.18-.07l-51.33-51.33c-.1-.1-.1-.26,0-.35s.26-.1.35,0l51.33,51.33c.1.1.1.26,0,.35-.05.05-.11.07-.18.07Z"/>
        <path class="cls-3" d="m1056.31,155.28h-4.09c-.14,0-.25-.11-.25-.25v-6.78c0-.14.11-.25.25-.25h4.09c.14,0,.25.11.25.25s-.11.25-.25.25h-3.84v6.28h3.84c.14,0,.25.11.25.25s-.11.25-.25.25Z"/>
        <path class="cls-3" d="m880.7,92.19s-.09-.01-.13-.04l-12.76-7.57c-.08-.04-.12-.13-.12-.21s.05-.17.12-.21l12.76-7.57c.08-.05.17-.05.25,0,.08.04.13.13.13.22v15.15c0,.09-.05.17-.13.22-.04.02-.08.03-.12.03Zm-12.27-7.82l12.02,7.14v-14.27l-12.02,7.14Z"/>
        <path class="cls-3" d="m1049.33,151.39c-.06,0-.13-.02-.18-.07-.1-.1-.1-.26,0-.35l2.89-2.89c.1-.1.26-.1.35,0s.1.26,0,.35l-2.89,2.89s-.11.07-.18.07Z"/>
        <path class="cls-3" d="m979.57,148.45c-.14,0-.25-.11-.25-.25,0-19.46,7.58-37.76,21.34-51.52.1-.1.26-.1.35,0s.1.26,0,.35c-13.67,13.67-21.19,31.84-21.19,51.16,0,.14-.11.25-.25.25Z"/>
        <path class="cls-3" d="m867.94,452.58c-.14,0-.25-.11-.25-.25v-33.69c0-.14.11-.25.25-.25s.25.11.25.25v33.69c0,.14-.11.25-.25.25Z"/>
        <path class="cls-3" d="m854.49,452.58c-.14,0-.25-.11-.25-.25v-33.69c0-.14.11-.25.25-.25s.25.11.25.25v33.69c0,.14-.11.25-.25.25Z"/>
        <path class="cls-3" d="m867.94,405.44c-.14,0-.25-.11-.25-.25V20.48c0-.14.11-.25.25-.25s.25.11.25.25v384.71c0,.14-.11.25-.25.25Z"/>
        <path class="cls-3" d="m854.49,418.9c-.14,0-.25-.11-.25-.25V20.48c0-.14.11-.25.25-.25s.25.11.25.25v398.17c0,.14-.11.25-.25.25Z"/>
        <path class="cls-3" d="m948.67,452.58c-.14,0-.25-.11-.25-.25v-47.14c0-.14.11-.25.25-.25s.25.11.25.25v47.14c0,.14-.11.25-.25.25Z"/>
        <path class="cls-3" d="m962.12,466.04c-.14,0-.25-.11-.25-.25v-13.45c0-.14.11-.25.25-.25s.25.11.25.25v13.45c0,.14-.11.25-.25.25Z"/>
        <path class="cls-3" d="m935.21,466.04c-.14,0-.25-.11-.25-.25v-47.14c0-.14.11-.25.25-.25s.25.11.25.25v47.14c0,.14-.11.25-.25.25Z"/>
        <path class="cls-3" d="m402.5,486.17h-13.45c-.14,0-.25-.11-.25-.25s.11-.25.25-.25h13.45c.14,0,.25.11.25.25s-.11.25-.25.25Z"/>
        <path class="cls-3" d="m962.12,452.58h-13.46c-.14,0-.25-.11-.25-.25s.11-.25.25-.25h13.46c.14,0,.25.11.25.25s-.11.25-.25.25Z"/>
        <path class="cls-3" d="m935.21,452.58h-67.27c-.14,0-.25-.11-.25-.25s.11-.25.25-.25h67.27c.14,0,.25.11.25.25s-.11.25-.25.25Z"/>
        <path class="cls-3" d="m935.21,418.9h-80.73c-.14,0-.25-.11-.25-.25s.11-.25.25-.25h80.73c.14,0,.25.11.25.25s-.11.25-.25.25Z"/>
        <path class="cls-3" d="m948.67,405.44h-80.73c-.14,0-.25-.11-.25-.25s.11-.25.25-.25h80.73c.14,0,.25.11.25.25s-.11.25-.25.25Z"/>
        <path class="cls-3" d="m402.5,486.17c-.14,0-.25-.11-.25-.25v-224.65c0-.14.11-.25.25-.25s.25.11.25.25v224.65c0,.14-.11.25-.25.25Z"/>
        <path class="cls-3" d="m389.05,486.17c-.14,0-.25-.11-.25-.25v-224.65c0-.14.11-.25.25-.25s.25.11.25.25v224.65c0,.14-.11.25-.25.25Z"/>
        <path class="cls-3" d="m402.5,607.27c-.14,0-.25-.11-.25-.25v-7.82h-12.95v7.82c0,.14-.11.25-.25.25s-.25-.11-.25-.25v-8.07c0-.14.11-.25.25-.25h13.45c.14,0,.25.11.25.25v8.07c0,.14-.11.25-.25.25Z"/>
        <path class="cls-3" d="m402.5,494.24h-13.45c-.14,0-.25-.11-.25-.25v-8.07c0-.14.11-.25.25-.25s.25.11.25.25v7.82h12.95v-7.82c0-.14.11-.25.25-.25s.25.11.25.25v8.07c0,.14-.11.25-.25.25Z"/>
        <path class="cls-3" d="m389.05,599.19h-104.95c-.14,0-.25-.11-.25-.25v-4.09c0-.14.11-.25.25-.25h104.95c.14,0,.25.11.25.25v4.09c0,.14-.11.25-.25.25Zm-104.7-.5h104.45v-3.59h-104.45v3.59Z"/>
        <path class="cls-3" d="m284.1,599.14c-.14,0-.25-.11-.25-.25,0-57.98,47.17-105.15,105.15-105.15.14,0,.25.11.25.25s-.11.25-.25.25c-57.7,0-104.65,46.94-104.65,104.65,0,.14-.11.25-.25.25Z"/>
        <path class="cls-3" d="m1069.76,466.04h-8.07c-.14,0-.25-.11-.25-.25v-13.45c0-.14.11-.25.25-.25h8.07c.14,0,.25.11.25.25s-.11.25-.25.25h-7.82v12.95h7.82c.14,0,.25.11.25.25s-.11.25-.25.25Z"/>
        <path class="cls-3" d="m970.2,466.04h-8.07c-.14,0-.25-.11-.25-.25s.11-.25.25-.25h7.82v-12.95h-7.82c-.14,0-.25-.11-.25-.25s.11-.25.25-.25h8.07c.14,0,.25.11.25.25v13.45c0,.14-.11.25-.25.25Z"/>
        <path class="cls-3" d="m1061.69,456.57h-91.49c-.14,0-.25-.11-.25-.25s.11-.25.25-.25h91.49c.14,0,.25.11.25.25s-.11.25-.25.25Z"/>
        <path class="cls-3" d="m1061.69,466.04h-91.49c-.14,0-.25-.11-.25-.25s.11-.25.25-.25h91.49c.14,0,.25.11.25.25s-.11.25-.25.25Z"/>
        <path class="cls-3" d="m1061.69,452.58h-4.09c-.14,0-.25-.11-.25-.25v-91.49c0-.14.11-.25.25-.25h4.09c.14,0,.25.11.25.25v91.49c0,.14-.11.25-.25.25Zm-3.84-.5h3.59v-90.99h-3.59v90.99Z"/>
        <path class="cls-3" d="m970.2,452.53c-.14,0-.25-.11-.25-.25,0-50.56,41.13-91.69,91.69-91.69.14,0,.25.11.25.25s-.11.25-.25.25c-50.28,0-91.19,40.91-91.19,91.19,0,.14-.11.25-.25.25Z"/>
        <path class="cls-3" d="m867.94,452.58c-.09,0-.18-.05-.22-.14-.06-.12-.01-.27.11-.34l67.27-33.69c.12-.06.27-.01.34.11.06.12.01.27-.11.34l-67.27,33.69s-.07.03-.11.03Z"/>
        <path class="cls-3" d="m935.21,452.58s-.08,0-.11-.03l-67.27-33.69c-.12-.06-.17-.21-.11-.34.06-.12.21-.17.34-.11l67.27,33.69c.12.06.17.21.11.34-.04.09-.13.14-.22.14Z"/>
        <path class="cls-3" d="m962.12,466.04h-26.91c-.14,0-.25-.11-.25-.25s.11-.25.25-.25h26.91c.14,0,.25.11.25.25s-.11.25-.25.25Z"/>
        <path class="cls-3" d="m854.49,452.58h-330.89c-.14,0-.25-.11-.25-.25s.11-.25.25-.25h330.89c.14,0,.25.11.25.25s-.11.25-.25.25Z"/>
        <path class="cls-3" d="m935.21,466.04h-411.62c-.14,0-.25-.11-.25-.25v-13.45c0-.14.11-.25.25-.25s.25.11.25.25v13.2h411.37c.14,0,.25.11.25.25s-.11.25-.25.25Z"/>
        <path class="cls-3" d="m410.57,466.04h-8.07c-.14,0-.25-.11-.25-.25s.11-.25.25-.25h7.82v-12.95h-7.82c-.14,0-.25-.11-.25-.25s.11-.25.25-.25h8.07c.14,0,.25.11.25.25v13.45c0,.14-.11.25-.25.25Z"/>
        <path class="cls-3" d="m523.59,466.04h-8.07c-.14,0-.25-.11-.25-.25v-13.45c0-.14.11-.25.25-.25h8.07c.14,0,.25.11.25.25s-.11.25-.25.25h-7.82v12.95h7.82c.14,0,.25.11.25.25s-.11.25-.25.25Z"/>
        <path class="cls-3" d="m414.56,452.58h-3.99c-.14,0-.25-.11-.25-.25v-104.95c0-.14.11-.25.25-.25h3.99c.14,0,.25.11.25.25v104.95c0,.14-.11.25-.25.25Zm-3.74-.5h3.49v-104.45h-3.49v104.45Z"/>
        <path class="cls-3" d="m515.42,452.53c-.14,0-.25-.11-.25-.25,0-57.7-46.95-104.65-104.65-104.65-.14,0-.25-.11-.25-.25s.11-.25.25-.25c57.98,0,105.15,47.17,105.15,105.15,0,.14-.11.25-.25.25Z"/>
        <path class="cls-3" d="m347.09,215.48h-59.2c-.14,0-.25-.11-.25-.25v-121.09c0-.14.11-.25.25-.25h59.2c.14,0,.25.11.25.25v121.09c0,.14-.11.25-.25.25Zm-58.95-.5h58.7v-120.59h-58.7v120.59Z"/>
        <path class="cls-3" d="m347.09,215.48c-.09,0-.18-.05-.22-.14l-59.2-121.09c-.06-.12,0-.27.11-.33.12-.06.27,0,.33.11l59.2,121.09c.06.12,0,.27-.11.33-.04.02-.07.03-.11.03Z"/>
        <path class="cls-3" d="m306.22,124.19c-.11,0-.21-.07-.24-.18-.04-.13.03-.27.17-.31l26.12-7.93-26.12-7.93c-.13-.04-.21-.18-.17-.31.04-.13.18-.21.31-.17l26.91,8.17c.11.03.18.13.18.24s-.07.21-.18.24l-26.91,8.17s-.05.01-.07.01Z"/>
        <path class="cls-3" d="m315.19,121.1c-.14,0-.25-.11-.25-.25v-10.27c0-.14.11-.25.25-.25s.25.11.25.25v10.27c0,.14-.11.25-.25.25Z"/>
        <path class="cls-3" d="m298.75,201.13s-.06,0-.09-.02l-2.49-1s-.04-.02-.06-.04l-2.59-2.09s-.04-.04-.06-.06l-1.3-2.09s-.04-.08-.04-.13v-4.09s.01-.1.04-.14l1.3-1.99s.03-.04.05-.06l2.59-2.09s.04-.03.06-.04l2.49-1,3.92-1.01s.04,0,.06,0h6.38s.04,0,.06,0l3.89,1,2.52,1.01s.04.02.06.04l2.59,2.09s.04.04.05.06l1.3,1.99s.04.09.04.14v4.09s-.01.09-.04.13l-1.3,2.09s-.03.05-.06.06l-2.59,2.09s-.04.03-.06.04l-2.49,1c-.13.05-.27-.01-.32-.14-.05-.13.01-.27.14-.32l2.46-.98,2.53-2.04,1.24-2v-3.94l-1.23-1.9-2.53-2.04-2.46-.98-3.83-.98h-6.32l-3.86.99-2.43.97-2.53,2.04-1.23,1.9v3.94l1.24,2,2.53,2.04,2.46.98c.13.05.19.2.14.32-.04.1-.13.16-.23.16Z"/>
      </g>
      <g>
        <path class="cls-3" d="m534.09,738.76h-18.54v-1.56c2.03-.1,3.47-.31,4.3-.63,1.3-.57,1.96-1.67,1.96-3.28,0-1.3-.44-3.18-1.33-5.63l-2.81-7.74h-21.9l-3.91,9.93c-.42,1.04-.63,2.19-.63,3.44,0,1.67.63,2.76,1.88,3.28.57.31,1.67.52,3.29.63v1.56h-14.31v-1.56c.67-.1,1.35-.23,2.03-.39.63-.16,1.23-.6,1.8-1.33,1.46-1.88,3.36-6,5.71-12.36l15.8-42.94h.31l18.53,49.35c1.15,3.13,2.4,5.24,3.76,6.33.78.63,2.14,1.07,4.07,1.33v1.56Zm-17.44-21.74l-9.85-28.7-10.32,28.7h20.18Z"/>
        <path class="cls-3" d="m568.89,725.85c0,3.18-.97,6.05-2.89,8.6-2.66,3.54-6.67,5.32-12.04,5.32-4.38,0-7.93-1.44-10.64-4.3-2.45-2.55-3.68-5.63-3.68-9.23s.78-6.65,2.35-8.99c1.3-1.93,3.89-4.48,7.74-7.67-3.81-3.49-6.31-6.2-7.51-8.13-1.46-2.24-2.19-5.06-2.19-8.45,0-4.02,1.57-7.27,4.69-9.78,2.71-2.24,5.87-3.36,9.46-3.36,4.02,0,7.28,1.2,9.78,3.6,2.24,2.24,3.36,5.03,3.36,8.37,0,3.55-1.15,6.67-3.44,9.39-1.56,1.83-3.94,3.7-7.12,5.63,5.11,3.86,8.52,7.33,10.24,10.4,1.25,2.29,1.88,5.16,1.88,8.6Zm-5.24-34.41c0-2.71-.83-4.93-2.5-6.65-1.88-1.72-4.38-2.58-7.51-2.58-2.92,0-5.34.83-7.27,2.5-1.88,1.72-2.82,3.7-2.82,5.94,0,3.65,1.46,6.93,4.38,9.85,1.46,1.51,3.78,3.23,6.96,5.16,2.66-1.93,4.59-3.65,5.79-5.16,1.98-2.61,2.97-5.63,2.97-9.07Zm1.56,36.52c0-3.75-1.33-7.12-3.99-10.09-1.62-1.72-4.67-4.09-9.15-7.12-1.2,1.04-2.35,2.06-3.44,3.05-1.57,1.41-2.71,2.87-3.44,4.38-1.1,2.09-1.64,4.46-1.64,7.12,0,3.65,1.07,6.6,3.21,8.84,2.09,2.24,4.8,3.36,8.13,3.36,2.76,0,5.11-.73,7.04-2.19,2.19-1.77,3.29-4.22,3.29-7.35Z"/>
      </g>
      <g>
        <path class="cls-3" d="m564.76,775.4h-75.45c-.09,0-.17-.05-.22-.12l-37.67-65.28c-.04-.08-.04-.17,0-.25l37.67-65.38c.04-.08.13-.12.22-.12h75.45c.09,0,.17.05.22.12l37.77,65.38c.04.08.04.17,0,.25l-37.77,65.28c-.04.08-.13.12-.22.12Zm-75.3-.5h75.16l37.63-65.03-37.63-65.13h-75.16l-37.53,65.13,37.53,65.03Z"/>
        <path class="cls-3" d="m948.67,405.44c-.14,0-.25-.11-.25-.25v-107.39h-80.48c-.14,0-.25-.11-.25-.25s.11-.25.25-.25h80.73c.14,0,.25.11.25.25v107.64c0,.14-.11.25-.25.25Z"/>
        <path class="cls-3" d="m892.55,349.89s-.01,0-.02,0c-.14,0-.24-.13-.23-.27.21-3.04.76-6.05,1.64-8.97.04-.13.18-.21.31-.17.13.04.21.18.17.31-.87,2.88-1.41,5.86-1.62,8.86,0,.13-.12.23-.25.23Z"/>
        <path class="cls-3" d="m894.16,340.91s-.05,0-.07-.01c-.13-.04-.21-.18-.17-.31,1.01-3.34,2.56-6.47,4.61-9.29.08-.11.24-.14.35-.06s.14.24.06.35c-2.02,2.78-3.55,5.85-4.54,9.14-.03.11-.13.18-.24.18Z"/>
        <path class="cls-3" d="m898.64,331.69c-.05,0-.1-.02-.15-.05-.11-.08-.14-.24-.06-.35,1.99-2.74,4.5-4.98,7.44-6.66.12-.07.27-.03.34.09.07.12.03.27-.09.34-2.88,1.64-5.34,3.83-7.29,6.52-.05.07-.12.1-.2.1Z"/>
        <path class="cls-3" d="m906.07,325.1c-.09,0-.17-.05-.22-.13-.07-.12-.03-.27.09-.34,2.43-1.38,5.19-2.12,7.99-2.12.14,0,.25.11.25.25s-.11.25-.25.25c-2.71,0-5.39.71-7.74,2.05-.04.02-.08.03-.12.03Z"/>
        <path class="cls-3" d="m921.8,325.1s-.08-.01-.12-.03c-2.36-1.34-5.03-2.05-7.74-2.05-.14,0-.25-.11-.25-.25s.11-.25.25-.25c2.8,0,5.56.73,7.99,2.12.12.07.16.22.09.34-.05.08-.13.13-.22.13Z"/>
        <path class="cls-3" d="m929.13,331.69c-.08,0-.15-.04-.2-.1-1.95-2.68-4.4-4.88-7.29-6.52-.12-.07-.16-.22-.09-.34.07-.12.22-.16.34-.09,2.95,1.68,5.45,3.92,7.44,6.66.08.11.06.27-.06.35-.04.03-.1.05-.15.05Z"/>
        <path class="cls-3" d="m933.71,340.91c-.11,0-.21-.07-.24-.18-.99-3.29-2.52-6.36-4.54-9.14-.08-.11-.06-.27.06-.35.11-.08.27-.06.35.06,2.05,2.82,3.6,5.95,4.61,9.29.04.13-.03.27-.17.31-.02,0-.05.01-.07.01Z"/>
        <path class="cls-3" d="m935.41,352.67c-.14,0-.25-.11-.25-.25,0-3.94-.58-7.84-1.71-11.61-.04-.13.03-.27.17-.31.13-.04.27.04.31.17,1.15,3.82,1.73,7.77,1.73,11.76,0,.14-.11.25-.25.25Z"/>
        <path class="cls-3" d="m933.69,364.35s-.05,0-.07-.01c-.13-.04-.21-.18-.17-.31,1.14-3.77,1.71-7.68,1.71-11.61,0-.14.11-.25.25-.25s.25.11.25.25c0,3.99-.58,7.94-1.73,11.76-.03.11-.13.18-.24.18Z"/>
        <path class="cls-3" d="m929.13,373.54c-.05,0-.1-.02-.15-.05-.11-.08-.14-.24-.06-.35,2.02-2.78,3.55-5.85,4.54-9.14.04-.13.18-.21.31-.17.13.04.21.18.17.31-1.01,3.34-2.56,6.47-4.61,9.29-.05.07-.12.1-.2.1Z"/>
        <path class="cls-3" d="m921.76,380.14c-.09,0-.17-.05-.22-.13-.07-.12-.03-.27.09-.34,2.88-1.64,5.34-3.84,7.29-6.52.08-.11.24-.14.35-.06.11.08.14.24.06.35-1.99,2.74-4.5,4.98-7.44,6.66-.04.02-.08.03-.12.03Z"/>
        <path class="cls-3" d="m913.94,382.22c-.14,0-.25-.11-.25-.25s.11-.25.25-.25c2.71,0,5.39-.71,7.74-2.05.12-.07.27-.03.34.09.07.12.03.27-.09.34-2.43,1.38-5.19,2.12-7.99,2.12Z"/>
        <path class="cls-3" d="m913.94,382.22c-2.8,0-5.56-.73-7.99-2.12-.12-.07-.16-.22-.09-.34.07-.12.22-.16.34-.09,2.36,1.34,5.03,2.05,7.74,2.05.14,0,.25.11.25.25s-.11.25-.25.25Z"/>
        <path class="cls-3" d="m906.01,380.14s-.08-.01-.12-.03c-2.95-1.68-5.45-3.92-7.44-6.66-.08-.11-.06-.27.06-.35.11-.08.27-.06.35.06,1.95,2.68,4.4,4.88,7.29,6.52.12.07.16.22.09.34-.05.08-.13.13-.22.13Z"/>
        <path class="cls-3" d="m898.74,373.54c-.08,0-.15-.04-.2-.1-2.05-2.82-3.61-5.95-4.61-9.29-.04-.13.03-.27.17-.31.13-.04.27.04.31.17.99,3.29,2.52,6.36,4.54,9.14.08.11.06.27-.06.35-.04.03-.1.05-.15.05Z"/>
        <path class="cls-3" d="m894.18,364.35c-.11,0-.21-.07-.24-.18-.88-2.91-1.43-5.93-1.64-8.97,0-.14.09-.26.23-.27.14,0,.26.09.27.23.21,3,.75,5.98,1.62,8.86.04.13-.04.27-.17.31-.02,0-.05.01-.07.01Z"/>
        <path class="cls-3" d="m885.08,362.79c-.14,0-.25-.11-.25-.25v-20.23c0-.14.11-.25.25-.25s.25.11.25.25v20.23c0,.14-.11.25-.25.25Z"/>
        <path class="cls-3" d="m885.08,356.01c-.13,0-.24-.1-.25-.23-.01-.14.09-.26.23-.27l14.95-1.1c.14,0,.26.09.27.23.01.14-.09.26-.23.27l-14.95,1.1s-.01,0-.02,0Z"/>
        <path class="cls-3" d="m900.03,350.53s-.01,0-.02,0l-14.95-1.2c-.14-.01-.24-.13-.23-.27.01-.14.13-.24.27-.23l14.95,1.2c.14.01.24.13.23.27-.01.13-.12.23-.25.23Z"/>
        <path class="cls-3" d="m891.76,342.55h-6.68c-.14,0-.25-.11-.25-.25s.11-.25.25-.25h6.68c.14,0,.25.11.25.25s-.11.25-.25.25Z"/>
        <path class="cls-3" d="m891.76,362.79h-6.68c-.14,0-.25-.11-.25-.25s.11-.25.25-.25h6.68c.14,0,.25.11.25.25s-.11.25-.25.25Z"/>
        <path class="cls-3" d="m891.76,349.83c-.14,0-.25-.11-.25-.25v-7.28c0-.14.11-.25.25-.25s.25.11.25.25v7.28c0,.14-.11.25-.25.25Z"/>
        <path class="cls-3" d="m891.76,362.79c-.14,0-.25-.11-.25-.25v-7.28c0-.14.11-.25.25-.25s.25.11.25.25v7.28c0,.14-.11.25-.25.25Z"/>
        <path class="cls-3" d="m891.76,345.94h-6.68c-.14,0-.25-.11-.25-.25s.11-.25.25-.25h6.68c.14,0,.25.11.25.25s-.11.25-.25.25Z"/>
        <path class="cls-3" d="m891.76,359.4h-6.68c-.14,0-.25-.11-.25-.25s.11-.25.25-.25h6.68c.14,0,.25.11.25.25s-.11.25-.25.25Z"/>
        <path class="cls-3" d="m888.37,349.33c-.14,0-.25-.11-.25-.25v-6.78c0-.14.11-.25.25-.25s.25.11.25.25v6.78c0,.14-.11.25-.25.25Z"/>
        <path class="cls-3" d="m888.32,349.23c-1.98,0-3.59-1.61-3.59-3.59s1.61-3.59,3.59-3.59,3.59,1.61,3.59,3.59-1.61,3.59-3.59,3.59Zm0-6.68c-1.7,0-3.09,1.39-3.09,3.09s1.39,3.09,3.09,3.09,3.09-1.39,3.09-3.09-1.39-3.09-3.09-3.09Z"/>
        <path class="cls-3" d="m888.32,362.69c-1.98,0-3.59-1.61-3.59-3.59s1.61-3.59,3.59-3.59,3.59,1.61,3.59,3.59-1.61,3.59-3.59,3.59Zm0-6.68c-1.7,0-3.09,1.39-3.09,3.09s1.39,3.09,3.09,3.09,3.09-1.39,3.09-3.09-1.39-3.09-3.09-3.09Z"/>
        <path class="cls-3" d="m888.37,362.79c-.14,0-.25-.11-.25-.25v-6.78c0-.14.11-.25.25-.25s.25.11.25.25v6.78c0,.14-.11.25-.25.25Z"/>
        <path class="cls-3" d="m885.98,348.33c-.06,0-.13-.02-.18-.07-.1-.1-.1-.26,0-.35l4.78-4.78c.1-.1.26-.1.35,0s.1.26,0,.35l-4.78,4.78s-.11.07-.18.07Z"/>
        <path class="cls-3" d="m890.76,348.33c-.06,0-.13-.02-.18-.07l-4.78-4.78c-.1-.1-.1-.26,0-.35s.26-.1.35,0l4.78,4.78c.1.1.1.26,0,.35-.05.05-.11.07-.18.07Z"/>
        <path class="cls-3" d="m885.98,361.79c-.06,0-.13-.02-.18-.07-.1-.1-.1-.26,0-.35l4.78-4.78c.1-.1.26-.1.35,0s.1.26,0,.35l-4.78,4.78s-.11.07-.18.07Z"/>
        <path class="cls-3" d="m890.76,361.79c-.06,0-.13-.02-.18-.07l-4.78-4.78c-.1-.1-.1-.26,0-.35s.26-.1.35,0l4.78,4.78c.1.1.1.26,0,.35-.05.05-.11.07-.18.07Z"/>
        <path class="cls-3" d="m899.98,354.81c-.14,0-.25-.11-.25-.25s.11-.25.25-.25c1.04,0,1.89-.85,1.89-1.89s-.85-1.89-1.89-1.89c-.14,0-.25-.11-.25-.25s.11-.25.25-.25c1.32,0,2.39,1.07,2.39,2.39s-1.07,2.39-2.39,2.39Z"/>
        <path class="cls-3" d="m888.32,354.11c-.88,0-1.6-.72-1.6-1.6s.72-1.6,1.6-1.6,1.6.72,1.6,1.6-.72,1.6-1.6,1.6Zm0-2.69c-.6,0-1.1.49-1.1,1.1s.49,1.1,1.1,1.1,1.1-.49,1.1-1.1-.49-1.1-1.1-1.1Z"/>
        <path class="cls-3" d="m903.18,356.01c-1.06,0-2.1-.47-2.79-1.33-.09-.11-.07-.26.04-.35.11-.09.27-.07.35.04.82,1.01,2.2,1.4,3.43.96,1.23-.44,2.06-1.61,2.06-2.91s-.83-2.47-2.06-2.91c-1.23-.44-2.61-.05-3.43.96-.09.11-.24.12-.35.04-.11-.09-.12-.24-.04-.35.96-1.18,2.56-1.63,3.99-1.12,1.43.51,2.39,1.87,2.39,3.38s-.96,2.88-2.39,3.38c-.39.14-.8.21-1.2.21Z"/>
        <path class="cls-3" d="m903.17,357.4c-1.79,0-3.48-.96-4.37-2.58-.07-.12-.02-.27.1-.34.12-.07.27-.02.34.1.99,1.8,3.06,2.69,5.04,2.18,1.98-.51,3.37-2.29,3.37-4.34s-1.39-3.83-3.37-4.34c-1.98-.51-4.06.39-5.04,2.18-.07.12-.22.17-.34.1-.12-.07-.17-.22-.1-.34,1.1-2,3.4-3,5.61-2.43,2.21.57,3.75,2.55,3.75,4.83s-1.54,4.26-3.75,4.83c-.41.11-.83.16-1.24.16Z"/>
        <path class="cls-3" d="m903.22,386.6c-.11,0-.21-.08-.24-.19l-2.69-10.86c-.03-.13.05-.27.18-.3.13-.03.27.05.3.18l2.69,10.86c.03.13-.05.27-.18.3-.02,0-.04,0-.06,0Z"/>
        <path class="cls-3" d="m900.53,329.6s-.04,0-.06,0c-.13-.03-.22-.17-.18-.3l2.69-10.86c.03-.13.17-.22.3-.18.13.03.22.17.18.3l-2.69,10.86c-.03.11-.13.19-.24.19Z"/>
        <path class="cls-3" d="m931.36,377.8c-.06,0-.11-.02-.16-.06-.11-.09-.12-.25-.03-.35,2.72-3.32,4.81-7.06,6.19-11.12.04-.13.19-.2.32-.16.13.04.2.19.16.32-1.4,4.12-3.51,7.92-6.28,11.28-.05.06-.12.09-.19.09Z"/>
        <path class="cls-3" d="m921.7,385.5c-.09,0-.18-.05-.22-.14-.06-.12-.01-.27.11-.34,3.7-1.87,6.91-4.44,9.54-7.64.09-.11.24-.12.35-.03.11.09.12.25.03.35-2.68,3.26-5.94,5.87-9.7,7.77-.04.02-.07.03-.11.03Z"/>
        <path class="cls-3" d="m911.24,388c-.14,0-.25-.11-.25-.25s.11-.25.25-.25c3.58,0,7.17-.85,10.37-2.47.12-.06.27-.01.34.11.06.12.01.27-.11.34-3.27,1.65-6.93,2.52-10.59,2.52Z"/>
        <path class="cls-3" d="m911.24,388c-3.66,0-7.32-.87-10.59-2.52-.12-.06-.17-.21-.11-.34.06-.12.21-.17.34-.11,3.2,1.61,6.78,2.47,10.37,2.47.14,0,.25.11.25.25s-.11.25-.25.25Z"/>
        <path class="cls-3" d="m900.69,385.5s-.08,0-.11-.03c-3.76-1.9-7.03-4.51-9.7-7.77-.09-.11-.07-.26.03-.35.11-.09.26-.07.35.03,2.63,3.2,5.84,5.77,9.54,7.64.12.06.17.21.11.34-.04.09-.13.14-.22.14Z"/>
        <path class="cls-3" d="m891.13,377.8c-.07,0-.14-.03-.19-.09-2.76-3.36-4.88-7.16-6.28-11.28-.04-.13.03-.27.16-.32.13-.04.27.03.32.16,1.38,4.06,3.47,7.81,6.19,11.12.09.11.07.26-.03.35-.05.04-.1.06-.16.06Z"/>
        <path class="cls-3" d="m884.9,366.65c-.1,0-.2-.07-.24-.17-1.54-4.54-2.33-9.27-2.33-14.06,0-.14.11-.25.25-.25s.25.11.25.25c0,4.74.77,9.42,2.3,13.9.04.13-.03.27-.16.32-.03,0-.05.01-.08.01Z"/>
        <path class="cls-3" d="m882.59,352.67c-.14,0-.25-.11-.25-.25,0-4.79.78-9.52,2.33-14.06.04-.13.19-.2.32-.16.13.04.2.19.16.32-1.53,4.49-2.3,9.16-2.3,13.9,0,.14-.11.25-.25.25Z"/>
        <path class="cls-3" d="m884.9,338.63s-.05,0-.08-.01c-.13-.04-.2-.19-.16-.32,1.4-4.12,3.51-7.92,6.28-11.28.09-.11.24-.12.35-.03.11.09.12.25.03.35-2.72,3.32-4.81,7.06-6.19,11.12-.04.1-.13.17-.24.17Z"/>
        <path class="cls-3" d="m891.07,327.44c-.06,0-.11-.02-.16-.06-.11-.09-.12-.25-.03-.35,2.68-3.26,5.94-5.87,9.7-7.77.12-.06.27-.01.34.11.06.12.01.27-.11.34-3.7,1.87-6.91,4.44-9.54,7.64-.05.06-.12.09-.19.09Z"/>
        <path class="cls-3" d="m900.77,319.73c-.09,0-.18-.05-.22-.14-.06-.12-.01-.27.11-.34,3.27-1.65,6.93-2.52,10.59-2.52.14,0,.25.11.25.25s-.11.25-.25.25c-3.58,0-7.17.85-10.37,2.47-.04.02-.07.03-.11.03Z"/>
        <path class="cls-3" d="m921.72,319.73s-.08,0-.11-.03c-3.2-1.61-6.78-2.47-10.37-2.47-.14,0-.25-.11-.25-.25s.11-.25.25-.25c3.66,0,7.32.87,10.59,2.52.12.06.17.21.11.34-.04.09-.13.14-.22.14Z"/>
        <path class="cls-3" d="m931.32,327.44c-.07,0-.14-.03-.19-.09-2.63-3.2-5.84-5.77-9.54-7.64-.12-.06-.17-.21-.11-.34.06-.12.21-.17.34-.11,3.76,1.9,7.03,4.51,9.7,7.77.09.11.07.26-.03.35-.05.04-.1.06-.16.06Z"/>
        <path class="cls-3" d="m937.59,338.63c-.1,0-.2-.07-.24-.17-1.38-4.06-3.47-7.81-6.19-11.12-.09-.11-.07-.26.03-.35.11-.09.26-.07.35.03,2.76,3.36,4.88,7.16,6.28,11.28.04.13-.03.27-.16.32-.03,0-.05.01-.08.01Z"/>
        <path class="cls-3" d="m939.8,352.67c-.14,0-.25-.11-.25-.25,0-4.74-.77-9.42-2.3-13.9-.04-.13.03-.27.16-.32.13-.04.27.03.32.16,1.54,4.54,2.33,9.27,2.33,14.06,0,.14-.11.25-.25.25Z"/>
        <path class="cls-3" d="m937.49,366.65s-.05,0-.08-.01c-.13-.04-.2-.19-.16-.32,1.53-4.49,2.3-9.16,2.3-13.9,0-.14.11-.25.25-.25s.25.11.25.25c0,4.79-.78,9.52-2.33,14.06-.04.1-.13.17-.24.17Z"/>
        <path class="cls-3" d="m933.13,379.26c-.06,0-.11-.02-.16-.06-.11-.09-.12-.25-.03-.35,2.9-3.53,5.12-7.51,6.59-11.84.04-.13.19-.2.32-.16.13.04.2.19.16.32-1.49,4.38-3.74,8.42-6.68,12-.05.06-.12.09-.19.09Z"/>
        <path class="cls-3" d="m922.73,387.55c-.09,0-.18-.05-.22-.14-.06-.12-.01-.27.11-.34,3.99-2.01,7.45-4.78,10.28-8.23.09-.11.24-.12.35-.03.11.09.12.25.03.35-2.88,3.5-6.39,6.32-10.44,8.36-.04.02-.07.03-.11.03Z"/>
        <path class="cls-3" d="m911.24,390.29c-.14,0-.25-.11-.25-.25s.11-.25.25-.25c3.94,0,7.88-.94,11.4-2.71.12-.06.27-.01.34.11.06.12.01.27-.11.34-3.59,1.81-7.61,2.77-11.62,2.77Z"/>
        <path class="cls-3" d="m911.24,390.29c-4.02,0-8.04-.96-11.62-2.77-.12-.06-.17-.21-.11-.34.06-.12.21-.17.34-.11,3.52,1.77,7.46,2.71,11.4,2.71.14,0,.25.11.25.25s-.11.25-.25.25Z"/>
        <path class="cls-3" d="m899.66,387.55s-.08,0-.11-.03c-4.05-2.04-7.56-4.86-10.44-8.36-.09-.11-.07-.26.03-.35.11-.09.26-.07.35.03,2.83,3.45,6.29,6.22,10.28,8.23.12.06.17.21.11.34-.04.09-.13.14-.22.14Z"/>
        <path class="cls-3" d="m889.36,379.26c-.07,0-.14-.03-.19-.09-2.94-3.58-5.19-7.62-6.68-12-.04-.13.03-.27.16-.32.13-.04.27.03.32.16,1.47,4.32,3.69,8.31,6.59,11.84.09.11.07.26-.03.35-.05.04-.1.06-.16.06Z"/>
        <path class="cls-3" d="m882.73,367.39c-.1,0-.2-.07-.24-.17-1.63-4.78-2.45-9.76-2.45-14.8,0-.14.11-.25.25-.25s.25.11.25.25c0,4.99.81,9.92,2.42,14.64.04.13-.03.27-.16.32-.03,0-.05.01-.08.01Z"/>
        <path class="cls-3" d="m880.3,352.67c-.14,0-.25-.11-.25-.25,0-5.05.82-10.03,2.45-14.8.04-.13.19-.2.32-.16.13.04.2.19.16.32-1.61,4.72-2.42,9.65-2.42,14.64,0,.14-.11.25-.25.25Z"/>
        <path class="cls-3" d="m882.73,337.9s-.05,0-.08-.01c-.13-.04-.2-.19-.16-.32,1.49-4.38,3.74-8.42,6.68-12,.09-.11.24-.12.35-.03.11.09.12.25.03.35-2.9,3.53-5.12,7.51-6.59,11.84-.04.1-.13.17-.24.17Z"/>
        <path class="cls-3" d="m889.3,325.99c-.06,0-.11-.02-.16-.06-.11-.09-.12-.25-.03-.35,2.88-3.51,6.39-6.32,10.44-8.36.12-.06.27-.01.34.11.06.12.01.27-.11.34-3.99,2.01-7.45,4.78-10.28,8.23-.05.06-.12.09-.19.09Z"/>
        <path class="cls-3" d="m899.73,317.68c-.09,0-.18-.05-.22-.14-.06-.12-.01-.27.11-.34,3.59-1.81,7.61-2.77,11.62-2.77.14,0,.25.11.25.25s-.11.25-.25.25c-3.94,0-7.88.94-11.4,2.71-.04.02-.07.03-.11.03Z"/>
        <path class="cls-3" d="m922.76,317.68s-.08,0-.11-.03c-3.52-1.77-7.46-2.71-11.4-2.71-.14,0-.25-.11-.25-.25s.11-.25.25-.25c4.02,0,8.04.96,11.62,2.77.12.06.17.21.11.34-.04.09-.13.14-.22.14Z"/>
        <path class="cls-3" d="m933.09,325.99c-.07,0-.14-.03-.19-.09-2.83-3.45-6.29-6.22-10.28-8.23-.12-.06-.17-.21-.11-.34.06-.12.21-.17.34-.11,4.05,2.04,7.56,4.86,10.44,8.36.09.11.07.26-.03.35-.05.04-.1.06-.16.06Z"/>
        <path class="cls-3" d="m939.76,337.9c-.1,0-.2-.07-.24-.17-1.47-4.33-3.69-8.31-6.59-11.84-.09-.11-.07-.26.03-.35.11-.09.26-.07.35.03,2.94,3.58,5.19,7.61,6.68,12,.04.13-.03.27-.16.32-.03,0-.05.01-.08.01Z"/>
        <path class="cls-3" d="m942.09,352.67c-.14,0-.25-.11-.25-.25,0-4.99-.81-9.92-2.42-14.64-.04-.13.03-.27.16-.32.13-.04.27.03.32.16,1.63,4.78,2.45,9.76,2.45,14.8,0,.14-.11.25-.25.25Z"/>
        <path class="cls-3" d="m939.66,367.39s-.05,0-.08-.01c-.13-.04-.2-.19-.16-.32,1.61-4.73,2.42-9.65,2.42-14.64,0-.14.11-.25.25-.25s.25.11.25.25c0,5.04-.82,10.02-2.45,14.8-.04.1-.13.17-.24.17Z"/>
        <path class="cls-3" d="m639.21,899.09h-2.59c-.14,0-.25-.11-.25-.25s.11-.25.25-.25h2.59c.14,0,.25.11.25.25s-.11.25-.25.25Z"/>
        <path class="cls-3" d="m639.51,898.79h-3.19c-.14,0-.25-.11-.25-.25s.11-.25.25-.25h3.19c.14,0,.25.11.25.25s-.11.25-.25.25Z"/>
        <path class="cls-3" d="m639.21,900.18c-.14,0-.25-.11-.25-.25v-1.1c0-.14.11-.25.25-.25s.25.11.25.25v1.1c0,.14-.11.25-.25.25Z"/>
        <path class="cls-3" d="m636.62,900.18c-.14,0-.25-.11-.25-.25v-1.1c0-.14.11-.25.25-.25s.25.11.25.25v1.1c0,.14-.11.25-.25.25Z"/>
        <path class="cls-3" d="m639.21,899.09c-.06,0-.13-.02-.18-.07-.1-.1-.1-.26,0-.35l.3-.3c.1-.1.26-.1.35,0,.1.1.1.26,0,.35l-.3.3s-.11.07-.18.07Z"/>
        <path class="cls-3" d="m636.62,899.09c-.06,0-.13-.02-.18-.07l-.3-.3c-.1-.1-.1-.26,0-.35s.26-.1.35,0l.3.3c.1.1.1.26,0,.35-.05.05-.11.07-.18.07Z"/>
        <path class="cls-3" d="m639.21,900.18h-2.59c-.14,0-.25-.11-.25-.25s.11-.25.25-.25h2.59c.14,0,.25.11.25.25s-.11.25-.25.25Z"/>
        <path class="cls-3" d="m639.01,901.88c-.14,0-.25-.11-.25-.25v-1.69c0-.14.11-.25.25-.25s.25.11.25.25v1.69c0,.14-.11.25-.25.25Z"/>
        <path class="cls-3" d="m636.82,901.88c-.14,0-.25-.11-.25-.25v-1.69c0-.14.11-.25.25-.25s.25.11.25.25v1.69c0,.14-.11.25-.25.25Z"/>
        <path class="cls-3" d="m639.51,898.79c-.14,0-.25-.11-.25-.25v-1.1c0-.14.11-.25.25-.25s.25.11.25.25v1.1c0,.14-.11.25-.25.25Z"/>
        <path class="cls-3" d="m636.32,898.79c-.14,0-.25-.11-.25-.25v-1c0-.14.11-.25.25-.25s.25.11.25.25v1c0,.14-.11.25-.25.25Z"/>
        <path class="cls-3" d="m637.91,889.92c-.14,0-.25-.11-.25-.25v-1c0-.14.11-.25.25-.25s.25.11.25.25v1c0,.14-.11.25-.25.25Z"/>
        <path class="cls-3" d="m637.91,887.82c-.14,0-.25-.11-.25-.25v-8.67c0-.14.11-.25.25-.25s.25.11.25.25v8.67c0,.14-.11.25-.25.25Z"/>
        <path class="cls-3" d="m648.48,891.11c-.14,0-.25-.11-.25-.25v-4.78c0-.14.11-.25.25-.25s.25.11.25.25v4.78c0,.14-.11.25-.25.25Z"/>
        <path class="cls-3" d="m627.55,891.11c-.14,0-.25-.11-.25-.25v-4.78c0-.14.11-.25.25-.25s.25.11.25.25v4.78c0,.14-.11.25-.25.25Z"/>
        <path class="cls-3" d="m648.48,891.11h-6.38c-.14,0-.25-.11-.25-.25s.11-.25.25-.25h6.38c.14,0,.25.11.25.25s-.11.25-.25.25Z"/>
        <path class="cls-3" d="m648.48,886.33h-5.88c-.14,0-.25-.11-.25-.25s.11-.25.25-.25h5.88c.14,0,.25.11.25.25s-.11.25-.25.25Z"/>
        <path class="cls-3" d="m633.63,891.11c-.14,0-.25-.11-.25-.25v-4.78c0-.14.11-.25.25-.25s.25.11.25.25v4.78c0,.14-.11.25-.25.25Z"/>
        <path class="cls-3" d="m642.7,891.11c-.14,0-.25-.11-.25-.25v-4.78c0-.14.11-.25.25-.25s.25.11.25.25v4.78c0,.14-.11.25-.25.25Z"/>
        <path class="cls-3" d="m640.5,897.09h-.01c-.14,0-.24-.12-.24-.26l.2-4.68c0-.14.13-.24.26-.24.14,0,.24.12.24.26l-.2,4.68c0,.13-.12.24-.25.24Z"/>
        <path class="cls-3" d="m635.32,897.09c-.14,0-.25-.11-.25-.24l-.1-4.68c0-.14.11-.25.24-.26.16.01.25.11.26.24l.1,4.68c0,.14-.11.25-.24.26h0Z"/>
        <path class="cls-3" d="m634.62,885.33c-.14,0-.25-.11-.25-.25v-1.3c0-.14.11-.25.25-.25s.25.11.25.25v1.3c0,.14-.11.25-.25.25Z"/>
        <path class="cls-3" d="m640.8,883.14h-5.28c-.14,0-.25-.11-.25-.25s.11-.25.25-.25h5.28c.14,0,.25.11.25.25s-.11.25-.25.25Z"/>
        <path class="cls-3" d="m641.7,885.33c-.14,0-.25-.11-.25-.25v-1.3c0-.14.11-.25.25-.25s.25.11.25.25v1.3c0,.14-.11.25-.25.25Z"/>
        <path class="cls-3" d="m637.86,897.89c-.76,0-1.52-.11-2.26-.33-.13-.04-.21-.18-.17-.31.04-.13.18-.21.31-.17,1.41.42,2.9.41,4.3-.02.13-.04.27.03.31.16.04.13-.03.27-.16.31-.76.24-1.55.36-2.33.36Z"/>
        <path class="cls-3" d="m638.61,885.33h-1.4c-.14,0-.25-.11-.25-.25s.11-.25.25-.25h1.4c.14,0,.25.11.25.25s-.11.25-.25.25Z"/>
        <path class="cls-3" d="m638.81,884.83h-1.79c-.14,0-.25-.11-.25-.25s.11-.25.25-.25h1.79c.14,0,.25.11.25.25s-.11.25-.25.25Z"/>
        <path class="cls-3" d="m638.61,885.33s-.06,0-.09-.02c-.13-.05-.19-.2-.14-.32l.18-.45v-.1h-1.29v.15c0,.14-.11.25-.25.25s-.25-.11-.25-.25v-.4c0-.14.11-.25.25-.25h1.79c.14,0,.25.11.25.25v.4s0,.06-.02.09l-.2.5c-.04.1-.13.16-.23.16Z"/>
        <path class="cls-3" d="m638.81,884.44c-.11,0-.21-.07-.24-.18l-.6-2.09c-.04-.13.04-.27.17-.31.13-.04.27.04.31.17l.6,2.09c.04.13-.04.27-.17.31-.02,0-.05,0-.07,0Z"/>
        <path class="cls-3" d="m637.01,884.44s-.04,0-.06,0c-.13-.03-.22-.17-.19-.3l.5-2.09c.03-.13.17-.22.3-.19.13.03.22.17.19.3l-.5,2.09c-.03.11-.13.19-.24.19Z"/>
        <path class="cls-3" d="m637.21,885.33c-.1,0-.19-.06-.23-.16l-.2-.5c-.05-.13.01-.27.14-.32s.27.01.32.14l.2.5c.05.13-.01.27-.14.32-.03.01-.06.02-.09.02Z"/>
        <path class="cls-3" d="m640.12,897.57c-.11,0-.21-.07-.24-.18-.04-.13.03-.27.16-.31.12-.04.2-.15.21-.27,0-.14.13-.23.26-.24.14,0,.25.12.24.26-.01.34-.24.63-.56.73-.02,0-.05.01-.07.01Z"/>
        <path class="cls-3" d="m635.61,897.57s-.05,0-.07-.01c-.33-.1-.56-.4-.57-.75,0-.14.11-.25.24-.26.12-.01.25.11.26.24,0,.13.09.24.21.28.13.04.21.18.17.31-.03.11-.13.18-.24.18Z"/>
        <path class="cls-3" d="m634.52,883.99c-.14,0-.25-.11-.25-.25,0-.66.54-1.2,1.2-1.2.14,0,.25.11.25.25s-.11.25-.25.25c-.38,0-.7.31-.7.7,0,.14-.11.25-.25.25Z"/>
        <path class="cls-3" d="m633.73,886.33h-6.18c-.14,0-.25-.11-.25-.25s.11-.25.25-.25h6.18c.14,0,.25.11.25.25s-.11.25-.25.25Z"/>
        <path class="cls-3" d="m633.68,886.23c-.14,0-.25-.11-.25-.25s.11-.25.25-.25c.38,0,.7-.31.7-.7,0-.14.11-.25.25-.25s.25.11.25.25c0,.66-.54,1.2-1.2,1.2Z"/>
        <path class="cls-3" d="m635.12,889.72c-.13,0-.25-.11-.25-.24l-.1-3.29c0-.14.1-.25.24-.26.12,0,.25.1.26.24l.1,3.29c0,.14-.1.25-.24.26h0Z"/>
        <path class="cls-3" d="m635.12,892.33c-.14,0-.25-.11-.25-.24-.01-.6-.5-1.07-1.1-1.07-.14,0-.25-.11-.25-.25s.11-.25.25-.25c.87,0,1.57.68,1.6,1.56,0,.14-.11.25-.24.26h0Z"/>
        <path class="cls-3" d="m635.22,892.41c-.13,0-.24-.11-.25-.24l-.1-2.69c0-.14.1-.25.24-.26.14.01.25.1.26.24l.1,2.69c0,.14-.1.25-.24.26h0Z"/>
        <path class="cls-3" d="m641.7,883.99c-.14,0-.25-.11-.25-.25,0-.38-.31-.7-.7-.7-.14,0-.25-.11-.25-.25s.11-.25.25-.25c.66,0,1.2.54,1.2,1.2,0,.14-.11.25-.25.25Z"/>
        <path class="cls-3" d="m642.55,886.23c-.66,0-1.2-.54-1.2-1.2,0-.14.11-.25.25-.25s.25.11.25.25c0,.38.31.7.7.7.14,0,.25.11.25.25s-.11.25-.25.25Z"/>
        <path class="cls-3" d="m640.7,892.31h0c-.14,0-.25-.12-.24-.26.03-.86.73-1.54,1.59-1.54.14,0,.25.11.25.25s-.11.25-.25.25c-.59,0-1.07.46-1.09,1.05,0,.13-.12.24-.25.24Z"/>
        <path class="cls-3" d="m640.7,892.41s0,0-.01,0c-.14,0-.24-.12-.24-.26l.2-4.29c0-.14.12-.26.26-.24.14,0,.24.12.24.26l-.2,4.29c0,.13-.12.24-.25.24Z"/>
        <path class="cls-3" d="m633.83,891.11h-6.28c-.14,0-.25-.11-.25-.25s.11-.25.25-.25h6.28c.14,0,.25.11.25.25s-.11.25-.25.25Z"/>
        <path class="cls-3" d="m678.28,901.88h-80.73c-.14,0-.25-.11-.25-.25v-73.95c0-.14.11-.25.25-.25h80.73c.14,0,.25.11.25.25v73.95c0,.14-.11.25-.25.25Zm-80.48-.5h80.23v-73.45h-80.23v73.45Z"/>
        <path class="cls-3" d="m663.43,833.31h-51.13c-.14,0-.25-.11-.25-.25s.11-.25.25-.25h51.13c.14,0,.25.11.25.25s-.11.25-.25.25Z"/>
        <path class="cls-3" d="m608.21,837.24c-.14,0-.25-.11-.25-.25,0-2.36,1.92-4.29,4.29-4.29.14,0,.25.11.25.25s-.11.25-.25.25c-2.09,0-3.79,1.7-3.79,3.79,0,.14-.11.25-.25.25Z"/>
        <path class="cls-3" d="m667.51,887.03c-.14,0-.25-.11-.25-.25v-49.73c0-.14.11-.25.25-.25s.25.11.25.25v49.73c0,.14-.11.25-.25.25Z"/>
        <path class="cls-3" d="m667.41,837.24c-.14,0-.25-.11-.25-.25,0-2.09-1.7-3.79-3.79-3.79-.14,0-.25-.11-.25-.25s.11-.25.25-.25c2.36,0,4.29,1.92,4.29,4.29,0,.14-.11.25-.25.25Z"/>
        <path class="cls-3" d="m678.28,895.1h-80.73c-.14,0-.25-.11-.25-.25s.11-.25.25-.25h80.73c.14,0,.25.11.25.25s-.11.25-.25.25Z"/>
        <path class="cls-3" d="m663.43,891.11h-51.13c-.14,0-.25-.11-.25-.25s.11-.25.25-.25h51.13c.14,0,.25.11.25.25s-.11.25-.25.25Z"/>
        <path class="cls-3" d="m663.38,891.01c-.14,0-.25-.11-.25-.25s.11-.25.25-.25c2.09,0,3.79-1.7,3.79-3.79,0-.14.11-.25.25-.25s.25.11.25.25c0,2.36-1.92,4.29-4.29,4.29Z"/>
        <path class="cls-3" d="m612.25,891.01c-2.36,0-4.29-1.92-4.29-4.29,0-.14.11-.25.25-.25s.25.11.25.25c0,2.09,1.7,3.79,3.79,3.79.14,0,.25.11.25.25s-.11.25-.25.25Z"/>
        <path class="cls-3" d="m608.31,887.03c-.14,0-.25-.11-.25-.25v-49.73c0-.14.11-.25.25-.25s.25.11.25.25v49.73c0,.14-.11.25-.25.25Z"/>
        <path class="cls-3" d="m639.01,901.88h-2.19c-.14,0-.25-.11-.25-.25s.11-.25.25-.25h2.19c.14,0,.25.11.25.25s-.11.25-.25.25Z"/>
        <path class="cls-3" d="m637.86,867.49c-3.08,0-5.58-2.5-5.58-5.58s2.5-5.58,5.58-5.58,5.58,2.5,5.58,5.58-2.5,5.58-5.58,5.58Zm0-10.66c-2.8,0-5.08,2.28-5.08,5.08s2.28,5.08,5.08,5.08,5.08-2.28,5.08-5.08-2.28-5.08-5.08-5.08Z"/>
        <path class="cls-3" d="m523.59,895.1h-100.96c-.14,0-.25-.11-.25-.25v-67.17c0-.14.11-.25.25-.25h100.96c.14,0,.25.11.25.25v67.17c0,.14-.11.25-.25.25Zm-100.71-.5h100.46v-66.67h-100.46v66.67Z"/>
        <path class="cls-3" d="m522.2,893.8h-98.17c-.14,0-.25-.11-.25-.25v-64.58c0-.14.11-.25.25-.25h98.17c.14,0,.25.11.25.25v64.58c0,.14-.11.25-.25.25Zm-97.92-.5h97.67v-64.08h-97.67v64.08Z"/>
        <path class="cls-3" d="m684.95,901.88h-282.45c-.14,0-.25-.11-.25-.25v-80.73c0-.14.11-.25.25-.25h282.45c.14,0,.25.11.25.25v80.73c0,.14-.11.25-.25.25Zm-282.2-.5h281.95v-80.23h-281.95v80.23Z"/>
        <path class="cls-3" d="m402.5.25l687.39,20.23H402.5V.25ZM1089.9.25H402.5l687.39,20.23V.25Z"/>
        <path class="cls-1" d="m402.5.25l687.39,20.23H402.5V.25ZM1089.9.25H402.5l687.39,20.23V.25Z"/>
        <path class="cls-3" d="m1069.76,20.48l20.13,517.86h-20.13V20.48Zm20.13,0h-20.13l20.13,517.86V20.48Z"/>
        <path class="cls-1" d="m1069.76,20.48l20.13,517.86h-20.13V20.48Zm20.13,0h-20.13l20.13,517.86V20.48Z"/>
        <path class="cls-3" d="m448.9,878.26c-7.53,0-13.66-6.13-13.66-13.66s6.13-13.65,13.66-13.65,13.66,6.13,13.66,13.65-6.13,13.66-13.66,13.66Zm0-26.81c-7.25,0-13.16,5.9-13.16,13.15s5.9,13.16,13.16,13.16,13.16-5.9,13.16-13.16-5.9-13.15-13.16-13.15Z"/>
        <path class="cls-3" d="m497.23,878.26c-7.53,0-13.66-6.13-13.66-13.66s6.13-13.65,13.66-13.65,13.66,6.13,13.66,13.65-6.13,13.66-13.66,13.66Zm0-26.81c-7.25,0-13.16,5.9-13.16,13.15s5.9,13.16,13.16,13.16,13.16-5.9,13.16-13.16-5.9-13.15-13.16-13.15Z"/>
        <path class="cls-3" d="m499.38,864.9h-4.19c-.14,0-.25-.11-.25-.25s.11-.25.25-.25h4.19c.14,0,.25.11.25.25s-.11.25-.25.25Z"/>
        <path class="cls-3" d="m497.28,866.99c-.14,0-.25-.11-.25-.25v-4.19c0-.14.11-.25.25-.25s.25.11.25.25v4.19c0,.14-.11.25-.25.25Z"/>
        <path class="cls-3" d="m451.04,864.9h-4.19c-.14,0-.25-.11-.25-.25s.11-.25.25-.25h4.19c.14,0,.25.11.25.25s-.11.25-.25.25Z"/>
        <path class="cls-3" d="m448.95,866.99c-.14,0-.25-.11-.25-.25v-4.19c0-.14.11-.25.25-.25s.25.11.25.25v4.19c0,.14-.11.25-.25.25Z"/>
        <path class="cls-3" d="m389.05,476.8h-80.73c-.14,0-.25-.11-.25-.25v-215.28c0-.14.11-.25.25-.25h80.73c.14,0,.25.11.25.25v215.28c0,.14-.11.25-.25.25Zm-80.48-.5h80.23v-214.78h-80.23v214.78Z"/>
        <path class="cls-3" d="m384.96,472.72h-72.56c-.14,0-.25-.11-.25-.25v-207.21c0-.14.11-.25.25-.25h72.56c.14,0,.25.11.25.25v207.21c0,.14-.11.25-.25.25Zm-72.31-.5h72.06v-206.71h-72.06v206.71Z"/>
        <path class="cls-3" d="m347.29,472.72c-.14,0-.25-.11-.25-.25v-207.21c0-.14.11-.25.25-.25s.25.11.25.25v207.21c0,.14-.11.25-.25.25Z"/>
        <path class="cls-3" d="m349.98,472.72c-.14,0-.25-.11-.25-.25v-207.21c0-.14.11-.25.25-.25s.25.11.25.25v207.21c0,.14-.11.25-.25.25Z"/>
        <path class="cls-3" d="m308.32,328.8h-121.09c-.14,0-.25-.11-.25-.25v-67.27c0-.14.11-.25.25-.25h121.09c.14,0,.25.11.25.25v67.27c0,.14-.11.25-.25.25Zm-120.84-.5h120.59v-66.77h-120.59v66.77Z"/>
        <path class="cls-3" d="m278.02,369.16h-60.5c-.14,0-.25-.11-.25-.25v-40.36c0-.14.11-.25.25-.25h60.5c.14,0,.25.11.25.25v40.36c0,.14-.11.25-.25.25Zm-60.25-.5h60v-39.86h-60v39.86Z"/>
        <path class="cls-3" d="m278.02,362.39h-60.5c-.14,0-.25-.11-.25-.25s.11-.25.25-.25h60.5c.14,0,.25.11.25.25s-.11.25-.25.25Z"/>
        <path class="cls-3" d="m187.22,548.06H44.7c-.14,0-.25-.11-.25-.25v-252.95c0-.14.11-.25.25-.25h142.52c.14,0,.25.11.25.25v252.95c0,.14-.11.25-.25.25Zm-142.27-.5h142.02v-252.45H44.95v252.45Z"/>
        <path class="cls-3" d="m187.22,339.56H44.7c-.14,0-.25-.11-.25-.25s.11-.25.25-.25h142.52c.14,0,.25.11.25.25s-.11.25-.25.25Z"/>
        <path class="cls-3" d="m187.22,370.86s-.03,0-.05,0l-97.27-17.84h-45.2c-.14,0-.25-.11-.25-.25s.11-.25.25-.25h45.25l97.32,17.84c.14.02.23.16.2.29-.02.12-.13.21-.25.21Z"/>
        <path class="cls-3" d="m157.62,339.56h-83.42c-.14,0-.25-.11-.25-.25v-36.38c0-.14.11-.25.25-.25h83.42c.14,0,.25.11.25.25v36.38c0,.14-.11.25-.25.25Zm-83.17-.5h82.92v-35.88h-82.92v35.88Z"/>
        <path class="cls-3" d="m212.34,311.36c-.14,0-.25-.11-.25-.25v-41.96c0-.14.11-.25.25-.25s.25.11.25.25v41.96c0,.14-.11.25-.25.25Z"/>
        <path class="cls-3" d="m212.29,308.17c-9.95,0-18.04-8.09-18.04-18.04s8.09-18.04,18.04-18.04,18.04,8.09,18.04,18.04-8.09,18.04-18.04,18.04Zm0-35.58c-9.67,0-17.54,7.87-17.54,17.54s7.87,17.54,17.54,17.54,17.54-7.87,17.54-17.54-7.87-17.54-17.54-17.54Z"/>
        <path class="cls-3" d="m212.29,301.69c-6.38,0-11.56-5.19-11.56-11.56s5.19-11.56,11.56-11.56,11.56,5.19,11.56,11.56-5.19,11.56-11.56,11.56Zm0-22.62c-6.1,0-11.06,4.96-11.06,11.06s4.96,11.06,11.06,11.06,11.06-4.96,11.06-11.06-4.96-11.06-11.06-11.06Z"/>
        <path class="cls-3" d="m233.37,290.43h-41.96c-.14,0-.25-.11-.25-.25s.11-.25.25-.25h41.96c.14,0,.25.11.25.25s-.11.25-.25.25Z"/>
        <path class="cls-3" d="m962.12,479.49h-188.37c-.14,0-.25-.11-.25-.25v-6.78c0-.14.11-.25.25-.25h188.37c.14,0,.25.11.25.25v6.78c0,.14-.11.25-.25.25Zm-188.12-.5h187.87v-6.28h-187.87v6.28Z"/>
        <path class="cls-3" d="m948.67,472.72c-.14,0-.25-.11-.25-.25v-6.43h-160.96v6.43c0,.14-.11.25-.25.25s-.25-.11-.25-.25v-6.68c0-.14.11-.25.25-.25h161.46c.14,0,.25.11.25.25v6.68c0,.14-.11.25-.25.25Z"/>
        <path class="cls-3" d="m958.04,482.18c-.14,0-.25-.11-.25-.25v-2.69c0-.14.11-.25.25-.25s.25.11.25.25v2.69c0,.14-.11.25-.25.25Z"/>
        <path class="cls-3" d="m958.04,482.18h-180.2c-.14,0-.25-.11-.25-.25v-2.69c0-.14.11-.25.25-.25s.25.11.25.25v2.44h179.95c.14,0,.25.11.25.25s-.11.25-.25.25Z"/>
        <path class="cls-3" d="m785.92,452.58h-201.82c-.14,0-.25-.11-.25-.25v-255.64c0-.14.11-.25.25-.25h201.82c.14,0,.25.11.25.25v255.64c0,.14-.11.25-.25.25Zm-201.57-.5h201.32v-255.14h-201.32v255.14Z"/>
        <path class="cls-3" d="m785.92,405.44h-201.82c-.14,0-.25-.11-.25-.25s.11-.25.25-.25h201.82c.14,0,.25.11.25.25s-.11.25-.25.25Z"/>
        <path class="cls-3" d="m584.09,391.99c-.14,0-.25-.11-.25-.25s.11-.25.25-.25h45.25l156.53-28.7c.14-.02.27.07.29.2.02.14-.06.27-.2.29l-156.57,28.7h-45.29Z"/>
        <path class="cls-3" d="m775.15,441.82h-83.42c-.14,0-.25-.11-.25-.25v-36.38c0-.14.11-.25.25-.25h83.42c.14,0,.25.11.25.25v36.38c0,.14-.11.25-.25.25Zm-83.17-.5h82.92v-35.88h-82.92v35.88Z"/>
        <path class="cls-3" d="m678.28,441.82h-83.42c-.14,0-.25-.11-.25-.25v-36.38c0-.14.11-.25.25-.25h83.42c.14,0,.25.11.25.25v36.38c0,.14-.11.25-.25.25Zm-83.17-.5h82.92v-35.88h-82.92v35.88Z"/>
        <path class="cls-3" d="m553.79,443.22c-.14,0-.25-.11-.25-.25v-41.96c0-.14.11-.25.25-.25s.25.11.25.25v41.96c0,.14-.11.25-.25.25Z"/>
        <path class="cls-3" d="m553.74,440.03c-9.95,0-18.04-8.09-18.04-18.04s8.09-18.04,18.04-18.04,18.04,8.09,18.04,18.04-8.09,18.04-18.04,18.04Zm0-35.58c-9.67,0-17.54,7.87-17.54,17.54s7.87,17.54,17.54,17.54,17.54-7.87,17.54-17.54-7.87-17.54-17.54-17.54Z"/>
        <path class="cls-3" d="m553.74,433.55c-6.38,0-11.56-5.19-11.56-11.56s5.19-11.56,11.56-11.56,11.56,5.19,11.56,11.56-5.19,11.56-11.56,11.56Zm0-22.62c-6.1,0-11.06,4.96-11.06,11.06s4.96,11.06,11.06,11.06,11.06-4.96,11.06-11.06-4.96-11.06-11.06-11.06Z"/>
        <path class="cls-3" d="m574.82,422.29h-41.96c-.14,0-.25-.11-.25-.25s.11-.25.25-.25h41.96c.14,0,.25.11.25.25s-.11.25-.25.25Z"/>
        <path class="cls-3" d="m584.09,452.58h-60.5c-.14,0-.25-.11-.25-.25v-60.6c0-.14.11-.25.25-.25h60.5c.14,0,.25.11.25.25v60.6c0,.14-.11.25-.25.25Zm-60.25-.5h60v-60.1h-60v60.1Z"/>
        <path class="cls-3" d="m850.4,97.38h-322.82c-.14,0-.25-.11-.25-.25V24.47c0-.14.11-.25.25-.25h322.82c.14,0,.25.11.25.25v72.66c0,.14-.11.25-.25.25Zm-322.57-.5h322.32V24.72h-322.32v72.16Z"/>
        <path class="cls-3" d="m854.49,101.46h-330.89c-.14,0-.25-.11-.25-.25V20.48c0-.14.11-.25.25-.25h330.89c.14,0,.25.11.25.25v80.73c0,.14-.11.25-.25.25Zm-330.64-.5h330.39V20.73h-330.39v80.23Z"/>
        <path class="cls-3" d="m557.18,538h-33.59c-.14,0-.25-.11-.25-.25v-60.6c0-.14.11-.25.25-.25h33.59c.14,0,.25.11.25.25s-.11.25-.25.25h-33.34v60.1h33.34c.14,0,.25.11.25.25s-.11.25-.25.25Z"/>
        <path class="cls-3" d="m691.73,616.04c-.14,0-.25-.11-.25-.25v-60.6c0-.14.11-.25.25-.25s.25.11.25.25v60.6c0,.14-.11.25-.25.25Z"/>
        <path class="cls-3" d="m557.18,616.04h-33.59c-.14,0-.25-.11-.25-.25v-60.6c0-.14.11-.25.25-.25h33.59c.14,0,.25.11.25.25s-.11.25-.25.25h-33.34v60.1h33.34c.14,0,.25.11.25.25s-.11.25-.25.25Z"/>
        <path class="cls-3" d="m691.73,538c-.14,0-.25-.11-.25-.25v-60.6c0-.14.11-.25.25-.25s.25.11.25.25v60.6c0,.14-.11.25-.25.25Z"/>
        <path class="cls-3" d="m698.41,616.04h-33.59c-.14,0-.25-.11-.25-.25s.11-.25.25-.25h33.34v-60.1h-33.34c-.14,0-.25-.11-.25-.25s.11-.25.25-.25h33.59c.14,0,.25.11.25.25v60.6c0,.14-.11.25-.25.25Z"/>
        <path class="cls-3" d="m698.41,538h-33.59c-.14,0-.25-.11-.25-.25s.11-.25.25-.25h33.34v-60.1h-33.34c-.14,0-.25-.11-.25-.25s.11-.25.25-.25h33.59c.14,0,.25.11.25.25v60.6c0,.14-.11.25-.25.25Z"/>
        <path class="cls-3" d="m664.82,627.4h-107.64c-.14,0-.25-.11-.25-.25v-161.36c0-.14.11-.25.25-.25h107.64c.14,0,.25.11.25.25v161.36c0,.14-.11.25-.25.25Zm-107.39-.5h107.14v-160.86h-107.14v160.86Z"/>
        <path class="cls-3" d="m816.11,443.22c-.14,0-.25-.11-.25-.25v-41.96c0-.14.11-.25.25-.25s.25.11.25.25v41.96c0,.14-.11.25-.25.25Z"/>
        <path class="cls-3" d="m816.06,440.03c-9.95,0-18.04-8.09-18.04-18.04s8.09-18.04,18.04-18.04,18.04,8.09,18.04,18.04-8.09,18.04-18.04,18.04Zm0-35.58c-9.67,0-17.54,7.87-17.54,17.54s7.87,17.54,17.54,17.54,17.54-7.87,17.54-17.54-7.87-17.54-17.54-17.54Z"/>
        <path class="cls-3" d="m816.06,433.55c-6.38,0-11.56-5.19-11.56-11.56s5.19-11.56,11.56-11.56,11.56,5.19,11.56,11.56-5.19,11.56-11.56,11.56Zm0-22.62c-6.1,0-11.06,4.96-11.06,11.06s4.96,11.06,11.06,11.06,11.06-4.96,11.06-11.06-4.96-11.06-11.06-11.06Z"/>
        <path class="cls-3" d="m837.14,422.29h-41.96c-.14,0-.25-.11-.25-.25s.11-.25.25-.25h41.96c.14,0,.25.11.25.25s-.11.25-.25.25Z"/>
        <path class="cls-3" d="m846.41,452.58h-60.5c-.14,0-.25-.11-.25-.25v-60.6c0-.14.11-.25.25-.25h60.5c.14,0,.25.11.25.25v60.6c0,.14-.11.25-.25.25Zm-60.25-.5h60v-60.1h-60v60.1Z"/>
        <path class="cls-3" d="m850.4,62.39h-322.82c-.14,0-.25-.11-.25-.25s.11-.25.25-.25h322.82c.14,0,.25.11.25.25s-.11.25-.25.25Z"/>
        <path class="cls-3" d="m850.4,59.7h-322.82c-.14,0-.25-.11-.25-.25s.11-.25.25-.25h322.82c.14,0,.25.11.25.25s-.11.25-.25.25Z"/>
        <path class="cls-3" d="m523.59,88.01h-121.09c-.14,0-.25-.11-.25-.25V20.48c0-.14.11-.25.25-.25h121.09c.14,0,.25.11.25.25v67.27c0,.14-.11.25-.25.25Zm-120.84-.5h120.59V20.73h-120.59v66.77Z"/>
        <path class="cls-3" d="m493.3,128.37h-60.5c-.14,0-.25-.11-.25-.25v-40.36c0-.14.11-.25.25-.25h60.5c.14,0,.25.11.25.25v40.36c0,.14-.11.25-.25.25Zm-60.25-.5h60v-39.86h-60v39.86Z"/>
        <path class="cls-3" d="m493.3,121.59h-60.5c-.14,0-.25-.11-.25-.25s.11-.25.25-.25h60.5c.14,0,.25.11.25.25s-.11.25-.25.25Z"/>
        <path class="cls-3" d="m347.09,215.48h-59.2c-.14,0-.25-.11-.25-.25v-121.09c0-.14.11-.25.25-.25h59.2c.14,0,.25.11.25.25v121.09c0,.14-.11.25-.25.25Zm-58.95-.5h58.7v-120.59h-58.7v120.59Z"/>
        <path class="cls-3" d="m347.09,215.48c-.09,0-.18-.05-.22-.14l-59.2-121.09c-.06-.12,0-.27.11-.33.12-.06.27,0,.33.11l59.2,121.09c.06.12,0,.27-.11.33-.04.02-.07.03-.11.03Z"/>
        <path class="cls-3" d="m306.22,124.19c-.11,0-.21-.07-.24-.18-.04-.13.03-.27.17-.31l26.12-7.93-26.12-7.93c-.13-.04-.21-.18-.17-.31.04-.13.18-.21.31-.17l26.91,8.17c.11.03.18.13.18.24s-.07.21-.18.24l-26.91,8.17s-.05.01-.07.01Z"/>
        <path class="cls-3" d="m315.19,121.1c-.14,0-.25-.11-.25-.25v-10.27c0-.14.11-.25.25-.25s.25.11.25.25v10.27c0,.14-.11.25-.25.25Z"/>
        <path class="cls-3" d="m298.75,201.13s-.06,0-.09-.02l-2.49-1s-.04-.02-.06-.04l-2.59-2.09s-.04-.04-.06-.06l-1.3-2.09s-.04-.08-.04-.13v-4.09s.01-.1.04-.14l1.3-1.99s.03-.04.05-.06l2.59-2.09s.04-.03.06-.04l2.49-1,3.92-1.01s.04,0,.06,0h6.38s.04,0,.06,0l3.89,1,2.52,1.01s.04.02.06.04l2.59,2.09s.04.04.05.06l1.3,1.99s.04.09.04.14v4.09s-.01.09-.04.13l-1.3,2.09s-.03.05-.06.06l-2.59,2.09s-.04.03-.06.04l-2.49,1c-.13.05-.27-.01-.32-.14-.05-.13.01-.27.14-.32l2.46-.98,2.53-2.04,1.24-2v-3.94l-1.23-1.9-2.53-2.04-2.46-.98-3.83-.98h-6.32l-3.86.99-2.43.97-2.53,2.04-1.23,1.9v3.94l1.24,2,2.53,2.04,2.46.98c.13.05.19.2.14.32-.04.1-.13.16-.23.16Z"/>
        <path class="cls-3" d="m831.06,89.3c-.14,0-.25-.11-.25-.25v-53.82c0-.14.11-.25.25-.25s.25.11.25.25v53.82c0,.14-.11.25-.25.25Z"/>
        <path class="cls-3" d="m817.81,89.3c-.14,0-.25-.11-.25-.25v-53.82c0-.14.11-.25.25-.25s.25.11.25.25v53.82c0,.14-.11.25-.25.25Z"/>
        <path class="cls-3" d="m726.91,89.3c-.14,0-.25-.11-.25-.25v-53.82c0-.14.11-.25.25-.25s.25.11.25.25v53.82c0,.14-.11.25-.25.25Z"/>
        <path class="cls-3" d="m709.97,89.3c-.14,0-.25-.11-.25-.25v-53.82c0-.14.11-.25.25-.25s.25.11.25.25v53.82c0,.14-.11.25-.25.25Z"/>
        <path class="cls-3" d="m662.63,89.3c-.14,0-.25-.11-.25-.25v-53.82c0-.14.11-.25.25-.25s.25.11.25.25v53.82c0,.14-.11.25-.25.25Z"/>
        <path class="cls-3" d="m650.07,89.3c-.14,0-.25-.11-.25-.25v-53.82c0-.14.11-.25.25-.25s.25.11.25.25v53.82c0,.14-.11.25-.25.25Z"/>
        <path class="cls-3" d="m743.76,89.2s-.01,0-.02,0c-.14-.01-.24-.13-.23-.27l4.68-53.62c.01-.14.14-.23.27-.23.14.01.24.13.23.27l-4.68,53.62c-.01.13-.12.23-.25.23Z"/>
        <path class="cls-3" d="m675.98,89.2s-.01,0-.02,0c-.14-.01-.24-.13-.23-.27l4.68-53.62c.01-.14.14-.23.27-.23.14.01.24.13.23.27l-4.68,53.62c-.01.13-.12.23-.25.23Z"/>
        <path class="cls-3" d="m614.39,89.2c-.13,0-.24-.1-.25-.23l-4.68-53.62c-.01-.14.09-.26.23-.27.14,0,.26.09.27.23l4.68,53.62c.01.14-.09.26-.23.27,0,0-.01,0-.02,0Z"/>
        <path class="cls-3" d="m600.74,89.2c-.13,0-.24-.1-.25-.23l-4.68-53.62c-.01-.14.09-.26.23-.27.14,0,.26.09.27.23l4.68,53.62c.01.14-.09.26-.23.27,0,0-.01,0-.02,0Z"/>
        <path class="cls-3" d="m567.85,89.3c-.14,0-.25-.11-.25-.25v-53.82c0-.14.11-.25.25-.25s.25.11.25.25v53.82c0,.14-.11.25-.25.25Z"/>
        <path class="cls-3" d="m554.59,89.3c-.14,0-.25-.11-.25-.25v-53.82c0-.14.11-.25.25-.25s.25.11.25.25v53.82c0,.14-.11.25-.25.25Z"/>
        <path class="cls-3" d="m796.88,89.2s-.01,0-.02,0c-.14-.01-.24-.13-.23-.27l4.68-53.62c.01-.14.13-.23.27-.23.14.01.24.13.23.27l-4.68,53.62c-.01.13-.12.23-.25.23Z"/>
        <path class="cls-3" d="m375.59,310.96h-53.82c-.14,0-.25-.11-.25-.25s.11-.25.25-.25h53.82c.14,0,.25.11.25.25s-.11.25-.25.25Z"/>
        <path class="cls-3" d="m375.59,324.11h-53.82c-.14,0-.25-.11-.25-.25s.11-.25.25-.25h53.82c.14,0,.25.11.25.25s-.11.25-.25.25Z"/>
        <path class="cls-3" d="m375.59,374.45h-53.82c-.14,0-.25-.11-.25-.25s.11-.25.25-.25h53.82c.14,0,.25.11.25.25s-.11.25-.25.25Z"/>
        <path class="cls-3" d="m375.59,391.39h-53.82c-.14,0-.25-.11-.25-.25s.11-.25.25-.25h53.82c.14,0,.25.11.25.25s-.11.25-.25.25Z"/>
        <path class="cls-3" d="m375.59,438.73h-53.82c-.14,0-.25-.11-.25-.25s.11-.25.25-.25h53.82c.14,0,.25.11.25.25s-.11.25-.25.25Z"/>
        <path class="cls-3" d="m375.59,451.29h-53.82c-.14,0-.25-.11-.25-.25s.11-.25.25-.25h53.82c.14,0,.25.11.25.25s-.11.25-.25.25Z"/>
        <path class="cls-3" d="m321.87,357.6c-.13,0-.24-.1-.25-.23-.01-.14.09-.26.23-.27l53.62-4.68c.14,0,.26.09.27.23.01.14-.09.26-.23.27l-53.62,4.68s-.01,0-.02,0Z"/>
        <path class="cls-3" d="m321.87,425.38c-.13,0-.24-.1-.25-.23-.01-.14.09-.26.23-.27l53.62-4.68c.14,0,.26.09.27.23.01.14-.09.26-.23.27l-53.62,4.68s-.01,0-.02,0Z"/>
        <path class="cls-3" d="m375.49,293.52s-.01,0-.02,0l-53.62-4.68c-.14-.01-.24-.13-.23-.27.01-.14.14-.24.27-.23l53.62,4.68c.14.01.24.13.23.27-.01.13-.12.23-.25.23Z"/>
        <path class="cls-3" d="m769.27,901.88s-.06,0-.08-.01c-.13-.05-.2-.19-.15-.32l2.59-7.18c.05-.13.19-.19.32-.15.13.05.2.19.15.32l-2.59,7.18c-.04.1-.13.17-.24.17Z"/>
        <path class="cls-3" d="m766.88,901.88h-68.47c-.14,0-.25-.11-.25-.25s.11-.25.25-.25h68.47c.14,0,.25.11.25.25s-.11.25-.25.25Z"/>
        <path class="cls-3" d="m700.9,901.88c-.1,0-.2-.06-.23-.16l-2.69-7.18c-.05-.13.02-.27.15-.32.13-.05.27.02.32.15l2.69,7.18c.05.13-.02.27-.15.32-.03.01-.06.02-.09.02Z"/>
        <path class="cls-3" d="m779.14,894.7h-87.41c-.14,0-.25-.11-.25-.25v-93.69c0-.14.11-.25.25-.25h87.41c.14,0,.25.11.25.25v93.69c0,.14-.11.25-.25.25Zm-87.16-.5h86.91v-93.19h-86.91v93.19Z"/>
        <path class="cls-3" d="m779.14,806.4h-87.41c-.14,0-.25-.11-.25-.25s.11-.25.25-.25h87.41c.14,0,.25.11.25.25s-.11.25-.25.25Z"/>
        <path class="cls-3" d="m873.27,749.09c-29.79,0-54.02-24.23-54.02-54.02s24.23-54.02,54.02-54.02,54.02,24.23,54.02,54.02-24.23,54.02-54.02,54.02Zm0-107.54c-29.51,0-53.52,24.01-53.52,53.52s24.01,53.52,53.52,53.52,53.52-24.01,53.52-53.52-24.01-53.52-53.52-53.52Z"/>
        <path class="cls-3" d="m1069.76,901.88h-286.64c-.14,0-.25-.11-.25-.25v-121.09c0-.14.11-.25.25-.25h286.64c.14,0,.25.11.25.25v121.09c0,.14-.11.25-.25.25Zm-286.39-.5h286.14v-120.59h-286.14v120.59Z"/>
        <path class="cls-3" d="m1049.53,881.64h-246.17c-.14,0-.25-.11-.25-.25s.11-.25.25-.25h246.17c.14,0,.25.11.25.25s-.11.25-.25.25Z"/>
        <path class="cls-3" d="m803.36,881.54c-.14,0-.25-.11-.25-.25v-100.86c0-.14.11-.25.25-.25s.25.11.25.25v100.86c0,.14-.11.25-.25.25Z"/>
        <path class="cls-3" d="m984.85,874.57s-.09-.01-.13-.03c-.06-.03-.1-.09-.12-.15l-6.68-25.22c-.04-.13.04-.27.18-.31.13-.04.27.04.31.18l6.61,24.97,58.02-15.42-15.42-58.02-58.02,15.42,1.83,6.93c.04.13-.04.27-.18.31-.13.04-.27-.04-.31-.18l-1.89-7.18c-.04-.13.04-.27.18-.31l58.5-15.55c.06-.02.13,0,.19.03.06.03.1.09.12.15l15.55,58.5c.04.13-.04.27-.18.31l-58.5,15.55s-.04,0-.06,0Z"/>
        <path class="cls-3" d="m956.94,878.46s-.07,0-.11-.02l-52.03-24.22c-.06-.03-.11-.08-.13-.15-.02-.07-.01-.14.02-.2l30.8-52.03c.03-.06.09-.1.15-.11.06-.02.13,0,.19.03l52.13,30.9c.06.04.1.09.12.16.01.07,0,.14-.04.19l-30.9,45.35c-.05.07-.13.11-.21.11Zm-51.67-24.58l51.58,24.01,30.63-44.95-51.68-30.63-30.53,51.57Z"/>
        <path class="cls-3" d="m1049.53,881.64c-.14,0-.25-.11-.25-.25v-100.86c0-.14.11-.25.25-.25s.25.11.25.25v100.86c0,.14-.11.25-.25.25Z"/>
        <path class="cls-3" d="m530.37,616.04c-.14,0-.25-.11-.25-.25v-60.6c0-.14.11-.25.25-.25s.25.11.25.25v60.6c0,.14-.11.25-.25.25Z"/>
        <path class="cls-3" d="m530.37,538c-.14,0-.25-.11-.25-.25v-60.6c0-.14.11-.25.25-.25s.25.11.25.25v60.6c0,.14-.11.25-.25.25Z"/>
      </g>
    </g>
  </g>
</svg>