<?xml version="1.0" encoding="UTF-8"?>
<svg id="_圖層_2" data-name="圖層 2" xmlns="http://www.w3.org/2000/svg" viewBox="0 0 570.15 921.28">
  <defs>
    <style>
      .cls-1, .cls-2 {
        stroke-linecap: round;
      }

      .cls-1, .cls-2, .cls-3 {
        fill: none;
        stroke: #8a6e4b;
        stroke-width: 0px;
      }

      .cls-1, .cls-3 {
        stroke-miterlimit: 10;
      }

      .cls-2 {
        stroke-linejoin: round;
      }

      .cls-4 {
        fill: #8a6e4b;
      }
    </style>
  </defs>
  <g id="_圖層_1-2" data-name="圖層 1">
    <g>
      <g>
        <path class="cls-4" d="m337.1,386.73l9.54,57.19h-9.54v-57.19Zm9.54,0h-9.54l9.54,57.19v-57.19Z"/>
        <path class="cls-3" d="m337.1,386.73l9.54,57.19h-9.54v-57.19Zm9.54,0h-9.54l9.54,57.19v-57.19Z"/>
        <path class="cls-4" d="m337.1,443.92l218.51,9.54h-218.51v-9.54Zm218.51,0h-218.51l218.51,9.54v-9.54Z"/>
        <path class="cls-3" d="m337.1,443.92l218.51,9.54h-218.51v-9.54Zm218.51,0h-218.51l218.51,9.54v-9.54Z"/>
        <path class="cls-4" d="m337.1,453.47l9.54,190.87h-9.54v-190.87Zm9.54,0h-9.54l9.54,190.87v-190.87Z"/>
        <path class="cls-3" d="m337.1,453.47l9.54,190.87h-9.54v-190.87Zm9.54,0h-9.54l9.54,190.87v-190.87Z"/>
        <path class="cls-4" d="m337.1,180.59l9.54,120.25h-9.54v-120.25Zm9.54,0h-9.54l9.54,120.25v-120.25Z"/>
        <path class="cls-3" d="m337.1,180.59l9.54,120.25h-9.54v-120.25Zm9.54,0h-9.54l9.54,120.25v-120.25Z"/>
        <path class="cls-4" d="m329.47,97.59l28.63,17.18h-28.63v-17.18Zm28.63,0h-28.63l28.63,17.18v-17.18Z"/>
        <path class="cls-3" d="m329.47,97.59l28.63,17.18h-28.63v-17.18Zm28.63,0h-28.63l28.63,17.18v-17.18Z"/>
        <path class="cls-4" d="m329.47,114.77l17.18.92h-17.18v-.92Zm17.18,0h-17.18l17.18.92v-.92Z"/>
        <path class="cls-3" d="m329.47,114.77l17.18.92h-17.18v-.92Zm17.18,0h-17.18l17.18.92v-.92Z"/>
        <path class="cls-4" d="m322.82,115.69l23.82,47.72h-23.82v-47.72Zm23.82,0h-23.82l23.82,47.72v-47.72Z"/>
        <path class="cls-3" d="m322.82,115.69l23.82,47.72h-23.82v-47.72Zm23.82,0h-23.82l23.82,47.72v-47.72Z"/>
        <path class="cls-4" d="m272.21,163.41l74.44,17.18h-74.44v-17.18Zm74.44,0h-74.44l74.44,17.18v-17.18Z"/>
        <path class="cls-3" d="m272.21,163.41l74.44,17.18h-74.44v-17.18Zm74.44,0h-74.44l74.44,17.18v-17.18Z"/>
        <path class="cls-4" d="m47.97,114.77l17.18,48.64h-17.18v-48.64Zm17.18,0h-17.18l17.18,48.64v-48.64Z"/>
        <path class="cls-3" d="m47.97,114.77l17.18,48.64h-17.18v-48.64Zm17.18,0h-17.18l17.18,48.64v-48.64Z"/>
        <path class="cls-4" d="m47.97,163.41l71.61,17.18H47.97v-17.18Zm71.61,0H47.97l71.61,17.18v-17.18Z"/>
        <path class="cls-3" d="m47.97,163.41l71.61,17.18H47.97v-17.18Zm71.61,0H47.97l71.61,17.18v-17.18Z"/>
        <path class="cls-4" d="m.25,9.79l104.98,104.98H.25V9.79Zm104.98,0H.25l104.98,104.98V9.79Z"/>
        <path class="cls-3" d="m.25,9.79l104.98,104.98H.25V9.79Zm104.98,0H.25l104.98,104.98V9.79Z"/>
        <path class="cls-4" d="m47.97,816.12l104.98,104.91H47.97v-104.91Zm104.98,0H47.97l104.98,104.91v-104.91Z"/>
        <path class="cls-3" d="m47.97,816.12l104.98,104.91H47.97v-104.91Zm104.98,0H47.97l104.98,104.91v-104.91Z"/>
        <path class="cls-4" d="m510.8,97.59l59.1,17.18h-59.1v-17.18Zm59.1,0h-59.1l59.1,17.18v-17.18Z"/>
        <path class="cls-3" d="m510.8,97.59l59.1,17.18h-59.1v-17.18Zm59.1,0h-59.1l59.1,17.18v-17.18Z"/>
        <path class="cls-4" d="m555.62,114.77l14.28,143.08h-14.28V114.77Zm14.28,0h-14.28l14.28,143.08V114.77Z"/>
        <path class="cls-3" d="m555.62,114.77l14.28,143.08h-14.28V114.77Zm14.28,0h-14.28l14.28,143.08V114.77Z"/>
        <path class="cls-4" d="m555.62,257.86l14.28,634.55h-14.28V257.86Zm14.28,0h-14.28l14.28,634.55V257.86Z"/>
        <path class="cls-3" d="m555.62,257.86l14.28,634.55h-14.28V257.86Zm14.28,0h-14.28l14.28,634.55V257.86Z"/>
        <path class="cls-4" d="m152.95,892.4l416.95,14.35H152.95v-14.35Zm416.95,0H152.95l416.95,14.35v-14.35Z"/>
        <path class="cls-3" d="m152.95,892.4l416.95,14.35H152.95v-14.35Zm416.95,0H152.95l416.95,14.35v-14.35Z"/>
        <path class="cls-4" d="m152.95,921.28H47.97c-.14,0-.25-.11-.25-.25v-104.91c0-.14.11-.25.25-.25h104.98c.14,0,.25.11.25.25v104.91c0,.14-.11.25-.25.25Zm-104.73-.5h104.48v-104.41H48.22v104.41Z"/>
        <path class="cls-4" d="m105.23,115.02H.25c-.14,0-.25-.11-.25-.25V9.79c0-.14.11-.25.25-.25h104.98c.14,0,.25.11.25.25v104.98c0,.14-.11.25-.25.25Zm-104.73-.5h104.48V10.04H.5v104.48Z"/>
        <path class="cls-4" d="m119.58,180.84c-.14,0-.25-.11-.25-.25v-17.18c0-.14.11-.25.25-.25s.25.11.25.25v17.18c0,.14-.11.25-.25.25Z"/>
        <path class="cls-4" d="m272.21,180.84c-.14,0-.25-.11-.25-.25v-17.18c0-.14.11-.25.25-.25s.25.11.25.25v17.18c0,.14-.11.25-.25.25Z"/>
        <path class="cls-4" d="m272.21,163.66H119.58c-.14,0-.25-.11-.25-.25s.11-.25.25-.25h152.63c.14,0,.25.11.25.25s-.11.25-.25.25Z"/>
        <path class="cls-4" d="m272.21,180.84H119.58c-.14,0-.25-.11-.25-.25s.11-.25.25-.25h152.63c.14,0,.25.11.25.25s-.11.25-.25.25Z"/>
        <path class="cls-4" d="m125.31,180.84c-.14,0-.25-.11-.25-.25v-11.45c0-.14.11-.25.25-.25s.25.11.25.25v11.45c0,.14-.11.25-.25.25Z"/>
        <path class="cls-4" d="m266.48,180.84c-.14,0-.25-.11-.25-.25v-11.45c0-.14.11-.25.25-.25s.25.11.25.25v11.45c0,.14-.11.25-.25.25Z"/>
        <path class="cls-4" d="m199.68,173.2h-74.37c-.14,0-.25-.11-.25-.25s.11-.25.25-.25h74.37c.14,0,.25.11.25.25s-.11.25-.25.25Z"/>
        <path class="cls-4" d="m266.48,177.02h-74.44c-.14,0-.25-.11-.25-.25s.11-.25.25-.25h74.44c.14,0,.25.11.25.25s-.11.25-.25.25Z"/>
        <path class="cls-4" d="m272.21,169.39H119.58c-.14,0-.25-.11-.25-.25s.11-.25.25-.25h152.63c.14,0,.25.11.25.25s-.11.25-.25.25Z"/>
        <path class="cls-4" d="m195.86,184.66c-.14,0-.25-.11-.25-.25v-19.09c0-.14.11-.25.25-.25s.25.11.25.25v19.09c0,.14-.11.25-.25.25Z"/>
        <path class="cls-4" d="m211.62,135.24c-.14,0-.25-.11-.25-.25v-48.42c0-.14.11-.25.25-.25s.25.11.25.25v48.42c0,.14-.11.25-.25.25Z"/>
        <path class="cls-4" d="m215.65,122.38c-.05,0-.1-.02-.15-.05l-.71-.52h-.77c-.09,0-.18-.05-.22-.14-.04-.08-.03-.19.02-.26l.42-.57c.08-.11.24-.13.35-.05.11.08.13.24.05.35l-.12.17h.35c.05,0,.1.02.15.05l.63.46,1.43-1,1.64-2.87.35-3.97-.35-4.06-1.26-4.62-2.03-4.05c-.03-.06-.03-.13-.01-.2l1.27-3.46,1.98-9.56h-7.04c-.14,0-.25-.11-.25-.25s.11-.25.25-.25h7.35c.08,0,.15.03.19.09.05.06.07.14.05.21l-.85,4.03-1.2,5.87-1.25,3.4,2,4,1.29,4.71.36,4.15-.35,4.07s-.01.07-.03.1l-1.7,2.97s-.04.06-.07.08l-1.63,1.13s-.09.04-.14.04Z"/>
        <path class="cls-4" d="m242.23,101.38h-15.91c-.14,0-.25-.11-.25-.25v-14.56c0-.14.11-.25.25-.25h15.91c.14,0,.25.11.25.25v14.56c0,.14-.11.25-.25.25Zm-15.66-.5h15.41v-14.06h-15.41v14.06Z"/>
        <path class="cls-4" d="m242.23,94.38h-15.91c-.14,0-.25-.11-.25-.25s.11-.25.25-.25h15.91c.14,0,.25.11.25.25s-.11.25-.25.25Z"/>
        <path class="cls-4" d="m245.49,107.81h-23.68c-.14,0-.25-.11-.25-.25s.11-.25.25-.25h23.68c.14,0,.25.11.25.25s-.11.25-.25.25Z"/>
        <path class="cls-4" d="m222.23,122.38c-.06,0-.11-.02-.16-.06-.11-.09-.12-.25-.04-.35l2.81-3.44,2.88-6.4,1.19-4.63c.03-.13.17-.22.3-.18.13.03.21.17.18.3l-1.2,4.67-2.91,6.47s-.02.04-.03.06l-2.83,3.46c-.05.06-.12.09-.19.09Z"/>
        <path class="cls-4" d="m241.39,134.04h-2.05s-.06,0-.08-.01l-1.63-.57c-.13-.05-.2-.19-.15-.32.05-.13.19-.2.32-.15l1.59.55h1.87l1.95-3.29.42-4.05v-11.39h-16.08c-.14,0-.25-.11-.25-.25s.11-.25.25-.25h16.33c.14,0,.25.11.25.25v11.66l-.43,4.13s-.02.07-.03.1l-2.05,3.46c-.05.08-.13.12-.22.12Z"/>
        <path class="cls-4" d="m221.8,133.47c-.06,0-.13-.02-.18-.07-.1-.1-.1-.26,0-.35l4.1-4.1,4.4-6.93,2.04-6.4c.04-.13.18-.2.31-.16.13.04.2.18.16.31l-2.05,6.43s-.02.04-.03.06l-4.45,7-4.13,4.14s-.11.07-.18.07Z"/>
        <path class="cls-4" d="m230.36,135.24c-.05,0-.11-.02-.16-.05-.11-.09-.13-.24-.04-.35l3.23-4.07,3.31-7.53,1.61-7.59c.03-.13.16-.22.3-.19.13.03.22.16.19.3l-1.63,7.64-3.34,7.61s-.02.04-.03.05l-3.25,4.1c-.05.06-.12.09-.2.09Z"/>
        <path class="cls-4" d="m292,90.35h-29.76c-.14,0-.25-.11-.25-.25s.11-.25.25-.25h29.76c.14,0,.25.11.25.25s-.11.25-.25.25Z"/>
        <path class="cls-4" d="m277.3,94.95c-.14,0-.25-.11-.25-.25v-8.7c0-.14.11-.25.25-.25s.25.11.25.25v8.7c0,.14-.11.25-.25.25Z"/>
        <path class="cls-4" d="m290.38,94.95h-25.31c-.14,0-.25-.11-.25-.25s.11-.25.25-.25h25.31c.14,0,.25.11.25.25s-.11.25-.25.25Z"/>
        <path class="cls-4" d="m289.6,105.48h-22.9c-.14,0-.25-.11-.25-.25v-5.87c0-.14.11-.25.25-.25h22.9c.14,0,.25.11.25.25v5.87c0,.14-.11.25-.25.25Zm-22.65-.5h22.4v-5.37h-22.4v5.37Z"/>
        <path class="cls-4" d="m293.2,116.58c-.14,0-.25-.11-.25-.25v-6.18h-30.46v6.18c0,.14-.11.25-.25.25s-.25-.11-.25-.25v-6.43c0-.14.11-.25.25-.25h30.96c.14,0,.25.11.25.25v6.43c0,.14-.11.25-.25.25Z"/>
        <path class="cls-4" d="m289.6,114.81h-23.33c-.14,0-.25-.11-.25-.25s.11-.25.25-.25h23.33c.14,0,.25.11.25.25s-.11.25-.25.25Z"/>
        <path class="cls-4" d="m269.95,122.94s-.09-.01-.14-.04c-.12-.08-.15-.23-.07-.35l5.3-8.13c.08-.12.23-.15.35-.07.12.08.15.23.07.35l-5.3,8.13c-.05.07-.13.11-.21.11Z"/>
        <path class="cls-4" d="m267.54,123.58c-.13,0-.24-.1-.25-.23,0-.14.1-.26.23-.26l19.58-1.2c.13-.02.26.1.26.23,0,.14-.1.26-.23.26l-19.58,1.2s-.01,0-.02,0Z"/>
        <path class="cls-4" d="m288.75,125.27c-.08,0-.15-.03-.2-.1l-.85-1.13-1.22-2.37-1.19-1.74c-.08-.11-.05-.27.07-.35.11-.08.27-.05.35.07l1.2,1.77,1.22,2.36.83,1.1c.08.11.06.27-.05.35-.04.03-.1.05-.15.05Z"/>
        <path class="cls-4" d="m289.95,129.37h-24.46c-.14,0-.25-.11-.25-.25s.11-.25.25-.25h24.46c.14,0,.25.11.25.25s-.11.25-.25.25Z"/>
        <path class="cls-4" d="m277.3,135.24c-.14,0-.25-.11-.25-.25v-11.66c0-.14.11-.25.25-.25s.25.11.25.25v11.66c0,.14-.11.25-.25.25Z"/>
        <path class="cls-4" d="m292.85,135.24h-30.61c-.14,0-.25-.11-.25-.25s.11-.25.25-.25h30.61c.14,0,.25.11.25.25s-.11.25-.25.25Z"/>
        <path class="cls-4" d="m555.62,892.65H152.95c-.14,0-.25-.11-.25-.25s.11-.25.25-.25h402.67c.14,0,.25.11.25.25s-.11.25-.25.25Z"/>
        <path class="cls-4" d="m569.9,907H152.95c-.14,0-.25-.11-.25-.25s.11-.25.25-.25h416.95c.14,0,.25.11.25.25s-.11.25-.25.25Z"/>
        <path class="cls-4" d="m47.97,180.84c-.14,0-.25-.11-.25-.25v-65.82c0-.14.11-.25.25-.25s.25.11.25.25v65.82c0,.14-.11.25-.25.25Z"/>
        <path class="cls-4" d="m65.15,163.66c-.14,0-.25-.11-.25-.25v-48.64c0-.14.11-.25.25-.25s.25.11.25.25v48.64c0,.14-.11.25-.25.25Z"/>
        <path class="cls-4" d="m322.82,163.66h-50.62c-.14,0-.25-.11-.25-.25s.11-.25.25-.25h50.62c.14,0,.25.11.25.25s-.11.25-.25.25Z"/>
        <path class="cls-4" d="m119.58,163.66h-54.43c-.14,0-.25-.11-.25-.25s.11-.25.25-.25h54.43c.14,0,.25.11.25.25s-.11.25-.25.25Z"/>
        <path class="cls-4" d="m346.65,180.84h-74.44c-.14,0-.25-.11-.25-.25s.11-.25.25-.25h74.44c.14,0,.25.11.25.25s-.11.25-.25.25Z"/>
        <path class="cls-4" d="m47.97,180.59l14.35,530.56h-14.35V180.59Zm14.35,0h-14.35l14.35,530.56V180.59Z"/>
        <path class="cls-1" d="m47.97,180.59l14.35,530.56h-14.35V180.59Zm14.35,0h-14.35l14.35,530.56V180.59Z"/>
        <path class="cls-4" d="m119.58,180.84H47.97c-.14,0-.25-.11-.25-.25s.11-.25.25-.25h71.61c.14,0,.25.11.25.25s-.11.25-.25.25Z"/>
        <path class="cls-4" d="m346.65,180.84c-.14,0-.25-.11-.25-.25v-65.82c0-.14.11-.25.25-.25s.25.11.25.25v65.82c0,.14-.11.25-.25.25Z"/>
        <path class="cls-4" d="m329.47,115.94c-.14,0-.25-.11-.25-.25v-18.1c0-.14.11-.25.25-.25s.25.11.25.25v18.1c0,.14-.11.25-.25.25Z"/>
        <path class="cls-4" d="m358.1,115.02h-11.45c-.14,0-.25-.11-.25-.25s.11-.25.25-.25h11.45c.14,0,.25.11.25.25s-.11.25-.25.25Z"/>
        <path class="cls-4" d="m329.47,8.13c-.06,0-.13-.02-.18-.07-.1-.1-.1-.26,0-.35l7.63-7.63c.1-.1.26-.1.35,0s.1.26,0,.35l-7.63,7.63s-.11.07-.18.07Z"/>
        <path class="cls-4" d="m329.47,28.35c-.06,0-.13-.02-.18-.07-.1-.1-.1-.26,0-.35L357.15.07c.1-.1.26-.1.35,0s.1.26,0,.35l-27.85,27.85s-.11.07-.18.07Z"/>
        <path class="cls-4" d="m329.47,48.57c-.06,0-.13-.02-.18-.07-.1-.1-.1-.26,0-.35l28.63-28.56c.1-.1.26-.1.35,0,.1.1.1.26,0,.35l-28.63,28.56s-.11.07-.18.07Z"/>
        <path class="cls-4" d="m329.47,68.86c-.06,0-.13-.02-.18-.07-.1-.1-.1-.26,0-.35l28.63-28.63c.1-.1.26-.1.35,0s.1.26,0,.35l-28.63,28.63s-.11.07-.18.07Z"/>
        <path class="cls-4" d="m329.47,89.08c-.06,0-.13-.02-.18-.07-.1-.1-.1-.26,0-.35l28.63-28.63c.1-.1.26-.1.35,0s.1.26,0,.35l-28.63,28.63s-.11.07-.18.07Z"/>
        <path class="cls-4" d="m340.99,97.84c-.06,0-.13-.02-.18-.07-.1-.1-.1-.26,0-.35l17.11-17.11c.1-.1.26-.1.35,0s.1.26,0,.35l-17.11,17.11s-.11.07-.18.07Z"/>
        <path class="cls-4" d="m358.1,97.84h-28.63c-.14,0-.25-.11-.25-.25s.11-.25.25-.25h28.63c.14,0,.25.11.25.25s-.11.25-.25.25Z"/>
        <path class="cls-4" d="m47.97,711.4c-.14,0-.25-.11-.25-.25V180.59c0-.14.11-.25.25-.25s.25.11.25.25v530.56c0,.14-.11.25-.25.25Z"/>
        <path class="cls-4" d="m62.32,711.4c-.14,0-.25-.11-.25-.25V180.59c0-.14.11-.25.25-.25s.25.11.25.25v530.56c0,.14-.11.25-.25.25Z"/>
        <path class="cls-4" d="m569.9,907c-.14,0-.25-.11-.25-.25V114.77c0-.14.11-.25.25-.25s.25.11.25.25v791.98c0,.14-.11.25-.25.25Z"/>
        <path class="cls-4" d="m469.73,730.23l85.89,9.54h-85.89v-9.54Zm85.89,0h-85.89l85.89,9.54v-9.54Z"/>
        <path class="cls-1" d="m469.73,730.23l85.89,9.54h-85.89v-9.54Zm85.89,0h-85.89l85.89,9.54v-9.54Z"/>
        <path class="cls-4" d="m332.37,730.23l137.36,9.54h-137.36v-9.54Zm137.36,0h-137.36l137.36,9.54v-9.54Z"/>
        <path class="cls-1" d="m332.37,730.23l137.36,9.54h-137.36v-9.54Zm137.36,0h-137.36l137.36,9.54v-9.54Z"/>
        <path class="cls-4" d="m460.18,739.78l9.54,23.82h-9.54v-23.82Zm9.54,0h-9.54l9.54,23.82v-23.82Z"/>
        <path class="cls-1" d="m460.18,739.78l9.54,23.82h-9.54v-23.82Zm9.54,0h-9.54l9.54,23.82v-23.82Z"/>
        <path class="cls-4" d="m460.18,763.6l95.44,9.54h-95.44v-9.54Zm95.44,0h-95.44l95.44,9.54v-9.54Z"/>
        <path class="cls-1" d="m460.18,763.6l95.44,9.54h-95.44v-9.54Zm95.44,0h-95.44l95.44,9.54v-9.54Z"/>
        <path class="cls-4" d="m555.62,892.65c-.14,0-.25-.11-.25-.25V114.77c0-.14.11-.25.25-.25s.25.11.25.25v777.63c0,.14-.11.25-.25.25Z"/>
        <path class="cls-4" d="m569.9,29.13h-211.8c-.14,0-.25-.11-.25-.25s.11-.25.25-.25h211.8c.14,0,.25.11.25.25s-.11.25-.25.25Z"/>
        <path class="cls-4" d="m62.32,711.4h-14.35c-.14,0-.25-.11-.25-.25s.11-.25.25-.25h14.35c.14,0,.25.11.25.25s-.11.25-.25.25Z"/>
        <path class="cls-4" d="m59.42,816.37c-.14,0-.25-.11-.25-.25v-5.48h-10.95v5.48c0,.14-.11.25-.25.25s-.25-.11-.25-.25v-5.73c0-.14.11-.25.25-.25h11.45c.14,0,.25.11.25.25v5.73c0,.14-.11.25-.25.25Z"/>
        <path class="cls-4" d="m59.42,717.12h-11.45c-.14,0-.25-.11-.25-.25v-5.73c0-.14.11-.25.25-.25s.25.11.25.25v5.48h10.95v-5.48c0-.14.11-.25.25-.25s.25.11.25.25v5.73c0,.14-.11.25-.25.25Z"/>
        <path class="cls-4" d="m152.95,810.65H59.42c-.14,0-.25-.11-.25-.25v-2.9c0-.14.11-.25.25-.25h93.53c.14,0,.25.11.25.25v2.9c0,.14-.11.25-.25.25Zm-93.28-.5h93.03v-2.4H59.67v2.4Z"/>
        <path class="cls-4" d="m152.88,810.61c-.14,0-.25-.11-.25-.25,0-51.41-41.83-93.24-93.24-93.24-.14,0-.25-.11-.25-.25s.11-.25.25-.25c51.69,0,93.74,42.05,93.74,93.74,0,.14-.11.25-.25.25Z"/>
        <path class="cls-4" d="m322.82,163.66c-.14,0-.25-.11-.25-.25v-47.72c0-.14.11-.25.25-.25h6.65c.14,0,.25.11.25.25s-.11.25-.25.25h-6.4v47.47c0,.14-.11.25-.25.25Z"/>
        <path class="cls-4" d="m358.1,97.84c-.14,0-.25-.11-.25-.25V.5h-28.13v97.09c0,.14-.11.25-.25.25s-.25-.11-.25-.25V.25c0-.14.11-.25.25-.25h28.63c.14,0,.25.11.25.25v97.34c0,.14-.11.25-.25.25Z"/>
        <path class="cls-4" d="m329.47,29.13h-139.05c-.14,0-.25-.11-.25-.25s.11-.25.25-.25h139.05c.14,0,.25.11.25.25s-.11.25-.25.25Z"/>
        <path class="cls-4" d="m329.47,43.41h-139.05c-.14,0-.25-.11-.25-.25s.11-.25.25-.25h139.05c.14,0,.25.11.25.25s-.11.25-.25.25Z"/>
        <path class="cls-4" d="m329.47,33.87h-139.05c-.14,0-.25-.11-.25-.25s.11-.25.25-.25h139.05c.14,0,.25.11.25.25s-.11.25-.25.25Z"/>
        <path class="cls-4" d="m128.35,43.41h-2.83c-.14,0-.25-.11-.25-.25v-9.54c0-.14.11-.25.25-.25h2.83c.14,0,.25.11.25.25v9.54c0,.14-.11.25-.25.25Zm-2.58-.5h2.33v-9.04h-2.33v9.04Z"/>
        <path class="cls-4" d="m140.79,43.41h-2.9c-.14,0-.25-.11-.25-.25v-9.54c0-.14.11-.25.25-.25h2.9c.14,0,.25.11.25.25v9.54c0,.14-.11.25-.25.25Zm-2.65-.5h2.4v-9.04h-2.4v9.04Z"/>
        <path class="cls-4" d="m153.16,43.41h-2.83c-.14,0-.25-.11-.25-.25v-9.54c0-.14.11-.25.25-.25h2.83c.14,0,.25.11.25.25v9.54c0,.14-.11.25-.25.25Zm-2.58-.5h2.33v-9.04h-2.33v9.04Z"/>
        <path class="cls-4" d="m165.6,43.41h-2.9c-.14,0-.25-.11-.25-.25v-9.54c0-.14.11-.25.25-.25h2.9c.14,0,.25.11.25.25v9.54c0,.14-.11.25-.25.25Zm-2.65-.5h2.4v-9.04h-2.4v9.04Z"/>
        <path class="cls-4" d="m177.97,43.41h-2.83c-.14,0-.25-.11-.25-.25v-9.54c0-.14.11-.25.25-.25h2.83c.14,0,.25.11.25.25v9.54c0,.14-.11.25-.25.25Zm-2.58-.5h2.33v-9.04h-2.33v9.04Z"/>
        <path class="cls-4" d="m115.98,43.41h-2.9c-.14,0-.25-.11-.25-.25v-9.54c0-.14.11-.25.25-.25h2.9c.14,0,.25.11.25.25v9.54c0,.14-.11.25-.25.25Zm-2.65-.5h2.4v-9.04h-2.4v9.04Z"/>
        <path class="cls-4" d="m190.42,43.41h-2.9c-.14,0-.25-.11-.25-.25v-9.54c0-.14.11-.25.25-.25h2.9c.14,0,.25.11.25.25v9.54c0,.14-.11.25-.25.25Zm-2.65-.5h2.4v-9.04h-2.4v9.04Z"/>
        <path class="cls-4" d="m190.42,43.41c-.14,0-.25-.11-.25-.25v-9.54c0-.14.11-.25.25-.25s.25.11.25.25v9.54c0,.14-.11.25-.25.25Z"/>
        <path class="cls-4" d="m190.42,33.87c-.14,0-.25-.11-.25-.25v-4.74c0-.14.11-.25.25-.25s.25.11.25.25v4.74c0,.14-.11.25-.25.25Z"/>
        <path class="cls-4" d="m190.42,43.41h-85.19c-.14,0-.25-.11-.25-.25s.11-.25.25-.25h85.19c.14,0,.25.11.25.25s-.11.25-.25.25Z"/>
        <path class="cls-4" d="m190.42,29.13h-85.19c-.14,0-.25-.11-.25-.25s.11-.25.25-.25h85.19c.14,0,.25.11.25.25s-.11.25-.25.25Z"/>
        <path class="cls-4" d="m464.99,773.39h-4.81c-.14,0-.25-.11-.25-.25s.11-.25.25-.25h4.81c.14,0,.25.11.25.25s-.11.25-.25.25Z"/>
        <path class="cls-4" d="m555.62,740.03h-85.89c-.14,0-.25-.11-.25-.25s.11-.25.25-.25h85.89c.14,0,.25.11.25.25s-.11.25-.25.25Z"/>
        <path class="cls-4" d="m460.18,740.03h-127.81c-.14,0-.25-.11-.25-.25s.11-.25.25-.25h127.81c.14,0,.25.11.25.25s-.11.25-.25.25Z"/>
        <path class="cls-4" d="m469.73,730.48h-137.36c-.14,0-.25-.11-.25-.25s.11-.25.25-.25h137.36c.14,0,.25.11.25.25s-.11.25-.25.25Z"/>
        <path class="cls-4" d="m555.62,763.85h-85.89c-.14,0-.25-.11-.25-.25s.11-.25.25-.25h85.89c.14,0,.25.11.25.25s-.11.25-.25.25Z"/>
        <path class="cls-4" d="m555.62,773.39h-95.44c-.14,0-.25-.11-.25-.25s.11-.25.25-.25h95.44c.14,0,.25.11.25.25s-.11.25-.25.25Z"/>
        <path class="cls-4" d="m555.62,730.48h-85.89c-.14,0-.25-.11-.25-.25s.11-.25.25-.25h85.89c.14,0,.25.11.25.25s-.11.25-.25.25Z"/>
        <path class="cls-4" d="m555.62,453.72h-208.97c-.14,0-.25-.11-.25-.25s.11-.25.25-.25h208.97c.14,0,.25.11.25.25s-.11.25-.25.25Z"/>
        <path class="cls-4" d="m555.62,444.17h-208.97c-.14,0-.25-.11-.25-.25s.11-.25.25-.25h208.97c.14,0,.25.11.25.25s-.11.25-.25.25Z"/>
        <path class="cls-4" d="m346.65,386.98h-9.54c-.14,0-.25-.11-.25-.25s.11-.25.25-.25h9.54c.14,0,.25.11.25.25s-.11.25-.25.25Z"/>
        <path class="cls-4" d="m346.65,301.09h-9.54c-.14,0-.25-.11-.25-.25s.11-.25.25-.25h9.54c.14,0,.25.11.25.25s-.11.25-.25.25Z"/>
        <path class="cls-4" d="m346.65,644.59h-9.54c-.14,0-.25-.11-.25-.25s.11-.25.25-.25h9.54c.14,0,.25.11.25.25s-.11.25-.25.25Z"/>
        <path class="cls-4" d="m460.18,773.39c-.14,0-.25-.11-.25-.25v-33.37c0-.14.11-.25.25-.25s.25.11.25.25v33.37c0,.14-.11.25-.25.25Z"/>
        <path class="cls-4" d="m469.73,763.85c-.14,0-.25-.11-.25-.25v-33.37c0-.14.11-.25.25-.25s.25.11.25.25v33.37c0,.14-.11.25-.25.25Z"/>
        <path class="cls-4" d="m346.65,301.09c-.14,0-.25-.11-.25-.25v-120.25c0-.14.11-.25.25-.25s.25.11.25.25v120.25c0,.14-.11.25-.25.25Z"/>
        <path class="cls-4" d="m346.65,444.17c-.14,0-.25-.11-.25-.25v-57.19c0-.14.11-.25.25-.25s.25.11.25.25v57.19c0,.14-.11.25-.25.25Z"/>
        <path class="cls-4" d="m346.65,644.59c-.14,0-.25-.11-.25-.25v-190.87c0-.14.11-.25.25-.25s.25.11.25.25v190.87c0,.14-.11.25-.25.25Z"/>
        <path class="cls-4" d="m337.1,301.09c-.14,0-.25-.11-.25-.25v-120.25c0-.14.11-.25.25-.25s.25.11.25.25v120.25c0,.14-.11.25-.25.25Z"/>
        <path class="cls-4" d="m337.1,644.59c-.14,0-.25-.11-.25-.25v-257.61c0-.14.11-.25.25-.25s.25.11.25.25v257.61c0,.14-.11.25-.25.25Z"/>
        <path class="cls-4" d="m246.48,730.23l85.89,9.54h-85.89v-9.54Zm85.89,0h-85.89l85.89,9.54v-9.54Z"/>
        <path class="cls-1" d="m246.48,730.23l85.89,9.54h-85.89v-9.54Zm85.89,0h-85.89l85.89,9.54v-9.54Z"/>
        <path class="cls-4" d="m246.48,739.78l9.54,76.35h-9.54v-76.35Zm9.54,0h-9.54l9.54,76.35v-76.35Z"/>
        <path class="cls-1" d="m246.48,739.78l9.54,76.35h-9.54v-76.35Zm9.54,0h-9.54l9.54,76.35v-76.35Z"/>
        <path class="cls-4" d="m332.37,740.03c-.14,0-.25-.11-.25-.25v-9.54c0-.14.11-.25.25-.25s.25.11.25.25v9.54c0,.14-.11.25-.25.25Z"/>
        <path class="cls-4" d="m555.62,763.85s-.04,0-.07,0l-85.89-23.82c-.13-.04-.21-.17-.17-.31.04-.13.17-.21.31-.17l85.89,23.82c.13.04.21.17.17.31-.03.11-.13.18-.24.18Z"/>
        <path class="cls-4" d="m469.73,763.85c-.11,0-.21-.07-.24-.18-.04-.13.04-.27.17-.31l85.89-23.82c.13-.03.27.04.31.17.04.13-.04.27-.17.31l-85.89,23.82s-.04,0-.07,0Z"/>
        <path class="cls-4" d="m346.65,730.48c-.14,0-.25-.11-.25-.25v-5.48h-9.04v5.48c0,.14-.11.25-.25.25s-.25-.11-.25-.25v-5.73c0-.14.11-.25.25-.25h9.54c.14,0,.25.11.25.25v5.73c0,.14-.11.25-.25.25Z"/>
        <path class="cls-4" d="m346.65,650.32h-9.54c-.14,0-.25-.11-.25-.25v-5.73c0-.14.11-.25.25-.25s.25.11.25.25v5.48h9.04v-5.48c0-.14.11-.25.25-.25s.25.11.25.25v5.73c0,.14-.11.25-.25.25Z"/>
        <path class="cls-4" d="m421.09,724.76h-74.44c-.14,0-.25-.11-.25-.25v-2.9c0-.14.11-.25.25-.25h74.44c.14,0,.25.11.25.25v2.9c0,.14-.11.25-.25.25Zm-74.19-.5h73.94v-2.4h-73.94v2.4Z"/>
        <path class="cls-4" d="m421.02,724.72c-.14,0-.25-.11-.25-.25,0-40.89-33.27-74.15-74.15-74.15-.14,0-.25-.11-.25-.25s.11-.25.25-.25c41.16,0,74.65,33.49,74.65,74.65,0,.14-.11.25-.25.25Z"/>
        <path class="cls-4" d="m346.65,386.98c-.14,0-.25-.11-.25-.25v-5.48h-9.04v5.48c0,.14-.11.25-.25.25s-.25-.11-.25-.25v-5.73c0-.14.11-.25.25-.25h9.54c.14,0,.25.11.25.25v5.73c0,.14-.11.25-.25.25Z"/>
        <path class="cls-4" d="m346.65,306.82h-9.54c-.14,0-.25-.11-.25-.25v-5.73c0-.14.11-.25.25-.25s.25.11.25.25v5.48h9.04v-5.48c0-.14.11-.25.25-.25s.25.11.25.25v5.73c0,.14-.11.25-.25.25Z"/>
        <path class="cls-4" d="m421.09,381.26h-74.44c-.14,0-.25-.11-.25-.25v-2.9c0-.14.11-.25.25-.25h74.44c.14,0,.25.11.25.25v2.9c0,.14-.11.25-.25.25Zm-74.19-.5h73.94v-2.4h-73.94v2.4Z"/>
        <path class="cls-4" d="m421.02,381.22c-.14,0-.25-.11-.25-.25,0-40.89-33.27-74.15-74.15-74.15-.14,0-.25-.11-.25-.25s.11-.25.25-.25c41.16,0,74.65,33.49,74.65,74.65,0,.14-.11.25-.25.25Z"/>
        <path class="cls-4" d="m193.03,87.52h-85.89c-.14,0-.25-.11-.25-.25v-41.99c0-.14.11-.25.25-.25h85.89c.14,0,.25.11.25.25v41.99c0,.14-.11.25-.25.25Zm-85.64-.5h85.39v-41.49h-85.39v41.49Z"/>
        <path class="cls-4" d="m107.14,87.52c-.09,0-.18-.05-.22-.14-.06-.12,0-.27.11-.33l85.89-41.99c.12-.06.27,0,.33.11.06.12,0,.27-.11.33l-85.89,41.99s-.07.03-.11.03Z"/>
        <path class="cls-4" d="m116.61,74.52s-.05,0-.07-.01c-.13-.04-.21-.18-.17-.31l5.8-19.09c.03-.1.13-.18.24-.18h0c.11,0,.21.07.24.18l5.87,19.09c.04.13-.03.27-.17.31-.13.04-.27-.03-.31-.17l-5.63-18.31-5.56,18.3c-.03.11-.13.18-.24.18Z"/>
        <path class="cls-4" d="m126.08,68.15h-7.28c-.14,0-.25-.11-.25-.25s.11-.25.25-.25h7.28c.14,0,.25.11.25.25s-.11.25-.25.25Z"/>
        <path class="cls-4" d="m179.18,84.34h-2.9s-.09-.01-.13-.04l-1.48-.92s-.05-.04-.07-.06l-1.41-1.84s-.03-.04-.04-.06l-.71-1.84-.78-2.71s0-.05,0-.07v-4.6s0-.05,0-.07l.78-2.69.71-1.86s.02-.04.04-.06l1.41-1.84s.05-.05.07-.06l1.48-.85s.08-.03.12-.03h2.9s.09.01.12.03l1.48.85s.05.04.07.06l1.41,1.84s.02.04.03.05l.78,1.84c.05.13,0,.27-.13.33-.13.05-.27,0-.33-.13l-.77-1.81-1.36-1.77-1.38-.79h-2.77l-1.38.79-1.36,1.77-.69,1.8-.76,2.63v4.52l.77,2.65.69,1.78,1.36,1.77,1.39.86h2.76l1.39-.86,1.37-1.78.77-1.81c.05-.13.2-.18.33-.13.13.05.19.2.13.33l-.78,1.84s-.02.04-.03.05l-1.41,1.84s-.04.04-.07.06l-1.48.92s-.08.04-.13.04Z"/>
        <path class="cls-4" d="m233.26,337.07h-53.52c-.09,0-.17-.05-.22-.12l-26.72-46.38c-.04-.08-.04-.17,0-.25l26.72-46.3c.04-.08.13-.12.22-.12h53.52c.09,0,.17.05.22.12l26.79,46.3c.04.08.04.17,0,.25l-26.79,46.38c-.04.08-.13.12-.22.12Zm-53.37-.5h53.23l26.65-46.12-26.65-46.05h-53.23l-26.58,46.05,26.58,46.12Z"/>
      </g>
      <g>
        <path class="cls-4" d="m207.81,300.46c0,2.37-.67,4.46-2,6.27-2.18,3-5.79,4.49-10.82,4.49h-17.92v-1.11c2.29-.15,3.86-.65,4.72-1.5.81-.85,1.22-2.42,1.22-4.72v-27.07c0-2.22-.43-3.66-1.28-4.33-.7-.52-2.26-.85-4.66-1v-1.11h14.92c9.36,0,14.04,3.4,14.04,10.21,0,4.59-2.68,7.62-8.04,9.1l.94.22c5.92,1.4,8.88,4.92,8.88,10.54Zm-5.38-19.42c0-5.88-3.99-8.82-11.98-8.82-1.55,0-2.41.02-2.55.06-.66.07-1.07.2-1.22.39-.15.19-.22.57-.22,1.17v14.37l6.27-.06c2.51-.04,4.34-.24,5.49-.61,2.81-1.03,4.22-3.2,4.22-6.49Zm1.11,19.2c0-4.33-2.33-7.29-6.99-8.88-1.74-.59-5.1-.89-10.1-.89v15.98c0,1.29.59,2.16,1.77,2.61.7.22,1.87.33,3.5.33,7.88,0,11.82-3.05,11.82-9.15Z"/>
        <path class="cls-4" d="m235.99,297.74c0,3.33-.72,6.29-2.17,8.88-2.03,3.55-5.12,5.33-9.26,5.33-3.4,0-6.18-1.52-8.32-4.55-2.29-3.33-3.44-8.06-3.44-14.2s2.07-11.82,6.21-16.59c4.14-4.73,9.36-7.28,15.64-7.65l.33,1.11c-5.18,1-9.32,3.25-12.43,6.77-2.85,3.14-4.55,6.92-5.1,11.32,2.4-2.44,5.29-3.66,8.65-3.66,2.88,0,5.25,1.22,7.1,3.66,1.85,2.37,2.77,5.57,2.77,9.6Zm-3.39,2.44c.04-3.77-.61-6.84-1.94-9.21-1.55-2.85-3.88-4.16-6.99-3.94-2.74.22-4.81,1.16-6.21,2.83-.89,1-1.33,2.87-1.33,5.6,0,4.88,1,8.65,3,11.32,1.7,2.22,3.77,3.33,6.21,3.33,2,0,3.64-.76,4.94-2.28,1.52-1.74,2.29-4.29,2.33-7.66Z"/>
      </g>
      <g>
        <path class="cls-4" d="m510.8,115.02c-.14,0-.25-.11-.25-.25v-17.18c0-.14.11-.25.25-.25s.25.11.25.25v17.18c0,.14-.11.25-.25.25Z"/>
        <path class="cls-4" d="m510.8,97.84h-152.7c-.14,0-.25-.11-.25-.25s.11-.25.25-.25h152.7c.14,0,.25.11.25.25s-.11.25-.25.25Z"/>
        <path class="cls-4" d="m510.8,115.02h-152.7c-.14,0-.25-.11-.25-.25s.11-.25.25-.25h152.7c.14,0,.25.11.25.25s-.11.25-.25.25Z"/>
        <path class="cls-4" d="m363.83,115.02c-.14,0-.25-.11-.25-.25v-11.45c0-.14.11-.25.25-.25s.25.11.25.25v11.45c0,.14-.11.25-.25.25Z"/>
        <path class="cls-4" d="m505.07,115.02c-.14,0-.25-.11-.25-.25v-11.45c0-.14.11-.25.25-.25s.25.11.25.25v11.45c0,.14-.11.25-.25.25Z"/>
        <path class="cls-4" d="m438.27,107.39h-74.44c-.14,0-.25-.11-.25-.25s.11-.25.25-.25h74.44c.14,0,.25.11.25.25s-.11.25-.25.25Z"/>
        <path class="cls-4" d="m505.07,111.21h-74.44c-.14,0-.25-.11-.25-.25s.11-.25.25-.25h74.44c.14,0,.25.11.25.25s-.11.25-.25.25Z"/>
        <path class="cls-4" d="m510.8,103.57h-152.7c-.14,0-.25-.11-.25-.25s.11-.25.25-.25h152.7c.14,0,.25.11.25.25s-.11.25-.25.25Z"/>
        <path class="cls-4" d="m434.45,118.84c-.14,0-.25-.11-.25-.25v-19.09c0-.14.11-.25.25-.25s.25.11.25.25v19.09c0,.14-.11.25-.25.25Z"/>
        <path class="cls-4" d="m358.1,115.02c-.14,0-.25-.11-.25-.25v-17.18c0-.14.11-.25.25-.25s.25.11.25.25v17.18c0,.14-.11.25-.25.25Z"/>
        <path class="cls-4" d="m569.9,115.02h-59.1c-.14,0-.25-.11-.25-.25s.11-.25.25-.25h59.1c.14,0,.25.11.25.25s-.11.25-.25.25Z"/>
        <path class="cls-4" d="m569.9,97.84h-59.1c-.14,0-.25-.11-.25-.25s.11-.25.25-.25h59.1c.14,0,.25.11.25.25s-.11.25-.25.25Z"/>
        <path class="cls-4" d="m460.18,892.65c-.14,0-.25-.11-.25-.25v-119.26c0-.14.11-.25.25-.25s.25.11.25.25v119.26c0,.14-.11.25-.25.25Z"/>
        <path class="cls-4" d="m464.99,892.65c-.14,0-.25-.11-.25-.25v-119.26c0-.14.11-.25.25-.25s.25.11.25.25v119.26c0,.14-.11.25-.25.25Z"/>
        <path class="cls-4" d="m332.37,797.29h-76.35c-.14,0-.25-.11-.25-.25v-57.26c0-.14.11-.25.25-.25h76.35c.14,0,.25.11.25.25v57.26c0,.14-.11.25-.25.25Zm-76.1-.5h75.85v-56.76h-75.85v56.76Z"/>
        <path class="cls-4" d="m286.79,758.43c-.11,0-.21-.07-.24-.18-.04-.13.04-.27.17-.31,2.08-.62,4.22-1.02,6.38-1.16.14-.03.26.09.27.23,0,.14-.09.26-.23.27-2.12.15-4.23.53-6.27,1.14-.02,0-.05.01-.07.01Z"/>
        <path class="cls-4" d="m280.27,761.66c-.08,0-.15-.04-.2-.1-.08-.11-.06-.27.06-.35,2.01-1.46,4.23-2.57,6.61-3.28.13-.04.27.03.31.17.04.13-.04.27-.17.31-2.33.7-4.5,1.78-6.46,3.21-.04.03-.1.05-.15.05Z"/>
        <path class="cls-4" d="m275.52,766.81s-.08-.01-.12-.03c-.12-.07-.16-.22-.09-.34,1.2-2.1,2.79-3.88,4.74-5.3.11-.08.27-.06.35.05.08.11.06.27-.06.35-1.9,1.38-3.44,3.11-4.6,5.15-.05.08-.13.13-.22.13Z"/>
        <path class="cls-4" d="m274.05,772.44c-.14,0-.25-.11-.25-.25,0-2,.52-3.97,1.51-5.7.07-.12.22-.16.34-.09.12.07.16.22.09.34-.95,1.66-1.44,3.55-1.44,5.46,0,.14-.11.25-.25.25Z"/>
        <path class="cls-4" d="m275.52,778.02c-.09,0-.17-.04-.22-.13-.99-1.73-1.51-3.71-1.51-5.7,0-.14.11-.25.25-.25s.25.11.25.25c0,1.91.5,3.8,1.44,5.46.07.12.03.27-.09.34-.04.02-.08.03-.12.03Z"/>
        <path class="cls-4" d="m280.19,783.22c-.05,0-.1-.02-.15-.05-1.95-1.42-3.55-3.21-4.74-5.3-.07-.12-.03-.27.09-.34.12-.07.27-.03.34.09,1.16,2.04,2.71,3.77,4.6,5.15.11.08.14.24.06.35-.05.07-.12.1-.2.1Z"/>
        <path class="cls-4" d="m286.81,786.46s-.05,0-.07-.01c-2.38-.72-4.6-1.82-6.61-3.28-.11-.08-.14-.24-.06-.35.08-.11.24-.13.35-.05,1.96,1.43,4.14,2.51,6.46,3.21.13.04.21.18.17.31-.03.11-.13.18-.24.18Z"/>
        <path class="cls-4" d="m295.08,787.67c-2.83,0-5.65-.42-8.36-1.23-.13-.04-.21-.18-.17-.31.04-.13.18-.21.31-.17,2.67.8,5.43,1.21,8.22,1.21.14,0,.25.11.25.25s-.11.25-.25.25Z"/>
        <path class="cls-4" d="m295.08,787.67c-.14,0-.25-.11-.25-.25s.11-.25.25-.25c2.78,0,5.55-.41,8.22-1.21.14-.04.27.03.31.17.04.13-.04.27-.17.31-2.72.82-5.53,1.23-8.36,1.23Z"/>
        <path class="cls-4" d="m303.35,786.46c-.11,0-.21-.07-.24-.18-.04-.13.04-.27.17-.31,2.33-.7,4.5-1.78,6.46-3.21.11-.08.27-.06.35.05.08.11.06.27-.06.35-2.01,1.46-4.23,2.57-6.61,3.28-.02,0-.05.01-.07.01Z"/>
        <path class="cls-4" d="m309.89,783.22c-.08,0-.15-.04-.2-.1-.08-.11-.06-.27.06-.35,1.9-1.38,3.44-3.11,4.6-5.15.07-.12.22-.16.34-.09.12.07.16.22.09.34-1.19,2.1-2.79,3.88-4.74,5.3-.04.03-.1.05-.15.05Z"/>
        <path class="cls-4" d="m314.56,778.02s-.08-.01-.12-.03c-.12-.07-.16-.22-.09-.34.95-1.66,1.44-3.55,1.44-5.46,0-.14.11-.25.25-.25s.25.11.25.25c0,2-.52,3.97-1.51,5.7-.05.08-.13.13-.22.13Z"/>
        <path class="cls-4" d="m316.04,772.44c-.14,0-.25-.11-.25-.25,0-1.91-.5-3.8-1.44-5.46-.07-.12-.03-.27.09-.34.12-.07.27-.03.34.09.99,1.74,1.51,3.71,1.51,5.7,0,.14-.11.25-.25.25Z"/>
        <path class="cls-4" d="m314.56,766.81c-.09,0-.17-.04-.22-.13-1.16-2.04-2.71-3.77-4.6-5.15-.11-.08-.14-.24-.06-.35.08-.11.24-.13.35-.05,1.95,1.42,3.55,3.21,4.74,5.3.07.12.03.27-.09.34-.04.02-.08.03-.12.03Z"/>
        <path class="cls-4" d="m309.89,761.66c-.05,0-.1-.02-.15-.05-1.96-1.43-4.14-2.51-6.46-3.21-.13-.04-.21-.18-.17-.31s.18-.21.31-.17c2.38.72,4.6,1.82,6.61,3.28.11.08.14.24.06.35-.05.07-.12.1-.2.1Z"/>
        <path class="cls-4" d="m303.37,758.43s-.05,0-.07-.01c-2.04-.61-4.15-1-6.27-1.14-.14,0-.24-.13-.23-.27,0-.14.13-.26.27-.23,2.16.15,4.3.54,6.38,1.16.13.04.21.18.17.31-.03.11-.13.18-.24.18Z"/>
        <path class="cls-4" d="m302.25,751.97h-14.28c-.14,0-.25-.11-.25-.25s.11-.25.25-.25h14.28c.14,0,.25.11.25.25s-.11.25-.25.25Z"/>
        <path class="cls-4" d="m296.67,762.58s-.01,0-.02,0c-.14-.01-.24-.13-.23-.27l.85-10.6c.01-.14.13-.25.27-.23.14.01.24.13.23.27l-.85,10.6c-.01.13-.12.23-.25.23Z"/>
        <path class="cls-4" d="m293.56,762.58c-.13,0-.24-.1-.25-.23l-.85-10.6c-.01-.14.09-.26.23-.27.14-.02.26.09.27.23l.85,10.6c.01.14-.09.26-.23.27,0,0-.01,0-.02,0Z"/>
        <path class="cls-4" d="m287.97,756.71c-.14,0-.25-.11-.25-.25v-4.74c0-.14.11-.25.25-.25s.25.11.25.25v4.74c0,.14-.11.25-.25.25Z"/>
        <path class="cls-4" d="m302.25,756.71c-.14,0-.25-.11-.25-.25v-4.74c0-.14.11-.25.25-.25s.25.11.25.25v4.74c0,.14-.11.25-.25.25Z"/>
        <path class="cls-4" d="m293.06,756.71h-5.09c-.14,0-.25-.11-.25-.25s.11-.25.25-.25h5.09c.14,0,.25.11.25.25s-.11.25-.25.25Z"/>
        <path class="cls-4" d="m302.25,756.71h-5.16c-.14,0-.25-.11-.25-.25s.11-.25.25-.25h5.16c.14,0,.25.11.25.25s-.11.25-.25.25Z"/>
        <path class="cls-4" d="m290.31,756.71c-.14,0-.25-.11-.25-.25v-4.74c0-.14.11-.25.25-.25s.25.11.25.25v4.74c0,.14-.11.25-.25.25Z"/>
        <path class="cls-4" d="m299.85,756.71c-.14,0-.25-.11-.25-.25v-4.74c0-.14.11-.25.25-.25s.25.11.25.25v4.74c0,.14-.11.25-.25.25Z"/>
        <path class="cls-4" d="m292.71,754.31h-4.74c-.14,0-.25-.11-.25-.25s.11-.25.25-.25h4.74c.14,0,.25.11.25.25s-.11.25-.25.25Z"/>
        <path class="cls-4" d="m290.27,756.64c-1.44,0-2.62-1.17-2.62-2.62s1.17-2.62,2.62-2.62,2.62,1.17,2.62,2.62-1.17,2.62-2.62,2.62Zm0-4.74c-1.17,0-2.12.95-2.12,2.12s.95,2.12,2.12,2.12,2.12-.95,2.12-2.12-.95-2.12-2.12-2.12Z"/>
        <path class="cls-4" d="m299.81,756.64c-1.44,0-2.62-1.17-2.62-2.62s1.17-2.62,2.62-2.62,2.62,1.17,2.62,2.62-1.17,2.62-2.62,2.62Zm0-4.74c-1.17,0-2.12.95-2.12,2.12s.95,2.12,2.12,2.12,2.12-.95,2.12-2.12-.95-2.12-2.12-2.12Z"/>
        <path class="cls-4" d="m302.25,754.31h-4.74c-.14,0-.25-.11-.25-.25s.11-.25.25-.25h4.74c.14,0,.25.11.25.25s-.11.25-.25.25Z"/>
        <path class="cls-4" d="m288.61,756c-.06,0-.13-.02-.18-.07-.1-.1-.1-.26,0-.35l3.39-3.39c.1-.1.26-.1.35,0s.1.26,0,.35l-3.39,3.39s-.11.07-.18.07Z"/>
        <path class="cls-4" d="m292,756c-.06,0-.13-.02-.18-.07l-3.39-3.39c-.1-.1-.1-.26,0-.35s.26-.1.35,0l3.39,3.39c.1.1.1.26,0,.35-.05.05-.11.07-.18.07Z"/>
        <path class="cls-4" d="m298.15,756c-.06,0-.13-.02-.18-.07-.1-.1-.1-.26,0-.35l3.39-3.39c.1-.1.26-.1.35,0s.1.26,0,.35l-3.39,3.39s-.11.07-.18.07Z"/>
        <path class="cls-4" d="m301.55,756c-.06,0-.13-.02-.18-.07l-3.39-3.39c-.1-.1-.1-.26,0-.35s.26-.1.35,0l3.39,3.39c.1.1.1.26,0,.35-.05.05-.11.07-.18.07Z"/>
        <path class="cls-4" d="m295.08,764.06c-.98,0-1.77-.79-1.77-1.77,0-.14.11-.25.25-.25s.25.11.25.25c0,.7.57,1.27,1.27,1.27s1.27-.57,1.27-1.27c0-.14.11-.25.25-.25s.25.11.25.25c0,.98-.79,1.77-1.77,1.77Z"/>
        <path class="cls-4" d="m295.15,755.23c-.66,0-1.2-.54-1.2-1.2s.54-1.21,1.2-1.21,1.2.54,1.2,1.21-.54,1.2-1.2,1.2Zm0-1.91c-.39,0-.7.32-.7.71s.32.7.7.7.7-.32.7-.7-.32-.71-.7-.71Z"/>
        <path class="cls-4" d="m295.08,767.17c-1.11,0-2.1-.7-2.47-1.74-.37-1.04-.04-2.21.82-2.91.11-.09.26-.07.35.04.09.11.07.26-.04.35-.69.56-.96,1.51-.66,2.35.3.84,1.1,1.41,2,1.41s1.7-.57,2-1.41c.3-.84.03-1.79-.66-2.35-.11-.09-.12-.25-.04-.35.09-.11.25-.12.35-.04.86.7,1.19,1.87.82,2.91-.37,1.04-1.36,1.74-2.47,1.74Z"/>
        <path class="cls-4" d="m295.08,768.16c-1.65,0-3.09-1.12-3.49-2.71-.41-1.6.31-3.27,1.76-4.06.12-.07.27-.02.34.1.07.12.02.27-.1.34-1.24.68-1.87,2.12-1.51,3.5.35,1.38,1.59,2.34,3.01,2.34s2.66-.96,3.01-2.34c.35-1.38-.27-2.81-1.51-3.5-.12-.07-.17-.22-.1-.34.07-.12.22-.17.34-.1,1.44.79,2.17,2.46,1.76,4.06-.41,1.6-1.85,2.71-3.49,2.71Z"/>
        <path class="cls-4" d="m319.15,764.84s-.04,0-.06,0l-7.71-1.91c-.13-.03-.22-.17-.18-.3.03-.13.17-.22.3-.18l7.71,1.91c.13.03.22.17.18.3-.03.11-.13.19-.24.19Z"/>
        <path class="cls-4" d="m271.01,764.84c-.11,0-.21-.08-.24-.19-.03-.13.05-.27.18-.3l7.71-1.91c.13-.04.27.05.3.18.03.13-.05.27-.18.3l-7.71,1.91s-.04,0-.06,0Z"/>
        <path class="cls-4" d="m305.03,789.22c-.1,0-.2-.07-.24-.17-.04-.13.03-.27.16-.32,2.87-.98,5.52-2.45,7.87-4.38.11-.09.26-.07.35.04.09.11.07.26-.03.35-2.39,1.97-5.09,3.47-8.02,4.46-.03,0-.05.01-.08.01Z"/>
        <path class="cls-4" d="m312.9,784.77c-.07,0-.14-.03-.19-.09-.09-.11-.07-.26.03-.35,2.26-1.86,4.08-4.13,5.4-6.75.06-.12.21-.17.34-.11.12.06.17.21.11.34-1.35,2.68-3.21,5-5.53,6.91-.05.04-.1.06-.16.06Z"/>
        <path class="cls-4" d="m318.37,777.96s-.08,0-.11-.03c-.12-.06-.17-.21-.11-.34,1.14-2.26,1.74-4.79,1.74-7.32,0-.14.11-.25.25-.25s.25.11.25.25c0,2.61-.62,5.22-1.8,7.55-.04.09-.13.14-.22.14Z"/>
        <path class="cls-4" d="m320.14,770.53c-.14,0-.25-.11-.25-.25,0-2.53-.6-5.06-1.74-7.32-.06-.12-.01-.27.11-.34.12-.06.27-.01.34.11,1.17,2.33,1.8,4.94,1.8,7.54,0,.14-.11.25-.25.25Z"/>
        <path class="cls-4" d="m318.37,763.05c-.09,0-.18-.05-.22-.14-1.32-2.62-3.14-4.89-5.4-6.75-.11-.09-.12-.25-.03-.35.09-.11.25-.12.35-.04,2.32,1.9,4.18,4.23,5.53,6.91.06.12.01.27-.11.34-.04.02-.07.03-.11.03Z"/>
        <path class="cls-4" d="m312.98,756.19c-.06,0-.11-.02-.16-.06-2.35-1.93-4.99-3.4-7.87-4.38-.13-.04-.2-.19-.16-.32.04-.13.19-.2.32-.16,2.93,1,5.63,2.5,8.02,4.46.11.09.12.25.03.35-.05.06-.12.09-.19.09Z"/>
        <path class="cls-4" d="m305,751.85s-.05,0-.08-.01c-3.17-1.08-6.48-1.63-9.84-1.63-.14,0-.25-.11-.25-.25s.11-.25.25-.25c3.41,0,6.77.56,10,1.66.13.04.2.19.16.32-.04.1-.13.17-.24.17Z"/>
        <path class="cls-4" d="m285.16,751.85c-.1,0-.2-.07-.24-.17-.04-.13.03-.27.16-.32,3.23-1.1,6.59-1.66,10-1.66.14,0,.25.11.25.25s-.11.25-.25.25c-3.35,0-6.66.55-9.84,1.63-.03,0-.05.01-.08.01Z"/>
        <path class="cls-4" d="m277.18,756.19c-.07,0-.14-.03-.19-.09-.09-.11-.07-.26.03-.35,2.39-1.96,5.09-3.47,8.02-4.46.13-.05.27.02.32.16.04.13-.03.27-.16.32-2.87.98-5.52,2.45-7.87,4.38-.05.04-.1.06-.16.06Z"/>
        <path class="cls-4" d="m271.72,763.05s-.08,0-.11-.03c-.12-.06-.17-.21-.11-.34,1.35-2.68,3.21-5,5.53-6.91.11-.09.26-.07.35.04.09.11.07.26-.03.35-2.26,1.86-4.08,4.13-5.4,6.75-.04.09-.13.14-.22.14Z"/>
        <path class="cls-4" d="m270.02,770.53c-.14,0-.25-.11-.25-.25,0-2.61.62-5.22,1.8-7.54.06-.12.21-.17.34-.11.12.06.17.21.11.34-1.14,2.26-1.74,4.79-1.74,7.32,0,.14-.11.25-.25.25Z"/>
        <path class="cls-4" d="m271.79,777.96c-.09,0-.18-.05-.22-.14-1.17-2.33-1.8-4.94-1.8-7.55,0-.14.11-.25.25-.25s.25.11.25.25c0,2.53.6,5.06,1.74,7.32.06.12.01.27-.11.34-.04.02-.07.03-.11.03Z"/>
        <path class="cls-4" d="m277.18,784.77c-.06,0-.11-.02-.16-.06-2.32-1.9-4.18-4.23-5.53-6.91-.06-.12-.01-.27.11-.34.12-.06.27-.01.34.11,1.32,2.62,3.14,4.89,5.4,6.75.11.09.12.25.03.35-.05.06-.12.09-.19.09Z"/>
        <path class="cls-4" d="m285.12,789.22s-.05,0-.08-.01c-2.93-1-5.63-2.5-8.02-4.46-.11-.09-.12-.25-.03-.35.09-.11.25-.12.35-.03,2.35,1.93,4.99,3.4,7.87,4.38.13.04.2.19.16.32-.04.1-.13.17-.24.17Z"/>
        <path class="cls-4" d="m295.08,790.78c-3.41,0-6.77-.56-10-1.65-.13-.04-.2-.19-.16-.32.04-.13.19-.2.32-.16,3.18,1.08,6.48,1.63,9.84,1.63.14,0,.25.11.25.25s-.11.25-.25.25Z"/>
        <path class="cls-4" d="m295.08,790.78c-.14,0-.25-.11-.25-.25s.11-.25.25-.25c3.35,0,6.66-.55,9.84-1.63.13-.05.27.02.32.16.04.13-.03.27-.16.32-3.23,1.1-6.59,1.65-10,1.65Z"/>
        <path class="cls-4" d="m305.56,790.76c-.1,0-.2-.07-.24-.17-.04-.13.03-.27.16-.32,3.06-1.04,5.88-2.61,8.38-4.66.11-.09.26-.07.35.03.09.11.07.26-.03.35-2.54,2.09-5.41,3.69-8.53,4.75-.03,0-.05.01-.08.01Z"/>
        <path class="cls-4" d="m313.93,786.03c-.07,0-.14-.03-.19-.09-.09-.11-.07-.26.03-.35,2.44-2,4.4-4.45,5.82-7.27.06-.12.21-.17.34-.11.12.06.17.21.11.34-1.45,2.88-3.46,5.38-5.95,7.43-.05.04-.1.06-.16.06Z"/>
        <path class="cls-4" d="m319.82,778.69s-.08,0-.11-.03c-.12-.06-.17-.21-.11-.34,1.25-2.49,1.92-5.27,1.92-8.05,0-.14.11-.25.25-.25s.25.11.25.25c0,2.86-.68,5.72-1.97,8.28-.04.09-.13.14-.22.14Z"/>
        <path class="cls-4" d="m321.76,770.53c-.14,0-.25-.11-.25-.25,0-2.78-.66-5.57-1.92-8.05-.06-.12-.01-.27.11-.34.12-.06.27-.01.34.11,1.29,2.55,1.97,5.42,1.97,8.28,0,.14-.11.25-.25.25Z"/>
        <path class="cls-4" d="m319.82,762.31c-.09,0-.18-.05-.22-.14-1.42-2.82-3.38-5.27-5.82-7.27-.11-.09-.12-.25-.03-.35.09-.11.25-.12.35-.04,2.49,2.05,4.5,4.55,5.95,7.43.06.12.01.27-.11.34-.04.02-.07.03-.11.03Z"/>
        <path class="cls-4" d="m314.01,754.94c-.06,0-.11-.02-.16-.06-2.5-2.05-5.32-3.62-8.38-4.66-.13-.04-.2-.19-.16-.32.04-.13.19-.2.32-.16,3.12,1.06,5.99,2.66,8.53,4.75.11.09.12.25.03.35-.05.06-.12.09-.19.09Z"/>
        <path class="cls-4" d="m305.52,750.31s-.05,0-.08-.01c-3.34-1.14-6.83-1.71-10.36-1.71-.14,0-.25-.11-.25-.25s.11-.25.25-.25c3.59,0,7.13.59,10.52,1.74.13.04.2.19.16.32-.04.1-.13.17-.24.17Z"/>
        <path class="cls-4" d="m284.64,750.31c-.1,0-.2-.07-.24-.17-.04-.13.03-.27.16-.32,3.4-1.16,6.94-1.74,10.52-1.74.14,0,.25.11.25.25s-.11.25-.25.25c-3.53,0-7.02.58-10.36,1.71-.03,0-.05.01-.08.01Z"/>
        <path class="cls-4" d="m276.15,754.94c-.07,0-.14-.03-.19-.09-.09-.11-.07-.26.03-.35,2.54-2.09,5.41-3.69,8.53-4.75.13-.05.27.02.32.16.04.13-.03.27-.16.32-3.06,1.04-5.88,2.61-8.38,4.66-.05.04-.1.06-.16.06Z"/>
        <path class="cls-4" d="m270.27,762.31s-.08,0-.11-.03c-.12-.06-.17-.21-.11-.34,1.45-2.88,3.46-5.38,5.95-7.43.11-.09.26-.07.35.04.09.11.07.26-.03.35-2.44,2-4.4,4.45-5.82,7.27-.04.09-.13.14-.22.14Z"/>
        <path class="cls-4" d="m268.39,770.53c-.14,0-.25-.11-.25-.25,0-2.86.68-5.72,1.97-8.28.06-.12.21-.17.34-.11.12.06.17.21.11.34-1.25,2.49-1.92,5.27-1.92,8.05,0,.14-.11.25-.25.25Z"/>
        <path class="cls-4" d="m270.33,778.69c-.09,0-.18-.05-.22-.14-1.29-2.55-1.97-5.42-1.97-8.28,0-.14.11-.25.25-.25s.25.11.25.25c0,2.78.66,5.57,1.92,8.05.06.12.01.27-.11.34-.04.02-.07.03-.11.03Z"/>
        <path class="cls-4" d="m276.15,786.03c-.06,0-.11-.02-.16-.06-2.49-2.05-4.5-4.55-5.95-7.43-.06-.12-.01-.27.11-.34.12-.06.27-.01.34.11,1.42,2.82,3.38,5.27,5.82,7.27.11.09.12.25.03.35-.05.06-.12.09-.19.09Z"/>
        <path class="cls-4" d="m284.6,790.76s-.05,0-.08-.01c-3.12-1.06-5.99-2.66-8.53-4.75-.11-.09-.12-.25-.03-.35.09-.11.25-.12.35-.04,2.5,2.05,5.32,3.62,8.38,4.66.13.04.2.19.16.32-.04.1-.13.17-.24.17Z"/>
        <path class="cls-4" d="m295.08,792.41c-3.59,0-7.13-.59-10.52-1.74-.13-.04-.2-.19-.16-.32.04-.13.19-.2.32-.16,3.34,1.14,6.83,1.71,10.36,1.71.14,0,.25.11.25.25s-.11.25-.25.25Z"/>
        <path class="cls-4" d="m295.08,792.41c-.14,0-.25-.11-.25-.25s.11-.25.25-.25c3.53,0,7.02-.58,10.36-1.71.13-.05.27.02.32.16.04.13-.03.27-.16.32-3.4,1.16-6.94,1.74-10.52,1.74Z"/>
        <path class="cls-4" d="m423,793.97s-.02,0-.03,0c-.14-.01-.24-.14-.22-.28l3.82-35.84v-3.44c0-.14.11-.25.25-.25h2.93v-5.48c0-.14.11-.25.25-.25s.25.11.25.25v5.73c0,.14-.11.25-.25.25h-2.93v3.21l-3.82,35.87c-.01.13-.12.22-.25.22Z"/>
        <path class="cls-4" d="m408.75,806.76c-.14,0-.25-.11-.25-.25s.11-.25.25-.25c7.22,0,13.23-5.41,13.99-12.59.01-.14.13-.24.27-.22.14.01.24.14.22.28-.78,7.43-7.01,13.04-14.49,13.04Z"/>
        <path class="cls-4" d="m408.79,806.83h-5.94c-.14,0-.25-.11-.25-.25s.11-.25.25-.25h5.94c.14,0,.25.11.25.25s-.11.25-.25.25Z"/>
        <path class="cls-4" d="m402.81,806.76c-7.47,0-13.7-5.61-14.49-13.04-.01-.14.08-.26.22-.28.14-.02.26.09.27.22.76,7.18,6.77,12.59,13.99,12.59.14,0,.25.11.25.25s-.11.25-.25.25Z"/>
        <path class="cls-4" d="m388.57,793.97c-.13,0-.23-.1-.25-.22l-3.75-35.84v-16.22c0-.14.11-.25.25-.25s.25.11.25.25v16.19l3.75,35.82c.01.14-.09.26-.22.28,0,0-.02,0-.03,0Z"/>
        <path class="cls-4" d="m384.82,741.9c-.14,0-.25-.11-.25-.25,0-1.17.95-2.12,2.12-2.12.14,0,.25.11.25.25s-.11.25-.25.25c-.9,0-1.62.73-1.62,1.62,0,.14-.11.25-.25.25Z"/>
        <path class="cls-4" d="m424.91,740.03h-38.17c-.14,0-.25-.11-.25-.25s.11-.25.25-.25h38.17c.14,0,.25.11.25.25s-.11.25-.25.25Z"/>
        <path class="cls-4" d="m426.74,741.9c-.14,0-.25-.11-.25-.25,0-.89-.73-1.62-1.62-1.62-.14,0-.25-.11-.25-.25s.11-.25.25-.25c1.17,0,2.12.95,2.12,2.12,0,.14-.11.25-.25.25Z"/>
        <path class="cls-4" d="m430,748.93h-3.18c-.14,0-.25-.11-.25-.25v-7c0-.14.11-.25.25-.25s.25.11.25.25v6.75h2.93c.14,0,.25.11.25.25s-.11.25-.25.25Z"/>
        <path class="cls-4" d="m419.25,793.61s-.02,0-.03,0c-.14-.01-.24-.14-.22-.28l3.25-31.18c.01-.14.14-.24.27-.22.14.01.24.14.22.28l-3.25,31.18c-.01.13-.12.22-.25.22Z"/>
        <path class="cls-4" d="m421.16,793.82s-.02,0-.03,0c-.14-.01-.24-.14-.22-.27l3.04-29.27c.01-.14.14-.24.27-.22.14.01.24.14.22.27l-3.04,29.27c-.01.13-.12.22-.25.22Z"/>
        <path class="cls-4" d="m392.39,793.61c-.13,0-.23-.1-.25-.22l-3.25-31.18c-.01-.14.09-.26.22-.28.14-.02.26.09.27.22l3.25,31.18c.01.14-.09.26-.22.28,0,0-.02,0-.03,0Z"/>
        <path class="cls-4" d="m390.48,793.82c-.13,0-.23-.1-.25-.22l-3.04-29.27c-.01-.14.09-.26.22-.27.13-.02.26.09.27.22l3.04,29.27c.01.14-.09.26-.22.27,0,0-.02,0-.03,0Z"/>
        <path class="cls-4" d="m426.18,754.66c-.14,0-.25-.11-.25-.25v-5.73c0-.14.11-.25.25-.25s.25.11.25.25v5.73c0,.14-.11.25-.25.25Z"/>
        <path class="cls-4" d="m424.12,764.51s-.02,0-.03,0c-.14-.01-.24-.14-.22-.28.05-.46-.1-.91-.41-1.26-.31-.34-.75-.54-1.21-.54-.14,0-.25-.11-.25-.25s.11-.25.25-.25c.6,0,1.18.26,1.58.7s.6,1.05.53,1.64c-.01.13-.12.22-.25.22Z"/>
        <path class="cls-4" d="m387.38,764.51c-.13,0-.23-.1-.25-.22-.06-.6.13-1.2.53-1.64.4-.45.98-.7,1.58-.7.14,0,.25.11.25.25s-.11.25-.25.25c-.46,0-.9.2-1.21.54-.31.34-.46.8-.41,1.26.01.14-.08.26-.22.28,0,0-.02,0-.03,0Z"/>
        <path class="cls-4" d="m422.29,762.44h-33.01c-.14,0-.25-.11-.25-.25s.11-.25.25-.25h33.01c.14,0,.25.11.25.25s-.11.25-.25.25Z"/>
        <path class="cls-4" d="m426.81,758.12c-.06,0-.11-.02-.16-.06l-3.11-2.62c-.11-.09-.12-.25-.03-.35.09-.11.25-.12.35-.03l3.11,2.62c.11.09.12.25.03.35-.05.06-.12.09-.19.09Z"/>
        <path class="cls-4" d="m384.82,758.12c-.07,0-.14-.03-.19-.09-.09-.11-.08-.26.03-.35l3.11-2.62c.11-.09.26-.08.35.03.09.11.08.26-.03.35l-3.11,2.62s-.1.06-.16.06Z"/>
        <path class="cls-4" d="m423.63,743.14c-.06,0-.13-.03-.18-.08-.1-.1-.09-.26,0-.35l2.62-2.54c.1-.1.26-.09.35,0,.1.1.09.26,0,.35l-2.62,2.54s-.11.07-.17.07Z"/>
        <path class="cls-4" d="m387.93,743.14c-.06,0-.13-.02-.18-.07l-2.54-2.54c-.1-.1-.1-.26,0-.35s.26-.1.35,0l2.54,2.54c.1.1.1.26,0,.35-.05.05-.11.07-.18.07Z"/>
        <path class="cls-4" d="m388.46,755.85s-.03,0-.04,0c-.59-.09-1.02-.59-1.02-1.19,0-.14.11-.25.25-.25s.25.11.25.25c0,.35.25.64.6.7.14.02.23.15.21.29-.02.12-.13.21-.25.21Z"/>
        <path class="cls-4" d="m423.11,755.85c-.12,0-.23-.09-.25-.21-.02-.14.07-.26.21-.29.35-.05.6-.35.6-.7,0-.14.11-.25.25-.25s.25.11.25.25c0,.6-.43,1.1-1.02,1.19-.01,0-.03,0-.04,0Z"/>
        <path class="cls-4" d="m423.92,743.81c-.14,0-.25-.11-.25-.25,0-.39-.32-.71-.7-.71-.14,0-.25-.11-.25-.25s.11-.25.25-.25c.66,0,1.2.54,1.2,1.21,0,.14-.11.25-.25.25Z"/>
        <path class="cls-4" d="m387.65,743.81c-.14,0-.25-.11-.25-.25,0-.66.54-1.21,1.2-1.21.14,0,.25.11.25.25s-.11.25-.25.25c-.39,0-.7.32-.7.71,0,.14-.11.25-.25.25Z"/>
        <path class="cls-4" d="m387.65,754.94c-.14,0-.25-.11-.25-.25v-11.1c0-.14.11-.25.25-.25s.25.11.25.25v11.1c0,.14-.11.25-.25.25Z"/>
        <path class="cls-4" d="m423,742.85h-34.36c-.14,0-.25-.11-.25-.25s.11-.25.25-.25h34.36c.14,0,.25.11.25.25s-.11.25-.25.25Z"/>
        <path class="cls-4" d="m423.92,754.94c-.14,0-.25-.11-.25-.25v-11.1c0-.14.11-.25.25-.25s.25.11.25.25v11.1c0,.14-.11.25-.25.25Z"/>
        <path class="cls-4" d="m405.78,757.21c-5.8,0-11.6-.44-17.36-1.33-.14-.02-.23-.15-.21-.29s.15-.23.29-.21c11.47,1.77,23.1,1.77,34.57,0,.14-.02.26.07.29.21s-.07.26-.21.29c-5.76.89-11.56,1.33-17.36,1.33Z"/>
        <path class="cls-4" d="m405.78,760.04c-7.03,0-14.05-.64-21.03-1.92-.14-.03-.23-.16-.2-.29.02-.14.16-.23.29-.2,13.9,2.55,27.99,2.55,41.88,0,.13-.03.27.06.29.2.02.14-.07.27-.2.29-6.98,1.28-14,1.92-21.03,1.92Z"/>
        <path class="cls-4" d="m426.81,748.93h-.64c-.14,0-.25-.11-.25-.25s.11-.25.25-.25h.64c.14,0,.25.11.25.25s-.11.25-.25.25Z"/>
        <polygon class="cls-4" points="426.18 754.27 426.11 754.34 426.04 754.41 426.11 754.48 426.18 754.55 426.25 754.48 426.32 754.41 426.25 754.34 426.18 754.27"/>
        <polygon class="cls-2" points="426.18 754.27 426.11 754.34 426.04 754.41 426.11 754.48 426.18 754.55 426.25 754.48 426.32 754.41 426.25 754.34 426.18 754.27"/>
        <polygon class="cls-4" points="426.18 754.27 426.11 754.34 426.04 754.41 426.11 754.48 426.18 754.55 426.25 754.48 426.32 754.41 426.25 754.34 426.18 754.27"/>
        <polygon class="cls-2" points="426.18 754.27 426.11 754.34 426.04 754.41 426.11 754.48 426.18 754.55 426.25 754.48 426.32 754.41 426.25 754.34 426.18 754.27"/>
        <polygon class="cls-4" points="426.18 754.27 426.11 754.34 426.04 754.41 426.11 754.48 426.18 754.55 426.25 754.48 426.32 754.41 426.25 754.34 426.18 754.27"/>
        <polygon class="cls-2" points="426.18 754.27 426.11 754.34 426.04 754.41 426.11 754.48 426.18 754.55 426.25 754.48 426.32 754.41 426.25 754.34 426.18 754.27"/>
        <polygon class="cls-4" points="426.18 754.27 426.11 754.34 426.04 754.41 426.11 754.48 426.18 754.55 426.25 754.48 426.32 754.41 426.25 754.34 426.18 754.27"/>
        <polygon class="cls-2" points="426.18 754.27 426.11 754.34 426.04 754.41 426.11 754.48 426.18 754.55 426.25 754.48 426.32 754.41 426.25 754.34 426.18 754.27"/>
        <path class="cls-4" d="m426.81,754.66h-.64c-.14,0-.25-.11-.25-.25s.11-.25.25-.25h.64c.14,0,.25.11.25.25s-.11.25-.25.25Z"/>
        <path class="cls-4" d="m408.75,802.94c-.14,0-.25-.11-.25-.25s.11-.25.25-.25c5.26,0,9.64-3.94,10.19-9.17.01-.14.13-.24.27-.22.14.01.24.14.22.28-.58,5.48-5.17,9.62-10.69,9.62Z"/>
        <path class="cls-4" d="m408.75,804.85c-.14,0-.25-.11-.25-.25s.11-.25.25-.25c6.24,0,11.44-4.68,12.09-10.88.01-.14.13-.24.27-.22.14.01.24.14.22.28-.68,6.46-6.09,11.33-12.59,11.33Z"/>
        <path class="cls-4" d="m408.79,803.01h-5.94c-.14,0-.25-.11-.25-.25s.11-.25.25-.25h5.94c.14,0,.25.11.25.25s-.11.25-.25.25Z"/>
        <path class="cls-4" d="m408.79,804.92h-5.94c-.14,0-.25-.11-.25-.25s.11-.25.25-.25h5.94c.14,0,.25.11.25.25s-.11.25-.25.25Z"/>
        <path class="cls-4" d="m402.81,802.94c-5.52,0-10.11-4.14-10.69-9.62-.01-.14.08-.26.22-.28.14-.02.26.09.27.22.55,5.23,4.93,9.17,10.19,9.17.14,0,.25.11.25.25s-.11.25-.25.25Z"/>
        <path class="cls-4" d="m402.81,804.85c-6.5,0-11.91-4.87-12.59-11.33-.01-.14.08-.26.22-.28.14-.01.26.09.27.22.65,6.21,5.85,10.88,12.09,10.88.14,0,.25.11.25.25s-.11.25-.25.25Z"/>
        <path class="cls-4" d="m410.56,773.32c-.13,0-.24-.1-.25-.23l-.07-.92-.2-.78-.41-.75-.54-.67c-.09-.11-.07-.27.04-.35.11-.09.27-.07.35.04l.57.71.45.81s.02.04.02.06l.21.85.08.96c.01.14-.09.26-.23.27,0,0-.01,0-.02,0Z"/>
        <path class="cls-4" d="m408.15,769.22s-.09-.01-.13-.04l-.35-.21-.78-.32-.88-.07h-.85s-.31.12-.31.12c-.13.05-.27-.01-.32-.14-.05-.13.01-.27.14-.33l.35-.14s.06-.02.09-.02h.92l.94.07s.05,0,.08.02l.85.35.39.23c.12.07.16.22.09.34-.05.08-.13.12-.21.12Z"/>
        <path class="cls-4" d="m401.22,771.91s-.07,0-.1-.02c-.13-.06-.18-.21-.12-.33l.35-.78.51-.81.67-.68.74-.52c.11-.08.27-.05.35.06.08.11.05.27-.06.35l-.71.5-.6.61-.46.73-.34.75c-.04.09-.13.15-.23.15Z"/>
        <path class="cls-4" d="m402.35,776.57c-.06,0-.13-.02-.18-.07l-.28-.28-.53-.82-.37-.89-.16-.98v-.46c0-.14.11-.25.25-.25s.25.11.25.25v.42l.14.88.34.79.47.74.25.24c.1.1.1.26,0,.35-.05.05-.11.07-.18.07Z"/>
        <path class="cls-4" d="m405.11,778.06l-.91-.22-.82-.37c-.13-.06-.18-.21-.12-.33.06-.12.21-.18.33-.12l.78.35.81.2h.86s.83-.08.83-.08c.13-.02.26.09.27.23.01.14-.09.26-.23.27l-.85.07h-.94Z"/>
        <path class="cls-4" d="m408.22,777.42c-.08,0-.17-.04-.21-.12-.07-.12-.03-.27.09-.34l.35-.21.68-.55.53-.67.38-.77.06-.39c.02-.14.15-.23.29-.21.14.02.23.15.21.29l-.07.42s-.01.05-.02.07l-.42.85-.59.75-.75.6-.38.23s-.08.04-.13.04Z"/>
        <path class="cls-4" d="m513.27,782.44h-10.75c-.09,0-.17-.05-.22-.13s-.04-.17,0-.25l5.37-9.05c.04-.08.13-.12.21-.12h0c.09,0,.17.05.21.12l5.37,9.05c.05.08.05.17,0,.25s-.13.13-.22.13Zm-10.31-.5h9.87l-4.93-8.31-4.93,8.31Z"/>
        <path class="cls-4" d="m464.99,892.65h-4.81c-.14,0-.25-.11-.25-.25s.11-.25.25-.25h4.81c.14,0,.25.11.25.25s-.11.25-.25.25Z"/>
        <path class="cls-4" d="m460.18,740.03h-204.16c-.14,0-.25-.11-.25-.25s.11-.25.25-.25h204.16c.14,0,.25.11.25.25s-.11.25-.25.25Z"/>
        <path class="cls-4" d="m246.48,740.03c-.14,0-.25-.11-.25-.25v-9.54c0-.14.11-.25.25-.25h223.25c.14,0,.25.11.25.25s-.11.25-.25.25h-223v9.29c0,.14-.11.25-.25.25Z"/>
        <path class="cls-4" d="m256.02,892.65c-.14,0-.25-.11-.25-.25v-5.48h-9.04v5.48c0,.14-.11.25-.25.25s-.25-.11-.25-.25v-5.73c0-.14.11-.25.25-.25h9.54c.14,0,.25.11.25.25v5.73c0,.14-.11.25-.25.25Z"/>
        <path class="cls-4" d="m256.02,822.1h-9.54c-.14,0-.25-.11-.25-.25v-5.73c0-.14.11-.25.25-.25s.25.11.25.25v5.48h9.04v-5.48c0-.14.11-.25.25-.25s.25.11.25.25v5.73c0,.14-.11.25-.25.25Z"/>
        <path class="cls-4" d="m253.12,886.93c-.14,0-.25-.11-.25-.25v-64.83c0-.14.11-.25.25-.25s.25.11.25.25v64.83c0,.14-.11.25-.25.25Z"/>
        <path class="cls-4" d="m246.48,886.93c-.14,0-.25-.11-.25-.25v-64.83c0-.14.11-.25.25-.25s.25.11.25.25v64.83c0,.14-.11.25-.25.25Z"/>
        <path class="cls-4" d="m320.92,886.93h-64.9c-.14,0-.25-.11-.25-.25v-2.83c0-.14.11-.25.25-.25h64.9c.14,0,.25.11.25.25v2.83c0,.14-.11.25-.25.25Zm-64.65-.5h64.4v-2.33h-64.4v2.33Z"/>
        <path class="cls-4" d="m320.85,886.89c-.14,0-.25-.11-.25-.25,0-35.63-28.98-64.61-64.61-64.61-.14,0-.25-.11-.25-.25s.11-.25.25-.25c35.9,0,65.11,29.21,65.11,65.11,0,.14-.11.25-.25.25Z"/>
        <path class="cls-4" d="m64.23,348.74c-.14,0-.25-.11-.25-.25v-1.84c0-.14.11-.25.25-.25s.25.11.25.25v1.84c0,.14-.11.25-.25.25Z"/>
        <path class="cls-4" d="m64.51,348.95c-.14,0-.25-.11-.25-.25v-2.26c0-.14.11-.25.25-.25s.25.11.25.25v2.26c0,.14-.11.25-.25.25Z"/>
        <path class="cls-4" d="m64.23,348.74h-.71c-.14,0-.25-.11-.25-.25s.11-.25.25-.25h.71c.14,0,.25.11.25.25s-.11.25-.25.25Z"/>
        <path class="cls-4" d="m64.23,346.9h-.71c-.14,0-.25-.11-.25-.25s.11-.25.25-.25h.71c.14,0,.25.11.25.25s-.11.25-.25.25Z"/>
        <path class="cls-4" d="m64.51,348.95c-.05,0-.1-.02-.15-.05l-.28-.21c-.11-.08-.13-.24-.05-.35.08-.11.24-.13.35-.05l.28.21c.11.08.13.24.05.35-.05.06-.12.1-.2.1Z"/>
        <path class="cls-4" d="m64.23,346.9c-.08,0-.15-.03-.2-.1-.08-.11-.06-.27.05-.35l.28-.21c.11-.08.27-.06.35.05.08.11.06.27-.05.35l-.28.21s-.1.05-.15.05Z"/>
        <path class="cls-4" d="m63.52,348.74c-.14,0-.25-.11-.25-.25v-1.84c0-.14.11-.25.25-.25s.25.11.25.25v1.84c0,.14-.11.25-.25.25Z"/>
        <path class="cls-4" d="m63.52,348.6h-1.2c-.14,0-.25-.11-.25-.25s.11-.25.25-.25h1.2c.14,0,.25.11.25.25s-.11.25-.25.25Z"/>
        <path class="cls-4" d="m63.52,347.04h-1.2c-.14,0-.25-.11-.25-.25s.11-.25.25-.25h1.2c.14,0,.25.11.25.25s-.11.25-.25.25Z"/>
        <path class="cls-4" d="m65.22,348.95h-.71c-.14,0-.25-.11-.25-.25s.11-.25.25-.25h.71c.14,0,.25.11.25.25s-.11.25-.25.25Z"/>
        <path class="cls-4" d="m65.22,346.69h-.71c-.14,0-.25-.11-.25-.25s.11-.25.25-.25h.71c.14,0,.25.11.25.25s-.11.25-.25.25Z"/>
        <path class="cls-4" d="m71.51,347.82h-.78c-.14,0-.25-.11-.25-.25s.11-.25.25-.25h.78c.14,0,.25.11.25.25s-.11.25-.25.25Z"/>
        <path class="cls-4" d="m78.44,347.82h-6.22c-.14,0-.25-.11-.25-.25s.11-.25.25-.25h6.22c.14,0,.25.11.25.25s-.11.25-.25.25Z"/>
        <path class="cls-4" d="m73.35,355.31h-3.39c-.14,0-.25-.11-.25-.25s.11-.25.25-.25h3.39c.14,0,.25.11.25.25s-.11.25-.25.25Z"/>
        <path class="cls-4" d="m73.35,340.54h-3.39c-.14,0-.25-.11-.25-.25s.11-.25.25-.25h3.39c.14,0,.25.11.25.25s-.11.25-.25.25Z"/>
        <path class="cls-4" d="m69.95,355.31c-.14,0-.25-.11-.25-.25v-4.52c0-.14.11-.25.25-.25s.25.11.25.25v4.52c0,.14-.11.25-.25.25Z"/>
        <path class="cls-4" d="m73.35,355.31c-.14,0-.25-.11-.25-.25v-4.1c0-.14.11-.25.25-.25s.25.11.25.25v4.1c0,.14-.11.25-.25.25Z"/>
        <path class="cls-4" d="m73.35,344.78h-3.39c-.14,0-.25-.11-.25-.25s.11-.25.25-.25h3.39c.14,0,.25.11.25.25s-.11.25-.25.25Z"/>
        <path class="cls-4" d="m73.35,351.21h-3.39c-.14,0-.25-.11-.25-.25s.11-.25.25-.25h3.39c.14,0,.25.11.25.25s-.11.25-.25.25Z"/>
        <path class="cls-4" d="m69.03,349.8h-.01l-3.32-.14c-.14,0-.25-.12-.24-.26,0-.14.1-.24.26-.24l3.32.14c.14,0,.25.12.24.26,0,.13-.12.24-.25.24Z"/>
        <path class="cls-4" d="m65.71,345.98c-.14,0-.25-.11-.25-.24,0-.14.11-.25.24-.26l3.32-.07h0c.14,0,.25.11.25.24,0,.14-.11.25-.24.26l-3.32.07h0Z"/>
        <path class="cls-4" d="m74.9,345.48h-.92c-.14,0-.25-.11-.25-.25s.11-.25.25-.25h.92c.14,0,.25.11.25.25s-.11.25-.25.25Z"/>
        <path class="cls-4" d="m75.54,349.87c-.14,0-.25-.11-.25-.25v-3.68c0-.14.11-.25.25-.25s.25.11.25.25v3.68c0,.14-.11.25-.25.25Z"/>
        <path class="cls-4" d="m74.9,350.5h-.92c-.14,0-.25-.11-.25-.25s.11-.25.25-.25h.92c.14,0,.25.11.25.25s-.11.25-.25.25Z"/>
        <path class="cls-4" d="m65.32,349.39c-.11,0-.21-.07-.24-.18-.33-1.08-.34-2.22-.02-3.3.04-.13.18-.21.31-.17.13.04.21.18.17.31-.29.99-.29,2.03.02,3.01.04.13-.03.27-.16.31-.02,0-.05.01-.07.01Z"/>
        <path class="cls-4" d="m73.98,348.31c-.14,0-.25-.11-.25-.25v-.99c0-.14.11-.25.25-.25s.25.11.25.25v.99c0,.14-.11.25-.25.25Z"/>
        <path class="cls-4" d="m74.34,348.45c-.14,0-.25-.11-.25-.25v-1.27c0-.14.11-.25.25-.25s.25.11.25.25v1.27c0,.14-.11.25-.25.25Z"/>
        <path class="cls-4" d="m74.69,348.45h-.35s-.06,0-.09-.02l-.35-.14c-.13-.05-.19-.2-.14-.33.05-.13.2-.19.33-.14l.36.12v-.77h-.1c-.14,0-.25-.11-.25-.25s.11-.25.25-.25h.35c.14,0,.25.11.25.25v1.27c0,.14-.11.25-.25.25Z"/>
        <path class="cls-4" d="m74.69,348.45c-.11,0-.21-.08-.24-.19-.03-.13.05-.27.18-.3l1.41-.35c.13-.04.27.05.3.18.03.13-.05.27-.18.3l-1.41.35s-.04,0-.06,0Z"/>
        <path class="cls-4" d="m76.1,347.61s-.05,0-.07-.01l-1.41-.42c-.13-.04-.21-.18-.17-.31.04-.13.18-.21.31-.17l1.41.42c.13.04.21.18.17.31-.03.11-.13.18-.24.18Z"/>
        <path class="cls-4" d="m73.98,347.32c-.1,0-.19-.06-.23-.16-.05-.13.01-.27.14-.32l.35-.14c.13-.05.27.01.32.14.05.13-.01.27-.14.32l-.35.14s-.06.02-.09.02Z"/>
        <path class="cls-4" d="m65.66,349.66h0c-.27-.01-.51-.19-.59-.45-.04-.13.03-.27.17-.31.13-.04.27.03.31.17.02.06.07.1.13.1.14,0,.25.12.24.26,0,.13-.12.24-.25.24Z"/>
        <path class="cls-4" d="m65.3,346.26s-.05,0-.07-.01c-.13-.04-.21-.18-.17-.31.08-.27.32-.45.6-.46.15,0,.25.11.26.24,0,.14-.11.25-.24.26-.06,0-.11.04-.13.1-.03.11-.13.18-.24.18Z"/>
        <path class="cls-4" d="m75.54,346.16c-.14,0-.25-.11-.25-.25,0-.23-.19-.42-.42-.42-.14,0-.25-.11-.25-.25s.11-.25.25-.25c.51,0,.92.41.92.92,0,.14-.11.25-.25.25Z"/>
        <path class="cls-4" d="m73.35,344.85c-.14,0-.25-.11-.25-.25v-4.31c0-.14.11-.25.25-.25s.25.11.25.25v4.31c0,.14-.11.25-.25.25Z"/>
        <path class="cls-4" d="m73.95,345.48c-.51,0-.92-.41-.92-.92,0-.14.11-.25.25-.25s.25.11.25.25c0,.23.19.42.42.42.14,0,.25.11.25.25s-.11.25-.25.25Z"/>
        <path class="cls-4" d="m73.21,345.84h-2.33c-.14,0-.25-.11-.25-.25s.11-.25.25-.25h2.33c.14,0,.25.11.25.25s-.11.25-.25.25Z"/>
        <path class="cls-4" d="m68.95,345.91c-.14,0-.25-.11-.25-.24,0-.14.11-.25.24-.26.39,0,.69-.32.69-.7,0-.14.11-.25.25-.25s.25.11.25.25c0,.66-.52,1.19-1.18,1.2h0Z"/>
        <path class="cls-4" d="m69.03,345.91c-.13,0-.24-.11-.25-.24,0-.14.1-.25.24-.26l1.84-.07h0c.13,0,.24.11.25.24,0,.14-.1.25-.24.26l-1.84.07h0Z"/>
        <path class="cls-4" d="m74.87,350.5c-.14,0-.25-.11-.25-.25s.11-.25.25-.25c.23,0,.42-.19.42-.42,0-.14.11-.25.25-.25s.25.11.25.25c0,.51-.41.92-.92.92Z"/>
        <path class="cls-4" d="m73.28,351.18c-.14,0-.25-.11-.25-.25,0-.51.41-.92.92-.92.14,0,.25.11.25.25s-.11.25-.25.25c-.23,0-.42.19-.42.42,0,.14-.11.25-.25.25Z"/>
        <path class="cls-4" d="m69.88,350.75c-.14,0-.25-.11-.25-.25,0-.38-.3-.69-.68-.7-.14,0-.25-.12-.24-.26,0-.14.13-.23.26-.24.65.02,1.16.55,1.16,1.2,0,.14-.11.25-.25.25Z"/>
        <path class="cls-4" d="m72.07,349.94s0,0-.01,0l-3.04-.14c-.14,0-.24-.12-.24-.26,0-.14.12-.25.26-.24l3.04.14c.14,0,.24.12.24.26,0,.13-.12.24-.25.24Z"/>
        <path class="cls-4" d="m69.95,344.99c-.14,0-.25-.11-.25-.25v-4.45c0-.14.11-.25.25-.25s.25.11.25.25v4.45c0,.14-.11.25-.25.25Z"/>
        <path class="cls-4" d="m114.77,376.45h-52.45c-.14,0-.25-.11-.25-.25v-57.26c0-.14.11-.25.25-.25h52.45c.14,0,.25.11.25.25v57.26c0,.14-.11.25-.25.25Zm-52.2-.5h51.95v-56.76h-51.95v56.76Z"/>
        <path class="cls-4" d="m110.96,365.99c-.14,0-.25-.11-.25-.25v-36.27c0-.14.11-.25.25-.25s.25.11.25.25v36.27c0,.14-.11.25-.25.25Z"/>
        <path class="cls-4" d="m110.96,329.68c-.14,0-.25-.11-.25-.25,0-1.44-1.17-2.61-2.61-2.61-.14,0-.25-.11-.25-.25s.11-.25.25-.25c1.72,0,3.11,1.4,3.11,3.11,0,.14-.11.25-.25.25Z"/>
        <path class="cls-4" d="m108.13,368.81h-35.35c-.14,0-.25-.11-.25-.25s.11-.25.25-.25h35.35c.14,0,.25.11.25.25s-.11.25-.25.25Z"/>
        <path class="cls-4" d="m108.09,368.81c-.14,0-.25-.11-.25-.25s.11-.25.25-.25c1.44,0,2.61-1.17,2.61-2.61,0-.14.11-.25.25-.25s.25.11.25.25c0,1.72-1.4,3.11-3.11,3.11Z"/>
        <path class="cls-4" d="m67.06,376.45c-.14,0-.25-.11-.25-.25v-57.26c0-.14.11-.25.25-.25s.25.11.25.25v57.26c0,.14-.11.25-.25.25Z"/>
        <path class="cls-4" d="m69.95,365.99c-.14,0-.25-.11-.25-.25v-36.27c0-.14.11-.25.25-.25s.25.11.25.25v36.27c0,.14-.11.25-.25.25Z"/>
        <path class="cls-4" d="m72.75,368.81c-1.72,0-3.11-1.4-3.11-3.11,0-.14.11-.25.25-.25s.25.11.25.25c0,1.44,1.17,2.61,2.61,2.61.14,0,.25.11.25.25s-.11.25-.25.25Z"/>
        <path class="cls-4" d="m69.88,329.68c-.14,0-.25-.11-.25-.25,0-1.72,1.4-3.11,3.11-3.11.14,0,.25.11.25.25s-.11.25-.25.25c-1.44,0-2.61,1.17-2.61,2.61,0,.14-.11.25-.25.25Z"/>
        <path class="cls-4" d="m108.13,326.82h-35.35c-.14,0-.25-.11-.25-.25s.11-.25.25-.25h35.35c.14,0,.25.11.25.25s-.11.25-.25.25Z"/>
        <path class="cls-4" d="m62.32,348.6c-.14,0-.25-.11-.25-.25v-1.56c0-.14.11-.25.25-.25s.25.11.25.25v1.56c0,.14-.11.25-.25.25Z"/>
        <path class="cls-4" d="m90.42,351.56c-2.22,0-4.03-1.81-4.03-4.03s1.81-4.03,4.03-4.03,4.03,1.81,4.03,4.03-1.81,4.03-4.03,4.03Zm0-7.56c-1.95,0-3.53,1.58-3.53,3.53s1.58,3.53,3.53,3.53,3.53-1.58,3.53-3.53-1.58-3.53-3.53-3.53Z"/>
        <path class="cls-4" d="m114.77,266.73h-47.72c-.14,0-.25-.11-.25-.25v-71.54c0-.14.11-.25.25-.25h47.72c.14,0,.25.11.25.25v71.54c0,.14-.11.25-.25.25Zm-47.47-.5h47.22v-71.04h-47.22v71.04Z"/>
        <path class="cls-4" d="m113.85,265.74h-45.81c-.14,0-.25-.11-.25-.25v-69.63c0-.14.11-.25.25-.25h45.81c.14,0,.25.11.25.25v69.63c0,.14-.11.25-.25.25Zm-45.56-.5h45.31v-69.13h-45.31v69.13Z"/>
        <path class="cls-4" d="m119.58,381.26h-57.26c-.14,0-.25-.11-.25-.25v-200.42c0-.14.11-.25.25-.25h57.26c.14,0,.25.11.25.25v200.42c0,.14-.11.25-.25.25Zm-57.01-.5h56.76v-199.92h-56.76v199.92Z"/>
        <path class="cls-4" d="m88.51,223.26c-5.38,0-9.76-4.38-9.76-9.76s4.38-9.76,9.76-9.76,9.76,4.38,9.76,9.76-4.38,9.76-9.76,9.76Zm0-19.02c-5.1,0-9.26,4.15-9.26,9.26s4.15,9.26,9.26,9.26,9.26-4.15,9.26-9.26-4.15-9.26-9.26-9.26Z"/>
        <path class="cls-4" d="m88.51,257.61c-5.38,0-9.76-4.38-9.76-9.76s4.38-9.76,9.76-9.76,9.76,4.38,9.76,9.76-4.38,9.76-9.76,9.76Zm0-19.02c-5.1,0-9.26,4.15-9.26,9.26s4.15,9.26,9.26,9.26,9.26-4.15,9.26-9.26-4.15-9.26-9.26-9.26Z"/>
        <path class="cls-4" d="m88.55,249.62c-.14,0-.25-.11-.25-.25v-2.97c0-.14.11-.25.25-.25s.25.11.25.25v2.97c0,.14-.11.25-.25.25Z"/>
        <path class="cls-4" d="m90.03,248.14h-2.97c-.14,0-.25-.11-.25-.25s.11-.25.25-.25h2.97c.14,0,.25.11.25.25s-.11.25-.25.25Z"/>
        <path class="cls-4" d="m88.55,215.27c-.14,0-.25-.11-.25-.25v-2.97c0-.14.11-.25.25-.25s.25.11.25.25v2.97c0,.14-.11.25-.25.25Z"/>
        <path class="cls-4" d="m90.03,213.78h-2.97c-.14,0-.25-.11-.25-.25s.11-.25.25-.25h2.97c.14,0,.25.11.25.25s-.11.25-.25.25Z"/>
        <path class="cls-4" d="m464.99,838.29h-4.81c-.14,0-.25-.11-.25-.25v-2.83c0-.14.11-.25.25-.25s.25.11.25.25v2.58h4.31v-2.58c0-.14.11-.25.25-.25s.25.11.25.25v2.83c0,.14-.11.25-.25.25Z"/>
        <path class="cls-4" d="m462.94,887.77c-.06,0-.13-.02-.18-.07-.1-.1-.1-.26,0-.35l36.41-36.41c.1-.1.26-.1.35,0s.1.26,0,.35l-36.41,36.41s-.11.07-.18.07Z"/>
        <path class="cls-4" d="m464.99,889.83c-.06,0-.13-.02-.18-.07-.1-.1-.1-.26,0-.35l36.41-36.41c.1-.1.26-.1.35,0s.1.26,0,.35l-36.41,36.41s-.11.07-.18.07Z"/>
        <path class="cls-4" d="m464.99,892.65c-.14,0-.25-.11-.25-.25v-2.58h-4.31v2.58c0,.14-.11.25-.25.25s-.25-.11-.25-.25v-2.83c0-.14.11-.25.25-.25h4.81c.14,0,.25.11.25.25v2.83c0,.14-.11.25-.25.25Z"/>
        <path class="cls-4" d="m464.99,889.83c-.06,0-.13-.02-.18-.07l-2.05-2.05c-.1-.1-.1-.26,0-.35s.26-.1.35,0l2.05,2.05c.1.1.1.26,0,.35-.05.05-.11.07-.18.07Z"/>
        <path class="cls-4" d="m501.37,853.37c-.06,0-.13-.02-.18-.07-9.68-9.68-22.55-15.01-36.24-15.01-.14,0-.25-.11-.25-.25s.11-.25.25-.25c13.82,0,26.82,5.38,36.59,15.16.1.1.1.26,0,.35-.05.05-.11.07-.18.07Z"/>
        <path class="cls-4" d="m256.02,892.65h-9.54c-.14,0-.25-.11-.25-.25v-152.63c0-.14.11-.25.25-.25s.25.11.25.25v152.38h9.29c.14,0,.25.11.25.25s-.11.25-.25.25Z"/>
        <path class="cls-4" d="m256.02,822.1c-.14,0-.25-.11-.25-.25v-82.08c0-.14.11-.25.25-.25s.25.11.25.25v82.08c0,.14-.11.25-.25.25Z"/>
        <path class="cls-4" d="m256.02,816.37h-9.54c-.14,0-.25-.11-.25-.25s.11-.25.25-.25h9.54c.14,0,.25.11.25.25s-.11.25-.25.25Z"/>
        <path class="cls-4" d="m569.9,425.09c-.14,0-.25-.11-.25-.25v-57.19c0-.14.11-.25.25-.25s.25.11.25.25v57.19c0,.14-.11.25-.25.25Z"/>
        <path class="cls-4" d="m555.62,444.17h-208.97c-.14,0-.25-.11-.25-.25v-57.19c0-.14.11-.25.25-.25h208.97c.14,0,.25.11.25.25v57.19c0,.14-.11.25-.25.25Zm-208.72-.5h208.47v-56.69h-208.47v56.69Z"/>
        <path class="cls-4" d="m552.79,441.35h-203.24c-.14,0-.25-.11-.25-.25v-51.54c0-.14.11-.25.25-.25h203.24c.14,0,.25.11.25.25v51.54c0,.14-.11.25-.25.25Zm-202.99-.5h202.74v-51.04h-202.74v51.04Z"/>
        <path class="cls-4" d="m552.79,416.53h-203.24c-.14,0-.25-.11-.25-.25s.11-.25.25-.25h203.24c.14,0,.25.11.25.25s-.11.25-.25.25Z"/>
        <path class="cls-4" d="m552.79,414.62h-203.24c-.14,0-.25-.11-.25-.25s.11-.25.25-.25h203.24c.14,0,.25.11.25.25s-.11.25-.25.25Z"/>
        <path class="cls-4" d="m332.37,644.59h-4.81c-.14,0-.25-.11-.25-.25v-114.52c0-.14.11-.25.25-.25h4.81c.14,0,.25.11.25.25v114.52c0,.14-.11.25-.25.25Zm-4.56-.5h4.31v-114.02h-4.31v114.02Z"/>
        <path class="cls-4" d="m337.1,635.05h-4.74c-.14,0-.25-.11-.25-.25s.11-.25.25-.25h4.49v-94.94h-4.49c-.14,0-.25-.11-.25-.25s.11-.25.25-.25h4.74c.14,0,.25.11.25.25v95.44c0,.14-.11.25-.25.25Z"/>
        <path class="cls-4" d="m327.56,532.96h-1.91c-.14,0-.25-.11-.25-.25s.11-.25.25-.25h1.91c.14,0,.25.11.25.25s-.11.25-.25.25Z"/>
        <path class="cls-4" d="m327.56,641.76h-1.91c-.14,0-.25-.11-.25-.25v-108.8c0-.14.11-.25.25-.25s.25.11.25.25v108.55h1.66c.14,0,.25.11.25.25s-.11.25-.25.25Z"/>
        <path class="cls-4" d="m332.02,242.77c-.1,0-.2-.06-.23-.16-.05-.13.02-.27.15-.32l4.93-1.85v-48.15l-4.92-1.78c-.13-.05-.2-.19-.15-.32.05-.13.19-.19.32-.15l5.09,1.84c.1.04.17.13.17.24v48.5c0,.1-.06.2-.16.23l-5.09,1.91s-.06.02-.09.02Z"/>
        <path class="cls-4" d="m332.02,252.38h-66.45c-.14,0-.25-.11-.25-.25v-71.54c0-.14.11-.25.25-.25h66.45c.14,0,.25.11.25.25v71.54c0,.14-.11.25-.25.25Zm-66.2-.5h65.95v-71.04h-65.95v71.04Z"/>
        <path class="cls-4" d="m269.38,252.38c-.14,0-.25-.11-.25-.25v-71.54c0-.14.11-.25.25-.25s.25.11.25.25v71.54c0,.14-.11.25-.25.25Z"/>
        <path class="cls-4" d="m555.62,258.11h-181.33c-.14,0-.25-.11-.25-.25V114.77c0-.14.11-.25.25-.25h181.33c.14,0,.25.11.25.25v143.08c0,.14-.11.25-.25.25Zm-181.08-.5h180.83V115.02h-180.83v142.58Z"/>
        <path class="cls-4" d="m522.25,258.11c-.14,0-.25-.11-.25-.25V114.77c0-.14.11-.25.25-.25s.25.11.25.25v143.08c0,.14-.11.25-.25.25Z"/>
        <path class="cls-4" d="m512.71,258.11c-.14,0-.25-.11-.25-.25v-32.09l-20.36-110.94c-.02-.14.06-.27.2-.29.13-.02.27.07.29.2l20.36,110.99v32.14c0,.14-.11.25-.25.25Z"/>
        <path class="cls-4" d="m547.98,181.83h-25.73c-.14,0-.25-.11-.25-.25v-59.17c0-.14.11-.25.25-.25h25.73c.14,0,.25.11.25.25v59.17c0,.14-.11.25-.25.25Zm-25.48-.5h25.23v-58.67h-25.23v58.67Z"/>
        <path class="cls-4" d="m547.98,250.47h-25.73c-.14,0-.25-.11-.25-.25v-59.1c0-.14.11-.25.25-.25h25.73c.14,0,.25.11.25.25v59.1c0,.14-.11.25-.25.25Zm-25.48-.5h25.23v-58.6h-25.23v58.6Z"/>
        <path class="cls-4" d="m555.62,386.98h-47.72c-.14,0-.25-.11-.25-.25v-85.89c0-.14.11-.25.25-.25h47.72c.14,0,.25.11.25.25v85.89c0,.14-.11.25-.25.25Zm-47.47-.5h47.22v-85.39h-47.22v85.39Z"/>
        <path class="cls-4" d="m507.9,365.49h-28.63c-.14,0-.25-.11-.25-.25v-42.98c0-.14.11-.25.25-.25h28.63c.14,0,.25.11.25.25v42.98c0,.14-.11.25-.25.25Zm-28.38-.5h28.13v-42.48h-28.13v42.48Z"/>
        <path class="cls-4" d="m484.08,365.49c-.14,0-.25-.11-.25-.25v-42.98c0-.14.11-.25.25-.25s.25.11.25.25v42.98c0,.14-.11.25-.25.25Z"/>
        <path class="cls-4" d="m534.13,294.51c-.14,0-.25-.11-.25-.25v-29.76c0-.14.11-.25.25-.25s.25.11.25.25v29.76c0,.14-.11.25-.25.25Z"/>
        <path class="cls-4" d="m534.09,292.18c-7.1,0-12.87-5.77-12.87-12.87s5.77-12.87,12.87-12.87,12.87,5.77,12.87,12.87-5.77,12.87-12.87,12.87Zm0-25.24c-6.82,0-12.37,5.55-12.37,12.37s5.55,12.37,12.37,12.37,12.37-5.55,12.37-12.37-5.55-12.37-12.37-12.37Z"/>
        <path class="cls-4" d="m534.09,287.59c-4.56,0-8.27-3.71-8.27-8.27s3.71-8.27,8.27-8.27,8.27,3.71,8.27,8.27-3.71,8.27-8.27,8.27Zm0-16.05c-4.29,0-7.77,3.49-7.77,7.77s3.49,7.77,7.77,7.77,7.77-3.49,7.77-7.77-3.49-7.77-7.77-7.77Z"/>
        <path class="cls-4" d="m549.04,279.6h-29.76c-.14,0-.25-.11-.25-.25s.11-.25.25-.25h29.76c.14,0,.25.11.25.25s-.11.25-.25.25Z"/>
        <path class="cls-4" d="m555.62,301.09h-42.91c-.14,0-.25-.11-.25-.25v-42.98c0-.14.11-.25.25-.25h42.91c.14,0,.25.11.25.25v42.98c0,.14-.11.25-.25.25Zm-42.66-.5h42.41v-42.48h-42.41v42.48Z"/>
        <path class="cls-4" d="m555.62,730.48h-128.1c-.14,0-.25-.11-.25-.25v-57.26c0-.14.11-.25.25-.25h128.1c.14,0,.25.11.25.25v57.26c0,.14-.11.25-.25.25Zm-127.85-.5h127.6v-56.76h-127.6v56.76Z"/>
        <path class="cls-4" d="m552.79,727.58h-121.73c-.14,0-.25-.11-.25-.25v-51.54c0-.14.11-.25.25-.25h121.73c.14,0,.25.11.25.25v51.54c0,.14-.11.25-.25.25Zm-121.48-.5h121.23v-51.04h-121.23v51.04Z"/>
        <path class="cls-4" d="m552.79,702.77h-121.73c-.14,0-.25-.11-.25-.25s.11-.25.25-.25h121.73c.14,0,.25.11.25.25s-.11.25-.25.25Z"/>
        <path class="cls-4" d="m552.79,700.86h-121.73c-.14,0-.25-.11-.25-.25s.11-.25.25-.25h121.73c.14,0,.25.11.25.25s-.11.25-.25.25Z"/>
        <path class="cls-4" d="m555.62,596.87h-181.33c-.14,0-.25-.11-.25-.25v-143.16c0-.14.11-.25.25-.25h181.33c.14,0,.25.11.25.25v143.16c0,.14-.11.25-.25.25Zm-181.08-.5h180.83v-142.66h-180.83v142.66Z"/>
        <path class="cls-4" d="m522.25,596.87c-.14,0-.25-.11-.25-.25v-143.16c0-.14.11-.25.25-.25s.25.11.25.25v143.16c0,.14-.11.25-.25.25Z"/>
        <path class="cls-4" d="m512.71,596.87c-.14,0-.25-.11-.25-.25v-32.1l-20.36-111.01c-.02-.14.07-.27.2-.29.13-.03.27.06.29.2l20.36,111.06v32.14c0,.14-.11.25-.25.25Z"/>
        <path class="cls-4" d="m547.98,520.52h-25.73c-.14,0-.25-.11-.25-.25v-59.17c0-.14.11-.25.25-.25h25.73c.14,0,.25.11.25.25v59.17c0,.14-.11.25-.25.25Zm-25.48-.5h25.23v-58.67h-25.23v58.67Z"/>
        <path class="cls-4" d="m547.98,589.24h-25.73c-.14,0-.25-.11-.25-.25v-59.17c0-.14.11-.25.25-.25h25.73c.14,0,.25.11.25.25v59.17c0,.14-.11.25-.25.25Zm-25.48-.5h25.23v-58.67h-25.23v58.67Z"/>
        <path class="cls-4" d="m555.62,673.22h-47.72c-.14,0-.25-.11-.25-.25v-76.35c0-.14.11-.25.25-.25h47.72c.14,0,.25.11.25.25v76.35c0,.14-.11.25-.25.25Zm-47.47-.5h47.22v-75.85h-47.22v75.85Z"/>
        <path class="cls-4" d="m531.76,629.11c-7.1,0-12.87-5.77-12.87-12.87s5.77-12.87,12.87-12.87,12.87,5.77,12.87,12.87-5.77,12.87-12.87,12.87Zm0-25.24c-6.82,0-12.37,5.55-12.37,12.37s5.55,12.37,12.37,12.37,12.37-5.55,12.37-12.37-5.55-12.37-12.37-12.37Z"/>
        <path class="cls-4" d="m531.76,624.51c-4.56,0-8.27-3.71-8.27-8.27s3.71-8.27,8.27-8.27,8.27,3.71,8.27,8.27-3.71,8.27-8.27,8.27Zm0-16.05c-4.29,0-7.77,3.49-7.77,7.77s3.49,7.77,7.77,7.77,7.77-3.49,7.77-7.77-3.49-7.77-7.77-7.77Z"/>
        <path class="cls-4" d="m507.9,656.54h-28.63c-.14,0-.25-.11-.25-.25v-42.98c0-.14.11-.25.25-.25h28.63c.14,0,.25.11.25.25v42.98c0,.14-.11.25-.25.25Zm-28.38-.5h28.13v-42.48h-28.13v42.48Z"/>
        <path class="cls-4" d="m484.08,656.54c-.14,0-.25-.11-.25-.25v-42.98c0-.14.11-.25.25-.25s.25.11.25.25v42.98c0,.14-.11.25-.25.25Z"/>
        <path class="cls-4" d="m531.79,640.98c-.14,0-.25-.11-.25-.25v-39.31c0-.14.11-.25.25-.25s.25.11.25.25v39.31c0,.14-.11.25-.25.25Z"/>
        <path class="cls-4" d="m546.64,616.52h-29.76c-.14,0-.25-.11-.25-.25s.11-.25.25-.25h29.76c.14,0,.25.11.25.25s-.11.25-.25.25Z"/>
        <path class="cls-4" d="m193.03,87.52h-85.89c-.14,0-.25-.11-.25-.25v-41.99c0-.14.11-.25.25-.25h85.89c.14,0,.25.11.25.25v41.99c0,.14-.11.25-.25.25Zm-85.64-.5h85.39v-41.49h-85.39v41.49Z"/>
        <path class="cls-4" d="m107.14,87.52c-.09,0-.18-.05-.22-.14-.06-.12,0-.27.11-.33l85.89-41.99c.12-.06.27,0,.33.11.06.12,0,.27-.11.33l-85.89,41.99s-.07.03-.11.03Z"/>
        <path class="cls-4" d="m116.61,74.52s-.05,0-.07-.01c-.13-.04-.21-.18-.17-.31l5.8-19.09c.03-.1.13-.18.24-.18h0c.11,0,.21.07.24.18l5.87,19.09c.04.13-.03.27-.17.31-.13.04-.27-.03-.31-.17l-5.63-18.31-5.56,18.3c-.03.11-.13.18-.24.18Z"/>
        <path class="cls-4" d="m126.08,68.15h-7.28c-.14,0-.25-.11-.25-.25s.11-.25.25-.25h7.28c.14,0,.25.11.25.25s-.11.25-.25.25Z"/>
        <path class="cls-4" d="m179.18,84.34h-2.9s-.09-.01-.13-.04l-1.48-.92s-.05-.04-.07-.06l-1.41-1.84s-.03-.04-.04-.06l-.71-1.84-.78-2.71s0-.05,0-.07v-4.6s0-.05,0-.07l.78-2.69.71-1.86s.02-.04.04-.06l1.41-1.84s.05-.05.07-.06l1.48-.85s.08-.03.12-.03h2.9s.09.01.12.03l1.48.85s.05.04.07.06l1.41,1.84s.02.04.03.05l.78,1.84c.05.13,0,.27-.13.33-.13.05-.27,0-.33-.13l-.77-1.81-1.36-1.77-1.38-.79h-2.77l-1.38.79-1.36,1.77-.69,1.8-.76,2.63v4.52l.77,2.65.69,1.78,1.36,1.77,1.39.86h2.76l1.39-.86,1.37-1.78.77-1.81c.05-.13.2-.18.33-.13.13.05.19.2.13.33l-.78,1.84s-.02.04-.03.05l-1.41,1.84s-.04.04-.07.06l-1.48.92s-.08.04-.13.04Z"/>
        <path class="cls-4" d="m536.96,719.95c-.14,0-.25-.11-.25-.25v-38.17c0-.14.11-.25.25-.25s.25.11.25.25v38.17c0,.14-.11.25-.25.25Z"/>
        <path class="cls-4" d="m527.55,719.95c-.14,0-.25-.11-.25-.25v-38.17c0-.14.11-.25.25-.25s.25.11.25.25v38.17c0,.14-.11.25-.25.25Z"/>
        <path class="cls-4" d="m491.85,719.95c-.14,0-.25-.11-.25-.25v-38.17c0-.14.11-.25.25-.25s.25.11.25.25v38.17c0,.14-.11.25-.25.25Z"/>
        <path class="cls-4" d="m479.91,719.95c-.14,0-.25-.11-.25-.25v-38.17c0-.14.11-.25.25-.25s.25.11.25.25v38.17c0,.14-.11.25-.25.25Z"/>
        <path class="cls-4" d="m446.33,719.95c-.14,0-.25-.11-.25-.25v-38.17c0-.14.11-.25.25-.25s.25.11.25.25v38.17c0,.14-.11.25-.25.25Z"/>
        <path class="cls-4" d="m507.12,719.88c-.13,0-.24-.1-.25-.23l-3.32-38.03c-.01-.14.09-.26.23-.27.14-.02.26.09.27.23l3.32,38.03c.01.14-.09.26-.23.27,0,0-.02,0-.02,0Z"/>
        <path class="cls-4" d="m459.12,719.88c-.13,0-.24-.1-.25-.23l-3.32-38.03c-.01-.14.09-.26.23-.27.14-.02.26.09.27.23l3.32,38.03c.01.14-.09.26-.23.27,0,0-.02,0-.02,0Z"/>
        <path class="cls-4" d="m535.97,433.71c-.14,0-.25-.11-.25-.25v-38.17c0-.14.11-.25.25-.25s.25.11.25.25v38.17c0,.14-.11.25-.25.25Z"/>
        <path class="cls-4" d="m526.56,433.71c-.14,0-.25-.11-.25-.25v-38.17c0-.14.11-.25.25-.25s.25.11.25.25v38.17c0,.14-.11.25-.25.25Z"/>
        <path class="cls-4" d="m490.86,433.71c-.14,0-.25-.11-.25-.25v-38.17c0-.14.11-.25.25-.25s.25.11.25.25v38.17c0,.14-.11.25-.25.25Z"/>
        <path class="cls-4" d="m478.92,433.71c-.14,0-.25-.11-.25-.25v-38.17c0-.14.11-.25.25-.25s.25.11.25.25v38.17c0,.14-.11.25-.25.25Z"/>
        <path class="cls-4" d="m445.34,433.71c-.14,0-.25-.11-.25-.25v-38.17c0-.14.11-.25.25-.25s.25.11.25.25v38.17c0,.14-.11.25-.25.25Z"/>
        <path class="cls-4" d="m436.43,433.71c-.14,0-.25-.11-.25-.25v-38.17c0-.14.11-.25.25-.25s.25.11.25.25v38.17c0,.14-.11.25-.25.25Z"/>
        <path class="cls-4" d="m506.13,433.64c-.13,0-.24-.1-.25-.23l-3.32-38.03c-.01-.14.09-.26.23-.27.14-.02.26.09.27.23l3.32,38.03c.01.14-.09.26-.23.27,0,0-.02,0-.02,0Z"/>
        <path class="cls-4" d="m458.13,433.64c-.13,0-.24-.1-.25-.23l-3.32-38.03c-.01-.14.09-.26.23-.27.14-.02.26.09.27.23l3.32,38.03c.01.14-.09.26-.23.27,0,0-.02,0-.02,0Z"/>
        <path class="cls-4" d="m407.73,433.64s-.01,0-.02,0c-.14-.01-.24-.13-.23-.27l3.32-38.03c.01-.14.13-.24.27-.23.14.01.24.13.23.27l-3.32,38.03c-.01.13-.12.23-.25.23Z"/>
        <path class="cls-4" d="m398.04,433.64s-.02,0-.02,0c-.14-.01-.24-.13-.23-.27l3.39-38.03c.01-.14.14-.24.27-.23.14.01.24.13.23.27l-3.39,38.03c-.01.13-.12.23-.25.23Z"/>
        <path class="cls-4" d="m378.11,433.71c-.14,0-.25-.11-.25-.25v-38.17c0-.14.11-.25.25-.25s.25.11.25.25v38.17c0,.14-.11.25-.25.25Z"/>
        <path class="cls-4" d="m368.71,433.71c-.14,0-.25-.11-.25-.25v-38.17c0-.14.11-.25.25-.25s.25.11.25.25v38.17c0,.14-.11.25-.25.25Z"/>
        <path class="cls-4" d="m208.76,651.66c-21.17,0-38.39-17.22-38.39-38.39s17.22-38.39,38.39-38.39,38.39,17.22,38.39,38.39-17.22,38.39-38.39,38.39Zm0-76.28c-20.89,0-37.89,17-37.89,37.89s17,37.89,37.89,37.89,37.89-17,37.89-37.89-17-37.89-37.89-37.89Z"/>
        <path class="cls-4" d="m148.14,711.4H62.32c-.14,0-.25-.11-.25-.25v-214.77c0-.14.11-.25.25-.25h85.82c.14,0,.25.11.25.25v214.77c0,.14-.11.25-.25.25Zm-85.57-.5h85.32v-214.27H62.57v214.27Z"/>
        <path class="cls-4" d="m148.14,697.04h-71.54c-.14,0-.25-.11-.25-.25v-186.07c0-.14.11-.25.25-.25s.25.11.25.25v185.82h71.29c.14,0,.25.11.25.25s-.11.25-.25.25Z"/>
        <path class="cls-4" d="m123.12,567.89s-.04,0-.06,0l-5.02-1.34c-.13-.04-.21-.17-.18-.31.04-.13.18-.21.31-.18l4.78,1.28,10.9-41.01-41.01-10.9-10.9,41.01,17.64,4.67c.13.04.21.17.18.31-.04.13-.17.21-.31.18l-17.89-4.74c-.06-.02-.12-.06-.15-.12-.03-.06-.04-.13-.03-.19l11.03-41.5c.04-.13.17-.21.31-.18l41.5,11.03c.06.02.12.06.15.12.03.06.04.12.03.19l-11.03,41.5c-.02.06-.06.12-.12.15-.04.02-.08.03-.13.03Z"/>
        <path class="cls-4" d="m96.04,613.63s-.05,0-.07-.01c-.07-.02-.12-.07-.15-.13l-17.11-36.97c-.05-.11-.01-.24.09-.31l32.17-21.92c.06-.04.13-.05.19-.04.07.01.13.06.16.12l21.92,36.97c.03.06.04.13.03.19-.02.06-.06.12-.11.15l-36.97,21.92s-.08.04-.13.04Zm-16.79-37.14l16.9,36.53,36.52-21.65-21.65-36.53-31.77,21.65Z"/>
        <path class="cls-4" d="m148.14,510.98h-71.54c-.14,0-.25-.11-.25-.25s.11-.25.25-.25h71.54c.14,0,.25.11.25.25s-.11.25-.25.25Z"/>
        <path class="cls-4" d="m193.03,381.26h-42.98c-.14,0-.25-.11-.25-.25v-28.63c0-.14.11-.25.25-.25h42.98c.14,0,.25.11.25.25v28.63c0,.14-.11.25-.25.25Zm-42.73-.5h42.48v-28.13h-42.48v28.13Z"/>
        <path class="cls-4" d="m248.38,357.36h-42.98c-.14,0-.25-.11-.25-.25s.11-.25.25-.25h42.98c.14,0,.25.11.25.25s-.11.25-.25.25Z"/>
        <path class="cls-4" d="m248.38,481.43h-42.98c-.14,0-.25-.11-.25-.25s.11-.25.25-.25h42.98c.14,0,.25.11.25.25s-.11.25-.25.25Z"/>
        <path class="cls-4" d="m253.12,457.53H119.58c-.14,0-.25-.11-.25-.25v-76.28c0-.14.11-.25.25-.25h133.54c.14,0,.25.11.25.25v76.28c0,.14-.11.25-.25.25Zm-133.29-.5h133.04v-75.78H119.83v75.78Z"/>
        <path class="cls-4" d="m193.03,357.36h-42.98c-.14,0-.25-.11-.25-.25s.11-.25.25-.25h42.98c.14,0,.25.11.25.25s-.11.25-.25.25Z"/>
        <path class="cls-4" d="m248.38,381.26h-42.98c-.14,0-.25-.11-.25-.25v-28.63c0-.14.11-.25.25-.25h42.98c.14,0,.25.11.25.25v28.63c0,.14-.11.25-.25.25Zm-42.73-.5h42.48v-28.13h-42.48v28.13Z"/>
        <path class="cls-4" d="m193.03,481.43h-42.98c-.14,0-.25-.11-.25-.25s.11-.25.25-.25h42.98c.14,0,.25.11.25.25s-.11.25-.25.25Z"/>
        <path class="cls-4" d="m193.03,486.16h-42.98c-.14,0-.25-.11-.25-.25v-28.63c0-.14.11-.25.25-.25h42.98c.14,0,.25.11.25.25v28.63c0,.14-.11.25-.25.25Zm-42.73-.5h42.48v-28.13h-42.48v28.13Z"/>
        <path class="cls-4" d="m248.38,486.16h-42.98c-.14,0-.25-.11-.25-.25v-28.63c0-.14.11-.25.25-.25h42.98c.14,0,.25.11.25.25v28.63c0,.14-.11.25-.25.25Zm-42.73-.5h42.48v-28.13h-42.48v28.13Z"/>
        <path class="cls-4" d="m119.58,457.53h-57.26c-.14,0-.25-.11-.25-.25v-76.28c0-.06.02-.12.06-.16h0s.02-.02.03-.03h0s.1-.06.16-.06h57.26c.14,0,.25.11.25.25v76.27h0s0,.01,0,.01h0s-.01.07-.03.1c-.02.03-.04.06-.06.08-.02.02-.05.04-.08.05h0s-.05.01-.08.01Zm-57.01-.5h56.51l-56.51-75.28v75.28Zm.25-75.78l56.51,75.28v-75.28h-56.51Z"/>
        <path class="cls-4" d="m569.9,115.02c-.14,0-.25-.11-.25-.25V28.88c0-.14.11-.25.25-.25s.25.11.25.25v85.89c0,.14-.11.25-.25.25Z"/>
      </g>
    </g>
  </g>
</svg>