<?xml version="1.0" encoding="UTF-8"?>
<svg id="_圖層_2" data-name="圖層 2" xmlns="http://www.w3.org/2000/svg" viewBox="0 0 855.13 930.54">
  <defs>
    <style>
      .cls-1 {
        stroke-miterlimit: 10;
      }

      .cls-1, .cls-2 {
        fill: none;
        stroke: #8a6e4b;
        stroke-linecap: round;
        stroke-width: 0px;
      }

      .cls-2 {
        stroke-linejoin: round;
      }

      .cls-3 {
        fill: #8a6e4b;
      }
    </style>
  </defs>
  <g id="_圖層_1-2" data-name="圖層 1">
    <g>
      <g>
        <path class="cls-3" d="m306.41,139.16h-115.55c-.14,0-.25-.11-.25-.25V.25c0-.14.11-.25.25-.25h115.55c.14,0,.25.11.25.25v138.66c0,.14-.11.25-.25.25Zm-115.3-.5h115.05V.5h-115.05v138.16Z"/>
        <path class="cls-3" d="m17.63,622.93l194.04,11.56H17.63v-11.56Zm194.04,0H17.63l194.04,11.56v-11.56Z"/>
        <path class="cls-1" d="m17.63,622.93l194.04,11.56H17.63v-11.56Zm194.04,0H17.63l194.04,11.56v-11.56Z"/>
        <path class="cls-3" d="m78.82,634.48l11.56,69.33h-11.56v-69.33Zm11.56,0h-11.56l11.56,69.33v-69.33Z"/>
        <path class="cls-1" d="m78.82,634.48l11.56,69.33h-11.56v-69.33Zm11.56,0h-11.56l11.56,69.33v-69.33Z"/>
        <path class="cls-3" d="m17.63,703.81l72.75,11.55H17.63v-11.55Zm72.75,0H17.63l72.75,11.55v-11.55Z"/>
        <path class="cls-1" d="m17.63,703.81l72.75,11.55H17.63v-11.55Zm72.75,0H17.63l72.75,11.55v-11.55Z"/>
        <path class="cls-3" d="m200.11,634.48l11.55,82.08h-11.55v-82.08Zm11.55,0h-11.55l11.55,82.08v-82.08Z"/>
        <path class="cls-1" d="m200.11,634.48l11.55,82.08h-11.55v-82.08Zm11.55,0h-11.55l11.55,82.08v-82.08Z"/>
        <path class="cls-3" d="m200.11,809l11.55,5.73h-11.55v-5.73Zm11.55,0h-11.55l11.55,5.73v-5.73Z"/>
        <path class="cls-1" d="m200.11,809l11.55,5.73h-11.55v-5.73Zm11.55,0h-11.55l11.55,5.73v-5.73Z"/>
        <path class="cls-3" d="m306.41,930.54h-138.66c-.14,0-.25-.11-.25-.25v-115.55c0-.14.11-.25.25-.25h138.66c.14,0,.25.11.25.25v115.55c0,.14-.11.25-.25.25Zm-138.41-.5h138.16v-115.05h-138.16v115.05Z"/>
        <path class="cls-3" d="m200.11,809.25H17.63c-.14,0-.25-.11-.25-.25s.11-.25.25-.25h182.48c.14,0,.25.11.25.25s-.11.25-.25.25Z"/>
        <path class="cls-3" d="m167.75,814.99H17.63c-.14,0-.25-.11-.25-.25s.11-.25.25-.25h150.13c.14,0,.25.11.25.25s-.11.25-.25.25Z"/>
        <path class="cls-3" d="m96.11,814.99h-3.42c-.14,0-.25-.11-.25-.25v-5.73c0-.14.11-.25.25-.25h3.42c.14,0,.25.11.25.25v5.73c0,.14-.11.25-.25.25Zm-3.17-.5h2.92v-5.23h-2.92v5.23Z"/>
        <path class="cls-3" d="m162.02,814.99h-3.51c-.14,0-.25-.11-.25-.25s.11-.25.25-.25h3.26v-5.48c0-.14.11-.25.25-.25s.25.11.25.25v5.73c0,.14-.11.25-.25.25Z"/>
        <path class="cls-3" d="m111.95,856.67c-.06,0-.13-.02-.18-.07-.1-.1-.1-.26,0-.35l44.17-44.17c.1-.1.26-.1.35,0s.1.26,0,.35l-44.17,44.17s-.11.07-.18.07Z"/>
        <path class="cls-3" d="m114.43,859.07c-.06,0-.13-.02-.18-.07-.1-.1-.1-.26,0-.35l44.08-44.08c.1-.1.26-.1.35,0s.1.26,0,.35l-44.08,44.08s-.11.07-.18.07Z"/>
        <path class="cls-3" d="m162.02,814.99h-3.51c-.14,0-.25-.11-.25-.25v-5.73c0-.14.11-.25.25-.25h3.51c.14,0,.25.11.25.25s-.11.25-.25.25h-3.26v5.23h3.26c.14,0,.25.11.25.25s-.11.25-.25.25Z"/>
        <path class="cls-3" d="m158.51,814.99c-.07,0-.13-.03-.18-.08l-2.4-2.48c-.1-.1-.09-.26,0-.35.1-.1.26-.09.35,0l2.4,2.48c.1.1.09.26,0,.35-.05.05-.11.07-.17.07Z"/>
        <path class="cls-3" d="m114.38,859.04c-.06,0-.13-.02-.18-.07-11.82-11.82-18.34-27.54-18.34-44.27,0-.14.11-.25.25-.25s.25.11.25.25c0,16.59,6.46,32.18,18.19,43.91.1.1.1.26,0,.35-.05.05-.11.07-.18.07Z"/>
        <path class="cls-3" d="m834.08,287.92l17.29,624.99h-17.29V287.92Zm17.29,0h-17.29l17.29,624.99V287.92Z"/>
        <path class="cls-1" d="m834.08,287.92l17.29,624.99h-17.29V287.92Zm17.29,0h-17.29l17.29,624.99V287.92Z"/>
        <path class="cls-3" d="m433.51,912.91l417.86,17.38h-417.86v-17.38Zm417.86,0h-417.86l417.86,17.38v-17.38Z"/>
        <path class="cls-1" d="m433.51,912.91l417.86,17.38h-417.86v-17.38Zm417.86,0h-417.86l417.86,17.38v-17.38Z"/>
        <path class="cls-3" d="m834.08,913.16h-400.57c-.14,0-.25-.11-.25-.25s.11-.25.25-.25h400.57c.14,0,.25.11.25.25s-.11.25-.25.25Z"/>
        <path class="cls-3" d="m851.37,930.54h-417.86c-.14,0-.25-.11-.25-.25s.11-.25.25-.25h417.86c.14,0,.25.11.25.25s-.11.25-.25.25Z"/>
        <path class="cls-3" d="m190.86,288.17c-.14,0-.25-.11-.25-.25v-149.01c0-.14.11-.25.25-.25s.25.11.25.25v149.01c0,.14-.11.25-.25.25Z"/>
        <path class="cls-3" d="m.25,83.44l20.8,183.68H.25V83.44Zm20.8,0H.25l20.8,183.68V83.44Z"/>
        <path class="cls-1" d="m.25,83.44l20.8,183.68H.25V83.44Zm20.8,0H.25l20.8,183.68V83.44Z"/>
        <path class="cls-3" d="m.25,267.12l86.62,20.8H.25v-20.8Zm86.62,0H.25l86.62,20.8v-20.8Z"/>
        <path class="cls-1" d="m.25,267.12l86.62,20.8H.25v-20.8Zm86.62,0H.25l86.62,20.8v-20.8Z"/>
        <path class="cls-3" d="m86.87,288.17c-.14,0-.25-.11-.25-.25v-20.8c0-.14.11-.25.25-.25s.25.11.25.25v20.8c0,.14-.11.25-.25.25Z"/>
        <path class="cls-3" d="m211.66,288.17c-.14,0-.25-.11-.25-.25v-149.01c0-.14.11-.25.25-.25s.25.11.25.25v149.01c0,.14-.11.25-.25.25Z"/>
        <path class="cls-3" d="m733.85,118.11l121.03,20.8h-121.03v-20.8Zm121.03,0h-121.03l121.03,20.8v-20.8Z"/>
        <path class="cls-1" d="m733.85,118.11l121.03,20.8h-121.03v-20.8Zm121.03,0h-121.03l121.03,20.8v-20.8Z"/>
        <path class="cls-3" d="m834.08,138.91l20.8,149.01h-20.8v-149.01Zm20.8,0h-20.8l20.8,149.01v-149.01Z"/>
        <path class="cls-1" d="m834.08,138.91l20.8,149.01h-20.8v-149.01Zm20.8,0h-20.8l20.8,149.01v-149.01Z"/>
        <path class="cls-3" d="m834.08,139.16h-100.23c-.14,0-.25-.11-.25-.25s.11-.25.25-.25h100.23c.14,0,.25.11.25.25s-.11.25-.25.25Z"/>
        <path class="cls-3" d="m514.4,118.11l34.66,20.8h-34.66v-20.8Zm34.66,0h-34.66l34.66,20.8v-20.8Z"/>
        <path class="cls-1" d="m514.4,118.11l34.66,20.8h-34.66v-20.8Zm34.66,0h-34.66l34.66,20.8v-20.8Z"/>
        <path class="cls-3" d="m549.06,139.16h-34.66c-.14,0-.25-.11-.25-.25s.11-.25.25-.25h34.66c.14,0,.25.11.25.25s-.11.25-.25.25Z"/>
        <path class="cls-3" d="m820.22,69.83H306.41c-.14,0-.25-.11-.25-.25s.11-.25.25-.25h513.81c.14,0,.25.11.25.25s-.11.25-.25.25Z"/>
        <path class="cls-3" d="m820.22,15.48c-.06,0-.13-.02-.18-.07-.1-.1-.1-.26,0-.35l3.42-3.42c.1-.1.26-.1.35,0s.1.26,0,.35l-3.42,3.42s-.11.07-.18.07Z"/>
        <path class="cls-3" d="m820.22,39.96c-.06,0-.13-.02-.18-.07-.1-.1-.1-.26,0-.35l27.9-27.9c.1-.1.26-.1.35,0s.1.26,0,.35l-27.9,27.9s-.11.07-.18.07Z"/>
        <path class="cls-3" d="m820.22,64.44c-.06,0-.13-.02-.18-.07-.1-.1-.1-.26,0-.35l34.66-34.66c.1-.1.26-.1.35,0s.1.26,0,.35l-34.66,34.66s-.11.07-.18.07Z"/>
        <path class="cls-3" d="m820.22,89c-.06,0-.13-.02-.18-.07-.1-.1-.1-.26,0-.35l34.66-34.67c.1-.1.26-.1.35,0s.1.26,0,.35l-34.66,34.67s-.11.07-.18.07Z"/>
        <path class="cls-3" d="m820.22,113.48c-.06,0-.13-.02-.18-.07-.1-.1-.1-.26,0-.35l34.66-34.66c.1-.1.26-.1.35,0s.1.26,0,.35l-34.66,34.66s-.11.07-.18.07Z"/>
        <path class="cls-3" d="m839.9,118.36c-.06,0-.13-.02-.18-.07-.1-.1-.1-.26,0-.35l14.98-15.06c.1-.1.26-.1.35,0,.1.1.1.26,0,.35l-14.98,15.06s-.11.07-.18.07Z"/>
        <path class="cls-3" d="m854.88,118.36h-121.03c-.14,0-.25-.11-.25-.25s.11-.25.25-.25h121.03c.14,0,.25.11.25.25s-.11.25-.25.25Z"/>
        <path class="cls-3" d="m549.06,118.36h-34.66c-.14,0-.25-.11-.25-.25s.11-.25.25-.25h34.66c.14,0,.25.11.25.25s-.11.25-.25.25Z"/>
        <path class="cls-3" d="m854.88,288.17c-.14,0-.25-.11-.25-.25V118.11c0-.14.11-.25.25-.25s.25.11.25.25v169.81c0,.14-.11.25-.25.25Z"/>
        <path class="cls-3" d="m854.88,288.17h-20.8c-.14,0-.25-.11-.25-.25v-149.01c0-.14.11-.25.25-.25s.25.11.25.25v148.76h20.55c.14,0,.25.11.25.25s-.11.25-.25.25Z"/>
        <path class="cls-3" d="m851.37,930.54c-.14,0-.25-.11-.25-.25V287.92c0-.14.11-.25.25-.25s.25.11.25.25v642.36c0,.14-.11.25-.25.25Z"/>
        <path class="cls-3" d="m167.75,814.74l138.66,115.55h-138.66v-115.55Zm138.66,0h-138.66l138.66,115.55v-115.55Z"/>
        <path class="cls-1" d="m167.75,814.74l138.66,115.55h-138.66v-115.55Zm138.66,0h-138.66l138.66,115.55v-115.55Z"/>
        <path class="cls-3" d="m530.57,242.82l11.55,306.16h-11.55V242.82Zm11.55,0h-11.55l11.55,306.16V242.82Z"/>
        <path class="cls-1" d="m530.57,242.82l11.55,306.16h-11.55V242.82Zm11.55,0h-11.55l11.55,306.16V242.82Z"/>
        <path class="cls-3" d="m530.57,548.98l303.51,11.55h-303.51v-11.55Zm303.51,0h-303.51l303.51,11.55v-11.55Z"/>
        <path class="cls-1" d="m530.57,548.98l303.51,11.55h-303.51v-11.55Zm303.51,0h-303.51l303.51,11.55v-11.55Z"/>
        <path class="cls-3" d="m530.57,560.53l11.55,179.14h-11.55v-179.14Zm11.55,0h-11.55l11.55,179.14v-179.14Z"/>
        <path class="cls-1" d="m530.57,560.53l11.55,179.14h-11.55v-179.14Zm11.55,0h-11.55l11.55,179.14v-179.14Z"/>
        <path class="cls-3" d="m530.57,843.58l11.55,69.33h-11.55v-69.33Zm11.55,0h-11.55l11.55,69.33v-69.33Z"/>
        <path class="cls-1" d="m530.57,843.58l11.55,69.33h-11.55v-69.33Zm11.55,0h-11.55l11.55,69.33v-69.33Z"/>
        <path class="cls-3" d="m834.08,913.16c-.14,0-.25-.11-.25-.25V287.92c0-.14.11-.25.25-.25s.25.11.25.25v624.99c0,.14-.11.25-.25.25Z"/>
        <path class="cls-3" d="m21.05,267.37c-.14,0-.25-.11-.25-.25V83.45c0-.14.11-.25.25-.25s.25.11.25.25v183.68c0,.14-.11.25-.25.25Z"/>
        <path class="cls-3" d="m.25,288.17c-.14,0-.25-.11-.25-.25V83.45c0-.14.11-.25.25-.25s.25.11.25.25v204.48c0,.14-.11.25-.25.25Z"/>
        <path class="cls-3" d="m86.87,267.37H21.05c-.14,0-.25-.11-.25-.25s.11-.25.25-.25h65.82c.14,0,.25.11.25.25s-.11.25-.25.25Z"/>
        <path class="cls-3" d="m86.87,288.17H.25c-.14,0-.25-.11-.25-.25s.11-.25.25-.25h86.62c.14,0,.25.11.25.25s-.11.25-.25.25Z"/>
        <path class="cls-3" d="m.25,287.92l17.38,624.99H.25V287.92Zm17.38,0H.25l17.38,624.99V287.92Z"/>
        <path class="cls-1" d="m.25,287.92l17.38,624.99H.25V287.92Zm17.38,0H.25l17.38,624.99V287.92Z"/>
        <path class="cls-3" d="m.25,912.91l167.5,17.38H.25v-17.38Zm167.5,0H.25l167.5,17.38v-17.38Z"/>
        <path class="cls-1" d="m.25,912.91l167.5,17.38H.25v-17.38Zm167.5,0H.25l167.5,17.38v-17.38Z"/>
        <path class="cls-3" d="m211.66,288.17h-20.8c-.14,0-.25-.11-.25-.25s.11-.25.25-.25h20.8c.14,0,.25.11.25.25s-.11.25-.25.25Z"/>
        <path class="cls-3" d="m190.86,52.45H21.05c-.14,0-.25-.11-.25-.25s.11-.25.25-.25h169.81c.14,0,.25.11.25.25s-.11.25-.25.25Z"/>
        <path class="cls-3" d="m190.86,69.83H21.05c-.14,0-.25-.11-.25-.25s.11-.25.25-.25h169.81c.14,0,.25.11.25.25s-.11.25-.25.25Z"/>
        <path class="cls-3" d="m17.63,913.16c-.14,0-.25-.11-.25-.25V287.92c0-.14.11-.25.25-.25s.25.11.25.25v624.99c0,.14-.11.25-.25.25Z"/>
        <path class="cls-3" d="m167.75,930.54H.25c-.14,0-.25-.11-.25-.25V287.92c0-.14.11-.25.25-.25s.25.11.25.25v642.11h167.25c.14,0,.25.11.25.25s-.11.25-.25.25Z"/>
        <path class="cls-3" d="m167.75,913.16H17.63c-.14,0-.25-.11-.25-.25s.11-.25.25-.25h150.13c.14,0,.25.11.25.25s-.11.25-.25.25Z"/>
        <path class="cls-3" d="m190.86,288.17h-6.93c-.14,0-.25-.11-.25-.25v-11.55c0-.14.11-.25.25-.25h6.93c.14,0,.25.11.25.25s-.11.25-.25.25h-6.68v11.05h6.68c.14,0,.25.11.25.25s-.11.25-.25.25Z"/>
        <path class="cls-3" d="m93.8,288.17h-6.93c-.14,0-.25-.11-.25-.25s.11-.25.25-.25h6.68v-11.05h-6.68c-.14,0-.25-.11-.25-.25s.11-.25.25-.25h6.93c.14,0,.25.11.25.25v11.55c0,.14-.11.25-.25.25Z"/>
        <path class="cls-3" d="m183.93,280.04h-90.13c-.14,0-.25-.11-.25-.25s.11-.25.25-.25h90.13c.14,0,.25.11.25.25s-.11.25-.25.25Z"/>
        <path class="cls-3" d="m183.93,288.17h-90.13c-.14,0-.25-.11-.25-.25s.11-.25.25-.25h90.13c.14,0,.25.11.25.25s-.11.25-.25.25Z"/>
        <path class="cls-3" d="m183.93,276.62h-3.42c-.14,0-.25-.11-.25-.25v-90.13c0-.14.11-.25.25-.25h3.42c.14,0,.25.11.25.25v90.13c0,.14-.11.25-.25.25Zm-3.17-.5h2.92v-89.63h-2.92v89.63Z"/>
        <path class="cls-3" d="m93.8,276.58c-.14,0-.25-.11-.25-.25,0-49.81,40.52-90.33,90.33-90.33.14,0,.25.11.25.25s-.11.25-.25.25c-49.54,0-89.83,40.3-89.83,89.83,0,.14-.11.25-.25.25Z"/>
        <path class="cls-3" d="m65.21,184.61c-.14,0-.25-.11-.25-.25v-58.63c0-.14.11-.25.25-.25s.25.11.25.25v58.63c0,.14-.11.25-.25.25Z"/>
        <path class="cls-3" d="m70.09,169.03c-.05,0-.1-.02-.15-.05l-.88-.64h-.95c-.09,0-.18-.05-.22-.14-.04-.08-.03-.19.02-.26l.51-.68c.08-.11.24-.13.35-.05.11.08.13.24.05.35l-.21.28h.53c.05,0,.1.02.15.05l.8.58,1.77-1.23,1.92-3.5.51-4.83-.51-4.91-1.45-5.61-2.46-4.92c-.03-.06-.03-.13-.01-.2l1.54-4.19,1.44-7.07.88-4.67h-8.51c-.14,0-.25-.11-.25-.25s.11-.25.25-.25h8.82c.07,0,.15.03.19.09.05.06.07.13.05.21l-.94,4.96-1.46,7.11-1.51,4.13,2.43,4.87,1.47,5.7.52,5-.51,4.93s-.01.06-.03.09l-1.97,3.59s-.04.06-.08.08l-1.97,1.37s-.09.04-.14.04Z"/>
        <path class="cls-3" d="m102.27,143.61h-19.34c-.14,0-.25-.11-.25-.25v-17.63c0-.14.11-.25.25-.25h19.34c.14,0,.25.11.25.25v17.63c0,.14-.11.25-.25.25Zm-19.09-.5h18.84v-17.13h-18.84v17.13Z"/>
        <path class="cls-3" d="m102.27,135.14h-19.34c-.14,0-.25-.11-.25-.25s.11-.25.25-.25h19.34c.14,0,.25.11.25.25s-.11.25-.25.25Z"/>
        <path class="cls-3" d="m106.21,151.4h-28.67c-.14,0-.25-.11-.25-.25s.11-.25.25-.25h28.67c.14,0,.25.11.25.25s-.11.25-.25.25Z"/>
        <path class="cls-3" d="m78.05,169.03c-.06,0-.11-.02-.16-.06-.11-.09-.12-.24-.04-.35l3.4-4.17,3.41-7.76,1.53-5.61c.04-.13.17-.21.31-.18.13.04.21.17.18.31l-1.54,5.65-3.44,7.82s-.02.04-.04.06l-3.42,4.19c-.05.06-.12.09-.19.09Z"/>
        <path class="cls-3" d="m101.25,183.15h-2.48s-.06,0-.08-.01l-1.97-.68c-.13-.05-.2-.19-.15-.32.05-.13.19-.2.32-.15l1.93.67h2.3l2.38-4.02.51-4.91v-13.85h-19.52c-.14,0-.25-.11-.25-.25s.11-.25.25-.25h19.77c.14,0,.25.11.25.25v14.12l-.51,4.99s-.02.07-.03.1l-2.48,4.19c-.04.08-.13.12-.22.12Z"/>
        <path class="cls-3" d="m77.54,182.47c-.06,0-.13-.02-.18-.07-.1-.1-.1-.26,0-.35l4.96-4.96,5.34-8.4,2.47-7.76c.04-.13.18-.2.31-.16.13.04.2.18.16.31l-2.48,7.79s-.02.04-.03.06l-5.39,8.47-5,5.01s-.11.07-.18.07Z"/>
        <path class="cls-3" d="m87.9,184.61c-.05,0-.11-.02-.16-.05-.11-.09-.13-.24-.04-.35l3.92-4.94,4.01-9.13,1.95-9.2c.03-.14.16-.22.3-.19.14.03.22.16.19.3l-1.97,9.24-4.04,9.21s-.02.04-.03.05l-3.94,4.96c-.05.06-.12.09-.2.09Z"/>
        <path class="cls-3" d="m162.53,130.17h-36.03c-.14,0-.25-.11-.25-.25s.11-.25.25-.25h36.03c.14,0,.25.11.25.25s-.11.25-.25.25Z"/>
        <path class="cls-3" d="m144.73,135.82c-.14,0-.25-.11-.25-.25v-10.53c0-.14.11-.25.25-.25s.25.11.25.25v10.53c0,.14-.11.25-.25.25Z"/>
        <path class="cls-3" d="m160.56,135.82h-30.64c-.14,0-.25-.11-.25-.25s.11-.25.25-.25h30.64c.14,0,.25.11.25.25s-.11.25-.25.25Z"/>
        <path class="cls-3" d="m159.54,148.57h-27.65c-.14,0-.25-.11-.25-.25v-7.1c0-.14.11-.25.25-.25h27.65c.14,0,.25.11.25.25v7.1c0,.14-.11.25-.25.25Zm-27.4-.5h27.15v-6.6h-27.15v6.6Z"/>
        <path class="cls-3" d="m163.99,162.01c-.14,0-.25-.11-.25-.25v-7.54h-36.99v7.54c0,.14-.11.25-.25.25s-.25-.11-.25-.25v-7.79c0-.14.11-.25.25-.25h37.49c.14,0,.25.11.25.25v7.79c0,.14-.11.25-.25.25Z"/>
        <path class="cls-3" d="m159.54,159.87h-28.16c-.14,0-.25-.11-.25-.25s.11-.25.25-.25h28.16c.14,0,.25.11.25.25s-.11.25-.25.25Z"/>
        <path class="cls-3" d="m135.83,169.71s-.09-.01-.14-.04c-.12-.08-.15-.23-.07-.35l6.42-9.84c.08-.12.23-.15.35-.07.12.08.15.23.07.35l-6.42,9.84c-.05.07-.13.11-.21.11Z"/>
        <path class="cls-3" d="m132.92,170.49c-.13,0-.24-.1-.25-.23,0-.14.1-.26.23-.27l23.71-1.46c.14.02.26.1.26.23,0,.14-.1.26-.23.27l-23.71,1.46h-.02Z"/>
        <path class="cls-3" d="m158.59,172.54c-.08,0-.15-.03-.2-.1l-1.03-1.37-1.48-2.86-1.44-2.11c-.08-.11-.05-.27.07-.35.11-.08.27-.05.35.07l1.46,2.14,1.47,2.85,1,1.33c.08.11.06.27-.05.35-.04.03-.1.05-.15.05Z"/>
        <path class="cls-3" d="m160.05,177.5h-29.61c-.14,0-.25-.11-.25-.25s.11-.25.25-.25h29.61c.14,0,.25.11.25.25s-.11.25-.25.25Z"/>
        <path class="cls-3" d="m144.73,184.61c-.14,0-.25-.11-.25-.25v-14.12c0-.14.11-.25.25-.25s.25.11.25.25v14.12c0,.14-.11.25-.25.25Z"/>
        <path class="cls-3" d="m163.56,184.61h-37.06c-.14,0-.25-.11-.25-.25s.11-.25.25-.25h37.06c.14,0,.25.11.25.25s-.11.25-.25.25Z"/>
        <path class="cls-3" d="m433.51,930.54c-.14,0-.25-.11-.25-.25v-17.38c0-.14.11-.25.25-.25s.25.11.25.25v17.38c0,.14-.11.25-.25.25Z"/>
        <path class="cls-3" d="m313.34,930.54h-6.93c-.14,0-.25-.11-.25-.25s.11-.25.25-.25h6.68v-13.37h-6.68c-.14,0-.25-.11-.25-.25s.11-.25.25-.25h6.93c.14,0,.25.11.25.25v13.87c0,.14-.11.25-.25.25Z"/>
        <path class="cls-3" d="m433.51,930.54h-6.93c-.14,0-.25-.11-.25-.25v-13.87c0-.14.11-.25.25-.25h6.93c.14,0,.25.11.25.25s-.11.25-.25.25h-6.68v13.37h6.68c.14,0,.25.11.25.25s-.11.25-.25.25Z"/>
        <path class="cls-3" d="m316.77,916.67h-3.42c-.14,0-.25-.11-.25-.25v-113.24c0-.14.11-.25.25-.25h3.42c.14,0,.25.11.25.25v113.24c0,.14-.11.25-.25.25Zm-3.17-.5h2.92v-112.74h-2.92v112.74Z"/>
        <path class="cls-3" d="m426.5,916.63c-.14,0-.25-.11-.25-.25,0-62.28-50.67-112.95-112.94-112.95-.14,0-.25-.11-.25-.25s.11-.25.25-.25c62.55,0,113.44,50.89,113.44,113.45,0,.14-.11.25-.25.25Z"/>
        <path class="cls-3" d="m.25,75.74c-.06,0-.13-.02-.18-.07-.1-.1-.1-.26,0-.35l20.8-20.8c.1-.1.26-.1.35,0s.1.26,0,.35L.43,75.66s-.11.07-.18.07Z"/>
        <path class="cls-3" d="m16.77,83.7c-.06,0-.13-.02-.18-.07-.1-.1-.1-.26,0-.35l4.28-4.28c.1-.1.26-.1.35,0s.1.26,0,.35l-4.28,4.28s-.11.07-.18.07Z"/>
        <path class="cls-3" d="m21.05,83.7H.25c-.14,0-.25-.11-.25-.25s.11-.25.25-.25h20.8c.14,0,.25.11.25.25s-.11.25-.25.25Z"/>
        <path class="cls-3" d="m549.06,139.16c-.14,0-.25-.11-.25-.25v-20.8c0-.14.11-.25.25-.25s.25.11.25.25v20.8c0,.14-.11.25-.25.25Z"/>
        <path class="cls-3" d="m733.85,139.16c-.14,0-.25-.11-.25-.25v-20.8c0-.14.11-.25.25-.25s.25.11.25.25v20.8c0,.14-.11.25-.25.25Z"/>
        <path class="cls-3" d="m733.85,118.36h-184.79c-.14,0-.25-.11-.25-.25s.11-.25.25-.25h184.79c.14,0,.25.11.25.25s-.11.25-.25.25Z"/>
        <path class="cls-3" d="m733.85,139.16h-184.79c-.14,0-.25-.11-.25-.25s.11-.25.25-.25h184.79c.14,0,.25.11.25.25s-.11.25-.25.25Z"/>
        <path class="cls-3" d="m555.91,139.16c-.14,0-.25-.11-.25-.25v-13.87c0-.14.11-.25.25-.25s.25.11.25.25v13.87c0,.14-.11.25-.25.25Z"/>
        <path class="cls-3" d="m726.92,139.16c-.14,0-.25-.11-.25-.25v-13.87c0-.14.11-.25.25-.25s.25.11.25.25v13.87c0,.14-.11.25-.25.25Z"/>
        <path class="cls-3" d="m726.92,129.92h-90.13c-.14,0-.25-.11-.25-.25s.11-.25.25-.25h90.13c.14,0,.25.11.25.25s-.11.25-.25.25Z"/>
        <path class="cls-3" d="m646.04,134.54h-90.13c-.14,0-.25-.11-.25-.25s.11-.25.25-.25h90.13c.14,0,.25.11.25.25s-.11.25-.25.25Z"/>
        <path class="cls-3" d="m733.85,125.29h-184.79c-.14,0-.25-.11-.25-.25s.11-.25.25-.25h184.79c.14,0,.25.11.25.25s-.11.25-.25.25Z"/>
        <path class="cls-3" d="m641.42,143.78c-.14,0-.25-.11-.25-.25v-23.11c0-.14.11-.25.25-.25s.25.11.25.25v23.11c0,.14-.11.25-.25.25Z"/>
        <path class="cls-3" d="m514.4,139.16c-.14,0-.25-.11-.25-.25v-20.8c0-.14.11-.25.25-.25s.25.11.25.25v20.8c0,.14-.11.25-.25.25Z"/>
        <path class="cls-3" d="m514.4,118.36h-207.99c-.14,0-.25-.11-.25-.25s.11-.25.25-.25h207.99c.14,0,.25.11.25.25s-.11.25-.25.25Z"/>
        <path class="cls-3" d="m514.4,139.16h-207.99c-.14,0-.25-.11-.25-.25s.11-.25.25-.25h207.99c.14,0,.25.11.25.25s-.11.25-.25.25Z"/>
        <path class="cls-3" d="m313.34,139.16c-.14,0-.25-.11-.25-.25v-13.87c0-.14.11-.25.25-.25s.25.11.25.25v13.87c0,.14-.11.25-.25.25Z"/>
        <path class="cls-3" d="m507.46,139.16c-.14,0-.25-.11-.25-.25v-13.87c0-.14.11-.25.25-.25s.25.11.25.25v13.87c0,.14-.11.25-.25.25Z"/>
        <path class="cls-3" d="m507.46,129.92h-101.68c-.14,0-.25-.11-.25-.25s.11-.25.25-.25h101.68c.14,0,.25.11.25.25s-.11.25-.25.25Z"/>
        <path class="cls-3" d="m415.03,134.54h-101.68c-.14,0-.25-.11-.25-.25s.11-.25.25-.25h101.68c.14,0,.25.11.25.25s-.11.25-.25.25Z"/>
        <path class="cls-3" d="m514.4,125.29h-207.99c-.14,0-.25-.11-.25-.25s.11-.25.25-.25h207.99c.14,0,.25.11.25.25s-.11.25-.25.25Z"/>
        <path class="cls-3" d="m410.4,143.78c-.14,0-.25-.11-.25-.25v-23.11c0-.14.11-.25.25-.25s.25.11.25.25v23.11c0,.14-.11.25-.25.25Z"/>
        <path class="cls-3" d="m190.86,35.17H.25c-.14,0-.25-.11-.25-.25s.11-.25.25-.25h190.61c.14,0,.25.11.25.25s-.11.25-.25.25Z"/>
        <path class="cls-3" d="m715.11,64.01h-3.51c-.14,0-.25-.11-.25-.25v-11.55c0-.14.11-.25.25-.25h3.51c.14,0,.25.11.25.25v11.55c0,.14-.11.25-.25.25Zm-3.26-.5h3.01v-11.05h-3.01v11.05Z"/>
        <path class="cls-3" d="m730.09,64.01h-3.42c-.14,0-.25-.11-.25-.25v-11.55c0-.14.11-.25.25-.25h3.42c.14,0,.25.11.25.25v11.55c0,.14-.11.25-.25.25Zm-3.17-.5h2.92v-11.05h-2.92v11.05Z"/>
        <path class="cls-3" d="m745.15,64.01h-3.51c-.14,0-.25-.11-.25-.25v-11.55c0-.14.11-.25.25-.25h3.51c.14,0,.25.11.25.25v11.55c0,.14-.11.25-.25.25Zm-3.26-.5h3.01v-11.05h-3.01v11.05Z"/>
        <path class="cls-3" d="m760.13,64.01h-3.42c-.14,0-.25-.11-.25-.25v-11.55c0-.14.11-.25.25-.25h3.42c.14,0,.25.11.25.25v11.55c0,.14-.11.25-.25.25Zm-3.17-.5h2.92v-11.05h-2.92v11.05Z"/>
        <path class="cls-3" d="m775.2,64.01h-3.51c-.14,0-.25-.11-.25-.25v-11.55c0-.14.11-.25.25-.25h3.51c.14,0,.25.11.25.25v11.55c0,.14-.11.25-.25.25Zm-3.26-.5h3.01v-11.05h-3.01v11.05Z"/>
        <path class="cls-3" d="m790.17,64.01h-3.42c-.14,0-.25-.11-.25-.25v-11.55c0-.14.11-.25.25-.25h3.42c.14,0,.25.11.25.25v11.55c0,.14-.11.25-.25.25Zm-3.17-.5h2.92v-11.05h-2.92v11.05Z"/>
        <path class="cls-3" d="m805.24,64.01h-3.51c-.14,0-.25-.11-.25-.25v-11.55c0-.14.11-.25.25-.25h3.51c.14,0,.25.11.25.25v11.55c0,.14-.11.25-.25.25Zm-3.26-.5h3.01v-11.05h-3.01v11.05Z"/>
        <path class="cls-3" d="m820.22,64.01h-3.42c-.14,0-.25-.11-.25-.25v-11.55c0-.14.11-.25.25-.25h3.42c.14,0,.25.11.25.25v11.55c0,.14-.11.25-.25.25Zm-3.17-.5h2.92v-11.05h-2.92v11.05Z"/>
        <path class="cls-3" d="m700.05,64.01h-3.42c-.14,0-.25-.11-.25-.25v-11.55c0-.14.11-.25.25-.25h3.42c.14,0,.25.11.25.25v11.55c0,.14-.11.25-.25.25Zm-3.17-.5h2.92v-11.05h-2.92v11.05Z"/>
        <path class="cls-3" d="m854.88,118.36c-.14,0-.25-.11-.25-.25V12.05h-34.16v106.05c0,.14-.11.25-.25.25s-.25-.11-.25-.25V11.8c0-.14.11-.25.25-.25h34.66c.14,0,.25.11.25.25v106.3c0,.14-.11.25-.25.25Z"/>
        <path class="cls-3" d="m21.05,83.7c-.14,0-.25-.11-.25-.25v-30.99H.5v30.99c0,.14-.11.25-.25.25s-.25-.11-.25-.25v-31.24c0-.14.11-.25.25-.25h20.8c.14,0,.25.11.25.25v31.24c0,.14-.11.25-.25.25Z"/>
        <path class="cls-3" d="m190.86.25l115.55,138.66h-115.55V.25Zm115.55,0h-115.55l115.55,138.66V.25Z"/>
        <path class="cls-1" d="m190.86.25l115.55,138.66h-115.55V.25Zm115.55,0h-115.55l115.55,138.66V.25Z"/>
        <path class="cls-3" d="m190.86,138.91l20.8,149.01h-20.8v-149.01Zm20.8,0h-20.8l20.8,149.01v-149.01Z"/>
        <path class="cls-1" d="m190.86,138.91l20.8,149.01h-20.8v-149.01Zm20.8,0h-20.8l20.8,149.01v-149.01Z"/>
        <path class="cls-3" d="m90.38,809.25H17.63c-.14,0-.25-.11-.25-.25v-93.64c0-.14.11-.25.25-.25h72.75c.14,0,.25.11.25.25v93.64c0,.14-.11.25-.25.25Zm-72.5-.5h72.25v-93.14H17.88v93.14Z"/>
        <path class="cls-3" d="m38.51,760.61s-.01,0-.02,0c-.14,0-.24-.13-.23-.27.18-2.61.65-5.2,1.41-7.71.04-.13.18-.21.31-.17.13.04.21.18.17.31-.74,2.47-1.21,5.02-1.39,7.6,0,.13-.12.23-.25.23Z"/>
        <path class="cls-3" d="m39.89,752.89s-.05,0-.07-.01c-.13-.04-.21-.18-.17-.31.87-2.88,2.2-5.56,3.97-7.99.08-.11.24-.14.35-.05.11.08.14.24.06.35-1.73,2.38-3.04,5.02-3.89,7.84-.03.11-.13.18-.24.18Z"/>
        <path class="cls-3" d="m43.73,744.97c-.05,0-.1-.02-.15-.05-.11-.08-.14-.24-.06-.35,1.72-2.36,3.87-4.29,6.4-5.73.12-.07.27-.03.34.09s.03.27-.09.34c-2.47,1.41-4.57,3.29-6.25,5.59-.05.07-.12.1-.2.1Z"/>
        <path class="cls-3" d="m50.11,739.32c-.09,0-.17-.04-.22-.13-.07-.12-.03-.27.09-.34,2.09-1.19,4.47-1.82,6.88-1.82.14,0,.25.11.25.25s-.11.25-.25.25c-2.32,0-4.62.61-6.63,1.76-.04.02-.08.03-.12.03Z"/>
        <path class="cls-3" d="m63.62,739.32s-.08-.01-.12-.03c-2.02-1.15-4.31-1.76-6.63-1.76-.14,0-.25-.11-.25-.25s.11-.25.25-.25c2.41,0,4.79.63,6.88,1.82.12.07.16.22.09.34-.05.08-.13.13-.22.13Z"/>
        <path class="cls-3" d="m69.92,744.97c-.08,0-.15-.04-.2-.1-1.67-2.3-3.78-4.18-6.25-5.59-.12-.07-.16-.22-.09-.34s.22-.16.34-.09c2.53,1.44,4.69,3.37,6.4,5.73.08.11.06.27-.06.35-.04.03-.1.05-.15.05Z"/>
        <path class="cls-3" d="m73.76,752.89c-.11,0-.21-.07-.24-.18-.85-2.82-2.16-5.46-3.89-7.84-.08-.11-.06-.27.06-.35.11-.08.27-.06.35.05,1.77,2.43,3.1,5.12,3.97,7.99.04.13-.03.27-.17.31-.02,0-.05.01-.07.01Z"/>
        <path class="cls-3" d="m75.31,762.99c-.14,0-.25-.11-.25-.25,0-3.38-.49-6.73-1.47-9.96-.04-.13.03-.27.17-.31.13-.04.27.03.31.17.99,3.28,1.49,6.68,1.49,10.11,0,.14-.11.25-.25.25Z"/>
        <path class="cls-3" d="m73.83,773.03s-.05,0-.07-.01c-.13-.04-.21-.18-.17-.31.97-3.23,1.47-6.59,1.47-9.96,0-.14.11-.25.25-.25s.25.11.25.25c0,3.43-.5,6.83-1.49,10.11-.03.11-.13.18-.24.18Z"/>
        <path class="cls-3" d="m69.83,780.92c-.05,0-.1-.02-.15-.05-.11-.08-.14-.24-.06-.35,1.73-2.38,3.04-5.02,3.89-7.84.04-.13.18-.21.31-.17.13.04.21.18.17.31-.87,2.87-2.2,5.56-3.97,7.99-.05.07-.12.1-.2.1Z"/>
        <path class="cls-3" d="m63.59,786.58c-.09,0-.17-.04-.22-.13-.07-.12-.03-.27.09-.34,2.47-1.41,4.57-3.29,6.25-5.59.08-.11.24-.14.35-.05.11.08.14.24.06.35-1.71,2.36-3.87,4.29-6.4,5.73-.04.02-.08.03-.12.03Z"/>
        <path class="cls-3" d="m56.87,788.37c-.14,0-.25-.11-.25-.25s.11-.25.25-.25c2.32,0,4.62-.61,6.63-1.76.12-.07.27-.03.34.09.07.12.03.27-.09.34-2.09,1.19-4.47,1.82-6.88,1.82Z"/>
        <path class="cls-3" d="m56.87,788.37c-2.41,0-4.79-.63-6.88-1.82-.12-.07-.16-.22-.09-.34.07-.12.22-.16.34-.09,2.02,1.15,4.31,1.76,6.63,1.76.14,0,.25.11.25.25s-.11.25-.25.25Z"/>
        <path class="cls-3" d="m50.06,786.58s-.08-.01-.12-.03c-2.53-1.44-4.69-3.37-6.4-5.73-.08-.11-.06-.27.06-.35.11-.08.27-.06.35.05,1.67,2.3,3.77,4.18,6.25,5.59.12.07.16.22.09.34-.05.08-.13.13-.22.13Z"/>
        <path class="cls-3" d="m43.82,780.92c-.08,0-.15-.04-.2-.1-1.77-2.43-3.1-5.12-3.97-7.99-.04-.13.03-.27.17-.31.13-.05.27.03.31.17.85,2.82,2.16,5.46,3.89,7.84.08.11.06.27-.06.35-.04.03-.1.05-.15.05Z"/>
        <path class="cls-3" d="m39.9,773.03c-.11,0-.21-.07-.24-.18-.75-2.5-1.23-5.1-1.41-7.71,0-.14.09-.26.23-.27.14,0,.26.09.27.23.18,2.57.64,5.13,1.39,7.6.04.13-.03.27-.17.31-.02,0-.05.01-.07.01Z"/>
        <path class="cls-3" d="m32,771.68c-.14,0-.25-.11-.25-.25v-17.38c0-.14.11-.25.25-.25s.25.11.25.25v17.38c0,.14-.11.25-.25.25Z"/>
        <path class="cls-3" d="m32,765.86c-.13,0-.24-.1-.25-.23-.01-.14.09-.26.23-.27l12.92-.94c.14-.03.26.09.27.23.01.14-.09.26-.23.27l-12.92.94s-.01,0-.02,0Z"/>
        <path class="cls-3" d="m44.93,761.15s-.01,0-.02,0l-12.92-1.03c-.14-.01-.24-.13-.23-.27s.13-.25.27-.23l12.92,1.03c.14.01.24.13.23.27-.01.13-.12.23-.25.23Z"/>
        <path class="cls-3" d="m37.82,754.3h-5.82c-.14,0-.25-.11-.25-.25s.11-.25.25-.25h5.82c.14,0,.25.11.25.25s-.11.25-.25.25Z"/>
        <path class="cls-3" d="m37.82,771.68h-5.82c-.14,0-.25-.11-.25-.25s.11-.25.25-.25h5.82c.14,0,.25.11.25.25s-.11.25-.25.25Z"/>
        <path class="cls-3" d="m37.82,760.55c-.14,0-.25-.11-.25-.25v-6.25c0-.14.11-.25.25-.25s.25.11.25.25v6.25c0,.14-.11.25-.25.25Z"/>
        <path class="cls-3" d="m37.82,771.68c-.14,0-.25-.11-.25-.25v-6.25c0-.14.11-.25.25-.25s.25.11.25.25v6.25c0,.14-.11.25-.25.25Z"/>
        <path class="cls-3" d="m37.82,757.21h-5.82c-.14,0-.25-.11-.25-.25s.11-.25.25-.25h5.82c.14,0,.25.11.25.25s-.11.25-.25.25Z"/>
        <path class="cls-3" d="m37.82,768.77h-5.82c-.14,0-.25-.11-.25-.25s.11-.25.25-.25h5.82c.14,0,.25.11.25.25s-.11.25-.25.25Z"/>
        <path class="cls-3" d="m34.91,760.12c-.14,0-.25-.11-.25-.25v-5.82c0-.14.11-.25.25-.25s.25.11.25.25v5.82c0,.14-.11.25-.25.25Z"/>
        <path class="cls-3" d="m34.87,760.04c-1.72,0-3.12-1.4-3.12-3.12s1.4-3.12,3.12-3.12,3.12,1.4,3.12,3.12-1.4,3.12-3.12,3.12Zm0-5.74c-1.44,0-2.62,1.17-2.62,2.62s1.17,2.62,2.62,2.62,2.62-1.17,2.62-2.62-1.17-2.62-2.62-2.62Z"/>
        <path class="cls-3" d="m34.87,771.59c-1.72,0-3.12-1.4-3.12-3.12s1.4-3.12,3.12-3.12,3.12,1.4,3.12,3.12-1.4,3.12-3.12,3.12Zm0-5.73c-1.44,0-2.62,1.17-2.62,2.62s1.17,2.62,2.62,2.62,2.62-1.17,2.62-2.62-1.17-2.62-2.62-2.62Z"/>
        <path class="cls-3" d="m34.91,771.68c-.14,0-.25-.11-.25-.25v-5.82c0-.14.11-.25.25-.25s.25.11.25.25v5.82c0,.14-.11.25-.25.25Z"/>
        <path class="cls-3" d="m32.86,759.27c-.06,0-.13-.02-.18-.07-.1-.1-.1-.26,0-.35l4.11-4.11c.1-.1.26-.1.35,0s.1.26,0,.35l-4.11,4.11s-.11.07-.18.07Z"/>
        <path class="cls-3" d="m36.97,759.27c-.06,0-.13-.02-.18-.07l-4.11-4.11c-.1-.1-.1-.26,0-.35s.26-.1.35,0l4.11,4.11c.1.1.1.26,0,.35-.05.05-.11.07-.18.07Z"/>
        <path class="cls-3" d="m32.86,770.82c-.06,0-.13-.02-.18-.07-.1-.1-.1-.26,0-.35l4.11-4.11c.1-.1.26-.1.35,0s.1.26,0,.35l-4.11,4.11s-.11.07-.18.07Z"/>
        <path class="cls-3" d="m36.97,770.82c-.06,0-.13-.02-.18-.07l-4.11-4.11c-.1-.1-.1-.26,0-.35s.26-.1.35,0l4.11,4.11c.1.1.1.26,0,.35-.05.05-.11.07-.18.07Z"/>
        <path class="cls-3" d="m44.89,764.83c-.14,0-.25-.11-.25-.25s.11-.25.25-.25c.88,0,1.59-.71,1.59-1.59s-.71-1.59-1.59-1.59c-.14,0-.25-.11-.25-.25s.11-.25.25-.25c1.15,0,2.09.94,2.09,2.09s-.94,2.09-2.09,2.09Z"/>
        <path class="cls-3" d="m34.87,764.23c-.77,0-1.41-.63-1.41-1.41s.63-1.41,1.41-1.41,1.41.63,1.41,1.41-.63,1.41-1.41,1.41Zm0-2.31c-.5,0-.91.41-.91.91s.41.91.91.91.91-.41.91-.91-.41-.91-.91-.91Z"/>
        <path class="cls-3" d="m47.63,765.86c-.92,0-1.82-.41-2.42-1.15-.09-.11-.07-.26.04-.35.11-.09.26-.07.35.04.7.86,1.86,1.19,2.91.82,1.04-.37,1.74-1.36,1.74-2.47s-.7-2.1-1.74-2.47c-1.04-.37-2.21-.04-2.91.82-.09.11-.24.12-.35.04-.11-.09-.12-.25-.04-.35.83-1.02,2.22-1.41,3.46-.97,1.24.44,2.07,1.62,2.07,2.94s-.83,2.5-2.07,2.94c-.34.12-.69.18-1.04.18Z"/>
        <path class="cls-3" d="m47.62,767.06c-1.55,0-3.01-.83-3.78-2.24-.07-.12-.02-.27.1-.34.12-.07.27-.02.34.1.84,1.53,2.61,2.29,4.29,1.86,1.69-.43,2.87-1.95,2.87-3.7s-1.18-3.26-2.87-3.7c-1.69-.43-3.45.33-4.29,1.86-.07.12-.22.17-.34.1-.12-.07-.17-.22-.1-.34.95-1.73,2.95-2.59,4.86-2.1,1.91.49,3.24,2.21,3.24,4.18s-1.33,3.69-3.24,4.18c-.36.09-.72.14-1.07.14Z"/>
        <path class="cls-3" d="m47.67,792.14c-.11,0-.21-.08-.24-.19l-2.31-9.33c-.03-.13.05-.27.18-.3.13-.04.27.05.3.18l2.31,9.33c.03.13-.05.27-.18.3-.02,0-.04,0-.06,0Z"/>
        <path class="cls-3" d="m45.36,743.18s-.04,0-.06,0c-.13-.03-.22-.17-.18-.3l2.31-9.33c.03-.13.17-.22.3-.18.13.03.22.17.18.3l-2.31,9.33c-.03.11-.13.19-.24.19Z"/>
        <path class="cls-3" d="m71.83,784.58c-.06,0-.11-.02-.16-.06-.11-.09-.12-.25-.03-.35,2.34-2.85,4.12-6.06,5.31-9.54.04-.13.19-.2.32-.16.13.04.2.19.16.32-1.21,3.54-3.02,6.81-5.4,9.7-.05.06-.12.09-.19.09Z"/>
        <path class="cls-3" d="m63.53,791.19c-.09,0-.18-.05-.22-.14-.06-.12-.01-.27.11-.34,3.18-1.6,5.93-3.8,8.18-6.55.09-.11.24-.12.35-.04.11.09.12.25.03.35-2.3,2.8-5.11,5.05-8.35,6.68-.04.02-.07.03-.11.03Z"/>
        <path class="cls-3" d="m54.56,793.33c-.14,0-.25-.11-.25-.25s.11-.25.25-.25c3.07,0,6.14-.73,8.89-2.11.12-.06.27-.01.34.11.06.12.01.27-.11.34-2.81,1.42-5.96,2.17-9.11,2.17Z"/>
        <path class="cls-3" d="m54.56,793.33c-3.15,0-6.3-.75-9.11-2.17-.12-.06-.17-.21-.11-.34.06-.12.21-.17.34-.11,2.74,1.38,5.82,2.11,8.89,2.11.14,0,.25.11.25.25s-.11.25-.25.25Z"/>
        <path class="cls-3" d="m45.5,791.19s-.08,0-.11-.03c-3.24-1.63-6.05-3.88-8.35-6.68-.09-.11-.07-.26.03-.35.11-.09.26-.07.35.04,2.26,2.75,5.01,4.95,8.18,6.55.12.06.17.21.11.34-.04.09-.13.14-.22.14Z"/>
        <path class="cls-3" d="m37.2,784.58c-.07,0-.14-.03-.19-.09-2.38-2.89-4.19-6.16-5.4-9.7-.04-.13.03-.27.16-.32.13-.05.27.03.32.16,1.19,3.49,2.97,6.7,5.31,9.54.09.11.07.26-.03.35-.05.04-.1.06-.16.06Z"/>
        <path class="cls-3" d="m31.94,775c-.1,0-.2-.07-.24-.17-1.33-3.9-2-7.97-2-12.09,0-.14.11-.25.25-.25s.25.11.25.25c0,4.07.66,8.08,1.97,11.93.04.13-.03.27-.16.32-.03,0-.05.01-.08.01Z"/>
        <path class="cls-3" d="m29.95,762.99c-.14,0-.25-.11-.25-.25,0-4.12.67-8.19,2-12.09.04-.13.19-.2.32-.16.13.04.2.19.16.32-1.31,3.85-1.97,7.86-1.97,11.93,0,.14-.11.25-.25.25Z"/>
        <path class="cls-3" d="m31.85,750.94s-.05,0-.08-.01c-.13-.04-.2-.19-.16-.32,1.21-3.54,3.02-6.81,5.4-9.7.09-.11.25-.12.35-.03s.12.25.03.35c-2.34,2.84-4.12,6.05-5.31,9.54-.04.1-.13.17-.24.17Z"/>
        <path class="cls-3" d="m37.23,741.33c-.06,0-.11-.02-.16-.06-.11-.09-.12-.25-.03-.35,2.3-2.8,5.11-5.05,8.35-6.68.12-.06.27-.01.34.11.06.12.01.27-.11.34-3.18,1.6-5.93,3.81-8.18,6.55-.05.06-.12.09-.19.09Z"/>
        <path class="cls-3" d="m45.56,734.71c-.09,0-.18-.05-.22-.14-.06-.12-.01-.27.11-.34,2.81-1.42,5.96-2.17,9.11-2.17.14,0,.25.11.25.25s-.11.25-.25.25c-3.07,0-6.15.73-8.89,2.11-.04.02-.07.03-.11.03Z"/>
        <path class="cls-3" d="m63.56,734.71s-.08,0-.11-.03c-2.74-1.38-5.81-2.11-8.89-2.11-.14,0-.25-.11-.25-.25s.11-.25.25-.25c3.15,0,6.3.75,9.11,2.17.12.06.17.21.11.34-.04.09-.13.14-.22.14Z"/>
        <path class="cls-3" d="m71.8,741.33c-.07,0-.14-.03-.19-.09-2.26-2.75-5.01-4.95-8.18-6.55-.12-.06-.17-.21-.11-.34.06-.12.21-.17.34-.11,3.24,1.63,6.05,3.88,8.35,6.68.09.11.07.26-.03.35-.05.04-.1.06-.16.06Z"/>
        <path class="cls-3" d="m77.18,750.94c-.1,0-.2-.07-.24-.17-1.19-3.49-2.97-6.7-5.31-9.54-.09-.11-.07-.26.03-.35.11-.09.26-.07.35.03,2.38,2.89,4.19,6.15,5.4,9.7.04.13-.03.27-.16.32-.03,0-.05.01-.08.01Z"/>
        <path class="cls-3" d="m79.08,762.99c-.14,0-.25-.11-.25-.25,0-4.07-.66-8.08-1.97-11.93-.04-.13.03-.27.16-.32.13-.05.27.03.32.16,1.33,3.9,2,7.97,2,12.09,0,.14-.11.25-.25.25Z"/>
        <path class="cls-3" d="m77.09,775s-.05,0-.08-.01c-.13-.04-.2-.19-.16-.32,1.31-3.85,1.97-7.86,1.97-11.93,0-.14.11-.25.25-.25s.25.11.25.25c0,4.12-.67,8.19-2,12.09-.04.1-.13.17-.24.17Z"/>
        <path class="cls-3" d="m73.35,785.83c-.06,0-.11-.02-.16-.06-.11-.09-.12-.25-.03-.35,2.49-3.03,4.39-6.45,5.65-10.16.04-.13.19-.2.32-.16.13.04.2.19.16.32-1.28,3.77-3.21,7.24-5.74,10.31-.05.06-.12.09-.19.09Z"/>
        <path class="cls-3" d="m64.42,792.95c-.09,0-.18-.05-.22-.14-.06-.12-.01-.27.11-.34,3.42-1.73,6.39-4.1,8.82-7.06.09-.11.25-.12.35-.03.11.09.12.25.03.35-2.48,3.01-5.5,5.43-8.98,7.19-.04.02-.07.03-.11.03Z"/>
        <path class="cls-3" d="m54.56,795.3c-.14,0-.25-.11-.25-.25s.11-.25.25-.25c3.38,0,6.76-.8,9.77-2.33.12-.06.27-.01.34.11.06.12.01.27-.11.34-3.09,1.56-6.54,2.38-10,2.38Z"/>
        <path class="cls-3" d="m54.56,795.3c-3.45,0-6.91-.82-10-2.38-.12-.06-.17-.21-.11-.34.06-.12.21-.17.34-.11,3.02,1.52,6.4,2.33,9.77,2.33.14,0,.25.11.25.25s-.11.25-.25.25Z"/>
        <path class="cls-3" d="m44.61,792.95s-.08,0-.11-.03c-3.48-1.76-6.5-4.18-8.98-7.19-.09-.11-.07-.26.03-.35s.26-.07.35.03c2.43,2.96,5.4,5.34,8.82,7.06.12.06.17.21.11.34-.04.09-.13.14-.22.14Z"/>
        <path class="cls-3" d="m35.68,785.83c-.07,0-.14-.03-.19-.09-2.53-3.08-4.46-6.54-5.74-10.31-.04-.13.03-.27.16-.32.13-.05.27.03.32.16,1.26,3.71,3.17,7.13,5.65,10.16.09.11.07.26-.03.35-.05.04-.1.06-.16.06Z"/>
        <path class="cls-3" d="m30.07,775.63c-.1,0-.2-.07-.24-.17-1.4-4.11-2.11-8.39-2.11-12.72,0-.14.11-.25.25-.25s.25.11.25.25c0,4.28.7,8.51,2.08,12.56.04.13-.03.27-.16.32-.03,0-.05.01-.08.01Z"/>
        <path class="cls-3" d="m27.98,762.99c-.14,0-.25-.11-.25-.25,0-4.34.71-8.62,2.11-12.72.04-.13.19-.2.32-.16.13.04.2.19.16.32-1.38,4.05-2.08,8.28-2.08,12.56,0,.14-.11.25-.25.25Z"/>
        <path class="cls-3" d="m29.98,750.31s-.05,0-.08-.01c-.13-.04-.2-.19-.16-.32,1.28-3.77,3.21-7.24,5.74-10.31.09-.11.24-.12.35-.04.11.09.12.25.03.35-2.49,3.03-4.39,6.45-5.65,10.16-.04.1-.13.17-.24.17Z"/>
        <path class="cls-3" d="m35.71,740.08c-.06,0-.11-.02-.16-.06-.11-.09-.12-.25-.03-.35,2.48-3.02,5.5-5.43,8.98-7.19.12-.06.27-.01.34.11.06.12.01.27-.11.34-3.42,1.72-6.39,4.1-8.82,7.06-.05.06-.12.09-.19.09Z"/>
        <path class="cls-3" d="m44.67,732.95c-.09,0-.18-.05-.22-.14-.06-.12-.01-.27.11-.34,3.09-1.56,6.54-2.38,10-2.38.14,0,.25.11.25.25s-.11.25-.25.25c-3.38,0-6.76.8-9.77,2.33-.04.02-.07.03-.11.03Z"/>
        <path class="cls-3" d="m64.44,732.95s-.08,0-.11-.03c-3.02-1.52-6.4-2.33-9.77-2.33-.14,0-.25-.11-.25-.25s.11-.25.25-.25c3.46,0,6.91.82,10,2.38.12.06.17.21.11.34-.04.09-.13.14-.22.14Z"/>
        <path class="cls-3" d="m73.32,740.08c-.07,0-.14-.03-.19-.09-2.43-2.96-5.4-5.33-8.82-7.06-.12-.06-.17-.21-.11-.34.06-.12.21-.17.34-.11,3.48,1.76,6.5,4.18,8.98,7.19.09.11.07.26-.03.35-.05.04-.1.06-.16.06Z"/>
        <path class="cls-3" d="m79.05,750.31c-.1,0-.2-.07-.24-.17-1.26-3.71-3.16-7.13-5.65-10.16-.09-.11-.07-.26.03-.35.11-.09.26-.07.35.04,2.53,3.08,4.46,6.55,5.74,10.31.04.13-.03.27-.16.32-.03,0-.05.01-.08.01Z"/>
        <path class="cls-3" d="m81.05,762.99c-.14,0-.25-.11-.25-.25,0-4.28-.7-8.51-2.08-12.56-.04-.13.03-.27.16-.32.13-.05.27.03.32.16,1.4,4.11,2.11,8.39,2.11,12.72,0,.14-.11.25-.25.25Z"/>
        <path class="cls-3" d="m78.96,775.63s-.05,0-.08-.01c-.13-.04-.2-.19-.16-.32,1.38-4.05,2.08-8.28,2.08-12.56,0-.14.11-.25.25-.25s.25.11.25.25c0,4.34-.71,8.62-2.11,12.72-.04.1-.13.17-.24.17Z"/>
        <path class="cls-3" d="m122.65,700.12c-.13,0-.23-.1-.25-.22l-4.54-43.4v-3.97h-3.6c-.14,0-.25-.11-.25-.25v-6.93c0-.14.11-.25.25-.25s.25.11.25.25v6.68h3.6c.14,0,.25.11.25.25v4.19l4.54,43.37c.01.14-.09.26-.22.28,0,0-.02,0-.03,0Z"/>
        <path class="cls-3" d="m139.89,715.62c-9.02,0-16.54-6.77-17.49-15.74-.01-.14.08-.26.22-.28.14-.02.26.09.27.22.92,8.72,8.22,15.29,16.99,15.29.14,0,.25.11.25.25s-.11.25-.25.25Z"/>
        <path class="cls-3" d="m147.12,715.62h-7.19c-.14,0-.25-.11-.25-.25s.11-.25.25-.25h7.19c.14,0,.25.11.25.25s-.11.25-.25.25Z"/>
        <path class="cls-3" d="m147.08,715.62c-.14,0-.25-.11-.25-.25s.11-.25.25-.25c8.77,0,16.07-6.57,16.99-15.29.01-.14.14-.24.27-.22.14.01.24.14.22.28-.95,8.97-8.46,15.74-17.49,15.74Z"/>
        <path class="cls-3" d="m164.33,700.12s-.02,0-.03,0c-.14-.01-.24-.14-.22-.28l4.62-43.4v-19.66c0-.14.11-.25.25-.25s.25.11.25.25v19.69l-4.62,43.42c-.01.13-.12.22-.25.22Z"/>
        <path class="cls-3" d="m168.87,637c-.14,0-.25-.11-.25-.25,0-1.11-.91-2.02-2.02-2.02-.14,0-.25-.11-.25-.25s.11-.25.25-.25c1.39,0,2.52,1.13,2.52,2.52,0,.14-.11.25-.25.25Z"/>
        <path class="cls-3" d="m166.64,634.73h-46.22c-.14,0-.25-.11-.25-.25s.11-.25.25-.25h46.22c.14,0,.25.11.25.25s-.11.25-.25.25Z"/>
        <path class="cls-3" d="m118.11,637c-.14,0-.25-.11-.25-.25,0-1.39,1.13-2.52,2.52-2.52.14,0,.25.11.25.25s-.11.25-.25.25c-1.11,0-2.02.91-2.02,2.02,0,.14-.11.25-.25.25Z"/>
        <path class="cls-3" d="m118.11,645.6h-3.85c-.14,0-.25-.11-.25-.25s.11-.25.25-.25h3.6v-8.31c0-.14.11-.25.25-.25s.25.11.25.25v8.56c0,.14-.11.25-.25.25Z"/>
        <path class="cls-3" d="m127.27,699.61c-.13,0-.23-.1-.25-.22l-3.94-37.66c-.01-.14.09-.26.22-.28.14-.02.26.09.27.22l3.94,37.66c.01.14-.09.26-.22.28,0,0-.02,0-.03,0Z"/>
        <path class="cls-3" d="m124.96,699.87c-.13,0-.24-.1-.25-.22l-3.68-35.44c-.01-.14.09-.26.22-.27.14-.02.26.09.27.22l3.68,35.44c.01.14-.09.26-.22.27,0,0-.02,0-.03,0Z"/>
        <path class="cls-3" d="m159.79,699.61s-.02,0-.03,0c-.14-.01-.24-.14-.22-.28l3.94-37.66c.01-.14.14-.24.27-.22.14.01.24.14.22.28l-3.94,37.66c-.01.13-.12.22-.25.22Z"/>
        <path class="cls-3" d="m162.1,699.87s-.02,0-.03,0c-.14-.01-.24-.14-.22-.27l3.68-35.44c.01-.14.13-.24.27-.22.14.01.24.14.22.27l-3.68,35.44c-.01.13-.12.22-.25.22Z"/>
        <path class="cls-3" d="m118.88,652.54c-.14,0-.25-.11-.25-.25v-6.93c0-.14.11-.25.25-.25s.25.11.25.25v6.93c0,.14-.11.25-.25.25Z"/>
        <path class="cls-3" d="m121.2,664.46c-.13,0-.23-.1-.25-.22-.07-.71.16-1.42.63-1.95.48-.53,1.16-.83,1.87-.83.14,0,.25.11.25.25s-.11.25-.25.25c-.57,0-1.12.24-1.5.67-.38.42-.57.99-.51,1.56.01.14-.08.26-.22.28,0,0-.02,0-.03,0Z"/>
        <path class="cls-3" d="m165.69,664.46s-.02,0-.03,0c-.14-.01-.24-.14-.22-.28.06-.57-.13-1.14-.51-1.56-.38-.42-.93-.67-1.5-.67-.14,0-.25-.11-.25-.25s.11-.25.25-.25c.71,0,1.4.3,1.87.83.48.53.71,1.24.63,1.95-.01.13-.12.22-.25.22Z"/>
        <path class="cls-3" d="m163.47,661.95h-39.97c-.14,0-.25-.11-.25-.25s.11-.25.25-.25h39.97c.14,0,.25.11.25.25s-.11.25-.25.25Z"/>
        <path class="cls-3" d="m118.11,656.73c-.07,0-.14-.03-.19-.09-.09-.11-.08-.26.03-.35l3.77-3.17c.11-.09.26-.08.35.03.09.11.08.26-.03.35l-3.77,3.17s-.1.06-.16.06Z"/>
        <path class="cls-3" d="m168.95,656.73c-.06,0-.11-.02-.16-.06l-3.77-3.17c-.11-.09-.12-.25-.03-.35.09-.11.25-.12.35-.03l3.77,3.17c.11.09.12.25.03.35-.05.06-.12.09-.19.09Z"/>
        <path class="cls-3" d="m121.88,638.58c-.07,0-.13-.03-.18-.08l-3.08-3.17c-.1-.1-.09-.26,0-.35.1-.1.26-.09.35,0l3.08,3.17c.1.1.09.26,0,.35-.05.05-.11.07-.17.07Z"/>
        <path class="cls-3" d="m165.1,638.58c-.06,0-.13-.02-.18-.07-.1-.1-.1-.26,0-.35l3.17-3.17c.1-.1.26-.1.35,0s.1.26,0,.35l-3.17,3.17s-.11.07-.18.07Z"/>
        <path class="cls-3" d="m164.46,653.89c-.12,0-.23-.09-.25-.21-.02-.14.07-.26.21-.29.44-.07.77-.44.77-.89,0-.14.11-.25.25-.25s.25.11.25.25c0,.7-.5,1.28-1.19,1.39-.01,0-.03,0-.04,0Z"/>
        <path class="cls-3" d="m122.51,653.89s-.03,0-.04,0c-.69-.11-1.19-.69-1.19-1.39,0-.14.11-.25.25-.25s.25.11.25.25c0,.45.32.83.77.89.14.02.23.15.21.29-.02.12-.13.21-.25.21Z"/>
        <path class="cls-3" d="m121.53,639.31c-.14,0-.25-.11-.25-.25,0-.78.63-1.41,1.41-1.41.14,0,.25.11.25.25s-.11.25-.25.25c-.5,0-.91.41-.91.91,0,.14-.11.25-.25.25Z"/>
        <path class="cls-3" d="m165.44,639.31c-.14,0-.25-.11-.25-.25,0-.5-.41-.91-.91-.91-.14,0-.25-.11-.25-.25s.11-.25.25-.25c.77,0,1.41.63,1.41,1.41,0,.14-.11.25-.25.25Z"/>
        <path class="cls-3" d="m165.44,652.79c-.14,0-.25-.11-.25-.25v-13.44c0-.14.11-.25.25-.25s.25.11.25.25v13.44c0,.14-.11.25-.25.25Z"/>
        <path class="cls-3" d="m164.33,638.24h-41.6c-.14,0-.25-.11-.25-.25s.11-.25.25-.25h41.6c.14,0,.25.11.25.25s-.11.25-.25.25Z"/>
        <path class="cls-3" d="m121.53,652.79c-.14,0-.25-.11-.25-.25v-13.44c0-.14.11-.25.25-.25s.25.11.25.25v13.44c0,.14-.11.25-.25.25Z"/>
        <path class="cls-3" d="m143.49,655.53c-7.02,0-14.04-.54-21.01-1.61-.14-.02-.23-.15-.21-.29s.15-.23.29-.21c13.89,2.14,27.98,2.14,41.87,0,.14-.02.26.07.29.21s-.07.26-.21.29c-6.97,1.08-13.99,1.61-21.01,1.61Z"/>
        <path class="cls-3" d="m143.49,658.96c-8.5,0-17.01-.77-25.46-2.32-.14-.03-.23-.16-.2-.29s.15-.23.29-.2c16.83,3.09,33.9,3.09,50.73,0,.14-.03.27.07.29.2.02.14-.06.27-.2.29-8.45,1.55-16.95,2.32-25.45,2.32Z"/>
        <path class="cls-3" d="m118.88,645.6h-.77c-.14,0-.25-.11-.25-.25s.11-.25.25-.25h.77c.14,0,.25.11.25.25s-.11.25-.25.25Z"/>
        <polygon class="cls-3" points="118.88 652.11 118.79 652.2 118.71 652.29 118.79 652.37 118.88 652.46 118.97 652.37 119.05 652.29 118.97 652.2 118.88 652.11"/>
        <polygon class="cls-2" points="118.88 652.11 118.79 652.2 118.71 652.29 118.79 652.37 118.88 652.46 118.97 652.37 119.05 652.29 118.97 652.2 118.88 652.11"/>
        <polygon class="cls-3" points="118.88 652.11 118.79 652.2 118.71 652.29 118.79 652.37 118.88 652.46 118.97 652.37 119.05 652.29 118.97 652.2 118.88 652.11"/>
        <polygon class="cls-2" points="118.88 652.11 118.79 652.2 118.71 652.29 118.79 652.37 118.88 652.46 118.97 652.37 119.05 652.29 118.97 652.2 118.88 652.11"/>
        <polygon class="cls-3" points="118.88 652.11 118.79 652.2 118.71 652.29 118.79 652.37 118.88 652.46 118.97 652.37 119.05 652.29 118.97 652.2 118.88 652.11"/>
        <polygon class="cls-2" points="118.88 652.11 118.79 652.2 118.71 652.29 118.79 652.37 118.88 652.46 118.97 652.37 119.05 652.29 118.97 652.2 118.88 652.11"/>
        <polygon class="cls-3" points="118.88 652.11 118.79 652.2 118.71 652.29 118.79 652.37 118.88 652.46 118.97 652.37 119.05 652.29 118.97 652.2 118.88 652.11"/>
        <polygon class="cls-2" points="118.88 652.11 118.79 652.2 118.71 652.29 118.79 652.37 118.88 652.46 118.97 652.37 119.05 652.29 118.97 652.2 118.88 652.11"/>
        <path class="cls-3" d="m118.88,652.54h-.77c-.14,0-.25-.11-.25-.25s.11-.25.25-.25h.77c.14,0,.25.11.25.25s-.11.25-.25.25Z"/>
        <path class="cls-3" d="m139.89,711c-6.65,0-12.19-4.99-12.89-11.6-.01-.14.08-.26.22-.28.13-.02.26.09.27.22.67,6.36,6,11.16,12.39,11.16.14,0,.25.11.25.25s-.11.25-.25.25Z"/>
        <path class="cls-3" d="m139.89,713.31c-7.84,0-14.37-5.88-15.19-13.67-.01-.14.08-.26.22-.28.13-.02.26.09.27.22.79,7.54,7.11,13.22,14.69,13.22.14,0,.25.11.25.25s-.11.25-.25.25Z"/>
        <path class="cls-3" d="m147.12,711h-7.19c-.14,0-.25-.11-.25-.25s.11-.25.25-.25h7.19c.14,0,.25.11.25.25s-.11.25-.25.25Z"/>
        <path class="cls-3" d="m147.12,713.31h-7.19c-.14,0-.25-.11-.25-.25s.11-.25.25-.25h7.19c.14,0,.25.11.25.25s-.11.25-.25.25Z"/>
        <path class="cls-3" d="m147.08,711c-.14,0-.25-.11-.25-.25s.11-.25.25-.25c6.39,0,11.72-4.8,12.39-11.16.01-.14.14-.24.27-.22.14.01.24.14.22.28-.7,6.61-6.24,11.6-12.89,11.6Z"/>
        <path class="cls-3" d="m147.08,713.31c-.14,0-.25-.11-.25-.25s.11-.25.25-.25c7.58,0,13.9-5.68,14.69-13.22.01-.14.14-.24.27-.22.14.01.24.14.22.28-.82,7.79-7.35,13.67-15.19,13.67Z"/>
        <path class="cls-3" d="m137.71,675.13s-.03,0-.04,0c-.14-.02-.23-.15-.21-.29l.17-1.11.26-1.05.53-1.08s.02-.04.04-.05l.68-.77c.09-.1.25-.11.35-.02.1.09.11.25.02.35l-.66.75-.5,1-.24.98-.17,1.09c-.02.12-.13.21-.25.21Z"/>
        <path class="cls-3" d="m140.62,670.08c-.09,0-.18-.05-.22-.14-.06-.12-.01-.27.11-.33l.51-.26,1.06-.36,1.15-.18,1.09.08.53.09c.14.02.23.15.21.29s-.15.23-.29.21l-.51-.09-1.01-.08-1.05.17-.99.33-.48.24s-.07.03-.11.03Z"/>
        <path class="cls-3" d="m149.01,673.42c-.1,0-.2-.06-.23-.17l-.34-.94-.58-.89-.74-.73-.84-.67c-.11-.09-.13-.24-.04-.35.09-.11.24-.13.35-.04l.86.68.79.79.63.98.37.99c.05.13-.02.27-.15.32-.03,0-.06.01-.09.01Z"/>
        <path class="cls-3" d="m147.72,679.07c-.05,0-.11-.02-.16-.05-.11-.09-.13-.24-.04-.35l.34-.43.59-.84.4-.98.15-1.06v-.48c0-.14.11-.25.25-.25s.25.11.25.25v.51l-.17,1.15-.44,1.08-.63.9-.35.44c-.05.06-.12.09-.2.09Z"/>
        <path class="cls-3" d="m143.29,680.87l-1.17-.17c-.14-.02-.23-.15-.21-.29s.15-.23.29-.21l1.11.17.97-.09,1.08-.25.89-.41c.13-.06.27,0,.33.12.06.13,0,.27-.12.33l-.94.43-1.16.27-1.06.09Z"/>
        <path class="cls-3" d="m140.62,680.1s-.09-.01-.13-.04l-.43-.26-.89-.8-.71-.89-.54-.98-.19-.55c-.04-.13.03-.27.16-.32.13-.04.27.03.32.16l.17.51.5.9.66.82.83.74.39.23c.12.07.16.23.09.34-.05.08-.13.12-.21.12Z"/>
        <path class="cls-3" d="m542.13,843.83h-11.55c-.14,0-.25-.11-.25-.25s.11-.25.25-.25h11.55c.14,0,.25.11.25.25s-.11.25-.25.25Z"/>
        <path class="cls-3" d="m542.13,739.92h-11.55c-.14,0-.25-.11-.25-.25s.11-.25.25-.25h11.55c.14,0,.25.11.25.25s-.11.25-.25.25Z"/>
        <path class="cls-3" d="m542.13,243.07h-11.55c-.14,0-.25-.11-.25-.25s.11-.25.25-.25h11.55c.14,0,.25.11.25.25s-.11.25-.25.25Z"/>
        <path class="cls-3" d="m834.08,549.23h-291.95c-.14,0-.25-.11-.25-.25s.11-.25.25-.25h291.95c.14,0,.25.11.25.25s-.11.25-.25.25Z"/>
        <path class="cls-3" d="m834.08,560.78h-291.95c-.14,0-.25-.11-.25-.25s.11-.25.25-.25h291.95c.14,0,.25.11.25.25s-.11.25-.25.25Z"/>
        <path class="cls-3" d="m542.13,549.23c-.14,0-.25-.11-.25-.25V242.82c0-.14.11-.25.25-.25s.25.11.25.25v306.16c0,.14-.11.25-.25.25Z"/>
        <path class="cls-3" d="m542.13,739.92c-.14,0-.25-.11-.25-.25v-179.14c0-.14.11-.25.25-.25s.25.11.25.25v179.14c0,.14-.11.25-.25.25Z"/>
        <path class="cls-3" d="m542.13,913.16c-.14,0-.25-.11-.25-.25v-69.33c0-.14.11-.25.25-.25s.25.11.25.25v69.33c0,.14-.11.25-.25.25Z"/>
        <path class="cls-3" d="m530.57,739.92c-.14,0-.25-.11-.25-.25V242.82c0-.14.11-.25.25-.25s.25.11.25.25v496.86c0,.14-.11.25-.25.25Z"/>
        <path class="cls-3" d="m530.57,913.16c-.14,0-.25-.11-.25-.25v-69.33c0-.14.11-.25.25-.25s.25.11.25.25v69.33c0,.14-.11.25-.25.25Z"/>
        <path class="cls-3" d="m211.66,623.18H17.63c-.14,0-.25-.11-.25-.25s.11-.25.25-.25h194.04c.14,0,.25.11.25.25s-.11.25-.25.25Z"/>
        <path class="cls-3" d="m78.82,634.73H17.63c-.14,0-.25-.11-.25-.25s.11-.25.25-.25h61.2c.14,0,.25.11.25.25s-.11.25-.25.25Z"/>
        <path class="cls-3" d="m200.11,634.73h-109.73c-.14,0-.25-.11-.25-.25s.11-.25.25-.25h109.73c.14,0,.25.11.25.25s-.11.25-.25.25Z"/>
        <path class="cls-3" d="m78.82,704.06H17.63c-.14,0-.25-.11-.25-.25s.11-.25.25-.25h61.2c.14,0,.25.11.25.25s-.11.25-.25.25Z"/>
        <path class="cls-3" d="m90.38,715.62H17.63c-.14,0-.25-.11-.25-.25s.11-.25.25-.25h72.75c.14,0,.25.11.25.25s-.11.25-.25.25Z"/>
        <path class="cls-3" d="m211.66,716.82c-.14,0-.25-.11-.25-.25v-93.64c0-.14.11-.25.25-.25s.25.11.25.25v93.64c0,.14-.11.25-.25.25Z"/>
        <path class="cls-3" d="m211.66,814.99c-.14,0-.25-.11-.25-.25v-5.73c0-.14.11-.25.25-.25s.25.11.25.25v5.73c0,.14-.11.25-.25.25Z"/>
        <path class="cls-3" d="m200.11,716.82c-.14,0-.25-.11-.25-.25v-82.08c0-.14.11-.25.25-.25s.25.11.25.25v82.08c0,.14-.11.25-.25.25Z"/>
        <path class="cls-3" d="m200.11,814.99c-.14,0-.25-.11-.25-.25v-5.73c0-.14.11-.25.25-.25s.25.11.25.25v5.73c0,.14-.11.25-.25.25Z"/>
        <path class="cls-3" d="m90.38,715.62c-.14,0-.25-.11-.25-.25v-80.88c0-.14.11-.25.25-.25s.25.11.25.25v80.88c0,.14-.11.25-.25.25Z"/>
        <path class="cls-3" d="m78.82,704.06c-.14,0-.25-.11-.25-.25v-69.33c0-.14.11-.25.25-.25s.25.11.25.25v69.33c0,.14-.11.25-.25.25Z"/>
        <path class="cls-3" d="m211.66,716.82h-11.55c-.14,0-.25-.11-.25-.25s.11-.25.25-.25h11.55c.14,0,.25.11.25.25s-.11.25-.25.25Z"/>
        <path class="cls-3" d="m211.66,809.25h-11.55c-.14,0-.25-.11-.25-.25s.11-.25.25-.25h11.55c.14,0,.25.11.25.25s-.11.25-.25.25Z"/>
        <path class="cls-3" d="m542.13,843.83c-.14,0-.25-.11-.25-.25v-6.6h-11.05v6.6c0,.14-.11.25-.25.25s-.25-.11-.25-.25v-6.85c0-.14.11-.25.25-.25h11.55c.14,0,.25.11.25.25v6.85c0,.14-.11.25-.25.25Z"/>
        <path class="cls-3" d="m542.13,746.86h-11.55c-.14,0-.25-.11-.25-.25v-6.93c0-.14.11-.25.25-.25s.25.11.25.25v6.68h11.05v-6.68c0-.14.11-.25.25-.25s.25.11.25.25v6.93c0,.14-.11.25-.25.25Z"/>
        <path class="cls-3" d="m632.17,836.99h-90.04c-.14,0-.25-.11-.25-.25v-3.51c0-.14.11-.25.25-.25h90.04c.14,0,.25.11.25.25v3.51c0,.14-.11.25-.25.25Zm-89.79-.5h89.54v-3.01h-89.54v3.01Z"/>
        <path class="cls-3" d="m632.17,836.94c-.14,0-.25-.11-.25-.25,0-49.54-40.3-89.83-89.83-89.83-.14,0-.25-.11-.25-.25s.11-.25.25-.25c49.81,0,90.33,40.52,90.33,90.33,0,.14-.11.25-.25.25Z"/>
        <path class="cls-3" d="m542.13,146.09h-11.55c-.14,0-.25-.11-.25-.25v-6.93c0-.14.11-.25.25-.25s.25.11.25.25v6.68h11.05v-6.68c0-.14.11-.25.25-.25s.25.11.25.25v6.93c0,.14-.11.25-.25.25Z"/>
        <path class="cls-3" d="m542.13,243.07c-.14,0-.25-.11-.25-.25v-6.68h-11.05v6.68c0,.14-.11.25-.25.25s-.25-.11-.25-.25v-6.93c0-.14.11-.25.25-.25h11.55c.14,0,.25.11.25.25v6.93c0,.14-.11.25-.25.25Z"/>
        <path class="cls-3" d="m632.17,149.51h-90.04c-.14,0-.25-.11-.25-.25v-3.42c0-.14.11-.25.25-.25h90.04c.14,0,.25.11.25.25v3.42c0,.14-.11.25-.25.25Zm-89.79-.5h89.54v-2.92h-89.54v2.92Z"/>
        <path class="cls-3" d="m542.09,236.13c-.14,0-.25-.11-.25-.25s.11-.25.25-.25c49.54,0,89.83-40.3,89.83-89.83,0-.14.11-.25.25-.25s.25.11.25.25c0,49.81-40.52,90.33-90.33,90.33Z"/>
        <path class="cls-3" d="m21.05,704.06c-.06,0-.11-.02-.16-.06-.11-.09-.12-.25-.03-.35l57.77-69.33c.09-.11.25-.12.35-.03.11.09.12.25.03.35l-57.77,69.33c-.05.06-.12.09-.19.09Z"/>
        <path class="cls-3" d="m78.82,704.06c-.07,0-.14-.03-.19-.09l-57.77-69.33c-.09-.11-.07-.26.03-.35.11-.09.26-.07.35.03l57.77,69.33c.09.11.07.26-.03.35-.05.04-.1.06-.16.06Z"/>
        <path class="cls-3" d="m211.66,809.25c-.14,0-.25-.11-.25-.25v-6.68h-11.05v6.68c0,.14-.11.25-.25.25s-.25-.11-.25-.25v-6.93c0-.14.11-.25.25-.25h11.55c.14,0,.25.11.25.25v6.93c0,.14-.11.25-.25.25Z"/>
        <path class="cls-3" d="m211.66,723.75h-11.55c-.14,0-.25-.11-.25-.25v-6.93c0-.14.11-.25.25-.25s.25.11.25.25v6.68h11.05v-6.68c0-.14.11-.25.25-.25s.25.11.25.25v6.93c0,.14-.11.25-.25.25Z"/>
        <path class="cls-3" d="m203.62,802.32c-.14,0-.25-.11-.25-.25v-78.57c0-.14.11-.25.25-.25s.25.11.25.25v78.57c0,.14-.11.25-.25.25Z"/>
        <path class="cls-3" d="m211.66,802.32c-.14,0-.25-.11-.25-.25v-78.57c0-.14.11-.25.25-.25s.25.11.25.25v78.57c0,.14-.11.25-.25.25Z"/>
        <path class="cls-3" d="m200.11,802.32h-78.57c-.14,0-.25-.11-.25-.25v-3.51c0-.14.11-.25.25-.25h78.57c.14,0,.25.11.25.25v3.51c0,.14-.11.25-.25.25Zm-78.32-.5h78.07v-3.01h-78.07v3.01Z"/>
        <path class="cls-3" d="m121.53,802.28c-.14,0-.25-.11-.25-.25,0-43.44,35.34-78.78,78.78-78.78.14,0,.25.11.25.25s-.11.25-.25.25c-43.16,0-78.28,35.12-78.28,78.28,0,.14-.11.25-.25.25Z"/>
        <path class="cls-3" d="m28.58,870.62s-.09-.01-.13-.04l-10.96-6.5c-.08-.04-.12-.13-.12-.21s.05-.17.12-.21l10.96-6.5c.08-.05.17-.05.25,0,.08.04.13.13.13.22v13.01c0,.09-.05.17-.13.22-.04.02-.08.03-.12.03Zm-10.47-6.75l10.22,6.07v-12.13l-10.22,6.07Z"/>
        <path class="cls-3" d="m21.05,704.06c-.14,0-.25-.11-.25-.25v-69.33c0-.14.11-.25.25-.25s.25.11.25.25v69.33c0,.14-.11.25-.25.25Z"/>
        <path class="cls-3" d="m818.33,116.99h-103.99c-.14,0-.25-.11-.25-.25v-50.84c0-.14.11-.25.25-.25h103.99c.14,0,.25.11.25.25v50.84c0,.14-.11.25-.25.25Zm-103.74-.5h103.49v-50.34h-103.49v50.34Z"/>
        <path class="cls-3" d="m714.34,116.99c-.09,0-.18-.05-.22-.14-.06-.12,0-.27.11-.33l103.99-50.84c.12-.06.27,0,.33.12.06.12,0,.27-.11.33l-103.99,50.84s-.07.03-.11.03Z"/>
        <path class="cls-3" d="m739.93,101.24c-.11,0-.21-.07-.24-.18l-6.78-22.32-6.78,22.32c-.04.13-.18.21-.31.17-.13-.04-.21-.18-.17-.31l7.02-23.11c.06-.21.41-.21.48,0l7.02,23.11c.04.13-.03.27-.17.31-.02,0-.05.01-.07.01Z"/>
        <path class="cls-3" d="m737.28,93.54h-8.82c-.14,0-.25-.11-.25-.25s.11-.25.25-.25h8.82c.14,0,.25.11.25.25s-.11.25-.25.25Z"/>
        <path class="cls-3" d="m801.56,113.05h-3.51s-.09-.01-.13-.04l-1.71-1.03s-.05-.04-.07-.06l-1.8-2.23s-.03-.04-.04-.07l-.86-2.23-.86-3.28s0-.04,0-.06v-5.56s0-.04,0-.06l.86-3.25.86-2.25s.02-.05.04-.07l1.8-2.23s.04-.04.06-.05l1.71-1.11s.09-.04.14-.04h3.51s.09.01.13.04l1.8,1.11s.05.03.06.06l1.8,2.23s.03.04.04.07l.86,2.23c.05.13-.01.27-.14.32-.13.05-.27-.01-.32-.14l-.84-2.19-1.75-2.16-1.7-1.05h-3.36l-1.62,1.05-1.75,2.16-.84,2.19-.84,3.19v5.5l.85,3.22.83,2.16,1.74,2.16,1.61.97h3.37l1.7-.97,1.74-2.16.84-2.19c.05-.13.19-.19.32-.14.13.05.19.19.14.32l-.86,2.23s-.02.05-.04.07l-1.8,2.23s-.04.04-.07.06l-1.8,1.03s-.08.03-.12.03Z"/>
        <path class="cls-3" d="m456.71,545.97h-64.79c-.09,0-.17-.05-.22-.12l-32.35-56.15c-.04-.08-.04-.17,0-.25l32.35-56.06c.04-.08.13-.12.22-.12h64.79c.09,0,.17.05.22.12l32.44,56.06c.04.08.04.17,0,.25l-32.44,56.15c-.04.08-.13.12-.22.12Zm-64.65-.5h64.5l32.29-55.9-32.29-55.81h-64.5l-32.21,55.81,32.21,55.9Z"/>
      </g>
      <g>
        <path class="cls-3" d="m427.58,506.15c-.99,1.7-2.62,3.4-4.9,5.1-3.76,2.73-7.99,4.1-12.69,4.1-5.91,0-10.84-1.97-14.78-5.91-4.61-4.61-6.92-11.22-6.92-19.81,0-7.93,2.28-14.31,6.85-19.14,4.16-4.39,9.25-6.58,15.25-6.58,2.37,0,4.88.4,7.52,1.21,2.64.81,4.01,1.21,4.1,1.21,1.16,0,1.95-.76,2.35-2.28l1.75-.13.54,16.19-1.41.13c-2.15-9.45-6.92-14.17-14.31-14.17-2.11,0-4.26.38-6.45,1.14-2.42.94-4.32,2.15-5.71,3.63-3.72,4.16-5.6,10.48-5.64,18.94-.04,7.52,1.99,13.39,6.11,17.6,3.49,3.58,7.7,5.37,12.63,5.37,5.51,0,10.48-2.6,14.91-7.79l.81,1.21Z"/>
        <path class="cls-3" d="m460.36,504.67l-3.49,9.81h-25.25v-.34l11.69-14.24c6.18-7.57,9.45-14.22,9.81-19.95.18-2.82-.56-5.44-2.22-7.86-1.97-3-4.79-4.5-8.46-4.5-2.6,0-4.7,1.32-6.31,3.96-.54.9-1.52,3.27-2.96,7.12l-1.34-.2c.9-5.11,2.71-8.89,5.44-11.35,2.28-2.06,4.97-3.09,8.06-3.09s5.89,1.16,8.13,3.49c2.42,2.6,3.63,5.87,3.63,9.81,0,6.4-2.35,12.45-7.05,18.13l-12.56,15.31h15.05c1.48,0,2.62-.43,3.43-1.28.76-.67,1.79-2.28,3.09-4.84h1.34Z"/>
      </g>
      <g>
        <path class="cls-3" d="m19.94,491.45c-.14,0-.25-.11-.25-.25v-2.23c0-.14.11-.25.25-.25s.25.11.25.25v2.23c0,.14-.11.25-.25.25Z"/>
        <path class="cls-3" d="m20.19,491.71c-.14,0-.25-.11-.25-.25v-2.74c0-.14.11-.25.25-.25s.25.11.25.25v2.74c0,.14-.11.25-.25.25Z"/>
        <path class="cls-3" d="m19.94,491.45h-.86c-.14,0-.25-.11-.25-.25s.11-.25.25-.25h.86c.14,0,.25.11.25.25s-.11.25-.25.25Z"/>
        <path class="cls-3" d="m19.94,489.23h-.86c-.14,0-.25-.11-.25-.25s.11-.25.25-.25h.86c.14,0,.25.11.25.25s-.11.25-.25.25Z"/>
        <path class="cls-3" d="m20.19,491.71c-.06,0-.13-.02-.18-.07l-.26-.26c-.1-.1-.1-.26,0-.35s.26-.1.35,0l.26.26c.1.1.1.26,0,.35-.05.05-.11.07-.18.07Z"/>
        <path class="cls-3" d="m19.94,489.23c-.06,0-.13-.02-.18-.07-.1-.1-.1-.26,0-.35l.26-.26c.1-.1.26-.1.35,0s.1.26,0,.35l-.26.26s-.11.07-.18.07Z"/>
        <path class="cls-3" d="m19.08,491.45c-.14,0-.25-.11-.25-.25v-2.23c0-.14.11-.25.25-.25s.25.11.25.25v2.23c0,.14-.11.25-.25.25Z"/>
        <path class="cls-3" d="m19.08,491.28h-1.45c-.14,0-.25-.11-.25-.25s.11-.25.25-.25h1.45c.14,0,.25.11.25.25s-.11.25-.25.25Z"/>
        <path class="cls-3" d="m19.08,489.4h-1.45c-.14,0-.25-.11-.25-.25s.11-.25.25-.25h1.45c.14,0,.25.11.25.25s-.11.25-.25.25Z"/>
        <path class="cls-3" d="m21.13,491.71h-.94c-.14,0-.25-.11-.25-.25s.11-.25.25-.25h.94c.14,0,.25.11.25.25s-.11.25-.25.25Z"/>
        <path class="cls-3" d="m21.13,488.97h-.94c-.14,0-.25-.11-.25-.25s.11-.25.25-.25h.94c.14,0,.25.11.25.25s-.11.25-.25.25Z"/>
        <path class="cls-3" d="m28.75,490.34h-.94c-.14,0-.25-.11-.25-.25s.11-.25.25-.25h.94c.14,0,.25.11.25.25s-.11.25-.25.25Z"/>
        <path class="cls-3" d="m37.14,490.34h-7.53c-.14,0-.25-.11-.25-.25s.11-.25.25-.25h7.53c.14,0,.25.11.25.25s-.11.25-.25.25Z"/>
        <path class="cls-3" d="m30.98,499.41h-4.11c-.14,0-.25-.11-.25-.25s.11-.25.25-.25h4.11c.14,0,.25.11.25.25s-.11.25-.25.25Z"/>
        <path class="cls-3" d="m30.98,481.44h-4.11c-.14,0-.25-.11-.25-.25s.11-.25.25-.25h4.11c.14,0,.25.11.25.25s-.11.25-.25.25Z"/>
        <path class="cls-3" d="m26.87,499.41c-.14,0-.25-.11-.25-.25v-5.48c0-.14.11-.25.25-.25s.25.11.25.25v5.48c0,.14-.11.25-.25.25Z"/>
        <path class="cls-3" d="m30.98,499.41c-.14,0-.25-.11-.25-.25v-4.96c0-.14.11-.25.25-.25s.25.11.25.25v4.96c0,.14-.11.25-.25.25Z"/>
        <path class="cls-3" d="m30.98,486.66h-4.11c-.14,0-.25-.11-.25-.25s.11-.25.25-.25h4.11c.14,0,.25.11.25.25s-.11.25-.25.25Z"/>
        <path class="cls-3" d="m30.98,494.45h-4.11c-.14,0-.25-.11-.25-.25s.11-.25.25-.25h4.11c.14,0,.25.11.25.25s-.11.25-.25.25Z"/>
        <path class="cls-3" d="m25.76,492.74h-.01l-4.02-.17c-.14,0-.25-.12-.24-.26s.14-.24.26-.24l4.02.17c.14,0,.25.12.24.26,0,.13-.12.24-.25.24Z"/>
        <path class="cls-3" d="m21.73,488.11c-.14,0-.25-.11-.25-.25,0-.14.11-.25.24-.25l4.02-.08h0c.14,0,.25.11.25.25,0,.14-.11.25-.24.25l-4.02.08h0Z"/>
        <path class="cls-3" d="m32.86,487.52h-1.11c-.14,0-.25-.11-.25-.25s.11-.25.25-.25h1.11c.14,0,.25.11.25.25s-.11.25-.25.25Z"/>
        <path class="cls-3" d="m33.63,492.82c-.14,0-.25-.11-.25-.25v-4.45c0-.14.11-.25.25-.25s.25.11.25.25v4.45c0,.14-.11.25-.25.25Z"/>
        <path class="cls-3" d="m32.86,493.59h-1.11c-.14,0-.25-.11-.25-.25s.11-.25.25-.25h1.11c.14,0,.25.11.25.25s-.11.25-.25.25Z"/>
        <path class="cls-3" d="m21.17,492.24c-.11,0-.21-.07-.24-.18-.4-1.29-.41-2.67-.02-3.97.04-.13.18-.21.31-.17.13.04.21.18.17.31-.36,1.2-.35,2.47.02,3.67.04.13-.03.27-.16.31-.02,0-.05.01-.07.01Z"/>
        <path class="cls-3" d="m31.75,490.94c-.14,0-.25-.11-.25-.25v-1.2c0-.14.11-.25.25-.25s.25.11.25.25v1.2c0,.14-.11.25-.25.25Z"/>
        <path class="cls-3" d="m32.18,491.11c-.14,0-.25-.11-.25-.25v-1.54c0-.14.11-.25.25-.25s.25.11.25.25v1.54c0,.14-.11.25-.25.25Z"/>
        <path class="cls-3" d="m32.6,491.11h-.43s-.06,0-.09-.02l-.43-.17c-.13-.05-.19-.2-.14-.33s.2-.19.32-.14l.38.15h.13v-1.04h-.18c-.14,0-.25-.11-.25-.25s.11-.25.25-.25h.43c.14,0,.25.11.25.25v1.54c0,.14-.11.25-.25.25Z"/>
        <path class="cls-3" d="m32.6,491.11c-.11,0-.21-.07-.24-.18-.04-.13.04-.27.17-.31l1.71-.51c.13-.04.27.04.31.17.04.13-.04.27-.17.31l-1.71.51s-.05.01-.07.01Z"/>
        <path class="cls-3" d="m34.32,490s-.04,0-.06,0l-1.71-.43c-.13-.03-.22-.17-.18-.3.03-.13.17-.22.3-.18l1.71.43c.13.03.22.17.18.3-.03.11-.13.19-.24.19Z"/>
        <path class="cls-3" d="m31.75,489.74c-.1,0-.19-.06-.23-.16-.05-.13.01-.27.14-.33l.43-.17c.13-.05.27.01.32.14s-.01.27-.14.33l-.43.17s-.06.02-.09.02Z"/>
        <path class="cls-3" d="m21.67,492.57h-.01c-.3-.01-.57-.22-.66-.51-.04-.13.03-.27.16-.31.13-.04.27.03.31.17.03.09.11.15.2.16.14,0,.25.12.24.26,0,.13-.12.24-.25.24Z"/>
        <path class="cls-3" d="m21.24,488.45s-.05,0-.07-.01c-.13-.04-.21-.18-.17-.31.09-.3.36-.51.67-.51.14-.03.25.11.26.24,0,.14-.11.25-.24.26-.1,0-.18.07-.21.16-.03.11-.13.18-.24.18Z"/>
        <path class="cls-3" d="m33.63,488.33c-.14,0-.25-.11-.25-.25,0-.31-.25-.56-.56-.56-.14,0-.25-.11-.25-.25s.11-.25.25-.25c.59,0,1.06.48,1.06,1.06,0,.14-.11.25-.25.25Z"/>
        <path class="cls-3" d="m30.98,486.75c-.14,0-.25-.11-.25-.25v-5.31c0-.14.11-.25.25-.25s.25.11.25.25v5.31c0,.14-.11.25-.25.25Z"/>
        <path class="cls-3" d="m31.7,487.52c-.59,0-1.06-.48-1.06-1.06,0-.14.11-.25.25-.25s.25.11.25.25c0,.31.25.56.56.56.14,0,.25.11.25.25s-.11.25-.25.25Z"/>
        <path class="cls-3" d="m30.81,487.94h-2.82c-.14,0-.25-.11-.25-.25s.11-.25.25-.25h2.82c.14,0,.25.11.25.25s-.11.25-.25.25Z"/>
        <path class="cls-3" d="m25.66,488.03c-.14,0-.25-.11-.25-.24,0-.14.11-.25.24-.26.5-.01.88-.41.88-.91,0-.14.11-.25.25-.25s.25.11.25.25c0,.77-.6,1.39-1.37,1.41h0Z"/>
        <path class="cls-3" d="m25.76,488.03c-.13,0-.24-.11-.25-.24,0-.14.1-.25.24-.26l2.23-.09c.13.02.25.1.26.24,0,.14-.1.25-.24.26l-2.23.09h0Z"/>
        <path class="cls-3" d="m32.82,493.59c-.14,0-.25-.11-.25-.25s.11-.25.25-.25c.31,0,.56-.25.56-.56,0-.14.11-.25.25-.25s.25.11.25.25c0,.59-.48,1.06-1.06,1.06Z"/>
        <path class="cls-3" d="m30.89,494.41c-.14,0-.25-.11-.25-.25,0-.59.48-1.06,1.06-1.06.14,0,.25.11.25.25s-.11.25-.25.25c-.31,0-.56.25-.56.56,0,.14-.11.25-.25.25Z"/>
        <path class="cls-3" d="m26.78,493.89c-.14,0-.25-.11-.25-.25,0-.49-.38-.89-.87-.91-.14,0-.25-.12-.24-.26s.11-.24.26-.24c.76.03,1.35.65,1.35,1.41,0,.14-.11.25-.25.25Z"/>
        <path class="cls-3" d="m29.44,492.91h-.01l-3.68-.17c-.14,0-.24-.12-.24-.26,0-.14.12-.25.26-.24l3.68.17c.14,0,.24.12.24.26,0,.13-.12.24-.25.24Z"/>
        <path class="cls-3" d="m26.87,486.92c-.14,0-.25-.11-.25-.25v-5.48c0-.14.11-.25.25-.25s.25.11.25.25v5.48c0,.14-.11.25-.25.25Z"/>
        <path class="cls-3" d="m81.13,525H17.63c-.14,0-.25-.11-.25-.25v-69.33c0-.14.11-.25.25-.25h63.51c.14,0,.25.11.25.25v69.33c0,.14-.11.25-.25.25Zm-63.26-.5h63.01v-68.83H17.88v68.83Z"/>
        <path class="cls-3" d="m76.51,512.34c-.14,0-.25-.11-.25-.25v-43.91c0-.14.11-.25.25-.25s.25.11.25.25v43.91c0,.14-.11.25-.25.25Z"/>
        <path class="cls-3" d="m76.51,468.39c-.14,0-.25-.11-.25-.25,0-1.77-1.44-3.22-3.22-3.22-.14,0-.25-.11-.25-.25s.11-.25.25-.25c2.05,0,3.72,1.67,3.72,3.72,0,.14-.11.25-.25.25Z"/>
        <path class="cls-3" d="m73.09,515.76H30.29c-.14,0-.25-.11-.25-.25s.11-.25.25-.25h42.8c.14,0,.25.11.25.25s-.11.25-.25.25Z"/>
        <path class="cls-3" d="m73.05,515.76c-.14,0-.25-.11-.25-.25s.11-.25.25-.25c1.77,0,3.22-1.44,3.22-3.22,0-.14.11-.25.25-.25s.25.11.25.25c0,2.05-1.67,3.72-3.72,3.72Z"/>
        <path class="cls-3" d="m23.36,525c-.14,0-.25-.11-.25-.25v-69.33c0-.14.11-.25.25-.25s.25.11.25.25v69.33c0,.14-.11.25-.25.25Z"/>
        <path class="cls-3" d="m26.87,512.34c-.14,0-.25-.11-.25-.25v-43.91c0-.14.11-.25.25-.25s.25.11.25.25v43.91c0,.14-.11.25-.25.25Z"/>
        <path class="cls-3" d="m30.25,515.76c-2.05,0-3.72-1.67-3.72-3.72,0-.14.11-.25.25-.25s.25.11.25.25c0,1.77,1.44,3.22,3.22,3.22.14,0,.25.11.25.25s-.11.25-.25.25Z"/>
        <path class="cls-3" d="m26.78,468.39c-.14,0-.25-.11-.25-.25,0-2.05,1.67-3.72,3.72-3.72.14,0,.25.11.25.25s-.11.25-.25.25c-1.77,0-3.22,1.44-3.22,3.22,0,.14-.11.25-.25.25Z"/>
        <path class="cls-3" d="m73.09,464.92H30.29c-.14,0-.25-.11-.25-.25s.11-.25.25-.25h42.8c.14,0,.25.11.25.25s-.11.25-.25.25Z"/>
        <path class="cls-3" d="m17.63,491.28c-.14,0-.25-.11-.25-.25v-1.88c0-.14.11-.25.25-.25s.25.11.25.25v1.88c0,.14-.11.25-.25.25Z"/>
        <path class="cls-3" d="m51.65,494.88c-2.66,0-4.83-2.17-4.83-4.83s2.17-4.83,4.83-4.83,4.83,2.17,4.83,4.83-2.17,4.83-4.83,4.83Zm0-9.16c-2.39,0-4.33,1.94-4.33,4.33s1.94,4.33,4.33,4.33,4.33-1.94,4.33-4.33-1.94-4.33-4.33-4.33Z"/>
        <path class="cls-3" d="m81.13,392.17H23.36c-.14,0-.25-.11-.25-.25v-86.7c0-.14.11-.25.25-.25h57.77c.14,0,.25.11.25.25v86.7c0,.14-.11.25-.25.25Zm-57.52-.5h57.27v-86.2H23.61v86.2Z"/>
        <path class="cls-3" d="m79.94,390.97H24.56c-.14,0-.25-.11-.25-.25v-84.31c0-.14.11-.25.25-.25h55.38c.14,0,.25.11.25.25v84.31c0,.14-.11.25-.25.25Zm-55.13-.5h54.88v-83.81H24.81v83.81Z"/>
        <path class="cls-3" d="m86.87,530.74H17.63c-.14,0-.25-.11-.25-.25v-242.57c0-.14.11-.25.25-.25h69.24c.14,0,.25.11.25.25v242.57c0,.14-.11.25-.25.25Zm-68.99-.5h68.74v-242.07H17.88v242.07Z"/>
        <path class="cls-3" d="m49.34,339.53c-6.49,0-11.76-5.28-11.76-11.76s5.28-11.76,11.76-11.76,11.76,5.28,11.76,11.76-5.28,11.76-11.76,11.76Zm0-23.02c-6.21,0-11.26,5.05-11.26,11.26s5.05,11.26,11.26,11.26,11.26-5.05,11.26-11.26-5.05-11.26-11.26-11.26Z"/>
        <path class="cls-3" d="m49.34,381.12c-6.49,0-11.76-5.28-11.76-11.76s5.28-11.76,11.76-11.76,11.76,5.28,11.76,11.76-5.28,11.76-11.76,11.76Zm0-23.02c-6.21,0-11.26,5.05-11.26,11.26s5.05,11.26,11.26,11.26,11.26-5.05,11.26-11.26-5.05-11.26-11.26-11.26Z"/>
        <path class="cls-3" d="m49.38,371.45c-.14,0-.25-.11-.25-.25v-3.68c0-.14.11-.25.25-.25s.25.11.25.25v3.68c0,.14-.11.25-.25.25Z"/>
        <path class="cls-3" d="m51.18,369.66h-3.59c-.14,0-.25-.11-.25-.25s.11-.25.25-.25h3.59c.14,0,.25.11.25.25s-.11.25-.25.25Z"/>
        <path class="cls-3" d="m49.38,329.86c-.14,0-.25-.11-.25-.25v-3.59c0-.14.11-.25.25-.25s.25.11.25.25v3.59c0,.14-.11.25-.25.25Z"/>
        <path class="cls-3" d="m51.18,328.06h-3.59c-.14,0-.25-.11-.25-.25s.11-.25.25-.25h3.59c.14,0,.25.11.25.25s-.11.25-.25.25Z"/>
        <path class="cls-3" d="m834.08,734.1h-219.54c-.14,0-.25-.11-.25-.25v-173.32c0-.14.11-.25.25-.25h219.54c.14,0,.25.11.25.25v173.32c0,.14-.11.25-.25.25Zm-219.29-.5h219.04v-172.82h-219.04v172.82Z"/>
        <path class="cls-3" d="m793.68,734.1c-.14,0-.25-.11-.25-.25v-173.32c0-.14.11-.25.25-.25s.25.11.25.25v173.32c0,.14-.11.25-.25.25Z"/>
        <path class="cls-3" d="m757.48,734.1s-.03,0-.05,0c-.14-.03-.23-.16-.2-.29l24.65-134.38v-38.9c0-.14.11-.25.25-.25s.25.11.25.25v38.94l-24.65,134.42c-.02.12-.13.21-.25.21Z"/>
        <path class="cls-3" d="m824.84,724.86h-31.16c-.14,0-.25-.11-.25-.25v-71.64c0-.14.11-.25.25-.25h31.16c.14,0,.25.11.25.25v71.64c0,.14-.11.25-.25.25Zm-30.91-.5h30.66v-71.14h-30.66v71.14Z"/>
        <path class="cls-3" d="m824.84,641.67h-31.16c-.14,0-.25-.11-.25-.25v-71.64c0-.14.11-.25.25-.25h31.16c.14,0,.25.11.25.25v71.64c0,.14-.11.25-.25.25Zm-30.91-.5h30.66v-71.14h-30.66v71.14Z"/>
        <path class="cls-3" d="m834.08,913.16h-291.95c-.14,0-.25-.11-.25-.25v-69.33c0-.14.11-.25.25-.25h291.95c.14,0,.25.11.25.25v69.33c0,.14-.11.25-.25.25Zm-291.7-.5h291.45v-68.83h-291.45v68.83Z"/>
        <path class="cls-3" d="m829.72,909.74h-284.16c-.14,0-.25-.11-.25-.25v-62.4c0-.14.11-.25.25-.25h284.16c.14,0,.25.11.25.25v62.4c0,.14-.11.25-.25.25Zm-283.91-.5h283.66v-61.9h-283.66v61.9Z"/>
        <path class="cls-3" d="m829.72,879.7h-284.16c-.14,0-.25-.11-.25-.25s.11-.25.25-.25h284.16c.14,0,.25.11.25.25s-.11.25-.25.25Z"/>
        <path class="cls-3" d="m829.72,877.38h-284.16c-.14,0-.25-.11-.25-.25s.11-.25.25-.25h284.16c.14,0,.25.11.25.25s-.11.25-.25.25Z"/>
        <path class="cls-3" d="m834.08,843.83h-57.77c-.14,0-.25-.11-.25-.25v-109.73c0-.14.11-.25.25-.25h57.77c.14,0,.25.11.25.25v109.73c0,.14-.11.25-.25.25Zm-57.52-.5h57.27v-109.23h-57.27v109.23Z"/>
        <path class="cls-3" d="m776.31,814.99h-34.66c-.14,0-.25-.11-.25-.25v-51.95c0-.14.11-.25.25-.25h34.66c.14,0,.25.11.25.25v51.95c0,.14-.11.25-.25.25Zm-34.41-.5h34.16v-51.45h-34.16v51.45Z"/>
        <path class="cls-3" d="m747.46,814.99c-.14,0-.25-.11-.25-.25v-51.95c0-.14.11-.25.25-.25s.25.11.25.25v51.95c0,.14-.11.25-.25.25Z"/>
        <path class="cls-3" d="m524.75,387.54h-5.73c-.14,0-.25-.11-.25-.25v-138.66c0-.14.11-.25.25-.25h5.73c.14,0,.25.11.25.25v138.66c0,.14-.11.25-.25.25Zm-5.48-.5h5.23v-138.16h-5.23v138.16Z"/>
        <path class="cls-3" d="m530.57,375.99h-5.82c-.14,0-.25-.11-.25-.25s.11-.25.25-.25h5.57v-115.05h-5.57c-.14,0-.25-.11-.25-.25s.11-.25.25-.25h5.82c.14,0,.25.11.25.25v115.55c0,.14-.11.25-.25.25Z"/>
        <path class="cls-3" d="m519.02,384.04h-2.31c-.14,0-.25-.11-.25-.25s.11-.25.25-.25h2.31c.14,0,.25.11.25.25s-.11.25-.25.25Z"/>
        <path class="cls-3" d="m516.71,384.04c-.14,0-.25-.11-.25-.25v-131.73c0-.14.11-.25.25-.25h2.31c.14,0,.25.11.25.25s-.11.25-.25.25h-2.06v131.48c0,.14-.11.25-.25.25Z"/>
        <path class="cls-3" d="m315.65,474.16h-103.99c-.14,0-.25-.11-.25-.25V196.68c0-.14.11-.25.25-.25h103.99c.14,0,.25.11.25.25v277.23c0,.14-.11.25-.25.25Zm-103.74-.5h103.49V196.93h-103.49v276.73Z"/>
        <path class="cls-3" d="m229.04,456.87c-.14,0-.25-.11-.25-.25v-242.65c0-.14.11-.25.25-.25h86.62c.14,0,.25.11.25.25s-.11.25-.25.25h-86.37v242.4c0,.14-.11.25-.25.25Z"/>
        <path class="cls-3" d="m248.46,451.48c-.11,0-.21-.07-.24-.19l-13.35-50.24c-.02-.06,0-.13.03-.19.03-.06.09-.1.15-.12l21.65-5.73c.13-.04.27.04.31.18.04.13-.04.27-.18.31l-21.41,5.67,13.22,49.76,49.76-13.22-13.22-49.76-5.92,1.56c-.13.03-.27-.04-.31-.18-.04-.13.04-.27.18-.31l6.16-1.63c.13-.03.27.04.31.18l13.35,50.24c.02.06,0,.13-.03.19-.03.06-.09.1-.15.12l-50.24,13.35s-.04,0-.06,0Z"/>
        <path class="cls-3" d="m270.72,403.81s-.1-.01-.14-.04l-38.94-26.53c-.1-.07-.14-.2-.09-.31l20.8-44.68c.03-.06.09-.11.15-.13.07-.02.14-.01.2.02l44.68,26.53c.12.07.16.22.09.34l-26.53,44.68c-.04.06-.09.1-.16.12-.02,0-.04,0-.05,0Zm-38.63-26.87l38.55,26.26,26.27-44.24-44.23-26.26-20.59,44.24Z"/>
        <path class="cls-3" d="m315.65,456.87h-86.62c-.14,0-.25-.11-.25-.25s.11-.25.25-.25h86.62c.14,0,.25.11.25.25s-.11.25-.25.25Z"/>
        <path class="cls-3" d="m388.96,381.64c-25.6,0-46.43-20.83-46.43-46.43s20.83-46.43,46.43-46.43,46.43,20.83,46.43,46.43-20.83,46.43-46.43,46.43Zm0-92.35c-25.32,0-45.93,20.6-45.93,45.93s20.6,45.93,45.93,45.93,45.93-20.6,45.93-45.93-20.6-45.93-45.93-45.93Z"/>
        <path class="cls-3" d="m833.23,399.1h-219.54c-.14,0-.25-.11-.25-.25v-173.32c0-.14.11-.25.25-.25h219.54c.14,0,.25.11.25.25v173.32c0,.14-.11.25-.25.25Zm-219.29-.5h219.04v-172.82h-219.04v172.82Z"/>
        <path class="cls-3" d="m792.74,399.1c-.14,0-.25-.11-.25-.25v-173.32c0-.14.11-.25.25-.25s.25.11.25.25v173.32c0,.14-.11.25-.25.25Z"/>
        <path class="cls-3" d="m756.62,399.1s-.03,0-.05,0c-.14-.03-.23-.16-.2-.29l24.65-134.46v-38.81c0-.14.11-.25.25-.25s.25.11.25.25v38.86l-24.65,134.51c-.02.12-.13.21-.25.21Z"/>
        <path class="cls-3" d="m823.98,389.86h-31.24c-.14,0-.25-.11-.25-.25v-71.64c0-.14.11-.25.25-.25h31.24c.14,0,.25.11.25.25v71.64c0,.14-.11.25-.25.25Zm-30.99-.5h30.74v-71.14h-30.74v71.14Z"/>
        <path class="cls-3" d="m823.98,306.66h-31.24c-.14,0-.25-.11-.25-.25v-71.64c0-.14.11-.25.25-.25h31.24c.14,0,.25.11.25.25v71.64c0,.14-.11.25-.25.25Zm-30.99-.5h30.74v-71.14h-30.74v71.14Z"/>
        <path class="cls-3" d="m826.12,425.03h-36.03c-.14,0-.25-.11-.25-.25s.11-.25.25-.25h36.03c.14,0,.25.11.25.25s-.11.25-.25.25Z"/>
        <path class="cls-3" d="m808.02,440.27c-8.56,0-15.53-6.97-15.53-15.53s6.97-15.53,15.53-15.53,15.53,6.97,15.53,15.53-6.97,15.53-15.53,15.53Zm0-30.56c-8.29,0-15.03,6.74-15.03,15.03s6.74,15.03,15.03,15.03,15.03-6.74,15.03-15.03-6.74-15.03-15.03-15.03Z"/>
        <path class="cls-3" d="m808.02,434.71c-5.49,0-9.96-4.47-9.96-9.96s4.47-9.96,9.96-9.96,9.96,4.47,9.96,9.96-4.47,9.96-9.96,9.96Zm0-19.43c-5.22,0-9.46,4.25-9.46,9.46s4.25,9.46,9.46,9.46,9.46-4.25,9.46-9.46-4.25-9.46-9.46-9.46Z"/>
        <path class="cls-3" d="m808.06,443.09c-.14,0-.25-.11-.25-.25v-36.03c0-.14.11-.25.25-.25s.25.11.25.25v36.03c0,.14-.11.25-.25.25Z"/>
        <path class="cls-3" d="m834.08,451.05h-51.95c-.14,0-.25-.11-.25-.25v-51.95c0-.14.11-.25.25-.25h51.95c.14,0,.25.11.25.25v51.95c0,.14-.11.25-.25.25Zm-51.7-.5h51.45v-51.45h-51.45v51.45Z"/>
        <path class="cls-3" d="m826.12,199.76h-36.03c-.14,0-.25-.11-.25-.25s.11-.25.25-.25h36.03c.14,0,.25.11.25.25s-.11.25-.25.25Z"/>
        <path class="cls-3" d="m808.02,214.99c-8.56,0-15.53-6.97-15.53-15.53s6.97-15.53,15.53-15.53,15.53,6.97,15.53,15.53-6.97,15.53-15.53,15.53Zm0-30.56c-8.29,0-15.03,6.74-15.03,15.03s6.74,15.03,15.03,15.03,15.03-6.74,15.03-15.03-6.74-15.03-15.03-15.03Z"/>
        <path class="cls-3" d="m808.02,209.43c-5.49,0-9.96-4.47-9.96-9.96s4.47-9.96,9.96-9.96,9.96,4.47,9.96,9.96-4.47,9.96-9.96,9.96Zm0-19.43c-5.22,0-9.46,4.25-9.46,9.46s4.25,9.46,9.46,9.46,9.46-4.25,9.46-9.46-4.25-9.46-9.46-9.46Z"/>
        <path class="cls-3" d="m808.06,217.82c-.14,0-.25-.11-.25-.25v-36.03c0-.14.11-.25.25-.25s.25.11.25.25v36.03c0,.14-.11.25-.25.25Z"/>
        <path class="cls-3" d="m834.08,225.78h-51.95c-.14,0-.25-.11-.25-.25v-51.95c0-.14.11-.25.25-.25h51.95c.14,0,.25.11.25.25v51.95c0,.14-.11.25-.25.25Zm-51.7-.5h51.45v-51.45h-51.45v51.45Z"/>
        <path class="cls-3" d="m834.08,549.23h-199.6c-.14,0-.25-.11-.25-.25v-69.24c0-.14.11-.25.25-.25h199.6c.14,0,.25.11.25.25v69.24c0,.14-.11.25-.25.25Zm-199.35-.5h199.1v-68.74h-199.1v68.74Z"/>
        <path class="cls-3" d="m830.66,545.8h-192.67c-.14,0-.25-.11-.25-.25v-62.4c0-.14.11-.25.25-.25h192.67c.14,0,.25.11.25.25v62.4c0,.14-.11.25-.25.25Zm-192.42-.5h192.17v-61.9h-192.17v61.9Z"/>
        <path class="cls-3" d="m830.66,515.76h-192.67c-.14,0-.25-.11-.25-.25s.11-.25.25-.25h192.67c.14,0,.25.11.25.25s-.11.25-.25.25Z"/>
        <path class="cls-3" d="m830.66,513.45h-192.67c-.14,0-.25-.11-.25-.25s.11-.25.25-.25h192.67c.14,0,.25.11.25.25s-.11.25-.25.25Z"/>
        <path class="cls-3" d="m634.48,549.23h-92.35c-.14,0-.25-.11-.25-.25v-57.69c0-.14.11-.25.25-.25h92.35c.14,0,.25.11.25.25v57.69c0,.14-.11.25-.25.25Zm-92.1-.5h91.85v-57.19h-91.85v57.19Z"/>
        <path class="cls-3" d="m614.28,491.54h-51.95c-.14,0-.25-.11-.25-.25v-34.66c0-.14.11-.25.25-.25h51.95c.14,0,.25.11.25.25v34.66c0,.14-.11.25-.25.25Zm-51.7-.5h51.45v-34.16h-51.45v34.16Z"/>
        <path class="cls-3" d="m614.28,462.61h-51.95c-.14,0-.25-.11-.25-.25s.11-.25.25-.25h51.95c.14,0,.25.11.25.25s-.11.25-.25.25Z"/>
        <path class="cls-3" d="m23.79,611.54s-.06,0-.09-.02l-6.16-2.31c-.1-.04-.16-.13-.16-.23v-58.72c0-.11.07-.2.17-.24l6.16-2.23c.13-.04.27.02.32.15.05.13-.02.27-.15.32l-6,2.17v58.37l6,2.25c.13.05.19.19.15.32-.04.1-.13.16-.23.16Z"/>
        <path class="cls-3" d="m104.24,623.18H23.79c-.14,0-.25-.11-.25-.25v-86.62c0-.14.11-.25.25-.25h80.46c.14,0,.25.11.25.25v86.62c0,.14-.11.25-.25.25Zm-80.21-.5h79.96v-86.12H24.04v86.12Z"/>
        <path class="cls-3" d="m99.62,623.18c-.14,0-.25-.11-.25-.25v-86.62c0-.14.11-.25.25-.25s.25.11.25.25v86.62c0,.14-.11.25-.25.25Z"/>
        <path class="cls-3" d="m530.57,913.16h-92.44c-.14,0-.25-.11-.25-.25v-46.22c0-.14.11-.25.25-.25h92.44c.14,0,.25.11.25.25v46.22c0,.14-.11.25-.25.25Zm-92.19-.5h91.94v-45.72h-91.94v45.72Z"/>
        <path class="cls-3" d="m530.57,913.16s-.08,0-.11-.03l-92.44-46.22c-.12-.06-.17-.21-.11-.33.06-.12.21-.17.34-.11l92.44,46.22c.12.06.17.21.11.33-.04.09-.13.14-.22.14Z"/>
        <path class="cls-3" d="m468.69,734.1h-51.95c-.14,0-.25-.11-.25-.25v-34.66c0-.14.11-.25.25-.25h51.95c.14,0,.25.11.25.25v34.66c0,.14-.11.25-.25.25Zm-51.7-.5h51.45v-34.16h-51.45v34.16Z"/>
        <path class="cls-3" d="m401.76,728.37h-52.04c-.14,0-.25-.11-.25-.25s.11-.25.25-.25h52.04c.14,0,.25.11.25.25s-.11.25-.25.25Z"/>
        <path class="cls-3" d="m401.76,578.16h-52.04c-.14,0-.25-.11-.25-.25s.11-.25.25-.25h52.04c.14,0,.25.11.25.25s-.11.25-.25.25Z"/>
        <path class="cls-3" d="m478.54,699.44h-138.66c-.14,0-.25-.11-.25-.25v-92.44c0-.14.11-.25.25-.25h138.66c.14,0,.25.11.25.25v92.44c0,.14-.11.25-.25.25Zm-138.41-.5h138.16v-91.94h-138.16v91.94Z"/>
        <path class="cls-3" d="m468.69,728.37h-51.95c-.14,0-.25-.11-.25-.25s.11-.25.25-.25h51.95c.14,0,.25.11.25.25s-.11.25-.25.25Z"/>
        <path class="cls-3" d="m401.76,734.1h-52.04c-.14,0-.25-.11-.25-.25v-34.66c0-.14.11-.25.25-.25h52.04c.14,0,.25.11.25.25v34.66c0,.14-.11.25-.25.25Zm-51.79-.5h51.54v-34.16h-51.54v34.16Z"/>
        <path class="cls-3" d="m468.69,578.16h-51.95c-.14,0-.25-.11-.25-.25s.11-.25.25-.25h51.95c.14,0,.25.11.25.25s-.11.25-.25.25Z"/>
        <path class="cls-3" d="m468.69,607h-51.95c-.14,0-.25-.11-.25-.25v-34.66c0-.14.11-.25.25-.25h51.95c.14,0,.25.11.25.25v34.66c0,.14-.11.25-.25.25Zm-51.7-.5h51.45v-34.16h-51.45v34.16Z"/>
        <path class="cls-3" d="m401.76,607h-52.04c-.14,0-.25-.11-.25-.25v-34.66c0-.14.11-.25.25-.25h52.04c.14,0,.25.11.25.25v34.66c0,.14-.11.25-.25.25Zm-51.79-.5h51.54v-34.16h-51.54v34.16Z"/>
        <path class="cls-3" d="m530.57,739.92h-52.04c-.14,0-.25-.11-.25-.25v-173.32c0-.14.11-.25.25-.25h52.04c.14,0,.25.11.25.25v173.32c0,.14-.11.25-.25.25Zm-51.79-.5h51.54v-172.82h-51.54v172.82Z"/>
        <path class="cls-3" d="m478.54,739.92s-.05,0-.07-.01c-.13-.04-.21-.18-.17-.31l52.04-173.32c.04-.13.18-.21.31-.17.13.04.21.18.17.31l-52.04,173.32c-.03.11-.13.18-.24.18Z"/>
        <path class="cls-3" d="m818.33,116.99h-103.99c-.14,0-.25-.11-.25-.25v-50.84c0-.14.11-.25.25-.25h103.99c.14,0,.25.11.25.25v50.84c0,.14-.11.25-.25.25Zm-103.74-.5h103.49v-50.34h-103.49v50.34Z"/>
        <path class="cls-3" d="m714.34,116.99c-.09,0-.18-.05-.22-.14-.06-.12,0-.27.11-.33l103.99-50.84c.12-.06.27,0,.33.12.06.12,0,.27-.11.33l-103.99,50.84s-.07.03-.11.03Z"/>
        <path class="cls-3" d="m739.93,101.24c-.11,0-.21-.07-.24-.18l-6.78-22.32-6.78,22.32c-.04.13-.18.21-.31.17-.13-.04-.21-.18-.17-.31l7.02-23.11c.06-.21.41-.21.48,0l7.02,23.11c.04.13-.03.27-.17.31-.02,0-.05.01-.07.01Z"/>
        <path class="cls-3" d="m737.28,93.54h-8.82c-.14,0-.25-.11-.25-.25s.11-.25.25-.25h8.82c.14,0,.25.11.25.25s-.11.25-.25.25Z"/>
        <path class="cls-3" d="m801.56,113.05h-3.51s-.09-.01-.13-.04l-1.71-1.03s-.05-.04-.07-.06l-1.8-2.23s-.03-.04-.04-.07l-.86-2.23-.86-3.28s0-.04,0-.06v-5.56s0-.04,0-.06l.86-3.25.86-2.25s.02-.05.04-.07l1.8-2.23s.04-.04.06-.05l1.71-1.11s.09-.04.14-.04h3.51s.09.01.13.04l1.8,1.11s.05.03.06.06l1.8,2.23s.03.04.04.07l.86,2.23c.05.13-.01.27-.14.32-.13.05-.27-.01-.32-.14l-.84-2.19-1.75-2.16-1.7-1.05h-3.36l-1.62,1.05-1.75,2.16-.84,2.19-.84,3.19v5.5l.85,3.22.83,2.16,1.74,2.16,1.61.97h3.37l1.7-.97,1.74-2.16.84-2.19c.05-.13.19-.19.32-.14.13.05.19.19.14.32l-.86,2.23s-.02.05-.04.07l-1.8,2.23s-.04.04-.07.06l-1.8,1.03s-.08.03-.12.03Z"/>
        <path class="cls-3" d="m669.32,900.49c-.14,0-.25-.11-.25-.25v-46.22c0-.14.11-.25.25-.25s.25.11.25.25v46.22c0,.14-.11.25-.25.25Z"/>
        <path class="cls-3" d="m658.53,900.49c-.14,0-.25-.11-.25-.25v-46.22c0-.14.11-.25.25-.25s.25.11.25.25v46.22c0,.14-.11.25-.25.25Z"/>
        <path class="cls-3" d="m684.81,900.41c-.13,0-.24-.1-.25-.23l-4.02-46.05c-.01-.14.09-.26.23-.27.14-.02.26.09.27.23l4.02,46.05c.01.14-.09.26-.23.27,0,0-.01,0-.02,0Z"/>
        <path class="cls-3" d="m623.87,900.41s-.01,0-.02,0c-.14-.01-.24-.13-.23-.27l4.02-46.05c.01-.14.14-.24.27-.23.14.01.24.13.23.27l-4.02,46.05c-.01.13-.12.23-.25.23Z"/>
        <path class="cls-3" d="m612.14,900.41s-.01,0-.02,0c-.14-.01-.24-.13-.23-.27l4.02-46.05c.01-.14.13-.24.27-.23.14.01.24.13.23.27l-4.02,46.05c-.01.13-.12.23-.25.23Z"/>
        <path class="cls-3" d="m718.36,900.49c-.14,0-.25-.11-.25-.25v-46.22c0-.14.11-.25.25-.25s.25.11.25.25v46.22c0,.14-.11.25-.25.25Z"/>
        <path class="cls-3" d="m706.98,900.49c-.14,0-.25-.11-.25-.25v-46.22c0-.14.11-.25.25-.25s.25.11.25.25v46.22c0,.14-.11.25-.25.25Z"/>
        <path class="cls-3" d="m572,900.49c-.14,0-.25-.11-.25-.25v-46.22c0-.14.11-.25.25-.25s.25.11.25.25v46.22c0,.14-.11.25-.25.25Z"/>
        <path class="cls-3" d="m561.22,900.49c-.14,0-.25-.11-.25-.25v-46.22c0-.14.11-.25.25-.25s.25.11.25.25v46.22c0,.14-.11.25-.25.25Z"/>
        <path class="cls-3" d="m587.49,900.41c-.13,0-.24-.1-.25-.23l-4.02-46.05c-.01-.14.09-.26.23-.27.14-.02.26.09.27.23l4.02,46.05c.01.14-.09.26-.23.27,0,0-.01,0-.02,0Z"/>
        <path class="cls-3" d="m761.76,536.56c-.14,0-.25-.11-.25-.25v-46.22c0-.14.11-.25.25-.25s.25.11.25.25v46.22c0,.14-.11.25-.25.25Z"/>
        <path class="cls-3" d="m750.97,536.56c-.14,0-.25-.11-.25-.25v-46.22c0-.14.11-.25.25-.25s.25.11.25.25v46.22c0,.14-.11.25-.25.25Z"/>
        <path class="cls-3" d="m777.25,536.47c-.13,0-.24-.1-.25-.23l-4.02-46.05c-.01-.14.09-.26.23-.27.14-.01.26.09.27.23l4.02,46.05c.01.14-.09.26-.23.27,0,0-.01,0-.02,0Z"/>
        <path class="cls-3" d="m716.31,536.47s-.01,0-.02,0c-.14-.01-.24-.13-.23-.27l4.02-46.05c.01-.14.14-.24.27-.23.14.01.24.13.23.27l-4.02,46.05c-.01.13-.12.23-.25.23Z"/>
        <path class="cls-3" d="m704.58,536.47s-.01,0-.02,0c-.14-.01-.24-.13-.23-.27l4.02-46.05c.01-.14.14-.24.27-.23.14.01.24.13.23.27l-4.02,46.05c-.01.13-.12.23-.25.23Z"/>
        <path class="cls-3" d="m810.8,536.56c-.14,0-.25-.11-.25-.25v-46.22c0-.14.11-.25.25-.25s.25.11.25.25v46.22c0,.14-.11.25-.25.25Z"/>
        <path class="cls-3" d="m799.42,536.56c-.14,0-.25-.11-.25-.25v-46.22c0-.14.11-.25.25-.25s.25.11.25.25v46.22c0,.14-.11.25-.25.25Z"/>
        <path class="cls-3" d="m664.44,536.56c-.14,0-.25-.11-.25-.25v-46.22c0-.14.11-.25.25-.25s.25.11.25.25v46.22c0,.14-.11.25-.25.25Z"/>
        <path class="cls-3" d="m653.57,536.56c-.14,0-.25-.11-.25-.25v-46.22c0-.14.11-.25.25-.25s.25.11.25.25v46.22c0,.14-.11.25-.25.25Z"/>
        <path class="cls-3" d="m679.85,536.47c-.13,0-.24-.1-.25-.23l-4.02-46.05c-.01-.14.09-.26.23-.27.14-.01.26.09.27.23l4.02,46.05c.01.14-.09.26-.23.27,0,0-.01,0-.02,0Z"/>
        <path class="cls-3" d="m.25,52.45c-.14,0-.25-.11-.25-.25v-17.29c0-.14.11-.25.25-.25s.25.11.25.25v17.29c0,.14-.11.25-.25.25Z"/>
        <path class="cls-3" d="m763.81,898.7c-.14,0-.25-.11-.25-.25v-46.22c0-.14.11-.25.25-.25s.25.11.25.25v46.22c0,.14-.11.25-.25.25Z"/>
        <path class="cls-3" d="m752.94,898.7c-.14,0-.25-.11-.25-.25v-46.22c0-.14.11-.25.25-.25s.25.11.25.25v46.22c0,.14-.11.25-.25.25Z"/>
        <path class="cls-3" d="m779.22,898.61c-.13,0-.24-.1-.25-.23l-4.02-46.05c-.01-.14.09-.26.23-.27.14,0,.26.09.27.23l4.02,46.05c.01.14-.09.26-.23.27,0,0-.01,0-.02,0Z"/>
        <path class="cls-3" d="m812.77,898.7c-.14,0-.25-.11-.25-.25v-46.22c0-.14.11-.25.25-.25s.25.11.25.25v46.22c0,.14-.11.25-.25.25Z"/>
        <path class="cls-3" d="m801.39,898.7c-.14,0-.25-.11-.25-.25v-46.22c0-.14.11-.25.25-.25s.25.11.25.25v46.22c0,.14-.11.25-.25.25Z"/>
      </g>
    </g>
  </g>
</svg>