<svg width="123" height="80" viewBox="0 0 123 80" fill="none" xmlns="http://www.w3.org/2000/svg">
<g clip-path="url(#clip0_321_965)">
<path d="M65.2505 24.2287C65.2505 39.7729 54.678 56.0011 40.3536 65.5996C28.872 73.3703 10.2282 79.6566 1.2479 80C-0.00273254 79.4295 -0.457258 77.0285 0.564735 76.0011C13.6385 72.9161 25.0072 66.7433 32.6239 59.0861C42.8549 49.028 50.2457 33.0296 50.2457 18.7427C50.2457 12.5699 49.2237 5.25616 42.1744 5.25616C33.8745 5.25616 28.6461 18.3993 28.6461 27.0839C28.6461 33.7137 30.5799 36.9122 34.3291 38.6264C35.9213 39.3132 37.6264 39.5403 40.4693 39.6538C40.9238 40.1108 40.9238 41.4816 40.4693 42.3955C37.968 44.2232 33.0784 45.3669 30.1226 45.3669C20.4592 45.3669 13.8672 38.7372 13.8672 27.995C13.8644 13.1432 27.1668 0 42.9678 0C57.4052 0 65.2505 9.60122 65.2505 24.2287Z" fill="url(#paint0_linear_321_965)"/>
<path d="M99.4673 61.7142C107.084 61.7142 108.335 60.8003 112.428 55.6577C113.45 54.8574 115.838 55.5442 116.293 57.2584C114.359 62.7444 110.153 71.2019 107.539 73.4866C103.106 73.2567 98.4453 73.1432 90.9415 73.1432H72.069C66.3861 73.1432 61.3836 73.373 58.1991 73.4866C57.516 72.9161 57.2901 71.7724 57.7446 70.8585C63.8848 66.9731 68.0885 63.3149 80.0274 53.9435C89.5779 46.3999 106.401 32.3428 106.401 21.1437C106.401 12.9161 102.307 8.80089 94.4647 8.80089C89.5752 8.80089 82.8702 13.0296 79.1183 19.316C77.639 19.6594 75.4794 18.5156 75.5951 17.0313C81.1651 6.39989 91.1701 0 102.423 0C113.676 0 123.001 6.62974 123.001 18.6292C123.001 32.2293 109.018 40.9139 97.8778 48.6873L91.0572 53.4866C84.6911 57.9424 82.7573 59.6594 82.7573 60.4569C82.7573 61.1437 83.3247 61.7142 86.2805 61.7142H99.4673Z" fill="url(#paint1_linear_321_965)"/>
</g>
<defs>
<linearGradient id="paint0_linear_321_965" x1="131.793" y1="27.8621" x2="-8.33943" y2="43.1376" gradientUnits="userSpaceOnUse">
<stop stop-color="#F4E49D"/>
<stop offset="0.35" stop-color="#CEAE5D"/>
<stop offset="0.69" stop-color="#EADCA2"/>
<stop offset="1" stop-color="#87512E"/>
</linearGradient>
<linearGradient id="paint1_linear_321_965" x1="132.424" y1="33.6306" x2="-7.71073" y2="48.9061" gradientUnits="userSpaceOnUse">
<stop stop-color="#F4E49D"/>
<stop offset="0.35" stop-color="#CEAE5D"/>
<stop offset="0.69" stop-color="#EADCA2"/>
<stop offset="1" stop-color="#87512E"/>
</linearGradient>
<clipPath id="clip0_321_965">
<rect width="123" height="80" fill="white"/>
</clipPath>
</defs>
</svg>
