<svg width="286" height="80" viewBox="0 0 286 80" fill="none" xmlns="http://www.w3.org/2000/svg">
<g clip-path="url(#clip0_321_966)">
<path d="M18.9908 11.8567C17.8788 11.1908 17.9919 8.53275 19.2143 7.97966C24.3246 7.09363 29.7716 5.98476 34.6585 4.76581C39.3246 3.65693 44.7688 1.33179 45.1027 1.33179C46.1016 1.33179 46.7693 2.10773 46.8797 2.88367C45.5469 6.09753 43.6568 11.3036 42.2136 15.7364L28.77 58.0642C26.1044 66.4842 26.8798 67.593 32.4371 68.369L36.5486 68.9221C37.6606 69.4752 37.3267 72.3561 35.9939 72.7991C30.4393 72.5763 24.2143 72.4662 17.3268 72.4662C11.3253 72.4662 5.88102 72.5763 0.770659 72.7991C-0.451736 71.803 -0.117866 69.5852 1.10453 68.9221L4.9925 68.369C10.9941 67.483 11.7695 66.4842 14.4378 58.0642L25.547 23.1575C27.2137 17.9488 27.5476 16.5097 27.5476 15.1806C27.658 13.5187 26.3252 12.6326 23.9908 12.4098L18.9908 11.8567Z" fill="url(#paint0_linear_321_966)"/>
<path d="M112.105 0C113.437 0 113.771 1.10887 113.551 1.88482C112.328 5.54168 109.105 9.75164 106.106 12.4124L79.1054 15.8464C77.1049 16.0693 75.9929 17.1755 75.1044 19.0603L74.1054 21.1653C72.9934 23.3803 74.1054 23.7133 75.2174 23.8233C89.5523 25.5954 104.552 31.8002 103.884 48.1998C103.44 60.1665 94.6627 68.5864 83.5507 73.575C74.5497 77.5648 61.5503 79.6698 50.8826 80.0027C48.7717 79.3368 48.7717 76.3458 50.1045 75.4598C65.1044 74.5738 89.3288 68.7018 89.3288 51.3035C89.3288 39.4469 78.995 35.9028 65.3279 34.461C62.9935 34.2382 62.3284 33.132 63.6612 30.584L75.4409 7.20365C76.6633 4.76574 77.7753 4.32273 81.6633 3.87972L112.105 0Z" fill="url(#paint1_linear_321_966)"/>
<path d="M146.106 61.3855C153.551 61.3855 154.773 60.4995 158.774 55.5136C159.773 54.7377 162.107 55.4035 162.552 57.0655C160.661 62.3843 156.55 70.5841 153.995 72.7992C149.663 72.5763 145.107 72.4662 137.773 72.4662H119.326C113.772 72.4662 108.882 72.6891 105.769 72.7992C105.102 72.2461 104.881 71.1372 105.325 70.2512C111.327 66.4842 115.436 62.9374 127.105 53.8516C136.44 46.5379 152.883 32.9092 152.883 22.0514C152.883 14.0745 148.882 10.0847 141.216 10.0847C136.437 10.0847 129.883 14.1846 126.216 20.2793C124.77 20.6123 122.66 19.5034 122.773 18.0643C128.217 7.75955 137.996 1.55469 148.995 1.55469C159.994 1.55469 169.108 7.98239 169.108 19.6162C169.108 32.8018 155.441 41.2218 144.552 48.7583L137.886 53.4113C131.663 57.7314 129.773 59.396 129.773 60.1693C129.773 60.8351 130.328 61.3882 133.217 61.3882H146.106V61.3855Z" fill="url(#paint2_linear_321_966)"/>
<path d="M227.665 0C228.998 0 229.332 1.10887 229.111 1.88482C227.889 5.54168 224.666 9.75164 221.666 12.4124L194.666 15.8464C192.665 16.0693 191.553 17.1755 190.665 19.0603L189.666 21.1653C188.554 23.3803 189.666 23.7133 190.778 23.8233C205.113 25.5954 220.113 31.8002 219.445 48.1998C219.001 60.1665 210.223 68.5864 199.111 73.575C190.11 77.5648 177.111 79.6698 166.443 80.0027C164.332 79.3368 164.332 76.3458 165.665 75.4598C180.665 74.5738 204.889 68.7018 204.889 51.3035C204.889 39.4469 194.556 35.9028 180.888 34.461C178.554 34.2382 177.889 33.132 179.222 30.584L191.001 7.20365C192.224 4.76574 193.336 4.32273 197.224 3.87972L227.665 0Z" fill="url(#paint3_linear_321_966)"/>
<path d="M286 25.0424C286 40.1129 275.666 55.8465 261.665 65.1525C250.443 72.6864 232.22 78.7812 223.442 79.1141C222.22 78.561 221.776 76.2332 222.775 75.2371C235.553 72.2461 246.665 66.2614 254.11 58.8375C264.11 49.0859 271.334 33.5751 271.334 19.7236C271.334 13.7389 270.335 6.64799 263.445 6.64799C255.332 6.64799 250.222 19.3906 250.222 27.8106C250.222 34.2383 252.112 37.3394 255.777 39.0013C257.333 39.6672 259 39.8874 261.778 39.9974C262.222 40.4404 262.222 41.7695 261.778 42.6555C259.333 44.4276 254.554 45.5364 251.668 45.5364C242.223 45.5364 235.779 39.1087 235.779 28.6939C235.779 14.2893 248.779 1.54663 264.226 1.54663C278.337 1.54663 286.005 10.8553 286.005 25.037L286 25.0424Z" fill="url(#paint4_linear_321_966)"/>
</g>
<defs>
<linearGradient id="paint0_linear_321_966" x1="289.329" y1="-7.54725" x2="-51.4305" y2="53.9015" gradientUnits="userSpaceOnUse">
<stop stop-color="#F4E49D"/>
<stop offset="0.35" stop-color="#CEAE5D"/>
<stop offset="0.69" stop-color="#EADCA2"/>
<stop offset="1" stop-color="#87512E"/>
</linearGradient>
<linearGradient id="paint1_linear_321_966" x1="291.083" y1="2.18821" x2="-49.6758" y2="63.6342" gradientUnits="userSpaceOnUse">
<stop stop-color="#F4E49D"/>
<stop offset="0.35" stop-color="#CEAE5D"/>
<stop offset="0.69" stop-color="#EADCA2"/>
<stop offset="1" stop-color="#87512E"/>
</linearGradient>
<linearGradient id="paint2_linear_321_966" x1="292.782" y1="11.6097" x2="-47.9766" y2="73.0585" gradientUnits="userSpaceOnUse">
<stop stop-color="#F4E49D"/>
<stop offset="0.35" stop-color="#CEAE5D"/>
<stop offset="0.69" stop-color="#EADCA2"/>
<stop offset="1" stop-color="#87512E"/>
</linearGradient>
<linearGradient id="paint3_linear_321_966" x1="294.703" y1="22.2607" x2="-46.0559" y2="83.7067" gradientUnits="userSpaceOnUse">
<stop stop-color="#F4E49D"/>
<stop offset="0.35" stop-color="#CEAE5D"/>
<stop offset="0.69" stop-color="#EADCA2"/>
<stop offset="1" stop-color="#87512E"/>
</linearGradient>
<linearGradient id="paint4_linear_321_966" x1="296.253" y1="30.8526" x2="-44.506" y2="92.3013" gradientUnits="userSpaceOnUse">
<stop stop-color="#F4E49D"/>
<stop offset="0.35" stop-color="#CEAE5D"/>
<stop offset="0.69" stop-color="#EADCA2"/>
<stop offset="1" stop-color="#87512E"/>
</linearGradient>
<clipPath id="clip0_321_966">
<rect width="286" height="80" fill="white"/>
</clipPath>
</defs>
</svg>
