<?xml version="1.0" encoding="UTF-8"?>
<svg id="_圖層_2" data-name="圖層 2" xmlns="http://www.w3.org/2000/svg" viewBox="0 0 511 279">
  <defs>
    <style>
      .cls-1 {
        fill: none;
      }
    </style>
  </defs>
  <g id="_圖層_1-2" data-name="圖層 1">
    <g>
      <g>
        <path d="M5.67,9.48H1.97l-.17-.63h3.8l-.23-1.7,2.29,.17c-.02,.25-.19,.46-.59,.59l.13,.94h1.55l.86-1.07s.99,.78,1.6,1.36c-.06,.23-.25,.34-.55,.34h-3.36l.08,.63c-.08,.13-.21,.21-.38,.29l1.49,.17c-.04,.23-.17,.4-.59,.46v.65h.74l.8-.97s.94,.71,1.55,1.26c-.06,.23-.25,.34-.55,.34h-2.54v1.18h1.74l.84-.94s.97,.69,1.6,1.22c-.04,.23-.25,.34-.55,.34h-2.21v.71c0,.19,.04,.27,.25,.27h.95c.08,0,.19-.02,.25-.02,.08,0,.23-.04,.31-.06h.19l.08,.02c.4,.13,.55,.21,.55,.48,0,.46-.42,.63-2.02,.63h-.74c-.52,0-.82-.08-.97-.27-.1,.1-.25,.17-.46,.21v.94h.97l.78-.84s.88,.59,1.47,1.11c-.04,.23-.23,.34-.53,.34h-2.69v1.2c1.11-.1,2.29-.25,3.44-.4l.04,.34c-1.72,.55-3.97,1.18-7.03,1.83-.13,.27-.32,.42-.53,.46l-.82-1.81c.8-.02,2.06-.13,3.49-.27v-1.34H3.75l-.17-.61h2.75v-1.6l1.74,.19c-.02-.15-.04-.31-.04-.52v-.99h-1.36c-.5,1.34-1.51,2.31-3.88,2.83l-.27-.31c1.62-.48,2.31-1.43,2.6-2.52H3.04l-.17-.61h3.61v-1.18H3.8l-.17-.63h2.86v-1.11c-.21,0-.42,.02-.67,.02l-.15-1.11Zm12.53,11.53s1.16,.84,1.89,1.47c-.04,.23-.27,.34-.57,.34H9.99l1.2,.55c-.08,.19-.4,.38-.97,.23-.99,.4-2.41,.86-3.8,1.18,2.25-.04,5.44-.17,8.88-.31-.5-.4-1.03-.8-1.6-1.15l.15-.29c5.92,1.03,4.85,4.05,3.32,3.32-.25-.36-.71-.86-1.32-1.39-2.65,.34-6.4,.76-10.69,1.13-.15,.23-.32,.36-.48,.42l-.69-1.87s.38-.04,.55-.08c1.36-.25,3-1.09,4.03-1.72H2.54l-.19-.61h14.82l1.03-1.2Zm-3.53-1.72s1.13,.82,1.87,1.45c-.04,.23-.25,.34-.55,.34H6.42l-.17-.61h7.43l.99-1.18Zm.99-8.1c-.02,.25-.21,.46-.65,.52-.02,.4-.02,.76-.04,1.13h1.53l.8-.82,1.55,1.28c-.13,.13-.42,.25-.78,.29-.08,1.78,.15,4.01,.76,4.68,.13,.13,.19,.1,.27-.08,.17-.42,.36-.97,.55-1.51l.23,.04-.19,2.02c.34,.46,.46,.76,.27,1.05-.34,.57-1.24,.29-1.76-.17-1.22-1.18-1.47-3.57-1.51-6.17h-1.74c-.04,.73-.13,1.39-.25,2.04,2.54,1.22,1.83,3.04,.67,2.48-.21-.36-.59-.8-1.09-1.26-.57,1.36-1.72,2.46-3.88,3.34l-.25-.34c1.87-1.01,2.69-2.29,3.07-3.86-.46-.29-1.01-.63-1.6-.9l.15-.31c.59,.1,1.13,.21,1.62,.36,.08-.48,.11-.99,.13-1.53h-1.76l-.19-.61h1.97c.02-.59,.02-1.22,.02-1.87l2.12,.21Zm3.55-3.53s1.05,.84,1.7,1.49c-.06,.23-.27,.34-.57,.34h-4.01l-.21,1.11c-.32,.25-.97,.36-1.64,.19l.23-1.3h-2.79l-.17-.63h3.07l.31-1.76,2.25,.44c-.02,.27-.23,.48-.78,.48l-.15,.84h1.85l.9-1.2Z"/>
        <path d="M30.61,12.88c-.13,.21-.31,.31-.82,.23-.38,.67-.88,1.45-1.47,2.25l.92,.34c-.06,.19-.27,.34-.65,.4v9.87c-.02,.13-.69,.48-1.3,.48h-.29v-9.45c-.73,.86-1.53,1.64-2.41,2.33l-.23-.23c1.72-2.1,3.3-5.25,4.01-7.37l2.25,1.15Zm-.19-4.58c-.11,.23-.32,.31-.78,.23-1.07,1.45-2.88,3.4-4.87,4.68l-.21-.23c1.51-1.64,3-4.14,3.67-5.82l2.18,1.13Zm.44,6.24l2,.21c-.04,.25-.21,.46-.71,.52v1.87c-.02,2.08-.38,5.1-2.42,6.97l-.31-.25c1.28-1.93,1.45-4.72,1.45-6.76v-2.56Zm3.82-2.1v13.21c0,.21-.67,.57-1.22,.57h-.31V12.44h-2.77l-.17-.61h2.94V7.23l2.29,.25c-.06,.29-.23,.52-.76,.59v3.76h1.18l.92-1.22s1.07,.86,1.72,1.49c-.04,.23-.25,.34-.52,.34h-3.3Zm.88-4.58c3.02,1.15,1.79,3.28,.74,2.39-.08-.76-.55-1.7-.99-2.27l.25-.13Zm2.92,13.73c.38,.15,.55,.23,.55,.52,0,.5-.48,.71-1.72,.71h-.53c-.94,0-1.07-.36-1.07-1.13v-7.18l1.89,.23c-.02,.27-.23,.46-.61,.52v6.07c0,.23,.04,.31,.21,.31h.48c.08,0,.17,0,.21-.02,.08,0,.23-.04,.31-.06h.21l.06,.02Zm3.93-8.97s1.13,.92,1.85,1.6c-.06,.23-.25,.34-.55,.34h-1.87v9.72c0,1.18-.27,1.99-2.18,2.18-.02-.46-.11-.86-.32-1.11-.25-.25-.69-.44-1.51-.55v-.31s1.66,.13,2.02,.13,.44-.13,.44-.4V14.56h-2.46l-.17-.61h3.72l1.03-1.32Zm-4.07-2.73l-.17-.63h2.83l.99-1.28s1.13,.9,1.83,1.57c-.04,.23-.25,.34-.55,.34h-4.93Z"/>
        <path d="M55.16,7.92c-.1,.25-.38,.42-.84,.4-.67,1.68-1.47,3.25-2.35,4.66l.99,.38c-.06,.19-.25,.34-.63,.38v12.18c-.04,.13-.71,.52-1.39,.52h-.29V14.92c-.88,1.18-1.85,2.23-2.83,3.09l-.29-.19c1.95-2.54,3.99-6.66,5.14-10.75l2.5,.86Zm5.46,4.05v3.8h2.79l1.05-1.34s1.18,.94,1.91,1.62c-.06,.23-.25,.34-.57,.34h-5.19v3.91h3l1.09-1.41s1.26,.97,2.06,1.68c-.06,.23-.27,.34-.57,.34h-5.58v5.02c0,.13-.55,.5-1.43,.5h-.29V11.98h-1.32c-1.2,1.95-2.6,3.63-4.12,4.85l-.27-.21c1.72-2.25,3.55-5.88,4.62-9.53l2.48,.9c-.1,.25-.36,.42-.84,.38-.44,1.05-.94,2.06-1.49,3h6.15l1.11-1.41s1.28,.99,2.06,1.68c-.06,.23-.27,.34-.57,.34h-6.09Z"/>
        <path d="M78.26,16.66l1.87,1.43c-.15,.17-.46,.34-.86,.42v6.89c-.02,.15-.84,.52-1.41,.52h-.25v-1.55h-4.05v1.39c0,.17-.67,.55-1.36,.55h-.25v-9.43l1.72,.73h3.74l.86-.94Zm-.65,7.1v-5.54h-4.05v5.54h4.05Zm-.65-8.13c0,.15-.71,.55-1.43,.55h-.25V7.63l1.81,.78h6.82l.88-.99,1.89,1.47c-.13,.17-.46,.34-.88,.42v6.21c-.02,.15-.84,.52-1.41,.52h-.27v-1.55h-7.16v1.13Zm0-6.61v4.85h7.16v-4.85h-7.16Zm13.1,9.07c-.15,.17-.44,.34-.88,.44v7.05c-.02,.13-.86,.46-1.39,.46h-.27v-1.68h-4.2v1.43c0,.17-.69,.55-1.39,.55h-.25v-9.47l1.74,.73h3.88l.86-.94,1.89,1.43Zm-2.54,5.67v-5.54h-4.2v5.54h4.2Z"/>
        <path d="M98.36,10.91c.84,0,1.51,.69,1.51,1.51s-.67,1.51-1.51,1.51-1.51-.67-1.51-1.51,.65-1.51,1.51-1.51Zm0,10.08c.84,0,1.51,.69,1.51,1.51s-.67,1.51-1.51,1.51-1.51-.67-1.51-1.51,.65-1.51,1.51-1.51Z"/>
        <path d="M122.99,9.27c-.13,.17-.46,.36-.88,.42v14.4c0,1.3-.29,2.12-2.71,2.35-.06-.57-.21-.99-.55-1.26-.38-.27-.99-.5-2.12-.67v-.31s2.6,.19,3.09,.19c.44,0,.57-.17,.57-.5v-4.96h-8.06c-.48,2.88-1.83,5.56-5.4,7.52l-.23-.23c3.57-2.9,4.18-6.63,4.18-10.88V7.99l2.02,.82h7.29l.84-1.05,1.97,1.51Zm-2.6,9.03v-4.2h-7.81v1.22c0,.99-.04,1.99-.17,2.98h7.98Zm-7.81-8.9v4.07h7.81v-4.07h-7.81Z"/>
        <path d="M148.74,8.87c-.13,.17-.46,.31-.88,.42V25.67c-.02,.15-.8,.57-1.37,.57h-.25v-1.13h-13.9v.71c0,.21-.59,.63-1.3,.63h-.29V7.59l1.74,.8h13.54l.86-1.01,1.85,1.49Zm-2.5,15.62V9h-13.9v15.5h13.9Zm-13.14-.84c1.68-.63,3.51-1.87,4.37-2.77l1.83,1.13c-.15,.19-.46,.23-.97,.13-1.16,.71-3.17,1.47-5.08,1.83l-.15-.31Zm3-2.54c0,.15-.65,.48-1.26,.48h-.23v-8l1.6,.69h6.13l.74-.82,1.6,1.26c-.11,.15-.34,.29-.67,.34v5.88c-.02,.15-.78,.46-1.26,.46h-.25v-.67h-6.38v.38Zm.73-7.83c0,.13-.65,.46-1.24,.46h-.23v-4.05l1.58,.65h4.64l.76-.78,1.6,1.22c-.1,.13-.38,.29-.69,.34v2.06c-.02,.1-.78,.4-1.24,.4h-.23v-.59h-4.93v.29Zm-.73,1.62v1.3h6.38v-1.3h-6.38Zm6.38,3.25v-1.32h-6.38v1.32h6.38Zm0,1.97v-1.36h-6.38v1.36h6.38Zm-5.65-9.15v1.41h4.93v-1.41h-4.93Zm3.23,10.35c7.52,.55,5.08,3.53,3.72,2.35-.69-.71-1.97-1.47-3.82-2.04l.1-.31Z"/>
      </g>
      <rect class="cls-1" width="511" height="279"/>
    </g>
  </g>
</svg>