<?xml version="1.0" encoding="UTF-8"?>
<svg id="_圖層_2" data-name="圖層 2" xmlns="http://www.w3.org/2000/svg" viewBox="0 0 511.1 131.23">
  <defs>
    <style>
      .cls-1 {
        fill: #333;
      }
    </style>
  </defs>
  <g id="_圖層_1-2" data-name="圖層 1">
    <g>
      <g>
        <path class="cls-1" d="M16.02,57.86l-.21,.92c-2.35,.02-4.48,0-6.39-.05-1.91-.05-3.34-.25-4.3-.61-.96-.35-1.75-.86-2.37-1.51-.5,.83-1.17,1.64-2.01,2.44l-.7-.59c1.75-1.69,2.89-3.6,3.42-5.74H.67v-.89c.79-.94,1.68-2.19,2.69-3.74H.27v-.88H4.47v.88c-.67,1.04-1.54,2.29-2.59,3.74h2.53v.89c-.24,1.07-.65,2.11-1.22,3.13,.41,.43,.89,.78,1.44,1.06,.55,.28,1.08,.48,1.6,.6s1.42,.21,2.71,.28c1.28,.06,2.8,.09,4.55,.09,.88,0,1.73-.01,2.53-.04ZM3.91,45.8l-.65,.65c-.69-.89-1.52-1.73-2.5-2.52l.59-.67c1.1,.86,1.95,1.71,2.56,2.54Zm11.72,10.2H6.26v-7.68c-.51,.73-.91,1.23-1.19,1.51l-.61-.74c1.44-1.72,2.51-3.7,3.2-5.92l.9,.24c-.3,.88-.63,1.73-1,2.56h3.18c-.18-.7-.45-1.45-.81-2.25l.91-.29c.41,1.05,.71,1.9,.91,2.54h3.71v.88h-4.05v2.01h3.66v.87h-3.66v2.14h3.66v.89h-3.66v2.39h4.21v.86Zm-5.14-7.15v-2.01h-3.28v2.01h3.28Zm0,3.01v-2.14h-3.28v2.14h3.28Zm0,3.28v-2.39h-3.28v2.39h3.28Z"/>
        <path class="cls-1" d="M35.75,58.31l-.61,.83c-3.43-2.76-5.75-6.32-6.95-10.68-1.54,4.53-4.04,8.02-7.49,10.46l-.72-.74c1.18-.8,2.23-1.72,3.15-2.74s1.71-2.11,2.36-3.26,1.19-2.38,1.63-3.71c.44-1.32,.66-2.12,.66-2.39l-.11-1.39h-1.68v-.97h2.63c.04,5.9,2.42,10.76,7.13,14.57Z"/>
        <path class="cls-1" d="M45.09,51.42c-.73,.35-1.4,.63-2.01,.84v5.27c0,.4-.1,.76-.31,1.06s-.67,.46-1.4,.46c-.31,0-.61-.01-.91-.04l-.29-.88c.32,.01,.8,.02,1.44,.02,.11,0,.23-.05,.35-.16,.12-.11,.18-.22,.18-.34v-5.03c-.71,.3-1.43,.58-2.15,.83l-.34-.9c1.01-.33,1.84-.63,2.5-.9v-4.17h-2.29v-.94h2.29v-3.3h.92v3.3h1.77v.94h-1.77v3.78c.58-.23,1.17-.48,1.77-.76l.25,.91Zm4.09-.34c0,1.96-.31,3.58-.92,4.84s-1.49,2.35-2.64,3.26l-.7-.67c2.07-1.65,3.15-3.79,3.23-6.41-.91,.88-1.91,1.69-3.01,2.44l-.61-.79c1.25-.83,2.5-1.83,3.74-3.01v-7.49h.9v7.81Zm-1.65-2.03l-.92,.43c-.43-1.28-.98-2.51-1.65-3.67l.9-.45c.76,1.35,1.32,2.58,1.68,3.69Zm7.99,6.65c-.06,1.21-.27,2.03-.62,2.46s-.85,.64-1.49,.64c-1.06,0-1.77-.1-2.14-.29-.36-.2-.54-.63-.54-1.29v-13.96h.92v4.81c.96-.65,1.91-1.47,2.84-2.46l.69,.77c-.95,.94-2.12,1.91-3.52,2.93v1.51c1.45,.88,2.68,1.79,3.69,2.74l-.62,.77c-.94-.9-1.96-1.72-3.08-2.45v5.39c0,.39,.45,.59,1.34,.59,.59,0,.98-.13,1.19-.4s.35-.98,.42-2.14l.91,.38Z"/>
        <path class="cls-1" d="M75.04,45.8h-15.15v-.86h7.13c-.05-.35-.22-.83-.52-1.44l.91-.29c.21,.41,.4,.99,.58,1.73h7.05v.86Zm-.77,11.85c0,.42-.11,.76-.33,1.02s-.74,.39-1.56,.39c-.27,0-.6,0-.98-.03l-.31-.93c.73,.03,1.21,.04,1.46,.04,.53,0,.79-.22,.79-.66v-5h-11.7v6.57h-.92v-7.47h13.55v6.07Zm-1.76-7.28h-10.08v-3.42h10.08v3.42Zm-.99-.88v-1.63h-8.12v1.63h8.12Zm-.36,7.73h-7.38v-3.52h7.38v3.52Zm-.96-.87v-1.77h-5.45v1.77h5.45Z"/>
        <path class="cls-1" d="M95.18,58.35l-.64,.81c-1.93-1.24-3.48-2.67-4.64-4.29-1.16-1.63-2.02-3.64-2.59-6.04-.73,4.21-3.18,7.64-7.36,10.28l-.62-.82c1.06-.67,2.08-1.48,3.07-2.43s1.8-1.94,2.44-2.98c.64-1.05,1.14-2.48,1.49-4.31h-6.68v-.93h6.86c.19-1.48,.29-2.94,.31-4.38h1.03c-.06,1.57-.17,3.03-.34,4.38h7.37v.93h-6.67c.64,2.57,1.53,4.59,2.66,6.04,1.13,1.46,2.56,2.7,4.3,3.74Z"/>
        <path class="cls-1" d="M114.98,45.32h-13.62v4.98c0,2.22-.09,3.94-.27,5.17s-.56,2.43-1.14,3.61l-.72-.61c.83-2.01,1.25-4.75,1.25-8.21v-5.77h6.53c-.08-.26-.25-.58-.52-.94l.88-.34c.17,.28,.4,.71,.69,1.28h6.93v.83Zm-9.61,12.51c-.98,.26-2.31,.52-4,.77l-.18-.74,1.87-.31v-1.36h-1.42v-.77h1.42v-.96c-.41,.06-.77,.11-1.07,.15l-.24-.74c1.38-.18,2.44-.4,3.16-.67l.27,.72c-.42,.13-.84,.25-1.27,.34v1.15h1.26v.77h-1.26v1.19c.45-.06,.9-.16,1.34-.29l.11,.74Zm1.67-10.82h-.52v12.02h-.85v-6.51c-.84,.1-2.07,.2-3.68,.29l-.24-.77c.28,0,.56-.01,.84-.04v-4.99h-.54v-.81h4.98v.81Zm-1.37,.99v-.99h-2.19v.99h2.19Zm0,1.91v-1.12h-2.19v1.12h2.19Zm0,1.85v-1.05h-2.19v1.2l2.19-.16Zm3.21,3.78c-.36,1.2-.78,2.22-1.26,3.08l-.74-.43c.52-.97,.91-1.96,1.19-2.97l.81,.33Zm5.74-7.81h-3.18v1.05h2.87v3.28h-6.58v-3.28h2.82v-1.05h-3.09v-.83h3.09v-1.05h.89v1.05h3.18v.83Zm.17,6.03h-7.26v-.81h7.26v.81Zm-5.15-2.5v-1.68h-1.1v1.68h1.1Zm3.54,5.65c-.13,.81-.32,1.33-.57,1.54-.24,.21-.77,.32-1.58,.32-.32,0-.6,0-.83-.02-.23-.02-.42-.11-.58-.29s-.24-.42-.24-.7v-2.56h.89v2.43c0,.25,.15,.38,.45,.38,.67,0,1.08-.05,1.24-.16s.28-.51,.36-1.21l.86,.27Zm-1.56-5.65v-1.68h-1.19v1.68h1.19Zm.83,4.71l-.76,.43c-.43-.77-.85-1.4-1.26-1.89l.72-.43c.42,.43,.85,1.06,1.29,1.89Zm1.06-4.71v-1.68h-1.12v1.68h1.12Zm1.57,6.39l-.8,.36c-.36-1.01-.8-1.97-1.31-2.88l.77-.4c.5,.88,.95,1.86,1.34,2.92Z"/>
        <path class="cls-1" d="M126.6,52.86c-.43-.23-.65-.52-.65-.87,0-.17,.07-.34,.22-.52,.15-.18,.35-.27,.62-.27,.56,0,.84,.37,.84,1.11,0,.6-.35,1.19-1.06,1.75l-.38-.29c.27-.36,.4-.66,.4-.91Z"/>
        <path class="cls-1" d="M145.82,49.19h-5.31v9.79h-.92v-15.19h6.23v5.4Zm-.94-3.18v-1.35h-4.37v1.35h4.37Zm0,2.32v-1.48h-4.37v1.48h4.37Zm6.99,6.05h-2.85v4.23h-.93v-4.23h-2.73c-.08,1.67-.82,3.11-2.23,4.32l-.91-.52c1.4-1.17,2.14-2.44,2.21-3.8h-2.92v-.9h2.99v-2.07h-2.37v-.86h9.04v.86h-2.14v2.07h2.85v.9Zm-3.78-.9v-2.07h-2.65v2.07h2.65Zm5.63,4.17c0,.5-.14,.84-.43,1.02s-.79,.27-1.53,.27c-.3,0-.64,0-1-.02l-.36-.95c.3,.05,.96,.07,1.98,.07,.26,0,.4-.13,.4-.4v-8.46h-5.26v-5.4h6.2v13.86Zm-.94-11.65v-1.35h-4.3v1.35h4.3Zm0,2.32v-1.48h-4.3v1.48h4.3Z"/>
        <path class="cls-1" d="M166.83,44.1c-1.58,.5-3.59,.89-6.01,1.19v1.24h5.4v4.38h-5.4c-.03,3.23-.49,5.84-1.39,7.8l-.74-.62c.79-1.66,1.18-3.91,1.18-6.75v-6.86c2.31-.19,4.41-.58,6.29-1.16l.67,.78Zm-1.55,5.9v-2.58h-4.46v2.58h4.46Zm1.17,8.71h-.9v-.97h-3.16v.97h-.88v-6.24h4.93v6.24Zm-.9-1.87v-3.49h-3.16v3.49h3.16Zm8.87,1.56l-.61,.76c-1.36-.86-2.42-1.83-3.19-2.9-.87,1.15-1.86,2.13-2.97,2.92l-.69-.69c1.26-.88,2.28-1.9,3.07-3.08-.62-1.25-1.14-2.79-1.55-4.61l.9-.36c.3,1.61,.72,2.95,1.24,4.02,.89-1.83,1.38-4.27,1.46-7.34h-2.8c-.54,1.83-1.13,3.21-1.77,4.14l-.74-.62c1.21-1.96,1.97-4.42,2.29-7.4l.94,.13c-.08,.71-.25,1.66-.51,2.84h4.79v.91h-1.26c-.17,3.39-.78,6.15-1.84,8.3,.73,1.13,1.8,2.13,3.23,2.99Z"/>
        <path class="cls-1" d="M194.11,48.41v.9h-3.6c-.28,.81-.67,1.71-1.17,2.69h3.98v.91h-6.57v2.39h7.37v.91h-7.37v2.82h-.93v-2.82h-7.37v-.91h7.37v-2.39h-6.5v-.91h3.94c-.43-1.06-.91-1.96-1.42-2.69h-3.37v-.9h7.35v-2.52h-6.48v-.91h6.48v-1.62h.93v1.62h6.56v.91h-6.56v2.52h7.37Zm-4.66,.9h-6.49c.45,.75,.9,1.65,1.35,2.69h3.96c.41-.74,.8-1.64,1.17-2.69Z"/>
        <path class="cls-1" d="M203.6,52.45l-.56,.76c-.33-.39-.88-.89-1.67-1.51v7.3h-.91v-6.73c-.56,.74-1.15,1.44-1.78,2.11l-.57-.77c1.73-1.79,3.04-3.83,3.92-6.12h-3.65v-.85h4.66v.85c-.41,1.11-.94,2.19-1.6,3.23,.69,.4,1.41,.98,2.16,1.73Zm-1.93-6.86l-.83,.47c-.38-.84-.86-1.61-1.44-2.29l.7-.46c.65,.67,1.17,1.43,1.56,2.27Zm12.21-.93h-10.48v-.88h10.48v.88Zm-.63,14.38h-.9v-.91h-7.4v.91h-.91v-7.87h9.21v7.87Zm-.72-9.18h-7.83v-3.74h7.83v3.74Zm-4.33,4.32v-2.1h-3.24v2.1h3.24Zm0,3.07v-2.18h-3.24v2.18h3.24Zm3.42-8.31v-1.92h-5.96v1.92h5.96Zm.74,5.24v-2.1h-3.24v2.1h3.24Zm0,3.07v-2.18h-3.24v2.18h3.24Z"/>
        <path class="cls-1" d="M224.27,58.71h-.91v-1.55h-3.88v1.91h-.91v-12.76h1.67c.45-.8,.88-1.83,1.28-3.09l.9,.18c-.21,.63-.62,1.6-1.22,2.91h3.08v12.4Zm-.91-7.63v-3.87h-3.88v3.87h3.88Zm0,5.17v-4.26h-3.88v4.26h3.88Zm9.92-9.92c-.07,2.7-.2,5.2-.39,7.51s-.38,3.68-.58,4.09-.44,.7-.74,.87c-.3,.17-.87,.26-1.72,.26-.37,0-.85,0-1.45-.03l-.29-.91c.49,.02,1.02,.03,1.59,.03,.53,0,.87,0,1.02-.02s.31-.09,.47-.22c.16-.14,.28-.3,.35-.48,.07-.19,.16-.88,.28-2.07s.21-2.51,.29-3.95c.08-1.44,.13-2.83,.17-4.19h-4.69c-.63,1.25-1.35,2.43-2.18,3.56l-.74-.52c1.58-2.07,2.69-4.37,3.35-6.92l.91,.24c-.29,.96-.62,1.88-.98,2.75h5.33Zm-3.31,8.07l-.76,.54c-.58-1.34-1.45-2.73-2.61-4.19l.77-.5c1.08,1.3,1.94,2.69,2.59,4.16Z"/>
        <path class="cls-1" d="M243.67,54.79c-1.73,.96-3.56,1.82-5.48,2.59l-.34-.9c.88-.33,1.77-.7,2.65-1.12v-4.96h-2.19v-.88h2.19v-4.52h-2.44v-.86h5.62v.86h-2.25v4.52h1.82v.88h-1.82v4.52c.53-.23,1.26-.59,2.18-1.07l.07,.93Zm9.98,2.32l-.68,.72c-1.68-1.62-3-3.53-3.95-5.74v6.98h-.91v-7.01c-1.34,2.39-2.9,4.29-4.67,5.69l-.74-.7c2.14-1.61,3.82-3.67,5.03-6.19h-3.91v-.89h4.29v-2.92h-2.92c-.27,.57-.63,1.19-1.08,1.85l-.77-.52c.96-1.34,1.7-2.88,2.21-4.62l.84,.21c-.25,.83-.51,1.56-.79,2.21h2.5v-2.82h.91v2.82h3.95v.86h-3.95v2.92h4.38v.89h-3.96c1.05,2.58,2.46,4.67,4.21,6.26Z"/>
        <path class="cls-1" d="M271.05,56.75h-7.78l.49,.67c-1.45,.7-3.26,1.29-5.44,1.77l-.48-.85c1.85-.3,3.62-.83,5.33-1.58h-3.35v-5.43h11.23v5.43Zm1.91-7.99h-3.45v1.19h2.07v-.72h.87v1.42h-6.86v-1.42h.89v.72h2.18v-1.19h-3.66v-.7h3.66v-.81h-2.21l-.53,.52-.74-.4c.65-.6,1.14-1.17,1.46-1.69l.76,.33c-.1,.17-.22,.35-.36,.54h4.93v-1.2h-13.04l.02,1.13h5.67v.7h-2.42v.93h2.13v.69h-2.13v.91c.86-.05,1.7-.12,2.52-.21v.79c-1.78,.19-3.97,.34-6.57,.47l-.22-.74c1.2-.05,2.34-.12,3.44-.21v-1.01h-2.52v-.69h2.52v-.93h-2.8v-.62h-.53v-2h7.02c-.13-.29-.33-.59-.6-.92l.89-.33c.26,.37,.52,.79,.77,1.25h6.75v2.1h-.72v.58h-2.63v.81h3.45v.7Zm-2.8,4.14v-.84h-9.41v.84h9.41Zm0,1.56v-.83h-9.41v.83h9.41Zm0,1.55v-.83h-9.41v.83h9.41Zm3.06,2.32l-.45,.83c-1.54-.47-3.46-.85-5.78-1.13l.4-.76c2.18,.23,4.12,.59,5.84,1.05Z"/>
        <path class="cls-1" d="M293.28,47.48l-.49,.83c-3.13-1.07-5.64-2.33-7.52-3.78-1.64,1.3-4.08,2.58-7.32,3.85l-.62-.84c3.39-1.13,6.07-2.58,8.06-4.34l.91,.43c-.05,.06-.14,.17-.29,.31,1.66,1.32,4.09,2.5,7.28,3.55Zm-.2,11.1h-15.64v-.91h1.84v-4h11.99v4h1.82v.91Zm-10.1-.91v-3.1h-2.77v3.1h2.77Zm7.29-5.27h-10.02v-3.59h10.02v3.59Zm-.93-.91v-1.76h-8.14v1.76h8.14Zm-1.2-3.88h-5.78v-.88h5.78v.88Zm-1.46,10.06v-3.1h-2.78v3.1h2.78Zm3.67,0v-3.1h-2.78v3.1h2.78Z"/>
        <path class="cls-1" d="M304.8,52.86c-.43-.23-.65-.52-.65-.87,0-.17,.07-.34,.22-.52,.15-.18,.35-.27,.62-.27,.56,0,.84,.37,.84,1.11,0,.6-.35,1.19-1.06,1.75l-.38-.29c.27-.36,.4-.66,.4-.91Z"/>
        <path class="cls-1" d="M332.78,58.35l-.64,.81c-1.93-1.24-3.48-2.67-4.64-4.29-1.16-1.63-2.02-3.64-2.59-6.04-.73,4.21-3.18,7.64-7.36,10.28l-.62-.82c1.06-.67,2.08-1.48,3.07-2.43s1.8-1.94,2.44-2.98c.64-1.05,1.14-2.48,1.49-4.31h-6.68v-.93h6.86c.19-1.48,.29-2.94,.31-4.38h1.03c-.06,1.57-.17,3.03-.34,4.38h7.37v.93h-6.67c.64,2.57,1.53,4.59,2.66,6.04,1.13,1.46,2.56,2.7,4.3,3.74Z"/>
        <path class="cls-1" d="M352.58,45.32h-13.62v4.98c0,2.22-.09,3.94-.27,5.17s-.56,2.43-1.14,3.61l-.72-.61c.83-2.01,1.25-4.75,1.25-8.21v-5.77h6.53c-.08-.26-.25-.58-.52-.94l.88-.34c.17,.28,.4,.71,.69,1.28h6.93v.83Zm-9.61,12.51c-.98,.26-2.31,.52-4,.77l-.18-.74,1.87-.31v-1.36h-1.42v-.77h1.42v-.96c-.41,.06-.77,.11-1.07,.15l-.24-.74c1.38-.18,2.44-.4,3.16-.67l.27,.72c-.42,.13-.84,.25-1.27,.34v1.15h1.26v.77h-1.26v1.19c.45-.06,.9-.16,1.34-.29l.11,.74Zm1.67-10.82h-.52v12.02h-.85v-6.51c-.84,.1-2.07,.2-3.68,.29l-.24-.77c.28,0,.56-.01,.84-.04v-4.99h-.54v-.81h4.98v.81Zm-1.37,.99v-.99h-2.19v.99h2.19Zm0,1.91v-1.12h-2.19v1.12h2.19Zm0,1.85v-1.05h-2.19v1.2l2.19-.16Zm3.21,3.78c-.36,1.2-.78,2.22-1.26,3.08l-.74-.43c.52-.97,.91-1.96,1.19-2.97l.81,.33Zm5.74-7.81h-3.18v1.05h2.87v3.28h-6.58v-3.28h2.82v-1.05h-3.09v-.83h3.09v-1.05h.89v1.05h3.18v.83Zm.17,6.03h-7.26v-.81h7.26v.81Zm-5.15-2.5v-1.68h-1.1v1.68h1.1Zm3.54,5.65c-.13,.81-.32,1.33-.57,1.54-.24,.21-.77,.32-1.58,.32-.32,0-.6,0-.83-.02-.23-.02-.42-.11-.58-.29s-.24-.42-.24-.7v-2.56h.89v2.43c0,.25,.15,.38,.45,.38,.67,0,1.08-.05,1.24-.16s.28-.51,.36-1.21l.86,.27Zm-1.56-5.65v-1.68h-1.19v1.68h1.19Zm.83,4.71l-.76,.43c-.43-.77-.85-1.4-1.26-1.89l.72-.43c.42,.43,.85,1.06,1.29,1.89Zm1.06-4.71v-1.68h-1.12v1.68h1.12Zm1.57,6.39l-.8,.36c-.36-1.01-.8-1.97-1.31-2.88l.77-.4c.5,.88,.95,1.86,1.34,2.92Z"/>
        <path class="cls-1" d="M362.43,50c-.28,.74-.74,1.48-1.37,2.23,.58,.56,1.02,1.05,1.32,1.48l-.63,.63c-.72-.87-1.39-1.56-2.01-2.06v6.79h-.94v-6.94c-.37,.47-.92,1.07-1.65,1.8l-.62-.72c1.83-1.86,3.17-3.87,4.02-6.05h-3.95v-.91h4.91v.91c-.53,1.43-1.12,2.64-1.78,3.63v.31c.22,.18,.44,.37,.66,.56,.52-.57,.93-1.25,1.25-2.06l.79,.4Zm-2.27-4.84l-.79,.58c-.34-.57-.88-1.17-1.61-1.82l.76-.54c.64,.52,1.19,1.11,1.64,1.78Zm12.09,13.52h-10.53v-.9h4.9v-2.73h-3.87v-.91h3.87v-2.36h-3.62v-7.94h8.46v7.94h-3.91v2.36h3.96v.91h-3.96v2.73h4.7v.9Zm-5.63-11.37v-2.56h-2.72v2.56h2.72Zm0,3.59v-2.66h-2.72v2.66h2.72Zm3.9-3.59v-2.56h-2.97v2.56h2.97Zm0,3.59v-2.66h-2.97v2.66h2.97Z"/>
        <path class="cls-1" d="M391.82,46.35h-11.46c-.19,3.47-.53,6.07-1.02,7.8s-1.23,3.23-2.23,4.49l-.77-.64c1.8-2.44,2.82-6.33,3.06-11.65h-2.68v-.96h2.7c.05-.69,.07-1.4,.07-2.13h.98c0,.92-.02,1.63-.05,2.13h11.41v.96Zm.33,12.09l-.59,.77c-2.9-1.8-4.79-3.73-5.68-5.78-.31,1.27-1.05,2.41-2.22,3.43-1.17,1.02-2.51,1.8-4.04,2.33l-.51-.91c1.43-.4,2.68-1.06,3.74-1.97,1.07-.92,1.78-2.02,2.15-3.31s.52-3.2,.46-5.73h.98l-.08,4.39c0,.4,.16,.93,.47,1.56,1.24-1.2,2.44-2.7,3.62-4.5l.77,.62c-.91,1.46-2.23,3.05-3.95,4.78,.96,1.51,2.58,2.94,4.86,4.31Zm-8.26-5.58l-.81,.54c-.54-1.22-1.31-2.55-2.32-3.99l.77-.6c1.18,1.73,1.96,3.08,2.36,4.05Z"/>
        <path class="cls-1" d="M402.45,57.05c-2.54,.98-4.56,1.64-6.05,1.98l-.27-.88c.81-.18,1.79-.45,2.94-.81v-5.96h-2.59v-.84h2.59v-1.97h-1.64v-.54c-.34,.35-.58,.58-.71,.7l-.51-.74c1.19-1.15,2.25-2.75,3.19-4.79l.83,.29c-.01,.06-.08,.21-.2,.45,1.39,1.39,2.21,2.26,2.43,2.61l-.62,.56c-.65-.83-1.39-1.61-2.21-2.33-.7,1.24-1.34,2.21-1.92,2.94h4.05v.84h-1.77v1.97h2.43v.84h-2.43v5.65c.88-.29,1.67-.59,2.36-.9l.11,.91Zm-4.17-.72l-.83,.27c-.13-1.17-.43-2.44-.88-3.81l.83-.25c.38,1.18,.68,2.44,.89,3.8Zm4.16-3.56c-.26,1.31-.55,2.37-.87,3.18l-.79-.31c.33-.88,.61-1.94,.82-3.16l.84,.29Zm9.55,3.61c-.09,1.06-.28,1.74-.56,2.05-.29,.31-.84,.46-1.67,.46-1.17,0-1.76-.39-1.76-1.18v-3.19h-1.7c-.04,1.1-.42,2.05-1.14,2.87s-1.65,1.37-2.78,1.66l-.41-.79c2.16-.65,3.3-1.9,3.4-3.74h-1.97v-5.11h7.54v5.11h-2.03v3.12c0,.22,.11,.33,.33,.33,.76,0,1.21-.02,1.36-.07,.14-.04,.25-.14,.31-.29s.14-.66,.24-1.55l.84,.31Zm-.07-8.09h-9.48v-.81h2.82c-.25-.74-.49-1.34-.74-1.78h-1.74v-.81h3.92c-.2-.46-.43-.9-.69-1.32l.87-.31c.27,.45,.53,.99,.77,1.63h3.99v.81h-1.49c-.29,.76-.56,1.35-.81,1.78h2.58v.81Zm-1.89,3.23v-1.27h-5.67v1.27h5.67Zm0,2.18v-1.39h-5.67v1.39h5.67Zm-.86-8.01h-3.6c.21,.46,.43,1.06,.67,1.78h2.14c.37-.72,.63-1.32,.79-1.78Z"/>
        <path class="cls-1" d="M422.27,58.71h-.91v-1.55h-3.88v1.91h-.91v-12.76h1.67c.45-.8,.88-1.83,1.28-3.09l.9,.18c-.21,.63-.62,1.6-1.22,2.91h3.08v12.4Zm-.91-7.63v-3.87h-3.88v3.87h3.88Zm0,5.17v-4.26h-3.88v4.26h3.88Zm9.92-9.92c-.07,2.7-.2,5.2-.39,7.51s-.38,3.68-.58,4.09-.44,.7-.74,.87c-.3,.17-.87,.26-1.72,.26-.37,0-.85,0-1.45-.03l-.29-.91c.49,.02,1.02,.03,1.59,.03,.53,0,.87,0,1.02-.02s.31-.09,.47-.22c.16-.14,.28-.3,.35-.48,.07-.19,.16-.88,.28-2.07s.21-2.51,.29-3.95c.08-1.44,.13-2.83,.17-4.19h-4.69c-.63,1.25-1.35,2.43-2.18,3.56l-.74-.52c1.58-2.07,2.69-4.37,3.35-6.92l.91,.24c-.29,.96-.62,1.88-.98,2.75h5.33Zm-3.31,8.07l-.76,.54c-.58-1.34-1.45-2.73-2.61-4.19l.77-.5c1.08,1.3,1.94,2.69,2.59,4.16Z"/>
        <path class="cls-1" d="M451.58,58.39l-.61,.81c-2.11-1.08-3.7-2.25-4.77-3.49-1.07-1.24-1.91-2.86-2.5-4.84-.76,3.39-3.17,6.18-7.23,8.35l-.72-.77c4.12-2.02,6.5-4.81,7.13-8.38h-6.64v-.91h6.79c.16-1.15,.27-2.63,.34-4.45h-6.24v-.93h13.17v.93h-5.99c-.04,1.74-.13,3.22-.27,4.45h7.11v.91h-6.64c.46,1.96,1.24,3.59,2.34,4.88,1.1,1.29,2.68,2.44,4.75,3.44Z"/>
        <path class="cls-1" d="M461.43,48.45c-.47,.91-.98,1.76-1.53,2.54v8.06h-.96v-6.84c-.66,.7-1.55,1.48-2.66,2.34l-.72-.69c2.2-1.42,3.85-3.33,4.95-5.73l.92,.33Zm1.67-2.41h-2.2v1.72h-.93v-1.72h-4.32v-.89h4.32v-1.91h.93v1.91h2.2v.89Zm8.17,9.05c-.08,1.47-.22,2.4-.43,2.79-.21,.39-.46,.65-.76,.78-.3,.13-1.21,.2-2.74,.2-1.71,0-2.73-.09-3.06-.27s-.49-.56-.49-1.14v-9.18h.96v3.08h6.22v.86h-6.22v5.19c0,.25,.11,.41,.33,.48,.22,.07,.97,.1,2.25,.1,1.43,0,2.24-.04,2.42-.12s.32-.42,.42-1.01c.1-.6,.17-1.3,.2-2.11l.9,.36Zm.07-9.05h-4.26v1.87h-.94v-1.87h-2.32v-.89h2.32v-1.91h.94v1.91h4.26v.89Z"/>
        <path class="cls-1" d="M481.7,51.71l-.72,.76c-.63-1-1.23-1.82-1.8-2.47v9.15l-.91-.04v-9.27c-.64,1.94-1.4,3.5-2.27,4.68l-.63-.83c1.18-1.73,2.06-3.67,2.65-5.83h-2.44v-.91h2.68v-3.56h.93v3.56h2.36v.91h-2.36v.91c1.02,1.04,1.86,2.02,2.52,2.94Zm9.5,6.55l-.61,.83c-1.51-.78-2.72-1.67-3.64-2.66-1.1,1.12-2.38,2.03-3.85,2.74l-.7-.74c1.67-.82,2.97-1.72,3.9-2.7-1.24-1.69-2.03-3.85-2.37-6.49h-.62c-.01,2.61-.22,4.65-.62,6.11s-1,2.69-1.78,3.7l-.91-.48c.69-.8,1.25-1.88,1.7-3.24s.67-3.36,.67-6.01v-5.47h8.47v.9h-7.54v3.59h6.73c-.39,3.3-1.21,5.77-2.44,7.4,.91,.94,2.11,1.79,3.61,2.53Zm-2.27-9.02h-4.01c.3,2.36,.98,4.26,2.01,5.69,1.01-1.38,1.67-3.27,2-5.69Z"/>
        <path class="cls-1" d="M511.1,58.33l-.56,.91c-2.44-.73-4.4-1.6-5.89-2.59-1.54,1.02-3.53,1.86-5.98,2.52l-.55-.87c2.4-.59,4.31-1.34,5.72-2.25-1.59-1.26-3.07-3.52-4.43-6.77h-1.19c.02,2.58-.17,4.62-.56,6.12-.39,1.5-.95,2.73-1.67,3.69l-.79-.57c1.39-1.79,2.09-4.37,2.09-7.73v-7.03h13.26v.97h-12.33v3.6h11.45v.95c-.43,1.38-1.03,2.69-1.79,3.94-.77,1.25-1.57,2.19-2.42,2.81,1.44,.93,3.32,1.7,5.63,2.3Zm-2.49-9.05h-8.16c1.18,2.98,2.58,5.04,4.19,6.18,1.64-1.26,2.96-3.32,3.96-6.18Z"/>
        <path class="cls-1" d="M5.01,93.4h-.94v-.88H1.8v1.69H.87v-13.61H5.01v12.8Zm-.91-7.35v-4.54H1.8v4.54h2.29Zm-.03,5.53v-4.59H1.8v4.59h2.27Zm11.85-2.95h-5.22c-.58,2.92-2.38,5.1-5.4,6.52l-.69-.74c1.31-.53,2.44-1.33,3.41-2.4s1.55-2.2,1.75-3.38H5.59v-.93h1.09v-5.7h3.52v-2.63h.88v2.63h3.44v5.7h1.41v.93Zm-5.74-5.69h-2.58v4.75h2.34c.16-1.28,.24-2.87,.24-4.75Zm3.42,4.75v-4.75h-2.5c.02,1.78-.04,3.37-.19,4.75h2.7Zm2.34,6.87l-.7,.63c-.9-1.32-2.31-2.84-4.21-4.55l.67-.6c1.82,1.56,3.23,3.07,4.25,4.52Z"/>
        <path class="cls-1" d="M34.72,95.08h-.97v-.84h-12.67v-6.05h.94v5.12h5.43v-6.92h-5.62v-5.92h.98v4.98h4.64v-6.13h.91v6.13h4.58v-4.98h.95v5.92h-5.48v6.92h5.34v-5.13h.97v6.91Z"/>
        <path class="cls-1" d="M45.6,84.69h-2.16v.36c.9,.83,1.59,1.56,2.08,2.21l-.61,.79c-.59-.81-1.08-1.42-1.48-1.82v8.83h-.94v-8.11c-.81,1.9-1.48,3.26-2.01,4.09l-.79-.56c1.04-1.52,1.95-3.45,2.73-5.79h-2.58v-.94h2.65v-2.68c-.83,.21-1.56,.35-2.19,.43l-.34-.86c1.99-.31,3.63-.76,4.93-1.34l.47,.77c-.43,.22-1.07,.46-1.92,.74v2.94h2.16v.94Zm8.8-4.17c-.87,2.76-1.67,4.86-2.4,6.3s-1.62,2.76-2.65,3.96v2.63c0,.15,.06,.28,.18,.39s.26,.17,.42,.17h2.21c.41,0,.67-.26,.79-.78s.17-1.36,.17-2.52l.93,.3c-.06,1.78-.24,2.88-.54,3.3-.3,.42-.71,.63-1.23,.63h-2.34c-.5,0-.89-.14-1.15-.42s-.4-.64-.4-1.09v-1.63c-.98,1.04-2.17,1.97-3.58,2.8l-.58-.76c1.55-.93,2.93-2.05,4.16-3.38v-7.27h.94v6.1c1.66-2.06,3.02-5.07,4.06-9.04l.99,.33Zm-6.8,3.74c-.38,2.62-.93,4.67-1.65,6.13l-.87-.33c.76-1.63,1.3-3.62,1.63-5.98l.9,.17Zm4.1-1.75l-.72,.65c-.63-1.03-1.55-2.11-2.75-3.24l.61-.63c1.27,1.16,2.23,2.24,2.87,3.23Zm3.81,7.7l-.86,.44c-.28-1.41-.77-2.91-1.46-4.52l.79-.36c.71,1.56,1.22,3.04,1.53,4.44Z"/>
        <path class="cls-1" d="M64.56,91.52c-1.83,.87-3.4,1.51-4.71,1.94l-.29-.84,2.03-.76v-6.87h-1.89v-.87h1.89v-4.55h.89v4.55h1.41v.87h-1.41v6.5c.68-.27,1.32-.56,1.92-.86l.16,.9Zm10.78,.54c-.05,.91-.12,1.52-.21,1.83-.09,.31-.27,.56-.53,.73-.26,.17-.76,.26-1.49,.26-.93,0-1.55-.08-1.85-.25s-.45-.49-.45-.98v-2.94h-2.05c-.09,.96-.58,1.88-1.47,2.77s-2.11,1.43-3.67,1.63l-.4-.82c2.71-.38,4.24-1.57,4.59-3.58h-2.25v-5.17h8.73v5.17h-2.59v2.86c0,.24,.12,.36,.36,.36l1.24,.04c.42,0,.68-.04,.8-.11,.11-.07,.21-.27,.28-.59,.07-.32,.11-.83,.11-1.52l.86,.32Zm0-7.79h-10.78v-.85h2.94c-.15-.64-.35-1.24-.61-1.79h-1.87v-.87h4.46c-.13-.38-.3-.79-.51-1.26l.84-.25c.29,.55,.49,1.05,.6,1.51h4.54v.87h-1.91c-.19,.53-.45,1.13-.77,1.79h3.08v.85Zm-1.96,3.44v-1.3h-6.89v1.3h6.89Zm0,2.16v-1.3h-6.89v1.3h6.89Zm-1.39-8.24h-4.1c.24,.64,.43,1.24,.58,1.79h2.79c.31-.57,.56-1.17,.74-1.79Z"/>
        <path class="cls-1" d="M94.1,89.69h-6.34v5.4h-.95v-5.4h-6.37v-7.16h6.37v-3.19h.95v3.19h6.34v7.16Zm-7.29-.97v-5.24h-5.42v5.24h5.42Zm6.32,0v-5.24h-5.37v5.24h5.37Z"/>
        <path class="cls-1" d="M105.47,94.71h-.91v-1.55h-3.88v1.91h-.91v-12.76h1.67c.45-.8,.88-1.83,1.28-3.09l.9,.18c-.21,.63-.62,1.6-1.22,2.91h3.08v12.4Zm-.91-7.63v-3.87h-3.88v3.87h3.88Zm0,5.17v-4.26h-3.88v4.26h3.88Zm9.92-9.92c-.07,2.7-.2,5.2-.39,7.51s-.38,3.68-.58,4.09-.44,.7-.74,.87c-.3,.17-.87,.26-1.72,.26-.37,0-.85,0-1.45-.03l-.29-.91c.49,.02,1.02,.03,1.59,.03,.53,0,.87,0,1.02-.02s.31-.09,.47-.22c.16-.14,.28-.3,.35-.48,.07-.19,.16-.88,.28-2.07s.21-2.51,.29-3.95c.08-1.44,.13-2.83,.17-4.19h-4.69c-.63,1.25-1.35,2.43-2.18,3.56l-.74-.52c1.58-2.07,2.69-4.37,3.35-6.92l.91,.24c-.29,.96-.62,1.88-.98,2.75h5.33Zm-3.31,8.07l-.76,.54c-.58-1.34-1.45-2.73-2.61-4.19l.77-.5c1.08,1.3,1.94,2.69,2.59,4.16Z"/>
        <path class="cls-1" d="M124.42,82.09h-5.39v-.86h2.49c-.18-.62-.43-1.18-.76-1.7l.86-.31c.34,.66,.62,1.33,.83,2h1.97v.86Zm-.4,2.44h-4.61v-.88h4.61v.88Zm0,2.78h-4.61v-.94h4.61v.94Zm-.15,7.29h-.93v-.97h-2.54v1.38h-.9v-5.88h4.37v5.47Zm-.93-1.84v-2.75h-2.54v2.75h2.54Zm10.34-12.73c-1.2,2.82-2.65,4.86-4.37,6.11v.81c0,.11,.06,.22,.17,.33s.22,.16,.33,.16h2.07c.49,0,.79-.59,.89-1.78l.84,.46c-.09,.83-.26,1.39-.52,1.7s-.66,.46-1.21,.46h-2.05c-.96,0-1.44-.49-1.44-1.46-.97,.66-1.92,1.21-2.86,1.66l-.63-.72c1.36-.63,2.53-1.3,3.51-2v-4.12h.91v3.4c1.32-1.11,2.52-2.88,3.58-5.31l.79,.32Zm1.37,14.58h-9.99v-.9h.92v-4.52h8.01v4.52h1.06v.9Zm-7.73-12.22c-.3,1.39-.71,2.55-1.2,3.49l-.79-.34c.47-1.04,.86-2.18,1.17-3.44l.83,.29Zm.98,11.32v-3.6h-1.44v3.6h1.44Zm2.8-12.83l-.55,.68c-.84-.65-1.69-1.18-2.56-1.6l.56-.72c1.18,.66,2.03,1.2,2.55,1.64Zm-.43,12.83v-3.6h-1.48v3.6h1.48Zm2.4,0v-3.6h-1.48v3.6h1.48Zm2.01-8.33l-.84,.38c-.25-.88-.65-1.86-1.2-2.92l.84-.34c.5,1,.91,1.96,1.2,2.88Z"/>
        <path class="cls-1" d="M145.91,85.65h-7.09v-.81h3.37v-1.26h-2.66v-.77h2.66v-1.3h-3.02v-.84h3.02v-1.34h.92v1.34h2.79v.84h-2.79v1.3h2.39v.77h-2.39v1.26h2.8v.81Zm-.59,8.1c0,.88-.52,1.33-1.56,1.33-.25,0-.55-.02-.89-.05l-.36-.9c.29,.01,.78,.02,1.48,.02,.28,0,.41-.15,.41-.45v-1.55h-3.73c-.24,1.28-.56,2.24-.95,2.89l-.79-.47c.63-1.11,.95-2.55,.95-4.32v-3.46h5.44v6.95Zm-.92-2.45v-1.4h-3.6c0,.45-.01,.91-.04,1.4h3.64Zm0-2.27v-1.36h-3.6v1.36h3.6Zm10.12-.5h-1.08v2.79h-2.94v2.36c0,.5-.13,.86-.39,1.06s-.68,.31-1.24,.31c-.3,0-.65,0-1.05-.03l-.41-.93c.53,.04,.96,.05,1.29,.05,.41,0,.66-.04,.75-.12,.09-.08,.14-.21,.14-.4v-2.31h-2.88v-.81h2.88v-1.98h-3.38v-.84h3.38v-1.87h-2.88v-.83h6.73v2.7h1.08v.84Zm-.6-8.4c-1.77,.63-4.17,1.02-7.22,1.17l-.34-.85c3.06-.14,5.42-.5,7.09-1.09l.47,.77Zm-5.34,3.99l-.84,.27c-.34-.69-.75-1.35-1.24-2l.83-.34c.5,.67,.92,1.36,1.26,2.07Zm2.45-.18l-.81,.25c-.42-1.11-.71-1.83-.89-2.15l.85-.31c.3,.64,.59,1.38,.84,2.21Zm1.49,3.74v-1.87h-2.02v1.87h2.02Zm0,2.82v-1.98h-2.02v1.98h2.02Zm1.56-8.54c-.5,1.16-.93,1.97-1.3,2.43l-.77-.45c.54-.73,.97-1.52,1.28-2.38l.79,.4Z"/>
        <path class="cls-1" d="M166.2,88.86c-.43-.23-.65-.52-.65-.87,0-.17,.07-.34,.22-.52,.15-.18,.35-.27,.62-.27,.56,0,.84,.37,.84,1.11,0,.6-.35,1.19-1.06,1.75l-.38-.29c.27-.36,.4-.66,.4-.91Z"/>
        <path class="cls-1" d="M192.55,93.69c0,.39-.08,.68-.25,.88-.16,.2-.38,.33-.63,.39-.26,.06-.83,.08-1.71,.08-.55,0-1.06-.01-1.52-.04l-.41-.95c.7,.04,1.32,.05,1.85,.05,.83,0,1.32-.05,1.47-.14s.22-.25,.22-.46v-4.16h-9.81c-.15,2.28-1.02,4.22-2.59,5.82l-.79-.72c.83-.77,1.45-1.72,1.87-2.87,.42-1.15,.63-2.77,.63-4.87v-6.96h11.66v13.95Zm-.98-5.29v-3.45h-9.72c.02,.62,0,1.77-.04,3.45h9.76Zm0-4.39v-3.31h-9.72v3.31h9.72Z"/>
        <path class="cls-1" d="M213.83,90.79c-.05,1.85-.27,2.98-.66,3.39s-.88,.62-1.47,.62h-2.9c-.45,0-.8-.15-1.05-.44-.25-.29-.38-.67-.38-1.14v-6.16h-3.08c-.04,1.83-.45,3.42-1.23,4.76-.78,1.34-2.18,2.46-4.2,3.36l-.7-.85c3.49-1.28,5.2-3.7,5.13-7.27h-4.9v-.98h7.11v-6.79h.97v6.79h7.2v.98h-5.33v6.16c0,.18,.06,.33,.18,.45,.12,.13,.26,.19,.44,.19h2.7c.47,0,.79-.25,.95-.74,.17-.5,.25-1.37,.25-2.62l.98,.29Zm-10.68-6.25l-.83,.54c-.58-1.34-1.4-2.7-2.46-4.09l.79-.58c1.27,1.8,2.1,3.17,2.5,4.12Zm8.96-3.85c-.84,1.82-1.68,3.26-2.51,4.34l-.82-.54c1.02-1.32,1.83-2.72,2.42-4.19l.91,.4Z"/>
        <path class="cls-1" d="M225.26,87.31l-.63,.07v6.1c0,.7-.18,1.14-.55,1.32-.37,.18-1.19,.25-2.47,.21l-.29-.91c.32,.01,.91,.02,1.77,.02,.42,0,.62-.2,.62-.6v-5.98c-.98,.13-2.11,.25-3.38,.38-.12,3.04-.66,5.46-1.62,7.24l-.84-.58c.94-1.68,1.46-3.86,1.56-6.57-.52,.05-.93,.07-1.24,.07l-.2-.89c.33,0,.83-.02,1.49-.07v-5.76h1.51c.35-.76,.62-1.49,.81-2.2l.89,.2c-.08,.3-.35,.96-.79,2h2.73v5.15c.22-.02,.43-.05,.63-.1v.89Zm-1.56-.67v-4.36h-3.32v4.75c.93-.07,2.04-.2,3.32-.4Zm-.93,4.97l-.83,.38c-.25-1.29-.53-2.26-.83-2.92l.83-.35c.43,1.22,.7,2.18,.83,2.89Zm.05-5.98l-.79,.31c-.22-1.11-.46-2-.74-2.68l.76-.36c.4,.97,.66,1.88,.77,2.73Zm11.06,8.75l-.56,.81c-1.32-.48-2.54-1.22-3.64-2.23-1.17,.96-2.47,1.69-3.88,2.18l-.63-.82c1.74-.57,3.03-1.25,3.86-2.03-1.01-1.19-1.78-2.65-2.29-4.39h-.98v-.9h6.84c-.43,2.16-1.2,3.92-2.32,5.29,.98,.9,2.19,1.6,3.62,2.09Zm-.36-8.64h-1.71c-.78,0-1.17-.38-1.17-1.13v-3.98h-2.61c0,2.61-.67,4.47-2.01,5.56l-.8-.6c.78-.59,1.29-1.29,1.53-2.12,.24-.83,.36-2.08,.36-3.74h4.46v4.68c0,.3,.16,.45,.47,.45h1.48v.89Zm-2.07,2.15h-3.83c.47,1.47,1.14,2.72,2.01,3.76,.76-.88,1.37-2.13,1.82-3.76Z"/>
        <path class="cls-1" d="M244.07,94.71h-.91v-1.55h-3.88v1.91h-.91v-12.76h1.67c.45-.8,.88-1.83,1.28-3.09l.9,.18c-.21,.63-.62,1.6-1.22,2.91h3.08v12.4Zm-.91-7.63v-3.87h-3.88v3.87h3.88Zm0,5.17v-4.26h-3.88v4.26h3.88Zm9.92-9.92c-.07,2.7-.2,5.2-.39,7.51s-.38,3.68-.58,4.09-.44,.7-.74,.87c-.3,.17-.88,.26-1.72,.26-.37,0-.85,0-1.45-.03l-.29-.91c.49,.02,1.02,.03,1.59,.03,.53,0,.88,0,1.02-.02s.31-.09,.47-.22c.16-.14,.28-.3,.35-.48,.07-.19,.16-.88,.28-2.07s.21-2.51,.29-3.95c.08-1.44,.13-2.83,.17-4.19h-4.69c-.63,1.25-1.35,2.43-2.18,3.56l-.74-.52c1.58-2.07,2.69-4.37,3.35-6.92l.91,.24c-.29,.96-.62,1.88-.98,2.75h5.33Zm-3.31,8.07l-.76,.54c-.58-1.34-1.45-2.73-2.61-4.19l.77-.5c1.08,1.3,1.94,2.69,2.59,4.16Z"/>
        <path class="cls-1" d="M271.85,95.03h-.97v-1.62h-10.85v1.62h-.96v-12.85h3.21c.57-.83,1.12-1.83,1.65-2.99l1.01,.29c-.26,.6-.76,1.5-1.48,2.7h8.38v12.85Zm-.97-7.7v-4.23h-10.85v4.23h10.85Zm0,5.15v-4.24h-10.85v4.24h10.85Z"/>
        <path class="cls-1" d="M292.94,91.11c-.02,.67-.11,1.3-.27,1.88s-.34,.98-.52,1.21c-.18,.23-.42,.39-.7,.5-.28,.11-.89,.17-1.81,.19s-2.03,.03-3.33,.03c-1.03,0-2.18,0-3.47-.03s-2.03-.04-2.23-.08-.39-.12-.58-.27c-.18-.14-.33-.32-.42-.54-.1-.21-.14-.46-.14-.73v-9h5.92l2.76-2.59h-5.85c-1.31,1.34-2.78,2.43-4.39,3.27l-.59-.76c2.5-1.33,4.42-3,5.77-5.02l.98,.36c-.27,.4-.57,.8-.91,1.19h6.45v.81c-.72,.75-1.68,1.66-2.87,2.74h4.9v5.12h-11.21v3.86c0,.12,.07,.26,.2,.43,.13,.16,.37,.26,.72,.29s1.85,.05,4.52,.05c2.86,0,4.46-.03,4.81-.08,.35-.06,.61-.19,.78-.4s.31-.58,.41-1.09c.1-.52,.16-1.1,.18-1.75l.91,.41Zm-7.93-2.65v-3.26h-4.61v3.26h4.61Zm5.63,0v-3.26h-4.64v3.26h4.64Z"/>
        <path class="cls-1" d="M312.97,91.32l-.52,.87c-2.29-.9-3.95-2.18-4.97-3.83h-4.92c-1.08,1.52-2.72,2.75-4.91,3.68l-.61-.83c1.92-.71,3.35-1.66,4.32-2.86h-4.07v-.83h3.3v-5.98h-2.87v-.9h2.87v-1.27h.91v1.27h7.25v-1.27h.91v1.27h2.88v.9h-2.88v5.98h3.28v.83h-4.39c1.14,1.37,2.61,2.36,4.43,2.96Zm-.9,3.35h-14.01v-.9h6.57v-1.91h-3.69v-.86h3.69v-1.73h.9v1.73h3.66v.86h-3.66v1.91h6.54v.9Zm-3.33-11.77v-1.35h-7.25v1.35h7.25Zm0,2.29v-1.42h-7.25v1.42h7.25Zm-7.25,.92v1.42h7.25v-1.42h-7.25Z"/>
        <path class="cls-1" d="M322.69,82.06h-5.63v-.83h2.61c-.21-.54-.46-1.06-.76-1.57l.85-.4c.45,.81,.75,1.47,.91,1.97h2.01v.83Zm-.5,2.58h-4.74v-.85h4.74v.85Zm0,2.68h-4.74v-.83h4.74v.83Zm-.25,7.42h-.88v-.99h-2.45v1.37h-.91v-5.98h4.25v5.6Zm-.9-1.85v-2.87h-2.43v2.87h2.43Zm11.23,.86c0,.49-.16,.84-.47,1.03-.32,.2-.8,.29-1.46,.29h-.98l-.34-.9c.37-.01,1.01-.02,1.92-.02,.09,0,.19-.04,.28-.13s.14-.18,.14-.28v-6.92h-6.84c.08,3.63-.33,6.38-1.22,8.24l-.79-.48c.73-1.83,1.1-4.03,1.1-6.58v-8.23h8.67v13.97Zm-4.83-10.87v-2.23h-2.94v2.23h2.94Zm0,3.08v-2.21h-2.94v2.21h2.94Zm2.63,6.87h-4.39v-4.57h4.39v4.57Zm-.88-.9v-2.8h-2.63v2.8h2.63Zm2.15-9.05v-2.23h-2.99v2.23h2.99Zm0,3.08v-2.21h-2.96v2.21h2.96Z"/>
        <path class="cls-1" d="M344.4,88.86c-.43-.23-.65-.52-.65-.87,0-.17,.07-.34,.22-.52,.15-.18,.35-.27,.62-.27,.56,0,.84,.37,.84,1.11,0,.6-.35,1.19-1.06,1.75l-.38-.29c.27-.36,.4-.66,.4-.91Z"/>
        <path class="cls-1" d="M360.09,86.34l-.61,.72c-.79-.83-1.74-1.57-2.87-2.21l.6-.7c1.18,.7,2.14,1.43,2.87,2.2Zm-.18,2.73c-.67,2.29-1.5,4.28-2.5,5.96l-.77-.57c.97-1.58,1.78-3.56,2.43-5.92l.84,.54Zm.52-7.52l-.61,.72c-.86-.93-1.78-1.7-2.78-2.32l.63-.69c.95,.58,1.87,1.34,2.75,2.29Zm11.92,11.54l-.57,.74c-2.49-1.6-4.17-3.23-5.03-4.9v6.08h-.93v-6.12c-1.05,1.83-2.76,3.49-5.12,4.97l-.57-.76c2.45-1.49,4.08-3.04,4.9-4.64h-4.29v-.92h5.08v-1.42h.93v1.42h5.34v.92h-4.52c.7,1.61,2.29,3.15,4.77,4.62Zm-6.79-11.32c-.08,2.38-1.38,3.98-3.9,4.81l-.67-.83c2.38-.54,3.59-1.87,3.64-3.98h.93Zm6.15,1.08h-.9v-2.21h-8.76v2.21h-.91v-3.16h10.56v3.16Zm0,2.88h-2.93c-.87,0-1.3-.47-1.3-1.41v-2.56h.91v2.58c0,.13,.06,.25,.18,.35,.12,.1,.24,.15,.37,.15h2.77v.89Z"/>
        <path class="cls-1" d="M391.94,91.11c-.02,.67-.11,1.3-.27,1.88s-.34,.98-.52,1.21c-.18,.23-.42,.39-.7,.5-.28,.11-.89,.17-1.81,.19s-2.03,.03-3.33,.03c-1.03,0-2.18,0-3.47-.03s-2.03-.04-2.23-.08-.39-.12-.58-.27c-.18-.14-.33-.32-.42-.54-.1-.21-.14-.46-.14-.73v-9h5.92l2.76-2.59h-5.85c-1.31,1.34-2.78,2.43-4.39,3.27l-.59-.76c2.5-1.33,4.42-3,5.77-5.02l.98,.36c-.27,.4-.57,.8-.91,1.19h6.45v.81c-.72,.75-1.68,1.66-2.87,2.74h4.9v5.12h-11.21v3.86c0,.12,.07,.26,.2,.43,.13,.16,.37,.26,.72,.29s1.85,.05,4.52,.05c2.86,0,4.46-.03,4.81-.08,.35-.06,.61-.19,.78-.4s.31-.58,.41-1.09c.1-.52,.16-1.1,.18-1.75l.91,.41Zm-7.93-2.65v-3.26h-4.61v3.26h4.61Zm5.63,0v-3.26h-4.64v3.26h4.64Z"/>
        <path class="cls-1" d="M398.22,90.7c-.22,1.52-.6,3.01-1.16,4.46l-.86-.46c.47-1.08,.85-2.44,1.13-4.08l.89,.07Zm4.44-8.1c-1.02,1.92-2.59,4.02-4.71,6.3,.96-.12,1.93-.35,2.92-.67-.12-.36-.28-.74-.47-1.13l.87-.19c.4,.79,.75,1.69,1.04,2.7l-.86,.34c-.05-.23-.14-.54-.27-.92-1.39,.48-2.94,.81-4.62,.98l-.21-.72c1.29-1.28,2.49-2.66,3.61-4.14-1.25,.22-2.3,.35-3.13,.4l-.05-.74c1.5-1.82,2.58-3.64,3.23-5.46l.92,.34c-.67,1.66-1.59,3.25-2.76,4.79,.86-.04,1.69-.17,2.5-.38,.48-.73,.85-1.34,1.1-1.85l.9,.36Zm-2.1,11.92l-.98,.24c-.01-1.34-.15-2.69-.41-4.05l.88-.09c.28,1.29,.45,2.59,.51,3.9Zm2.16-2.11l-.83,.2c-.21-.77-.48-1.46-.83-2.09l.88-.14c.35,.69,.61,1.36,.78,2.03Zm3.2-4.26c-.16,2.69-1.34,4.82-3.54,6.39l-.6-.76c1.8-1.18,2.84-2.77,3.13-4.77h-2.14v-.86h3.15Zm6.16,5.48l-.67,.71c-1.56-.98-2.81-2.28-3.76-3.9v3.33c0,.38-.12,.7-.35,.96-.23,.26-.8,.39-1.71,.39-.31,0-.59-.01-.83-.04l-.31-.9c.26,.02,.6,.03,1.04,.03,.53,0,.86-.04,.99-.12,.13-.08,.2-.21,.2-.41v-7.04h-3.49v-5.6h2.41c.35-.49,.68-1.09,.99-1.8l.9,.4c-.25,.53-.52,1-.83,1.41h4.31v5.6h-3.33v2.05c.09,.26,.27,.59,.52,1.01,.81-.6,1.55-1.34,2.21-2.21l.63,.72c-.67,.79-1.45,1.54-2.35,2.25,.88,1.23,2.02,2.29,3.41,3.17Zm-2.06-10.23v-1.51h-5.89v1.51h5.89Zm0,2.4v-1.53h-5.89v1.53h5.89Z"/>
        <path class="cls-1" d="M417.85,83.31c-.21,1.72-.52,3.18-.91,4.36l-.92-.25c.42-1.29,.71-2.7,.89-4.23l.95,.12Zm3.81,1.66l-.59,.69c-.5-.59-.98-1.1-1.44-1.51v10.87h-.94v-15.73h.94v3.66c.71,.6,1.39,1.28,2.03,2.02Zm9.99,9.68h-10.27v-.93h5.02v-4.7h-4.16v-.91h4.16v-3.98h-2.61c-.46,1.2-.98,2.23-1.56,3.08l-.77-.48c1.21-2.06,1.99-4.15,2.34-6.27l.93,.2c-.16,.96-.37,1.8-.61,2.52h2.29v-3.81h.99v3.81h3.96v.95h-3.96v3.98h3.54v.91h-3.54v4.7h4.26v.93Z"/>
        <path class="cls-1" d="M451.07,81.68c-.05,2.7-.18,5.26-.4,7.69-.21,2.43-.41,3.87-.6,4.33-.19,.46-.46,.8-.83,1.03s-1.04,.34-2.01,.34c-.47,0-.96-.03-1.44-.08l-.38-.97c.43,.04,.89,.06,1.38,.06,1.04,0,1.67-.07,1.89-.21s.38-.36,.51-.67,.28-1.54,.47-3.71,.32-4.46,.4-6.87h-10.46c-1.01,1.51-2.09,2.82-3.25,3.93l-.62-.77c2.15-2.08,3.63-4.25,4.45-6.5l.97,.27c-.37,.92-.7,1.63-1,2.13h10.92Zm-3.11,10l-.8,.49c-.18-.46-.44-1-.79-1.63-2.95,.79-5.58,1.31-7.9,1.56l-.26-.82c1.58-1.62,3.13-4.05,4.64-7.3l.9,.36c-1.02,2.24-2.34,4.45-3.96,6.63,1.74-.21,3.79-.63,6.13-1.27-.2-.36-.64-1.02-1.31-1.96l.83-.4c1.14,1.51,1.98,2.96,2.52,4.33Z"/>
        <path class="cls-1" d="M463.88,81.86h-1.85v2.49h-1.82v1.29h2.85v4.27h-2.85v1.4h3.1v.89h-3.1v2.89h-.88v-2.89h-3.69v-.89h3.69v-1.4h-2.92v-4.27h2.92v-1.29h-1.85v-2.49h-1.72v-.88h1.72v-1.64h.92v1.64h2.72v-1.64h.91v1.64h1.85v.88Zm-4.55,7.18v-2.51h-2v2.51h2Zm1.78-5.6v-1.58h-2.72v1.58h2.72Zm1.05,5.6v-2.51h-1.95v2.51h1.95Zm8.33-6.22c.02,.74,.03,1.5,.03,2.27,0,2.1-.07,4-.21,5.69-.14,1.69-.29,2.74-.44,3.15-.16,.41-.41,.71-.75,.9-.34,.19-.86,.29-1.56,.29-.35,0-.81-.02-1.38-.05l-.34-.95c.55,.05,1.03,.07,1.44,.07,.79,0,1.28-.09,1.49-.27,.21-.18,.35-.54,.44-1.07,.09-.54,.18-1.79,.28-3.76,.1-1.97,.14-3.76,.12-5.37h-2.56c-.16,4.99-1.5,8.81-4.02,11.45l-.72-.62c2.46-2.49,3.74-6.1,3.85-10.84h-2.32v-.88h2.34c.05-1.18,.08-2.34,.08-3.48h.93c-.05,1.75-.08,2.91-.11,3.48h3.4Z"/>
        <path class="cls-1" d="M490.12,95.08h-.97v-.84h-12.67v-6.05h.94v5.12h5.43v-6.92h-5.62v-5.92h.98v4.98h4.64v-6.13h.91v6.13h4.58v-4.98h.95v5.92h-5.48v6.92h5.34v-5.13h.97v6.91Z"/>
        <path class="cls-1" d="M510.84,94.62h-15.63v-.93h7.37v-4.14h-5.69v-.92h12.35v.92h-5.71v4.14h7.31v.93Zm-.67-10.06h-.93v-2.48h-4.03v3.3c0,.33,.22,.5,.65,.5h4.21v.91h-4.25c-1.01,0-1.51-.47-1.51-1.42v-3.3h-2.34c-.42,2.88-2.32,4.69-5.69,5.43l-.52-.84c3.24-.64,4.97-2.17,5.2-4.59h-4.12v2.41h-.92v-3.33h6.75c-.19-.5-.43-1.03-.72-1.56l.86-.33c.28,.49,.56,1.12,.85,1.89h6.51v3.4Z"/>
        <path class="cls-1" d="M7.31,121.55H1.95v9.48H.99v-15.31H7.31v5.83Zm-.93-3.42v-1.51H1.95v1.51H6.38Zm0,2.54v-1.64H1.95v1.64H6.38Zm5.2,8.73H4.54v-6.39h7.04v6.39Zm-.92-3.71v-1.8H5.46v1.8h5.2Zm0,2.83v-1.93H5.46v1.93h5.2Zm4.52,1.08c0,.45-.13,.81-.4,1.06s-.75,.39-1.45,.39h-.96l-.34-.93c.28,.02,.82,.04,1.62,.04,.17,0,.31-.06,.43-.18s.17-.27,.17-.43v-7.99h-5.3v-5.83h6.23v13.88Zm-.93-11.47v-1.51h-4.38v1.51h4.38Zm0,2.54v-1.64h-4.38v1.64h4.38Z"/>
        <path class="cls-1" d="M26.27,130.71h-.91v-1.55h-3.88v1.91h-.91v-12.76h1.67c.45-.8,.88-1.83,1.28-3.09l.9,.18c-.21,.63-.62,1.6-1.22,2.91h3.08v12.4Zm-.91-7.63v-3.87h-3.88v3.87h3.88Zm0,5.17v-4.26h-3.88v4.26h3.88Zm9.92-9.92c-.07,2.7-.2,5.2-.39,7.51s-.38,3.68-.58,4.09-.44,.7-.74,.87c-.3,.17-.87,.26-1.72,.26-.37,0-.85,0-1.45-.03l-.29-.91c.49,.02,1.02,.03,1.59,.03,.53,0,.87,0,1.02-.02s.31-.09,.47-.22c.16-.14,.28-.3,.35-.48,.07-.19,.16-.88,.28-2.07s.21-2.51,.29-3.95c.08-1.44,.13-2.83,.17-4.19h-4.69c-.63,1.25-1.35,2.43-2.18,3.56l-.74-.52c1.58-2.07,2.69-4.37,3.35-6.92l.91,.24c-.29,.96-.62,1.88-.98,2.75h5.33Zm-3.31,8.07l-.76,.54c-.58-1.34-1.45-2.73-2.61-4.19l.77-.5c1.08,1.3,1.94,2.69,2.59,4.16Z"/>
        <path class="cls-1" d="M47.58,117.89h-4.93c-.77,.99-1.51,1.75-2.21,2.27l-.62-.66c1.45-1.15,2.57-2.55,3.37-4.2l.89,.4c-.47,.79-.74,1.22-.82,1.32h4.32v.88Zm.18,12.28l-.81,.45c-.29-.69-.53-1.18-.72-1.48-1.85,.66-3.5,1.16-4.95,1.51l-.45-.79c.16-.18,.24-.37,.24-.59v-8.62h6.21v5.58h-5.26v3.27c1.09-.26,2.33-.64,3.71-1.13-.19-.35-.42-.68-.69-.98l.79-.47c.86,1.15,1.5,2.24,1.92,3.26Zm-1.4-7.22v-1.41h-4.34v1.41h4.34Zm0,2.36v-1.48h-4.34v1.48h4.34Zm-.74-5.38l-.85,.38c-.23-.47-.57-.98-1.02-1.53l.88-.38c.42,.53,.75,1.04,.99,1.53Zm9.7-2.04h-5.71c-.55,.84-1.11,1.53-1.69,2.06l-.72-.62c1.16-1.04,2.07-2.39,2.73-4.05l.86,.36c-.14,.43-.35,.88-.64,1.37h5.17v.88Zm-.7,10.66c0,.55-.17,.9-.5,1.06-.34,.15-1.2,.23-2.6,.23l-.38-.93c1.48,0,2.28-.03,2.4-.07,.12-.05,.18-.16,.18-.32v-6.97h-3.87v9.6h-.91v-10.48h5.69v7.88Zm-1.84-8.69l-.84,.36c-.29-.47-.67-.97-1.14-1.48l.85-.33c.47,.49,.85,.97,1.13,1.44Z"/>
        <path class="cls-1" d="M75.35,125.69l-.59,.79c-1.44-.78-2.72-1.68-3.84-2.72v.7h-2.89c0,.45-.04,.97-.11,1.55h5.19v.88h-5.31c-.57,2.41-2.96,3.79-7.16,4.12l-.47-.9c3.8-.2,6-1.27,6.62-3.23h-4.9v-.88h5.12c.06-.61,.09-1.12,.07-1.55h-3.02v-.79c-.92,.88-2.21,1.78-3.88,2.7l-.56-.79c2.09-1.05,3.65-2.23,4.68-3.53h-4.48v-.9h5.11c.32-.54,.55-1,.69-1.39h-4.35v-.84h4.73l.43-1.26h-5.88v-.91h6.13c.13-.47,.26-.97,.38-1.49l.91,.15c-.08,.46-.19,.91-.32,1.34h6.8v.91h-7.04c-.05,.2-.19,.62-.41,1.26h6.79v.84h-7.13c-.13,.4-.35,.87-.65,1.39h9.13v.9h-4.46c.98,1.28,2.55,2.5,4.69,3.64Zm-4.61-2.13c-.54-.56-.93-1.06-1.19-1.51h-4.09c-.42,.58-.86,1.08-1.32,1.51h6.59Zm3.69,6.77l-.49,.74c-1.62-.98-3.54-1.8-5.74-2.48l.48-.77c2.4,.74,4.32,1.58,5.75,2.51Z"/>
        <path class="cls-1" d="M87,124.86c-.43-.23-.65-.52-.65-.87,0-.17,.07-.34,.22-.52,.15-.18,.35-.27,.62-.27,.56,0,.84,.37,.84,1.11,0,.6-.35,1.19-1.06,1.75l-.38-.29c.27-.36,.4-.66,.4-.91Z"/>
        <path class="cls-1" d="M114.95,129.81l-.23,.9h-5.6c-2.28,0-3.91-.19-4.89-.56s-1.75-.86-2.3-1.45c-.56,.83-1.27,1.66-2.14,2.47l-.69-.67c1.92-1.75,3.1-3.68,3.54-5.8h-3.04v-.86c1.24-1.52,2.12-2.73,2.66-3.61h-3.08v-.94h4.17v.94c-.84,1.3-1.7,2.5-2.58,3.61h2.81v.86c-.37,1.39-.77,2.46-1.2,3.23,.47,.54,1.16,1,2.06,1.35s2.37,.54,4.38,.54h6.1Zm-12.02-11.72l-.72,.54c-.54-.84-1.35-1.74-2.43-2.68l.62-.63c1.07,.94,1.91,1.87,2.52,2.78Zm11.87,4.02l-.45,.79c-1.79-1.31-3.4-2.26-4.83-2.83v2.72h2.87v.89l-.59,1.02h1.94c-.12,1.18-.23,2-.34,2.46s-.3,.81-.57,1.06-.56,.4-.88,.45c-.31,.05-1.13,.08-2.44,.08l-.27-.91c.33,.01,.67,.02,1,.02,.99,0,1.56-.05,1.7-.15,.14-.1,.27-.22,.38-.36s.25-.73,.4-1.74h-2.36l1.05-1.92h-2.92c-.18,2.26-1.42,3.98-3.74,5.14l-.6-.79c.97-.4,1.78-1.01,2.41-1.82s.95-1.65,.95-2.53h-2.19v-.89h3.25v-2.7c-1.3,1.17-2.91,2.14-4.83,2.94l-.48-.77c1.94-.76,3.58-1.74,4.91-2.95h-4.02v-.88h4.41v-1.39c-1.93,.11-3.11,.16-3.56,.16l-.31-.84c3.24-.02,6.02-.35,8.33-.98l.38,.81c-1.18,.33-2.48,.58-3.92,.74v1.51h4.9v.88h-4.6c1.66,.73,3.32,1.66,4.97,2.81Z"/>
        <path class="cls-1" d="M134.82,129.88l-.33,.89c-.94,.01-1.91,.02-2.89,.02-1.83,0-3.38-.02-4.64-.06-1.27-.04-2.3-.21-3.1-.53s-1.54-.78-2.2-1.4c-.57,.84-1.25,1.61-2.05,2.31l-.7-.63c1.75-1.55,2.91-3.49,3.49-5.84h-3.04v-.86c1.29-1.56,2.23-2.82,2.81-3.76h-3.1v-.86h4.27v.86c-1.11,1.55-2.05,2.8-2.81,3.74h2.85v.88c-.32,1.28-.74,2.4-1.27,3.37,.56,.58,1.25,1.03,2.09,1.34s1.96,.49,3.38,.51c1.42,.03,2.93,.04,4.56,.04,.96,0,1.86,0,2.69-.03Zm-12.08-11.97l-.7,.6c-.59-.86-1.43-1.74-2.53-2.65l.66-.62c1.24,1.03,2.09,1.92,2.58,2.66Zm11.14,9.69c0,.47-.13,.8-.4,.97-.27,.17-.75,.26-1.43,.26-.23,0-.55,0-.94-.03l-.3-.93c.26,.04,.59,.05,.98,.05,.58,0,.92-.03,1.03-.09,.11-.06,.16-.18,.16-.36v-5.55h-7.52v6.87h-.9v-7.72h1.17v-5.33h6.99v5.33h1.17v6.51Zm-2.11-9.38v-1.6h-5.11v4.46h1.94v-2.87h3.16Zm-.4,8.81h-4.3v-3.57h4.3v3.57Zm-.86-.83v-1.89h-2.58v1.89h2.58Zm1.26-5.11v-1.96h-2.25v1.96h2.25Z"/>
        <path class="cls-1" d="M154.58,130.39l-.61,.81c-2.11-1.08-3.7-2.25-4.77-3.49-1.07-1.24-1.91-2.86-2.5-4.84-.76,3.39-3.17,6.18-7.23,8.35l-.72-.77c4.12-2.02,6.5-4.81,7.13-8.38h-6.64v-.91h6.79c.16-1.15,.27-2.63,.34-4.45h-6.24v-.93h13.17v.93h-5.99c-.04,1.74-.13,3.22-.27,4.45h7.11v.91h-6.64c.46,1.96,1.24,3.59,2.34,4.88,1.1,1.29,2.68,2.44,4.75,3.44Z"/>
        <path class="cls-1" d="M164.43,120.45c-.47,.91-.98,1.76-1.53,2.54v8.06h-.96v-6.84c-.66,.7-1.55,1.48-2.66,2.34l-.72-.69c2.2-1.42,3.85-3.33,4.95-5.73l.92,.33Zm1.67-2.41h-2.2v1.72h-.93v-1.72h-4.32v-.89h4.32v-1.91h.93v1.91h2.2v.89Zm8.17,9.05c-.08,1.47-.22,2.4-.43,2.79-.21,.39-.46,.65-.76,.78-.3,.13-1.21,.2-2.74,.2-1.71,0-2.73-.09-3.06-.27s-.49-.56-.49-1.14v-9.18h.96v3.08h6.22v.86h-6.22v5.19c0,.25,.11,.41,.33,.48,.22,.07,.97,.1,2.25,.1,1.43,0,2.24-.04,2.42-.12s.32-.42,.42-1.01c.1-.6,.17-1.3,.2-2.11l.9,.36Zm.07-9.05h-4.26v1.87h-.94v-1.87h-2.32v-.89h2.32v-1.91h.94v1.91h4.26v.89Z"/>
        <path class="cls-1" d="M194.03,126.79c-.05,1.85-.27,2.98-.66,3.39s-.88,.62-1.47,.62h-2.9c-.45,0-.8-.15-1.05-.44-.25-.29-.38-.67-.38-1.14v-6.16h-3.08c-.04,1.83-.45,3.42-1.23,4.76-.78,1.34-2.18,2.46-4.2,3.36l-.7-.85c3.49-1.28,5.2-3.7,5.13-7.27h-4.9v-.98h7.11v-6.79h.97v6.79h7.2v.98h-5.33v6.16c0,.18,.06,.33,.18,.45,.12,.13,.26,.19,.44,.19h2.7c.47,0,.79-.25,.95-.74,.17-.5,.25-1.37,.25-2.62l.98,.29Zm-10.68-6.25l-.83,.54c-.58-1.34-1.4-2.7-2.46-4.09l.79-.58c1.27,1.8,2.1,3.17,2.5,4.12Zm8.96-3.85c-.84,1.82-1.68,3.26-2.51,4.34l-.82-.54c1.02-1.32,1.83-2.72,2.42-4.19l.91,.4Z"/>
        <path class="cls-1" d="M201.44,127.63c-.68,.93-1.54,1.78-2.59,2.56l-.65-.7c.89-.6,1.74-1.39,2.54-2.37l.7,.52Zm6.71-5.34h-9.91v-.86h4.6c-.19-.48-.36-.85-.53-1.12h-3.01v-4.59h7.73v4.59h-3.66c.13,.28,.28,.65,.47,1.12h4.31v.86Zm-1.25,4.23h-3.18v3.28c0,.44-.13,.76-.39,.95s-.69,.29-1.28,.29h-.7l-.31-.86c.6,.01,1.04,.01,1.33,0,.29-.01,.43-.19,.43-.53v-3.12h-3.29v-3.13h7.39v3.13Zm-.81-9v-.93h-5.84v.93h5.84Zm0,1.92v-1.02h-5.84v1.02h5.84Zm-.11,6.2v-1.41h-5.56v1.41h5.56Zm1.2,3.9l-.79,.53c-.42-.85-.94-1.66-1.56-2.43l.76-.52c.57,.64,1.11,1.45,1.6,2.43Zm6.88-3.59c-1.51,2.06-3.5,3.76-5.96,5.12l-.58-.77c2.69-1.48,4.64-3.17,5.85-5.05l.69,.7Zm-.47-10.1c-1.32,1.61-3.05,2.95-5.2,4.02l-.57-.76c2.44-1.22,4.15-2.53,5.13-3.91l.64,.65Zm.18,4.86c-1.21,1.56-3.01,2.98-5.39,4.25l-.55-.79c2.37-1.25,4.12-2.62,5.27-4.1l.67,.65Z"/>
        <path class="cls-1" d="M233.85,129.93l-.28,.94h-6.14c-1.7-.05-3.06-.21-4.09-.49-1.03-.28-1.92-.8-2.68-1.57-.66,.96-1.33,1.77-2,2.42l-.83-.6c1.78-1.63,2.95-3.54,3.51-5.74h-2.88v-.94c.76-.93,1.65-2.15,2.69-3.65h-3.1v-.89h4.14v.89c-1.02,1.45-1.91,2.68-2.66,3.69h2.68v.9c-.15,1.03-.52,2.08-1.12,3.15,.64,.65,1.46,1.14,2.43,1.46,.98,.32,2.36,.49,4.14,.49,2.44,0,4.5-.02,6.19-.06Zm-12.09-11.79l-.74,.54c-.69-.84-1.52-1.66-2.51-2.48l.71-.58c1.04,.83,1.89,1.67,2.54,2.52Zm11.11,.05h-7.78c-.63,.97-1.25,1.73-1.84,2.29l-.67-.67c1.19-1.07,2.17-2.6,2.95-4.59l.83,.33c-.16,.5-.41,1.09-.76,1.75h7.26v.9Zm.57,7.16c-.08,1.08-.22,1.79-.41,2.13s-.45,.55-.79,.65c-.34,.1-1.18,.15-2.54,.15-1.95,0-3.18-.02-3.68-.07-.5-.04-.85-.2-1.06-.48s-.31-.66-.31-1.14v-3.71l-1.68,.34-.16-.91,1.84-.43v-2.01h.93v1.81l2.27-.47v-2.16h.92v1.95l3.83-.85c-.24,1.9-.63,3.57-1.17,5.01l-.83-.29c.41-1.06,.71-2.24,.9-3.52l-2.73,.57v3.95h-.92v-3.73l-2.27,.48v4c0,.36,.14,.58,.43,.65,.29,.08,1.33,.12,3.13,.12,1.41,0,2.24-.02,2.5-.06,.26-.04,.46-.18,.6-.41,.14-.24,.23-.88,.27-1.93l.91,.34Z"/>
        <path class="cls-1" d="M240.94,124.97c-.7,2.37-1.51,4.37-2.43,5.99l-.76-.65c.91-1.57,1.71-3.52,2.37-5.86l.82,.52Zm-.04-2.86l-.61,.76c-.61-.71-1.43-1.42-2.45-2.14l.62-.7c.82,.58,1.63,1.28,2.44,2.09Zm.15-4.81l-.58,.7c-.66-.71-1.42-1.38-2.29-1.99l.63-.7c.87,.63,1.61,1.29,2.23,1.99Zm12.42,11.84c-.11,.73-.33,1.2-.69,1.39s-1.15,.29-2.4,.29c-.63,0-1.05-.03-1.26-.09-.21-.06-.38-.19-.52-.38s-.21-.49-.21-.9v-3.44h-3.44v1.29h2.59v.8h-2.59v1.85c1-.23,1.9-.5,2.7-.79l.06,.83c-1.18,.42-2.32,.74-3.43,.98l-.36-.79c.1-.17,.15-.38,.15-.62v-3.56h-1.28c-.17,1.95-.67,3.61-1.49,4.97l-.76-.54c.97-1.51,1.46-3.79,1.46-6.86v-2.46h5.19c-.11-.25-.25-.49-.45-.7l.76-.41c.27,.37,.49,.74,.65,1.12h5.29v.81h-3.95v1.19h3.21v2.9h-3.47v1.29h3.13v.8h-3.13v1.49c0,.16,.06,.27,.18,.33s.4,.09,.83,.09c1.17,0,1.84-.05,2.01-.14,.17-.09,.29-.43,.37-1.02l.84,.28Zm-6.48-12.67h-5.7v-.82h5.7v.82Zm-.29,3.59h-.84v-1.92h-3.16v2.18h-.84v-2.94h4.84v2.68Zm-1.35,5.13v-1.27h-2.46c0,.43-.01,.85-.04,1.27h2.5Zm0-2.09v-1.19h-2.46v1.19h2.46Zm-.07-3.33l-.59,.58c-.58-.62-1.08-1.07-1.49-1.35l.59-.55c.53,.38,1.03,.82,1.49,1.33Zm3.3,3.33v-1.19h-2.32v1.19h2.32Zm0,2.09v-1.27h-2.32v1.27h2.32Zm4.83-8.73h-5.63v-.82h5.63v.82Zm-.53,3.85h-.84v-2.18h-3.3v1.92h-.83v-2.68h4.97v2.94Zm-1.43-.53l-.63,.56c-.53-.59-1.04-1.04-1.51-1.35l.62-.55c.55,.4,1.06,.85,1.52,1.34Zm.38,5.41v-1.27h-2.33v1.27h2.33Z"/>
        <path class="cls-1" d="M273.31,130.46h-11.75v.61h-.99v-7.87c-.66,.73-1.45,1.46-2.36,2.21l-.7-.74c2.19-1.75,3.84-3.63,4.97-5.63h-4.46v-.93h4.93c.4-.75,.8-1.71,1.18-2.88l.95,.2c-.32,.93-.68,1.82-1.06,2.68h8.98v.93h-9.45c-.62,1.1-1.27,2.08-1.98,2.95v7.52h5.19v-5.07h-3.95v-.94h3.95v-3.33h.97v3.33h4.34v.94h-4.34v5.07h5.6v.94Z"/>
        <path class="cls-1" d="M292.32,131.07h-1.01v-1.55h-12.11v1.55h-.98v-15.37h14.1v15.37Zm-1.01-2.51v-11.9h-12.11v11.9h12.11Zm-2.66-2.79h-6.84v-6.46h6.84v6.46Zm-.95-.95v-4.57h-4.94v4.57h4.94Z"/>
        <path class="cls-1" d="M312.79,129.47l-.63,.81c-2.26-1.17-3.96-2.6-5.1-4.3,.09,.49,.13,1.01,.13,1.56,0,1.5-.24,2.46-.71,2.87-.47,.41-1.26,.62-2.35,.62-.33,0-.64-.01-.91-.04l-.31-.93c.37,.05,.76,.07,1.19,.07,.73,0,1.21-.07,1.44-.22s.41-.38,.54-.69,.19-.88,.19-1.71c0-.49-.04-.99-.11-1.49-2.23,1.76-5.03,3.17-8.4,4.25l-.51-.81c3.83-1.19,6.71-2.68,8.64-4.48-.13-.57-.3-1.02-.48-1.36-1.78,1.37-4.19,2.49-7.22,3.37l-.53-.89c2.92-.67,5.36-1.78,7.33-3.33-.16-.3-.4-.65-.72-1.06-1.78,.88-3.65,1.53-5.63,1.95l-.5-.87c3.08-.61,5.45-1.51,7.13-2.7h-5.24v-.91h10.22v.91h-3.6c-.42,.38-.95,.77-1.6,1.19,.64,.84,1.17,1.85,1.58,3.02,1.83-.95,3.2-1.92,4.1-2.93l.67,.66c-.96,1.03-2.28,2-3.96,2.9,1.14,1.91,2.93,3.42,5.35,4.54Zm-.62-9.55h-.93v-2.25h-12.31v2.25h-.94v-3.16h6.85c-.14-.46-.32-.9-.53-1.31l.92-.31c.16,.35,.37,.88,.62,1.62h6.32v3.16Z"/>
        <path class="cls-1" d="M323.27,130.71h-.91v-1.55h-3.88v1.91h-.91v-12.76h1.67c.45-.8,.88-1.83,1.28-3.09l.9,.18c-.21,.63-.62,1.6-1.22,2.91h3.08v12.4Zm-.91-7.63v-3.87h-3.88v3.87h3.88Zm0,5.17v-4.26h-3.88v4.26h3.88Zm9.92-9.92c-.07,2.7-.2,5.2-.39,7.51s-.38,3.68-.58,4.09-.44,.7-.74,.87c-.3,.17-.87,.26-1.72,.26-.37,0-.85,0-1.45-.03l-.29-.91c.49,.02,1.02,.03,1.59,.03,.53,0,.87,0,1.02-.02s.31-.09,.47-.22c.16-.14,.28-.3,.35-.48,.07-.19,.16-.88,.28-2.07s.21-2.51,.29-3.95c.08-1.44,.13-2.83,.17-4.19h-4.69c-.63,1.25-1.35,2.43-2.18,3.56l-.74-.52c1.58-2.07,2.69-4.37,3.35-6.92l.91,.24c-.29,.96-.62,1.88-.98,2.75h5.33Zm-3.31,8.07l-.76,.54c-.58-1.34-1.45-2.73-2.61-4.19l.77-.5c1.08,1.3,1.94,2.69,2.59,4.16Z"/>
        <path class="cls-1" d="M352.44,130.62h-15.63v-.93h7.37v-4.14h-5.69v-.92h12.35v.92h-5.71v4.14h7.31v.93Zm-.67-10.06h-.93v-2.48h-4.03v3.3c0,.33,.22,.5,.65,.5h4.21v.91h-4.25c-1.01,0-1.51-.47-1.51-1.42v-3.3h-2.34c-.42,2.88-2.32,4.69-5.69,5.43l-.52-.84c3.24-.64,4.97-2.17,5.2-4.59h-4.12v2.41h-.92v-3.33h6.75c-.19-.5-.43-1.03-.72-1.56l.86-.33c.28,.49,.56,1.12,.85,1.89h6.51v3.4Z"/>
        <path class="cls-1" d="M363.71,121.55h-5.36v9.48h-.96v-15.31h6.32v5.83Zm-.93-3.42v-1.51h-4.43v1.51h4.43Zm0,2.54v-1.64h-4.43v1.64h4.43Zm5.2,8.73h-7.04v-6.39h7.04v6.39Zm-.92-3.71v-1.8h-5.2v1.8h5.2Zm0,2.83v-1.93h-5.2v1.93h5.2Zm4.52,1.08c0,.45-.13,.81-.4,1.06s-.75,.39-1.45,.39h-.96l-.34-.93c.28,.02,.82,.04,1.62,.04,.17,0,.31-.06,.43-.18s.17-.27,.17-.43v-7.99h-5.3v-5.83h6.23v13.88Zm-.93-11.47v-1.51h-4.38v1.51h4.38Zm0,2.54v-1.64h-4.38v1.64h4.38Z"/>
        <path class="cls-1" d="M382.24,122c-.28,.74-.74,1.48-1.37,2.23,.58,.56,1.02,1.05,1.32,1.48l-.63,.63c-.72-.87-1.39-1.56-2.01-2.06v6.79h-.94v-6.94c-.37,.47-.92,1.07-1.65,1.8l-.62-.72c1.83-1.86,3.17-3.87,4.02-6.05h-3.95v-.91h4.91v.91c-.53,1.43-1.12,2.64-1.78,3.63v.31c.22,.18,.44,.37,.66,.56,.52-.57,.93-1.25,1.25-2.06l.79,.4Zm-2.27-4.84l-.79,.58c-.34-.57-.88-1.17-1.61-1.82l.76-.54c.64,.52,1.19,1.11,1.64,1.78Zm12.09,13.52h-10.53v-.9h4.9v-2.73h-3.87v-.91h3.87v-2.36h-3.62v-7.94h8.46v7.94h-3.91v2.36h3.96v.91h-3.96v2.73h4.7v.9Zm-5.63-11.37v-2.56h-2.72v2.56h2.72Zm0,3.59v-2.66h-2.72v2.66h2.72Zm3.9-3.59v-2.56h-2.97v2.56h2.97Zm0,3.59v-2.66h-2.97v2.66h2.97Z"/>
        <path class="cls-1" d="M404.07,121.43c.5,0,.93,.17,1.29,.52s.54,.78,.54,1.3-.16,.95-.49,1.29-.75,.51-1.27,.51c-.47,0-.88-.15-1.24-.45-.36-.3-.54-.76-.54-1.38,0-.58,.18-1.02,.55-1.33s.75-.46,1.17-.46Zm1.09,1.83c0-.31-.11-.56-.32-.75-.21-.19-.47-.29-.76-.29s-.54,.1-.73,.31c-.2,.21-.29,.45-.29,.73,0,.26,.09,.5,.28,.73s.44,.34,.76,.34c.3,0,.56-.1,.76-.3s.3-.46,.3-.77Z"/>
      </g>
      <g>
        <path d="M16.29,2.33c-.13,.17-.46,.36-.88,.42v14.4c0,1.3-.29,2.12-2.71,2.35-.06-.57-.21-.99-.55-1.26-.38-.27-.99-.5-2.12-.67v-.31s2.6,.19,3.09,.19c.44,0,.57-.17,.57-.5v-4.96H5.63c-.48,2.88-1.83,5.56-5.4,7.52l-.23-.23c3.57-2.9,4.18-6.63,4.18-10.88V1.05l2.02,.82h7.29l.84-1.05,1.97,1.51Zm-2.6,9.03V7.16H5.88v1.22c0,.99-.04,2-.17,2.98h7.98ZM5.88,2.46V6.53h7.81V2.46H5.88Z"/>
        <path d="M41.83,17.09c.5,.19,.63,.4,.63,.76,0,.76-.71,1.05-4.16,1.05h-2.25c-1.85,0-2.25-.36-2.25-1.66V8.88h-2.71c-.44,5.48-2.21,8.78-8.21,10.62l-.1-.29c4.83-2.33,6.15-5.46,6.38-10.33h-6.07l-.17-.59h8.76V.15l2.5,.23c-.04,.29-.25,.5-.76,.59v7.33h5.58l1.16-1.47s1.34,1.01,2.12,1.72c-.06,.23-.27,.34-.55,.34h-6.21v7.94c0,.38,.11,.5,.86,.5h1.99c.88,0,1.53-.02,1.85-.06,.27-.02,.36-.08,.46-.32,.19-.42,.48-1.89,.8-3.42h.27l.06,3.57ZM25.12,1.43c5.67,2.81,4.14,6.91,2.31,5.38-.21-1.7-1.49-3.84-2.56-5.23l.25-.15Zm15.85,1.01c-.1,.23-.4,.38-.86,.32-1.3,1.7-2.94,3.42-4.39,4.54l-.27-.21c.92-1.37,2.16-3.7,3.07-5.77l2.46,1.13Z"/>
        <path d="M60.12,9.66c1.11,2.58,3.44,4.79,5.61,6.03l-.06,.25c-.78,.36-1.32,.9-1.45,1.64-2-1.76-3.57-4.58-4.47-7.5v8.73c0,.23-.73,.65-1.39,.65h-.32v-7.83c-1.6,2.6-4.01,4.77-7.05,6.32l-.21-.32c2.86-1.97,5.02-4.93,6.24-7.98h-4.22l-.17-.63h5.42V4.98h-2.64c-.57,1.09-1.26,2.04-2.04,2.79l-.31-.19c.17,.17,.31,.31,.44,.46-.06,.23-.25,.32-.52,.32h-2.65v5.42c1.03-.36,2.12-.73,3.23-1.11l.08,.29c-1.53,.88-3.7,2.16-6.55,3.67-.06,.23-.25,.46-.46,.55l-.8-2.04c.59-.15,1.6-.44,2.83-.84v-5.94h-2.31l-.17-.59h2.48V2.65h-2.39l-.17-.59h4.7l1.07-1.41s1.2,.99,1.91,1.66c-.04,.23-.27,.34-.57,.34h-2.9V7.77h.65l.9-1.32s.63,.57,1.18,1.13c.88-1.64,1.6-4.03,1.89-6.45l2.35,.76c-.08,.23-.34,.42-.78,.4-.23,.71-.5,1.43-.8,2.08h2.33V.17l2.48,.27c-.06,.29-.21,.5-.78,.59v3.34h2.06l1.05-1.41s1.2,1.01,1.93,1.68c-.06,.23-.27,.34-.57,.34h-4.47v4.05h2.65l1.05-1.43s1.24,.99,1.93,1.72c-.04,.23-.27,.34-.55,.34h-4.7Z"/>
        <path d="M88.66,2.77c-.13,.15-.38,.21-.76,.23-.44,.36-1.2,.82-1.76,1.07l-.23-.15c.15,.13,.29,.25,.42,.38-.06,.23-.25,.34-.52,.34h-2.35v1.15h1.95l.82-.84s.88,.61,1.49,1.13c-.04,.23-.25,.34-.53,.34h-3.74v1.91h1.74v-1.55l1.87,.19c-.04,.23-.17,.38-.53,.44v1.76c0,.15-.61,.42-1.07,.42h-.27v-.65h-5.1l-.55,.67-1.6-.92c.15-.15,.4-.34,.65-.48v-1.45l1.81,.21c-.02,.21-.15,.36-.46,.42v.95h2.06v-1.91h-3.93l-.17-.63h4.09v-1.15h-2.06c-.36,.36-.74,.65-1.16,.9l-.27-.19c.5-.65,.99-1.83,1.26-2.65l1.89,.61c-.08,.17-.25,.25-.71,.19-.13,.17-.27,.34-.42,.52h3.63l.71-.86s.5,.34,1.01,.76c.1-.32,.23-.78,.31-1.22h-14.47c.02,.55-.06,.99-.23,1.37h4.47l.8-.92s.9,.67,1.51,1.2c-.06,.23-.25,.34-.52,.34h-2.56v1.26h.71l.71-.8s.78,.59,1.28,1.07c-.04,.23-.23,.34-.5,.34h-2.21v1.26c.97-.1,1.97-.21,3-.34l.04,.34c-1.3,.38-3.11,.84-5.52,1.39l1.58,.67h9.01l.82-.86,1.7,1.32c-.1,.13-.36,.27-.69,.34v5.94c-.02,.15-.78,.46-1.3,.5,6.15,.82,3.84,3.17,2.31,2.16-1.18-.71-3.15-1.53-5.79-2.08l.08-.32c1.18,.04,2.18,.11,3.04,.21v-.46h-6.91l1.68,1.28c-.17,.17-.55,.21-1.03,.06-1.83,.76-4.79,1.37-7.56,1.53l-.11-.36c2.5-.48,5.27-1.55,6.74-2.52h-2.14v.25c0,.15-.71,.5-1.36,.5h-.27V9.26l-.97,.19c-.1,.27-.27,.4-.48,.46l-.92-1.64c.78-.04,2.06-.17,3.57-.32v-1.41h-2.18l-.17-.61h2.35v-1.26h-2.35l-.06-.23c-.17,.23-.36,.4-.55,.53-.53,.29-1.26,.27-1.47-.27-.19-.5,.15-.94,.61-1.2,.69-.32,1.28-1.3,1.18-2.31h.36c.11,.31,.19,.61,.25,.9h6.93c-.13-.04-.27-.12-.42-.25,.06-.59-.21-1.34-.61-1.72l.19-.13c2.62,.21,2.39,1.76,1.51,2.1h6.84l.88-.92,1.66,1.6Zm-14.51,7.71v1.43h9.32v-1.43h-9.32Zm9.32,3.46v-1.41h-9.32v1.41h9.32Zm0,2.06v-1.45h-9.32v1.45h9.32Z"/>
        <path d="M111.55,5.31c-.71,.17-1.24,.82-1.36,1.41-3.25-1.11-6.36-3.02-7.92-5.31-2.04,2.27-6.21,4.81-10.08,6.03l-.13-.32c3.46-1.49,7.6-4.7,8.69-6.95l2.75,.59c-.06,.25-.34,.38-.88,.42,1.99,1.76,5.61,3.07,8.94,3.8l-.02,.34Zm-1.62,11.72s1.09,.94,1.68,1.58c-.06,.21-.25,.31-.53,.31h-18.62l-.19-.59h2.9v-5.98l1.83,.74h9.78l.8-1.03,2.04,1.43c-.17,.21-.42,.34-.94,.4v4.45h.36l.9-1.3Zm-3.86-5.06v-.82h-8.38v.52c0,.15-.74,.5-1.36,.5h-.23V6.82l1.72,.73h8.06l.84-.9,1.83,1.39c-.12,.15-.44,.32-.82,.38v3.09c-.02,.15-.86,.46-1.39,.46h-.27Zm-9.3,6.36h2.33v-4.62h-2.33v4.62Zm9.3-7.79v-2.35h-8.38v2.35h8.38Zm-8.17-4.6l-.17-.61h5.61l.97-1.11s1.03,.8,1.72,1.39c-.06,.23-.25,.34-.54,.34h-7.58Zm2.79,7.77v4.62h2.33v-4.62h-2.33Zm3.93,0v4.62h2.39v-4.62h-2.39Z"/>
        <path d="M125.79,6.97c.74,3.95,3.02,8.08,9.15,10.79l-.02,.25c-.9,.12-1.49,.54-1.7,1.51-5.54-3.13-7.2-8.17-7.81-12.37-.61,4.91-2.58,9.24-9.87,12.35l-.25-.34c6.07-3.36,7.81-7.47,8.34-12.2h-7.96l-.15-.61h8.17c.17-1.95,.15-4.03,.15-6.17l2.6,.27c-.06,.31-.23,.52-.71,.59-.04,1.83-.06,3.59-.23,5.31h5.67l1.24-1.55s1.45,1.09,2.29,1.83c-.04,.23-.27,.34-.54,.34h-8.36Z"/>
        <path d="M141.25,8.11c0,3.44-.06,8.1-2.65,11.38l-.34-.21c1.43-3.32,1.45-7.43,1.45-11.17V1.7l1.8,.73h7.47c-.08-.02-.19-.06-.29-.12-.27-.74-1.03-1.66-1.66-2.16l.19-.15c3.36,.21,3.3,2.14,2.33,2.44h5.14l1.09-1.38s1.22,.96,1.95,1.66c-.04,.23-.25,.34-.55,.34h-15.96v5.06Zm4.62,4.58c-.13,.11-.34,.11-.57-.04-.34,.06-.8,.15-1.28,.21v1.6h.02l.59-.76s.69,.57,1.11,1.05c-.04,.21-.23,.31-.48,.31h-1.24v1.62c.55-.06,1.11-.15,1.68-.23l.04,.34c-.84,.36-2.14,.88-3.86,1.51-.11,.27-.27,.42-.48,.46l-.76-1.68c.48-.04,1.28-.13,2.2-.25v-1.76h-1.34l-.17-.61h1.51v-1.45c-.5,.06-1.03,.08-1.51,.1l-.1-.29c1.2-.36,2.75-1.05,3.51-1.47l1.13,1.34Zm1.45-7.92v14.11c0,.1-.46,.42-1.18,.42h-.23V11.07h-4.26l-.19-.61h1.15V4.77h-.9l-.15-.61h5.02l.84-1.07s.97,.78,1.55,1.34c-.04,.23-.25,.34-.52,.34h-1.13Zm-1.41,0h-1.97v1.41h1.97v-1.41Zm0,2.02h-1.97v1.49h1.97v-1.49Zm0,3.67v-1.58h-1.97v1.58h1.97Zm3.25,3.74c.59,1.72,.25,2.98-.34,3.51-.38,.34-1.09,.4-1.34-.04-.19-.4,.04-.82,.46-1.09,.54-.4,.96-1.45,.84-2.37h.38Zm7.62-3.3c-.02,.1-.34,.25-.67,.36,.25,.19,1.05,.78,1.6,1.26-.04,.23-.25,.34-.52,.34h-9.43l-.17-.63h7.54l.84-.92c-.12,.02-.25,.04-.36,.04h-.23v-.42h-5.63v.34c0,.13-.59,.4-1.09,.4h-.19V6.53l1.39,.63h1.85v-1.43h-3.49l-.17-.63h3.65v-1.85l2.21,.23c-.02,.27-.23,.48-.74,.54v1.07h1.78l.9-1.18s1.03,.84,1.68,1.47c-.06,.23-.27,.34-.57,.34h-3.8v1.43h2.04l.71-.73,1.55,1.15c-.1,.15-.38,.29-.69,.36v2.96Zm-7.03-.59h1.09v-2.54h-1.09v2.54Zm5.69,7.2c.42,.15,.55,.29,.55,.54,0,.57-.59,.82-2.96,.82h-1.57c-1.32,0-1.53-.29-1.53-1.2v-4.12l1.91,.21c-.04,.25-.25,.44-.61,.5v3.09c0,.23,.06,.29,.57,.29h1.3c.57,0,1.03-.02,1.22-.02,.15,0,.23-.04,.31-.15,.15-.21,.34-.86,.5-1.55h.25l.06,1.58Zm-3.55-9.74v2.54h1.26v-2.54h-1.26Zm.34,5.23c3.38,1.6,1.89,4.18,.76,3.04,.08-.99-.44-2.18-1.01-2.88l.25-.17Zm3.15-2.69v-2.54h-1.18v2.54h1.18Zm-.15,3.42c3.67,1.93,2.27,4.6,1.03,3.46-.04-1.09-.69-2.48-1.28-3.34l.25-.12Z"/>
      </g>
    </g>
  </g>
</svg>