<?xml version="1.0" encoding="UTF-8"?>
<svg xmlns="http://www.w3.org/2000/svg" viewBox="0 0 280.59 203.03">
  <defs>
    <style>
      .cls-1, .cls-2, .cls-3 {
        mix-blend-mode: multiply;
        opacity: .7;
      }

      .cls-2 {
        fill-rule: evenodd;
      }

      .cls-2, .cls-3, .cls-4 {
        fill: #fff;
      }

      .cls-5 {
        isolation: isolate;
      }
    </style>
  </defs>
  <g class="cls-5">
    <g id="_圖層_2" data-name="圖層 2">
      <g id="_圖層_1-2" data-name="圖層 1">
        <g>
          <g class="cls-1">
            <path class="cls-4" d="M2.44,91.98l-2.06-1.8c1.26-.92,2.28-2,3.05-3.25,.73-1.18,1.45-3,2.15-5.46l2.31,.8c-.09,.26-.16,.53-.23,.8h5.88c.58,0,.86,.3,.83,.9-.04,1.52-.48,3.37-1.32,5.56-.11,.24-.19,.46-.26,.67-1.8,4.46-5.18,7.58-10.15,9.38l-2.02-2.28c3.08-.86,5.5-2.07,7.23-3.63-.64-.73-1.77-1.9-3.37-3.5-.58,.62-1.26,1.22-2.06,1.8Zm21.92-18.96l2.18,1.35c-.54,1.07-1.22,2.2-2.06,3.37h4.08l2.31,1.16c-.06,1.56-.45,3.42-1.16,5.56l-2.54-.77c.47-1.74,.7-2.74,.67-3.02,0-.26-.11-.39-.32-.39H3.86c-.17,.02-.26,.11-.26,.26v3.79H.93v-6.11c0-.32,.16-.48,.48-.48H6.52c-.81-1.67-1.3-2.67-1.45-2.99l2.54-1.09c.73,1.33,1.29,2.51,1.67,3.53l-1.51,.55h13.5c1.39-1.84,2.42-3.42,3.08-4.72Zm3.47-1.12c-2.06,.45-5.38,.81-9.96,1.09-6.21,.38-11.28,.54-15.2,.45l-.32-2.83c3.9,.06,8.4-.04,13.5-.32,5.16-.3,9.03-.69,11.6-1.16l.39,2.76Zm-18.32,19.7c.9-1.41,1.57-3.18,2.02-5.3,.08-.34-.03-.51-.35-.51H6.88c-.34,.88-.65,1.62-.93,2.22,.43,.43,1,.98,1.7,1.64,.66,.66,1.29,1.32,1.86,1.96Zm6.68-18.12c.13,.26,.33,.74,.61,1.45,.3,.71,.53,1.33,.67,1.86l-2.67,.74c-.17-.49-.59-1.54-1.25-3.15l2.63-.9Zm-2.28,21.85v-2.54h2.96v-5.94h-1.41v-2.54h7.46v-2.38h2.67v2.38h2.51v2.54h-2.51v5.94h4.43v2.54h-4.43v4.24h-2.67v-4.24H13.91Zm9-8.48h-3.37v5.94h3.37v-5.94Z"/>
            <path class="cls-4" d="M11.7,131.31v3.34c-.02,1.2-.2,2.49-.55,3.86-.19,.51-.36,1.03-.51,1.54-1.61,3.77-4.5,6.68-8.68,8.74l-1.96-2.47c1.52-.6,2.84-1.32,3.95-2.15,3.13-2.21,4.73-5.38,4.82-9.51v-3.34H.67v-2.8H30.27v2.8h-9.32v12.69c0,.47,.16,.87,.48,1.19,.32,.3,.71,.46,1.16,.48h3.86c.3,0,.59-.11,.87-.32,.19-.13,.29-.39,.29-.77,.02-.92,.03-2.52,.03-4.79l2.92,.35c-.06,4.35-.32,6.78-.77,7.29-.73,.77-1.42,1.16-2.09,1.16h-6.75c-.71-.02-1.39-.37-2.06-1.03-.58-.62-.87-1.26-.87-1.93v-14.33h-6.33Zm16-11.41v2.8H3.37v-2.8H27.7Z"/>
          </g>
          <polygon class="cls-2" points="100.55 69.4 103.72 68.77 104.77 70.54 101.61 72.57 100.76 71.52 100.55 69.4"/>
          <path class="cls-3" d="M138.27,108.53c-5.88-4.34-13.2,.21-18.91,2.5-3.64,1.46-7.31,2.84-11,4.16-11.27,4.02-22.78,7.38-34.12,11.18-2.01,.67-4.23,1.57-6.39,1.36-.9-.09-2.41-.41-2.83-1.38-.48-1.13,.91-2.66,1.6-3.56,2.51-3.31,6.03-5.47,8.73-8.58,2.65-3.06,4.88-6.66,8.43-8.8,.82-.49,1.7-.9,2.4-1.55,.51-.47,4.32-6.88,5.15-5.17,.83,1.71,1.04,3.72,1.21,5.59,.04,.47,.07,.94,.1,1.41,1.14,4.07,4.85,4.41,8.42,3.69,6.12-1.22,2.57-13.06,1.91-16.88-.43-2.5-.84-4.72,.71-6.94,1.84-2.64,4.85-4.27,7.24-6.34,3.97-3.43,7.86-6.99,11.63-10.64,4.99-4.6,9.79-10.33,16.06-13.2,.84-.38,1.72-.73,2.44-1.32,.72-.59,1.24-1.4,1.65-2.23,1.62-3.3,1.79-7.41,.75-10.86-.68-2.26-2.13-3.31-4.23-4.13-2.09-.81-4.74-2.72-6.94-2.82-3.94-.17-6.21,4.21-7.59,7.25-2.55,5.59-4.48,16.22-11.56,17.67-4.18,.86-8.41,.72-12.65,1.01-.45-3.21-.8-5.8-.66-9.08,.15-3.54,.31-7.09,.46-10.63,0-5.1,.44-7.53,.67-12.62,.36-8.19-.61-16.36-.4-24.55,.02-.65,.03-1.33-.27-1.91-1.85-3.64-6.01,2.33-6.7,3.94-3.15,7.3-3.36,12.91-4.01,19.36-.69,6.94-.64,11.16-.43,18.12,.07,2.28,.46,4.55,.54,6.83,.06,1.8-.65,3.51-.87,5.28-.51,3.97,.02,7.54-3.82,9.98-2.08,1.32-4.61,1.98-7.01,2.43-3.01,.57-6.06,.88-9.13,.94-1.6,.03-6.62,1.25-6.98-1.21-.72-4.96,2.17-8.21,3.97-12.76,1.36-3.45,1.65-7.81-.93-10.47-.44-.45-.96-.85-1.58-.97-1.74-.36-3.09,1.45-3.95,3.01-2.11,3.85-4.21,7.7-6.32,11.55-2.33,4.26-4.7,8.61-5.53,13.39-.83,4.78,.13,10.15,3.65,13.49,1.09,1.03,2.45,1.86,3.94,2.01,1.71,.17,3.38-.54,4.9-1.32,4.17-2.15,7.36-5.81,11.36-7.95,4.51-2.41,10.1-2.71,14.72-5.1,.5-.26,1.12-.5,1.58-.18,.23,.16,.35,.43,.44,.69,.7,1.96,.35,4.25,.35,6.3s.71,4.51-.95,6.18c-12.43,12.43-21.49,27.41-34.76,39.2-2.53,2.25-6.49,4.45-7.55,7.84-1.23,4.07-2.45,8.06-2.65,12.36-.03,.54,1.46,.95,.93,1.04-.11,.02,2.5,2.8,2.6,3.09,2.14,.48,4.04,1.9,6.41,1.43,3.05-.61,5.72-3.95,8.29-5.5,0-.79,6.56-3.94,7.44-4.5,6.92-4.36,14.29-7.97,21.84-11.09,3.84-1.58,7.73-3.03,11.65-4.4,2.59-.9,5.28-1.31,8.02-1.43,.59-.02,1.21-.03,1.75,.2,5,2.09-6.62,10-8.08,11.45-3.69,3.67-7.18,7.84-10.69,11.8-3.54,4.01-7.11,7.39-11.15,10.86-4.3,3.69-8.32,7.7-12.02,11.98,2.14,.03,4.03-1.32,5.75-2.6,4.58-3.43,9.15-6.87,13.73-10.3,2.96-2.22,5.93-4.45,8.67-6.95,2.75-2.51,5.48-5.37,8.38-7.83,4.19-3.56,8.82-6.58,13.62-9.25,2.46-1.37,4.98-2.64,7.53-3.84,2.06-.97,4.17-1.79,6.29-2.63,.53-.21,1.06-.42,1.61-.55,.62-.15,1.27-.19,1.89-.33,2.65-.6,3.27-3.08,5.47-4.18,2.2-1.1,.06-6.87-.77-8.17-1.1-1.72-2.25-2.97-3.45-3.86Z"/>
          <g class="cls-1">
            <path class="cls-4" d="M276.95,92.5c-1.18-1.96-2.46-3.99-4.44-5.15-1.9-1.11-4.19-1.26-6.39-1.33-6.51-.2-13.04,.08-19.51,.84-6.2,0-19.25,3.46-21.96,3.62-2.35,.14-4.59-1.25-6.01-3.13-1.42-1.87-2.16-4.17-2.73-6.45-.19-.76-.34-1.64,.13-2.26,.52-.68,1.52-.7,2.37-.64,3.19,.25,6.42,.93,9.55,.29,3.13-.64,6.22-3.13,6.18-6.33,0-.65-.14-1.27-.38-1.86-.81-1.98-2.81-3.5-4.93-4.08-2.75-.76-5.67-.31-8.48,.15-8.44,1.37-16.88,2.73-25.32,4.1-1.37,.22-2.95,.6-3.53,1.86-.72,1.58,.64,3.28,1.91,4.47,2.44,2.3,5.39,4.71,8.71,4.3,3.16-.4,6.52-3.25,9.09-1.37,.8,.58,1.26,1.52,1.58,2.45,1.22,3.48,.91,7.47-.83,10.72-.43,.8-.94,1.56-1.16,2.44-.31,1.25,.02,2.55,.31,3.8,.51,2.27,.87,4.66,.27,6.91-.59,2.25-2.35,4.34-4.65,4.68-1.09,.16-2.21-.07-3.26-.44-2.65-.92-5-2.69-6.62-4.98-.5-.71-.96-1.56-.79-2.42,.14-.71,.68-1.27,1.25-1.73,2.95-2.37,7.38-3.28,8.92-6.74-4.44,.99-9.04,.81-13.44,1.66-1.93,.37-3.91,1.19-5.91,1.19l-1.18-.09s-4.77-6.57-7.53-1.59c-5.84,10.55-11.57,18.42-13.23,20.81-.55,.79-1.99,2.47-3.67,4.36-.31,.2-.62,.41-.94,.6-2.37,1.41-7.13,7.99-8.01,9.91-.63,1.37-1.56,2.6-2.17,3.98-.25,.55-.44,1.16-.35,1.76,.13,.8,.77,1.44,1.5,1.78,2.84,1.34,6.83,1.61,9.91,1.71,.72,.02,1.46,.02,2.13-.21,3.04-1.07,5.58-6.06,7.13-8.64,2.02-3.35,3.69-6.9,5.66-10.28,3.61-6.22,8.67-10.6,13.76-15.57,.69-.67,1.69-1.38,2.51-.88,.87,3.58-1.52,15.82-.09,18.37,1.03,1.84,3.66,2.3,5.58,1.43,1.92-.87,3.22-2.73,4.08-4.65,.7-1.57,1.22-3.29,2.46-4.49s3.54-1.51,4.54-.12c.57,.8,.54,1.87,.48,2.85-.18,2.9-.35,5.79-.53,8.69-.12,1.91-.22,3.89,.48,5.67,.7,1.78,2.45,3.3,4.35,3.09,2.74-.3,3.91-3.57,4.48-6.26,1.42-6.69,2.84-13.48,2.43-20.31-.19-3.14-.76-6.36,.05-9.4,.81-3.04,3.59-5.89,6.7-5.43,2.21,4.09-.3,9.14,.25,13.75,.59,4.94,4.56,8.73,8.52,11.73,.39,.3,.8,.6,1.27,.77,1.19,.43,2.54-.09,3.53-.88,3.66-2.92,3.45-8.63,1.74-13-1.7-4.37-4.55-8.37-5.16-13.02-.06-.43-.08-.92,.2-1.26,.29-.35,.8-.41,1.25-.45,6.67-.53,13.69-1,19.76,1.84,.71,.33,1.43,.73,1.93,1.33,1.33,1.61,.71,4.08-.45,5.81-1.16,1.73-2.8,3.17-3.58,5.1-.15,.36-.26,.76-.16,1.13,.12,.43,.5,.72,.86,.98,2.65,1.85,5.73,3.08,8.92,3.56,5.72,.87,12.65-1.61,14.06-7.22,1.03-4.1-1.19-8.25-3.37-11.87Z"/>
            <path class="cls-4" d="M200.69,148.55c.05,.07,.1,.13,.15,.19,.07,.08,.08,.09,.08,.1,.06,.06,.12,.11,.19,.16,.48,0,.95,0,1.4-.02,5.04-.09,10.77,.13,15.7-.26,5.13-.41,8.86-1.65,13.53-2.48,1.87-.83,5.13-.83,5.6-3.31-1.4-3.31-5.6-3.31-9.33-3.72-2.6-.29-6.8,1.14-9.42,1.56-3.4,.54-6.81,1.08-10.2,1.67-.4,.07-3.73,.72-7.42,1.39-.29,.74-.54,1.49-.67,2.25-.13,.77-.12,1.44,.18,2.12,.06,.13,.03,.07,.07,.14,.04,.07,.08,.14,.13,.2Z"/>
            <path class="cls-4" d="M229.44,184.83c-1.35,.32-13.55,.57-12.97-2.04,.05-.23,.19-.44,.32-.64,2.72-4.08,5.53-8.09,8.43-12.04,.35-.48,.72-.97,1.21-1.31,1.63-1.11,3.62-.1,5.37,0,2.21,.14,4.63-.23,6.71-.97,2.88-1.02,7.4-5.13,5.4-8.64-.28-.49-.73-.94-1.39-1.36-2.16-1.36-5.17-1.93-7.67-2.2-5.02-.55-10.06,.44-14.94,1.52-3.74,.83-7.53,1.53-11.32,2.09-3.98,.59-7.67,1.74-11.77,1.44-3.04-.22-6.26-1.42-9.19,.02-1.74,.86-2.55,2.74-3.47,4.33-.09,.16-.18,.32-.17,.5,.02,.21,.17,.37,.33,.52,2.54,2.4,5.98,3.4,9.42,3.38,4.4-.03,8.88-.51,13.25-.99,.44-.05,7.97-1.33,7.2,1.18-1.89,6.17-8.27,9.83-13.01,13.66-4.55,3.67-10.39,4.67-16.04,5.57-1.52,.24-3.15,.91-3.73,2.34-1.32,3.24-.23,4.42,2.52,6.08,3.12,1.87,5.95,.24,9.06-.6,4.5-1.21,8.68-2.53,13.1-4.04,5.39-1.84,11.17,2.2,16.16,.03,3.29-1.42,4.49-5.46,7.17-7.84Z"/>
            <path class="cls-4" d="M245.43,188.42c-3.1-4.69-9.32-9.05-14.16-5.54-1.05,1.53,.66,2.41,1.14,3.72,.63,1.73,.28,3.89-.12,5.64-.9,3.9-3.15,7.41-5.21,10.79,.14-.24,6.24-.05,6.96-.11,5.95-.57,15.43-3.68,12.99-11.28-.33-1.03-.88-2.13-1.6-3.21Z"/>
          </g>
          <g class="cls-1">
            <path class="cls-4" d="M46.4,192.01c.86,.18,1.5,.47,1.92,.88,.59,.56,.88,1.24,.88,2.05,0,.61-.2,1.2-.58,1.76-.39,.56-.92,.97-1.6,1.23-.68,.26-1.71,.39-3.11,.39h-5.84v-.34h.46c.52,0,.89-.16,1.11-.49,.14-.21,.21-.67,.21-1.36v-7.99c0-.77-.09-1.25-.26-1.45-.24-.27-.59-.4-1.06-.4h-.46v-.34h5.34c1,0,1.8,.07,2.4,.22,.91,.22,1.61,.61,2.09,1.16,.48,.56,.72,1.2,.72,1.92,0,.62-.19,1.17-.57,1.67-.38,.49-.93,.85-1.67,1.09Zm-4.78-.49c.22,.04,.48,.08,.77,.1,.29,.02,.61,.03,.95,.03,.89,0,1.55-.1,2-.29s.79-.48,1.03-.88c.24-.39,.36-.83,.36-1.29,0-.72-.29-1.34-.88-1.85s-1.45-.77-2.58-.77c-.61,0-1.16,.07-1.64,.2v4.75Zm0,5.91c.71,.16,1.4,.25,2.09,.25,1.1,0,1.94-.25,2.52-.74,.58-.5,.87-1.11,.87-1.84,0-.48-.13-.94-.39-1.39s-.69-.79-1.28-1.05c-.59-.26-1.32-.38-2.19-.38-.38,0-.7,0-.97,.02-.27,.01-.48,.03-.65,.06v5.07Z"/>
            <path class="cls-4" d="M52.22,193.11c0,1.24,.29,2.21,.9,2.92,.61,.71,1.32,1.06,2.14,1.06,.55,0,1.02-.15,1.43-.45,.41-.3,.74-.82,1.02-1.55l.28,.18c-.13,.83-.5,1.59-1.11,2.28-.61,.68-1.38,1.03-2.31,1.03-1,0-1.86-.39-2.58-1.17-.71-.78-1.07-1.83-1.07-3.15,0-1.43,.37-2.54,1.1-3.34,.73-.8,1.65-1.2,2.76-1.2,.94,0,1.71,.31,2.31,.93,.6,.62,.9,1.44,.9,2.48h-5.77Zm0-.53h3.87c-.03-.54-.09-.91-.19-1.13-.15-.34-.38-.61-.68-.8-.3-.2-.62-.29-.94-.29-.5,0-.96,.2-1.35,.59-.4,.39-.63,.94-.7,1.64Z"/>
            <path class="cls-4" d="M58.63,189.96h3.89v.34h-.19c-.27,0-.48,.06-.62,.18s-.21,.27-.21,.44c0,.24,.1,.57,.3,.99l2.03,4.21,1.87-4.62c.1-.25,.16-.5,.16-.74,0-.11-.02-.19-.06-.25-.05-.07-.12-.12-.23-.16s-.29-.06-.55-.06v-.34h2.72v.34c-.22,.02-.4,.07-.52,.15-.12,.07-.26,.21-.4,.41-.05,.08-.16,.32-.31,.7l-3.4,8.34c-.33,.81-.76,1.42-1.29,1.83s-1.04,.62-1.54,.62c-.36,0-.65-.1-.88-.31s-.35-.44-.35-.71,.08-.46,.25-.62,.4-.23,.69-.23c.2,0,.47,.07,.82,.2,.24,.09,.39,.14,.46,.14,.18,0,.38-.09,.6-.28,.21-.19,.43-.55,.65-1.09l.59-1.45-3-6.3c-.09-.19-.24-.42-.44-.7-.15-.21-.28-.36-.37-.43-.14-.1-.36-.18-.67-.25v-.34Z"/>
            <path class="cls-4" d="M72.53,189.72c1.26,0,2.28,.48,3.05,1.44,.65,.82,.98,1.76,.98,2.83,0,.75-.18,1.51-.54,2.27s-.85,1.34-1.48,1.73c-.63,.39-1.33,.58-2.1,.58-1.26,0-2.26-.5-3-1.5-.63-.85-.94-1.79-.94-2.85,0-.77,.19-1.53,.57-2.29,.38-.76,.88-1.32,1.5-1.68s1.28-.54,1.97-.54Zm-.28,.59c-.32,0-.65,.1-.97,.29s-.59,.53-.79,1.01c-.2,.48-.3,1.1-.3,1.85,0,1.22,.24,2.27,.72,3.15s1.12,1.32,1.91,1.32c.59,0,1.08-.24,1.46-.73,.38-.49,.58-1.32,.58-2.51,0-1.48-.32-2.65-.96-3.5-.43-.58-.98-.88-1.65-.88Z"/>
            <path class="cls-4" d="M80.22,191.49c.98-1.18,1.91-1.77,2.8-1.77,.46,0,.85,.11,1.18,.34,.33,.23,.59,.6,.78,1.13,.13,.36,.2,.92,.2,1.68v3.57c0,.53,.04,.89,.13,1.08,.07,.15,.17,.27,.32,.36,.15,.09,.42,.13,.83,.13v.33h-4.13v-.33h.17c.39,0,.66-.06,.82-.18,.15-.12,.26-.29,.32-.52,.02-.09,.04-.38,.04-.86v-3.42c0-.76-.1-1.31-.3-1.66s-.53-.52-1-.52c-.72,0-1.44,.4-2.16,1.19v4.41c0,.56,.03,.92,.1,1.05,.08,.18,.2,.3,.35,.39,.15,.08,.45,.12,.91,.12v.33h-4.13v-.33h.18c.43,0,.71-.11,.86-.32,.15-.22,.22-.63,.22-1.24v-3.1c0-1-.02-1.62-.07-1.83-.04-.22-.12-.37-.21-.45-.09-.08-.22-.12-.38-.12-.17,0-.37,.04-.61,.14l-.14-.33,2.52-1.02h.39v1.77Z"/>
            <path class="cls-4" d="M93.03,197.38c-.41,.43-.81,.73-1.2,.92-.39,.19-.81,.28-1.26,.28-.91,0-1.71-.38-2.39-1.14-.68-.76-1.02-1.74-1.02-2.94s.38-2.29,1.13-3.29,1.72-1.49,2.91-1.49c.74,0,1.34,.23,1.82,.7v-1.54c0-.95-.02-1.54-.07-1.76-.05-.22-.12-.37-.21-.45-.1-.08-.22-.12-.36-.12-.16,0-.37,.05-.63,.15l-.12-.32,2.49-1.02h.41v9.66c0,.98,.02,1.58,.07,1.79s.12,.37,.22,.45c.1,.09,.22,.13,.35,.13,.16,0,.38-.05,.66-.16l.1,.32-2.48,1.03h-.42v-1.19Zm0-.64v-4.31c-.04-.41-.15-.79-.33-1.13-.18-.34-.42-.6-.73-.77s-.59-.26-.88-.26c-.54,0-1.01,.24-1.43,.72-.55,.63-.83,1.56-.83,2.77s.27,2.17,.8,2.82,1.13,.98,1.79,.98c.55,0,1.09-.28,1.61-.83Z"/>
            <path class="cls-4" d="M103.56,187.22v2.75h1.95v.64h-1.95v5.42c0,.54,.08,.91,.23,1.09,.16,.19,.35,.28,.6,.28,.2,0,.4-.06,.58-.19s.33-.31,.44-.55h.36c-.21,.6-.51,1.04-.9,1.35-.39,.3-.79,.45-1.2,.45-.28,0-.55-.08-.82-.23s-.46-.38-.59-.67c-.13-.29-.19-.73-.19-1.34v-5.62h-1.32v-.3c.33-.13,.68-.36,1.03-.68,.35-.32,.66-.7,.93-1.14,.14-.23,.33-.65,.58-1.27h.28Z"/>
            <path class="cls-4" d="M108.78,185.35v6.11c.67-.74,1.21-1.22,1.61-1.43,.4-.21,.79-.32,1.19-.32,.47,0,.88,.13,1.22,.39,.34,.26,.59,.67,.76,1.23,.12,.39,.17,1.1,.17,2.13v2.96c0,.53,.04,.89,.13,1.08,.06,.15,.17,.26,.31,.35,.15,.09,.41,.13,.8,.13v.33h-4.1v-.33h.19c.39,0,.66-.06,.81-.18,.15-.12,.26-.29,.32-.52,.02-.1,.03-.38,.03-.86v-2.96c0-.91-.05-1.51-.14-1.8-.09-.29-.24-.5-.45-.64s-.46-.21-.75-.21-.61,.08-.93,.24-.71,.48-1.16,.96v4.42c0,.57,.03,.93,.1,1.07,.06,.14,.18,.26,.36,.35,.17,.09,.47,.14,.9,.14v.33h-4.14v-.33c.37,0,.66-.06,.88-.17,.12-.06,.22-.18,.29-.35,.07-.17,.11-.52,.11-1.04v-7.56c0-.95-.02-1.54-.07-1.76-.05-.22-.12-.37-.21-.45-.09-.08-.22-.12-.38-.12-.13,0-.33,.05-.62,.15l-.13-.32,2.5-1.02h.42Z"/>
            <path class="cls-4" d="M117.07,193.11c0,1.24,.29,2.21,.9,2.92,.61,.71,1.32,1.06,2.14,1.06,.55,0,1.02-.15,1.43-.45,.41-.3,.74-.82,1.02-1.55l.28,.18c-.13,.83-.5,1.59-1.11,2.28-.61,.68-1.38,1.03-2.31,1.03-1,0-1.86-.39-2.58-1.17-.71-.78-1.07-1.83-1.07-3.15,0-1.43,.37-2.54,1.1-3.34,.73-.8,1.65-1.2,2.76-1.2,.94,0,1.71,.31,2.31,.93,.6,.62,.9,1.44,.9,2.48h-5.77Zm0-.53h3.87c-.03-.54-.09-.91-.19-1.13-.15-.34-.38-.61-.68-.8-.3-.2-.62-.29-.94-.29-.5,0-.96,.2-1.35,.59-.4,.39-.63,.94-.7,1.64Z"/>
            <path class="cls-4" d="M135.72,195.14c-.22,1.1-.67,1.95-1.32,2.54-.66,.59-1.38,.89-2.18,.89-.95,0-1.78-.4-2.48-1.19-.71-.8-1.06-1.87-1.06-3.23s.39-2.38,1.17-3.2c.78-.82,1.72-1.23,2.81-1.23,.82,0,1.5,.22,2.03,.65s.79,.89,.79,1.35c0,.23-.08,.42-.22,.56-.15,.14-.36,.21-.62,.21-.36,0-.63-.12-.81-.35-.1-.13-.17-.37-.21-.73-.03-.36-.16-.63-.37-.82-.21-.18-.51-.27-.88-.27-.61,0-1.1,.23-1.47,.67-.49,.6-.74,1.38-.74,2.36s.24,1.88,.73,2.64c.49,.76,1.15,1.14,1.98,1.14,.6,0,1.13-.2,1.61-.61,.33-.28,.66-.79,.98-1.52l.26,.13Z"/>
            <path class="cls-4" d="M139.79,185.35v11.08c0,.52,.04,.87,.11,1.04,.08,.17,.19,.3,.35,.39,.16,.09,.45,.13,.88,.13v.33h-4.09v-.33c.38,0,.64-.04,.78-.12,.14-.08,.25-.21,.33-.39,.08-.18,.12-.53,.12-1.05v-7.59c0-.94-.02-1.52-.06-1.74-.04-.22-.11-.36-.21-.44-.09-.08-.21-.12-.36-.12-.16,0-.36,.05-.6,.15l-.16-.32,2.49-1.02h.41Z"/>
            <path class="cls-4" d="M146.19,189.72c1.26,0,2.28,.48,3.05,1.44,.65,.82,.98,1.76,.98,2.83,0,.75-.18,1.51-.54,2.27s-.85,1.34-1.48,1.73c-.63,.39-1.33,.58-2.1,.58-1.26,0-2.26-.5-3-1.5-.63-.85-.94-1.79-.94-2.85,0-.77,.19-1.53,.57-2.29,.38-.76,.88-1.32,1.5-1.68s1.28-.54,1.97-.54Zm-.28,.59c-.32,0-.65,.1-.97,.29s-.59,.53-.79,1.01c-.2,.48-.3,1.1-.3,1.85,0,1.22,.24,2.27,.72,3.15s1.12,1.32,1.91,1.32c.59,0,1.08-.24,1.46-.73,.38-.49,.58-1.32,.58-2.51,0-1.48-.32-2.65-.96-3.5-.43-.58-.98-.88-1.65-.88Z"/>
            <path class="cls-4" d="M158.77,189.96v5.06c0,.97,.02,1.56,.07,1.77s.12,.37,.22,.45c.1,.09,.22,.13,.35,.13,.19,0,.4-.05,.64-.16l.13,.32-2.5,1.03h-.41v-1.77c-.72,.78-1.26,1.27-1.64,1.47-.38,.2-.78,.3-1.2,.3-.47,0-.87-.13-1.22-.41s-.58-.62-.72-1.04-.2-1.03-.2-1.81v-3.73c0-.39-.04-.67-.13-.82-.09-.15-.21-.27-.38-.35s-.47-.12-.91-.11v-.34h2.93v5.59c0,.78,.13,1.29,.41,1.53,.27,.24,.6,.37,.98,.37,.26,0,.56-.08,.89-.25,.33-.16,.73-.48,1.18-.94v-4.73c0-.47-.09-.79-.26-.96-.17-.17-.53-.26-1.08-.27v-.34h2.85Z"/>
            <path class="cls-4" d="M166.69,197.38c-.41,.43-.81,.73-1.2,.92-.39,.19-.81,.28-1.26,.28-.91,0-1.71-.38-2.39-1.14-.68-.76-1.02-1.74-1.02-2.94s.38-2.29,1.13-3.29,1.72-1.49,2.91-1.49c.74,0,1.34,.23,1.82,.7v-1.54c0-.95-.02-1.54-.07-1.76-.05-.22-.12-.37-.21-.45-.1-.08-.22-.12-.36-.12-.16,0-.37,.05-.63,.15l-.12-.32,2.49-1.02h.41v9.66c0,.98,.02,1.58,.07,1.79s.12,.37,.22,.45c.1,.09,.22,.13,.35,.13,.16,0,.38-.05,.66-.16l.1,.32-2.48,1.03h-.42v-1.19Zm0-.64v-4.31c-.04-.41-.15-.79-.33-1.13-.18-.34-.42-.6-.73-.77s-.59-.26-.88-.26c-.54,0-1.01,.24-1.43,.72-.55,.63-.83,1.56-.83,2.77s.27,2.17,.8,2.82,1.13,.98,1.79,.98c.55,0,1.09-.28,1.61-.83Z"/>
          </g>
        </g>
      </g>
    </g>
  </g>
</svg>