<?xml version="1.0" encoding="UTF-8"?>
<svg id="_圖層_2" data-name="圖層 2" xmlns="http://www.w3.org/2000/svg" viewBox="0 0 304.71 387.64">
  <defs>
    <style>
      .cls-1 {
        fill: #63676d;
      }

      .cls-2 {
        fill: #00ac93;
      }
    </style>
  </defs>
  <g id="_圖層_1-2" data-name="圖層 1">
    <g>
      <g>
        <path class="cls-1" d="M22.46,342.34c-2.53,1.74-5.69,2.59-9.46,2.59-7.04,0-11.37-3.43-13-10.3l4.73-1.91c1.18,4.84,3.94,7.2,8.27,7.2,2.7,0,4.78-.56,6.36-1.74,1.35-1.07,2.08-2.42,2.08-4.05,0-2.36-3.26-4.67-9.74-6.92-3.38-1.13-5.8-2.25-7.26-3.38-2.31-1.74-3.43-4.05-3.43-6.87,0-3.38,1.24-5.91,3.77-7.71,2.14-1.46,4.95-2.2,8.44-2.2,3.94,0,6.98,.96,9.18,2.81,1.46,1.35,2.7,3.38,3.71,6.14l-4.84,1.97c-.67-1.91-1.46-3.32-2.31-4.17-1.29-1.13-3.21-1.74-5.74-1.74-4.62,0-6.92,1.63-6.92,4.9,0,1.58,2.81,3.32,8.44,5.23,3.72,1.29,6.47,2.59,8.16,3.88,2.59,2.08,3.88,4.79,3.88,8.05,0,3.55-1.46,6.3-4.34,8.22Z"/>
        <path class="cls-1" d="M54.59,344.48v-16.15h-18.12v16.15h-5.18v-36.98h5.18v15.99h18.12v-15.99h5.18v36.98h-5.18Z"/>
        <path class="cls-1" d="M91.89,341.38c-2.36,2.36-5.97,3.55-10.81,3.55s-8.44-1.18-10.75-3.55c-2.59-2.48-3.83-6.59-3.83-12.21v-21.67h5.18v21.67c0,4.22,.73,7.09,2.25,8.67,1.35,1.41,3.72,2.08,7.15,2.08s5.85-.67,7.2-2.08c1.46-1.58,2.25-4.45,2.25-8.67v-21.67h5.24v21.67c0,5.63-1.29,9.74-3.88,12.21Z"/>
        <path class="cls-1" d="M126.44,344.48l-18.74-28.71v28.71h-5.18v-36.98h5.69l18.74,28.71v-28.71h5.18v36.98h-5.69Z"/>
        <path class="cls-1" d="M175,327.37v17.11h-5.23v-17.06l-14.69-19.93h6.3l10.98,14.86,11.09-14.86h6.19l-14.63,19.87Z"/>
        <path class="cls-1" d="M219.23,341.38c-2.36,2.36-5.97,3.55-10.81,3.55s-8.44-1.18-10.75-3.55c-2.59-2.48-3.83-6.59-3.83-12.21v-21.67h5.18v21.67c0,4.22,.73,7.09,2.25,8.67,1.35,1.41,3.72,2.08,7.15,2.08s5.85-.67,7.2-2.08c1.46-1.58,2.25-4.45,2.25-8.67v-21.67h5.24v21.67c0,5.63-1.29,9.74-3.88,12.21Z"/>
        <path class="cls-1" d="M257.49,344.48l-4.16-10.19h-16.32l-4.17,10.19h-5.52l15.25-36.98h5.18l15.25,36.98h-5.52Zm-12.33-29.89l-6.08,14.86h12.16l-6.08-14.86Z"/>
        <path class="cls-1" d="M291.14,344.48l-18.74-28.71v28.71h-5.18v-36.98h5.69l18.74,28.71v-28.71h5.18v36.98h-5.69Z"/>
      </g>
      <g>
        <path class="cls-1" d="M14.76,384.57c-2.06,1.9-4.94,2.85-8.67,2.85H.2v-21.46H6.09c3.89,0,6.77,.82,8.64,2.45,1.99,1.77,3.01,4.58,3.01,8.44,0,3.3-1.01,5.89-2.98,7.72Zm-.98-14.98c-1.6-1.44-4.15-2.19-7.69-2.19H1.74v18.58H6.09c3.34,0,5.89-.85,7.65-2.55,1.6-1.57,2.42-3.76,2.42-6.57,0-3.37-.82-5.79-2.39-7.26Z"/>
        <path class="cls-1" d="M21,387.41v-21.46h13.48v1.44h-11.94v8.37h10.6v1.41h-10.6v8.8h11.94v1.44h-13.48Z"/>
        <path class="cls-1" d="M46.67,387.41h-2.03l-8.37-21.46h1.64l7.75,19.82,7.72-19.82h1.67l-8.37,21.46Z"/>
        <path class="cls-1" d="M57.49,387.41v-21.46h13.48v1.44h-11.94v8.37h10.6v1.41h-10.6v8.8h11.94v1.44h-13.48Z"/>
        <path class="cls-1" d="M74.23,387.41v-21.46h1.54v20.02h12.73v1.44h-14.26Z"/>
        <path class="cls-1" d="M106.54,384.44c-1.7,2.16-3.96,3.21-6.84,3.21s-5.17-1.05-6.84-3.21c-1.64-1.99-2.42-4.58-2.42-7.78s.78-5.72,2.42-7.75c1.67-2.09,3.96-3.17,6.84-3.17s5.14,1.08,6.84,3.17c1.6,2.03,2.42,4.61,2.42,7.75s-.82,5.79-2.42,7.78Zm-1.24-14.65c-1.41-1.73-3.27-2.62-5.59-2.62s-4.22,.88-5.59,2.62c-1.37,1.77-2.06,4.06-2.06,6.87s.69,5.14,2.06,6.9c1.37,1.77,3.24,2.65,5.59,2.65s4.19-.88,5.59-2.65c1.37-1.77,2.06-4.06,2.06-6.9s-.69-5.1-2.06-6.87Z"/>
        <path class="cls-1" d="M125.31,375.9c-1.37,1.05-3.17,1.54-5.4,1.54h-6.18v9.98h-1.51v-21.46h7.69c2.29,0,4.09,.52,5.43,1.51,1.31,1.01,2,2.42,2,4.22s-.69,3.21-2.03,4.22Zm-.98-7.26c-1.05-.82-2.52-1.24-4.42-1.24h-6.18v8.6h6.18c1.86,0,3.34-.43,4.42-1.28,.95-.79,1.44-1.8,1.44-3.04s-.49-2.29-1.44-3.04Z"/>
        <path class="cls-1" d="M151.04,387.41v-20.05l-8.37,20.05h-2.09l-8.44-20.05v20.05h-1.54v-21.46h2.52l8.5,20.25,8.47-20.25h2.49v21.46h-1.54Z"/>
        <path class="cls-1" d="M156.49,387.41v-21.46h13.48v1.44h-11.94v8.37h10.6v1.41h-10.6v8.8h11.94v1.44h-13.48Z"/>
        <path class="cls-1" d="M188.22,387.41l-13.44-19.73v19.73h-1.54v-21.46h2.22l13.51,19.79v-19.79h1.54v21.46h-2.29Z"/>
        <path class="cls-1" d="M202.34,367.4v20.02h-1.51v-20.02h-7.72v-1.44h16.94v1.44h-7.72Z"/>
        <path class="cls-1" d="M238.08,370.93c-1.15-2.49-3.14-3.76-5.95-3.76-2.03,0-3.79,.88-5.27,2.65-1.57,1.9-2.35,4.32-2.35,7.26s.72,5.14,2.22,6.84c1.34,1.54,2.98,2.29,4.91,2.29,2.81,0,4.84-1.44,6.15-4.35l1.5,.62c-1.54,3.47-4.09,5.17-7.65,5.17-2.49,0-4.51-.92-6.15-2.81-1.73-1.96-2.58-4.55-2.58-7.75s.88-5.99,2.68-8.15c1.77-2.13,3.96-3.21,6.54-3.21,3.6,0,6.08,1.57,7.46,4.65l-1.5,.56Z"/>
        <path class="cls-1" d="M257.96,384.44c-1.7,2.16-3.96,3.21-6.84,3.21s-5.17-1.05-6.84-3.21c-1.64-1.99-2.42-4.58-2.42-7.78s.78-5.72,2.42-7.75c1.67-2.09,3.96-3.17,6.84-3.17s5.14,1.08,6.84,3.17c1.6,2.03,2.42,4.61,2.42,7.75s-.82,5.79-2.42,7.78Zm-1.24-14.65c-1.41-1.73-3.27-2.62-5.59-2.62s-4.22,.88-5.59,2.62c-1.37,1.77-2.06,4.06-2.06,6.87s.69,5.14,2.06,6.9c1.37,1.77,3.24,2.65,5.59,2.65s4.19-.88,5.59-2.65c1.37-1.77,2.06-4.06,2.06-6.9s-.69-5.1-2.06-6.87Z"/>
        <path class="cls-1" d="M278.69,387.41l-5.43-9.98h-8.11v9.98h-1.51v-21.46h9.32c2.26,0,4.02,.52,5.33,1.51,1.31,1.01,1.96,2.42,1.96,4.22,0,2.85-1.8,4.71-5.33,5.59l5.53,10.14h-1.77Zm-1.41-18.78c-.98-.82-2.42-1.24-4.32-1.24h-7.82v8.6h7.82c1.83,0,3.27-.43,4.32-1.28,.92-.75,1.37-1.77,1.37-3.04s-.46-2.29-1.37-3.04Z"/>
        <path class="cls-1" d="M296.15,375.9c-1.37,1.05-3.17,1.54-5.4,1.54h-6.18v9.98h-1.51v-21.46h7.69c2.29,0,4.09,.52,5.43,1.51,1.31,1.01,2,2.42,2,4.22s-.69,3.21-2.03,4.22Zm-.98-7.26c-1.05-.82-2.52-1.24-4.42-1.24h-6.18v8.6h6.18c1.86,0,3.34-.43,4.42-1.28,.95-.79,1.44-1.8,1.44-3.04s-.49-2.29-1.44-3.04Z"/>
        <path class="cls-1" d="M300.78,387.48v-3.93h3.93v3.93h-3.93Z"/>
      </g>
      <g>
        <polygon class="cls-2" points="296.88 0 296.88 141.47 211.55 262.71 211.55 121.23 296.88 0"/>
        <g>
          <path class="cls-1" d="M247.78,0l-56.44,79.96L134.9,0H.41V66.14c13.68-15.58,33.69-25.47,56.06-25.47h57.96l26.98,38.33H56.47c-20.09,0-36.38,16.29-36.38,36.38s16.29,36.38,36.38,36.38h29.29c41.22,0,74.64,33.42,74.64,74.64,0,13.19-3.45,25.56-9.45,36.31h60.6V121.23L296.88,0h-49.09Z"/>
          <path class="cls-1" d="M85.76,189.95h-29.29c-22.37,0-42.38-9.89-56.06-25.47v98.22H85.76c20.09,0,36.38-16.29,36.38-36.38s-16.29-36.38-36.38-36.38Z"/>
        </g>
      </g>
    </g>
  </g>
</svg>