<?xml version="1.0" encoding="UTF-8"?>
<svg id="_圖層_2" data-name="圖層 2" xmlns="http://www.w3.org/2000/svg" viewBox="0 0 435.08 385.54">
  <g id="_圖層_1-2" data-name="圖層 1">
    <g>
      <path d="m325.29,156L435.08,0h-72.05l-82.83,117.34L197.37,0H0v97.06c20.08-22.87,49.45-37.38,82.27-37.38h85.06l39.59,56.26h-124.65c-29.48,0-53.39,23.9-53.39,53.39s23.9,53.39,53.39,53.39h42.98c60.5,0,109.54,49.04,109.54,109.54,0,19.36-5.06,37.51-13.87,53.29h88.94s125.22-177.92,125.22-177.92V0l-109.79,156Zm109.1,51.4l-123.83,175.96v-205.21L434.39,2.19v205.21Z"/>
      <path d="m125.25,278.77h-42.98c-32.82,0-62.19-14.51-82.27-37.38v144.15h125.25c29.48,0,53.39-23.9,53.39-53.39s-23.9-53.39-53.39-53.39Z"/>
    </g>
  </g>
</svg>