<?xml version="1.0" encoding="UTF-8"?>
<svg xmlns="http://www.w3.org/2000/svg" xmlns:xlink="http://www.w3.org/1999/xlink" viewBox="0 0 21.57 30.9">
  <defs>
    <style>
      .cls-1 {
        fill: #0a0405;
        opacity: .98;
      }

      .cls-2 {
        fill: #2d2829;
        opacity: .84;
      }

      .cls-3, .cls-4 {
        fill: #fff;
      }

      .cls-5 {
        fill: #c2c0c1;
        opacity: .25;
      }

      .cls-6 {
        fill: #c6c5c5;
        opacity: .23;
      }

      .cls-7 {
        fill: #cfcece;
        opacity: .19;
      }

      .cls-8 {
        fill: #3a3636;
        opacity: .79;
      }

      .cls-9 {
        fill: #f6f6f6;
        opacity: .04;
      }

      .cls-10 {
        fill: #787475;
        opacity: .54;
      }

      .cls-11 {
        fill: #858282;
        opacity: .49;
      }

      .cls-12 {
        fill: #625e5f;
        opacity: .63;
      }

      .cls-13 {
        fill: #898687;
        opacity: .47;
      }

      .cls-4 {
        opacity: 0;
      }

      .cls-14 {
        fill: #a8a6a6;
        opacity: .35;
      }

      .cls-15 {
        fill: #1c1617;
        opacity: .91;
      }

      .cls-16 {
        isolation: isolate;
      }

      .cls-17 {
        fill: #acaaaa;
        opacity: .33;
      }

      .cls-18 {
        fill: #b9b7b8;
        opacity: .28;
      }

      .cls-19 {
        fill: #666263;
        opacity: .61;
      }

      .cls-20 {
        fill: #433f3f;
        opacity: .75;
      }

      .cls-21 {
        fill: #171213;
        opacity: .93;
      }

      .cls-22 {
        fill: #7c7979;
        opacity: .53;
      }

      .cls-23 {
        fill: #969494;
        opacity: .42;
      }

      .cls-24 {
        fill: #e9e9e9;
        opacity: .09;
      }

      .cls-25 {
        fill: #484344;
        opacity: .74;
      }

      .cls-26 {
        fill: #928f90;
        opacity: .44;
      }

      .cls-27 {
        fill: #bdbcbc;
        opacity: .26;
      }

      .cls-28 {
        fill: #363132;
        opacity: .81;
      }

      .cls-29 {
        fill: #5d595a;
        opacity: .65;
      }

      .cls-30 {
        fill: #f2f2f2;
        opacity: .05;
      }

      .cls-31 {
        fill: #130d0e;
        opacity: .95;
      }

      .cls-32 {
        fill: #322d2e;
        opacity: .82;
      }

      .cls-33 {
        fill: #251f20;
        opacity: .88;
      }

      .cls-34 {
        fill: #fbfbfb;
        opacity: .02;
      }

      .cls-35 {
        fill: #dcdbdb;
        opacity: .14;
      }

      .cls-36 {
        mix-blend-mode: multiply;
        opacity: .85;
      }

      .cls-37 {
        fill: #e0e0e0;
        opacity: .12;
      }

      .cls-38 {
        fill: #d3d2d2;
        opacity: .18;
      }

      .cls-39 {
        fill: url(#_未命名漸層_168);
      }

      .cls-40 {
        fill: #807d7e;
        opacity: .51;
      }

      .cls-41 {
        fill: #201b1c;
        opacity: .89;
      }

      .cls-42 {
        fill: #060001;
      }

      .cls-43 {
        fill: #9f9d9d;
        opacity: .39;
      }

      .cls-44 {
        fill: #292425;
        opacity: .86;
      }

      .cls-45 {
        fill: #9b9899;
        opacity: .4;
      }

      .cls-46 {
        fill: #737070;
        opacity: .56;
      }

      .cls-47 {
        fill: #a3a1a1;
        opacity: .37;
      }

      .cls-48 {
        fill: #555151;
        opacity: .68;
      }

      .cls-49 {
        fill: #6a6767;
        opacity: .6;
      }

      .cls-50 {
        fill: #d8d7d7;
        opacity: .16;
      }

      .cls-51 {
        fill: #595556;
        opacity: .67;
      }

      .cls-52 {
        fill: #b5b3b3;
        opacity: .3;
      }

      .cls-53 {
        fill: #0f090a;
        opacity: .96;
      }

      .cls-54 {
        fill: #504c4d;
        opacity: .7;
      }

      .cls-55 {
        fill: #8d8b8b;
        opacity: .46;
      }

      .cls-56 {
        fill: #eeeded;
        opacity: .07;
      }

      .cls-57 {
        fill: #b0aeaf;
        opacity: .32;
      }

      .cls-58 {
        fill: #6f6b6c;
        opacity: .58;
      }

      .cls-59 {
        fill: #cbc9ca;
        opacity: .21;
      }

      .cls-60 {
        fill: #e5e4e4;
        opacity: .11;
      }

      .cls-61 {
        fill: #3f3a3b;
        opacity: .77;
      }

      .cls-62 {
        fill: #4c4848;
        opacity: .72;
      }
    </style>
    <linearGradient id="_未命名漸層_168" data-name="未命名漸層 168" x1="0" y1="15.06" x2="21.57" y2="15.06" gradientUnits="userSpaceOnUse">
      <stop offset="0" stop-color="#5c7c84"/>
      <stop offset="1" stop-color="#2a5761"/>
    </linearGradient>
  </defs>
  <g class="cls-16">
    <g id="_圖層_2" data-name="圖層 2">
      <g id="_文案" data-name="文案">
        <g>
          <g>
            <circle class="cls-3" cx="10.59" cy="10.83" r="7.17"/>
            <path class="cls-39" d="M10.63,0C4.68,.08-.11,5.05,0,11c.08,4.06,2.4,7.57,5.78,9.34,.93,.49,1.66,1.3,2.05,2.29l2.96,7.5,2.96-7.51c.39-.99,1.12-1.8,2.06-2.29,3.42-1.81,5.76-5.4,5.76-9.54C21.57,4.78,16.66-.08,10.63,0Zm.12,17.3c-3.64,0-6.59-2.95-6.59-6.59s2.95-6.59,6.59-6.59,6.59,2.95,6.59,6.59-2.95,6.59-6.59,6.59Z"/>
          </g>
          <g class="cls-36">
            <path class="cls-4" d="M14.26,30.13c0,.42-1.56,.77-3.48,.77s-3.48-.34-3.48-.77,1.56-.77,3.48-.77,3.48,.34,3.48,.77Z"/>
            <path class="cls-34" d="M14.2,30.13c0,.42-1.53,.75-3.42,.75s-3.42-.34-3.42-.75,1.53-.75,3.42-.75,3.42,.34,3.42,.75Z"/>
            <path class="cls-9" d="M14.14,30.13c0,.41-1.5,.74-3.36,.74s-3.36-.33-3.36-.74,1.5-.74,3.36-.74,3.36,.33,3.36,.74Z"/>
            <path class="cls-30" d="M14.08,30.13c0,.4-1.48,.73-3.29,.73s-3.29-.33-3.29-.73,1.48-.73,3.29-.73,3.29,.33,3.29,.73Z"/>
            <path class="cls-56" d="M14.02,30.13c0,.39-1.45,.71-3.23,.71s-3.23-.32-3.23-.71,1.45-.71,3.23-.71,3.23,.32,3.23,.71Z"/>
            <path class="cls-24" d="M13.96,30.13c0,.39-1.42,.7-3.17,.7s-3.17-.31-3.17-.7,1.42-.7,3.17-.7,3.17,.31,3.17,.7Z"/>
            <path class="cls-60" d="M13.9,30.13c0,.38-1.39,.69-3.11,.69s-3.11-.31-3.11-.69,1.39-.69,3.11-.69,3.11,.31,3.11,.69Z"/>
            <path class="cls-37" d="M13.84,30.13c0,.37-1.37,.67-3.05,.67s-3.05-.3-3.05-.67,1.37-.67,3.05-.67,3.05,.3,3.05,.67Z"/>
            <path class="cls-35" d="M13.77,30.13c0,.36-1.34,.66-2.99,.66s-2.99-.3-2.99-.66,1.34-.66,2.99-.66,2.99,.3,2.99,.66Z"/>
            <path class="cls-50" d="M13.71,30.13c0,.36-1.31,.65-2.93,.65s-2.93-.29-2.93-.65,1.31-.65,2.93-.65,2.93,.29,2.93,.65Z"/>
            <path class="cls-38" d="M13.65,30.13c0,.35-1.28,.63-2.87,.63s-2.87-.28-2.87-.63,1.28-.63,2.87-.63,2.87,.28,2.87,.63Z"/>
            <path class="cls-7" d="M13.59,30.13c0,.34-1.26,.62-2.81,.62s-2.81-.28-2.81-.62,1.26-.62,2.81-.62,2.81,.28,2.81,.62Z"/>
            <path class="cls-59" d="M13.53,30.13c0,.33-1.23,.61-2.75,.61s-2.75-.27-2.75-.61,1.23-.61,2.75-.61,2.75,.27,2.75,.61Z"/>
            <path class="cls-6" d="M13.47,30.13c0,.33-1.2,.59-2.69,.59s-2.69-.27-2.69-.59,1.2-.59,2.69-.59,2.69,.27,2.69,.59Z"/>
            <path class="cls-5" d="M13.41,30.13c0,.32-1.18,.58-2.63,.58s-2.63-.26-2.63-.58,1.18-.58,2.63-.58,2.63,.26,2.63,.58Z"/>
            <path class="cls-27" d="M13.35,30.13c0,.31-1.15,.57-2.57,.57s-2.57-.25-2.57-.57,1.15-.57,2.57-.57,2.57,.25,2.57,.57Z"/>
            <path class="cls-18" d="M13.29,30.13c0,.31-1.12,.55-2.51,.55s-2.51-.25-2.51-.55,1.12-.55,2.51-.55,2.51,.25,2.51,.55Z"/>
            <path class="cls-52" d="M13.23,30.13c0,.3-1.09,.54-2.44,.54s-2.44-.24-2.44-.54,1.09-.54,2.44-.54,2.44,.24,2.44,.54Z"/>
            <path class="cls-57" d="M13.17,30.13c0,.29-1.07,.53-2.38,.53s-2.38-.24-2.38-.53,1.07-.53,2.38-.53,2.38,.24,2.38,.53Z"/>
            <path class="cls-17" d="M13.11,30.13c0,.28-1.04,.51-2.32,.51s-2.32-.23-2.32-.51,1.04-.51,2.32-.51,2.32,.23,2.32,.51Z"/>
            <path class="cls-14" d="M13.05,30.13c0,.28-1.01,.5-2.26,.5s-2.26-.22-2.26-.5,1.01-.5,2.26-.5,2.26,.22,2.26,.5Z"/>
            <path class="cls-47" d="M12.99,30.13c0,.27-.99,.49-2.2,.49s-2.2-.22-2.2-.49,.99-.49,2.2-.49,2.2,.22,2.2,.49Z"/>
            <path class="cls-43" d="M12.92,30.13c0,.26-.96,.47-2.14,.47s-2.14-.21-2.14-.47,.96-.47,2.14-.47,2.14,.21,2.14,.47Z"/>
            <path class="cls-45" d="M12.86,30.13c0,.25-.93,.46-2.08,.46s-2.08-.21-2.08-.46,.93-.46,2.08-.46,2.08,.21,2.08,.46Z"/>
            <path class="cls-23" d="M12.8,30.13c0,.25-.9,.45-2.02,.45s-2.02-.2-2.02-.45,.9-.45,2.02-.45,2.02,.2,2.02,.45Z"/>
            <path class="cls-26" d="M12.74,30.13c0,.24-.88,.43-1.96,.43s-1.96-.19-1.96-.43,.88-.43,1.96-.43,1.96,.19,1.96,.43Z"/>
            <path class="cls-55" d="M12.68,30.13c0,.23-.85,.42-1.9,.42s-1.9-.19-1.9-.42,.85-.42,1.9-.42,1.9,.19,1.9,.42Z"/>
            <path class="cls-13" d="M12.62,30.13c0,.22-.82,.41-1.84,.41s-1.84-.18-1.84-.41,.82-.41,1.84-.41,1.84,.18,1.84,.41Z"/>
            <path class="cls-11" d="M12.56,30.13c0,.22-.8,.39-1.78,.39s-1.78-.18-1.78-.39,.8-.39,1.78-.39,1.78,.18,1.78,.39Z"/>
            <path class="cls-40" d="M12.5,30.13c0,.21-.77,.38-1.72,.38s-1.72-.17-1.72-.38,.77-.38,1.72-.38,1.72,.17,1.72,.38Z"/>
            <path class="cls-22" d="M12.44,30.13c0,.2-.74,.36-1.65,.36s-1.65-.16-1.65-.36,.74-.36,1.65-.36,1.65,.16,1.65,.36Z"/>
            <path class="cls-10" d="M12.38,30.13c0,.19-.71,.35-1.59,.35s-1.59-.16-1.59-.35,.71-.35,1.59-.35,1.59,.16,1.59,.35Z"/>
            <path class="cls-46" d="M12.32,30.13c0,.19-.69,.34-1.53,.34s-1.53-.15-1.53-.34,.69-.34,1.53-.34,1.53,.15,1.53,.34Z"/>
            <path class="cls-58" d="M12.26,30.13c0,.18-.66,.32-1.47,.32s-1.47-.15-1.47-.32,.66-.32,1.47-.32,1.47,.15,1.47,.32Z"/>
            <path class="cls-49" d="M12.2,30.13c0,.17-.63,.31-1.41,.31s-1.41-.14-1.41-.31,.63-.31,1.41-.31,1.41,.14,1.41,.31Z"/>
            <path class="cls-19" d="M12.13,30.13c0,.16-.6,.3-1.35,.3s-1.35-.13-1.35-.3,.6-.3,1.35-.3,1.35,.13,1.35,.3Z"/>
            <path class="cls-12" d="M12.07,30.13c0,.16-.58,.28-1.29,.28s-1.29-.13-1.29-.28,.58-.28,1.29-.28,1.29,.13,1.29,.28Z"/>
            <path class="cls-29" d="M12.01,30.13c0,.15-.55,.27-1.23,.27s-1.23-.12-1.23-.27,.55-.27,1.23-.27,1.23,.12,1.23,.27Z"/>
            <path class="cls-51" d="M11.95,30.13c0,.14-.52,.26-1.17,.26s-1.17-.12-1.17-.26,.52-.26,1.17-.26,1.17,.12,1.17,.26Z"/>
            <path class="cls-48" d="M11.89,30.13c0,.13-.5,.24-1.11,.24s-1.11-.11-1.11-.24,.5-.24,1.11-.24,1.11,.11,1.11,.24Z"/>
            <path class="cls-54" d="M11.83,30.13c0,.13-.47,.23-1.05,.23s-1.05-.1-1.05-.23,.47-.23,1.05-.23,1.05,.1,1.05,.23Z"/>
            <ellipse class="cls-62" cx="10.78" cy="30.13" rx=".99" ry=".22"/>
            <ellipse class="cls-25" cx="10.78" cy="30.13" rx=".93" ry=".2"/>
            <path class="cls-20" d="M11.65,30.13c0,.11-.39,.19-.87,.19s-.87-.09-.87-.19,.39-.19,.87-.19,.87,.09,.87,.19Z"/>
            <path class="cls-61" d="M11.59,30.13c0,.1-.36,.18-.8,.18s-.8-.08-.8-.18,.36-.18,.8-.18,.8,.08,.8,.18Z"/>
            <path class="cls-8" d="M11.53,30.13c0,.09-.33,.16-.74,.16s-.74-.07-.74-.16,.33-.16,.74-.16,.74,.07,.74,.16Z"/>
            <path class="cls-28" d="M11.47,30.13c0,.08-.31,.15-.68,.15s-.68-.07-.68-.15,.31-.15,.68-.15,.68,.07,.68,.15Z"/>
            <path class="cls-32" d="M11.41,30.13c0,.08-.28,.14-.62,.14s-.62-.06-.62-.14,.28-.14,.62-.14,.62,.06,.62,.14Z"/>
            <path class="cls-2" d="M11.35,30.13c0,.07-.25,.12-.56,.12s-.56-.06-.56-.12,.25-.12,.56-.12,.56,.06,.56,.12Z"/>
            <path class="cls-44" d="M11.28,30.13c0,.06-.22,.11-.5,.11s-.5-.05-.5-.11,.22-.11,.5-.11,.5,.05,.5,.11Z"/>
            <path class="cls-33" d="M11.22,30.13c0,.05-.2,.1-.44,.1s-.44-.04-.44-.1,.2-.1,.44-.1,.44,.04,.44,.1Z"/>
            <path class="cls-41" d="M11.16,30.13s-.17,.08-.38,.08-.38-.04-.38-.08,.17-.08,.38-.08,.38,.04,.38,.08Z"/>
            <path class="cls-15" d="M11.1,30.13s-.14,.07-.32,.07-.32-.03-.32-.07,.14-.07,.32-.07,.32,.03,.32,.07Z"/>
            <path class="cls-21" d="M11.04,30.13s-.12,.06-.26,.06-.26-.03-.26-.06,.12-.06,.26-.06,.26,.03,.26,.06Z"/>
            <path class="cls-31" d="M10.98,30.13s-.09,.04-.2,.04-.2-.02-.2-.04,.09-.04,.2-.04,.2,.02,.2,.04Z"/>
            <path class="cls-53" d="M10.92,30.13s-.06,.03-.14,.03-.14-.01-.14-.03,.06-.03,.14-.03,.14,.01,.14,.03Z"/>
            <path class="cls-1" d="M10.86,30.13s-.03,.02-.08,.02-.08,0-.08-.02,.03-.02,.08-.02,.08,0,.08,.02Z"/>
            <path class="cls-42" d="M10.8,30.13s0,0-.01,0-.01,0-.01,0,0,0,.01,0,.01,0,.01,0Z"/>
          </g>
        </g>
      </g>
    </g>
  </g>
</svg>