<?xml version="1.0" encoding="UTF-8"?>
<svg id="_圖層_2" data-name="圖層 2" xmlns="http://www.w3.org/2000/svg" viewBox="0 0 579.66 921.2">
  <defs>
    <style>
      .cls-1, .cls-2 {
        stroke-linecap: round;
      }

      .cls-1, .cls-2, .cls-3 {
        fill: none;
        stroke: #8a6e4b;
        stroke-width: 0px;
      }

      .cls-1, .cls-3 {
        stroke-miterlimit: 10;
      }

      .cls-2 {
        stroke-linejoin: round;
      }

      .cls-4 {
        fill: #8a6e4b;
      }
    </style>
  </defs>
  <g id="_圖層_1-2" data-name="圖層 1">
    <g>
      <g>
        <path class="cls-4" d="m464.96.25l104.94,104.94h-104.94V.25Zm104.94,0h-104.94l104.94,104.94V.25Z"/>
        <path class="cls-3" d="m464.96.25l104.94,104.94h-104.94V.25Zm104.94,0h-104.94l104.94,104.94V.25Z"/>
        <path class="cls-4" d="m569.9,105.43h-104.94c-.14,0-.25-.11-.25-.25V.25c0-.14.11-.25.25-.25h104.94c.14,0,.25.11.25.25v104.94c0,.14-.11.25-.25.25Zm-104.69-.49h104.44V.49h-104.44v104.44Z"/>
        <path class="cls-4" d="m506.46,105.19l14.3,435.09h-14.3V105.19Zm14.3,0h-14.3l14.3,435.09V105.19Z"/>
        <path class="cls-1" d="m506.46,105.19l14.3,435.09h-14.3V105.19Zm14.3,0h-14.3l14.3,435.09V105.19Z"/>
        <path class="cls-4" d="m506.46,540.27l14.3,200.37h-14.3v-200.37Zm14.3,0h-14.3l14.3,200.37v-200.37Z"/>
        <path class="cls-1" d="m506.46,540.27l14.3,200.37h-14.3v-200.37Zm14.3,0h-14.3l14.3,200.37v-200.37Z"/>
        <path class="cls-4" d="m474.47,806.5l104.94,104.94h-104.94v-104.94Zm104.94,0h-104.94l104.94,104.94v-104.94Z"/>
        <path class="cls-1" d="m474.47,806.5l104.94,104.94h-104.94v-104.94Zm104.94,0h-104.94l104.94,104.94v-104.94Z"/>
        <path class="cls-4" d="m579.41,911.69h-104.94c-.14,0-.25-.11-.25-.25v-104.94c0-.14.11-.25.25-.25h104.94c.14,0,.25.11.25.25v104.94c0,.14-.11.25-.25.25Zm-104.69-.49h104.44v-104.44h-104.44v104.44Z"/>
        <path class="cls-4" d="m14.61,167.23l85.85,9.51H14.61v-9.51Zm85.85,0H14.61l85.85,9.51v-9.51Z"/>
        <path class="cls-1" d="m14.61,167.23l85.85,9.51H14.61v-9.51Zm85.85,0H14.61l85.85,9.51v-9.51Z"/>
        <path class="cls-4" d="m14.61,133.84l95.43,9.51H14.61v-9.51Zm95.43,0H14.61l95.43,9.51v-9.51Z"/>
        <path class="cls-1" d="m14.61,133.84l95.43,9.51H14.61v-9.51Zm95.43,0H14.61l95.43,9.51v-9.51Z"/>
        <path class="cls-4" d="m100.46,143.36l9.57,23.87h-9.57v-23.87Zm9.57,0h-9.57l9.57,23.87v-23.87Z"/>
        <path class="cls-1" d="m100.46,143.36l9.57,23.87h-9.57v-23.87Zm9.57,0h-9.57l9.57,23.87v-23.87Z"/>
        <path class="cls-4" d="m100.46,167.23l137.42,9.51H100.46v-9.51Zm137.42,0H100.46l137.42,9.51v-9.51Z"/>
        <path class="cls-1" d="m100.46,167.23l137.42,9.51H100.46v-9.51Zm137.42,0H100.46l137.42,9.51v-9.51Z"/>
        <path class="cls-4" d="m449.21,740.64l73.01,17.15h-73.01v-17.15Zm73.01,0h-73.01l73.01,17.15v-17.15Z"/>
        <path class="cls-1" d="m449.21,740.64l73.01,17.15h-73.01v-17.15Zm73.01,0h-73.01l73.01,17.15v-17.15Z"/>
        <path class="cls-4" d="m505.01,757.79l17.21,48.71h-17.21v-48.71Zm17.21,0h-17.21l17.21,48.71v-48.71Z"/>
        <path class="cls-1" d="m505.01,757.79l17.21,48.71h-17.21v-48.71Zm17.21,0h-17.21l17.21,48.71v-48.71Z"/>
        <path class="cls-4" d="m.25,14.55l323.48,14.3H.25v-14.3Zm323.48,0H.25l323.48,14.3v-14.3Z"/>
        <path class="cls-1" d="m.25,14.55l323.48,14.3H.25v-14.3Zm323.48,0H.25l323.48,14.3v-14.3Z"/>
        <path class="cls-4" d="m.25,28.84l14.36,634.48H.25V28.84Zm14.36,0H.25l14.36,634.48V28.84Z"/>
        <path class="cls-1" d="m.25,28.84l14.36,634.48H.25V28.84Zm14.36,0H.25l14.36,634.48V28.84Z"/>
        <path class="cls-4" d="m.25,663.33l14.36,143.17H.25v-143.17Zm14.36,0H.25l14.36,143.17v-143.17Z"/>
        <path class="cls-1" d="m.25,663.33l14.36,143.17H.25v-143.17Zm14.36,0H.25l14.36,143.17v-143.17Z"/>
        <path class="cls-4" d="m.25,806.5l59.2,17.15H.25v-17.15Zm59.2,0H.25l59.2,17.15v-17.15Z"/>
        <path class="cls-1" d="m.25,806.5l59.2,17.15H.25v-17.15Zm59.2,0H.25l59.2,17.15v-17.15Z"/>
        <path class="cls-4" d="m323.73,29.09H14.61c-.14,0-.25-.11-.25-.25s.11-.25.25-.25h309.12c.14,0,.25.11.25.25s-.11.25-.25.25Z"/>
        <path class="cls-4" d="m323.73,29.09c-.14,0-.25-.11-.25-.25v-14.05H.25c-.14,0-.25-.11-.25-.25s.11-.25.25-.25h323.48c.14,0,.25.11.25.25v14.3c0,.14-.11.25-.25.25Z"/>
        <path class="cls-4" d="m522.22,806.75c-.14,0-.25-.11-.25-.25v-65.86c0-.14.11-.25.25-.25s.25.11.25.25v65.86c0,.14-.11.25-.25.25Z"/>
        <path class="cls-4" d="m505.01,806.75c-.14,0-.25-.11-.25-.25v-48.47h-55.55c-.14,0-.25-.11-.25-.25s.11-.25.25-.25h55.8c.14,0,.25.11.25.25v48.71c0,.14-.11.25-.25.25Z"/>
        <path class="cls-4" d="m223.58,740.64l72.95,17.15h-72.95v-17.15Zm72.95,0h-72.95l72.95,17.15v-17.15Z"/>
        <path class="cls-1" d="m223.58,740.64l72.95,17.15h-72.95v-17.15Zm72.95,0h-72.95l72.95,17.15v-17.15Z"/>
        <path class="cls-4" d="m223.58,757.79l23.81,47.74h-23.81v-47.74Zm23.81,0h-23.81l23.81,47.74v-47.74Z"/>
        <path class="cls-1" d="m223.58,757.79l23.81,47.74h-23.81v-47.74Zm23.81,0h-23.81l23.81,47.74v-47.74Z"/>
        <path class="cls-4" d="m223.58,805.53l17.15.97h-17.15v-.97Zm17.15,0h-17.15l17.15.97v-.97Z"/>
        <path class="cls-1" d="m223.58,805.53l17.15.97h-17.15v-.97Zm17.15,0h-17.15l17.15.97v-.97Z"/>
        <path class="cls-4" d="m212.13,806.5l28.6,17.15h-28.6v-17.15Zm28.6,0h-28.6l28.6,17.15v-17.15Z"/>
        <path class="cls-1" d="m212.13,806.5l28.6,17.15h-28.6v-17.15Zm28.6,0h-28.6l28.6,17.15v-17.15Z"/>
        <path class="cls-4" d="m223.58,606.13l9.51,134.51h-9.51v-134.51Zm9.51,0h-9.51l9.51,134.51v-134.51Z"/>
        <path class="cls-1" d="m223.58,606.13l9.51,134.51h-9.51v-134.51Zm9.51,0h-9.51l9.51,134.51v-134.51Z"/>
        <path class="cls-4" d="m223.58,262.66l9.51,190.79h-9.51v-190.79Zm9.51,0h-9.51l9.51,190.79v-190.79Z"/>
        <path class="cls-1" d="m223.58,262.66l9.51,190.79h-9.51v-190.79Zm9.51,0h-9.51l9.51,190.79v-190.79Z"/>
        <path class="cls-4" d="m14.61,453.45l218.48,9.51H14.61v-9.51Zm218.48,0H14.61l218.48,9.51v-9.51Z"/>
        <path class="cls-1" d="m14.61,453.45l218.48,9.51H14.61v-9.51Zm218.48,0H14.61l218.48,9.51v-9.51Z"/>
        <path class="cls-4" d="m223.58,462.96l9.51,57.26h-9.51v-57.26Zm9.51,0h-9.51l9.51,57.26v-57.26Z"/>
        <path class="cls-1" d="m223.58,462.96l9.51,57.26h-9.51v-57.26Zm9.51,0h-9.51l9.51,57.26v-57.26Z"/>
        <path class="cls-4" d="m296.53,758.03h-49.14c-.14,0-.25-.11-.25-.25s.11-.25.25-.25h49.14c.14,0,.25.11.25.25s-.11.25-.25.25Z"/>
        <path class="cls-4" d="m522.22,740.89h-73.01c-.14,0-.25-.11-.25-.25s.11-.25.25-.25h73.01c.14,0,.25.11.25.25s-.11.25-.25.25Z"/>
        <path class="cls-4" d="m296.53,740.89h-72.95c-.14,0-.25-.11-.25-.25s.11-.25.25-.25h72.95c.14,0,.25.11.25.25s-.11.25-.25.25Z"/>
        <path class="cls-4" d="m240.72,823.89c-.14,0-.25-.11-.25-.25v-18.12c0-.14.11-.25.25-.25s.25.11.25.25v18.12c0,.14-.11.25-.25.25Z"/>
        <path class="cls-4" d="m223.58,806.75h-11.45c-.14,0-.25-.11-.25-.25s.11-.25.25-.25h11.2v-65.61c0-.14.11-.25.25-.25s.25.11.25.25v65.86c0,.14-.11.25-.25.25Z"/>
        <path class="cls-4" d="m212.13,825.41c-.06,0-.12-.02-.17-.07-.1-.09-.1-.25,0-.35l1.45-1.51c.1-.1.25-.1.35,0,.1.09.1.25,0,.35l-1.45,1.51c-.05.05-.11.08-.18.08Z"/>
        <path class="cls-4" d="m212.13,845.64c-.06,0-.13-.02-.17-.07-.1-.1-.1-.25,0-.35l21.69-21.75c.1-.1.25-.1.35,0,.1.1.1.25,0,.35l-21.69,21.75s-.11.07-.17.07Z"/>
        <path class="cls-4" d="m212.13,865.88c-.06,0-.13-.02-.17-.07-.1-.1-.1-.25,0-.35l28.6-28.66c.1-.1.25-.1.35,0,.1.1.1.25,0,.35l-28.6,28.66s-.11.07-.17.07Z"/>
        <path class="cls-4" d="m212.13,886.12c-.06,0-.13-.02-.17-.07-.1-.1-.1-.25,0-.35l28.6-28.66c.1-.1.25-.1.35,0,.1.1.1.25,0,.35l-28.6,28.66s-.11.07-.17.07Z"/>
        <path class="cls-4" d="m212.13,906.35c-.06,0-.13-.02-.17-.07-.1-.1-.1-.25,0-.35l28.6-28.66c.1-.1.25-.1.35,0,.1.1.1.25,0,.35l-28.6,28.66s-.11.07-.17.07Z"/>
        <path class="cls-4" d="m217.46,921.2c-.06,0-.13-.02-.17-.07-.1-.1-.1-.25,0-.35l23.27-23.27c.1-.1.25-.1.35,0s.1.25,0,.35l-23.27,23.27s-.11.07-.17.07Z"/>
        <path class="cls-4" d="m237.69,921.2c-.06,0-.13-.02-.17-.07-.1-.1-.1-.25,0-.35l3.03-3.03c.1-.1.25-.1.35,0s.1.25,0,.35l-3.03,3.03s-.11.07-.17.07Z"/>
        <path class="cls-4" d="m240.72,823.89h-28.6c-.14,0-.25-.11-.25-.25s.11-.25.25-.25h28.6c.14,0,.25.11.25.25s-.11.25-.25.25Z"/>
        <path class="cls-4" d="m14.61,806.75c-.14,0-.25-.11-.25-.25V28.84c0-.14.11-.25.25-.25s.25.11.25.25v777.65c0,.14-.11.25-.25.25Z"/>
        <path class="cls-4" d="m.25,806.75c-.14,0-.25-.11-.25-.25V14.55c0-.14.11-.25.25-.25s.25.11.25.25v791.95c0,.14-.11.25-.25.25Z"/>
        <path class="cls-4" d="m212.13,892.6H.25c-.14,0-.25-.11-.25-.25s.11-.25.25-.25h211.88c.14,0,.25.11.25.25s-.11.25-.25.25Z"/>
        <path class="cls-4" d="m233.09,339.18c-.14,0-.25-.11-.25-.25v-9.51c0-.14.11-.25.25-.25s.25.11.25.25v9.51c0,.14-.11.25-.25.25Z"/>
        <path class="cls-4" d="m520.76,740.89c-.14,0-.25-.11-.25-.25V105.19c0-.14.11-.25.25-.25s.25.11.25.25v635.45c0,.14-.11.25-.25.25Z"/>
        <path class="cls-4" d="m506.46,740.89c-.14,0-.25-.11-.25-.25V105.19c0-.14.11-.25.25-.25s.25.11.25.25v635.45c0,.14-.11.25-.25.25Z"/>
        <path class="cls-4" d="m247.39,805.78h-6.66c-.14,0-.25-.11-.25-.25s.11-.25.25-.25h6.42v-47.5c0-.14.11-.25.25-.25s.25.11.25.25v47.74c0,.14-.11.25-.25.25Z"/>
        <path class="cls-4" d="m449.21,758.03c-.14,0-.25-.11-.25-.25v-17.15c0-.14.11-.25.25-.25s.25.11.25.25v17.15c0,.14-.11.25-.25.25Z"/>
        <path class="cls-4" d="m296.53,758.03c-.14,0-.25-.11-.25-.25v-17.15c0-.14.11-.25.25-.25s.25.11.25.25v17.15c0,.14-.11.25-.25.25Z"/>
        <path class="cls-4" d="m449.21,758.03h-152.68c-.14,0-.25-.11-.25-.25s.11-.25.25-.25h152.68c.14,0,.25.11.25.25s-.11.25-.25.25Z"/>
        <path class="cls-4" d="m449.21,740.89h-152.68c-.14,0-.25-.11-.25-.25s.11-.25.25-.25h152.68c.14,0,.25.11.25.25s-.11.25-.25.25Z"/>
        <path class="cls-4" d="m302.28,752.34c-.14,0-.25-.11-.25-.25v-11.45c0-.14.11-.25.25-.25s.25.11.25.25v11.45c0,.14-.11.25-.25.25Z"/>
        <path class="cls-4" d="m443.45,752.34c-.14,0-.25-.11-.25-.25v-11.45c0-.14.11-.25.25-.25s.25.11.25.25v11.45c0,.14-.11.25-.25.25Z"/>
        <path class="cls-4" d="m376.68,748.52h-74.4c-.14,0-.25-.11-.25-.25s.11-.25.25-.25h74.4c.14,0,.25.11.25.25s-.11.25-.25.25Z"/>
        <path class="cls-4" d="m443.45,744.7h-74.4c-.14,0-.25-.11-.25-.25s.11-.25.25-.25h74.4c.14,0,.25.11.25.25s-.11.25-.25.25Z"/>
        <path class="cls-4" d="m449.21,752.34h-152.68c-.14,0-.25-.11-.25-.25s.11-.25.25-.25h152.68c.14,0,.25.11.25.25s-.11.25-.25.25Z"/>
        <path class="cls-4" d="m372.87,756.15c-.14,0-.25-.11-.25-.25v-19.09c0-.14.11-.25.25-.25s.25.11.25.25v19.09c0,.14-.11.25-.25.25Z"/>
        <path class="cls-4" d="m240.72,921.2h-28.6c-.14,0-.25-.11-.25-.25v-97.31c0-.14.11-.25.25-.25s.25.11.25.25v97.06h28.1v-97.06c0-.14.11-.25.25-.25s.25.11.25.25v97.31c0,.14-.11.25-.25.25Z"/>
        <path class="cls-4" d="m389.35,892.6h-148.62c-.14,0-.25-.11-.25-.25s.11-.25.25-.25h148.62c.14,0,.25.11.25.25s-.11.25-.25.25Z"/>
        <path class="cls-4" d="m389.35,878.3h-148.62c-.14,0-.25-.11-.25-.25s.11-.25.25-.25h148.62c.14,0,.25.11.25.25s-.11.25-.25.25Z"/>
        <path class="cls-4" d="m389.35,887.81h-148.62c-.14,0-.25-.11-.25-.25s.11-.25.25-.25h148.62c.14,0,.25.11.25.25s-.11.25-.25.25Z"/>
        <path class="cls-4" d="m454.24,887.81h-2.91c-.14,0-.25-.11-.25-.25v-9.51c0-.14.11-.25.25-.25h2.91c.14,0,.25.11.25.25v9.51c0,.14-.11.25-.25.25Zm-2.66-.49h2.41v-9.02h-2.41v9.02Z"/>
        <path class="cls-4" d="m441.82,887.81h-2.85c-.14,0-.25-.11-.25-.25v-9.51c0-.14.11-.25.25-.25h2.85c.14,0,.25.11.25.25v9.51c0,.14-.11.25-.25.25Zm-2.6-.49h2.35v-9.02h-2.35v9.02Z"/>
        <path class="cls-4" d="m429.4,887.81h-2.85c-.14,0-.25-.11-.25-.25v-9.51c0-.14.11-.25.25-.25h2.85c.14,0,.25.11.25.25v9.51c0,.14-.11.25-.25.25Zm-2.6-.49h2.35v-9.02h-2.35v9.02Z"/>
        <path class="cls-4" d="m416.98,887.81h-2.85c-.14,0-.25-.11-.25-.25v-9.51c0-.14.11-.25.25-.25h2.85c.14,0,.25.11.25.25v9.51c0,.14-.11.25-.25.25Zm-2.6-.49h2.35v-9.02h-2.35v9.02Z"/>
        <path class="cls-4" d="m404.62,887.81h-2.91c-.14,0-.25-.11-.25-.25v-9.51c0-.14.11-.25.25-.25h2.91c.14,0,.25.11.25.25v9.51c0,.14-.11.25-.25.25Zm-2.66-.49h2.41v-9.02h-2.41v9.02Z"/>
        <path class="cls-4" d="m466.6,887.81h-2.85c-.14,0-.25-.11-.25-.25v-9.51c0-.14.11-.25.25-.25h2.85c.14,0,.25.11.25.25v9.51c0,.14-.11.25-.25.25Zm-2.6-.49h2.35v-9.02h-2.35v9.02Z"/>
        <path class="cls-4" d="m392.19,887.81h-2.85c-.14,0-.25-.11-.25-.25v-9.51c0-.14.11-.25.25-.25h2.85c.14,0,.25.11.25.25v9.51c0,.14-.11.25-.25.25Zm-2.6-.49h2.35v-9.02h-2.35v9.02Z"/>
        <path class="cls-4" d="m389.35,887.81c-.14,0-.25-.11-.25-.25v-9.51c0-.14.11-.25.25-.25s.25.11.25.25v9.51c0,.14-.11.25-.25.25Z"/>
        <path class="cls-4" d="m474.47,892.6h-85.13c-.14,0-.25-.11-.25-.25v-4.79c0-.14.11-.25.25-.25s.25.11.25.25v4.54h84.88c.14,0,.25.11.25.25s-.11.25-.25.25Z"/>
        <path class="cls-4" d="m474.47,878.3h-85.13c-.14,0-.25-.11-.25-.25s.11-.25.25-.25h85.13c.14,0,.25.11.25.25s-.11.25-.25.25Z"/>
        <path class="cls-4" d="m110.03,134.09h-4.79c-.14,0-.25-.11-.25-.25s.11-.25.25-.25h4.79c.14,0,.25.11.25.25s-.11.25-.25.25Z"/>
        <path class="cls-4" d="m223.58,453.7H14.61c-.14,0-.25-.11-.25-.25s.11-.25.25-.25h208.97c.14,0,.25.11.25.25s-.11.25-.25.25Z"/>
        <path class="cls-4" d="m223.58,463.21H14.61c-.14,0-.25-.11-.25-.25s.11-.25.25-.25h208.97c.14,0,.25.11.25.25s-.11.25-.25.25Z"/>
        <path class="cls-4" d="m233.09,520.47h-9.51c-.14,0-.25-.11-.25-.25s.11-.25.25-.25h9.51c.14,0,.25.11.25.25s-.11.25-.25.25Z"/>
        <path class="cls-4" d="m223.58,740.89c-.14,0-.25-.11-.25-.25v-134.51c0-.14.11-.25.25-.25h9.51c.14,0,.25.11.25.25s-.11.25-.25.25h-9.26v134.26c0,.14-.11.25-.25.25Z"/>
        <path class="cls-4" d="m223.58,520.47c-.14,0-.25-.11-.25-.25v-57.26c0-.14.11-.25.25-.25s.25.11.25.25v57.26c0,.14-.11.25-.25.25Z"/>
        <path class="cls-4" d="m223.58,453.7c-.14,0-.25-.11-.25-.25v-190.79c0-.14.11-.25.25-.25s.25.11.25.25v190.79c0,.14-.11.25-.25.25Z"/>
        <path class="cls-4" d="m233.09,740.89c-.14,0-.25-.11-.25-.25v-134.51c0-.14.11-.25.25-.25s.25.11.25.25v134.51c0,.14-.11.25-.25.25Z"/>
        <path class="cls-4" d="m233.09,520.47c-.14,0-.25-.11-.25-.25v-257.56c0-.14.11-.25.25-.25s.25.11.25.25v257.56c0,.14-.11.25-.25.25Z"/>
        <path class="cls-4" d="m233.09,526.22h-9.51c-.14,0-.25-.11-.25-.25v-5.76c0-.14.11-.25.25-.25s.25.11.25.25v5.51h9.02v-5.51c0-.14.11-.25.25-.25s.25.11.25.25v5.76c0,.14-.11.25-.25.25Z"/>
        <path class="cls-4" d="m233.09,606.38c-.14,0-.25-.11-.25-.25v-5.51h-9.02v5.51c0,.14-.11.25-.25.25s-.25-.11-.25-.25v-5.76c0-.14.11-.25.25-.25h9.51c.14,0,.25.11.25.25v5.76c0,.14-.11.25-.25.25Z"/>
        <path class="cls-4" d="m223.58,529.07h-74.46c-.14,0-.25-.11-.25-.25v-2.85c0-.14.11-.25.25-.25h74.46c.14,0,.25.11.25.25v2.85c0,.14-.11.25-.25.25Zm-74.22-.49h73.97v-2.35h-73.97v2.35Z"/>
        <path class="cls-4" d="m223.55,600.62c-41.18,0-74.68-33.5-74.68-74.68,0-.14.11-.25.25-.25s.25.11.25.25c0,40.91,33.28,74.19,74.19,74.19.14,0,.25.11.25.25s-.11.25-.25.25Z"/>
        <path class="cls-4" d="m100.46,167.48H14.61c-.14,0-.25-.11-.25-.25s.11-.25.25-.25h85.85c.14,0,.25.11.25.25s-.11.25-.25.25Z"/>
        <path class="cls-4" d="m100.46,176.99H14.61c-.14,0-.25-.11-.25-.25s.11-.25.25-.25h85.85c.14,0,.25.11.25.25s-.11.25-.25.25Z"/>
        <path class="cls-4" d="m237.88,167.48h-127.84c-.14,0-.25-.11-.25-.25s.11-.25.25-.25h127.84c.14,0,.25.11.25.25s-.11.25-.25.25Z"/>
        <path class="cls-4" d="m100.46,143.6H14.61c-.14,0-.25-.11-.25-.25s.11-.25.25-.25h85.85c.14,0,.25.11.25.25s-.11.25-.25.25Z"/>
        <path class="cls-4" d="m110.03,134.09H14.61c-.14,0-.25-.11-.25-.25s.11-.25.25-.25h95.43c.14,0,.25.11.25.25s-.11.25-.25.25Z"/>
        <path class="cls-4" d="m237.88,176.99H100.46c-.14,0-.25-.11-.25-.25s.11-.25.25-.25h137.42c.14,0,.25.11.25.25s-.11.25-.25.25Z"/>
        <path class="cls-4" d="m233.09,262.9h-9.51c-.14,0-.25-.11-.25-.25s.11-.25.25-.25h9.51c.14,0,.25.11.25.25s-.11.25-.25.25Z"/>
        <path class="cls-4" d="m110.03,167.48c-.14,0-.25-.11-.25-.25v-33.38c0-.14.11-.25.25-.25s.25.11.25.25v33.38c0,.14-.11.25-.25.25Z"/>
        <path class="cls-4" d="m100.46,176.99c-.14,0-.25-.11-.25-.25v-33.38c0-.14.11-.25.25-.25s.25.11.25.25v33.38c0,.14-.11.25-.25.25Z"/>
        <path class="cls-4" d="m237.88,176.99c-.14,0-.25-.11-.25-.25v-9.51c0-.14.11-.25.25-.25s.25.11.25.25v9.51c0,.14-.11.25-.25.25Z"/>
        <path class="cls-4" d="m100.46,167.48s-.04,0-.07,0l-85.85-23.87c-.13-.04-.21-.17-.17-.3.04-.13.17-.21.31-.17l85.85,23.87c.13.04.21.17.17.3-.03.11-.13.18-.24.18Z"/>
        <path class="cls-4" d="m14.61,167.48c-.11,0-.21-.07-.24-.18-.04-.13.04-.27.17-.3l85.85-23.87c.13-.03.27.04.31.17.04.13-.04.27-.17.3l-85.85,23.87s-.04,0-.07,0Z"/>
        <path class="cls-4" d="m233.09,182.74h-9.51c-.14,0-.25-.11-.25-.25v-5.76c0-.14.11-.25.25-.25s.25.11.25.25v5.51h9.02v-5.51c0-.14.11-.25.25-.25s.25.11.25.25v5.76c0,.14-.11.25-.25.25Z"/>
        <path class="cls-4" d="m233.09,262.9c-.14,0-.25-.11-.25-.25v-5.51h-9.02v5.51c0,.14-.11.25-.25.25s-.25-.11-.25-.25v-5.76c0-.14.11-.25.25-.25h9.51c.14,0,.25.11.25.25v5.76c0,.14-.11.25-.25.25Z"/>
        <path class="cls-4" d="m223.58,185.59h-74.46c-.14,0-.25-.11-.25-.25v-2.85c0-.14.11-.25.25-.25h74.46c.14,0,.25.11.25.25v2.85c0,.14-.11.25-.25.25Zm-74.22-.49h73.97v-2.35h-73.97v2.35Z"/>
        <path class="cls-4" d="m223.55,257.15c-41.18,0-74.68-33.5-74.68-74.68,0-.14.11-.25.25-.25s.25.11.25.25c0,40.91,33.28,74.19,74.19,74.19.14,0,.25.11.25.25s-.11.25-.25.25Z"/>
        <path class="cls-4" d="m473.08,876.18h-85.91c-.14,0-.25-.11-.25-.25v-41.99c0-.14.11-.25.25-.25h85.91c.14,0,.25.11.25.25v41.99c0,.14-.11.25-.25.25Zm-85.67-.49h85.42v-41.49h-85.42v41.49Z"/>
        <path class="cls-4" d="m387.17,876.18c-.09,0-.18-.05-.22-.14-.06-.12,0-.27.11-.33l85.91-41.99c.12-.06.27,0,.33.11s0,.27-.11.33l-85.91,41.99s-.07.03-.11.03Z"/>
        <path class="cls-4" d="m408.31,863.22c-.11,0-.2-.07-.24-.18l-5.58-18.31-5.58,18.31c-.04.13-.18.2-.31.16-.13-.04-.2-.18-.16-.31l5.82-19.09c.06-.21.41-.21.47,0l5.82,19.09c.04.13-.03.27-.16.31-.02,0-.05.01-.07.01Z"/>
        <path class="cls-4" d="m406.13,856.85h-7.27c-.14,0-.25-.11-.25-.25s.11-.25.25-.25h7.27c.14,0,.25.11.25.25s-.11.25-.25.25Z"/>
        <path class="cls-4" d="m459.21,873.03h-2.91s-.09-.01-.13-.04l-1.45-.91s-.04-.03-.06-.06l-1.45-1.82s-.03-.04-.04-.06l-.73-1.82-.74-2.75s0-.04,0-.06v-4.54s0-.04,0-.06l.73-2.73.74-1.85s.02-.04.04-.06l1.45-1.82s.04-.04.06-.06l1.45-.91s.09-.04.13-.04h2.91s.09.01.13.04l1.45.91s.04.03.06.06l1.45,1.82s.03.04.04.06l.73,1.82c.05.13-.01.27-.14.32-.13.05-.27-.01-.32-.14l-.71-1.78-1.4-1.76-1.36-.85h-2.77l-1.36.85-1.4,1.76-.71,1.78-.71,2.67v4.48l.72,2.69.71,1.76,1.4,1.76,1.36.85h2.77l1.36-.85,1.4-1.76.71-1.78c.05-.13.2-.19.32-.14.13.05.19.19.14.32l-.73,1.82s-.02.04-.04.06l-1.45,1.82s-.04.04-.06.06l-1.45.91s-.09.04-.13.04Z"/>
        <path class="cls-4" d="m305.61,844.8c-.14,0-.25-.11-.25-.25v-48.41c0-.14.11-.25.25-.25s.25.11.25.25v48.41c0,.14-.11.25-.25.25Z"/>
        <path class="cls-4" d="m309.73,831.95c-.05,0-.1-.02-.14-.05l-.78-.56h-.71c-.09,0-.17-.05-.22-.13-.04-.08-.04-.18.01-.25l.36-.55c.08-.11.23-.14.34-.07.11.08.14.23.07.34l-.11.16h.33c.05,0,.1.02.14.05l.71.5,1.45-1.02,1.52-2.87.42-4.01-.42-4.01-1.2-4.63-1.98-4.07c-.03-.06-.03-.13-.01-.19l1.21-3.45,1.2-5.84.73-3.76h-7.03c-.14,0-.25-.11-.25-.25s.11-.25.25-.25h7.33c.07,0,.14.03.19.09.05.06.07.13.05.2l-.79,4.06-1.21,5.88-1.19,3.39,1.95,4.03,1.23,4.71.43,4.1-.42,4.11s-.01.06-.03.09l-1.57,2.97s-.04.06-.08.09l-1.64,1.15s-.09.04-.14.04Z"/>
        <path class="cls-4" d="m336.21,810.93h-15.87c-.14,0-.25-.11-.25-.25v-14.54c0-.14.11-.25.25-.25h15.87c.14,0,.25.11.25.25v14.54c0,.14-.11.25-.25.25Zm-15.63-.49h15.38v-14.05h-15.38v14.05Z"/>
        <path class="cls-4" d="m336.21,803.96h-15.87c-.14,0-.25-.11-.25-.25s.11-.25.25-.25h15.87c.14,0,.25.11.25.25s-.11.25-.25.25Z"/>
        <path class="cls-4" d="m339.48,817.35h-23.63c-.14,0-.25-.11-.25-.25s.11-.25.25-.25h23.63c.14,0,.25.11.25.25s-.11.25-.25.25Z"/>
        <path class="cls-4" d="m316.22,831.95c-.06,0-.11-.02-.16-.06-.11-.09-.12-.24-.03-.35l2.89-3.49,2.83-6.39,1.2-4.63c.03-.13.17-.21.3-.18.13.03.21.17.18.3l-1.21,4.67-2.86,6.46s-.02.04-.04.06l-2.91,3.51c-.05.06-.12.09-.19.09Z"/>
        <path class="cls-4" d="m335.42,843.58h-2.06s-.05,0-.08-.01l-1.64-.54c-.13-.04-.2-.18-.16-.31.04-.13.19-.2.31-.16l1.6.53h1.88l1.96-3.28.36-4.06v-11.36h-16.05c-.14,0-.25-.11-.25-.25s.11-.25.25-.25h16.3c.14,0,.25.11.25.25v11.63l-.37,4.14s-.01.07-.03.1l-2.06,3.45c-.04.07-.13.12-.21.12Z"/>
        <path class="cls-4" d="m315.85,843.04c-.06,0-.13-.02-.17-.07-.1-.1-.1-.25,0-.35l4.06-4.12,4.43-6.9,2.05-6.39c.04-.13.18-.2.31-.16.13.04.2.18.16.31l-2.06,6.42s-.02.04-.03.06l-4.48,6.97-4.09,4.16s-.11.07-.18.07Z"/>
        <path class="cls-4" d="m324.4,844.8c-.05,0-.11-.02-.15-.05-.11-.09-.12-.24-.04-.35l3.25-4.09,3.26-7.54,1.62-7.53c.03-.13.16-.22.29-.19.13.03.22.16.19.29l-1.64,7.57-3.29,7.62s-.02.04-.03.06l-3.27,4.12c-.05.06-.12.09-.19.09Z"/>
        <path class="cls-4" d="m386.01,799.9h-29.75c-.14,0-.25-.11-.25-.25s.11-.25.25-.25h29.75c.14,0,.25.11.25.25s-.11.25-.25.25Z"/>
        <path class="cls-4" d="m371.35,804.57c-.14,0-.25-.11-.25-.25v-8.79c0-.14.11-.25.25-.25s.25.11.25.25v8.79c0,.14-.11.25-.25.25Z"/>
        <path class="cls-4" d="m384.38,804.57h-25.27c-.14,0-.25-.11-.25-.25s.11-.25.25-.25h25.27c.14,0,.25.11.25.25s-.11.25-.25.25Z"/>
        <path class="cls-4" d="m383.59,815.05h-22.84c-.14,0-.25-.11-.25-.25v-5.82c0-.14.11-.25.25-.25h22.84c.14,0,.25.11.25.25v5.82c0,.14-.11.25-.25.25Zm-22.59-.49h22.35v-5.32h-22.35v5.32Z"/>
        <path class="cls-4" d="m387.29,826.13c-.14,0-.25-.11-.25-.25v-6.18h-30.53v6.18c0,.14-.11.25-.25.25s-.25-.11-.25-.25v-6.42c0-.14.11-.25.25-.25h31.02c.14,0,.25.11.25.25v6.42c0,.14-.11.25-.25.25Z"/>
        <path class="cls-4" d="m383.59,824.38h-23.27c-.14,0-.25-.11-.25-.25s.11-.25.25-.25h23.27c.14,0,.25.11.25.25s-.11.25-.25.25Z"/>
        <path class="cls-4" d="m364.02,832.5s-.09-.01-.13-.04c-.11-.07-.15-.23-.07-.34l5.27-8.12c.07-.11.23-.15.34-.07.11.07.15.23.07.34l-5.27,8.12c-.05.07-.13.11-.21.11Z"/>
        <path class="cls-4" d="m361.54,833.1c-.13,0-.24-.1-.25-.23,0-.14.1-.25.23-.26l19.63-1.15c.14-.01.25.1.26.23,0,.14-.1.25-.23.26l-19.63,1.15s0,0-.01,0Z"/>
        <path class="cls-4" d="m382.74,834.86c-.08,0-.16-.04-.2-.11l-.79-1.15-1.23-2.39-1.2-1.73c-.08-.11-.05-.27.06-.34.11-.08.27-.05.34.06l1.21,1.76,1.23,2.39.77,1.12c.08.11.05.27-.06.34-.04.03-.09.04-.14.04Z"/>
        <path class="cls-4" d="m384.02,838.92h-24.54c-.14,0-.25-.11-.25-.25s.11-.25.25-.25h24.54c.14,0,.25.11.25.25s-.11.25-.25.25Z"/>
        <path class="cls-4" d="m371.35,844.8c-.14,0-.25-.11-.25-.25v-11.69c0-.14.11-.25.25-.25s.25.11.25.25v11.69c0,.14-.11.25-.25.25Z"/>
        <path class="cls-4" d="m386.86,844.8h-30.6c-.14,0-.25-.11-.25-.25s.11-.25.25-.25h30.6c.14,0,.25.11.25.25s-.11.25-.25.25Z"/>
      </g>
      <g>
        <path class="cls-4" d="m352.8,256.59h-13.15v-1.11c1.44-.08,2.46-.22,3.05-.44.92-.41,1.39-1.18,1.39-2.33,0-.93-.31-2.26-.94-3.99l-2-5.49h-15.53l-2.77,7.04c-.3.74-.44,1.55-.44,2.44,0,1.18.44,1.96,1.33,2.33.41.22,1.18.37,2.33.44v1.11h-10.15v-1.11c.48-.08.96-.17,1.44-.28.44-.11.87-.43,1.27-.94,1.03-1.33,2.39-4.25,4.05-8.77l11.21-30.45h.22l13.15,35c.81,2.22,1.7,3.72,2.66,4.49.55.44,1.52.76,2.88.94v1.11Zm-12.37-15.42l-6.99-20.36-7.32,20.36h14.31Z"/>
        <path class="cls-4" d="m377.05,214.1l-1.83,4.44c-.07.26-.37.39-.89.39h-10.09l-3,7.1c2.92.7,5.03,1.39,6.32,2.05,2.11,1,3.94,2.48,5.49,4.44,2.18,2.81,3.25,6.21,3.22,10.21-.11,4.11-1.48,7.56-4.1,10.37-2.66,2.81-6.08,4.22-10.26,4.22-3.55,0-5.68-.89-6.38-2.66-.04-.07-.06-.2-.06-.39,0-1.04.5-1.55,1.5-1.55,1.18,0,2.61.37,4.27,1.11,1.66.74,3,1.11,3.99,1.11,2.14-.04,3.98-.83,5.49-2.38,1.81-1.92,2.76-4.7,2.83-8.32.07-4.84-1.87-8.45-5.82-10.82-2.85-1.7-6.36-2.61-10.54-2.72-.07,0-.07-.11,0-.33l5.83-14.7h10.15c.96,0,1.85-.48,2.66-1.44l1.22-.11Z"/>
      </g>
      <g>
        <path class="cls-4" d="m374.56,282.29h-53.5c-.09,0-.17-.05-.21-.12l-26.72-46.35c-.04-.08-.04-.17,0-.25l26.72-46.29c.04-.08.13-.12.21-.12h53.5c.09,0,.17.05.21.12l26.78,46.29c.04.08.04.17,0,.25l-26.78,46.35c-.04.08-.13.12-.21.12Zm-53.36-.49h53.21l26.64-46.1-26.64-46.04h-53.21l-26.58,46.04,26.58,46.1Z"/>
        <path class="cls-4" d="m464.96,29.09h-26.72c-.14,0-.25-.11-.25-.25s.11-.25.25-.25h26.72c.14,0,.25.11.25.25s-.11.25-.25.25Z"/>
        <path class="cls-4" d="m464.96,14.79h-26.72c-.14,0-.25-.11-.25-.25s.11-.25.25-.25h26.72c.14,0,.25.11.25.25s-.11.25-.25.25Z"/>
        <path class="cls-4" d="m333.3,29.09c-.14,0-.25-.11-.25-.25v-14.3c0-.14.11-.25.25-.25s.25.11.25.25v14.3c0,.14-.11.25-.25.25Z"/>
        <path class="cls-4" d="m438.24,29.09c-.14,0-.25-.11-.25-.25v-14.3c0-.14.11-.25.25-.25s.25.11.25.25v14.3c0,.14-.11.25-.25.25Z"/>
        <path class="cls-4" d="m339,26.24h-5.69c-.14,0-.25-.11-.25-.25s.11-.25.25-.25h5.45v-10.96h-5.45c-.14,0-.25-.11-.25-.25s.11-.25.25-.25h5.69c.14,0,.25.11.25.25v11.45c0,.14-.11.25-.25.25Z"/>
        <path class="cls-4" d="m438.24,26.24h-5.76c-.14,0-.25-.11-.25-.25v-11.45c0-.14.11-.25.25-.25h5.76c.14,0,.25.11.25.25s-.11.25-.25.25h-5.51v10.96h5.51c.14,0,.25.11.25.25s-.11.25-.25.25Z"/>
        <path class="cls-4" d="m341.85,119.73h-2.85c-.14,0-.25-.11-.25-.25V26c0-.14.11-.25.25-.25h2.85c.14,0,.25.11.25.25v93.49c0,.14-.11.25-.25.25Zm-2.6-.49h2.35V26.24h-2.35v92.99Z"/>
        <path class="cls-4" d="m338.97,119.73c-.14,0-.25-.11-.25-.25s.11-.25.25-.25c51.43,0,93.27-41.84,93.27-93.27,0-.14.11-.25.25-.25s.25.11.25.25c0,51.7-42.06,93.77-93.77,93.77Z"/>
        <path class="cls-4" d="m438.24,14.55l26.72,14.3h-26.72v-14.3Zm26.72,0h-26.72l26.72,14.3v-14.3Z"/>
        <path class="cls-1" d="m438.24,14.55l26.72,14.3h-26.72v-14.3Zm26.72,0h-26.72l26.72,14.3v-14.3Z"/>
        <path class="cls-4" d="m323.73,14.55l9.57,14.3h-9.57v-14.3Zm9.57,0h-9.57l9.57,14.3v-14.3Z"/>
        <path class="cls-1" d="m323.73,14.55l9.57,14.3h-9.57v-14.3Zm9.57,0h-9.57l9.57,14.3v-14.3Z"/>
        <path class="cls-4" d="m333.3,29.09h-9.57c-.14,0-.25-.11-.25-.25v-14.3c0-.14.11-.25.25-.25h9.57c.14,0,.25.11.25.25v14.3c0,.14-.11.25-.25.25Zm-9.33-.49h9.08v-13.8h-9.08v13.8Z"/>
        <path class="cls-4" d="m59.44,806.75H.25c-.14,0-.25-.11-.25-.25s.11-.25.25-.25h59.2c.14,0,.25.11.25.25s-.11.25-.25.25Z"/>
        <path class="cls-4" d="m59.44,823.89H.25c-.14,0-.25-.11-.25-.25s.11-.25.25-.25h58.95v-16.9c0-.14.11-.25.25-.25s.25.11.25.25v17.15c0,.14-.11.25-.25.25Z"/>
        <path class="cls-4" d="m212.13,823.89H59.44c-.14,0-.25-.11-.25-.25s.11-.25.25-.25h152.68c.14,0,.25.11.25.25s-.11.25-.25.25Z"/>
        <path class="cls-4" d="m212.13,806.75H59.44c-.14,0-.25-.11-.25-.25s.11-.25.25-.25h152.68c.14,0,.25.11.25.25s-.11.25-.25.25Z"/>
        <path class="cls-4" d="m65.14,818.2c-.14,0-.25-.11-.25-.25v-11.45c0-.14.11-.25.25-.25s.25.11.25.25v11.45c0,.14-.11.25-.25.25Z"/>
        <path class="cls-4" d="m206.37,818.2c-.14,0-.25-.11-.25-.25v-11.45c0-.14.11-.25.25-.25s.25.11.25.25v11.45c0,.14-.11.25-.25.25Z"/>
        <path class="cls-4" d="m139.6,814.38h-74.46c-.14,0-.25-.11-.25-.25s.11-.25.25-.25h74.46c.14,0,.25.11.25.25s-.11.25-.25.25Z"/>
        <path class="cls-4" d="m206.37,810.56h-74.4c-.14,0-.25-.11-.25-.25s.11-.25.25-.25h74.4c.14,0,.25.11.25.25s-.11.25-.25.25Z"/>
        <path class="cls-4" d="m212.13,818.2H59.44c-.14,0-.25-.11-.25-.25s.11-.25.25-.25h152.68c.14,0,.25.11.25.25s-.11.25-.25.25Z"/>
        <path class="cls-4" d="m135.78,822.01c-.14,0-.25-.11-.25-.25v-19.09c0-.14.11-.25.25-.25s.25.11.25.25v19.09c0,.14-.11.25-.25.25Z"/>
        <path class="cls-4" d="m212.13,823.89c-.14,0-.25-.11-.25-.25v-17.15c0-.14.11-.25.25-.25s.25.11.25.25v17.15c0,.14-.11.25-.25.25Z"/>
        <path class="cls-4" d="m110.03,134.09c-.14,0-.25-.11-.25-.25V28.84c0-.14.11-.25.25-.25s.25.11.25.25v105c0,.14-.11.25-.25.25Z"/>
        <path class="cls-4" d="m105.25,134.09c-.14,0-.25-.11-.25-.25V28.84c0-.14.11-.25.25-.25s.25.11.25.25v105c0,.14-.11.25-.25.25Z"/>
        <path class="cls-4" d="m314.22,167.48h-95.43c-.14,0-.25-.11-.25-.25s.11-.25.25-.25h95.18v-57.01c0-.14.11-.25.25-.25s.25.11.25.25v57.26c0,.14-.11.25-.25.25Z"/>
        <path class="cls-4" d="m237.88,167.48c-.14,0-.25-.11-.25-.25v-57.26c0-.14.11-.25.25-.25h76.34c.14,0,.25.11.25.25s-.11.25-.25.25h-76.09v57.01c0,.14-.11.25-.25.25Z"/>
        <path class="cls-4" d="m276.23,152.81s-.01,0-.02,0c-2.16-.15-4.3-.54-6.38-1.16-.13-.04-.2-.18-.17-.31.04-.13.17-.21.31-.17,2.04.61,4.15,1,6.27,1.14.14,0,.24.13.23.26,0,.13-.12.23-.25.23Z"/>
        <path class="cls-4" d="m269.9,151.7s-.05,0-.07-.01c-2.38-.72-4.61-1.82-6.62-3.29-.11-.08-.13-.23-.05-.35s.23-.13.35-.05c1.97,1.43,4.14,2.51,6.47,3.21.13.04.2.18.17.31-.03.11-.13.18-.24.18Z"/>
        <path class="cls-4" d="m263.33,148.42c-.05,0-.1-.02-.15-.05-1.95-1.42-3.55-3.2-4.74-5.3-.07-.12-.03-.27.09-.34.12-.07.27-.03.34.09,1.16,2.03,2.71,3.76,4.6,5.14.11.08.13.24.05.35-.05.07-.12.1-.2.1Z"/>
        <path class="cls-4" d="m258.68,143.2c-.09,0-.17-.04-.21-.13-.99-1.73-1.51-3.7-1.51-5.68,0-.14.11-.25.25-.25s.25.11.25.25c0,1.9.5,3.78,1.44,5.44.07.12.03.27-.09.34-.04.02-.08.03-.12.03Z"/>
        <path class="cls-4" d="m257.2,137.64c-.14,0-.25-.11-.25-.25,0-1.99.52-3.96,1.51-5.68.07-.12.22-.16.34-.09.12.07.16.22.09.34-.94,1.66-1.44,3.54-1.44,5.44,0,.14-.11.25-.25.25Z"/>
        <path class="cls-4" d="m258.66,132.07s-.08-.01-.12-.03c-.12-.07-.16-.22-.09-.34,1.19-2.1,2.79-3.88,4.74-5.3.11-.08.26-.06.35.05.08.11.06.27-.05.35-1.89,1.38-3.44,3.11-4.6,5.14-.05.08-.13.13-.21.13Z"/>
        <path class="cls-4" d="m263.35,126.82c-.08,0-.15-.04-.2-.1-.08-.11-.06-.27.05-.35,2.01-1.46,4.24-2.57,6.62-3.29.14-.04.27.04.31.17.04.13-.03.27-.17.31-2.33.7-4.51,1.78-6.47,3.21-.04.03-.1.05-.15.05Z"/>
        <path class="cls-4" d="m269.91,123.62c-.11,0-.2-.07-.24-.18-.04-.13.03-.27.17-.31,2.72-.82,5.53-1.23,8.36-1.23.14,0,.25.11.25.25s-.11.25-.25.25c-2.79,0-5.55.41-8.22,1.21-.02,0-.05.01-.07.01Z"/>
        <path class="cls-4" d="m286.49,123.62s-.05,0-.07-.01c-2.67-.8-5.44-1.21-8.22-1.21-.14,0-.25-.11-.25-.25s.11-.25.25-.25c2.83,0,5.65.41,8.36,1.23.13.04.2.18.17.31-.03.11-.13.18-.24.18Z"/>
        <path class="cls-4" d="m293.04,126.82c-.05,0-.1-.02-.15-.05-1.97-1.43-4.14-2.51-6.47-3.21-.13-.04-.2-.18-.17-.31.04-.13.17-.21.31-.17,2.38.72,4.61,1.82,6.62,3.29.11.08.13.23.05.35-.05.07-.12.1-.2.1Z"/>
        <path class="cls-4" d="m297.68,132.07c-.09,0-.17-.04-.21-.13-1.16-2.03-2.71-3.76-4.6-5.14-.11-.08-.13-.23-.05-.35.08-.11.23-.13.35-.05,1.95,1.42,3.54,3.2,4.74,5.3.07.12.03.27-.09.34-.04.02-.08.03-.12.03Z"/>
        <path class="cls-4" d="m299.13,137.64c-.14,0-.25-.11-.25-.25,0-1.91-.5-3.79-1.44-5.44-.07-.12-.03-.27.09-.34.12-.07.27-.03.34.09.99,1.73,1.51,3.69,1.51,5.68,0,.14-.11.25-.25.25Z"/>
        <path class="cls-4" d="m297.66,143.2s-.08-.01-.12-.03c-.12-.07-.16-.22-.09-.34.94-1.65,1.44-3.53,1.44-5.44,0-.14.11-.25.25-.25s.25.11.25.25c0,1.99-.52,3.96-1.51,5.68-.05.08-.13.12-.21.12Z"/>
        <path class="cls-4" d="m293.01,148.42c-.08,0-.15-.04-.2-.1-.08-.11-.06-.27.05-.35,1.89-1.38,3.44-3.11,4.6-5.14.07-.12.22-.16.34-.09s.16.22.09.34c-1.19,2.1-2.79,3.88-4.74,5.3-.04.03-.1.05-.15.05Z"/>
        <path class="cls-4" d="m286.5,151.7c-.11,0-.2-.07-.24-.18-.04-.13.03-.27.17-.31,2.33-.7,4.51-1.78,6.47-3.21.11-.08.27-.06.35.05s.06.27-.05.35c-2.01,1.46-4.24,2.57-6.62,3.29-.02,0-.05.01-.07.01Z"/>
        <path class="cls-4" d="m280.17,152.81c-.13,0-.24-.1-.25-.23,0-.14.09-.25.23-.26,2.12-.14,4.23-.53,6.27-1.14.14-.04.27.04.31.17.04.13-.03.27-.17.31-2.07.62-4.22,1.02-6.38,1.16,0,0-.01,0-.02,0Z"/>
        <path class="cls-4" d="m285.38,158.21h-14.3c-.14,0-.25-.11-.25-.25s.11-.25.25-.25h14.3c.14,0,.25.11.25.25s-.11.25-.25.25Z"/>
        <path class="cls-4" d="m280.59,158.21c-.13,0-.24-.1-.25-.23l-.85-10.66c-.01-.14.09-.26.23-.27.14,0,.26.09.27.23l.85,10.66c.01.14-.09.26-.23.27,0,0-.01,0-.02,0Z"/>
        <path class="cls-4" d="m275.8,158.21s-.01,0-.02,0c-.14-.01-.24-.13-.23-.27l.85-10.66c.01-.14.13-.23.27-.23.14.01.24.13.23.27l-.85,10.66c0,.13-.12.23-.25.23Z"/>
        <path class="cls-4" d="m271.08,158.21c-.14,0-.25-.11-.25-.25v-4.79c0-.14.11-.25.25-.25s.25.11.25.25v4.79c0,.14-.11.25-.25.25Z"/>
        <path class="cls-4" d="m285.38,158.21c-.14,0-.25-.11-.25-.25v-4.79c0-.14.11-.25.25-.25s.25.11.25.25v4.79c0,.14-.11.25-.25.25Z"/>
        <path class="cls-4" d="m276.23,153.42h-5.15c-.14,0-.25-.11-.25-.25s.11-.25.25-.25h5.15c.14,0,.25.11.25.25s-.11.25-.25.25Z"/>
        <path class="cls-4" d="m285.38,153.42h-5.15c-.14,0-.25-.11-.25-.25s.11-.25.25-.25h5.15c.14,0,.25.11.25.25s-.11.25-.25.25Z"/>
        <path class="cls-4" d="m273.44,158.21c-.14,0-.25-.11-.25-.25v-4.79c0-.14.11-.25.25-.25s.25.11.25.25v4.79c0,.14-.11.25-.25.25Z"/>
        <path class="cls-4" d="m283.01,158.21c-.14,0-.25-.11-.25-.25v-4.79c0-.14.11-.25.25-.25s.25.11.25.25v4.79c0,.14-.11.25-.25.25Z"/>
        <path class="cls-4" d="m275.8,155.78h-4.73c-.14,0-.25-.11-.25-.25s.11-.25.25-.25h4.73c.14,0,.25.11.25.25s-.11.25-.25.25Z"/>
        <path class="cls-4" d="m273.41,158.15c-1.46,0-2.64-1.18-2.64-2.64s1.18-2.64,2.64-2.64,2.64,1.18,2.64,2.64-1.18,2.64-2.64,2.64Zm0-4.79c-1.18,0-2.15.96-2.15,2.15s.96,2.15,2.15,2.15,2.15-.96,2.15-2.15-.96-2.15-2.15-2.15Z"/>
        <path class="cls-4" d="m282.98,158.15c-1.46,0-2.64-1.18-2.64-2.64s1.18-2.64,2.64-2.64,2.64,1.18,2.64,2.64-1.18,2.64-2.64,2.64Zm0-4.79c-1.18,0-2.15.96-2.15,2.15s.96,2.15,2.15,2.15,2.15-.96,2.15-2.15-.96-2.15-2.15-2.15Z"/>
        <path class="cls-4" d="m285.38,155.78h-4.79c-.14,0-.25-.11-.25-.25s.11-.25.25-.25h4.79c.14,0,.25.11.25.25s-.11.25-.25.25Z"/>
        <path class="cls-4" d="m275.14,157.48c-.06,0-.13-.02-.17-.07l-3.39-3.39c-.1-.1-.1-.25,0-.35s.25-.1.35,0l3.39,3.39c.1.1.1.25,0,.35-.05.05-.11.07-.17.07Z"/>
        <path class="cls-4" d="m271.74,157.48c-.06,0-.13-.02-.17-.07-.1-.1-.1-.25,0-.35l3.39-3.39c.1-.1.25-.1.35,0s.1.25,0,.35l-3.39,3.39s-.11.07-.17.07Z"/>
        <path class="cls-4" d="m284.65,157.48c-.06,0-.13-.02-.18-.07l-3.33-3.39c-.1-.1-.09-.25,0-.35.1-.1.25-.1.35,0l3.33,3.39c.1.1.09.25,0,.35-.05.05-.11.07-.17.07Z"/>
        <path class="cls-4" d="m281.32,157.48c-.06,0-.13-.02-.17-.07-.1-.1-.1-.25,0-.35l3.33-3.39c.1-.1.25-.1.35,0,.1.1.1.25,0,.35l-3.33,3.39s-.11.07-.18.07Z"/>
        <path class="cls-4" d="m279.74,147.51c-.14,0-.25-.11-.25-.25,0-.72-.58-1.3-1.3-1.3s-1.3.58-1.3,1.3c0,.14-.11.25-.25.25s-.25-.11-.25-.25c0-.99.8-1.79,1.79-1.79s1.79.8,1.79,1.79c0,.14-.11.25-.25.25Z"/>
        <path class="cls-4" d="m278.32,156.69c-.65,0-1.19-.53-1.19-1.19s.53-1.19,1.19-1.19,1.19.53,1.19,1.19-.53,1.19-1.19,1.19Zm0-1.88c-.38,0-.69.31-.69.69s.31.69.69.69.69-.31.69-.69-.31-.69-.69-.69Z"/>
        <path class="cls-4" d="m279.71,147.13c-.07,0-.14-.03-.19-.09-.09-.11-.07-.26.04-.35.7-.57.97-1.53.67-2.38-.3-.85-1.12-1.43-2.02-1.43s-1.72.57-2.02,1.43c-.3.85-.03,1.81.67,2.38.11.09.12.24.04.35-.09.11-.24.12-.35.04-.87-.7-1.2-1.88-.82-2.93.37-1.05,1.37-1.76,2.49-1.76s2.12.71,2.49,1.76c.37,1.05.04,2.23-.82,2.93-.05.04-.1.06-.16.06Z"/>
        <path class="cls-4" d="m279.82,148.22c-.09,0-.17-.05-.22-.13-.07-.12-.02-.27.1-.34,1.25-.68,1.87-2.13,1.52-3.5-.35-1.38-1.59-2.34-3.02-2.34s-2.66.96-3.02,2.34c-.35,1.38.27,2.82,1.52,3.5.12.07.16.22.1.34-.07.12-.22.16-.34.1-1.45-.79-2.17-2.46-1.76-4.06s1.85-2.71,3.5-2.71,3.09,1.12,3.5,2.71c.41,1.6-.31,3.27-1.76,4.06-.04.02-.08.03-.12.03Z"/>
        <path class="cls-4" d="m294.59,147.18c-.11,0-.21-.08-.24-.19-.03-.13.05-.27.18-.3l7.69-1.88c.13-.03.27.05.3.18.03.13-.05.27-.18.3l-7.69,1.88s-.04,0-.06,0Z"/>
        <path class="cls-4" d="m261.87,147.18s-.04,0-.06,0l-7.75-1.88c-.13-.03-.21-.17-.18-.3.03-.13.17-.21.3-.18l7.75,1.88c.13.03.21.17.18.3-.03.11-.13.19-.24.19Z"/>
        <path class="cls-4" d="m296.09,125.27c-.06,0-.11-.02-.16-.06-2.35-1.93-5-3.4-7.87-4.38-.13-.04-.2-.18-.15-.31.04-.13.18-.2.31-.15,2.93,1,5.63,2.5,8.02,4.47.11.09.12.24.03.35-.05.06-.12.09-.19.09Z"/>
        <path class="cls-4" d="m301.53,132.1c-.09,0-.18-.05-.22-.14-1.32-2.62-3.14-4.89-5.4-6.75-.11-.09-.12-.24-.03-.35.09-.11.24-.12.35-.03,2.32,1.9,4.18,4.23,5.53,6.91.06.12.01.27-.11.33-.04.02-.07.03-.11.03Z"/>
        <path class="cls-4" d="m303.25,139.51c-.14,0-.25-.11-.25-.25,0-2.53-.6-5.06-1.74-7.32-.06-.12-.01-.27.11-.33.12-.06.27-.01.33.11,1.17,2.33,1.79,4.94,1.79,7.55,0,.14-.11.25-.25.25Z"/>
        <path class="cls-4" d="m301.48,146.95s-.08,0-.11-.03c-.12-.06-.17-.21-.11-.33,1.14-2.26,1.74-4.79,1.74-7.32,0-.14.11-.25.25-.25s.25.11.25.25c0,2.61-.62,5.22-1.79,7.55-.04.09-.13.14-.22.14Z"/>
        <path class="cls-4" d="m296.06,153.82c-.07,0-.14-.03-.19-.09-.09-.11-.07-.26.03-.35,2.27-1.86,4.08-4.13,5.4-6.75.06-.12.21-.17.33-.11.12.06.17.21.11.33-1.35,2.68-3.21,5-5.53,6.91-.05.04-.1.06-.16.06Z"/>
        <path class="cls-4" d="m288.14,158.25c-.1,0-.2-.06-.23-.17-.04-.13.03-.27.15-.31,2.87-.98,5.52-2.45,7.87-4.38.1-.09.26-.07.35.03.09.11.07.26-.03.35-2.39,1.97-5.09,3.47-8.02,4.47-.03,0-.05.01-.08.01Z"/>
        <path class="cls-4" d="m278.2,159.84c-.14,0-.25-.11-.25-.25s.11-.25.25-.25c3.36,0,6.67-.55,9.85-1.63.13-.04.27.03.31.15.04.13-.03.27-.15.31-3.23,1.1-6.59,1.66-10,1.66Z"/>
        <path class="cls-4" d="m278.2,159.84c-3.41,0-6.78-.56-10-1.66-.13-.04-.2-.18-.15-.31.04-.13.19-.2.31-.15,3.18,1.08,6.49,1.63,9.85,1.63.14,0,.25.11.25.25s-.11.25-.25.25Z"/>
        <path class="cls-4" d="m268.25,158.25s-.05,0-.08-.01c-2.93-1-5.63-2.5-8.02-4.47-.11-.09-.12-.24-.03-.35.09-.11.24-.12.35-.03,2.35,1.93,5,3.4,7.87,4.38.13.04.2.18.15.31-.03.1-.13.17-.23.17Z"/>
        <path class="cls-4" d="m260.33,153.82c-.06,0-.11-.02-.16-.06-2.32-1.9-4.18-4.23-5.53-6.91-.06-.12-.01-.27.11-.33.12-.06.27-.01.33.11,1.32,2.62,3.14,4.89,5.4,6.75.11.09.12.24.03.35-.05.06-.12.09-.19.09Z"/>
        <path class="cls-4" d="m254.85,146.95c-.09,0-.18-.05-.22-.14-1.17-2.33-1.79-4.94-1.79-7.55,0-.14.11-.25.25-.25s.25.11.25.25c0,2.53.6,5.06,1.74,7.32.06.12.01.27-.11.33-.04.02-.07.03-.11.03Z"/>
        <path class="cls-4" d="m253.08,139.51c-.14,0-.25-.11-.25-.25,0-2.61.62-5.22,1.79-7.55.06-.12.21-.17.33-.11.12.06.17.21.11.33-1.14,2.26-1.74,4.79-1.74,7.32,0,.14-.11.25-.25.25Z"/>
        <path class="cls-4" d="m254.87,132.1s-.08,0-.11-.03c-.12-.06-.17-.21-.11-.33,1.35-2.68,3.21-5,5.53-6.91.1-.09.26-.07.35.03.09.11.07.26-.03.35-2.26,1.86-4.08,4.13-5.4,6.75-.04.09-.13.14-.22.14Z"/>
        <path class="cls-4" d="m260.31,125.27c-.07,0-.14-.03-.19-.09-.09-.11-.07-.26.03-.35,2.39-1.97,5.09-3.47,8.02-4.47.13-.04.27.03.31.15.04.13-.03.27-.15.31-2.87.98-5.52,2.45-7.87,4.38-.05.04-.1.06-.16.06Z"/>
        <path class="cls-4" d="m268.27,120.89c-.1,0-.2-.06-.23-.17-.04-.13.03-.27.15-.31,3.23-1.1,6.59-1.66,10-1.66.14,0,.25.11.25.25s-.11.25-.25.25c-3.36,0-6.67.55-9.85,1.63-.03,0-.05.01-.08.01Z"/>
        <path class="cls-4" d="m288.12,120.89s-.05,0-.08-.01c-3.18-1.08-6.49-1.63-9.85-1.63-.14,0-.25-.11-.25-.25s.11-.25.25-.25c3.41,0,6.78.56,10,1.66.13.04.2.18.15.31-.03.1-.13.17-.23.17Z"/>
        <path class="cls-4" d="m297.09,124.05c-.06,0-.11-.02-.16-.06-2.49-2.05-5.31-3.61-8.36-4.65-.13-.04-.2-.18-.15-.31.04-.13.19-.2.31-.15,3.11,1.06,5.98,2.65,8.52,4.74.11.09.12.24.03.35-.05.06-.12.09-.19.09Z"/>
        <path class="cls-4" d="m302.93,131.36c-.09,0-.18-.05-.22-.14-1.42-2.82-3.37-5.27-5.81-7.28-.11-.09-.12-.24-.03-.35.09-.11.24-.12.35-.03,2.49,2.05,4.49,4.55,5.94,7.43.06.12.01.27-.11.33-.04.02-.07.03-.11.03Z"/>
        <path class="cls-4" d="m304.89,139.51c-.14,0-.25-.11-.25-.25,0-2.79-.66-5.57-1.92-8.06-.06-.12-.01-.27.11-.33.12-.06.27-.01.33.11,1.29,2.56,1.97,5.42,1.97,8.28,0,.14-.11.25-.25.25Z"/>
        <path class="cls-4" d="m302.94,147.69s-.08,0-.11-.03c-.12-.06-.17-.21-.11-.33,1.25-2.49,1.92-5.27,1.92-8.06,0-.14.11-.25.25-.25s.25.11.25.25c0,2.86-.68,5.73-1.97,8.28-.04.09-.13.14-.22.14Z"/>
        <path class="cls-4" d="m297.06,155.08c-.07,0-.14-.03-.19-.09-.09-.11-.07-.26.03-.35,2.44-2.01,4.39-4.45,5.81-7.28.06-.12.21-.17.33-.11.12.06.17.21.11.33-1.45,2.88-3.45,5.39-5.94,7.43-.05.04-.1.06-.16.06Z"/>
        <path class="cls-4" d="m288.65,159.74c-.1,0-.2-.06-.23-.17-.04-.13.03-.27.15-.31,3.05-1.04,5.87-2.6,8.36-4.65.1-.09.26-.07.35.03.09.11.07.26-.03.35-2.54,2.09-5.41,3.68-8.52,4.74-.03,0-.05.01-.08.01Z"/>
        <path class="cls-4" d="m278.2,161.48c-.14,0-.25-.11-.25-.25s.11-.25.25-.25c3.53,0,7.03-.58,10.37-1.72.13-.04.27.03.31.15.04.13-.03.27-.15.31-3.4,1.16-6.94,1.74-10.53,1.74Z"/>
        <path class="cls-4" d="m278.2,161.48c-3.59,0-7.13-.59-10.53-1.74-.13-.04-.2-.18-.15-.31.04-.13.18-.2.31-.15,3.35,1.14,6.84,1.72,10.37,1.72.14,0,.25.11.25.25s-.11.25-.25.25Z"/>
        <path class="cls-4" d="m267.75,159.74s-.05,0-.08-.01c-3.11-1.06-5.98-2.65-8.52-4.74-.11-.09-.12-.24-.03-.35.09-.11.24-.12.35-.03,2.49,2.05,5.31,3.61,8.36,4.65.13.04.2.18.15.31-.03.1-.13.17-.23.17Z"/>
        <path class="cls-4" d="m259.33,155.08c-.06,0-.11-.02-.16-.06-2.49-2.05-4.49-4.55-5.94-7.43-.06-.12-.01-.27.11-.33.12-.06.27-.01.33.11,1.42,2.82,3.37,5.27,5.81,7.28.11.09.12.24.03.35-.05.06-.12.09-.19.09Z"/>
        <path class="cls-4" d="m253.39,147.69c-.09,0-.18-.05-.22-.14-1.29-2.56-1.97-5.42-1.97-8.28,0-.14.11-.25.25-.25s.25.11.25.25c0,2.79.66,5.57,1.92,8.06.06.12.01.27-.11.33-.04.02-.07.03-.11.03Z"/>
        <path class="cls-4" d="m251.45,139.51c-.14,0-.25-.11-.25-.25,0-2.86.68-5.73,1.97-8.28.06-.12.21-.17.33-.11.12.06.17.21.11.33-1.25,2.49-1.92,5.27-1.92,8.06,0,.14-.11.25-.25.25Z"/>
        <path class="cls-4" d="m253.46,131.36s-.08,0-.11-.03c-.12-.06-.17-.21-.11-.33,1.45-2.88,3.45-5.39,5.94-7.43.11-.09.26-.07.35.03.09.11.07.26-.03.35-2.44,2.01-4.39,4.45-5.81,7.28-.04.09-.13.14-.22.14Z"/>
        <path class="cls-4" d="m259.31,124.05c-.07,0-.14-.03-.19-.09-.09-.11-.07-.26.03-.35,2.54-2.09,5.4-3.68,8.52-4.74.13-.04.27.03.31.15.04.13-.03.27-.15.31-3.05,1.04-5.87,2.61-8.36,4.65-.05.04-.1.06-.16.06Z"/>
        <path class="cls-4" d="m267.75,119.34c-.1,0-.2-.06-.23-.17-.04-.13.03-.27.15-.31,3.4-1.16,6.94-1.74,10.53-1.74.14,0,.25.11.25.25s-.11.25-.25.25c-3.54,0-7.03.58-10.37,1.72-.03,0-.05.01-.08.01Z"/>
        <path class="cls-4" d="m288.65,119.34s-.05,0-.08-.01c-3.35-1.14-6.84-1.72-10.37-1.72-.14,0-.25-.11-.25-.25s.11-.25.25-.25c3.59,0,7.13.59,10.53,1.74.13.04.2.18.15.31-.03.1-.13.17-.23.17Z"/>
        <path class="cls-4" d="m201.1,158.51c-.14,0-.25-.11-.25-.25v-5.45h-2.96c-.14,0-.25-.11-.25-.25v-3.45l-3.76-35.84c-.01-.14.09-.26.22-.27.13-.02.26.08.27.22l3.76,35.87v3.23h2.96c.14,0,.25.11.25.25v5.69c0,.14-.11.25-.25.25Z"/>
        <path class="cls-4" d="m194.11,113.47c-.13,0-.23-.09-.25-.22-.76-7.19-6.78-12.61-14-12.61-.14,0-.25-.11-.25-.25s.11-.25.25-.25c7.48,0,13.71,5.61,14.5,13.05.01.14-.09.26-.22.27,0,0-.02,0-.03,0Z"/>
        <path class="cls-4" d="m179.89,100.65h-6c-.14,0-.25-.11-.25-.25s.11-.25.25-.25h6c.14,0,.25.11.25.25s-.11.25-.25.25Z"/>
        <path class="cls-4" d="m159.61,113.47s-.02,0-.03,0c-.14-.01-.23-.14-.22-.27.78-7.44,7.02-13.05,14.5-13.05.14,0,.25.11.25.25s-.11.25-.25.25c-7.23,0-13.25,5.42-14,12.61-.01.13-.12.22-.25.22Z"/>
        <path class="cls-4" d="m155.9,165.54c-.14,0-.25-.11-.25-.25v-16.18l3.76-35.89c.01-.14.13-.24.27-.22.14.01.23.14.22.27l-3.76,35.87v16.15c0,.14-.11.25-.25.25Z"/>
        <path class="cls-4" d="m157.75,167.42c-1.19,0-2.16-.97-2.16-2.16,0-.14.11-.25.25-.25s.25.11.25.25c0,.92.74,1.66,1.66,1.66.14,0,.25.11.25.25s-.11.25-.25.25Z"/>
        <path class="cls-4" d="m195.95,167.48h-38.17c-.14,0-.25-.11-.25-.25s.11-.25.25-.25h38.17c.14,0,.25.11.25.25s-.11.25-.25.25Z"/>
        <path class="cls-4" d="m195.92,167.42c-.14,0-.25-.11-.25-.25s.11-.25.25-.25c.92,0,1.66-.75,1.66-1.66,0-.14.11-.25.25-.25s.25.11.25.25c0,1.19-.97,2.16-2.16,2.16Z"/>
        <path class="cls-4" d="m197.89,165.54c-.14,0-.25-.11-.25-.25v-7.03c0-.14.11-.25.25-.25h3.21c.14,0,.25.11.25.25s-.11.25-.25.25h-2.96v6.78c0,.14-.11.25-.25.25Z"/>
        <path class="cls-4" d="m193.59,145c-.13,0-.23-.09-.25-.22l-3.27-31.08c-.01-.14.09-.26.22-.27.14-.01.26.08.27.22l3.27,31.08c.01.14-.09.26-.22.27,0,0-.02,0-.03,0Z"/>
        <path class="cls-4" d="m195.28,142.94c-.13,0-.23-.09-.25-.22l-3.09-29.26c-.01-.14.09-.26.22-.27.14-.01.26.08.27.22l3.09,29.26c.01.14-.09.26-.22.27,0,0-.02,0-.03,0Z"/>
        <path class="cls-4" d="m160.2,145s-.02,0-.03,0c-.14-.01-.23-.14-.22-.27l3.27-31.08c.01-.14.14-.24.27-.22.14.01.23.14.22.27l-3.27,31.08c-.01.13-.12.22-.25.22Z"/>
        <path class="cls-4" d="m158.5,142.94s-.02,0-.03,0c-.14-.01-.23-.14-.22-.27l3.09-29.26c.01-.14.13-.23.27-.22.14.01.23.14.22.27l-3.09,29.26c-.01.13-.12.22-.25.22Z"/>
        <path class="cls-4" d="m197.28,158.51c-.14,0-.25-.11-.25-.25v-5.69c0-.14.11-.25.25-.25s.25.11.25.25v5.69c0,.14-.11.25-.25.25Z"/>
        <path class="cls-4" d="m193.37,145c-.14,0-.25-.11-.25-.25s.11-.25.25-.25c.47,0,.92-.2,1.23-.55.31-.35.47-.82.42-1.28-.01-.14.08-.26.22-.27.14-.01.26.08.27.22.06.61-.13,1.22-.54,1.67-.41.45-.99.71-1.6.71Z"/>
        <path class="cls-4" d="m160.35,145c-.61,0-1.19-.26-1.6-.71-.41-.45-.61-1.06-.54-1.67.01-.14.14-.23.27-.22.14.01.23.14.22.27-.05.47.1.94.42,1.28.31.35.77.55,1.23.55.14,0,.25.11.25.25s-.11.25-.25.25Z"/>
        <path class="cls-4" d="m193.4,145.06h-33.02c-.14,0-.25-.11-.25-.25s.11-.25.25-.25h33.02c.14,0,.25.11.25.25s-.11.25-.25.25Z"/>
        <path class="cls-4" d="m194.8,151.97c-.07,0-.14-.03-.19-.09-.09-.1-.07-.26.03-.35l3.09-2.61c.1-.09.26-.07.35.03.09.1.07.26-.03.35l-3.09,2.61s-.1.06-.16.06Z"/>
        <path class="cls-4" d="m158.99,151.97c-.06,0-.11-.02-.16-.06l-3.09-2.61c-.1-.09-.12-.24-.03-.35.09-.1.24-.12.35-.03l3.09,2.61c.1.09.12.24.03.35-.05.06-.12.09-.19.09Z"/>
        <path class="cls-4" d="m197.34,166.93c-.06,0-.13-.02-.17-.07l-2.6-2.61c-.1-.1-.1-.25,0-.35s.25-.1.35,0l2.6,2.61c.1.1.1.25,0,.35-.05.05-.11.07-.17.07Z"/>
        <path class="cls-4" d="m156.44,166.93c-.06,0-.13-.02-.17-.07-.1-.1-.1-.25,0-.35l2.61-2.61c.1-.1.25-.1.35,0s.1.25,0,.35l-2.61,2.61s-.11.07-.17.07Z"/>
        <path class="cls-4" d="m158.75,152.54c-.14,0-.25-.11-.25-.25,0-.59.42-1.08,1.01-1.17.13-.02.26.07.28.21.02.14-.07.26-.21.28-.34.05-.59.34-.59.68,0,.14-.11.25-.25.25Z"/>
        <path class="cls-4" d="m194.98,152.54c-.14,0-.25-.11-.25-.25,0-.34-.25-.63-.59-.68-.14-.02-.23-.15-.21-.28.02-.14.15-.23.28-.21.58.09,1.01.58,1.01,1.17,0,.14-.11.25-.25.25Z"/>
        <path class="cls-4" d="m194.04,164.57c-.14,0-.25-.11-.25-.25s.11-.25.25-.25c.38,0,.69-.31.69-.69,0-.14.11-.25.25-.25s.25.11.25.25c0,.65-.53,1.19-1.19,1.19Z"/>
        <path class="cls-4" d="m159.69,164.57c-.65,0-1.19-.53-1.19-1.19,0-.14.11-.25.25-.25s.25.11.25.25c0,.38.31.69.69.69.14,0,.25.11.25.25s-.11.25-.25.25Z"/>
        <path class="cls-4" d="m158.75,163.66c-.14,0-.25-.11-.25-.25v-11.09c0-.14.11-.25.25-.25s.25.11.25.25v11.09c0,.14-.11.25-.25.25Z"/>
        <path class="cls-4" d="m194.07,164.63h-34.35c-.14,0-.25-.11-.25-.25s.11-.25.25-.25h34.35c.14,0,.25.11.25.25s-.11.25-.25.25Z"/>
        <path class="cls-4" d="m195.04,163.66c-.14,0-.25-.11-.25-.25v-11.09c0-.14.11-.25.25-.25s.25.11.25.25v11.09c0,.14-.11.25-.25.25Z"/>
        <path class="cls-4" d="m194.14,151.54s-.03,0-.04,0c-11.46-1.77-23.09-1.77-34.55,0-.13.02-.26-.07-.28-.21-.02-.13.07-.26.21-.28,11.51-1.78,23.19-1.78,34.7,0,.14.02.23.15.21.28-.02.12-.12.21-.24.21Z"/>
        <path class="cls-4" d="m197.82,149.27s-.03,0-.04,0c-13.9-2.55-28-2.55-41.89,0-.14.02-.26-.06-.29-.2s.06-.26.2-.29c13.96-2.56,28.11-2.56,42.07,0,.13.02.22.15.2.29-.02.12-.13.2-.24.2Z"/>
        <path class="cls-4" d="m197.89,158.51h-.61c-.14,0-.25-.11-.25-.25s.11-.25.25-.25h.61c.14,0,.25.11.25.25s-.11.25-.25.25Z"/>
        <polygon class="cls-4" points="197.28 152.45 197.22 152.51 197.16 152.57 197.22 152.63 197.28 152.69 197.34 152.63 197.4 152.57 197.34 152.51 197.28 152.45"/>
        <polygon class="cls-2" points="197.28 152.45 197.22 152.51 197.16 152.57 197.22 152.63 197.28 152.69 197.34 152.63 197.4 152.57 197.34 152.51 197.28 152.45"/>
        <polygon class="cls-4" points="197.28 152.45 197.22 152.51 197.16 152.57 197.22 152.63 197.28 152.69 197.34 152.63 197.4 152.57 197.34 152.51 197.28 152.45"/>
        <polygon class="cls-2" points="197.28 152.45 197.22 152.51 197.16 152.57 197.22 152.63 197.28 152.69 197.34 152.63 197.4 152.57 197.34 152.51 197.28 152.45"/>
        <polygon class="cls-4" points="197.28 152.45 197.22 152.51 197.16 152.57 197.22 152.63 197.28 152.69 197.34 152.63 197.4 152.57 197.34 152.51 197.28 152.45"/>
        <polygon class="cls-2" points="197.28 152.45 197.22 152.51 197.16 152.57 197.22 152.63 197.28 152.69 197.34 152.63 197.4 152.57 197.34 152.51 197.28 152.45"/>
        <polygon class="cls-4" points="197.28 152.45 197.22 152.51 197.16 152.57 197.22 152.63 197.28 152.69 197.34 152.63 197.4 152.57 197.34 152.51 197.28 152.45"/>
        <polygon class="cls-2" points="197.28 152.45 197.22 152.51 197.16 152.57 197.22 152.63 197.28 152.69 197.34 152.63 197.4 152.57 197.34 152.51 197.28 152.45"/>
        <path class="cls-4" d="m197.89,152.81h-.61c-.14,0-.25-.11-.25-.25s.11-.25.25-.25h.61c.14,0,.25.11.25.25s-.11.25-.25.25Z"/>
        <path class="cls-4" d="m190.32,113.88c-.13,0-.23-.09-.25-.22-.55-5.24-4.94-9.19-10.21-9.19-.14,0-.25-.11-.25-.25s.11-.25.25-.25c5.52,0,10.12,4.14,10.7,9.63.01.14-.09.26-.22.27,0,0-.02,0-.03,0Z"/>
        <path class="cls-4" d="m192.18,113.68c-.13,0-.23-.09-.25-.22-.65-6.2-5.84-10.87-12.08-10.87-.14,0-.25-.11-.25-.25s.11-.25.25-.25c6.49,0,11.89,4.86,12.57,11.31.01.14-.09.26-.22.27,0,0-.02,0-.03,0Z"/>
        <path class="cls-4" d="m179.89,104.46h-6c-.14,0-.25-.11-.25-.25s.11-.25.25-.25h6c.14,0,.25.11.25.25s-.11.25-.25.25Z"/>
        <path class="cls-4" d="m179.89,102.59h-6c-.14,0-.25-.11-.25-.25s.11-.25.25-.25h6c.14,0,.25.11.25.25s-.11.25-.25.25Z"/>
        <path class="cls-4" d="m163.41,113.88s-.02,0-.03,0c-.14-.01-.23-.14-.22-.27.58-5.49,5.18-9.63,10.7-9.63.14,0,.25.11.25.25s-.11.25-.25.25c-5.27,0-9.66,3.95-10.21,9.19-.01.13-.12.22-.25.22Z"/>
        <path class="cls-4" d="m161.54,113.68s-.02,0-.03,0c-.14-.01-.23-.14-.22-.27.68-6.45,6.08-11.31,12.57-11.31.14,0,.25.11.25.25s-.11.25-.25.25c-6.23,0-11.42,4.67-12.08,10.87-.01.13-.12.22-.25.22Z"/>
        <path class="cls-4" d="m176.83,138.88c-2.76,0-5-2.24-5-5s2.24-5,5-5,5,2.24,5,5-2.24,5-5,5Zm0-9.51c-2.49,0-4.51,2.02-4.51,4.51s2.02,4.51,4.51,4.51,4.51-2.02,4.51-4.51-2.02-4.51-4.51-4.51Z"/>
        <path class="cls-4" d="m59.93,134.09c-.09,0-.17-.05-.21-.12l-5.39-9.09c-.05-.08-.05-.17,0-.25.04-.08.13-.13.21-.13h10.72c.09,0,.17.05.21.12.04.08.04.17,0,.25l-5.33,9.09c-.04.08-.13.12-.21.12h0Zm-4.96-9.09l4.96,8.35,4.9-8.35h-9.86Z"/>
        <path class="cls-4" d="m110.03,83.5h-4.79c-.14,0-.25-.11-.25-.25s.11-.25.25-.25h4.79c.14,0,.25.11.25.25s-.11.25-.25.25Z"/>
        <path class="cls-4" d="m105.25,79.68c-.14,0-.25-.11-.25-.25v-2.85c0-.14.11-.25.25-.25s.25.11.25.25v2.85c0,.14-.11.25-.25.25Z"/>
        <path class="cls-4" d="m110.03,80.65h-4.79c-.14,0-.25-.11-.25-.25s.11-.25.25-.25h4.79c.14,0,.25.11.25.25s-.11.25-.25.25Z"/>
        <polygon class="cls-4" points="108.1 32.54 108.03 32.6 107.97 32.66 108.03 32.72 108.1 32.78 108.16 32.72 108.22 32.66 108.16 32.6 108.1 32.54"/>
        <polygon class="cls-2" points="108.1 32.54 108.03 32.6 107.97 32.66 108.03 32.72 108.1 32.78 108.16 32.72 108.22 32.66 108.16 32.6 108.1 32.54"/>
        <path class="cls-4" d="m110.03,32.91h-4.54c-.14,0-.25-.11-.25-.25s.11-.25.25-.25h4.54c.14,0,.25.11.25.25s-.11.25-.25.25Z"/>
        <path class="cls-4" d="m110.03,79.68c-.14,0-.25-.11-.25-.25v-2.85c0-.14.11-.25.25-.25s.25.11.25.25v2.85c0,.14-.11.25-.25.25Z"/>
        <path class="cls-4" d="m110.03,134.09h-4.79c-.14,0-.25-.11-.25-.25v-2.91c0-.14.11-.25.25-.25s.25.11.25.25v2.66h4.54c.14,0,.25.11.25.25s-.11.25-.25.25Z"/>
        <path class="cls-4" d="m70.83,67.57c-.06,0-.13-.02-.17-.07-.1-.1-.1-.25,0-.35l36.41-36.41c.1-.1.25-.1.35,0s.1.25,0,.35l-36.41,36.41s-.11.07-.17.07Z"/>
        <path class="cls-4" d="m68.77,65.57c-.06,0-.13-.02-.17-.07-.1-.1-.1-.25,0-.35l36.48-36.47c.1-.1.25-.1.35,0s.1.25,0,.35l-36.48,36.47s-.11.07-.17.07Z"/>
        <path class="cls-4" d="m105.25,134.09c-.14,0-.25-.11-.25-.25v-2.91c0-.14.11-.25.25-.25s.25.11.25.25v2.91c0,.14-.11.25-.25.25Z"/>
        <path class="cls-4" d="m108.09,29.09h-2.85c-.14,0-.25-.11-.25-.25s.11-.25.25-.25h2.85c.14,0,.25.11.25.25s-.11.25-.25.25Z"/>
        <polygon class="cls-4" points="108.1 28.72 108.03 28.78 107.97 28.84 108.03 28.91 108.1 28.97 108.16 28.91 108.22 28.84 108.16 28.78 108.1 28.72"/>
        <polygon class="cls-2" points="108.1 28.72 108.03 28.78 107.97 28.84 108.03 28.91 108.1 28.97 108.16 28.91 108.22 28.84 108.16 28.78 108.1 28.72"/>
        <path class="cls-4" d="m110.03,29.09h-1.94c-.14,0-.25-.11-.25-.25s.11-.25.25-.25h1.94c.14,0,.25.11.25.25s-.11.25-.25.25Z"/>
        <path class="cls-4" d="m110.03,134.09c-.14,0-.25-.11-.25-.25v-2.91c0-.14.11-.25.25-.25s.25.11.25.25v2.91c0,.14-.11.25-.25.25Z"/>
        <path class="cls-4" d="m107.25,31.15c-.06,0-.13-.03-.18-.07l-2-2.06c-.09-.1-.09-.26,0-.35.1-.1.26-.09.35,0l2,2.06c.09.1.09.26,0,.35-.05.05-.11.07-.17.07Z"/>
        <path class="cls-4" d="m105.22,80.59c-13.83,0-26.83-5.39-36.61-15.17-.1-.1-.1-.25,0-.35s.25-.1.35,0c9.69,9.69,22.56,15.02,36.26,15.02.14,0,.25.11.25.25s-.11.25-.25.25Z"/>
        <path class="cls-4" d="m323.73,167.48H110.03c-.14,0-.25-.11-.25-.25s.11-.25.25-.25h213.7c.14,0,.25.11.25.25s-.11.25-.25.25Z"/>
        <path class="cls-4" d="m323.73,176.99H100.46c-.14,0-.25-.11-.25-.25s.11-.25.25-.25h223.02v-9.27c0-.14.11-.25.25-.25s.25.11.25.25v9.51c0,.14-.11.25-.25.25Z"/>
        <path class="cls-4" d="m323.73,34.85h-9.51c-.14,0-.25-.11-.25-.25v-5.76c0-.14.11-.25.25-.25s.25.11.25.25v5.51h9.02v-5.51c0-.14.11-.25.25-.25s.25.11.25.25v5.76c0,.14-.11.25-.25.25Z"/>
        <path class="cls-4" d="m323.73,105.43c-.14,0-.25-.11-.25-.25v-5.45h-9.02v5.45c0,.14-.11.25-.25.25s-.25-.11-.25-.25v-5.69c0-.14.11-.25.25-.25h9.51c.14,0,.25.11.25.25v5.69c0,.14-.11.25-.25.25Z"/>
        <path class="cls-4" d="m317.06,99.74c-.14,0-.25-.11-.25-.25V34.6c0-.14.11-.25.25-.25s.25.11.25.25v64.89c0,.14-.11.25-.25.25Z"/>
        <path class="cls-4" d="m323.73,99.74c-.14,0-.25-.11-.25-.25V34.6c0-.14.11-.25.25-.25s.25.11.25.25v64.89c0,.14-.11.25-.25.25Z"/>
        <path class="cls-4" d="m314.22,34.85h-64.89c-.14,0-.25-.11-.25-.25s.11-.25.25-.25h64.89c.14,0,.25.11.25.25s-.11.25-.25.25Z"/>
        <path class="cls-4" d="m314.22,37.7h-64.89c-.14,0-.25-.11-.25-.25s.11-.25.25-.25h64.64v-2.6c0-.14.11-.25.25-.25s.25.11.25.25v2.85c0,.14-.11.25-.25.25Z"/>
        <path class="cls-4" d="m314.19,99.68c-35.9,0-65.11-29.21-65.11-65.11,0-.14.11-.25.25-.25s.25.11.25.25c0,35.63,28.99,64.61,64.61,64.61.14,0,.25.11.25.25s-.11.25-.25.25Z"/>
        <path class="cls-4" d="m504.53,574.81c-.14,0-.25-.11-.25-.25v-1.82c0-.14.11-.25.25-.25s.25.11.25.25v1.82c0,.14-.11.25-.25.25Z"/>
        <path class="cls-4" d="m504.28,575.06c-.14,0-.25-.11-.25-.25v-2.24c0-.14.11-.25.25-.25s.25.11.25.25v2.24c0,.14-.11.25-.25.25Z"/>
        <path class="cls-4" d="m505.25,573h-.73c-.14,0-.25-.11-.25-.25s.11-.25.25-.25h.73c.14,0,.25.11.25.25s-.11.25-.25.25Z"/>
        <path class="cls-4" d="m505.25,574.81h-.73c-.14,0-.25-.11-.25-.25s.11-.25.25-.25h.73c.14,0,.25.11.25.25s-.11.25-.25.25Z"/>
        <path class="cls-4" d="m504.53,573c-.05,0-.1-.02-.15-.05l-.24-.18c-.11-.08-.13-.24-.05-.35.08-.11.24-.13.35-.05l.24.18c.11.08.13.24.05.35-.05.06-.12.1-.2.1Z"/>
        <path class="cls-4" d="m504.28,575.06c-.06,0-.13-.02-.17-.07-.1-.1-.1-.25,0-.35l.24-.24c.1-.1.25-.1.35,0,.1.1.1.25,0,.35l-.24.24s-.11.07-.17.07Z"/>
        <path class="cls-4" d="m505.25,574.81c-.14,0-.25-.11-.25-.25v-1.82c0-.14.11-.25.25-.25s.25.11.25.25v1.82c0,.14-.11.25-.25.25Z"/>
        <path class="cls-4" d="m506.46,573.12h-1.21c-.14,0-.25-.11-.25-.25s.11-.25.25-.25h1.21c.14,0,.25.11.25.25s-.11.25-.25.25Z"/>
        <path class="cls-4" d="m506.46,574.69h-1.21c-.14,0-.25-.11-.25-.25s.11-.25.25-.25h1.21c.14,0,.25.11.25.25s-.11.25-.25.25Z"/>
        <path class="cls-4" d="m504.28,572.81h-.79c-.14,0-.25-.11-.25-.25s.11-.25.25-.25h.79c.14,0,.25.11.25.25s-.11.25-.25.25Z"/>
        <path class="cls-4" d="m504.28,575.06h-.73c-.14,0-.25-.11-.25-.25s.11-.25.25-.25h.73c.14,0,.25.11.25.25s-.11.25-.25.25Z"/>
        <path class="cls-4" d="m497.98,573.9h-.73c-.14,0-.25-.11-.25-.25s.11-.25.25-.25h.73c.14,0,.25.11.25.25s-.11.25-.25.25Z"/>
        <path class="cls-4" d="m496.53,573.9h-6.24c-.14,0-.25-.11-.25-.25s.11-.25.25-.25h6.24c.14,0,.25.11.25.25s-.11.25-.25.25Z"/>
        <path class="cls-4" d="m498.83,566.45h-3.45c-.14,0-.25-.11-.25-.25s.11-.25.25-.25h3.45c.14,0,.25.11.25.25s-.11.25-.25.25Z"/>
        <path class="cls-4" d="m498.83,581.24h-3.45c-.14,0-.25-.11-.25-.25s.11-.25.25-.25h3.45c.14,0,.25.11.25.25s-.11.25-.25.25Z"/>
        <path class="cls-4" d="m498.83,571c-.14,0-.25-.11-.25-.25v-4.54c0-.14.11-.25.25-.25s.25.11.25.25v4.54c0,.14-.11.25-.25.25Z"/>
        <path class="cls-4" d="m495.38,570.57c-.14,0-.25-.11-.25-.25v-4.12c0-.14.11-.25.25-.25s.25.11.25.25v4.12c0,.14-.11.25-.25.25Z"/>
        <path class="cls-4" d="m498.83,576.99h-3.45c-.14,0-.25-.11-.25-.25s.11-.25.25-.25h3.45c.14,0,.25.11.25.25s-.11.25-.25.25Z"/>
        <path class="cls-4" d="m498.83,570.57h-3.45c-.14,0-.25-.11-.25-.25s.11-.25.25-.25h3.45c.14,0,.25.11.25.25s-.11.25-.25.25Z"/>
        <path class="cls-4" d="m503.07,572.09s0,0-.01,0l-3.33-.18c-.14,0-.24-.12-.23-.26,0-.14.11-.26.26-.23l3.33.18c.14,0,.24.12.23.26,0,.13-.12.23-.25.23Z"/>
        <path class="cls-4" d="m499.74,575.84c-.13,0-.24-.1-.25-.24,0-.14.1-.25.24-.26l3.33-.12c.13,0,.25.1.26.24,0,.14-.1.25-.24.26l-3.33.12h0Z"/>
        <path class="cls-4" d="m494.77,576.21h-.91c-.14,0-.25-.11-.25-.25s.11-.25.25-.25h.91c.14,0,.25.11.25.25s-.11.25-.25.25Z"/>
        <path class="cls-4" d="m493.2,575.6c-.14,0-.25-.11-.25-.25v-3.7c0-.14.11-.25.25-.25s.25.11.25.25v3.7c0,.14-.11.25-.25.25Z"/>
        <path class="cls-4" d="m494.77,571.24h-.91c-.14,0-.25-.11-.25-.25s.11-.25.25-.25h.91c.14,0,.25.11.25.25s-.11.25-.25.25Z"/>
        <path class="cls-4" d="m503.39,575.41s-.05,0-.07-.01c-.13-.04-.21-.18-.17-.31.29-.98.29-2.01-.02-2.98-.04-.13.03-.27.16-.31s.27.03.31.16c.33,1.07.34,2.2.02,3.27-.03.11-.13.18-.24.18Z"/>
        <path class="cls-4" d="m494.71,574.45c-.14,0-.25-.11-.25-.25v-1.03c0-.14.11-.25.25-.25s.25.11.25.25v1.03c0,.14-.11.25-.25.25Z"/>
        <path class="cls-4" d="m494.41,574.57c-.14,0-.25-.11-.25-.25v-1.27c0-.14.11-.25.25-.25s.25.11.25.25v1.27c0,.14-.11.25-.25.25Z"/>
        <path class="cls-4" d="m494.41,574.57h-.36c-.14,0-.25-.11-.25-.25v-1.27c0-.14.11-.25.25-.25h.36s.06,0,.09.02l.3.12c.13.05.19.19.14.32-.05.13-.2.19-.32.14l-.33-.1v.78h.12c.14,0,.25.11.25.25s-.11.25-.25.25Z"/>
        <path class="cls-4" d="m492.65,573.66c-.11,0-.21-.07-.24-.19-.03-.13.05-.27.18-.3l1.39-.36c.14-.04.27.04.3.18s-.05.27-.18.3l-1.39.36s-.04,0-.06,0Z"/>
        <path class="cls-4" d="m494.04,574.57s-.05,0-.07-.01l-1.39-.42c-.13-.04-.2-.18-.16-.31.04-.13.18-.2.31-.16l1.39.42c.13.04.2.18.16.31-.03.11-.13.18-.24.18Z"/>
        <path class="cls-4" d="m494.41,574.57c-.1,0-.19-.06-.23-.16-.05-.13.01-.27.14-.32l.3-.12c.12-.05.27.01.32.14.05.13-.01.27-.14.32l-.3.12s-.06.02-.09.02Z"/>
        <path class="cls-4" d="m503.36,572.3c-.11,0-.2-.07-.24-.17-.02-.06-.07-.1-.14-.1-.14,0-.24-.12-.24-.26,0-.13.11-.24.25-.24h0c.27.01.51.19.59.45.04.13-.03.27-.16.31-.03,0-.05.01-.07.01Z"/>
        <path class="cls-4" d="m503.05,575.72c-.13,0-.24-.11-.25-.24,0-.14.11-.25.24-.25.06,0,.12-.04.14-.1.04-.13.17-.2.31-.17.13.04.21.18.17.31-.08.27-.32.45-.6.46h0Z"/>
        <path class="cls-4" d="m493.83,576.21c-.49,0-.88-.4-.88-.88,0-.14.11-.25.25-.25s.25.11.25.25c0,.21.17.39.39.39.14,0,.25.11.25.25s-.11.25-.25.25Z"/>
        <path class="cls-4" d="m495.38,581.24c-.14,0-.25-.11-.25-.25v-4.36c0-.14.11-.25.25-.25s.25.11.25.25v4.36c0,.14-.11.25-.25.25Z"/>
        <path class="cls-4" d="m495.38,576.84c-.14,0-.25-.11-.25-.25,0-.21-.17-.39-.39-.39-.14,0-.25-.11-.25-.25s.11-.25.25-.25c.49,0,.88.4.88.88,0,.14-.11.25-.25.25Z"/>
        <path class="cls-4" d="m497.86,575.9h-2.36c-.14,0-.25-.11-.25-.25s.11-.25.25-.25h2.36c.14,0,.25.11.25.25s-.11.25-.25.25Z"/>
        <path class="cls-4" d="m498.77,576.72c-.14,0-.25-.11-.25-.25,0-.64.52-1.17,1.16-1.19.13,0,.25.1.25.24,0,.14-.1.25-.24.25-.37,0-.68.32-.68.69,0,.14-.11.25-.25.25Z"/>
        <path class="cls-4" d="m497.86,575.9c-.13,0-.24-.11-.25-.24,0-.14.1-.25.24-.26l1.88-.06c.12,0,.25.1.26.24,0,.14-.1.25-.24.26l-1.88.06h0Z"/>
        <path class="cls-4" d="m493.2,571.87c-.14,0-.25-.11-.25-.25,0-.49.4-.88.88-.88.14,0,.25.11.25.25s-.11.25-.25.25c-.21,0-.39.17-.39.39,0,.14-.11.25-.25.25Z"/>
        <path class="cls-4" d="m494.74,571.18c-.14,0-.25-.11-.25-.25s.11-.25.25-.25c.21,0,.39-.17.39-.39,0-.14.11-.25.25-.25s.25.11.25.25c0,.49-.4.88-.88.88Z"/>
        <path class="cls-4" d="m499.67,571.9h0c-.64-.02-1.14-.54-1.14-1.19,0-.14.11-.25.25-.25s.25.11.25.25c0,.37.29.68.67.69.14,0,.24.12.24.26,0,.13-.11.24-.25.24Z"/>
        <path class="cls-4" d="m499.74,571.91h0l-3.03-.12c-.14,0-.24-.12-.24-.26,0-.14.15-.25.26-.24l3.03.12c.14,0,.24.12.24.26,0,.13-.11.24-.25.24Z"/>
        <path class="cls-4" d="m498.83,581.24c-.14,0-.25-.11-.25-.25v-4.48c0-.14.11-.25.25-.25s.25.11.25.25v4.48c0,.14-.11.25-.25.25Z"/>
        <path class="cls-4" d="m506.46,602.56h-52.47c-.14,0-.25-.11-.25-.25v-57.26c0-.14.11-.25.25-.25h52.47c.14,0,.25.11.25.25v57.26c0,.14-.11.25-.25.25Zm-52.22-.49h51.97v-56.76h-51.97v56.76Z"/>
        <path class="cls-4" d="m457.81,592.02c-.14,0-.25-.11-.25-.25v-36.23c0-.14.11-.25.25-.25s.25.11.25.25v36.23c0,.14-.11.25-.25.25Z"/>
        <path class="cls-4" d="m460.63,594.87c-1.72,0-3.13-1.4-3.13-3.13,0-.14.11-.25.25-.25s.25.11.25.25c0,1.45,1.18,2.63,2.63,2.63.14,0,.25.11.25.25s-.11.25-.25.25Z"/>
        <path class="cls-4" d="m495.98,552.94h-35.32c-.14,0-.25-.11-.25-.25s.11-.25.25-.25h35.32c.14,0,.25.11.25.25s-.11.25-.25.25Z"/>
        <path class="cls-4" d="m457.75,555.76c-.14,0-.25-.11-.25-.25,0-1.72,1.4-3.13,3.13-3.13.14,0,.25.11.25.25s-.11.25-.25.25c-1.45,0-2.63,1.18-2.63,2.63,0,.14-.11.25-.25.25Z"/>
        <path class="cls-4" d="m501.68,602.56c-.14,0-.25-.11-.25-.25v-57.26c0-.14.11-.25.25-.25s.25.11.25.25v57.26c0,.14-.11.25-.25.25Z"/>
        <path class="cls-4" d="m498.83,592.02c-.14,0-.25-.11-.25-.25v-36.23c0-.14.11-.25.25-.25s.25.11.25.25v36.23c0,.14-.11.25-.25.25Z"/>
        <path class="cls-4" d="m498.83,555.76c-.14,0-.25-.11-.25-.25,0-1.45-1.18-2.63-2.63-2.63-.14,0-.25-.11-.25-.25s.11-.25.25-.25c1.72,0,3.13,1.4,3.13,3.13,0,.14-.11.25-.25.25Z"/>
        <path class="cls-4" d="m495.95,594.87c-.14,0-.25-.11-.25-.25s.11-.25.25-.25c1.45,0,2.63-1.18,2.63-2.63,0-.14.11-.25.25-.25s.25.11.25.25c0,1.72-1.4,3.13-3.13,3.13Z"/>
        <path class="cls-4" d="m495.98,594.93h-35.32c-.14,0-.25-.11-.25-.25s.11-.25.25-.25h35.32c.14,0,.25.11.25.25s-.11.25-.25.25Z"/>
        <path class="cls-4" d="m506.46,574.69c-.14,0-.25-.11-.25-.25v-1.58c0-.14.11-.25.25-.25s.25.11.25.25v1.58c0,.14-.11.25-.25.25Z"/>
        <path class="cls-4" d="m478.26,577.66c-2.22,0-4.03-1.81-4.03-4.03s1.81-4.03,4.03-4.03,4.03,1.81,4.03,4.03-1.81,4.03-4.03,4.03Zm0-7.57c-1.95,0-3.54,1.59-3.54,3.54s1.59,3.54,3.54,3.54,3.54-1.59,3.54-3.54-1.59-3.54-3.54-3.54Z"/>
        <path class="cls-4" d="m501.68,726.59h-47.68c-.14,0-.25-.11-.25-.25v-71.56c0-.14.11-.25.25-.25h47.68c.14,0,.25.11.25.25v71.56c0,.14-.11.25-.25.25Zm-47.44-.49h47.19v-71.06h-47.19v71.06Z"/>
        <path class="cls-4" d="m500.71,725.62h-45.8c-.14,0-.25-.11-.25-.25v-69.68c0-.14.11-.25.25-.25h45.8c.14,0,.25.11.25.25v69.68c0,.14-.11.25-.25.25Zm-45.56-.49h45.31v-69.18h-45.31v69.18Z"/>
        <path class="cls-4" d="m506.46,740.89h-57.26c-.14,0-.25-.11-.25-.25v-200.37c0-.14.11-.25.25-.25h57.26c.14,0,.25.11.25.25v200.37c0,.14-.11.25-.25.25Zm-57.01-.49h56.76v-199.87h-56.76v199.87Z"/>
        <path class="cls-4" d="m480.2,717.5c-5.4,0-9.79-4.39-9.79-9.79s4.39-9.79,9.79-9.79,9.79,4.39,9.79,9.79-4.39,9.79-9.79,9.79Zm0-19.09c-5.13,0-9.3,4.17-9.3,9.3s4.17,9.3,9.3,9.3,9.3-4.17,9.3-9.3-4.17-9.3-9.3-9.3Z"/>
        <path class="cls-4" d="m480.2,683.15c-5.4,0-9.79-4.39-9.79-9.79s4.39-9.79,9.79-9.79,9.79,4.39,9.79,9.79-4.39,9.79-9.79,9.79Zm0-19.09c-5.13,0-9.3,4.17-9.3,9.3s4.17,9.3,9.3,9.3,9.3-4.17,9.3-9.3-4.17-9.3-9.3-9.3Z"/>
        <path class="cls-4" d="m480.23,675.09c-.14,0-.25-.11-.25-.25v-2.97c0-.14.11-.25.25-.25s.25.11.25.25v2.97c0,.14-.11.25-.25.25Z"/>
        <path class="cls-4" d="m481.68,673.63h-2.97c-.14,0-.25-.11-.25-.25s.11-.25.25-.25h2.97c.14,0,.25.11.25.25s-.11.25-.25.25Z"/>
        <path class="cls-4" d="m480.23,709.44c-.14,0-.25-.11-.25-.25v-2.97c0-.14.11-.25.25-.25s.25.11.25.25v2.97c0,.14-.11.25-.25.25Z"/>
        <path class="cls-4" d="m481.68,707.99h-2.97c-.14,0-.25-.11-.25-.25s.11-.25.25-.25h2.97c.14,0,.25.11.25.25s-.11.25-.25.25Z"/>
        <path class="cls-4" d="m237.88,167.23l85.85,9.51h-85.85v-9.51Zm85.85,0h-85.85l85.85,9.51v-9.51Z"/>
        <path class="cls-1" d="m237.88,167.23l85.85,9.51h-85.85v-9.51Zm85.85,0h-85.85l85.85,9.51v-9.51Z"/>
        <path class="cls-4" d="m314.22,105.19l9.51,62.04h-9.51v-62.04Zm9.51,0h-9.51l9.51,62.04v-62.04Z"/>
        <path class="cls-1" d="m314.22,105.19l9.51,62.04h-9.51v-62.04Zm9.51,0h-9.51l9.51,62.04v-62.04Z"/>
        <path class="cls-4" d="m323.73,167.48c-.14,0-.25-.11-.25-.25V29.09h-9.02v8.36c0,.14-.11.25-.25.25s-.25-.11-.25-.25v-8.6c0-.14.11-.25.25-.25h9.51c.14,0,.25.11.25.25v138.38c0,.14-.11.25-.25.25Z"/>
        <path class="cls-4" d="m314.22,167.48c-.14,0-.25-.11-.25-.25v-67.74c0-.14.11-.25.25-.25s.25.11.25.25v67.74c0,.14-.11.25-.25.25Z"/>
        <path class="cls-4" d="m323.73,105.43h-9.51c-.14,0-.25-.11-.25-.25s.11-.25.25-.25h9.51c.14,0,.25.11.25.25s-.11.25-.25.25Z"/>
        <path class="cls-4" d="m140.39,204.68H17.45c-.14,0-.25-.11-.25-.25s.11-.25.25-.25h122.93c.14,0,.25.11.25.25s-.11.25-.25.25Z"/>
        <path class="cls-4" d="m242.6,396.44h-4.73c-.14,0-.25-.11-.25-.25v-114.51c0-.14.11-.25.25-.25h4.73c.14,0,.25.11.25.25v114.51c0,.14-.11.25-.25.25Zm-4.48-.49h4.23v-114.02h-4.23v114.02Z"/>
        <path class="cls-4" d="m237.88,386.93h-4.79c-.14,0-.25-.11-.25-.25v-95.43c0-.14.11-.25.25-.25h4.79c.14,0,.25.11.25.25s-.11.25-.25.25h-4.54v94.93h4.54c.14,0,.25.11.25.25s-.11.25-.25.25Z"/>
        <path class="cls-4" d="m244.54,393.59h-1.94c-.14,0-.25-.11-.25-.25s.11-.25.25-.25h1.94c.14,0,.25.11.25.25s-.11.25-.25.25Z"/>
        <path class="cls-4" d="m244.54,393.59c-.14,0-.25-.11-.25-.25v-108.51h-1.69c-.14,0-.25-.11-.25-.25s.11-.25.25-.25h1.94c.14,0,.25.11.25.25v108.76c0,.14-.11.25-.25.25Z"/>
        <path class="cls-4" d="m238.18,731.25s-.06,0-.09-.02l-5.09-1.88c-.1-.04-.16-.13-.16-.23v-48.53c0-.1.06-.2.16-.23l5.09-1.88c.13-.05.27.02.32.15.05.13-.02.27-.15.32l-4.93,1.82v48.19l4.93,1.82c.13.05.19.19.15.32-.04.1-.13.16-.23.16Z"/>
        <path class="cls-4" d="m304.64,740.89h-66.47c-.14,0-.25-.11-.25-.25v-71.56c0-.14.11-.25.25-.25h66.47c.14,0,.25.11.25.25v71.56c0,.14-.11.25-.25.25Zm-66.22-.49h65.97v-71.06h-65.97v71.06Z"/>
        <path class="cls-4" d="m300.83,740.89c-.14,0-.25-.11-.25-.25v-71.56c0-.14.11-.25.25-.25s.25.11.25.25v71.56c0,.14-.11.25-.25.25Z"/>
        <path class="cls-4" d="m220.67,517.62H17.45c-.14,0-.25-.11-.25-.25v-51.5c0-.14.11-.25.25-.25h203.21c.14,0,.25.11.25.25v51.5c0,.14-.11.25-.25.25Zm-202.97-.49h202.72v-51.01H17.7v51.01Z"/>
        <path class="cls-4" d="m220.67,490.9H17.45c-.14,0-.25-.11-.25-.25s.11-.25.25-.25h203.21c.14,0,.25.11.25.25s-.11.25-.25.25Z"/>
        <path class="cls-4" d="m220.67,492.84H17.45c-.14,0-.25-.11-.25-.25s.11-.25.25-.25h203.21c.14,0,.25.11.25.25s-.11.25-.25.25Z"/>
        <path class="cls-4" d="m195.89,806.75H14.61c-.14,0-.25-.11-.25-.25v-143.17c0-.14.11-.25.25-.25h181.28c.14,0,.25.11.25.25v143.17c0,.14-.11.25-.25.25Zm-181.03-.49h180.79v-142.68H14.85v142.68Z"/>
        <path class="cls-4" d="m47.99,806.75c-.14,0-.25-.11-.25-.25v-143.17c0-.14.11-.25.25-.25s.25.11.25.25v143.17c0,.14-.11.25-.25.25Z"/>
        <path class="cls-4" d="m77.86,806.75c-.12,0-.22-.08-.24-.2l-20.36-111.06v-32.16c0-.14.11-.25.24-.25s.25.11.25.25v32.11l20.35,111.01c.02.13-.06.26-.2.29-.01,0-.03,0-.04,0Z"/>
        <path class="cls-4" d="m47.99,799.11h-25.75c-.14,0-.25-.11-.25-.25v-59.2c0-.14.11-.25.25-.25h25.75c.14,0,.25.11.25.25v59.2c0,.14-.11.25-.25.25Zm-25.5-.49h25.26v-58.7h-25.26v58.7Z"/>
        <path class="cls-4" d="m47.99,730.4h-25.75c-.14,0-.25-.11-.25-.25v-59.2c0-.14.11-.25.25-.25h25.75c.14,0,.25.11.25.25v59.2c0,.14-.11.25-.25.25Zm-25.5-.49h25.26v-58.7h-25.26v58.7Z"/>
        <path class="cls-4" d="m62.29,620.68H14.61c-.14,0-.25-.11-.25-.25v-100.21c0-.14.11-.25.25-.25h47.68c.14,0,.25.11.25.25v100.21c0,.14-.11.25-.25.25Zm-47.44-.49h47.19v-99.72H14.85v99.72Z"/>
        <path class="cls-4" d="m90.95,592.02h-28.66c-.14,0-.25-.11-.25-.25v-42.9c0-.14.11-.25.25-.25h28.66c.14,0,.25.11.25.25v42.9c0,.14-.11.25-.25.25Zm-28.41-.49h28.16v-42.4h-28.16v42.4Z"/>
        <path class="cls-4" d="m86.16,592.02c-.14,0-.25-.11-.25-.25v-42.9c0-.14.11-.25.25-.25s.25.11.25.25v42.9c0,.14-.11.25-.25.25Z"/>
        <path class="cls-4" d="m36.05,657.03c-.14,0-.25-.11-.25-.25v-29.81c0-.14.11-.25.25-.25s.25.11.25.25v29.81c0,.14-.11.25-.25.25Z"/>
        <path class="cls-4" d="m36.02,654.67c-7.07,0-12.82-5.75-12.82-12.82s5.75-12.82,12.82-12.82,12.82,5.75,12.82,12.82-5.75,12.82-12.82,12.82Zm0-25.14c-6.8,0-12.33,5.53-12.33,12.32s5.53,12.32,12.33,12.32,12.33-5.53,12.33-12.32-5.53-12.32-12.33-12.32Z"/>
        <path class="cls-4" d="m36.02,650.13c-4.56,0-8.28-3.71-8.28-8.28s3.71-8.28,8.28-8.28,8.28,3.71,8.28,8.28-3.71,8.28-8.28,8.28Zm0-16.06c-4.29,0-7.78,3.49-7.78,7.78s3.49,7.78,7.78,7.78,7.78-3.49,7.78-7.78-3.49-7.78-7.78-7.78Z"/>
        <path class="cls-4" d="m50.96,642.13h-29.81c-.14,0-.25-.11-.25-.25s.11-.25.25-.25h29.81c.14,0,.25.11.25.25s-.11.25-.25.25Z"/>
        <path class="cls-4" d="m57.5,663.58H14.61c-.14,0-.25-.11-.25-.25v-42.9c0-.14.11-.25.25-.25h42.9c.14,0,.25.11.25.25v42.9c0,.14-.11.25-.25.25Zm-42.65-.49h42.4v-42.4H14.85v42.4Z"/>
        <path class="cls-4" d="m223.58,520.47H14.61c-.14,0-.25-.11-.25-.25v-57.26c0-.14.11-.25.25-.25h208.97c.14,0,.25.11.25.25v57.26c0,.14-.11.25-.25.25Zm-208.72-.49h208.48v-56.76H14.85v56.76Z"/>
        <path class="cls-4" d="m142.51,234.24H14.61c-.14,0-.25-.11-.25-.25v-57.26c0-.14.11-.25.25-.25h127.9c.14,0,.25.11.25.25v57.26c0,.14-.11.25-.25.25Zm-127.65-.49h127.41v-56.76H14.85v56.76Z"/>
        <path class="cls-4" d="m140.39,232.37h0l-122.93-.97c-.14,0-.25-.11-.25-.25v-51.56c0-.07.03-.13.07-.18.05-.05.1-.08.18-.07l122.93.97c.14,0,.25.11.25.25v51.56c0,.07-.03.13-.07.18-.05.05-.11.07-.17.07Zm-122.69-1.46l122.44.97v-51.07l-122.44-.97v51.07Z"/>
        <path class="cls-4" d="m140.39,204.68H17.45c-.14,0-.25-.11-.25-.25s.11-.25.25-.25h122.93c.14,0,.25.11.25.25s-.11.25-.25.25Z"/>
        <path class="cls-4" d="m140.39,206.56H17.45c-.14,0-.25-.11-.25-.25s.11-.25.25-.25h122.93c.14,0,.25.11.25.25s-.11.25-.25.25Z"/>
        <path class="cls-4" d="m195.89,453.7H14.61c-.14,0-.25-.11-.25-.25v-143.11c0-.14.11-.25.25-.25h181.28c.14,0,.25.11.25.25v143.11c0,.14-.11.25-.25.25Zm-181.03-.49h180.79v-142.62H14.85v142.62Z"/>
        <path class="cls-4" d="m47.99,453.7c-.14,0-.25-.11-.25-.25v-143.11c0-.14.11-.25.25-.25s.25.11.25.25v143.11c0,.14-.11.25-.25.25Z"/>
        <path class="cls-4" d="m77.86,453.7c-.12,0-.22-.08-.24-.2l-20.36-111v-32.16c0-.14.11-.25.24-.25s.25.11.25.25v32.11l20.35,110.95c.02.13-.06.26-.2.29-.01,0-.03,0-.04,0Z"/>
        <path class="cls-4" d="m47.99,446.06h-25.75c-.14,0-.25-.11-.25-.25v-59.13c0-.14.11-.25.25-.25h25.75c.14,0,.25.11.25.25v59.13c0,.14-.11.25-.25.25Zm-25.5-.49h25.26v-58.64h-25.26v58.64Z"/>
        <path class="cls-4" d="m47.99,377.36h-25.75c-.14,0-.25-.11-.25-.25v-59.13c0-.14.11-.25.25-.25h25.75c.14,0,.25.11.25.25v59.13c0,.14-.11.25-.25.25Zm-25.5-.49h25.26v-58.64h-25.26v58.64Z"/>
        <path class="cls-4" d="m62.29,310.59H14.61c-.14,0-.25-.11-.25-.25v-76.34c0-.14.11-.25.25-.25h47.68c.14,0,.25.11.25.25v76.34c0,.14-.11.25-.25.25Zm-47.44-.49h47.19v-75.85H14.85v75.85Z"/>
        <path class="cls-4" d="m38.39,303.44c-7.07,0-12.82-5.75-12.82-12.82s5.75-12.82,12.82-12.82,12.82,5.75,12.82,12.82-5.75,12.82-12.82,12.82Zm0-25.14c-6.8,0-12.33,5.53-12.33,12.32s5.53,12.32,12.33,12.32,12.33-5.53,12.33-12.32-5.53-12.32-12.33-12.32Z"/>
        <path class="cls-4" d="m38.39,298.89c-4.56,0-8.28-3.71-8.28-8.28s3.71-8.28,8.28-8.28,8.28,3.71,8.28,8.28-3.71,8.28-8.28,8.28Zm0-16.06c-4.29,0-7.78,3.49-7.78,7.78s3.49,7.78,7.78,7.78,7.78-3.49,7.78-7.78-3.49-7.78-7.78-7.78Z"/>
        <path class="cls-4" d="m90.95,293.86h-28.66c-.14,0-.25-.11-.25-.25v-42.9c0-.14.11-.25.25-.25h28.66c.14,0,.25.11.25.25v42.9c0,.14-.11.25-.25.25Zm-28.41-.49h28.16v-42.4h-28.16v42.4Z"/>
        <path class="cls-4" d="m86.16,293.86c-.14,0-.25-.11-.25-.25v-42.9c0-.14.11-.25.25-.25s.25.11.25.25v42.9c0,.14-.11.25-.25.25Z"/>
        <path class="cls-4" d="m38.42,305.8c-.14,0-.25-.11-.25-.25v-39.32c0-.14.11-.25.25-.25s.25.11.25.25v39.32c0,.14-.11.25-.25.25Z"/>
        <path class="cls-4" d="m53.32,290.9h-29.75c-.14,0-.25-.11-.25-.25s.11-.25.25-.25h29.75c.14,0,.25.11.25.25s-.11.25-.25.25Z"/>
        <path class="cls-4" d="m473.08,876.18h-85.91c-.14,0-.25-.11-.25-.25v-41.99c0-.14.11-.25.25-.25h85.91c.14,0,.25.11.25.25v41.99c0,.14-.11.25-.25.25Zm-85.67-.49h85.42v-41.49h-85.42v41.49Z"/>
        <path class="cls-4" d="m387.17,876.18c-.09,0-.18-.05-.22-.14-.06-.12,0-.27.11-.33l85.91-41.99c.12-.06.27,0,.33.11s0,.27-.11.33l-85.91,41.99s-.07.03-.11.03Z"/>
        <path class="cls-4" d="m408.31,863.22c-.11,0-.2-.07-.24-.18l-5.58-18.31-5.58,18.31c-.04.13-.18.2-.31.16-.13-.04-.2-.18-.16-.31l5.82-19.09c.06-.21.41-.21.47,0l5.82,19.09c.04.13-.03.27-.16.31-.02,0-.05.01-.07.01Z"/>
        <path class="cls-4" d="m406.13,856.85h-7.27c-.14,0-.25-.11-.25-.25s.11-.25.25-.25h7.27c.14,0,.25.11.25.25s-.11.25-.25.25Z"/>
        <path class="cls-4" d="m459.21,873.03h-2.91s-.09-.01-.13-.04l-1.45-.91s-.04-.03-.06-.06l-1.45-1.82s-.03-.04-.04-.06l-.73-1.82-.74-2.75s0-.04,0-.06v-4.54s0-.04,0-.06l.73-2.73.74-1.85s.02-.04.04-.06l1.45-1.82s.04-.04.06-.06l1.45-.91s.09-.04.13-.04h2.91s.09.01.13.04l1.45.91s.04.03.06.06l1.45,1.82s.03.04.04.06l.73,1.82c.05.13-.01.27-.14.32-.13.05-.27-.01-.32-.14l-.71-1.78-1.4-1.76-1.36-.85h-2.77l-1.36.85-1.4,1.76-.71,1.78-.71,2.67v4.48l.72,2.69.71,1.76,1.4,1.76,1.36.85h2.77l1.36-.85,1.4-1.76.71-1.78c.05-.13.2-.19.32-.14.13.05.19.19.14.32l-.73,1.82s-.02.04-.04.06l-1.45,1.82s-.04.04-.06.06l-1.45.91s-.09.04-.13.04Z"/>
        <path class="cls-4" d="m30.91,225.64c-.14,0-.25-.11-.25-.25v-38.17c0-.14.11-.25.25-.25s.25.11.25.25v38.17c0,.14-.11.25-.25.25Z"/>
        <path class="cls-4" d="m40.3,225.64c-.14,0-.25-.11-.25-.25v-38.17c0-.14.11-.25.25-.25s.25.11.25.25v38.17c0,.14-.11.25-.25.25Z"/>
        <path class="cls-4" d="m75.98,225.64c-.14,0-.25-.11-.25-.25v-38.17c0-.14.11-.25.25-.25s.25.11.25.25v38.17c0,.14-.11.25-.25.25Z"/>
        <path class="cls-4" d="m87.98,225.64c-.14,0-.25-.11-.25-.25v-38.17c0-.14.11-.25.25-.25s.25.11.25.25v38.17c0,.14-.11.25-.25.25Z"/>
        <path class="cls-4" d="m121.55,225.64c-.14,0-.25-.11-.25-.25v-38.17c0-.14.11-.25.25-.25s.25.11.25.25v38.17c0,.14-.11.25-.25.25Z"/>
        <path class="cls-4" d="m130.45,225.64c-.14,0-.25-.11-.25-.25v-38.17c0-.14.11-.25.25-.25s.25.11.25.25v38.17c0,.14-.11.25-.25.25Z"/>
        <path class="cls-4" d="m64.05,225.58c-.13,0-.23-.1-.25-.23l-3.33-37.99c-.01-.14.09-.26.23-.27.13,0,.26.09.27.22l3.33,37.99c.01.14-.09.26-.23.27,0,0-.01,0-.02,0Z"/>
        <path class="cls-4" d="m112.09,225.58c-.13,0-.23-.1-.25-.23l-3.33-37.99c-.01-.14.09-.26.23-.27.14,0,.26.09.27.22l3.33,37.99c.01.14-.09.26-.23.27,0,0-.01,0-.02,0Z"/>
        <path class="cls-4" d="m30.91,511.92c-.14,0-.25-.11-.25-.25v-38.17c0-.14.11-.25.25-.25s.25.11.25.25v38.17c0,.14-.11.25-.25.25Z"/>
        <path class="cls-4" d="m40.3,511.92c-.14,0-.25-.11-.25-.25v-38.17c0-.14.11-.25.25-.25s.25.11.25.25v38.17c0,.14-.11.25-.25.25Z"/>
        <path class="cls-4" d="m75.98,511.92c-.14,0-.25-.11-.25-.25v-38.17c0-.14.11-.25.25-.25s.25.11.25.25v38.17c0,.14-.11.25-.25.25Z"/>
        <path class="cls-4" d="m87.98,511.92c-.14,0-.25-.11-.25-.25v-38.17c0-.14.11-.25.25-.25s.25.11.25.25v38.17c0,.14-.11.25-.25.25Z"/>
        <path class="cls-4" d="m121.55,511.92c-.14,0-.25-.11-.25-.25v-38.17c0-.14.11-.25.25-.25s.25.11.25.25v38.17c0,.14-.11.25-.25.25Z"/>
        <path class="cls-4" d="m130.45,511.92c-.14,0-.25-.11-.25-.25v-38.17c0-.14.11-.25.25-.25s.25.11.25.25v38.17c0,.14-.11.25-.25.25Z"/>
        <path class="cls-4" d="m64.05,511.8c-.13,0-.23-.1-.25-.23l-3.33-37.99c-.01-.14.09-.26.23-.27.13-.01.26.09.27.22l3.33,37.99c.01.14-.09.26-.23.27,0,0-.01,0-.02,0Z"/>
        <path class="cls-4" d="m112.09,511.8c-.13,0-.23-.1-.25-.23l-3.33-37.99c-.01-.14.09-.26.23-.27.14-.01.26.09.27.22l3.33,37.99c.01.14-.09.26-.23.27,0,0-.01,0-.02,0Z"/>
        <path class="cls-4" d="m155.78,511.8s-.01,0-.02,0c-.14-.01-.24-.13-.23-.27l3.33-37.99c.01-.14.14-.24.27-.22.14.01.24.13.23.27l-3.33,37.99c-.01.13-.12.23-.25.23Z"/>
        <path class="cls-4" d="m165.47,511.8s-.01,0-.02,0c-.14-.01-.24-.13-.23-.27l3.27-37.99c.01-.14.12-.24.27-.23.14.01.24.13.23.27l-3.27,37.99c-.01.13-.12.23-.25.23Z"/>
        <path class="cls-4" d="m188.74,511.92c-.14,0-.25-.11-.25-.25v-38.17c0-.14.11-.25.25-.25s.25.11.25.25v38.17c0,.14-.11.25-.25.25Z"/>
        <path class="cls-4" d="m198.19,511.92c-.14,0-.25-.11-.25-.25v-38.17c0-.14.11-.25.25-.25s.25.11.25.25v38.17c0,.14-.11.25-.25.25Z"/>
        <path class="cls-4" d="m506.46,217.58h-38.17c-.14,0-.25-.11-.25-.25v-112.15c0-.14.11-.25.25-.25h38.17c.14,0,.25.11.25.25v112.15c0,.14-.11.25-.25.25Zm-37.92-.49h37.68v-111.65h-37.68v111.65Z"/>
        <path class="cls-4" d="m468.29,217.58s-.05,0-.08-.01c-.13-.04-.2-.18-.15-.31l38.17-112.15c.04-.13.18-.2.31-.15.13.04.2.18.15.31l-38.17,112.15c-.03.1-.13.17-.23.17Z"/>
        <path class="cls-4" d="m359.93,363c-21.17,0-38.39-17.22-38.39-38.39s17.22-38.39,38.39-38.39,38.39,17.22,38.39,38.39-17.22,38.39-38.39,38.39Zm0-76.28c-20.89,0-37.89,17-37.89,37.89s17,37.89,37.89,37.89,37.89-17,37.89-37.89-17-37.89-37.89-37.89Z"/>
        <path class="cls-4" d="m506.46,432.25h-85.91c-.14,0-.25-.11-.25-.25v-214.67c0-.14.11-.25.25-.25h85.91c.14,0,.25.11.25.25v214.67c0,.14-.11.25-.25.25Zm-85.67-.49h85.42v-214.17h-85.42v214.17Z"/>
        <path class="cls-4" d="m492.17,417.89c-.14,0-.25-.11-.25-.25v-185.76h-71.37c-.14,0-.25-.11-.25-.25s.11-.25.25-.25h71.61c.14,0,.25.11.25.25v186.01c0,.14-.11.25-.25.25Z"/>
        <path class="cls-4" d="m476.11,413.53s-.04,0-.06,0l-41.5-11.03c-.13-.04-.21-.17-.17-.3l11.03-41.5c.03-.13.17-.21.3-.18l5.03,1.33c.13.04.21.17.17.3-.03.13-.17.21-.3.18l-4.79-1.27-10.9,41.03,41.02,10.9,10.9-41.03-17.63-4.66c-.13-.03-.21-.17-.18-.3.03-.13.18-.21.3-.18l17.87,4.73c.06.02.12.06.15.11.03.06.04.12.03.19l-11.03,41.5c-.03.11-.13.18-.24.18Z"/>
        <path class="cls-4" d="m457.69,374.14s-.04,0-.05,0c-.07-.01-.12-.06-.16-.12l-21.93-36.96c-.03-.06-.04-.12-.03-.19s.06-.12.11-.15l36.96-21.87c.06-.04.13-.04.2-.02.07.02.12.07.15.13l17.08,36.9c.05.11.02.24-.09.31l-32.11,21.93s-.09.04-.14.04Zm-21.59-37.12l21.67,36.52,31.72-21.67-16.88-36.46-36.51,21.61Z"/>
        <path class="cls-4" d="m492.17,417.89h-71.61c-.14,0-.25-.11-.25-.25s.11-.25.25-.25h71.61c.14,0,.25.11.25.25s-.11.25-.25.25Z"/>
        <path class="cls-4" d="m418.67,569.12h-42.96c-.14,0-.25-.11-.25-.25v-28.6c0-.14.11-.25.25-.25h42.96c.14,0,.25.11.25.25v28.6c0,.14-.11.25-.25.25Zm-42.71-.49h42.46v-28.1h-42.46v28.1Z"/>
        <path class="cls-4" d="m363.35,564.39h-42.96c-.14,0-.25-.11-.25-.25s.11-.25.25-.25h42.96c.14,0,.25.11.25.25s-.11.25-.25.25Z"/>
        <path class="cls-4" d="m363.35,440.37h-42.96c-.14,0-.25-.11-.25-.25s.11-.25.25-.25h42.96c.14,0,.25.11.25.25s-.11.25-.25.25Z"/>
        <path class="cls-4" d="m449.21,540.52h-133.6c-.14,0-.25-.11-.25-.25v-76.34c0-.14.11-.25.25-.25h133.6c.14,0,.25.11.25.25v76.34c0,.14-.11.25-.25.25Zm-133.35-.49h133.1v-75.85h-133.1v75.85Z"/>
        <path class="cls-4" d="m418.67,564.39h-42.96c-.14,0-.25-.11-.25-.25s.11-.25.25-.25h42.96c.14,0,.25.11.25.25s-.11.25-.25.25Z"/>
        <path class="cls-4" d="m363.35,569.12h-42.96c-.14,0-.25-.11-.25-.25v-28.6c0-.14.11-.25.25-.25h42.96c.14,0,.25.11.25.25v28.6c0,.14-.11.25-.25.25Zm-42.71-.49h42.46v-28.1h-42.46v28.1Z"/>
        <path class="cls-4" d="m418.67,440.37h-42.96c-.14,0-.25-.11-.25-.25s.11-.25.25-.25h42.96c.14,0,.25.11.25.25s-.11.25-.25.25Z"/>
        <path class="cls-4" d="m418.67,464.18h-42.96c-.14,0-.25-.11-.25-.25v-28.6c0-.14.11-.25.25-.25h42.96c.14,0,.25.11.25.25v28.6c0,.14-.11.25-.25.25Zm-42.71-.49h42.46v-28.1h-42.46v28.1Z"/>
        <path class="cls-4" d="m363.35,464.18h-42.96c-.14,0-.25-.11-.25-.25v-28.6c0-.14.11-.25.25-.25h42.96c.14,0,.25.11.25.25v28.6c0,.14-.11.25-.25.25Zm-42.71-.49h42.46v-28.1h-42.46v28.1Z"/>
        <path class="cls-4" d="m506.46,540.52h-57.26c-.14,0-.25-.11-.25-.25v-76.34h0s.01-.08.03-.11c.01-.03.04-.06.06-.08s.06-.04.09-.05h0s0,0,0,0h0s.05,0,.07,0h57.25c.14,0,.25.11.25.25v76.36h0c0,.05-.02.1-.05.14h0s-.02.02-.03.04h0s-.1.06-.16.06h0Zm-57.01-.49h56.51l-56.51-75.35v75.35Zm.25-75.85l56.51,75.35v-75.35h-56.51Z"/>
        <path class="cls-4" d="m.25,892.6c-.14,0-.25-.11-.25-.25v-85.85c0-.14.11-.25.25-.25s.25.11.25.25v85.85c0,.14-.11.25-.25.25Z"/>
      </g>
    </g>
  </g>
</svg>