<?xml version="1.0" encoding="UTF-8"?>
<svg id="_圖層_2" data-name="圖層 2" xmlns="http://www.w3.org/2000/svg" viewBox="0 0 584.52 928.95">
  <defs>
    <style>
      .cls-1, .cls-2 {
        stroke-linecap: round;
      }

      .cls-1, .cls-2, .cls-3 {
        fill: none;
        stroke: #8a6e4b;
        stroke-width: 0px;
      }

      .cls-1, .cls-3 {
        stroke-miterlimit: 10;
      }

      .cls-2 {
        stroke-linejoin: round;
      }

      .cls-4 {
        fill: #8a6e4b;
      }
    </style>
  </defs>
  <g id="_圖層_1-2" data-name="圖層 1">
    <g>
      <g>
        <path class="cls-4" d="m326.44,899.83l9.62,14.47h-9.62v-14.47Zm9.62,0h-9.62l9.62,14.47v-14.47Z"/>
        <path class="cls-3" d="m326.44,899.83l9.62,14.47h-9.62v-14.47Zm9.62,0h-9.62l9.62,14.47v-14.47Z"/>
        <path class="cls-4" d="m441.92,899.83l26.87,14.47h-26.87v-14.47Zm26.87,0h-26.87l26.87,14.47v-14.47Z"/>
        <path class="cls-3" d="m441.92,899.83l26.87,14.47h-26.87v-14.47Zm26.87,0h-26.87l26.87,14.47v-14.47Z"/>
        <path class="cls-4" d="m574.64,928.95h-105.85c-.14,0-.25-.11-.25-.25v-105.85c0-.14.11-.25.25-.25h105.85c.14,0,.25.11.25.25v105.85c0,.14-.11.25-.25.25Zm-105.6-.5h105.35v-105.35h-105.35v105.35Z"/>
        <path class="cls-4" d="m.25,98.41l59.66,17.32H.25v-17.32Zm59.66,0H.25l59.66,17.32v-17.32Z"/>
        <path class="cls-1" d="m.25,98.41l59.66,17.32H.25v-17.32Zm59.66,0H.25l59.66,17.32v-17.32Z"/>
        <path class="cls-4" d="m509.21,115.73l17.32,49.04h-17.32v-49.04Zm17.32,0h-17.32l17.32,49.04v-49.04Z"/>
        <path class="cls-1" d="m509.21,115.73l17.32,49.04h-17.32v-49.04Zm17.32,0h-17.32l17.32,49.04v-49.04Z"/>
        <path class="cls-4" d="m452.96,164.77l73.56,17.32h-73.56v-17.32Zm73.56,0h-73.56l73.56,17.32v-17.32Z"/>
        <path class="cls-1" d="m452.96,164.77l73.56,17.32h-73.56v-17.32Zm73.56,0h-73.56l73.56,17.32v-17.32Z"/>
        <path class="cls-4" d="m584.27,115.98h-105.85c-.14,0-.25-.11-.25-.25V9.87c0-.14.11-.25.25-.25h105.85c.14,0,.25.11.25.25v105.85c0,.14-.11.25-.25.25Zm-105.6-.5h105.35V10.12h-105.35v105.35Z"/>
        <path class="cls-4" d="m452.96,182.34c-.14,0-.25-.11-.25-.25v-17.32c0-.14.11-.25.25-.25s.25.11.25.25v17.32c0,.14-.11.25-.25.25Z"/>
        <path class="cls-4" d="m299,182.34c-.14,0-.25-.11-.25-.25v-17.32c0-.14.11-.25.25-.25s.25.11.25.25v17.32c0,.14-.11.25-.25.25Z"/>
        <path class="cls-4" d="m452.96,165.02h-153.97c-.14,0-.25-.11-.25-.25s.11-.25.25-.25h153.97c.14,0,.25.11.25.25s-.11.25-.25.25Z"/>
        <path class="cls-4" d="m452.96,182.34h-153.97c-.14,0-.25-.11-.25-.25s.11-.25.25-.25h153.97c.14,0,.25.11.25.25s-.11.25-.25.25Z"/>
        <path class="cls-4" d="m304.77,182.34c-.14,0-.25-.11-.25-.25v-11.55c0-.14.11-.25.25-.25s.25.11.25.25v11.55c0,.14-.11.25-.25.25Z"/>
        <path class="cls-4" d="m447.19,182.34c-.14,0-.25-.11-.25-.25v-11.55c0-.14.11-.25.25-.25s.25.11.25.25v11.55c0,.14-.11.25-.25.25Z"/>
        <path class="cls-4" d="m379.83,174.64h-75.06c-.14,0-.25-.11-.25-.25s.11-.25.25-.25h75.06c.14,0,.25.11.25.25s-.11.25-.25.25Z"/>
        <path class="cls-4" d="m447.19,178.49h-75.06c-.14,0-.25-.11-.25-.25s.11-.25.25-.25h75.06c.14,0,.25.11.25.25s-.11.25-.25.25Z"/>
        <path class="cls-4" d="m452.96,170.79h-153.97c-.14,0-.25-.11-.25-.25s.11-.25.25-.25h153.97c.14,0,.25.11.25.25s-.11.25-.25.25Z"/>
        <path class="cls-4" d="m375.98,186.19c-.14,0-.25-.11-.25-.25v-19.25c0-.14.11-.25.25-.25s.25.11.25.25v19.25c0,.14-.11.25-.25.25Z"/>
        <path class="cls-4" d="m213.88,98.41l28.87,17.32h-28.87v-17.32Zm28.87,0h-28.87l28.87,17.32v-17.32Z"/>
        <path class="cls-1" d="m213.88,98.41l28.87,17.32h-28.87v-17.32Zm28.87,0h-28.87l28.87,17.32v-17.32Z"/>
        <path class="cls-4" d="m225.43,115.73l17.32.93h-17.32v-.93Zm17.32,0h-17.32l17.32.93v-.93Z"/>
        <path class="cls-1" d="m225.43,115.73l17.32.93h-17.32v-.93Zm17.32,0h-17.32l17.32.93v-.93Z"/>
        <path class="cls-4" d="m225.43,116.65l24.02,48.12h-24.02v-48.12Zm24.02,0h-24.02l24.02,48.12v-48.12Z"/>
        <path class="cls-1" d="m225.43,116.65l24.02,48.12h-24.02v-48.12Zm24.02,0h-24.02l24.02,48.12v-48.12Z"/>
        <path class="cls-4" d="m225.43,164.77l73.56,17.32h-73.56v-17.32Zm73.56,0h-73.56l73.56,17.32v-17.32Z"/>
        <path class="cls-1" d="m225.43,164.77l73.56,17.32h-73.56v-17.32Zm73.56,0h-73.56l73.56,17.32v-17.32Z"/>
        <path class="cls-4" d="m101.26,736.31l138.57,9.62H101.26v-9.62Zm138.57,0H101.26l138.57,9.62v-9.62Z"/>
        <path class="cls-1" d="m101.26,736.31l138.57,9.62H101.26v-9.62Zm138.57,0H101.26l138.57,9.62v-9.62Z"/>
        <path class="cls-4" d="m101.26,745.94l9.62,24.02h-9.62v-24.02Zm9.62,0h-9.62l9.62,24.02v-24.02Z"/>
        <path class="cls-1" d="m101.26,745.94l9.62,24.02h-9.62v-24.02Zm9.62,0h-9.62l9.62,24.02v-24.02Z"/>
        <path class="cls-4" d="m14.72,769.96l96.16,9.62H14.72v-9.62Zm96.16,0H14.72l96.16,9.62v-9.62Z"/>
        <path class="cls-1" d="m14.72,769.96l96.16,9.62H14.72v-9.62Zm96.16,0H14.72l96.16,9.62v-9.62Z"/>
        <path class="cls-4" d="m14.72,736.31l86.54,9.62H14.72v-9.62Zm86.54,0H14.72l86.54,9.62v-9.62Z"/>
        <path class="cls-1" d="m14.72,736.31l86.54,9.62H14.72v-9.62Zm86.54,0H14.72l86.54,9.62v-9.62Z"/>
        <path class="cls-4" d="m225.43,389.88l9.62,57.74h-9.62v-57.74Zm9.62,0h-9.62l9.62,57.74v-57.74Z"/>
        <path class="cls-1" d="m225.43,389.88l9.62,57.74h-9.62v-57.74Zm9.62,0h-9.62l9.62,57.74v-57.74Z"/>
        <path class="cls-4" d="m14.72,447.62l220.33,9.62H14.72v-9.62Zm220.33,0H14.72l220.33,9.62v-9.62Z"/>
        <path class="cls-1" d="m14.72,447.62l220.33,9.62H14.72v-9.62Zm220.33,0H14.72l220.33,9.62v-9.62Z"/>
        <path class="cls-4" d="m225.43,457.24l9.62,192.46h-9.62v-192.46Zm9.62,0h-9.62l9.62,192.46v-192.46Z"/>
        <path class="cls-1" d="m225.43,457.24l9.62,192.46h-9.62v-192.46Zm9.62,0h-9.62l9.62,192.46v-192.46Z"/>
        <path class="cls-4" d="m225.43,182.09l9.62,121.25h-9.62v-121.25Zm9.62,0h-9.62l9.62,121.25v-121.25Z"/>
        <path class="cls-1" d="m225.43,182.09l9.62,121.25h-9.62v-121.25Zm9.62,0h-9.62l9.62,121.25v-121.25Z"/>
        <path class="cls-4" d="m.25,115.73l14.47,784.11H.25V115.73Zm14.47,0H.25l14.47,784.11V115.73Z"/>
        <path class="cls-1" d="m.25,115.73l14.47,784.11H.25V115.73Zm14.47,0H.25l14.47,784.11V115.73Z"/>
        <path class="cls-4" d="m.25,899.83l326.19,14.47H.25v-14.47Zm326.19,0H.25l326.19,14.47v-14.47Z"/>
        <path class="cls-1" d="m.25,899.83l326.19,14.47H.25v-14.47Zm326.19,0H.25l326.19,14.47v-14.47Z"/>
        <path class="cls-4" d="m326.44,900.08H14.72c-.14,0-.25-.11-.25-.25s.11-.25.25-.25h311.72c.14,0,.25.11.25.25s-.11.25-.25.25Z"/>
        <path class="cls-4" d="m326.44,914.56H.25c-.14,0-.25-.11-.25-.25s.11-.25.25-.25h325.94v-14.22c0-.14.11-.25.25-.25s.25.11.25.25v14.47c0,.14-.11.25-.25.25Z"/>
        <path class="cls-4" d="m509.21,165.02h-56.24c-.14,0-.25-.11-.25-.25s.11-.25.25-.25h56.24c.14,0,.25.11.25.25s-.11.25-.25.25Z"/>
        <path class="cls-4" d="m299,165.02h-49.54c-.14,0-.25-.11-.25-.25s.11-.25.25-.25h49.54c.14,0,.25.11.25.25s-.11.25-.25.25Z"/>
        <path class="cls-4" d="m249.45,116.9h-6.7c-.14,0-.25-.11-.25-.25s.11-.25.25-.25h6.7c.14,0,.25.11.25.25s-.11.25-.25.25Z"/>
        <path class="cls-4" d="m299,182.34h-73.56c-.14,0-.25-.11-.25-.25s.11-.25.25-.25h73.56c.14,0,.25.11.25.25s-.11.25-.25.25Z"/>
        <path class="cls-4" d="m242.75,116.9c-.14,0-.25-.11-.25-.25v-18.25c0-.14.11-.25.25-.25s.25.11.25.25v18.25c0,.14-.11.25-.25.25Z"/>
        <path class="cls-4" d="m225.43,182.34c-.14,0-.25-.11-.25-.25v-66.36c0-.14.11-.25.25-.25s.25.11.25.25v66.36c0,.14-.11.25-.25.25Z"/>
        <path class="cls-4" d="m249.45,165.02c-.14,0-.25-.11-.25-.25v-48.12c0-.14.11-.25.25-.25s.25.11.25.25v48.12c0,.14-.11.25-.25.25Z"/>
        <path class="cls-4" d="m225.43,115.98h-11.55c-.14,0-.25-.11-.25-.25s.11-.25.25-.25h11.55c.14,0,.25.11.25.25s-.11.25-.25.25Z"/>
        <path class="cls-4" d="m213.88,15.61c-.06,0-.13-.02-.18-.07-.1-.1-.1-.26,0-.35L228.75.07c.1-.1.26-.1.35,0s.1.26,0,.35l-15.04,15.11s-.11.07-.18.07Z"/>
        <path class="cls-4" d="m213.88,36c-.06,0-.13-.02-.18-.07-.1-.1-.1-.26,0-.35l28.87-28.87c.1-.1.26-.1.35,0s.1.26,0,.35l-28.87,28.87s-.11.07-.18.07Z"/>
        <path class="cls-4" d="m213.88,56.39c-.06,0-.13-.02-.18-.07-.1-.1-.1-.26,0-.35l28.87-28.87c.1-.1.26-.1.35,0s.1.26,0,.35l-28.87,28.87s-.11.07-.18.07Z"/>
        <path class="cls-4" d="m213.88,76.84c-.06,0-.13-.02-.18-.07-.1-.1-.1-.26,0-.35l28.87-28.87c.1-.1.26-.1.35,0s.1.26,0,.35l-28.87,28.87s-.11.07-.18.07Z"/>
        <path class="cls-4" d="m213.88,97.23c-.06,0-.13-.02-.18-.07-.1-.1-.1-.26,0-.35l28.87-28.87c.1-.1.26-.1.35,0s.1.26,0,.35l-28.87,28.87s-.11.07-.18.07Z"/>
        <path class="cls-4" d="m232.84,98.66c-.06,0-.13-.02-.18-.07-.1-.1-.1-.26,0-.35l9.91-9.91c.1-.1.26-.1.35,0s.1.26,0,.35l-9.91,9.91s-.11.07-.18.07Z"/>
        <path class="cls-4" d="m242.75,98.66h-28.87c-.14,0-.25-.11-.25-.25s.11-.25.25-.25h28.87c.14,0,.25.11.25.25s-.11.25-.25.25Z"/>
        <path class="cls-4" d="m14.72,900.08c-.14,0-.25-.11-.25-.25V115.73c0-.14.11-.25.25-.25s.25.11.25.25v784.11c0,.14-.11.25-.25.25Z"/>
        <path class="cls-4" d="m.25,914.56c-.14,0-.25-.11-.25-.25V115.73c0-.14.11-.25.25-.25s.25.11.25.25v798.58c0,.14-.11.25-.25.25Z"/>
        <path class="cls-4" d="m213.88,29.37H.25c-.14,0-.25-.11-.25-.25s.11-.25.25-.25h213.63c.14,0,.25.11.25.25s-.11.25-.25.25Z"/>
        <path class="cls-4" d="m235.05,601.84c-.14,0-.25-.11-.25-.25v-9.62c0-.14.11-.25.25-.25s.25.11.25.25v9.62c0,.14-.11.25-.25.25Z"/>
        <path class="cls-4" d="m525.1,823.1c-.14,0-.25-.11-.25-.25V182.09c0-.14.11-.25.25-.25s.25.11.25.25v640.76c0,.14-.11.25-.25.25Z"/>
        <path class="cls-4" d="m510.7,823.1c-.14,0-.25-.11-.25-.25V182.09c0-.14.11-.25.25-.25s.25.11.25.25v640.76c0,.14-.11.25-.25.25Z"/>
        <path class="cls-4" d="m509.21,165.02c-.14,0-.25-.11-.25-.25v-49.04c0-.14.11-.25.25-.25s.25.11.25.25v49.04c0,.14-.11.25-.25.25Z"/>
        <path class="cls-4" d="m526.53,182.34c-.14,0-.25-.11-.25-.25v-66.36c0-.14.11-.25.25-.25s.25.11.25.25v66.36c0,.14-.11.25-.25.25Z"/>
        <path class="cls-4" d="m242.75,98.66c-.14,0-.25-.11-.25-.25V.5h-28.37v97.91c0,.14-.11.25-.25.25s-.25-.11-.25-.25V.25C213.63.11,213.75,0,213.88,0h28.87c.14,0,.25.11.25.25v98.16c0,.14-.11.25-.25.25Z"/>
        <path class="cls-4" d="m392.59,29.37h-149.84c-.14,0-.25-.11-.25-.25s.11-.25.25-.25h149.84c.14,0,.25.11.25.25s-.11.25-.25.25Z"/>
        <path class="cls-4" d="m392.59,43.77h-149.84c-.14,0-.25-.11-.25-.25s.11-.25.25-.25h149.84c.14,0,.25.11.25.25s-.11.25-.25.25Z"/>
        <path class="cls-4" d="m392.59,34.15h-149.84c-.14,0-.25-.11-.25-.25s.11-.25.25-.25h149.84c.14,0,.25.11.25.25s-.11.25-.25.25Z"/>
        <path class="cls-4" d="m458.03,43.77h-2.92c-.14,0-.25-.11-.25-.25v-9.62c0-.14.11-.25.25-.25h2.92c.14,0,.25.11.25.25v9.62c0,.14-.11.25-.25.25Zm-2.67-.5h2.42v-9.12h-2.42v9.12Z"/>
        <path class="cls-4" d="m445.48,43.77h-2.85c-.14,0-.25-.11-.25-.25v-9.62c0-.14.11-.25.25-.25h2.85c.14,0,.25.11.25.25v9.62c0,.14-.11.25-.25.25Zm-2.6-.5h2.35v-9.12h-2.35v9.12Z"/>
        <path class="cls-4" d="m433.01,43.77h-2.92c-.14,0-.25-.11-.25-.25v-9.62c0-.14.11-.25.25-.25h2.92c.14,0,.25.11.25.25v9.62c0,.14-.11.25-.25.25Zm-2.67-.5h2.42v-9.12h-2.42v9.12Z"/>
        <path class="cls-4" d="m420.46,43.77h-2.85c-.14,0-.25-.11-.25-.25v-9.62c0-.14.11-.25.25-.25h2.85c.14,0,.25.11.25.25v9.62c0,.14-.11.25-.25.25Zm-2.6-.5h2.35v-9.12h-2.35v9.12Z"/>
        <path class="cls-4" d="m407.99,43.77h-2.92c-.14,0-.25-.11-.25-.25v-9.62c0-.14.11-.25.25-.25h2.92c.14,0,.25.11.25.25v9.62c0,.14-.11.25-.25.25Zm-2.67-.5h2.42v-9.12h-2.42v9.12Z"/>
        <path class="cls-4" d="m470.5,43.77h-2.85c-.14,0-.25-.11-.25-.25v-9.62c0-.14.11-.25.25-.25h2.85c.14,0,.25.11.25.25v9.62c0,.14-.11.25-.25.25Zm-2.6-.5h2.35v-9.12h-2.35v9.12Z"/>
        <path class="cls-4" d="m395.44,43.77h-2.85c-.14,0-.25-.11-.25-.25v-9.62c0-.14.11-.25.25-.25h2.85c.14,0,.25.11.25.25v9.62c0,.14-.11.25-.25.25Zm-2.6-.5h2.35v-9.12h-2.35v9.12Z"/>
        <path class="cls-4" d="m392.59,43.77c-.14,0-.25-.11-.25-.25v-9.62c0-.14.11-.25.25-.25s.25.11.25.25v9.62c0,.14-.11.25-.25.25Z"/>
        <path class="cls-4" d="m392.59,34.15c-.14,0-.25-.11-.25-.25v-4.78c0-.14.11-.25.25-.25s.25.11.25.25v4.78c0,.14-.11.25-.25.25Z"/>
        <path class="cls-4" d="m478.41,43.77h-85.82c-.14,0-.25-.11-.25-.25s.11-.25.25-.25h85.82c.14,0,.25.11.25.25s-.11.25-.25.25Z"/>
        <path class="cls-4" d="m478.41,29.37h-85.82c-.14,0-.25-.11-.25-.25s.11-.25.25-.25h85.82c.14,0,.25.11.25.25s-.11.25-.25.25Z"/>
        <path class="cls-4" d="m468.79,822.85l105.85,105.85h-105.85v-105.85Zm105.85,0h-105.85l105.85,105.85v-105.85Z"/>
        <path class="cls-1" d="m468.79,822.85l105.85,105.85h-105.85v-105.85Zm105.85,0h-105.85l105.85,105.85v-105.85Z"/>
        <path class="cls-4" d="m510.7,182.09l14.4,173.22h-14.4v-173.22Zm14.4,0h-14.4l14.4,173.22v-173.22Z"/>
        <path class="cls-1" d="m510.7,182.09l14.4,173.22h-14.4v-173.22Zm14.4,0h-14.4l14.4,173.22v-173.22Z"/>
        <path class="cls-4" d="m510.7,355.31l14.4,467.54h-14.4v-467.54Zm14.4,0h-14.4l14.4,467.54v-467.54Z"/>
        <path class="cls-1" d="m510.7,355.31l14.4,467.54h-14.4v-467.54Zm14.4,0h-14.4l14.4,467.54v-467.54Z"/>
        <path class="cls-4" d="m478.41,9.87l105.85,105.85h-105.85V9.87Zm105.85,0h-105.85l105.85,105.85V9.87Z"/>
        <path class="cls-1" d="m478.41,9.87l105.85,105.85h-105.85V9.87Zm105.85,0h-105.85l105.85,105.85V9.87Z"/>
        <path class="cls-4" d="m110.88,779.83h-4.78c-.14,0-.25-.11-.25-.25s.11-.25.25-.25h4.78c.14,0,.25.11.25.25s-.11.25-.25.25Z"/>
        <path class="cls-4" d="m225.43,457.49H14.72c-.14,0-.25-.11-.25-.25s.11-.25.25-.25h210.71c.14,0,.25.11.25.25s-.11.25-.25.25Z"/>
        <path class="cls-4" d="m225.43,447.87H14.72c-.14,0-.25-.11-.25-.25s.11-.25.25-.25h210.71c.14,0,.25.11.25.25s-.11.25-.25.25Z"/>
        <path class="cls-4" d="m235.05,390.13h-9.62c-.14,0-.25-.11-.25-.25s.11-.25.25-.25h9.62c.14,0,.25.11.25.25s-.11.25-.25.25Z"/>
        <path class="cls-4" d="m235.05,303.59h-9.62c-.14,0-.25-.11-.25-.25v-121.25c0-.14.11-.25.25-.25s.25.11.25.25v121h9.37c.14,0,.25.11.25.25s-.11.25-.25.25Z"/>
        <path class="cls-4" d="m225.43,447.87c-.14,0-.25-.11-.25-.25v-57.74c0-.14.11-.25.25-.25s.25.11.25.25v57.74c0,.14-.11.25-.25.25Z"/>
        <path class="cls-4" d="m225.43,649.95c-.14,0-.25-.11-.25-.25v-192.46c0-.14.11-.25.25-.25s.25.11.25.25v192.46c0,.14-.11.25-.25.25Z"/>
        <path class="cls-4" d="m235.05,303.59c-.14,0-.25-.11-.25-.25v-121.25c0-.14.11-.25.25-.25s.25.11.25.25v121.25c0,.14-.11.25-.25.25Z"/>
        <path class="cls-4" d="m235.05,649.95c-.14,0-.25-.11-.25-.25v-259.82c0-.14.11-.25.25-.25s.25.11.25.25v259.82c0,.14-.11.25-.25.25Z"/>
        <path class="cls-4" d="m235.05,390.13c-.14,0-.25-.11-.25-.25v-5.52h-9.12v5.52c0,.14-.11.25-.25.25s-.25-.11-.25-.25v-5.77c0-.14.11-.25.25-.25h9.62c.14,0,.25.11.25.25v5.77c0,.14-.11.25-.25.25Z"/>
        <path class="cls-4" d="m235.05,309.37h-9.62c-.14,0-.25-.11-.25-.25v-5.77c0-.14.11-.25.25-.25s.25.11.25.25v5.52h9.12v-5.52c0-.14.11-.25.25-.25s.25.11.25.25v5.77c0,.14-.11.25-.25.25Z"/>
        <path class="cls-4" d="m225.43,384.36h-75.06c-.14,0-.25-.11-.25-.25v-2.85c0-.14.11-.25.25-.25h75.06c.14,0,.25.11.25.25v2.85c0,.14-.11.25-.25.25Zm-74.81-.5h74.56v-2.35h-74.56v2.35Z"/>
        <path class="cls-4" d="m150.37,384.32c-.14,0-.25-.11-.25-.25,0-41.51,33.77-75.27,75.27-75.27.14,0,.25.11.25.25s-.11.25-.25.25c-41.23,0-74.77,33.54-74.77,74.77,0,.14-.11.25-.25.25Z"/>
        <path class="cls-4" d="m101.26,746.19H14.72c-.14,0-.25-.11-.25-.25s.11-.25.25-.25h86.54c.14,0,.25.11.25.25s-.11.25-.25.25Z"/>
        <path class="cls-4" d="m101.26,736.56H14.72c-.14,0-.25-.11-.25-.25s.11-.25.25-.25h86.54c.14,0,.25.11.25.25s-.11.25-.25.25Z"/>
        <path class="cls-4" d="m239.83,746.19H110.88c-.14,0-.25-.11-.25-.25s.11-.25.25-.25h128.95c.14,0,.25.11.25.25s-.11.25-.25.25Z"/>
        <path class="cls-4" d="m101.26,770.21H14.72c-.14,0-.25-.11-.25-.25s.11-.25.25-.25h86.54c.14,0,.25.11.25.25s-.11.25-.25.25Z"/>
        <path class="cls-4" d="m110.88,779.83H14.72c-.14,0-.25-.11-.25-.25s.11-.25.25-.25h96.16c.14,0,.25.11.25.25s-.11.25-.25.25Z"/>
        <path class="cls-4" d="m239.83,736.56H101.26c-.14,0-.25-.11-.25-.25s.11-.25.25-.25h138.57c.14,0,.25.11.25.25s-.11.25-.25.25Z"/>
        <path class="cls-4" d="m235.05,649.95h-9.62c-.14,0-.25-.11-.25-.25s.11-.25.25-.25h9.62c.14,0,.25.11.25.25s-.11.25-.25.25Z"/>
        <path class="cls-4" d="m110.88,779.83c-.14,0-.25-.11-.25-.25v-33.65c0-.14.11-.25.25-.25s.25.11.25.25v33.65c0,.14-.11.25-.25.25Z"/>
        <path class="cls-4" d="m101.26,770.21c-.14,0-.25-.11-.25-.25v-33.65c0-.14.11-.25.25-.25s.25.11.25.25v33.65c0,.14-.11.25-.25.25Z"/>
        <path class="cls-4" d="m239.83,736.31l86.61,9.62h-86.61v-9.62Zm86.61,0h-86.61l86.61,9.62v-9.62Z"/>
        <path class="cls-1" d="m239.83,736.31l86.61,9.62h-86.61v-9.62Zm86.61,0h-86.61l86.61,9.62v-9.62Z"/>
        <path class="cls-4" d="m316.67,745.94l9.69,57.67h-9.69v-57.67Zm9.77,0h-9.77l9.69,57.67.07-57.67Z"/>
        <path class="cls-1" d="m316.67,745.94l9.69,57.67h-9.69v-57.67Zm9.77,0h-9.77l9.69,57.67.07-57.67Z"/>
        <path class="cls-4" d="m316.67,822.85h9.69v.07l-9.69-.07Zm0-19.25v19.25h9.69l-9.69-19.25Z"/>
        <path class="cls-1" d="m316.67,822.85h9.69v.07l-9.69-.07Zm0-19.25v19.25h9.69l-9.69-19.25Z"/>
        <polygon class="cls-4" points="316.67 803.6 326.37 803.6 326.37 822.85 316.67 803.6"/>
        <polygon class="cls-1" points="316.67 803.6 326.37 803.6 326.37 822.85 316.67 803.6"/>
        <path class="cls-4" d="m239.83,746.19c-.14,0-.25-.11-.25-.25v-9.62c0-.14.11-.25.25-.25s.25.11.25.25v9.62c0,.14-.11.25-.25.25Z"/>
        <path class="cls-4" d="m14.72,770.21c-.11,0-.21-.07-.24-.18-.04-.13.04-.27.17-.31l86.54-24.02c.13-.03.27.04.31.17.04.13-.04.27-.17.31l-86.54,24.02s-.04,0-.07,0Z"/>
        <path class="cls-4" d="m101.26,770.21s-.04,0-.07,0l-86.54-24.02c-.13-.04-.21-.17-.17-.31.04-.13.18-.21.31-.17l86.54,24.02c.13.04.21.17.17.31-.03.11-.13.18-.24.18Z"/>
        <path class="cls-4" d="m235.05,736.56c-.14,0-.25-.11-.25-.25v-5.52h-9.12v5.52c0,.14-.11.25-.25.25s-.25-.11-.25-.25v-5.77c0-.14.11-.25.25-.25h9.62c.14,0,.25.11.25.25v5.77c0,.14-.11.25-.25.25Z"/>
        <path class="cls-4" d="m235.05,655.73h-9.62c-.14,0-.25-.11-.25-.25v-5.77c0-.14.11-.25.25-.25s.25.11.25.25v5.52h9.12v-5.52c0-.14.11-.25.25-.25s.25.11.25.25v5.77c0,.14-.11.25-.25.25Z"/>
        <path class="cls-4" d="m225.43,730.79h-75.06c-.14,0-.25-.11-.25-.25v-2.92c0-.14.11-.25.25-.25h75.06c.14,0,.25.11.25.25v2.92c0,.14-.11.25-.25.25Zm-74.81-.5h74.56v-2.42h-74.56v2.42Z"/>
        <path class="cls-4" d="m150.37,730.75c-.14,0-.25-.11-.25-.25,0-41.51,33.77-75.27,75.27-75.27.14,0,.25.11.25.25s-.11.25-.25.25c-41.23,0-74.77,33.54-74.77,74.77,0,.14-.11.25-.25.25Z"/>
        <path class="cls-4" d="m476.99,88.25h-86.54c-.14,0-.25-.11-.25-.25v-42.34c0-.14.11-.25.25-.25h86.54c.14,0,.25.11.25.25v42.34c0,.14-.11.25-.25.25Zm-86.29-.5h86.04v-41.84h-86.04v41.84Z"/>
        <path class="cls-4" d="m390.45,88.25c-.09,0-.18-.05-.22-.14-.06-.12,0-.27.11-.33l86.54-42.34c.12-.06.28,0,.33.11.06.12,0,.27-.11.33l-86.54,42.34s-.07.03-.11.03Z"/>
        <path class="cls-4" d="m411.69,75.13c-.11,0-.21-.07-.24-.18l-5.61-18.46-5.61,18.46c-.04.13-.18.21-.31.17-.13-.04-.21-.18-.17-.31l5.84-19.25c.06-.21.41-.21.48,0l5.85,19.25c.04.13-.03.27-.17.31-.02,0-.05.01-.07.01Z"/>
        <path class="cls-4" d="m409.48,68.72h-7.34c-.14,0-.25-.11-.25-.25s.11-.25.25-.25h7.34c.14,0,.25.11.25.25s-.11.25-.25.25Z"/>
        <path class="cls-4" d="m463.09,84.97h-2.99s-.09-.01-.13-.04l-1.43-.86s-.05-.03-.07-.06l-1.5-1.85s-.03-.04-.04-.07l-.71-1.85-.72-2.73s0-.04,0-.06v-4.63s0-.04,0-.06l.71-2.71.72-1.88s.02-.05.04-.07l1.5-1.85s.04-.04.06-.05l1.43-.93s.09-.04.14-.04h2.99s.1.01.14.04l1.43.93s.04.03.06.05l1.5,1.85s.03.04.04.07l.71,1.85c.05.13-.01.27-.14.32-.13.05-.27-.01-.32-.14l-.7-1.82-1.45-1.79-1.33-.86h-2.85l-1.33.86-1.45,1.79-.7,1.82-.7,2.65v4.57l.71,2.68.69,1.79,1.44,1.79,1.33.8h2.86l1.33-.8,1.45-1.79.7-1.82c.05-.13.2-.19.32-.14.13.05.19.19.14.32l-.71,1.85s-.02.05-.04.07l-1.5,1.85s-.04.04-.07.06l-1.43.86s-.08.04-.13.04Z"/>
        <path class="cls-4" d="m303.27,130.45c-.14,0-.25-.11-.25-.25v-48.83c0-.14.11-.25.25-.25s.25.11.25.25v48.83c0,.14-.11.25-.25.25Z"/>
        <path class="cls-4" d="m307.41,117.47c-.05,0-.1-.02-.15-.05l-.72-.52h-.77c-.09,0-.18-.05-.22-.14-.04-.08-.03-.19.02-.26l.43-.57c.08-.11.24-.13.35-.05.11.08.13.24.05.35l-.13.17h.36c.05,0,.1.02.15.05l.64.47,1.45-1.01,1.59-2.9.42-4.01-.43-4.08-1.21-4.67-2.05-4.09c-.03-.06-.04-.13-.01-.2l1.28-3.49,1.2-5.88.73-3.83h-7.11c-.14,0-.25-.11-.25-.25s.11-.25.25-.25h7.41c.07,0,.15.03.19.09.05.06.07.13.05.21l-.78,4.13-1.21,5.92-1.26,3.43,2.02,4.04,1.23,4.75.43,4.17-.43,4.12s-.01.06-.03.09l-1.64,2.99s-.04.06-.08.08l-1.64,1.14s-.09.04-.14.04Z"/>
        <path class="cls-4" d="m334.21,96.3h-16.11c-.14,0-.25-.11-.25-.25v-14.68c0-.14.11-.25.25-.25h16.11c.14,0,.25.11.25.25v14.68c0,.14-.11.25-.25.25Zm-15.86-.5h15.61v-14.18h-15.61v14.18Z"/>
        <path class="cls-4" d="m334.21,89.25h-16.11c-.14,0-.25-.11-.25-.25s.11-.25.25-.25h16.11c.14,0,.25.11.25.25s-.11.25-.25.25Z"/>
        <path class="cls-4" d="m337.49,102.79h-23.88c-.14,0-.25-.11-.25-.25s.11-.25.25-.25h23.88c.14,0,.25.11.25.25s-.11.25-.25.25Z"/>
        <path class="cls-4" d="m314.04,117.47c-.06,0-.11-.02-.16-.06-.11-.09-.12-.25-.04-.35l2.83-3.47,2.84-6.46,1.27-4.67c.04-.13.18-.21.31-.18.13.04.21.17.18.31l-1.28,4.7-2.86,6.52s-.02.04-.04.06l-2.85,3.49c-.05.06-.12.09-.19.09Z"/>
        <path class="cls-4" d="m333.35,129.24h-2.07s-.06,0-.08-.01l-1.64-.57c-.13-.05-.2-.19-.15-.32.05-.13.19-.2.32-.15l1.6.56h1.88l1.97-3.32.42-4.08v-11.49h-16.22c-.14,0-.25-.11-.25-.25s.11-.25.25-.25h16.47c.14,0,.25.11.25.25v11.76l-.43,4.16s-.02.07-.03.1l-2.07,3.49c-.04.08-.13.12-.21.12Z"/>
        <path class="cls-4" d="m313.61,128.67c-.06,0-.13-.02-.18-.07-.1-.1-.1-.26,0-.35l4.13-4.13,4.44-6.99,2.06-6.46c.04-.13.18-.21.31-.16.13.04.2.18.16.31l-2.07,6.49s-.02.04-.03.06l-4.49,7.06-4.17,4.18s-.11.07-.18.07Z"/>
        <path class="cls-4" d="m322.23,130.45c-.05,0-.11-.02-.16-.05-.11-.09-.13-.24-.04-.35l3.26-4.11,3.27-7.6,1.7-7.65c.03-.13.16-.22.3-.19.13.03.22.16.19.3l-1.71,7.7-3.29,7.67s-.02.04-.03.06l-3.28,4.13c-.05.06-.12.09-.2.09Z"/>
        <path class="cls-4" d="m384.39,85.11h-30.08c-.14,0-.25-.11-.25-.25s.11-.25.25-.25h30.08c.14,0,.25.11.25.25s-.11.25-.25.25Z"/>
        <path class="cls-4" d="m369.56,89.82c-.14,0-.25-.11-.25-.25v-8.77c0-.14.11-.25.25-.25s.25.11.25.25v8.77c0,.14-.11.25-.25.25Z"/>
        <path class="cls-4" d="m382.75,89.82h-25.52c-.14,0-.25-.11-.25-.25s.11-.25.25-.25h25.52c.14,0,.25.11.25.25s-.11.25-.25.25Z"/>
        <path class="cls-4" d="m381.9,100.44h-23.02c-.14,0-.25-.11-.25-.25v-5.92c0-.14.11-.25.25-.25h23.02c.14,0,.25.11.25.25v5.92c0,.14-.11.25-.25.25Zm-22.77-.5h22.52v-5.42h-22.52v5.42Z"/>
        <path class="cls-4" d="m385.6,111.63c-.14,0-.25-.11-.25-.25v-6.24h-30.79v6.24c0,.14-.11.25-.25.25s-.25-.11-.25-.25v-6.49c0-.14.11-.25.25-.25h31.29c.14,0,.25.11.25.25v6.49c0,.14-.11.25-.25.25Z"/>
        <path class="cls-4" d="m381.9,109.85h-23.45c-.14,0-.25-.11-.25-.25s.11-.25.25-.25h23.45c.14,0,.25.11.25.25s-.11.25-.25.25Z"/>
        <path class="cls-4" d="m362.15,118.04s-.09-.01-.14-.04c-.12-.08-.15-.23-.07-.35l5.35-8.2c.08-.12.23-.15.35-.07.12.08.15.23.07.35l-5.35,8.2c-.05.07-.13.11-.21.11Z"/>
        <path class="cls-4" d="m359.73,118.69c-.13,0-.24-.1-.25-.23,0-.14.1-.26.23-.26l19.75-1.21c.16-.01.26.1.27.23,0,.14-.1.26-.23.26l-19.75,1.21s-.01,0-.02,0Z"/>
        <path class="cls-4" d="m381.11,120.4c-.08,0-.15-.03-.2-.1l-.86-1.14-1.23-2.39-1.2-1.76c-.08-.11-.05-.27.07-.35.11-.08.27-.05.35.07l1.21,1.78,1.23,2.38.83,1.1c.08.11.06.27-.05.35-.04.03-.1.05-.15.05Z"/>
        <path class="cls-4" d="m382.32,124.53h-24.66c-.14,0-.25-.11-.25-.25s.11-.25.25-.25h24.66c.14,0,.25.11.25.25s-.11.25-.25.25Z"/>
        <path class="cls-4" d="m369.56,130.45c-.14,0-.25-.11-.25-.25v-11.76c0-.14.11-.25.25-.25s.25.11.25.25v11.76c0,.14-.11.25-.25.25Z"/>
        <path class="cls-4" d="m385.17,130.45h-30.87c-.14,0-.25-.11-.25-.25s.11-.25.25-.25h30.87c.14,0,.25.11.25.25s-.11.25-.25.25Z"/>
      </g>
      <g>
        <path class="cls-4" d="m364.44,303.6c0,2.39-.67,4.49-2.01,6.32-2.2,3.02-5.84,4.53-10.91,4.53h-18.07v-1.12c2.31-.15,3.9-.65,4.76-1.51.82-.86,1.23-2.44,1.23-4.76v-27.3c0-2.24-.43-3.69-1.29-4.36-.71-.52-2.27-.86-4.7-1.01v-1.12h15.05c9.44,0,14.15,3.43,14.15,10.29,0,4.62-2.7,7.68-8.11,9.17l.95.22c5.97,1.42,8.95,4.96,8.95,10.63Zm-5.43-19.58c0-5.93-4.03-8.89-12.08-8.89-1.57,0-2.43.02-2.57.06-.67.07-1.08.21-1.23.39-.15.19-.22.58-.22,1.18v14.49l6.32-.06c2.54-.04,4.38-.24,5.54-.61,2.83-1.04,4.25-3.23,4.25-6.55Zm1.12,19.36c0-4.36-2.35-7.35-7.05-8.95-1.75-.6-5.15-.89-10.18-.89v16.11c0,1.3.6,2.18,1.79,2.63.71.22,1.88.34,3.53.34,7.94,0,11.91-3.08,11.91-9.23Z"/>
        <path class="cls-4" d="m391.12,271.61l-1.85,4.48c-.08.26-.37.39-.89.39h-10.18l-3.02,7.16c2.95.71,5.07,1.4,6.38,2.07,2.13,1.01,3.97,2.5,5.54,4.48,2.2,2.83,3.28,6.27,3.24,10.29-.11,4.14-1.49,7.63-4.14,10.46-2.69,2.83-6.14,4.25-10.35,4.25-3.58,0-5.72-.89-6.43-2.69-.04-.07-.06-.2-.06-.39,0-1.05.5-1.57,1.51-1.57,1.19,0,2.63.37,4.31,1.12,1.68.75,3.02,1.12,4.03,1.12,2.16-.04,4.01-.84,5.54-2.41,1.83-1.94,2.78-4.74,2.85-8.39.07-4.88-1.88-8.52-5.87-10.91-2.87-1.72-6.42-2.63-10.63-2.74-.07,0-.07-.11,0-.33l5.87-14.82h10.24c.97,0,1.86-.48,2.68-1.45l1.23-.11Z"/>
      </g>
      <g>
        <path class="cls-4" d="m390.09,340.38h-53.96c-.09,0-.17-.05-.22-.12l-27.02-46.76c-.04-.08-.04-.17,0-.25l27.02-46.76c.04-.08.13-.12.22-.12h53.96c.09,0,.17.05.22.12l26.94,46.76c.04.08.04.17,0,.25l-26.94,46.76c-.04.08-.13.12-.22.12Zm-53.82-.5h53.67l26.8-46.51-26.8-46.51h-53.67l-26.87,46.51,26.87,46.51Z"/>
        <path class="cls-4" d="m468.79,900.08h-26.87c-.14,0-.25-.11-.25-.25s.11-.25.25-.25h26.87c.14,0,.25.11.25.25s-.11.25-.25.25Z"/>
        <path class="cls-4" d="m468.79,914.56h-26.87c-.14,0-.25-.11-.25-.25s.11-.25.25-.25h26.87c.14,0,.25.11.25.25s-.11.25-.25.25Z"/>
        <path class="cls-4" d="m336.06,914.56c-.14,0-.25-.11-.25-.25v-14.47c0-.14.11-.25.25-.25s.25.11.25.25v14.47c0,.14-.11.25-.25.25Z"/>
        <path class="cls-4" d="m441.92,914.56c-.14,0-.25-.11-.25-.25v-14.47c0-.14.11-.25.25-.25s.25.11.25.25v14.47c0,.14-.11.25-.25.25Z"/>
        <path class="cls-4" d="m341.84,914.56h-5.77c-.14,0-.25-.11-.25-.25s.11-.25.25-.25h5.52v-11.05h-5.52c-.14,0-.25-.11-.25-.25s.11-.25.25-.25h5.77c.14,0,.25.11.25.25v11.55c0,.14-.11.25-.25.25Z"/>
        <path class="cls-4" d="m441.92,914.56h-5.77c-.14,0-.25-.11-.25-.25v-11.55c0-.14.11-.25.25-.25h5.77c.14,0,.25.11.25.25s-.11.25-.25.25h-5.52v11.05h5.52c.14,0,.25.11.25.25s-.11.25-.25.25Z"/>
        <path class="cls-4" d="m344.69,903.01h-2.85c-.14,0-.25-.11-.25-.25v-94.31c0-.14.11-.25.25-.25h2.85c.14,0,.25.11.25.25v94.31c0,.14-.11.25-.25.25Zm-2.6-.5h2.35v-93.81h-2.35v93.81Z"/>
        <path class="cls-4" d="m436.07,902.97c-.14,0-.25-.11-.25-.25,0-51.84-42.18-94.02-94.02-94.02-.14,0-.25-.11-.25-.25s.11-.25.25-.25c52.12,0,94.52,42.4,94.52,94.52,0,.14-.11.25-.25.25Z"/>
        <path class="cls-4" d="m336.06,914.56h-9.62c-.14,0-.25-.11-.25-.25v-14.47c0-.14.11-.25.25-.25h9.62c.14,0,.25.11.25.25v14.47c0,.14-.11.25-.25.25Zm-9.37-.5h9.12v-13.97h-9.12v13.97Z"/>
        <path class="cls-4" d="m59.91,115.98c-.14,0-.25-.11-.25-.25v-17.32c0-.14.11-.25.25-.25s.25.11.25.25v17.32c0,.14-.11.25-.25.25Z"/>
        <path class="cls-4" d="m213.88,98.66H59.91c-.14,0-.25-.11-.25-.25s.11-.25.25-.25h153.97c.14,0,.25.11.25.25s-.11.25-.25.25Z"/>
        <path class="cls-4" d="m213.88,115.98H59.91c-.14,0-.25-.11-.25-.25s.11-.25.25-.25h153.97c.14,0,.25.11.25.25s-.11.25-.25.25Z"/>
        <path class="cls-4" d="m65.69,115.98c-.14,0-.25-.11-.25-.25v-11.55c0-.14.11-.25.25-.25s.25.11.25.25v11.55c0,.14-.11.25-.25.25Z"/>
        <path class="cls-4" d="m208.11,115.98c-.14,0-.25-.11-.25-.25v-11.55c0-.14.11-.25.25-.25s.25.11.25.25v11.55c0,.14-.11.25-.25.25Z"/>
        <path class="cls-4" d="m140.75,108.28h-75.06c-.14,0-.25-.11-.25-.25s.11-.25.25-.25h75.06c.14,0,.25.11.25.25s-.11.25-.25.25Z"/>
        <path class="cls-4" d="m208.11,112.13h-75.06c-.14,0-.25-.11-.25-.25s.11-.25.25-.25h75.06c.14,0,.25.11.25.25s-.11.25-.25.25Z"/>
        <path class="cls-4" d="m213.88,104.43H59.91c-.14,0-.25-.11-.25-.25s.11-.25.25-.25h153.97c.14,0,.25.11.25.25s-.11.25-.25.25Z"/>
        <path class="cls-4" d="m136.9,119.83c-.14,0-.25-.11-.25-.25v-19.25c0-.14.11-.25.25-.25s.25.11.25.25v19.25c0,.14-.11.25-.25.25Z"/>
        <path class="cls-4" d="m213.88,115.98c-.14,0-.25-.11-.25-.25v-17.32c0-.14.11-.25.25-.25s.25.11.25.25v17.32c0,.14-.11.25-.25.25Z"/>
        <path class="cls-4" d="m59.91,115.98H.25c-.14,0-.25-.11-.25-.25s.11-.25.25-.25h59.66c.14,0,.25.11.25.25s-.11.25-.25.25Z"/>
        <path class="cls-4" d="m59.91,98.66H.25c-.14,0-.25-.11-.25-.25s.11-.25.25-.25h59.66c.14,0,.25.11.25.25s-.11.25-.25.25Z"/>
        <path class="cls-4" d="m110.88,900.08c-.14,0-.25-.11-.25-.25v-120.25c0-.14.11-.25.25-.25s.25.11.25.25v120.25c0,.14-.11.25-.25.25Z"/>
        <path class="cls-4" d="m106.1,900.08c-.14,0-.25-.11-.25-.25v-120.25c0-.14.11-.25.25-.25s.25.11.25.25v120.25c0,.14-.11.25-.25.25Z"/>
        <path class="cls-4" d="m316.67,803.85h-76.91c-.14,0-.25-.11-.25-.25v-57.67c0-.14.11-.25.25-.25h76.91c.14,0,.25.11.25.25v57.67c0,.14-.11.25-.25.25Zm-76.66-.5h76.41v-57.17h-76.41v57.17Z"/>
        <path class="cls-4" d="m288.07,760.89s-.05,0-.07-.01c-2.05-.62-4.18-1.01-6.32-1.15-.14,0-.24-.13-.23-.27,0-.14.15-.24.27-.23,2.17.15,4.34.54,6.43,1.17.13.04.21.18.17.31-.03.11-.13.18-.24.18Z"/>
        <path class="cls-4" d="m294.64,764.15c-.05,0-.1-.02-.15-.05-1.98-1.44-4.17-2.53-6.52-3.23-.13-.04-.21-.18-.17-.31.04-.13.18-.21.31-.17,2.4.72,4.64,1.84,6.67,3.31.11.08.14.24.05.35-.05.07-.12.1-.2.1Z"/>
        <path class="cls-4" d="m299.43,769.42c-.09,0-.17-.05-.22-.13-1.17-2.05-2.73-3.8-4.64-5.19-.11-.08-.14-.24-.05-.35.08-.11.24-.14.35-.06,1.97,1.43,3.58,3.23,4.78,5.35.07.12.03.27-.09.34-.04.02-.08.03-.12.03Z"/>
        <path class="cls-4" d="m300.92,775.02c-.14,0-.25-.11-.25-.25,0-1.93-.5-3.83-1.46-5.5-.07-.12-.03-.27.09-.34.12-.07.27-.03.34.09,1,1.75,1.52,3.74,1.52,5.75,0,.14-.11.25-.25.25Z"/>
        <path class="cls-4" d="m299.43,780.65s-.08-.01-.12-.03c-.12-.07-.16-.22-.09-.34.95-1.67,1.46-3.58,1.46-5.5,0-.14.11-.25.25-.25s.25.11.25.25c0,2.01-.53,4-1.52,5.75-.05.08-.13.13-.22.13Z"/>
        <path class="cls-4" d="m294.72,785.89c-.08,0-.15-.04-.2-.1-.08-.11-.06-.27.05-.35,1.91-1.39,3.47-3.14,4.64-5.19.07-.12.22-.16.34-.09.12.07.16.22.09.34-1.2,2.12-2.81,3.91-4.78,5.35-.04.03-.1.05-.15.05Z"/>
        <path class="cls-4" d="m288.05,789.16c-.11,0-.21-.07-.24-.18-.04-.13.04-.27.17-.31,2.34-.71,4.54-1.79,6.52-3.23.11-.08.27-.06.35.06.08.11.06.27-.05.35-2.03,1.47-4.27,2.59-6.67,3.31-.02,0-.05.01-.07.01Z"/>
        <path class="cls-4" d="m279.71,790.38c-.14,0-.25-.11-.25-.25s.11-.25.25-.25c2.81,0,5.6-.41,8.29-1.22.14-.04.27.04.31.17.04.13-.04.27-.17.31-2.74.82-5.57,1.24-8.43,1.24Z"/>
        <path class="cls-4" d="m279.71,790.38c-2.86,0-5.69-.42-8.43-1.24-.13-.04-.21-.18-.17-.31.04-.13.18-.21.31-.17,2.69.81,5.48,1.22,8.29,1.22.14,0,.25.11.25.25s-.11.25-.25.25Z"/>
        <path class="cls-4" d="m271.37,789.16s-.05,0-.07-.01c-2.4-.72-4.64-1.84-6.67-3.31-.11-.08-.14-.24-.05-.35.08-.11.24-.14.35-.06,1.98,1.44,4.17,2.53,6.52,3.23.13.04.21.18.17.31-.03.11-.13.18-.24.18Z"/>
        <path class="cls-4" d="m264.78,785.89c-.05,0-.1-.02-.15-.05-1.97-1.43-3.58-3.23-4.78-5.35-.07-.12-.03-.27.09-.34.12-.07.27-.03.34.09,1.17,2.05,2.73,3.8,4.64,5.19.11.08.14.24.05.35-.05.07-.12.1-.2.1Z"/>
        <path class="cls-4" d="m260.07,780.65c-.09,0-.17-.05-.22-.13-1-1.75-1.52-3.74-1.52-5.75,0-.14.11-.25.25-.25s.25.11.25.25c0,1.93.5,3.83,1.46,5.5.07.12.03.27-.09.34-.04.02-.08.03-.12.03Z"/>
        <path class="cls-4" d="m258.58,775.02c-.14,0-.25-.11-.25-.25,0-2.01.53-4,1.52-5.75.07-.12.22-.16.34-.09.12.07.16.22.09.34-.95,1.67-1.46,3.58-1.46,5.5,0,.14-.11.25-.25.25Z"/>
        <path class="cls-4" d="m260.06,769.42s-.08-.01-.12-.03c-.12-.07-.16-.22-.09-.34,1.21-2.12,2.81-3.92,4.78-5.35.11-.08.27-.06.35.06.08.11.06.27-.05.35-1.91,1.39-3.47,3.14-4.64,5.19-.05.08-.13.13-.22.13Z"/>
        <path class="cls-4" d="m264.78,764.15c-.08,0-.15-.04-.2-.1-.08-.11-.06-.27.05-.35,2.03-1.47,4.27-2.59,6.67-3.31.14-.04.27.04.31.17.04.13-.04.27-.17.31-2.34.71-4.54,1.79-6.52,3.23-.04.03-.1.05-.15.05Z"/>
        <path class="cls-4" d="m271.35,760.89c-.11,0-.21-.07-.24-.18-.04-.13.04-.27.17-.31,2.09-.63,4.25-1.02,6.43-1.17.15,0,.26.09.27.23,0,.14-.09.26-.23.27-2.14.15-4.26.53-6.32,1.15-.02,0-.05.01-.07.01Z"/>
        <path class="cls-4" d="m286.95,754.38h-14.4c-.14,0-.25-.11-.25-.25s.11-.25.25-.25h14.4c.14,0,.25.11.25.25s-.11.25-.25.25Z"/>
        <path class="cls-4" d="m278.18,765.08c-.13,0-.24-.1-.25-.23l-.86-10.69c-.01-.14.09-.26.23-.27.13,0,.26.09.27.23l.86,10.69c.01.14-.09.26-.23.27,0,0-.01,0-.02,0Z"/>
        <path class="cls-4" d="m281.32,765.08s-.01,0-.02,0c-.14-.01-.24-.13-.23-.27l.86-10.69c.01-.14.13-.24.27-.23.14.01.24.13.23.27l-.86,10.69c-.01.13-.12.23-.25.23Z"/>
        <path class="cls-4" d="m286.95,759.16c-.14,0-.25-.11-.25-.25v-4.78c0-.14.11-.25.25-.25s.25.11.25.25v4.78c0,.14-.11.25-.25.25Z"/>
        <path class="cls-4" d="m272.55,759.16c-.14,0-.25-.11-.25-.25v-4.78c0-.14.11-.25.25-.25s.25.11.25.25v4.78c0,.14-.11.25-.25.25Z"/>
        <path class="cls-4" d="m286.95,759.16h-5.13c-.14,0-.25-.11-.25-.25s.11-.25.25-.25h5.13c.14,0,.25.11.25.25s-.11.25-.25.25Z"/>
        <path class="cls-4" d="m277.75,759.16h-5.2c-.14,0-.25-.11-.25-.25s.11-.25.25-.25h5.2c.14,0,.25.11.25.25s-.11.25-.25.25Z"/>
        <path class="cls-4" d="m284.6,759.16c-.14,0-.25-.11-.25-.25v-4.78c0-.14.11-.25.25-.25s.25.11.25.25v4.78c0,.14-.11.25-.25.25Z"/>
        <path class="cls-4" d="m274.97,759.16c-.14,0-.25-.11-.25-.25v-4.78c0-.14.11-.25.25-.25s.25.11.25.25v4.78c0,.14-.11.25-.25.25Z"/>
        <path class="cls-4" d="m286.95,756.81h-4.78c-.14,0-.25-.11-.25-.25s.11-.25.25-.25h4.78c.14,0,.25.11.25.25s-.11.25-.25.25Z"/>
        <path class="cls-4" d="m284.56,759.16c-1.45,0-2.64-1.18-2.64-2.64s1.18-2.64,2.64-2.64,2.64,1.18,2.64,2.64-1.18,2.64-2.64,2.64Zm0-4.78c-1.18,0-2.14.96-2.14,2.14s.96,2.14,2.14,2.14,2.14-.96,2.14-2.14-.96-2.14-2.14-2.14Z"/>
        <path class="cls-4" d="m274.94,759.16c-1.45,0-2.64-1.18-2.64-2.64s1.18-2.64,2.64-2.64,2.64,1.18,2.64,2.64-1.18,2.64-2.64,2.64Zm0-4.78c-1.18,0-2.14.96-2.14,2.14s.96,2.14,2.14,2.14,2.14-.96,2.14-2.14-.96-2.14-2.14-2.14Z"/>
        <path class="cls-4" d="m277.33,756.81h-4.78c-.14,0-.25-.11-.25-.25s.11-.25.25-.25h4.78c.14,0,.25.11.25.25s-.11.25-.25.25Z"/>
        <path class="cls-4" d="m286.31,758.45c-.06,0-.13-.02-.17-.07l-3.42-3.35c-.1-.1-.1-.25,0-.35.1-.1.25-.1.35,0l3.42,3.35c.1.1.1.25,0,.35-.05.05-.11.08-.18.08Z"/>
        <path class="cls-4" d="m282.88,758.45c-.06,0-.13-.02-.18-.08-.1-.1-.09-.26,0-.35l3.42-3.35c.1-.1.26-.1.35,0,.1.1.09.26,0,.35l-3.42,3.35s-.11.07-.17.07Z"/>
        <path class="cls-4" d="m276.68,758.45c-.06,0-.13-.02-.17-.07l-3.42-3.35c-.1-.1-.1-.25,0-.35.1-.1.25-.1.35,0l3.42,3.35c.1.1.1.25,0,.35-.05.05-.11.08-.18.08Z"/>
        <path class="cls-4" d="m273.26,758.45c-.06,0-.13-.02-.18-.08-.1-.1-.09-.26,0-.35l3.42-3.35c.1-.1.26-.1.35,0,.1.1.09.26,0,.35l-3.42,3.35s-.11.07-.17.07Z"/>
        <path class="cls-4" d="m279.71,766.57c-.98,0-1.78-.8-1.78-1.78,0-.14.11-.25.25-.25s.25.11.25.25c0,.71.58,1.28,1.28,1.28s1.28-.58,1.28-1.28c0-.14.11-.25.25-.25s.25.11.25.25c0,.98-.8,1.78-1.78,1.78Z"/>
        <path class="cls-4" d="m279.64,757.73c-.67,0-1.21-.54-1.21-1.21s.54-1.21,1.21-1.21,1.21.54,1.21,1.21-.54,1.21-1.21,1.21Zm0-1.92c-.39,0-.71.32-.71.71s.32.71.71.71.71-.32.71-.71-.32-.71-.71-.71Z"/>
        <path class="cls-4" d="m279.71,769.71c-1.11,0-2.11-.71-2.49-1.76-.37-1.05-.04-2.23.82-2.93.11-.09.26-.07.35.04.09.11.07.26-.04.35-.7.57-.97,1.52-.67,2.37.3.85,1.11,1.42,2.02,1.42s1.71-.57,2.02-1.42c.3-.85.03-1.81-.67-2.37-.11-.09-.12-.24-.04-.35.09-.11.25-.12.35-.04.87.7,1.2,1.88.82,2.93s-1.37,1.76-2.49,1.76Z"/>
        <path class="cls-4" d="m279.71,770.71c-1.66,0-3.11-1.12-3.52-2.73-.41-1.61.32-3.29,1.77-4.09.12-.07.27-.02.34.1.07.12.02.27-.1.34-1.26.69-1.88,2.14-1.53,3.53.36,1.39,1.61,2.36,3.04,2.36s2.68-.97,3.04-2.36c.36-1.39-.27-2.84-1.53-3.53-.12-.07-.17-.22-.1-.34.07-.12.22-.17.34-.1,1.46.8,2.18,2.48,1.77,4.09-.41,1.61-1.86,2.73-3.52,2.73Z"/>
        <path class="cls-4" d="m255.51,767.36c-.11,0-.21-.08-.24-.19-.03-.13.05-.27.18-.3l7.77-1.92c.14-.03.27.05.3.18.03.13-.05.27-.18.3l-7.77,1.92s-.04,0-.06,0Z"/>
        <path class="cls-4" d="m304.06,767.36s-.04,0-.06,0l-7.77-1.92c-.13-.03-.21-.17-.18-.3.03-.13.17-.21.3-.18l7.77,1.92c.13.03.21.17.18.3-.03.11-.13.19-.24.19Z"/>
        <path class="cls-4" d="m269.68,791.94s-.05,0-.08-.01c-2.96-1.01-5.68-2.52-8.09-4.5-.11-.09-.12-.25-.04-.35.09-.11.25-.12.35-.03,2.37,1.94,5.04,3.43,7.93,4.42.13.04.2.19.16.32-.04.1-.13.17-.24.17Z"/>
        <path class="cls-4" d="m261.74,787.52c-.06,0-.11-.02-.16-.06-2.34-1.92-4.21-4.26-5.57-6.96-.06-.12-.01-.27.11-.34.12-.06.27-.01.34.11,1.33,2.64,3.16,4.93,5.45,6.8.11.09.12.25.03.35-.05.06-.12.09-.19.09Z"/>
        <path class="cls-4" d="m256.23,780.59c-.09,0-.18-.05-.22-.14-1.18-2.35-1.81-4.98-1.81-7.61,0-.14.11-.25.25-.25s.25.11.25.25c0,2.55.61,5.11,1.76,7.38.06.12.01.27-.11.34-.04.02-.07.03-.11.03Z"/>
        <path class="cls-4" d="m254.44,773.09c-.14,0-.25-.11-.25-.25,0-2.63.63-5.26,1.81-7.61.06-.12.21-.17.34-.11.12.06.17.21.11.34-1.15,2.28-1.76,4.83-1.76,7.38,0,.14-.11.25-.25.25Z"/>
        <path class="cls-4" d="m256.23,765.62s-.08,0-.11-.03c-.12-.06-.17-.21-.11-.34,1.36-2.7,3.24-5.04,5.57-6.96.11-.09.26-.07.35.03.09.11.07.26-.03.35-2.28,1.88-4.12,4.16-5.45,6.8-.04.09-.13.14-.22.14Z"/>
        <path class="cls-4" d="m261.66,758.71c-.07,0-.14-.03-.19-.09-.09-.11-.07-.26.04-.35,2.41-1.98,5.13-3.5,8.09-4.5.13-.04.27.03.32.16.04.13-.03.27-.16.32-2.9.99-5.57,2.47-7.93,4.42-.05.04-.1.06-.16.06Z"/>
        <path class="cls-4" d="m269.71,754.26c-.1,0-.2-.07-.24-.17-.04-.13.03-.27.16-.32,3.25-1.11,6.64-1.67,10.08-1.67.14,0,.25.11.25.25s-.11.25-.25.25c-3.38,0-6.72.55-9.92,1.64-.03,0-.05.01-.08.01Z"/>
        <path class="cls-4" d="m289.71,754.26s-.05,0-.08-.01c-3.2-1.09-6.54-1.64-9.92-1.64-.14,0-.25-.11-.25-.25s.11-.25.25-.25c3.44,0,6.83.56,10.08,1.67.13.04.2.19.16.32-.04.1-.13.17-.24.17Z"/>
        <path class="cls-4" d="m297.76,758.71c-.06,0-.11-.02-.16-.06-2.37-1.94-5.04-3.43-7.93-4.42-.13-.04-.2-.19-.16-.32.04-.13.19-.2.32-.16,2.96,1.01,5.68,2.52,8.09,4.5.11.09.12.25.04.35-.05.06-.12.09-.19.09Z"/>
        <path class="cls-4" d="m303.27,765.62c-.09,0-.18-.05-.22-.14-1.33-2.64-3.16-4.93-5.45-6.8-.11-.09-.12-.25-.04-.35.09-.11.25-.12.35-.03,2.34,1.92,4.21,4.26,5.58,6.96.06.12.01.27-.11.34-.04.02-.07.03-.11.03Z"/>
        <path class="cls-4" d="m304.98,773.09c-.14,0-.25-.11-.25-.25,0-2.55-.61-5.1-1.76-7.38-.06-.12-.01-.27.11-.34.12-.06.27-.01.34.11,1.18,2.35,1.81,4.98,1.81,7.61,0,.14-.11.25-.25.25Z"/>
        <path class="cls-4" d="m303.2,780.59s-.08,0-.11-.03c-.12-.06-.17-.21-.11-.34,1.15-2.28,1.76-4.83,1.76-7.38,0-.14.11-.25.25-.25s.25.11.25.25c0,2.63-.63,5.26-1.81,7.61-.04.09-.13.14-.22.14Z"/>
        <path class="cls-4" d="m297.75,787.52c-.07,0-.14-.03-.19-.09-.09-.11-.07-.26.03-.35,2.28-1.88,4.12-4.16,5.45-6.8.06-.12.21-.17.34-.11s.17.21.11.34c-1.36,2.7-3.24,5.04-5.58,6.96-.05.04-.1.06-.16.06Z"/>
        <path class="cls-4" d="m289.75,791.94c-.1,0-.2-.07-.24-.17-.04-.13.03-.27.16-.32,2.9-.99,5.57-2.47,7.93-4.42.1-.09.26-.07.35.03.09.11.07.26-.04.35-2.41,1.98-5.13,3.5-8.09,4.5-.03,0-.05.01-.08.01Z"/>
        <path class="cls-4" d="m279.71,793.59c-.14,0-.25-.11-.25-.25s.11-.25.25-.25c3.38,0,6.72-.55,9.92-1.64.13-.04.27.03.32.16.04.13-.03.27-.16.32-3.25,1.11-6.64,1.67-10.08,1.67Z"/>
        <path class="cls-4" d="m279.71,793.59c-3.44,0-6.83-.56-10.08-1.67-.13-.04-.2-.19-.16-.32.04-.13.18-.2.32-.16,3.2,1.09,6.54,1.64,9.92,1.64.14,0,.25.11.25.25s-.11.25-.25.25Z"/>
        <path class="cls-4" d="m269.15,793.49s-.05,0-.08-.01c-3.14-1.07-6.04-2.68-8.6-4.79-.11-.09-.12-.25-.03-.35.09-.11.24-.12.35-.03,2.52,2.07,5.36,3.65,8.44,4.7.13.04.2.19.16.32-.04.1-.13.17-.24.17Z"/>
        <path class="cls-4" d="m260.7,788.79c-.06,0-.11-.02-.16-.06-2.51-2.07-4.53-4.59-6-7.49-.06-.12-.01-.27.11-.34.12-.06.27-.01.34.11,1.43,2.84,3.41,5.31,5.87,7.33.11.09.12.25.03.35-.05.06-.12.09-.19.09Z"/>
        <path class="cls-4" d="m254.76,781.33c-.09,0-.18-.05-.22-.14-1.3-2.58-1.99-5.46-1.99-8.35,0-.14.11-.25.25-.25s.25.11.25.25c0,2.81.67,5.61,1.93,8.12.06.12.01.27-.11.34-.04.02-.07.03-.11.03Z"/>
        <path class="cls-4" d="m252.8,773.09c-.14,0-.25-.11-.25-.25,0-2.88.69-5.77,1.99-8.35.06-.12.21-.17.34-.11.12.06.17.21.11.34-1.26,2.51-1.93,5.31-1.93,8.12,0,.14-.11.25-.25.25Z"/>
        <path class="cls-4" d="m254.77,764.88s-.08,0-.11-.03c-.12-.06-.17-.21-.11-.34,1.47-2.91,3.48-5.43,6-7.49.11-.09.26-.07.35.03.09.11.07.26-.03.35-2.46,2.02-4.44,4.49-5.87,7.33-.04.09-.13.14-.22.14Z"/>
        <path class="cls-4" d="m260.62,757.44c-.07,0-.14-.03-.19-.09-.09-.11-.07-.26.03-.35,2.56-2.11,5.46-3.72,8.6-4.79.13-.04.27.03.32.16.04.13-.03.27-.16.32-3.09,1.05-5.93,2.63-8.44,4.7-.05.04-.1.06-.16.06Z"/>
        <path class="cls-4" d="m269.18,752.7c-.1,0-.2-.07-.24-.17-.04-.13.03-.27.16-.32,3.42-1.16,6.99-1.76,10.61-1.76.14,0,.25.11.25.25s-.11.25-.25.25c-3.56,0-7.08.58-10.45,1.73-.03,0-.05.01-.08.01Z"/>
        <path class="cls-4" d="m290.24,752.7s-.05,0-.08-.01c-3.37-1.15-6.89-1.73-10.45-1.73-.14,0-.25-.11-.25-.25s.11-.25.25-.25c3.62,0,7.19.59,10.61,1.76.13.04.2.19.16.32-.04.1-.13.17-.24.17Z"/>
        <path class="cls-4" d="m298.8,757.44c-.06,0-.11-.02-.16-.06-2.52-2.07-5.36-3.65-8.44-4.7-.13-.04-.2-.19-.16-.32.04-.13.19-.2.32-.16,3.14,1.07,6.04,2.68,8.6,4.79.11.09.12.25.03.35-.05.06-.12.09-.19.09Z"/>
        <path class="cls-4" d="m304.73,764.88c-.09,0-.18-.05-.22-.14-1.43-2.84-3.41-5.31-5.87-7.33-.11-.09-.12-.25-.03-.35s.25-.12.35-.03c2.51,2.07,4.53,4.59,6,7.49.06.12.01.27-.11.34-.04.02-.07.03-.11.03Z"/>
        <path class="cls-4" d="m306.62,773.09c-.14,0-.25-.11-.25-.25,0-2.81-.67-5.61-1.93-8.12-.06-.12-.01-.27.11-.34.12-.06.27-.01.34.11,1.3,2.58,1.99,5.46,1.99,8.35,0,.14-.11.25-.25.25Z"/>
        <path class="cls-4" d="m304.66,781.33s-.08,0-.11-.03c-.12-.06-.17-.21-.11-.34,1.26-2.51,1.93-5.31,1.93-8.12,0-.14.11-.25.25-.25s.25.11.25.25c0,2.88-.69,5.77-1.99,8.35-.04.09-.13.14-.22.14Z"/>
        <path class="cls-4" d="m298.8,788.79c-.07,0-.14-.03-.19-.09-.09-.11-.07-.26.03-.35,2.46-2.02,4.44-4.49,5.87-7.33.06-.12.21-.17.34-.11.12.06.17.21.11.34-1.46,2.9-3.48,5.43-6,7.49-.05.04-.1.06-.16.06Z"/>
        <path class="cls-4" d="m290.28,793.49c-.1,0-.2-.07-.24-.17-.04-.13.03-.27.16-.32,3.09-1.05,5.93-2.63,8.44-4.7.11-.09.26-.07.35.03.09.11.07.26-.03.35-2.56,2.11-5.46,3.72-8.6,4.79-.03,0-.05.01-.08.01Z"/>
        <path class="cls-4" d="m279.71,795.23c-.14,0-.25-.11-.25-.25s.11-.25.25-.25c3.56,0,7.08-.58,10.45-1.73.13-.04.27.03.32.16.04.13-.03.27-.16.32-3.42,1.16-6.99,1.76-10.61,1.76Z"/>
        <path class="cls-4" d="m279.71,795.23c-3.62,0-7.19-.59-10.61-1.76-.13-.04-.2-.19-.16-.32.04-.13.19-.2.32-.16,3.37,1.15,6.89,1.73,10.45,1.73.14,0,.25.11.25.25s-.11.25-.25.25Z"/>
        <path class="cls-4" d="m148.38,800.57c-.13,0-.24-.1-.25-.22l-3.78-36.14v-3.27h-3.03c-.14,0-.25-.11-.25-.25v-5.77c0-.14.11-.25.25-.25s.25.11.25.25v5.52h3.03c.14,0,.25.11.25.25v3.49l3.78,36.11c.01.14-.09.26-.22.27,0,0-.02,0-.03,0Z"/>
        <path class="cls-4" d="m162.74,813.48c-7.54,0-13.81-5.65-14.6-13.15-.01-.14.09-.26.22-.27.15-.01.26.08.28.22.76,7.24,6.83,12.7,14.11,12.7.14,0,.25.11.25.25s-.11.25-.25.25Z"/>
        <path class="cls-4" d="m168.76,813.48h-5.99c-.14,0-.25-.11-.25-.25s.11-.25.25-.25h5.99c.14,0,.25.11.25.25s-.11.25-.25.25Z"/>
        <path class="cls-4" d="m168.73,813.48c-.14,0-.25-.11-.25-.25s.11-.25.25-.25c7.28,0,13.34-5.46,14.11-12.7.01-.14.15-.24.28-.22.14.01.24.14.22.27-.79,7.49-7.07,13.15-14.6,13.15Z"/>
        <path class="cls-4" d="m183.09,800.57s-.02,0-.03,0c-.14-.01-.24-.14-.22-.27l3.85-36.14v-16.3c0-.14.11-.25.25-.25s.25.11.25.25v16.32l-3.85,36.17c-.01.13-.12.22-.25.22Z"/>
        <path class="cls-4" d="m186.87,748.07c-.14,0-.25-.11-.25-.25,0-.9-.74-1.64-1.64-1.64-.14,0-.25-.11-.25-.25s.11-.25.25-.25c1.18,0,2.14.96,2.14,2.14,0,.14-.11.25-.25.25Z"/>
        <path class="cls-4" d="m185.01,746.19h-38.49c-.14,0-.25-.11-.25-.25s.11-.25.25-.25h38.49c.14,0,.25.11.25.25s-.11.25-.25.25Z"/>
        <path class="cls-4" d="m144.6,748.07c-.14,0-.25-.11-.25-.25,0-1.18.96-2.14,2.14-2.14.14,0,.25.11.25.25s-.11.25-.25.25c-.9,0-1.64.73-1.64,1.64,0,.14-.11.25-.25.25Z"/>
        <path class="cls-4" d="m144.6,755.17h-3.28c-.14,0-.25-.11-.25-.25s.11-.25.25-.25h3.03v-6.81c0-.14.11-.25.25-.25s.25.11.25.25v7.06c0,.14-.11.25-.25.25Z"/>
        <path class="cls-4" d="m152.22,800.22c-.13,0-.24-.1-.25-.22l-3.35-31.44c-.01-.14.08-.26.22-.27.14-.01.26.08.28.22l3.35,31.44c.01.14-.08.26-.22.27,0,0-.02,0-.03,0Z"/>
        <path class="cls-4" d="m150.3,800.36c-.13,0-.24-.1-.25-.22l-3.14-29.44c-.01-.14.08-.26.22-.27.15-.02.26.09.28.22l3.14,29.44c.01.14-.08.26-.22.27,0,0-.02,0-.03,0Z"/>
        <path class="cls-4" d="m179.31,800.22s-.02,0-.03,0c-.14-.01-.24-.14-.22-.27l3.28-31.44c.01-.14.14-.24.28-.22.14.01.24.14.22.27l-3.28,31.44c-.01.13-.12.22-.25.22Z"/>
        <path class="cls-4" d="m181.17,800.36s-.02,0-.03,0c-.14-.01-.24-.14-.22-.27l3.14-29.44c.01-.14.15-.24.28-.22.14.01.24.14.22.27l-3.14,29.44c-.01.13-.12.22-.25.22Z"/>
        <path class="cls-4" d="m145.17,760.94c-.14,0-.25-.11-.25-.25v-5.77c0-.14.11-.25.25-.25s.25.11.25.25v5.77c0,.14-.11.25-.25.25Z"/>
        <path class="cls-4" d="m147.17,770.87c-.13,0-.24-.1-.25-.22-.06-.6.13-1.21.54-1.66.4-.45.98-.71,1.59-.71.14,0,.25.11.25.25s-.11.25-.25.25c-.46,0-.91.2-1.22.54-.31.35-.46.81-.41,1.27.01.14-.08.26-.22.27,0,0-.02,0-.03,0Z"/>
        <path class="cls-4" d="m184.22,770.87s-.02,0-.03,0c-.14-.01-.24-.14-.22-.27.05-.46-.1-.92-.41-1.27-.31-.35-.75-.54-1.22-.54-.14,0-.25-.11-.25-.25s.11-.25.25-.25c.61,0,1.19.26,1.59.71.41.45.6,1.05.54,1.65-.01.13-.12.22-.25.22Z"/>
        <path class="cls-4" d="m182.38,768.78h-33.29c-.14,0-.25-.11-.25-.25s.11-.25.25-.25h33.29c.14,0,.25.11.25.25s-.11.25-.25.25Z"/>
        <path class="cls-4" d="m144.6,764.43c-.07,0-.14-.03-.19-.09-.09-.11-.08-.26.03-.35l3.14-2.64c.11-.09.26-.08.35.03.09.11.08.26-.03.35l-3.14,2.64s-.1.06-.16.06Z"/>
        <path class="cls-4" d="m186.94,764.43c-.06,0-.11-.02-.16-.06l-3.14-2.64c-.11-.09-.12-.25-.03-.35.09-.11.25-.12.35-.03l3.14,2.64c.11.09.12.25.03.35-.05.06-.12.09-.19.09Z"/>
        <path class="cls-4" d="m147.73,749.32c-.06,0-.13-.02-.18-.07l-2.57-2.57c-.1-.1-.1-.26,0-.35s.26-.1.35,0l2.57,2.57c.1.1.1.26,0,.35-.05.05-.11.07-.18.07Z"/>
        <path class="cls-4" d="m183.73,749.32c-.07,0-.13-.03-.18-.08-.1-.1-.09-.26,0-.35l2.64-2.57c.1-.1.26-.09.35,0,.1.1.09.26,0,.35l-2.64,2.57s-.11.07-.17.07Z"/>
        <path class="cls-4" d="m183.2,762.07c-.12,0-.23-.09-.25-.21-.02-.14.07-.26.21-.29.35-.05.6-.35.6-.7,0-.14.11-.25.25-.25s.25.11.25.25c0,.6-.43,1.11-1.03,1.2-.01,0-.03,0-.04,0Z"/>
        <path class="cls-4" d="m148.26,762.07s-.03,0-.04,0c-.6-.09-1.03-.6-1.03-1.2,0-.14.11-.25.25-.25s.25.11.25.25c0,.35.25.65.6.7.14.02.23.15.21.29-.02.12-.13.21-.25.21Z"/>
        <path class="cls-4" d="m147.45,750c-.14,0-.25-.11-.25-.25,0-.67.54-1.21,1.21-1.21.14,0,.25.11.25.25s-.11.25-.25.25c-.39,0-.71.32-.71.71,0,.14-.11.25-.25.25Z"/>
        <path class="cls-4" d="m184.02,750c-.14,0-.25-.11-.25-.25,0-.39-.32-.71-.71-.71-.14,0-.25-.11-.25-.25s.11-.25.25-.25c.67,0,1.21.54,1.21,1.21,0,.14-.11.25-.25.25Z"/>
        <path class="cls-4" d="m184.02,761.16c-.14,0-.25-.11-.25-.25v-11.12c0-.14.11-.25.25-.25s.25.11.25.25v11.12c0,.14-.11.25-.25.25Z"/>
        <path class="cls-4" d="m183.09,749.04h-34.64c-.14,0-.25-.11-.25-.25s.11-.25.25-.25h34.64c.14,0,.25.11.25.25s-.11.25-.25.25Z"/>
        <path class="cls-4" d="m147.45,761.16c-.14,0-.25-.11-.25-.25v-11.12c0-.14.11-.25.25-.25s.25.11.25.25v11.12c0,.14-.11.25-.25.25Z"/>
        <path class="cls-4" d="m165.73,763.44c-5.85,0-11.7-.45-17.5-1.34-.14-.02-.23-.15-.21-.29s.15-.23.29-.21c11.56,1.78,23.29,1.78,34.85,0,.14-.02.26.07.29.21.02.14-.07.26-.21.29-5.81.9-11.66,1.34-17.5,1.34Z"/>
        <path class="cls-4" d="m165.73,766.29c-7.09,0-14.17-.65-21.21-1.93-.14-.02-.23-.16-.2-.29.02-.14.15-.22.29-.2,14.01,2.57,28.22,2.57,42.23,0,.13-.02.27.07.29.2.02.14-.07.27-.2.29-7.04,1.29-14.12,1.93-21.21,1.93Z"/>
        <path class="cls-4" d="m145.17,755.17h-.57c-.14,0-.25-.11-.25-.25s.11-.25.25-.25h.57c.14,0,.25.11.25.25s-.11.25-.25.25Z"/>
        <polygon class="cls-4" points="145.17 760.55 145.1 760.62 145.02 760.69 145.1 760.76 145.17 760.83 145.24 760.76 145.31 760.69 145.24 760.62 145.17 760.55"/>
        <polygon class="cls-2" points="145.17 760.55 145.1 760.62 145.02 760.69 145.1 760.76 145.17 760.83 145.24 760.76 145.31 760.69 145.24 760.62 145.17 760.55"/>
        <polygon class="cls-4" points="145.17 760.55 145.1 760.62 145.02 760.69 145.1 760.76 145.17 760.83 145.24 760.76 145.31 760.69 145.24 760.62 145.17 760.55"/>
        <polygon class="cls-2" points="145.17 760.55 145.1 760.62 145.02 760.69 145.1 760.76 145.17 760.83 145.24 760.76 145.31 760.69 145.24 760.62 145.17 760.55"/>
        <polygon class="cls-4" points="145.17 760.55 145.1 760.62 145.02 760.69 145.1 760.76 145.17 760.83 145.24 760.76 145.31 760.69 145.24 760.62 145.17 760.55"/>
        <polygon class="cls-2" points="145.17 760.55 145.1 760.62 145.02 760.69 145.1 760.76 145.17 760.83 145.24 760.76 145.31 760.69 145.24 760.62 145.17 760.55"/>
        <polygon class="cls-4" points="145.17 760.55 145.1 760.62 145.02 760.69 145.1 760.76 145.17 760.83 145.24 760.76 145.31 760.69 145.24 760.62 145.17 760.55"/>
        <polygon class="cls-2" points="145.17 760.55 145.1 760.62 145.02 760.69 145.1 760.76 145.17 760.83 145.24 760.76 145.31 760.69 145.24 760.62 145.17 760.55"/>
        <path class="cls-4" d="m145.17,760.94h-.57c-.14,0-.25-.11-.25-.25s.11-.25.25-.25h.57c.14,0,.25.11.25.25s-.11.25-.25.25Z"/>
        <path class="cls-4" d="m162.74,809.63c-5.56,0-10.19-4.17-10.78-9.7-.01-.14.09-.26.22-.27.14-.02.26.09.28.22.56,5.27,4.97,9.25,10.28,9.25.14,0,.25.11.25.25s-.11.25-.25.25Z"/>
        <path class="cls-4" d="m162.74,811.55c-6.55,0-12-4.91-12.69-11.42-.01-.14.09-.26.22-.27.13-.01.26.09.28.22.66,6.26,5.9,10.98,12.19,10.98.14,0,.25.11.25.25s-.11.25-.25.25Z"/>
        <path class="cls-4" d="m168.76,809.63h-5.99c-.14,0-.25-.11-.25-.25s.11-.25.25-.25h5.99c.14,0,.25.11.25.25s-.11.25-.25.25Z"/>
        <path class="cls-4" d="m168.76,811.55h-5.99c-.14,0-.25-.11-.25-.25s.11-.25.25-.25h5.99c.14,0,.25.11.25.25s-.11.25-.25.25Z"/>
        <path class="cls-4" d="m168.73,809.63c-.14,0-.25-.11-.25-.25s.11-.25.25-.25c5.3,0,9.72-3.98,10.28-9.25.02-.14.14-.24.28-.22.14.01.24.14.22.27-.58,5.53-5.22,9.7-10.78,9.7Z"/>
        <path class="cls-4" d="m168.73,811.55c-.14,0-.25-.11-.25-.25s.11-.25.25-.25c6.29,0,11.53-4.72,12.19-10.98.01-.14.14-.24.28-.22.14.01.24.14.22.27-.69,6.51-6.14,11.42-12.69,11.42Z"/>
        <path class="cls-4" d="m160.92,779.76s-.01,0-.02,0c-.14-.01-.24-.13-.23-.27l.07-.93.3-.92.44-.89.53-.68c.08-.11.24-.13.35-.04.11.08.13.24.04.35l-.5.64-.4.81-.27.82-.06.87c0,.13-.12.23-.25.23Z"/>
        <path class="cls-4" d="m163.34,775.63c-.09,0-.18-.05-.22-.14-.06-.12-.01-.27.11-.34l.43-.21.87-.36.99-.16.91.07.45.07c.14.02.23.15.21.29-.02.14-.16.23-.29.21l-.43-.07-.83-.07-.87.14-1.21.55s-.07.03-.11.03Z"/>
        <path class="cls-4" d="m170.33,778.33c-.1,0-.2-.06-.24-.16l-.29-.78-.47-.74-.61-.6-.68-.47c-.11-.08-.14-.23-.06-.35.08-.11.24-.14.35-.06l.71.5.67.67.53.83.31.83c.05.13-.02.27-.15.32-.03.01-.06.02-.09.02Z"/>
        <path class="cls-4" d="m169.26,783.04c-.06,0-.13-.02-.18-.07-.1-.1-.1-.26,0-.35l.29-.29.46-.74.26-.8.21-.9v-.37c0-.14.11-.25.24-.25s.25.11.25.25v.43l-.22.98-.29.88-.53.84-.32.33s-.11.07-.18.07Z"/>
        <path class="cls-4" d="m165.55,784.54l-.95-.07c-.14-.01-.24-.13-.23-.27,0-.14.11-.25.27-.23l.93.07h.84s.87-.21.87-.21l.74-.34c.12-.06.27,0,.33.12.06.13,0,.27-.12.33l-.78.36-.97.23h-.91Z"/>
        <path class="cls-4" d="m163.34,783.89s-.09-.01-.13-.04l-.36-.21-.75-.67-.6-.74-.45-.82-.16-.47c-.04-.13.03-.27.16-.32.13-.04.27.03.32.16l.14.43.41.74.55.68.68.61.32.19c.12.07.16.22.09.34-.05.08-.13.12-.21.12Z"/>
        <path class="cls-4" d="m66.47,788.96h-10.83c-.09,0-.17-.05-.22-.13-.04-.08-.04-.17,0-.25l5.42-9.12c.09-.15.34-.15.43,0l5.42,9.12c.05.08.05.17,0,.25-.04.08-.13.13-.22.13Zm-10.4-.5h9.96l-4.98-8.38-4.98,8.38Z"/>
        <path class="cls-4" d="m110.88,900.08h-4.78c-.14,0-.25-.11-.25-.25s.11-.25.25-.25h4.78c.14,0,.25.11.25.25s-.11.25-.25.25Z"/>
        <path class="cls-4" d="m110.88,845.27h-4.78c-.14,0-.25-.11-.25-.25v-2.92c0-.14.11-.25.25-.25s.25.11.25.25v2.67h4.28v-2.67c0-.14.11-.25.25-.25s.25.11.25.25v2.92c0,.14-.11.25-.25.25Z"/>
        <path class="cls-4" d="m108.1,895.17c-.06,0-.13-.02-.18-.07l-36.71-36.71c-.1-.1-.1-.26,0-.35s.26-.1.35,0l36.71,36.71c.1.1.1.26,0,.35-.05.05-.11.07-.18.07Z"/>
        <path class="cls-4" d="m106.1,897.23c-.06,0-.13-.02-.18-.07l-36.78-36.78c-.1-.1-.1-.26,0-.35s.26-.1.35,0l36.78,36.78c.1.1.1.26,0,.35-.05.05-.11.07-.18.07Z"/>
        <path class="cls-4" d="m110.88,900.08c-.14,0-.25-.11-.25-.25v-2.6h-4.28v2.6c0,.14-.11.25-.25.25s-.25-.11-.25-.25v-2.85c0-.14.11-.25.25-.25h4.78c.14,0,.25.11.25.25v2.85c0,.14-.11.25-.25.25Z"/>
        <path class="cls-4" d="m106.1,897.23c-.06,0-.12-.02-.17-.07-.1-.1-.1-.25,0-.35l2-2.07c.1-.1.25-.1.35,0,.1.1.1.25,0,.35l-2,2.07c-.05.05-.11.08-.18.08Z"/>
        <path class="cls-4" d="m69.35,860.48c-.06,0-.13-.02-.18-.07-.1-.1-.1-.26,0-.35,9.85-9.85,22.96-15.28,36.9-15.28.14,0,.25.11.25.25s-.11.25-.25.25c-13.8,0-26.78,5.38-36.54,15.14-.05.05-.11.07-.18.07Z"/>
        <path class="cls-4" d="m316.67,746.19H110.88c-.14,0-.25-.11-.25-.25s.11-.25.25-.25h205.79c.14,0,.25.11.25.25s-.11.25-.25.25Z"/>
        <path class="cls-4" d="m326.44,746.19c-.14,0-.25-.11-.25-.25v-9.37H101.26c-.14,0-.25-.11-.25-.25s.11-.25.25-.25h225.18c.14,0,.25.11.25.25v9.62c0,.14-.11.25-.25.25Z"/>
        <path class="cls-4" d="m326.37,900.08c-.14,0-.25-.11-.25-.25v-5.52h-9.12v5.52c0,.14-.11.25-.25.25s-.25-.11-.25-.25v-5.77c0-.14.11-.25.25-.25h9.62c.14,0,.25.11.25.25v5.77c0,.14-.11.25-.25.25Z"/>
        <path class="cls-4" d="m326.37,828.87h-9.62c-.14,0-.25-.11-.25-.25v-5.77c0-.14.11-.25.25-.25s.25.11.25.25v5.52h9.12v-5.52c0-.14.11-.25.25-.25s.25.11.25.25v5.77c0,.14-.11.25-.25.25Z"/>
        <path class="cls-4" d="m319.67,894.31c-.14,0-.25-.11-.25-.25v-65.44c0-.14.11-.25.25-.25s.25.11.25.25v65.44c0,.14-.11.25-.25.25Z"/>
        <path class="cls-4" d="m326.37,894.31c-.14,0-.25-.11-.25-.25v-65.44c0-.14.11-.25.25-.25s.25.11.25.25v65.44c0,.14-.11.25-.25.25Z"/>
        <path class="cls-4" d="m316.74,894.31h-65.44c-.14,0-.25-.11-.25-.25v-2.85c0-.14.11-.25.25-.25h65.44c.14,0,.25.11.25.25v2.85c0,.14-.11.25-.25.25Zm-65.19-.5h64.94v-2.35h-64.94v2.35Z"/>
        <path class="cls-4" d="m251.31,894.27c-.14,0-.25-.11-.25-.25,0-36.2,29.45-65.65,65.65-65.65.14,0,.25.11.25.25s-.11.25-.25.25c-35.92,0-65.15,29.23-65.15,65.15,0,.14-.11.25-.25.25Z"/>
        <path class="cls-4" d="m508.71,351.64c-.14,0-.25-.11-.25-.25v-1.85c0-.14.11-.25.25-.25s.25.11.25.25v1.85c0,.14-.11.25-.25.25Z"/>
        <path class="cls-4" d="m508.49,351.85c-.14,0-.25-.11-.25-.25v-2.28c0-.14.11-.25.25-.25s.25.11.25.25v2.28c0,.14-.11.25-.25.25Z"/>
        <path class="cls-4" d="m509.49,351.64h-.78c-.14,0-.25-.11-.25-.25s.11-.25.25-.25h.78c.14,0,.25.11.25.25s-.11.25-.25.25Z"/>
        <path class="cls-4" d="m509.49,349.78h-.78c-.14,0-.25-.11-.25-.25s.11-.25.25-.25h.78c.14,0,.25.11.25.25s-.11.25-.25.25Z"/>
        <path class="cls-4" d="m508.49,351.85c-.06,0-.13-.02-.18-.07-.1-.1-.1-.26,0-.35l.21-.21c.1-.1.26-.1.35,0s.1.26,0,.35l-.21.21s-.11.07-.18.07Z"/>
        <path class="cls-4" d="m508.71,349.78c-.06,0-.13-.02-.18-.07l-.21-.21c-.1-.1-.1-.26,0-.35s.26-.1.35,0l.21.21c.1.1.1.26,0,.35-.05.05-.11.07-.18.07Z"/>
        <path class="cls-4" d="m509.49,351.64c-.14,0-.25-.11-.25-.25v-1.85c0-.14.11-.25.25-.25s.25.11.25.25v1.85c0,.14-.11.25-.25.25Z"/>
        <path class="cls-4" d="m510.7,351.5h-1.21c-.14,0-.25-.11-.25-.25s.11-.25.25-.25h1.21c.14,0,.25.11.25.25s-.11.25-.25.25Z"/>
        <path class="cls-4" d="m510.7,349.93h-1.21c-.14,0-.25-.11-.25-.25s.11-.25.25-.25h1.21c.14,0,.25.11.25.25s-.11.25-.25.25Z"/>
        <path class="cls-4" d="m508.49,351.85h-.78c-.14,0-.25-.11-.25-.25s.11-.25.25-.25h.78c.14,0,.25.11.25.25s-.11.25-.25.25Z"/>
        <path class="cls-4" d="m508.49,349.57h-.78c-.14,0-.25-.11-.25-.25s.11-.25.25-.25h.78c.14,0,.25.11.25.25s-.11.25-.25.25Z"/>
        <path class="cls-4" d="m502.15,350.71h-.78c-.14,0-.25-.11-.25-.25s.11-.25.25-.25h.78c.14,0,.25.11.25.25s-.11.25-.25.25Z"/>
        <path class="cls-4" d="m500.65,350.71h-6.27c-.14,0-.25-.11-.25-.25s.11-.25.25-.25h6.27c.14,0,.25.11.25.25s-.11.25-.25.25Z"/>
        <path class="cls-4" d="m503,358.27h-3.49c-.14,0-.25-.11-.25-.25s.11-.25.25-.25h3.49c.14,0,.25.11.25.25s-.11.25-.25.25Z"/>
        <path class="cls-4" d="m503,343.3h-3.49c-.14,0-.25-.11-.25-.25s.11-.25.25-.25h3.49c.14,0,.25.11.25.25s-.11.25-.25.25Z"/>
        <path class="cls-4" d="m503,358.27c-.14,0-.25-.11-.25-.25v-4.56c0-.14.11-.25.25-.25s.25.11.25.25v4.56c0,.14-.11.25-.25.25Z"/>
        <path class="cls-4" d="m499.51,358.27c-.14,0-.25-.11-.25-.25v-4.13c0-.14.11-.25.25-.25s.25.11.25.25v4.13c0,.14-.11.25-.25.25Z"/>
        <path class="cls-4" d="m503,347.65h-3.49c-.14,0-.25-.11-.25-.25s.11-.25.25-.25h3.49c.14,0,.25.11.25.25s-.11.25-.25.25Z"/>
        <path class="cls-4" d="m503,354.13h-3.49c-.14,0-.25-.11-.25-.25s.11-.25.25-.25h3.49c.14,0,.25.11.25.25s-.11.25-.25.25Z"/>
        <path class="cls-4" d="m503.86,352.71c-.13,0-.24-.1-.25-.24,0-.14.1-.25.24-.26l3.42-.14h.01c.13,0,.24.1.25.24,0,.14-.1.25-.24.26l-3.42.14h-.01Z"/>
        <path class="cls-4" d="m507.28,348.86h0l-3.35-.07c-.14,0-.25-.12-.25-.26,0-.14.11-.24.25-.24h0l3.35.07c.14,0,.25.12.25.26,0,.14-.11.24-.25.24Z"/>
        <path class="cls-4" d="m498.87,348.36h-.93c-.14,0-.25-.11-.25-.25s.11-.25.25-.25h.93c.14,0,.25.11.25.25s-.11.25-.25.25Z"/>
        <path class="cls-4" d="m497.3,352.78c-.14,0-.25-.11-.25-.25v-3.71c0-.14.11-.25.25-.25s.25.11.25.25v3.71c0,.14-.11.25-.25.25Z"/>
        <path class="cls-4" d="m498.87,353.42h-.93c-.14,0-.25-.11-.25-.25s.11-.25.25-.25h.93c.14,0,.25.11.25.25s-.11.25-.25.25Z"/>
        <path class="cls-4" d="m507.61,352.29s-.05,0-.07-.01c-.13-.04-.21-.18-.16-.31.31-.99.31-2.04.01-3.04-.04-.13.04-.27.17-.31.14-.04.27.04.31.17.33,1.09.32,2.24-.02,3.33-.03.11-.13.18-.24.18Z"/>
        <path class="cls-4" d="m498.87,351.21c-.14,0-.25-.11-.25-.25v-1c0-.14.11-.25.25-.25s.25.11.25.25v1c0,.14-.11.25-.25.25Z"/>
        <path class="cls-4" d="m498.51,351.35c-.14,0-.25-.11-.25-.25v-1.28c0-.14.11-.25.25-.25s.25.11.25.25v1.28c0,.14-.11.25-.25.25Z"/>
        <path class="cls-4" d="m498.51,351.35h-.36c-.14,0-.25-.11-.25-.25v-1.28c0-.14.11-.25.25-.25h.36c.14,0,.25.11.25.25s-.11.25-.25.25h-.11v.78h.06l.31-.12c.12-.05.27.01.33.14.05.13-.01.27-.14.32l-.36.14s-.06.02-.09.02Z"/>
        <path class="cls-4" d="m498.16,351.35s-.05,0-.07-.01l-1.43-.43c-.13-.04-.21-.18-.17-.31.04-.13.17-.21.31-.17l1.43.43c.13.04.21.18.17.31-.03.11-.13.18-.24.18Z"/>
        <path class="cls-4" d="m496.73,350.43c-.11,0-.21-.08-.24-.19-.03-.13.05-.27.18-.3l1.43-.36c.14-.03.27.05.3.18.03.13-.05.27-.18.3l-1.43.36s-.04,0-.06,0Z"/>
        <path class="cls-4" d="m498.87,350.21s-.06,0-.09-.02l-.36-.14c-.13-.05-.19-.2-.14-.32.05-.13.2-.19.33-.14l.36.14c.13.05.19.2.14.32-.04.1-.13.16-.23.16Z"/>
        <path class="cls-4" d="m507.19,352.56c-.13,0-.25-.11-.25-.24,0-.14.1-.25.24-.26.06,0,.11-.04.13-.1.04-.13.18-.21.31-.16.13.04.21.18.16.31-.08.26-.32.44-.59.45h0Z"/>
        <path class="cls-4" d="m507.62,349.14c-.11,0-.21-.07-.24-.18-.02-.06-.07-.1-.13-.1-.14,0-.25-.12-.24-.26,0-.14.12-.24.25-.24h0c.28,0,.52.19.6.46.04.13-.04.27-.17.31-.02,0-.05.01-.07.01Z"/>
        <path class="cls-4" d="m497.23,349.04c-.14,0-.25-.11-.25-.25,0-.51.42-.93.93-.93.14,0,.25.11.25.25s-.11.25-.25.25c-.24,0-.43.19-.43.43,0,.14-.11.25-.25.25Z"/>
        <path class="cls-4" d="m499.51,347.72c-.14,0-.25-.11-.25-.25v-4.42c0-.14.11-.25.25-.25s.25.11.25.25v4.42c0,.14-.11.25-.25.25Z"/>
        <path class="cls-4" d="m498.83,348.36c-.14,0-.25-.11-.25-.25s.11-.25.25-.25c.24,0,.43-.19.43-.43,0-.14.11-.25.25-.25s.25.11.25.25c0,.51-.42.93-.93.93Z"/>
        <path class="cls-4" d="m502.01,348.71h-2.35c-.14,0-.25-.11-.25-.25s.11-.25.25-.25h2.35c.14,0,.25.11.25.25s-.11.25-.25.25Z"/>
        <path class="cls-4" d="m503.87,348.79h0c-.66-.02-1.18-.55-1.18-1.21,0-.14.11-.25.25-.25s.25.11.25.25c0,.38.31.7.7.71.14,0,.25.12.24.26,0,.14-.11.24-.25.24Z"/>
        <path class="cls-4" d="m503.93,348.79h0l-1.92-.07c-.14,0-.25-.12-.24-.26,0-.14.13-.23.26-.24l1.92.07c.14,0,.25.12.24.26,0,.13-.12.24-.25.24Z"/>
        <path class="cls-4" d="m497.91,353.42c-.51,0-.93-.42-.93-.93,0-.14.11-.25.25-.25s.25.11.25.25c0,.24.19.43.43.43.14,0,.25.11.25.25s-.11.25-.25.25Z"/>
        <path class="cls-4" d="m499.51,354.1c-.14,0-.25-.11-.25-.25,0-.24-.19-.43-.43-.43-.14,0-.25-.11-.25-.25s.11-.25.25-.25c.51,0,.93.42.93.93,0,.14-.11.25-.25.25Z"/>
        <path class="cls-4" d="m502.93,353.67c-.14,0-.25-.11-.25-.25,0-.65.51-1.19,1.17-1.21h0c.13,0,.25.11.25.24,0,.14-.1.25-.24.26-.38.01-.69.33-.69.71,0,.14-.11.25-.25.25Z"/>
        <path class="cls-4" d="m500.87,352.85c-.13,0-.24-.1-.25-.24,0-.14.1-.25.24-.26l2.99-.14c.12-.02.25.1.26.24,0,.14-.1.25-.24.26l-2.99.14s0,0-.01,0Z"/>
        <path class="cls-4" d="m503,347.86c-.14,0-.25-.11-.25-.25v-4.56c0-.14.11-.25.25-.25s.25.11.25.25v4.56c0,.14-.11.25-.25.25Z"/>
        <path class="cls-4" d="m510.7,379.58h-52.96c-.14,0-.25-.11-.25-.25v-57.74c0-.14.11-.25.25-.25h52.96c.14,0,.25.11.25.25v57.74c0,.14-.11.25-.25.25Zm-52.71-.5h52.46v-57.24h-52.46v57.24Z"/>
        <path class="cls-4" d="m461.59,369.03c-.14,0-.25-.11-.25-.25v-36.57c0-.14.11-.25.25-.25s.25.11.25.25v36.57c0,.14-.11.25-.25.25Z"/>
        <path class="cls-4" d="m461.59,332.43c-.14,0-.25-.11-.25-.25,0-1.73,1.41-3.14,3.14-3.14.14,0,.25.11.25.25s-.11.25-.25.25c-1.45,0-2.64,1.18-2.64,2.64,0,.14-.11.25-.25.25Z"/>
        <path class="cls-4" d="m500.08,371.88h-35.57c-.14,0-.25-.11-.25-.25s.11-.25.25-.25h35.57c.14,0,.25.11.25.25s-.11.25-.25.25Z"/>
        <path class="cls-4" d="m464.48,371.88c-1.73,0-3.14-1.41-3.14-3.14,0-.14.11-.25.25-.25s.25.11.25.25c0,1.45,1.18,2.64,2.64,2.64.14,0,.25.11.25.25s-.11.25-.25.25Z"/>
        <path class="cls-4" d="m505.86,379.58c-.14,0-.25-.11-.25-.25v-57.74c0-.14.11-.25.25-.25s.25.11.25.25v57.74c0,.14-.11.25-.25.25Z"/>
        <path class="cls-4" d="m503,369.03c-.14,0-.25-.11-.25-.25v-36.57c0-.14.11-.25.25-.25s.25.11.25.25v36.57c0,.14-.11.25-.25.25Z"/>
        <path class="cls-4" d="m500.05,371.88c-.14,0-.25-.11-.25-.25s.11-.25.25-.25c1.45,0,2.64-1.18,2.64-2.64,0-.14.11-.25.25-.25s.25.11.25.25c0,1.73-1.41,3.14-3.14,3.14Z"/>
        <path class="cls-4" d="m502.93,332.43c-.14,0-.25-.11-.25-.25,0-1.45-1.18-2.64-2.64-2.64-.14,0-.25-.11-.25-.25s.11-.25.25-.25c1.73,0,3.14,1.41,3.14,3.14,0,.14-.11.25-.25.25Z"/>
        <path class="cls-4" d="m500.08,329.54h-35.57c-.14,0-.25-.11-.25-.25s.11-.25.25-.25h35.57c.14,0,.25.11.25.25s-.11.25-.25.25Z"/>
        <path class="cls-4" d="m510.7,351.5c-.14,0-.25-.11-.25-.25v-1.57c0-.14.11-.25.25-.25s.25.11.25.25v1.57c0,.14-.11.25-.25.25Z"/>
        <path class="cls-4" d="m482.23,354.49c-2.24,0-4.06-1.82-4.06-4.06s1.82-4.06,4.06-4.06,4.06,1.82,4.06,4.06-1.82,4.06-4.06,4.06Zm0-7.63c-1.96,0-3.56,1.6-3.56,3.56s1.6,3.56,3.56,3.56,3.56-1.6,3.56-3.56-1.6-3.56-3.56-3.56Z"/>
        <path class="cls-4" d="m505.86,268.95h-48.12c-.14,0-.25-.11-.25-.25v-72.21c0-.14.11-.25.25-.25h48.12c.14,0,.25.11.25.25v72.21c0,.14-.11.25-.25.25Zm-47.87-.5h47.62v-71.71h-47.62v71.71Z"/>
        <path class="cls-4" d="m504.93,267.95h-46.19c-.14,0-.25-.11-.25-.25v-70.21c0-.14.11-.25.25-.25h46.19c.14,0,.25.11.25.25v70.21c0,.14-.11.25-.25.25Zm-45.94-.5h45.69v-69.71h-45.69v69.71Z"/>
        <path class="cls-4" d="m510.7,384.36h-57.74c-.14,0-.25-.11-.25-.25v-202.01c0-.14.11-.25.25-.25h57.74c.14,0,.25.11.25.25v202.01c0,.14-.11.25-.25.25Zm-57.49-.5h57.24v-201.51h-57.24v201.51Z"/>
        <path class="cls-4" d="m484.15,225.11c-5.42,0-9.84-4.41-9.84-9.84s4.41-9.84,9.84-9.84,9.84,4.41,9.84,9.84-4.41,9.84-9.84,9.84Zm0-19.17c-5.15,0-9.34,4.19-9.34,9.34s4.19,9.34,9.34,9.34,9.34-4.19,9.34-9.34-4.19-9.34-9.34-9.34Z"/>
        <path class="cls-4" d="m484.15,259.75c-5.42,0-9.84-4.41-9.84-9.84s4.41-9.84,9.84-9.84,9.84,4.41,9.84,9.84-4.41,9.84-9.84,9.84Zm0-19.17c-5.15,0-9.34,4.19-9.34,9.34s4.19,9.34,9.34,9.34,9.34-4.19,9.34-9.34-4.19-9.34-9.34-9.34Z"/>
        <path class="cls-4" d="m484.19,251.7c-.14,0-.25-.11-.25-.25v-2.99c0-.14.11-.25.25-.25s.25.11.25.25v2.99c0,.14-.11.25-.25.25Z"/>
        <path class="cls-4" d="m485.68,250.2h-2.99c-.14,0-.25-.11-.25-.25s.11-.25.25-.25h2.99c.14,0,.25.11.25.25s-.11.25-.25.25Z"/>
        <path class="cls-4" d="m484.19,217.06c-.14,0-.25-.11-.25-.25v-2.99c0-.14.11-.25.25-.25s.25.11.25.25v2.99c0,.14-.11.25-.25.25Z"/>
        <path class="cls-4" d="m485.68,215.56h-2.99c-.14,0-.25-.11-.25-.25s.11-.25.25-.25h2.99c.14,0,.25.11.25.25s-.11.25-.25.25Z"/>
        <path class="cls-4" d="m326.3,900.08h-9.62c-.14,0-.25-.11-.25-.25v-5.77c0-.14.11-.25.25-.25s.25.11.25.25v5.52h9.12l.14-153.65c0-.14.11-.25.25-.25h0c.14,0,.25.11.25.25l-.14,153.9c0,.14-.11.25-.25.25Z"/>
        <path class="cls-4" d="m316.67,828.87c-.14,0-.25-.11-.25-.25v-82.69c0-.14.11-.25.25-.25s.25.11.25.25v82.69c0,.14-.11.25-.25.25Z"/>
        <path class="cls-4" d="m326.37,823.17h0l-9.62-.07c-.14,0-.25-.11-.25-.25,0-.14.11-.25.25-.25h0l9.62.07c.14,0,.25.11.25.25,0,.14-.11.25-.25.25Z"/>
        <path class="cls-4" d="m14.72,428.62c-.14,0-.25-.11-.25-.25v-57.67c0-.14.11-.25.25-.25s.25.11.25.25v57.67c0,.14-.11.25-.25.25Z"/>
        <path class="cls-4" d="m222.51,445.02H17.57c-.14,0-.25-.11-.25-.25v-51.96c0-.14.11-.25.25-.25h204.94c.14,0,.25.11.25.25v51.96c0,.14-.11.25-.25.25Zm-204.69-.5h204.44v-51.46H17.82v51.46Z"/>
        <path class="cls-4" d="m222.51,420H17.57c-.14,0-.25-.11-.25-.25s.11-.25.25-.25h204.94c.14,0,.25.11.25.25s-.11.25-.25.25Z"/>
        <path class="cls-4" d="m222.51,418.07H17.57c-.14,0-.25-.11-.25-.25s.11-.25.25-.25h204.94c.14,0,.25.11.25.25s-.11.25-.25.25Z"/>
        <path class="cls-4" d="m244.68,649.95h-4.85c-.14,0-.25-.11-.25-.25v-115.48c0-.14.11-.25.25-.25h4.85c.14,0,.25.11.25.25v115.48c0,.14-.11.25-.25.25Zm-4.6-.5h4.35v-114.98h-4.35v114.98Z"/>
        <path class="cls-4" d="m239.83,640.33h-4.78c-.14,0-.25-.11-.25-.25v-96.23c0-.14.11-.25.25-.25h4.78c.14,0,.25.11.25.25s-.11.25-.25.25h-4.53v95.73h4.53c.14,0,.25.11.25.25s-.11.25-.25.25Z"/>
        <path class="cls-4" d="m246.6,537.4h-1.92c-.14,0-.25-.11-.25-.25s.11-.25.25-.25h1.92c.14,0,.25.11.25.25s-.11.25-.25.25Z"/>
        <path class="cls-4" d="m246.6,647.03h-1.92c-.14,0-.25-.11-.25-.25s.11-.25.25-.25h1.67v-109.38c0-.14.11-.25.25-.25s.25.11.25.25v109.63c0,.14-.11.25-.25.25Z"/>
        <path class="cls-4" d="m240.19,244.79s-.06,0-.09-.02l-5.13-1.92c-.1-.04-.16-.13-.16-.23v-48.9c0-.11.07-.2.17-.24l5.13-1.85c.13-.05.27.02.32.15.05.13-.02.27-.15.32l-4.97,1.79v48.55l4.97,1.86c.13.05.19.19.15.32-.04.1-.13.16-.23.16Z"/>
        <path class="cls-4" d="m307.19,254.48h-67.01c-.14,0-.25-.11-.25-.25v-72.14c0-.14.11-.25.25-.25h67.01c.14,0,.25.11.25.25v72.14c0,.14-.11.25-.25.25Zm-66.76-.5h66.51v-71.64h-66.51v71.64Z"/>
        <path class="cls-4" d="m303.34,254.48c-.14,0-.25-.11-.25-.25v-72.14c0-.14.11-.25.25-.25s.25.11.25.25v72.14c0,.14-.11.25-.25.25Z"/>
        <path class="cls-4" d="m225.43,447.87H14.72c-.14,0-.25-.11-.25-.25v-57.74c0-.14.11-.25.25-.25h210.71c.14,0,.25.11.25.25v57.74c0,.14-.11.25-.25.25Zm-210.46-.5h210.21v-57.24H14.97v57.24Z"/>
        <path class="cls-4" d="m197.49,260.25H14.72c-.14,0-.25-.11-.25-.25V115.73c0-.14.11-.25.25-.25h182.77c.14,0,.25.11.25.25v144.28c0,.14-.11.25-.25.25Zm-182.52-.5h182.27V115.98H14.97v143.78Z"/>
        <path class="cls-4" d="m48.37,260.25c-.14,0-.25-.11-.25-.25V115.73c0-.14.11-.25.25-.25s.25.11.25.25v144.28c0,.14-.11.25-.25.25Z"/>
        <path class="cls-4" d="m57.99,260.25c-.14,0-.25-.11-.25-.25v-32.36l20.53-111.96c.02-.14.15-.22.29-.2.14.02.23.16.2.29l-20.53,111.91v32.32c0,.14-.11.25-.25.25Z"/>
        <path class="cls-4" d="m48.37,183.27h-25.95c-.14,0-.25-.11-.25-.25v-59.59c0-.14.11-.25.25-.25h25.95c.14,0,.25.11.25.25v59.59c0,.14-.11.25-.25.25Zm-25.7-.5h25.45v-59.09h-25.45v59.09Z"/>
        <path class="cls-4" d="m48.37,252.56h-25.95c-.14,0-.25-.11-.25-.25v-59.66c0-.14.11-.25.25-.25h25.95c.14,0,.25.11.25.25v59.66c0,.14-.11.25-.25.25Zm-25.7-.5h25.45v-59.16h-25.45v59.16Z"/>
        <path class="cls-4" d="m62.76,390.13H14.72c-.14,0-.25-.11-.25-.25v-86.54c0-.14.11-.25.25-.25h48.04c.14,0,.25.11.25.25v86.54c0,.14-.11.25-.25.25Zm-47.79-.5h47.54v-86.04H14.97v86.04Z"/>
        <path class="cls-4" d="m91.63,368.53h-28.87c-.14,0-.25-.11-.25-.25v-43.34c0-.14.11-.25.25-.25h28.87c.14,0,.25.11.25.25v43.34c0,.14-.11.25-.25.25Zm-28.62-.5h28.37v-42.84h-28.37v42.84Z"/>
        <path class="cls-4" d="m86.86,368.53c-.14,0-.25-.11-.25-.25v-43.34c0-.14.11-.25.25-.25s.25.11.25.25v43.34c0,.14-.11.25-.25.25Z"/>
        <path class="cls-4" d="m36.32,296.96c-.14,0-.25-.11-.25-.25v-30.08c0-.14.11-.25.25-.25s.25.11.25.25v30.08c0,.14-.11.25-.25.25Z"/>
        <path class="cls-4" d="m36.28,294.61c-7.15,0-12.97-5.82-12.97-12.97s5.82-12.97,12.97-12.97,12.97,5.82,12.97,12.97-5.82,12.97-12.97,12.97Zm0-25.45c-6.88,0-12.47,5.6-12.47,12.47s5.6,12.47,12.47,12.47,12.47-5.6,12.47-12.47-5.6-12.47-12.47-12.47Z"/>
        <path class="cls-4" d="m36.28,289.98c-4.6,0-8.34-3.74-8.34-8.34s3.74-8.34,8.34-8.34,8.34,3.74,8.34,8.34-3.74,8.34-8.34,8.34Zm0-16.18c-4.32,0-7.84,3.52-7.84,7.84s3.52,7.84,7.84,7.84,7.84-3.52,7.84-7.84-3.52-7.84-7.84-7.84Z"/>
        <path class="cls-4" d="m51.36,281.92h-30.01c-.14,0-.25-.11-.25-.25s.11-.25.25-.25h30.01c.14,0,.25.11.25.25s-.11.25-.25.25Z"/>
        <path class="cls-4" d="m57.99,303.59H14.72c-.14,0-.25-.11-.25-.25v-43.34c0-.14.11-.25.25-.25h43.27c.14,0,.25.11.25.25v43.34c0,.14-.11.25-.25.25Zm-43.02-.5h42.77v-42.84H14.97v42.84Z"/>
        <path class="cls-4" d="m141.67,708.62H17.57c-.14,0-.25-.11-.25-.25s.11-.25.25-.25h124.1c.14,0,.25.11.25.25s-.11.25-.25.25Z"/>
        <path class="cls-4" d="m144.6,736.56H14.72c-.14,0-.25-.11-.25-.25v-57.74c0-.14.11-.25.25-.25h129.88c.14,0,.25.11.25.25v57.74c0,.14-.11.25-.25.25Zm-129.63-.5h129.38v-57.24H14.97v57.24Z"/>
        <path class="cls-4" d="m141.67,733.64H12.8c-.14,0-.25-.11-.25-.25v-51.96c0-.14.11-.25.25-.25h128.88c.14,0,.25.11.25.25v51.96c0,.14-.11.25-.25.25Zm-128.63-.5h128.38v-51.46H13.05v51.46Z"/>
        <path class="cls-4" d="m141.67,708.62H17.57c-.14,0-.25-.11-.25-.25s.11-.25.25-.25h124.1c.14,0,.25.11.25.25s-.11.25-.25.25Z"/>
        <path class="cls-4" d="m141.67,706.7H17.57c-.14,0-.25-.11-.25-.25s.11-.25.25-.25h124.1c.14,0,.25.11.25.25s-.11.25-.25.25Z"/>
        <path class="cls-4" d="m197.49,601.84H14.72c-.14,0-.25-.11-.25-.25v-144.35c0-.14.11-.25.25-.25h182.77c.14,0,.25.11.25.25v144.35c0,.14-.11.25-.25.25Zm-182.52-.5h182.27v-143.85H14.97v143.85Z"/>
        <path class="cls-4" d="m48.37,601.84c-.14,0-.25-.11-.25-.25v-144.35c0-.14.11-.25.25-.25s.25.11.25.25v144.35c0,.14-.11.25-.25.25Z"/>
        <path class="cls-4" d="m57.99,601.84c-.14,0-.25-.11-.25-.25v-32.36l20.53-112.03c.02-.14.15-.22.29-.2.14.02.23.16.2.29l-20.53,111.98v32.32c0,.14-.11.25-.25.25Z"/>
        <path class="cls-4" d="m48.37,524.85h-25.95c-.14,0-.25-.11-.25-.25v-59.66c0-.14.11-.25.25-.25h25.95c.14,0,.25.11.25.25v59.66c0,.14-.11.25-.25.25Zm-25.7-.5h25.45v-59.16h-25.45v59.16Z"/>
        <path class="cls-4" d="m48.37,594.14h-25.95c-.14,0-.25-.11-.25-.25v-59.66c0-.14.11-.25.25-.25h25.95c.14,0,.25.11.25.25v59.66c0,.14-.11.25-.25.25Zm-25.7-.5h25.45v-59.16h-25.45v59.16Z"/>
        <path class="cls-4" d="m62.76,678.82H14.72c-.14,0-.25-.11-.25-.25v-76.98c0-.14.11-.25.25-.25h48.04c.14,0,.25.11.25.25v76.98c0,.14-.11.25-.25.25Zm-47.79-.5h47.54v-76.48H14.97v76.48Z"/>
        <path class="cls-4" d="m38.71,634.34c-7.15,0-12.97-5.82-12.97-12.97s5.82-12.97,12.97-12.97,12.97,5.82,12.97,12.97-5.82,12.97-12.97,12.97Zm0-25.45c-6.88,0-12.47,5.6-12.47,12.47s5.6,12.47,12.47,12.47,12.47-5.6,12.47-12.47-5.6-12.47-12.47-12.47Z"/>
        <path class="cls-4" d="m38.71,629.71c-4.6,0-8.34-3.74-8.34-8.34s3.74-8.34,8.34-8.34,8.34,3.74,8.34,8.34-3.74,8.34-8.34,8.34Zm0-16.18c-4.32,0-7.84,3.52-7.84,7.84s3.52,7.84,7.84,7.84,7.84-3.52,7.84-7.84-3.52-7.84-7.84-7.84Z"/>
        <path class="cls-4" d="m91.63,662h-28.87c-.14,0-.25-.11-.25-.25v-43.34c0-.14.11-.25.25-.25h28.87c.14,0,.25.11.25.25v43.34c0,.14-.11.25-.25.25Zm-28.62-.5h28.37v-42.84h-28.37v42.84Z"/>
        <path class="cls-4" d="m86.86,662c-.14,0-.25-.11-.25-.25v-43.34c0-.14.11-.25.25-.25s.25.11.25.25v43.34c0,.14-.11.25-.25.25Z"/>
        <path class="cls-4" d="m38.74,646.32c-.14,0-.25-.11-.25-.25v-39.7c0-.14.11-.25.25-.25s.25.11.25.25v39.7c0,.14-.11.25-.25.25Z"/>
        <path class="cls-4" d="m53.78,621.66h-30.08c-.14,0-.25-.11-.25-.25s.11-.25.25-.25h30.08c.14,0,.25.11.25.25s-.11.25-.25.25Z"/>
        <path class="cls-4" d="m476.99,88.25h-86.54c-.14,0-.25-.11-.25-.25v-42.34c0-.14.11-.25.25-.25h86.54c.14,0,.25.11.25.25v42.34c0,.14-.11.25-.25.25Zm-86.29-.5h86.04v-41.84h-86.04v41.84Z"/>
        <path class="cls-4" d="m390.45,88.25c-.09,0-.18-.05-.22-.14-.06-.12,0-.27.11-.33l86.54-42.34c.12-.06.28,0,.33.11.06.12,0,.27-.11.33l-86.54,42.34s-.07.03-.11.03Z"/>
        <path class="cls-4" d="m411.69,75.13c-.11,0-.21-.07-.24-.18l-5.61-18.46-5.61,18.46c-.04.13-.18.21-.31.17-.13-.04-.21-.18-.17-.31l5.84-19.25c.06-.21.41-.21.48,0l5.85,19.25c.04.13-.03.27-.17.31-.02,0-.05.01-.07.01Z"/>
        <path class="cls-4" d="m409.48,68.72h-7.34c-.14,0-.25-.11-.25-.25s.11-.25.25-.25h7.34c.14,0,.25.11.25.25s-.11.25-.25.25Z"/>
        <path class="cls-4" d="m463.09,84.97h-2.99s-.09-.01-.13-.04l-1.43-.86s-.05-.03-.07-.06l-1.5-1.85s-.03-.04-.04-.07l-.71-1.85-.72-2.73s0-.04,0-.06v-4.63s0-.04,0-.06l.71-2.71.72-1.88s.02-.05.04-.07l1.5-1.85s.04-.04.06-.05l1.43-.93s.09-.04.14-.04h2.99s.1.01.14.04l1.43.93s.04.03.06.05l1.5,1.85s.03.04.04.07l.71,1.85c.05.13-.01.27-.14.32-.13.05-.27-.01-.32-.14l-.7-1.82-1.45-1.79-1.33-.86h-2.85l-1.33.86-1.45,1.79-.7,1.82-.7,2.65v4.57l.71,2.68.69,1.79,1.44,1.79,1.33.8h2.86l1.33-.8,1.45-1.79.7-1.82c.05-.13.2-.19.32-.14.13.05.19.19.14.32l-.71,1.85s-.02.05-.04.07l-1.5,1.85s-.04.04-.07.06l-1.43.86s-.08.04-.13.04Z"/>
        <path class="cls-4" d="m31.12,725.94c-.14,0-.25-.11-.25-.25v-38.49c0-.14.11-.25.25-.25s.25.11.25.25v38.49c0,.14-.11.25-.25.25Z"/>
        <path class="cls-4" d="m40.6,725.94c-.14,0-.25-.11-.25-.25v-38.49c0-.14.11-.25.25-.25s.25.11.25.25v38.49c0,.14-.11.25-.25.25Z"/>
        <path class="cls-4" d="m76.59,725.94c-.14,0-.25-.11-.25-.25v-38.49c0-.14.11-.25.25-.25s.25.11.25.25v38.49c0,.14-.11.25-.25.25Z"/>
        <path class="cls-4" d="m88.64,725.94c-.14,0-.25-.11-.25-.25v-38.49c0-.14.11-.25.25-.25s.25.11.25.25v38.49c0,.14-.11.25-.25.25Z"/>
        <path class="cls-4" d="m131.55,725.94c-.14,0-.25-.11-.25-.25v-38.49c0-.14.11-.25.25-.25s.25.11.25.25v38.49c0,.14-.11.25-.25.25Z"/>
        <path class="cls-4" d="m61.2,725.87s-.01,0-.02,0c-.14-.01-.24-.13-.23-.27l3.35-38.35c.01-.14.14-.23.27-.23.14.01.24.13.23.27l-3.35,38.35c-.01.13-.12.23-.25.23Z"/>
        <path class="cls-4" d="m109.6,725.87s-.01,0-.02,0c-.14-.01-.24-.13-.23-.27l3.42-38.35c.01-.14.12-.24.27-.23.14.01.24.13.23.27l-3.42,38.35c-.01.13-.12.23-.25.23Z"/>
        <path class="cls-4" d="m31.12,437.32c-.14,0-.25-.11-.25-.25v-38.49c0-.14.11-.25.25-.25s.25.11.25.25v38.49c0,.14-.11.25-.25.25Z"/>
        <path class="cls-4" d="m40.6,437.32c-.14,0-.25-.11-.25-.25v-38.49c0-.14.11-.25.25-.25s.25.11.25.25v38.49c0,.14-.11.25-.25.25Z"/>
        <path class="cls-4" d="m76.59,437.32c-.14,0-.25-.11-.25-.25v-38.49c0-.14.11-.25.25-.25s.25.11.25.25v38.49c0,.14-.11.25-.25.25Z"/>
        <path class="cls-4" d="m88.64,437.32c-.14,0-.25-.11-.25-.25v-38.49c0-.14.11-.25.25-.25s.25.11.25.25v38.49c0,.14-.11.25-.25.25Z"/>
        <path class="cls-4" d="m122.5,437.32c-.14,0-.25-.11-.25-.25v-38.49c0-.14.11-.25.25-.25s.25.11.25.25v38.49c0,.14-.11.25-.25.25Z"/>
        <path class="cls-4" d="m131.55,437.32c-.14,0-.25-.11-.25-.25v-38.49c0-.14.11-.25.25-.25s.25.11.25.25v38.49c0,.14-.11.25-.25.25Z"/>
        <path class="cls-4" d="m61.2,437.25s-.01,0-.02,0c-.14-.01-.24-.13-.23-.27l3.35-38.35c.01-.14.14-.24.27-.23.14.01.24.13.23.27l-3.35,38.35c-.01.13-.12.23-.25.23Z"/>
        <path class="cls-4" d="m109.6,437.25s-.01,0-.02,0c-.14-.01-.24-.13-.23-.27l3.42-38.35c.01-.14.12-.24.27-.23.14.01.24.13.23.27l-3.42,38.35c-.01.13-.12.23-.25.23Z"/>
        <path class="cls-4" d="m160.42,437.25c-.13,0-.24-.1-.25-.23l-3.35-38.35c-.01-.14.09-.26.23-.27.14-.01.26.09.27.23l3.35,38.35c.01.14-.09.26-.23.27,0,0-.01,0-.02,0Z"/>
        <path class="cls-4" d="m170.19,437.25c-.13,0-.24-.1-.25-.23l-3.35-38.35c-.01-.14.09-.26.23-.27.15-.01.26.09.27.23l3.35,38.35c.01.14-.09.26-.23.27,0,0-.01,0-.02,0Z"/>
        <path class="cls-4" d="m190.36,437.32c-.14,0-.25-.11-.25-.25v-38.49c0-.14.11-.25.25-.25s.25.11.25.25v38.49c0,.14-.11.25-.25.25Z"/>
        <path class="cls-4" d="m199.84,437.32c-.14,0-.25-.11-.25-.25v-38.49c0-.14.11-.25.25-.25s.25.11.25.25v38.49c0,.14-.11.25-.25.25Z"/>
        <path class="cls-4" d="m362.97,655.94c-21.34,0-38.71-17.36-38.71-38.71s17.36-38.71,38.71-38.71,38.71,17.36,38.71,38.71-17.36,38.71-38.71,38.71Zm0-76.91c-21.07,0-38.21,17.14-38.21,38.21s17.14,38.21,38.21,38.21,38.21-17.14,38.21-38.21-17.14-38.21-38.21-38.21Z"/>
        <path class="cls-4" d="m510.7,725.8h-86.61c-.14,0-.25-.11-.25-.25v-216.48c0-.14.11-.25.25-.25h86.61c.14,0,.25.11.25.25v216.48c0,.14-.11.25-.25.25Zm-86.36-.5h86.11v-215.98h-86.11v215.98Z"/>
        <path class="cls-4" d="m496.23,711.33h-72.14c-.14,0-.25-.11-.25-.25s.11-.25.25-.25h71.89v-187.37c0-.14.11-.25.25-.25s.25.11.25.25v187.62c0,.14-.11.25-.25.25Z"/>
        <path class="cls-4" d="m449.33,581.1c-.11,0-.21-.07-.24-.19l-11.12-41.84c-.04-.13.04-.27.18-.31l41.84-11.12c.14-.03.27.04.31.18l11.12,41.84c.04.13-.04.27-.18.31l-18.03,4.85c-.13.04-.27-.04-.31-.18-.04-.13.04-.27.18-.31l17.79-4.78-10.99-41.36-41.36,10.99,10.99,41.36,4.89-1.29c.14-.04.27.05.31.18.04.13-.04.27-.18.31l-5.13,1.35s-.04,0-.06,0Z"/>
        <path class="cls-4" d="m476.63,627.22s-.09-.01-.13-.04l-37.21-22.1c-.12-.07-.16-.22-.09-.34l22.1-37.28c.04-.06.09-.1.16-.12.07-.02.14,0,.19.04l32.36,22.1c.1.07.14.2.09.31l-17.25,37.28c-.03.06-.08.11-.15.13-.02,0-.05.01-.07.01Zm-36.87-22.44l36.76,21.83,17.04-36.84-31.97-21.83-21.83,36.84Z"/>
        <path class="cls-4" d="m496.23,523.71h-72.14c-.14,0-.25-.11-.25-.25s.11-.25.25-.25h72.14c.14,0,.25.11.25.25s-.11.25-.25.25Z"/>
        <path class="cls-4" d="m422.17,384.36h-43.34c-.14,0-.25-.11-.25-.25v-28.8c0-.14.11-.25.25-.25h43.34c.14,0,.25.11.25.25v28.8c0,.14-.11.25-.25.25Zm-43.09-.5h42.84v-28.3h-42.84v28.3Z"/>
        <path class="cls-4" d="m366.36,360.33h-43.27c-.14,0-.25-.11-.25-.25s.11-.25.25-.25h43.27c.14,0,.25.11.25.25s-.11.25-.25.25Z"/>
        <path class="cls-4" d="m366.36,485.43h-43.27c-.14,0-.25-.11-.25-.25s.11-.25.25-.25h43.27c.14,0,.25.11.25.25s-.11.25-.25.25Z"/>
        <path class="cls-4" d="m452.96,461.34h-134.72c-.14,0-.25-.11-.25-.25v-76.98c0-.14.11-.25.25-.25h134.72c.14,0,.25.11.25.25v76.98c0,.14-.11.25-.25.25Zm-134.47-.5h134.22v-76.48h-134.22v76.48Z"/>
        <path class="cls-4" d="m422.17,360.33h-43.34c-.14,0-.25-.11-.25-.25s.11-.25.25-.25h43.34c.14,0,.25.11.25.25s-.11.25-.25.25Z"/>
        <path class="cls-4" d="m366.36,384.36h-43.27c-.14,0-.25-.11-.25-.25v-28.8c0-.14.11-.25.25-.25h43.27c.14,0,.25.11.25.25v28.8c0,.14-.11.25-.25.25Zm-43.02-.5h42.77v-28.3h-42.77v28.3Z"/>
        <path class="cls-4" d="m422.17,485.43h-43.34c-.14,0-.25-.11-.25-.25s.11-.25.25-.25h43.34c.14,0,.25.11.25.25s-.11.25-.25.25Z"/>
        <path class="cls-4" d="m422.17,490.21h-43.34c-.14,0-.25-.11-.25-.25v-28.87c0-.14.11-.25.25-.25h43.34c.14,0,.25.11.25.25v28.87c0,.14-.11.25-.25.25Zm-43.09-.5h42.84v-28.37h-42.84v28.37Z"/>
        <path class="cls-4" d="m366.36,490.21h-43.27c-.14,0-.25-.11-.25-.25v-28.87c0-.14.11-.25.25-.25h43.27c.14,0,.25.11.25.25v28.87c0,.14-.11.25-.25.25Zm-43.02-.5h42.77v-28.37h-42.77v28.37Z"/>
        <path class="cls-4" d="m452.96,461.34s-.05,0-.08-.01h0s0,0,0,0h0s-.06-.02-.08-.04h0s0,0,0,0c-.03-.02-.05-.05-.06-.08-.01-.03-.02-.06-.03-.1v-77c0-.14.11-.25.25-.25h57.74c.07,0,.12.03.17.07h0s0,0,0,0h0s.01.01.02.02h0s.06.1.06.17v76.98c0,.14-.11.25-.25.25h-57.74Zm.5-.5h56.99v-75.98l-56.99,75.98Zm-.25-76.48v75.98l56.99-75.98h-56.99Z"/>
        <path class="cls-4" d="m510.7,823.1h-41.92c-.14,0-.25-.11-.25-.25v-96.16c0-.14.11-.25.25-.25h41.92c.14,0,.25.11.25.25v96.16c0,.14-.11.25-.25.25Zm-41.67-.5h41.42v-95.66h-41.42v95.66Z"/>
        <path class="cls-4" d="m510.7,823.1c-.1,0-.19-.06-.23-.15l-41.92-96.16c-.05-.13,0-.27.13-.33.13-.05.27,0,.33.13l41.92,96.16c.05.13,0,.27-.13.33-.03.01-.07.02-.1.02Z"/>
        <path class="cls-4" d="m526.53,182.34h-73.56c-.14,0-.25-.11-.25-.25s.11-.25.25-.25h73.56c.14,0,.25.11.25.25s-.11.25-.25.25Z"/>
        <path class="cls-4" d="m.25,115.98c-.14,0-.25-.11-.25-.25V29.12c0-.14.11-.25.25-.25s.25.11.25.25v86.61c0,.14-.11.25-.25.25Z"/>
      </g>
    </g>
  </g>
</svg>