<?xml version="1.0" encoding="UTF-8"?>
<svg id="_圖層_2" data-name="圖層 2" xmlns="http://www.w3.org/2000/svg" viewBox="0 0 572.3 924.76">
  <defs>
    <style>
      .cls-1, .cls-2 {
        stroke-linecap: round;
      }

      .cls-1, .cls-2, .cls-3 {
        fill: none;
        stroke: #8a6e4b;
        stroke-width: 0px;
      }

      .cls-1, .cls-3 {
        stroke-miterlimit: 10;
      }

      .cls-2 {
        stroke-linejoin: round;
      }

      .cls-4 {
        fill: #8a6e4b;
      }
    </style>
  </defs>
  <g id="_圖層_1-2" data-name="圖層 1">
    <g>
      <g>
        <path class="cls-4" d="m49.57,206.18l14.41,537.31h-14.41V206.18Zm14.41,0h-14.41l14.41,537.31V206.18Z"/>
        <path class="cls-3" d="m49.57,206.18l14.41,537.31h-14.41V206.18Zm14.41,0h-14.41l14.41,537.31V206.18Z"/>
        <path class="cls-4" d="m158.28,14.58l413.77,14.4H158.28v-14.4Zm413.77,0H158.28l413.77,14.4v-14.4Z"/>
        <path class="cls-3" d="m158.28,14.58l413.77,14.4H158.28v-14.4Zm413.77,0H158.28l413.77,14.4v-14.4Z"/>
        <path class="cls-4" d="m557.64,28.99l14.41,780.64h-14.41V28.99Zm14.41,0h-14.41l14.41,780.64V28.99Z"/>
        <path class="cls-3" d="m557.64,28.99l14.41,780.64h-14.41V28.99Zm14.41,0h-14.41l14.41,780.64V28.99Z"/>
        <path class="cls-4" d="m512.66,809.62l59.39,17.24h-59.39v-17.24Zm59.39,0h-59.39l59.39,17.24v-17.24Z"/>
        <path class="cls-3" d="m512.66,809.62l59.39,17.24h-59.39v-17.24Zm59.39,0h-59.39l59.39,17.24v-17.24Z"/>
        <path class="cls-4" d="m48.15,743.49l73.3,17.24H48.15v-17.24Zm73.3,0H48.15l73.3,17.24v-17.24Z"/>
        <path class="cls-3" d="m48.15,743.49l73.3,17.24H48.15v-17.24Zm73.3,0H48.15l73.3,17.24v-17.24Z"/>
        <path class="cls-4" d="m48.15,760.73l17.24,48.89h-17.24v-48.89Zm17.24,0h-17.24l17.24,48.89v-48.89Z"/>
        <path class="cls-3" d="m48.15,760.73l17.24,48.89h-17.24v-48.89Zm17.24,0h-17.24l17.24,48.89v-48.89Z"/>
        <path class="cls-4" d="m158.28,101.05H48.15c-.14,0-.25-.11-.25-.25V.25c0-.14.11-.25.25-.25h110.13c.14,0,.25.11.25.25v100.55c0,.14-.11.25-.25.25Zm-109.88-.5h109.63V.5H48.4v100.05Z"/>
        <path class="cls-4" d="m105.63,915.18H.25c-.14,0-.25-.11-.25-.25v-105.31c0-.14.11-.25.25-.25h105.38c.14,0,.25.11.25.25v105.31c0,.14-.11.25-.25.25Zm-105.13-.5h104.88v-104.81H.5v104.81Z"/>
        <path class="cls-4" d="m461.92,134.29l95.73,9.58h-95.73v-9.58Zm95.73,0h-95.73l95.73,9.58v-9.58Z"/>
        <path class="cls-1" d="m461.92,134.29l95.73,9.58h-95.73v-9.58Zm95.73,0h-95.73l95.73,9.58v-9.58Z"/>
        <path class="cls-4" d="m461.92,143.87l9.58,23.98h-9.58v-23.98Zm9.58,0h-9.58l9.58,23.98v-23.98Z"/>
        <path class="cls-1" d="m461.92,143.87l9.58,23.98h-9.58v-23.98Zm9.58,0h-9.58l9.58,23.98v-23.98Z"/>
        <path class="cls-4" d="m333.55,167.86l137.95,9.58h-137.95v-9.58Zm137.95,0h-137.95l137.95,9.58v-9.58Z"/>
        <path class="cls-1" d="m333.55,167.86l137.95,9.58h-137.95v-9.58Zm137.95,0h-137.95l137.95,9.58v-9.58Z"/>
        <path class="cls-4" d="m471.5,167.86l86.15,9.58h-86.15v-9.58Zm86.15,0h-86.15l86.15,9.58v-9.58Z"/>
        <path class="cls-1" d="m471.5,167.86l86.15,9.58h-86.15v-9.58Zm86.15,0h-86.15l86.15,9.58v-9.58Z"/>
        <path class="cls-4" d="m557.64,29.24H158.28c-.14,0-.25-.11-.25-.25s.11-.25.25-.25h399.37c.14,0,.25.11.25.25s-.11.25-.25.25Z"/>
        <path class="cls-4" d="m572.05,14.83H158.28c-.14,0-.25-.11-.25-.25s.11-.25.25-.25h413.77c.14,0,.25.11.25.25s-.11.25-.25.25Z"/>
        <path class="cls-4" d="m48.15,809.87c-.14,0-.25-.11-.25-.25v-66.14c0-.14.11-.25.25-.25s.25.11.25.25v66.14c0,.14-.11.25-.25.25Z"/>
        <path class="cls-4" d="m65.39,809.87c-.14,0-.25-.11-.25-.25v-48.89c0-.14.11-.25.25-.25s.25.11.25.25v48.89c0,.14-.11.25-.25.25Z"/>
        <path class="cls-4" d="m338.38,263.66l9.58,191.52h-9.58v-191.52Zm9.58,0h-9.58l9.58,191.52v-191.52Z"/>
        <path class="cls-1" d="m338.38,263.66l9.58,191.52h-9.58v-191.52Zm9.58,0h-9.58l9.58,191.52v-191.52Z"/>
        <path class="cls-4" d="m338.38,455.18l219.27,9.58h-219.27v-9.58Zm219.27,0h-219.27l219.27,9.58v-9.58Z"/>
        <path class="cls-1" d="m338.38,455.18l219.27,9.58h-219.27v-9.58Zm219.27,0h-219.27l219.27,9.58v-9.58Z"/>
        <path class="cls-4" d="m338.38,464.76l9.58,57.48h-9.58v-57.48Zm9.58,0h-9.58l9.58,57.48v-57.48Z"/>
        <path class="cls-1" d="m338.38,464.76l9.58,57.48h-9.58v-57.48Zm9.58,0h-9.58l9.58,57.48v-57.48Z"/>
        <path class="cls-4" d="m323.97,760.98h-49.32c-.14,0-.25-.11-.25-.25s.11-.25.25-.25h49.32c.14,0,.25.11.25.25s-.11.25-.25.25Z"/>
        <path class="cls-4" d="m121.45,760.98h-56.06c-.14,0-.25-.11-.25-.25s.11-.25.25-.25h56.06c.14,0,.25.11.25.25s-.11.25-.25.25Z"/>
        <path class="cls-4" d="m347.96,809.87c-.14,0-.25-.11-.25-.25v-65.89h-73.05c-.14,0-.25-.11-.25-.25s.11-.25.25-.25h73.3c.14,0,.25.11.25.25v66.14c0,.14-.11.25-.25.25Z"/>
        <path class="cls-4" d="m330.71,827.12c-.14,0-.25-.11-.25-.25v-18.24c0-.14.11-.25.25-.25s.25.11.25.25v18.24c0,.14-.11.25-.25.25Z"/>
        <path class="cls-4" d="m359.45,809.87h-11.5c-.14,0-.25-.11-.25-.25s.11-.25.25-.25h11.5c.14,0,.25.11.25.25s-.11.25-.25.25Z"/>
        <path class="cls-4" d="m330.71,841.52c-.06,0-.13-.02-.18-.07-.1-.1-.1-.26,0-.35l14.41-14.4c.1-.1.26-.1.35,0s.1.26,0,.35l-14.41,14.4s-.11.07-.18.07Z"/>
        <path class="cls-4" d="m330.71,861.82c-.06,0-.13-.02-.18-.07-.1-.1-.1-.26,0-.35l28.74-28.67c.1-.1.26-.1.35,0,.1.1.1.26,0,.35l-28.74,28.67s-.11.07-.18.07Z"/>
        <path class="cls-4" d="m330.71,882.18c-.06,0-.13-.02-.18-.07-.1-.1-.1-.26,0-.35l28.74-28.74c.1-.1.26-.1.35,0s.1.26,0,.35l-28.74,28.74s-.11.07-.18.07Z"/>
        <path class="cls-4" d="m330.71,902.48c-.06,0-.13-.02-.18-.07-.1-.1-.1-.26,0-.35l28.74-28.74c.1-.1.26-.1.35,0s.1.26,0,.35l-28.74,28.74s-.11.07-.18.07Z"/>
        <path class="cls-4" d="m330.71,922.77c-.06,0-.13-.02-.18-.07-.1-.1-.1-.26,0-.35l28.74-28.67c.1-.1.26-.1.35,0,.1.1.1.26,0,.35l-28.74,28.67s-.11.07-.18.07Z"/>
        <path class="cls-4" d="m349.02,924.76c-.06,0-.13-.02-.18-.07-.1-.1-.1-.26,0-.35l10.43-10.36c.1-.1.26-.1.35,0s.1.26,0,.35l-10.43,10.36s-.11.07-.18.07Z"/>
        <path class="cls-4" d="m359.45,827.12h-28.74c-.14,0-.25-.11-.25-.25s.11-.25.25-.25h28.74c.14,0,.25.11.25.25s-.11.25-.25.25Z"/>
        <path class="cls-4" d="m49.57,743.74c-.14,0-.25-.11-.25-.25V206.18c0-.14.11-.25.25-.25s.25.11.25.25v537.31c0,.14-.11.25-.25.25Z"/>
        <path class="cls-4" d="m338.38,608.45l9.58,135.04h-9.58v-135.04Zm9.58,0h-9.58l9.58,135.04v-135.04Z"/>
        <path class="cls-1" d="m338.38,608.45l9.58,135.04h-9.58v-135.04Zm9.58,0h-9.58l9.58,135.04v-135.04Z"/>
        <path class="cls-4" d="m274.65,743.49l73.3,17.24h-73.3v-17.24Zm73.3,0h-73.3l73.3,17.24v-17.24Z"/>
        <path class="cls-1" d="m274.65,743.49l73.3,17.24h-73.3v-17.24Zm73.3,0h-73.3l73.3,17.24v-17.24Z"/>
        <path class="cls-4" d="m323.97,760.73l23.98,47.9h-23.98v-47.9Zm23.98,0h-23.98l23.98,47.9v-47.9Z"/>
        <path class="cls-1" d="m323.97,760.73l23.98,47.9h-23.98v-47.9Zm23.98,0h-23.98l23.98,47.9v-47.9Z"/>
        <path class="cls-4" d="m330.71,808.63l17.24.99h-17.24v-.99Zm17.24,0h-17.24l17.24.99v-.99Z"/>
        <path class="cls-1" d="m330.71,808.63l17.24.99h-17.24v-.99Zm17.24,0h-17.24l17.24.99v-.99Z"/>
        <path class="cls-4" d="m330.71,809.62l28.74,17.24h-28.74v-17.24Zm28.74,0h-28.74l28.74,17.24v-17.24Z"/>
        <path class="cls-1" d="m330.71,809.62l28.74,17.24h-28.74v-17.24Zm28.74,0h-28.74l28.74,17.24v-17.24Z"/>
        <path class="cls-4" d="m.25,809.62l105.38,105.31H.25v-105.31Zm105.38,0H.25l105.38,105.31v-105.31Z"/>
        <path class="cls-1" d="m.25,809.62l105.38,105.31H.25v-105.31Zm105.38,0H.25l105.38,105.31v-105.31Z"/>
        <path class="cls-4" d="m63.97,743.74c-.14,0-.25-.11-.25-.25V206.18c0-.14.11-.25.25-.25s.25.11.25.25v537.31c0,.14-.11.25-.25.25Z"/>
        <path class="cls-4" d="m572.05,809.87c-.14,0-.25-.11-.25-.25V14.58c0-.14.11-.25.25-.25s.25.11.25.25v795.04c0,.14-.11.25-.25.25Z"/>
        <path class="cls-4" d="m557.64,809.87c-.14,0-.25-.11-.25-.25V28.99c0-.14.11-.25.25-.25s.25.11.25.25v780.64c0,.14-.11.25-.25.25Z"/>
        <path class="cls-4" d="m572.05,896.02h-212.6c-.14,0-.25-.11-.25-.25s.11-.25.25-.25h212.6c.14,0,.25.11.25.25s-.11.25-.25.25Z"/>
        <path class="cls-4" d="m63.97,206.43h-14.41c-.14,0-.25-.11-.25-.25s.11-.25.25-.25h14.41c.14,0,.25.11.25.25s-.11.25-.25.25Z"/>
        <path class="cls-4" d="m61.06,106.8h-11.5c-.14,0-.25-.11-.25-.25v-5.75c0-.14.11-.25.25-.25s.25.11.25.25v5.5h11v-5.5c0-.14.11-.25.25-.25s.25.11.25.25v5.75c0,.14-.11.25-.25.25Z"/>
        <path class="cls-4" d="m61.06,206.43c-.14,0-.25-.11-.25-.25v-5.5h-11v5.5c0,.14-.11.25-.25.25s-.25-.11-.25-.25v-5.75c0-.14.11-.25.25-.25h11.5c.14,0,.25.11.25.25v5.75c0,.14-.11.25-.25.25Z"/>
        <path class="cls-4" d="m154.94,109.64H61.06c-.14,0-.25-.11-.25-.25v-2.84c0-.14.11-.25.25-.25h93.88c.14,0,.25.11.25.25v2.84c0,.14-.11.25-.25.25Zm-93.63-.5h93.38v-2.34H61.31v2.34Z"/>
        <path class="cls-4" d="m61.03,200.61c-.14,0-.25-.11-.25-.25s.11-.25.25-.25c51.61,0,93.6-41.99,93.6-93.6,0-.14.11-.25.25-.25s.25.11.25.25c0,51.88-42.21,94.1-94.1,94.1Z"/>
        <path class="cls-4" d="m65.39,743.74h-1.42c-.14,0-.25-.11-.25-.25s.11-.25.25-.25h1.42c.14,0,.25.11.25.25s-.11.25-.25.25Z"/>
        <path class="cls-4" d="m210.79,843.72c-.14,0-.25-.11-.25-.25v-48.54c0-.14.11-.25.25-.25s.25.11.25.25v48.54c0,.14-.11.25-.25.25Z"/>
        <path class="cls-4" d="m214.83,830.88c-.05,0-.1-.02-.15-.05l-.71-.52h-.77c-.09,0-.18-.05-.22-.13-.04-.08-.04-.18.01-.26l.43-.64c.08-.12.23-.14.35-.07.12.08.15.23.07.35l-.17.25h.38c.05,0,.1.02.15.05l.63.46,1.44-1.07,1.58-2.82.42-4.06-.43-3.99-1.2-4.65-2.04-4.07c-.03-.06-.04-.13-.01-.2l1.28-3.55,1.2-5.79.72-3.81h-7.01c-.14,0-.25-.11-.25-.25s.11-.25.25-.25h7.31c.07,0,.15.03.19.09.05.06.07.13.05.21l-.78,4.12-1.21,5.82-1.25,3.48,2.01,4.02,1.22,4.73.43,4.08-.43,4.17s-.01.07-.03.1l-1.63,2.91s-.04.06-.07.08l-1.63,1.21s-.1.05-.15.05Z"/>
        <path class="cls-4" d="m241.52,809.8h-16.04c-.14,0-.25-.11-.25-.25v-14.62c0-.14.11-.25.25-.25h16.04c.14,0,.25.11.25.25v14.62c0,.14-.11.25-.25.25Zm-15.79-.5h15.54v-14.12h-15.54v14.12Z"/>
        <path class="cls-4" d="m241.52,802.78h-16.04c-.14,0-.25-.11-.25-.25s.11-.25.25-.25h16.04c.14,0,.25.11.25.25s-.11.25-.25.25Z"/>
        <path class="cls-4" d="m244.78,816.26h-23.77c-.14,0-.25-.11-.25-.25s.11-.25.25-.25h23.77c.14,0,.25.11.25.25s-.11.25-.25.25Z"/>
        <path class="cls-4" d="m221.43,830.88c-.05,0-.11-.02-.16-.05-.11-.09-.12-.24-.04-.35l2.82-3.52,2.83-6.36,1.26-4.65c.04-.13.18-.21.31-.18.13.04.21.17.18.31l-1.28,4.68-2.85,6.42s-.02.04-.03.05l-2.84,3.55c-.05.06-.12.09-.2.09Z"/>
        <path class="cls-4" d="m240.66,842.59h-2.06s-.06,0-.08-.01l-1.63-.57c-.13-.05-.2-.19-.15-.32.05-.13.19-.2.32-.15l1.59.55h1.87l1.96-3.38.42-3.99v-11.43h-16.14c-.14,0-.25-.11-.25-.25s.11-.25.25-.25h16.39c.14,0,.25.11.25.25v11.71l-.43,4.07s-.01.07-.03.1l-2.06,3.55c-.04.08-.13.12-.22.12Z"/>
        <path class="cls-4" d="m221.01,842.02c-.06,0-.13-.02-.18-.07-.1-.1-.1-.26,0-.35l4.12-4.12,4.42-6.96,2.05-6.43c.04-.13.18-.21.31-.16.13.04.2.18.16.31l-2.06,6.46s-.02.04-.03.06l-4.47,7.02-4.15,4.16s-.11.07-.18.07Z"/>
        <path class="cls-4" d="m229.59,843.72c-.06,0-.11-.02-.16-.06-.11-.09-.12-.24-.04-.35l3.24-4.02,3.25-7.63,1.69-7.55c.03-.13.16-.22.3-.19.13.03.22.16.19.3l-1.7,7.59-3.28,7.71s-.02.04-.04.06l-3.26,4.04c-.05.06-.12.09-.19.09Z"/>
        <path class="cls-4" d="m291.47,798.66h-29.95c-.14,0-.25-.11-.25-.25s.11-.25.25-.25h29.95c.14,0,.25.11.25.25s-.11.25-.25.25Z"/>
        <path class="cls-4" d="m276.71,803.35c-.14,0-.25-.11-.25-.25v-8.73c0-.14.11-.25.25-.25s.25.11.25.25v8.73c0,.14-.11.25-.25.25Z"/>
        <path class="cls-4" d="m289.84,803.35h-25.4c-.14,0-.25-.11-.25-.25s.11-.25.25-.25h25.4c.14,0,.25.11.25.25s-.11.25-.25.25Z"/>
        <path class="cls-4" d="m288.99,813.92h-22.92c-.14,0-.25-.11-.25-.25v-5.89c0-.14.11-.25.25-.25h22.92c.14,0,.25.11.25.25v5.89c0,.14-.11.25-.25.25Zm-22.67-.5h22.42v-5.39h-22.42v5.39Z"/>
        <path class="cls-4" d="m292.68,824.99c-.14,0-.25-.11-.25-.25v-6.14h-30.65v6.14c0,.14-.11.25-.25.25s-.25-.11-.25-.25v-6.39c0-.14.11-.25.25-.25h31.15c.14,0,.25.11.25.25v6.39c0,.14-.11.25-.25.25Z"/>
        <path class="cls-4" d="m288.99,823.29h-23.35c-.14,0-.25-.11-.25-.25s.11-.25.25-.25h23.35c.14,0,.25.11.25.25s-.11.25-.25.25Z"/>
        <path class="cls-4" d="m269.33,831.45s-.09-.01-.14-.04c-.12-.08-.15-.23-.07-.35l5.32-8.16c.08-.12.23-.15.35-.07.12.08.15.23.07.35l-5.32,8.16c-.05.07-.13.11-.21.11Z"/>
        <path class="cls-4" d="m266.92,832.01c-.13,0-.24-.1-.25-.24,0-.14.1-.26.24-.26l19.66-1.14c.14-.02.26.1.26.23s-.1.26-.24.26l-19.66,1.14s0,0-.01,0Z"/>
        <path class="cls-4" d="m288.21,833.79c-.08,0-.15-.03-.2-.1l-.85-1.14-1.23-2.38-1.19-1.75c-.08-.11-.05-.27.07-.35.11-.08.27-.05.35.07l1.21,1.77,1.22,2.37.83,1.1c.08.11.06.27-.05.35-.05.03-.1.05-.15.05Z"/>
        <path class="cls-4" d="m289.41,837.9h-24.55c-.14,0-.25-.11-.25-.25s.11-.25.25-.25h24.55c.14,0,.25.11.25.25s-.11.25-.25.25Z"/>
        <path class="cls-4" d="m276.71,843.72c-.14,0-.25-.11-.25-.25v-11.71c0-.14.11-.25.25-.25s.25.11.25.25v11.71c0,.14-.11.25-.25.25Z"/>
        <path class="cls-4" d="m292.32,843.72h-30.8c-.14,0-.25-.11-.25-.25s.11-.25.25-.25h30.8c.14,0,.25.11.25.25s-.11.25-.25.25Z"/>
        <path class="cls-4" d="m330.71,808.88h-6.74c-.14,0-.25-.11-.25-.25v-47.9c0-.14.11-.25.25-.25s.25.11.25.25v47.65h6.49c.14,0,.25.11.25.25s-.11.25-.25.25Z"/>
        <path class="cls-4" d="m121.45,760.98c-.14,0-.25-.11-.25-.25v-17.24c0-.14.11-.25.25-.25s.25.11.25.25v17.24c0,.14-.11.25-.25.25Z"/>
        <path class="cls-4" d="m274.65,760.98c-.14,0-.25-.11-.25-.25v-17.24c0-.14.11-.25.25-.25s.25.11.25.25v17.24c0,.14-.11.25-.25.25Z"/>
        <path class="cls-4" d="m274.65,760.98H121.45c-.14,0-.25-.11-.25-.25s.11-.25.25-.25h153.2c.14,0,.25.11.25.25s-.11.25-.25.25Z"/>
        <path class="cls-4" d="m274.65,743.74H121.45c-.14,0-.25-.11-.25-.25s.11-.25.25-.25h153.2c.14,0,.25.11.25.25s-.11.25-.25.25Z"/>
        <path class="cls-4" d="m127.13,755.23c-.14,0-.25-.11-.25-.25v-11.5c0-.14.11-.25.25-.25s.25.11.25.25v11.5c0,.14-.11.25-.25.25Z"/>
        <path class="cls-4" d="m268.91,755.23c-.14,0-.25-.11-.25-.25v-11.5c0-.14.11-.25.25-.25s.25.11.25.25v11.5c0,.14-.11.25-.25.25Z"/>
        <path class="cls-4" d="m201.85,751.4h-74.72c-.14,0-.25-.11-.25-.25s.11-.25.25-.25h74.72c.14,0,.25.11.25.25s-.11.25-.25.25Z"/>
        <path class="cls-4" d="m268.91,747.57h-74.72c-.14,0-.25-.11-.25-.25s.11-.25.25-.25h74.72c.14,0,.25.11.25.25s-.11.25-.25.25Z"/>
        <path class="cls-4" d="m274.65,755.23H121.45c-.14,0-.25-.11-.25-.25s.11-.25.25-.25h153.2c.14,0,.25.11.25.25s-.11.25-.25.25Z"/>
        <path class="cls-4" d="m198.02,759.07c-.14,0-.25-.11-.25-.25v-19.16c0-.14.11-.25.25-.25s.25.11.25.25v19.16c0,.14-.11.25-.25.25Z"/>
        <path class="cls-4" d="m359.45,924.76h-28.74c-.14,0-.25-.11-.25-.25v-97.64c0-.14.11-.25.25-.25s.25.11.25.25v97.39h28.24v-97.39c0-.14.11-.25.25-.25s.25.11.25.25v97.64c0,.14-.11.25-.25.25Z"/>
        <path class="cls-4" d="m330.71,896.02h-139.65c-.14,0-.25-.11-.25-.25s.11-.25.25-.25h139.65c.14,0,.25.11.25.25s-.11.25-.25.25Z"/>
        <path class="cls-4" d="m330.71,881.69h-139.65c-.14,0-.25-.11-.25-.25s.11-.25.25-.25h139.65c.14,0,.25.11.25.25s-.11.25-.25.25Z"/>
        <path class="cls-4" d="m330.71,891.27h-139.65c-.14,0-.25-.11-.25-.25s.11-.25.25-.25h139.65c.14,0,.25.11.25.25s-.11.25-.25.25Z"/>
        <path class="cls-4" d="m128.83,891.27h-2.84c-.14,0-.25-.11-.25-.25v-9.58c0-.14.11-.25.25-.25h2.84c.14,0,.25.11.25.25v9.58c0,.14-.11.25-.25.25Zm-2.59-.5h2.34v-9.08h-2.34v9.08Z"/>
        <path class="cls-4" d="m141.32,891.27h-2.91c-.14,0-.25-.11-.25-.25v-9.58c0-.14.11-.25.25-.25h2.91c.14,0,.25.11.25.25v9.58c0,.14-.11.25-.25.25Zm-2.66-.5h2.41v-9.08h-2.41v9.08Z"/>
        <path class="cls-4" d="m153.74,891.27h-2.84c-.14,0-.25-.11-.25-.25v-9.58c0-.14.11-.25.25-.25h2.84c.14,0,.25.11.25.25v9.58c0,.14-.11.25-.25.25Zm-2.59-.5h2.34v-9.08h-2.34v9.08Z"/>
        <path class="cls-4" d="m166.16,891.27h-2.84c-.14,0-.25-.11-.25-.25v-9.58c0-.14.11-.25.25-.25h2.84c.14,0,.25.11.25.25v9.58c0,.14-.11.25-.25.25Zm-2.59-.5h2.34v-9.08h-2.34v9.08Z"/>
        <path class="cls-4" d="m178.64,891.27h-2.91c-.14,0-.25-.11-.25-.25v-9.58c0-.14.11-.25.25-.25h2.91c.14,0,.25.11.25.25v9.58c0,.14-.11.25-.25.25Zm-2.66-.5h2.41v-9.08h-2.41v9.08Z"/>
        <path class="cls-4" d="m116.41,891.27h-2.91c-.14,0-.25-.11-.25-.25v-9.58c0-.14.11-.25.25-.25h2.91c.14,0,.25.11.25.25v9.58c0,.14-.11.25-.25.25Zm-2.66-.5h2.41v-9.08h-2.41v9.08Z"/>
        <path class="cls-4" d="m191.06,891.27h-2.84c-.14,0-.25-.11-.25-.25v-9.58c0-.14.11-.25.25-.25h2.84c.14,0,.25.11.25.25v9.58c0,.14-.11.25-.25.25Zm-2.59-.5h2.34v-9.08h-2.34v9.08Z"/>
        <path class="cls-4" d="m191.06,891.27c-.14,0-.25-.11-.25-.25v-9.58c0-.14.11-.25.25-.25s.25.11.25.25v9.58c0,.14-.11.25-.25.25Z"/>
        <path class="cls-4" d="m191.06,896.02h-85.44c-.14,0-.25-.11-.25-.25s.11-.25.25-.25h85.19v-4.5c0-.14.11-.25.25-.25s.25.11.25.25v4.75c0,.14-.11.25-.25.25Z"/>
        <path class="cls-4" d="m191.06,881.69h-85.44c-.14,0-.25-.11-.25-.25s.11-.25.25-.25h85.44c.14,0,.25.11.25.25s-.11.25-.25.25Z"/>
        <path class="cls-4" d="m557.64,168.11h-86.15c-.14,0-.25-.11-.25-.25s.11-.25.25-.25h86.15c.14,0,.25.11.25.25s-.11.25-.25.25Z"/>
        <path class="cls-4" d="m557.64,177.69h-86.15c-.14,0-.25-.11-.25-.25s.11-.25.25-.25h86.15c.14,0,.25.11.25.25s-.11.25-.25.25Z"/>
        <path class="cls-4" d="m461.92,168.11h-128.37c-.14,0-.25-.11-.25-.25s.11-.25.25-.25h128.37c.14,0,.25.11.25.25s-.11.25-.25.25Z"/>
        <path class="cls-4" d="m557.64,144.12h-86.15c-.14,0-.25-.11-.25-.25s.11-.25.25-.25h86.15c.14,0,.25.11.25.25s-.11.25-.25.25Z"/>
        <path class="cls-4" d="m557.64,134.54h-95.73c-.14,0-.25-.11-.25-.25s.11-.25.25-.25h95.73c.14,0,.25.11.25.25s-.11.25-.25.25Z"/>
        <path class="cls-4" d="m471.5,177.69h-137.95c-.14,0-.25-.11-.25-.25s.11-.25.25-.25h137.95c.14,0,.25.11.25.25s-.11.25-.25.25Z"/>
        <path class="cls-4" d="m557.64,455.43h-209.69c-.14,0-.25-.11-.25-.25s.11-.25.25-.25h209.69c.14,0,.25.11.25.25s-.11.25-.25.25Z"/>
        <path class="cls-4" d="m557.64,465.01h-209.69c-.14,0-.25-.11-.25-.25s.11-.25.25-.25h209.69c.14,0,.25.11.25.25s-.11.25-.25.25Z"/>
        <path class="cls-4" d="m347.96,522.48h-9.58c-.14,0-.25-.11-.25-.25s.11-.25.25-.25h9.58c.14,0,.25.11.25.25s-.11.25-.25.25Z"/>
        <path class="cls-4" d="m347.96,608.7h-9.58c-.14,0-.25-.11-.25-.25s.11-.25.25-.25h9.58c.14,0,.25.11.25.25s-.11.25-.25.25Z"/>
        <path class="cls-4" d="m347.96,263.91h-9.58c-.14,0-.25-.11-.25-.25s.11-.25.25-.25h9.58c.14,0,.25.11.25.25s-.11.25-.25.25Z"/>
        <path class="cls-4" d="m48.15.25l110.13,100.55H48.15V.25Zm110.13,0H48.15l110.13,100.55V.25Z"/>
        <path class="cls-1" d="m48.15.25l110.13,100.55H48.15V.25Zm110.13,0H48.15l110.13,100.55V.25Z"/>
        <path class="cls-4" d="m461.92,168.11c-.14,0-.25-.11-.25-.25v-33.56c0-.14.11-.25.25-.25s.25.11.25.25v33.56c0,.14-.11.25-.25.25Z"/>
        <path class="cls-4" d="m471.5,177.69c-.14,0-.25-.11-.25-.25v-33.56c0-.14.11-.25.25-.25s.25.11.25.25v33.56c0,.14-.11.25-.25.25Z"/>
        <path class="cls-4" d="m347.96,743.74c-.14,0-.25-.11-.25-.25v-135.04c0-.14.11-.25.25-.25s.25.11.25.25v135.04c0,.14-.11.25-.25.25Z"/>
        <path class="cls-4" d="m347.96,522.48c-.14,0-.25-.11-.25-.25v-57.48c0-.14.11-.25.25-.25s.25.11.25.25v57.48c0,.14-.11.25-.25.25Z"/>
        <path class="cls-4" d="m347.96,455.43c-.14,0-.25-.11-.25-.25v-191.52c0-.14.11-.25.25-.25s.25.11.25.25v191.52c0,.14-.11.25-.25.25Z"/>
        <path class="cls-4" d="m338.38,743.74c-.14,0-.25-.11-.25-.25v-135.04c0-.14.11-.25.25-.25s.25.11.25.25v135.04c0,.14-.11.25-.25.25Z"/>
        <path class="cls-4" d="m338.38,522.48c-.14,0-.25-.11-.25-.25v-258.58c0-.14.11-.25.25-.25s.25.11.25.25v258.58c0,.14-.11.25-.25.25Z"/>
        <path class="cls-4" d="m247.33,105.56l9.58,62.3h-9.58v-62.3Zm9.58,0h-9.58l9.58,62.3v-62.3Z"/>
        <path class="cls-1" d="m247.33,105.56l9.58,62.3h-9.58v-62.3Zm9.58,0h-9.58l9.58,62.3v-62.3Z"/>
        <path class="cls-4" d="m247.33,167.86l86.22,9.58h-86.22v-9.58Zm86.22,0h-86.22l86.22,9.58v-9.58Z"/>
        <path class="cls-1" d="m247.33,167.86l86.22,9.58h-86.22v-9.58Zm86.22,0h-86.22l86.22,9.58v-9.58Z"/>
        <path class="cls-4" d="m333.55,177.69c-.14,0-.25-.11-.25-.25v-9.58c0-.14.11-.25.25-.25s.25.11.25.25v9.58c0,.14-.11.25-.25.25Z"/>
        <path class="cls-4" d="m471.5,168.11c-.11,0-.21-.07-.24-.18-.04-.13.04-.27.17-.31l86.15-23.98c.14-.04.27.04.31.17.04.13-.04.27-.17.31l-86.15,23.98s-.04,0-.07,0Z"/>
        <path class="cls-4" d="m557.64,168.11s-.04,0-.07,0l-86.15-23.98c-.13-.04-.21-.17-.17-.31.04-.13.17-.21.31-.17l86.15,23.98c.13.04.21.17.17.31-.03.11-.13.18-.24.18Z"/>
        <path class="cls-4" d="m347.96,183.44h-9.58c-.14,0-.25-.11-.25-.25v-5.75c0-.14.11-.25.25-.25s.25.11.25.25v5.5h9.08v-5.5c0-.14.11-.25.25-.25s.25.11.25.25v5.75c0,.14-.11.25-.25.25Z"/>
        <path class="cls-4" d="m347.96,263.91c-.14,0-.25-.11-.25-.25v-5.5h-9.08v5.5c0,.14-.11.25-.25.25s-.25-.11-.25-.25v-5.75c0-.14.11-.25.25-.25h9.58c.14,0,.25.11.25.25v5.75c0,.14-.11.25-.25.25Z"/>
        <path class="cls-4" d="m422.61,186.27h-74.65c-.14,0-.25-.11-.25-.25v-2.84c0-.14.11-.25.25-.25h74.65c.14,0,.25.11.25.25v2.84c0,.14-.11.25-.25.25Zm-74.4-.5h74.15v-2.34h-74.15v2.34Z"/>
        <path class="cls-4" d="m347.92,258.09c-.14,0-.25-.11-.25-.25s.11-.25.25-.25c41.04,0,74.44-33.39,74.44-74.44,0-.14.11-.25.25-.25s.25.11.25.25c0,41.32-33.62,74.94-74.94,74.94Z"/>
        <path class="cls-4" d="m347.96,528.23h-9.58c-.14,0-.25-.11-.25-.25v-5.75c0-.14.11-.25.25-.25s.25.11.25.25v5.5h9.08v-5.5c0-.14.11-.25.25-.25s.25.11.25.25v5.75c0,.14-.11.25-.25.25Z"/>
        <path class="cls-4" d="m347.96,608.7c-.14,0-.25-.11-.25-.25v-5.5h-9.08v5.5c0,.14-.11.25-.25.25s-.25-.11-.25-.25v-5.75c0-.14.11-.25.25-.25h9.58c.14,0,.25.11.25.25v5.75c0,.14-.11.25-.25.25Z"/>
        <path class="cls-4" d="m422.61,531.14h-74.65c-.14,0-.25-.11-.25-.25v-2.91c0-.14.11-.25.25-.25h74.65c.14,0,.25.11.25.25v2.91c0,.14-.11.25-.25.25Zm-74.4-.5h74.15v-2.41h-74.15v2.41Z"/>
        <path class="cls-4" d="m347.92,602.88c-.14,0-.25-.11-.25-.25s.11-.25.25-.25c41.04,0,74.44-33.39,74.44-74.44,0-.14.11-.25.25-.25s.25.11.25.25c0,41.32-33.62,74.94-74.94,74.94Z"/>
        <path class="cls-4" d="m193.76,879.63h-86.22c-.14,0-.25-.11-.25-.25v-42.15c0-.14.11-.25.25-.25h86.22c.14,0,.25.11.25.25v42.15c0,.14-.11.25-.25.25Zm-85.97-.5h85.72v-41.65h-85.72v41.65Z"/>
        <path class="cls-4" d="m107.54,879.63c-.09,0-.18-.05-.22-.14-.06-.12,0-.27.12-.33l86.22-42.15c.12-.06.27,0,.33.11s0,.27-.12.33l-86.22,42.15s-.07.03-.11.03Z"/>
        <path class="cls-4" d="m117.05,866.57s-.05,0-.07-.01c-.13-.04-.21-.18-.17-.31l5.82-19.16c.06-.21.41-.21.48,0l5.82,19.16c.04.13-.03.27-.17.31-.13.04-.27-.03-.31-.17l-5.58-18.37-5.58,18.37c-.03.11-.13.18-.24.18Z"/>
        <path class="cls-4" d="m126.56,860.19h-7.31c-.14,0-.25-.11-.25-.25s.11-.25.25-.25h7.31c.14,0,.25.11.25.25s-.11.25-.25.25Z"/>
        <path class="cls-4" d="m179.85,876.36h-2.91s-.09-.01-.13-.04l-1.49-.92s-.05-.03-.06-.06l-1.42-1.77s-.03-.04-.04-.06l-.78-1.84-.72-2.73s0-.04,0-.06v-4.61s0-.04,0-.06l.71-2.7.79-1.88s.02-.04.03-.06l1.42-1.85s.04-.04.07-.06l1.49-.92s.08-.04.13-.04h2.91s.1.01.14.04l1.42.92s.04.03.06.05l1.49,1.85s.03.04.04.07l.71,1.84c.05.13-.01.27-.14.32-.13.05-.27-.01-.32-.14l-.7-1.81-1.44-1.78-1.32-.86h-2.76l-1.39.86-1.37,1.78-.77,1.81-.69,2.63v4.55l.7,2.67.75,1.78,1.37,1.71,1.39.86h2.76l1.33-.86,1.44-1.71.69-1.81c.05-.13.19-.19.32-.14.13.05.19.19.14.32l-.71,1.84s-.02.05-.04.07l-1.49,1.77s-.03.04-.05.05l-1.42.92s-.09.04-.14.04Z"/>
        <path class="cls-4" d="m268.27,280.94h-53.72c-.09,0-.17-.05-.22-.12l-26.82-46.48c-.04-.08-.04-.17,0-.25l26.82-46.55c.04-.08.13-.12.22-.12h53.72c.09,0,.17.05.22.12l26.89,46.55c.04.08.04.17,0,.25l-26.89,46.48c-.04.08-.13.12-.22.12Zm-53.57-.5h53.43l26.75-46.23-26.75-46.3h-53.43l-26.68,46.3,26.68,46.23Z"/>
      </g>
      <g>
        <path class="cls-4" d="m246.43,255.06h-13.2v-1.11c1.45-.07,2.47-.22,3.06-.45.93-.41,1.39-1.19,1.39-2.34,0-.93-.32-2.26-.95-4.01l-2.01-5.51h-15.59l-2.78,7.07c-.3.74-.45,1.56-.45,2.45,0,1.19.45,1.97,1.34,2.34.41.22,1.19.37,2.34.45v1.11h-10.19v-1.11c.48-.07.96-.17,1.45-.28.45-.11.87-.43,1.28-.95,1.04-1.33,2.39-4.27,4.06-8.8l11.25-30.57h.22l13.2,35.14c.82,2.23,1.71,3.73,2.67,4.51.56.45,1.52.76,2.9.95v1.11Zm-12.42-15.48l-7.02-20.44-7.35,20.44h14.37Z"/>
        <path class="cls-4" d="m272.49,241.53c0,3.34-.72,6.31-2.17,8.91-2.04,3.56-5.14,5.35-9.3,5.35-3.41,0-6.2-1.52-8.35-4.57-2.3-3.34-3.45-8.09-3.45-14.26s2.08-11.86,6.24-16.65c4.16-4.75,9.39-7.31,15.7-7.68l.33,1.11c-5.2,1-9.35,3.27-12.47,6.79-2.86,3.16-4.57,6.94-5.12,11.36,2.41-2.45,5.31-3.67,8.69-3.67,2.9,0,5.27,1.23,7.13,3.67,1.86,2.38,2.78,5.59,2.78,9.63Zm-3.4,2.45c.04-3.79-.61-6.87-1.95-9.24-1.56-2.86-3.9-4.18-7.02-3.96-2.75.22-4.83,1.17-6.24,2.84-.89,1-1.34,2.88-1.34,5.62,0,4.9,1,8.69,3.01,11.36,1.71,2.23,3.79,3.34,6.24,3.34,2.01,0,3.66-.76,4.96-2.28,1.52-1.74,2.3-4.31,2.34-7.68Z"/>
      </g>
      <g>
        <path class="cls-4" d="m572.05,809.87h-59.39c-.14,0-.25-.11-.25-.25s.11-.25.25-.25h59.39c.14,0,.25.11.25.25s-.11.25-.25.25Z"/>
        <path class="cls-4" d="m572.05,827.12h-59.39c-.14,0-.25-.11-.25-.25v-17.24c0-.14.11-.25.25-.25s.25.11.25.25v16.99h59.14c.14,0,.25.11.25.25s-.11.25-.25.25Z"/>
        <path class="cls-4" d="m512.66,827.12h-153.2c-.14,0-.25-.11-.25-.25s.11-.25.25-.25h153.2c.14,0,.25.11.25.25s-.11.25-.25.25Z"/>
        <path class="cls-4" d="m512.66,809.87h-153.2c-.14,0-.25-.11-.25-.25s.11-.25.25-.25h153.2c.14,0,.25.11.25.25s-.11.25-.25.25Z"/>
        <path class="cls-4" d="m365.2,821.37c-.14,0-.25-.11-.25-.25v-11.5c0-.14.11-.25.25-.25s.25.11.25.25v11.5c0,.14-.11.25-.25.25Z"/>
        <path class="cls-4" d="m506.91,821.37c-.14,0-.25-.11-.25-.25v-11.5c0-.14.11-.25.25-.25s.25.11.25.25v11.5c0,.14-.11.25-.25.25Z"/>
        <path class="cls-4" d="m439.85,817.54h-74.65c-.14,0-.25-.11-.25-.25s.11-.25.25-.25h74.65c.14,0,.25.11.25.25s-.11.25-.25.25Z"/>
        <path class="cls-4" d="m506.91,813.71h-74.72c-.14,0-.25-.11-.25-.25s.11-.25.25-.25h74.72c.14,0,.25.11.25.25s-.11.25-.25.25Z"/>
        <path class="cls-4" d="m512.66,821.37h-153.2c-.14,0-.25-.11-.25-.25s.11-.25.25-.25h153.2c.14,0,.25.11.25.25s-.11.25-.25.25Z"/>
        <path class="cls-4" d="m436.02,825.2c-.14,0-.25-.11-.25-.25v-19.16c0-.14.11-.25.25-.25s.25.11.25.25v19.16c0,.14-.11.25-.25.25Z"/>
        <path class="cls-4" d="m359.45,827.12c-.14,0-.25-.11-.25-.25v-17.24c0-.14.11-.25.25-.25s.25.11.25.25v17.24c0,.14-.11.25-.25.25Z"/>
        <path class="cls-4" d="m461.92,134.54c-.14,0-.25-.11-.25-.25V28.99c0-.14.11-.25.25-.25s.25.11.25.25v105.31c0,.14-.11.25-.25.25Z"/>
        <path class="cls-4" d="m466.67,134.54c-.14,0-.25-.11-.25-.25V28.99c0-.14.11-.25.25-.25s.25.11.25.25v105.31c0,.14-.11.25-.25.25Z"/>
        <path class="cls-4" d="m513.22,134.54h0c-.09,0-.17-.05-.21-.12l-5.39-9.08c-.05-.08-.05-.17,0-.25.04-.08.13-.13.22-.13h10.79c.09,0,.17.05.22.13.04.08.04.17,0,.25l-5.39,9.08c-.04.08-.13.12-.21.12Zm-4.95-9.08l4.95,8.34,4.95-8.34h-9.91Z"/>
        <path class="cls-4" d="m466.67,29.24h-4.75c-.14,0-.25-.11-.25-.25s.11-.25.25-.25h4.75c.14,0,.25.11.25.25s-.11.25-.25.25Z"/>
        <path class="cls-4" d="m466.67,79.98c-.14,0-.25-.11-.25-.25v-2.91c0-.14.11-.25.25-.25s.25.11.25.25v2.91c0,.14-.11.25-.25.25Z"/>
        <path class="cls-4" d="m466.67,32.08h-2.84c-.14,0-.25-.11-.25-.25s.11-.25.25-.25h2.84c.14,0,.25.11.25.25s-.11.25-.25.25Z"/>
        <polygon class="cls-4" points="463.83 31.69 463.76 31.76 463.69 31.83 463.76 31.9 463.83 31.97 463.91 31.9 463.98 31.83 463.91 31.76 463.83 31.69"/>
        <polygon class="cls-2" points="463.83 31.69 463.76 31.76 463.69 31.83 463.76 31.9 463.83 31.97 463.91 31.9 463.98 31.83 463.91 31.76 463.83 31.69"/>
        <path class="cls-4" d="m463.83,32.08h-1.92c-.14,0-.25-.11-.25-.25s.11-.25.25-.25h1.92c.14,0,.25.11.25.25s-.11.25-.25.25Z"/>
        <path class="cls-4" d="m461.92,79.98c-.14,0-.25-.11-.25-.25v-2.91c0-.14.11-.25.25-.25s.25.11.25.25v2.91c0,.14-.11.25-.25.25Z"/>
        <path class="cls-4" d="m466.67,134.54h-4.75c-.14,0-.25-.11-.25-.25s.11-.25.25-.25h4.5v-2.59c0-.14.11-.25.25-.25s.25.11.25.25v2.84c0,.14-.11.25-.25.25Z"/>
        <path class="cls-4" d="m466.67,83.81h-2.84c-.14,0-.25-.11-.25-.25s.11-.25.25-.25h2.84c.14,0,.25.11.25.25s-.11.25-.25.25Z"/>
        <polygon class="cls-4" points="463.83 83.42 463.76 83.49 463.69 83.56 463.76 83.63 463.83 83.7 463.91 83.63 463.98 83.56 463.91 83.49 463.83 83.42"/>
        <polygon class="cls-2" points="463.83 83.42 463.76 83.49 463.69 83.56 463.76 83.63 463.83 83.7 463.91 83.63 463.98 83.56 463.91 83.49 463.83 83.42"/>
        <path class="cls-4" d="m463.83,83.81h-1.92c-.14,0-.25-.11-.25-.25s.11-.25.25-.25h1.92c.14,0,.25.11.25.25s-.11.25-.25.25Z"/>
        <path class="cls-4" d="m461.92,134.54c-.14,0-.25-.11-.25-.25v-2.84c0-.14.11-.25.25-.25s.25.11.25.25v2.84c0,.14-.11.25-.25.25Z"/>
        <path class="cls-4" d="m461.92,168.11h-214.58c-.14,0-.25-.11-.25-.25s.11-.25.25-.25h214.58c.14,0,.25.11.25.25s-.11.25-.25.25Z"/>
        <path class="cls-4" d="m471.5,177.69h-224.16c-.14,0-.25-.11-.25-.25v-9.58c0-.14.11-.25.25-.25s.25.11.25.25v9.33h223.91c.14,0,.25.11.25.25s-.11.25-.25.25Z"/>
        <path class="cls-4" d="m65.89,577.05c-.14,0-.25-.11-.25-.25v-1.85c0-.14.11-.25.25-.25s.25.11.25.25v1.85c0,.14-.11.25-.25.25Z"/>
        <path class="cls-4" d="m66.17,577.27c-.14,0-.25-.11-.25-.25v-2.27c0-.14.11-.25.25-.25s.25.11.25.25v2.27c0,.14-.11.25-.25.25Z"/>
        <path class="cls-4" d="m65.89,575.21h-.71c-.14,0-.25-.11-.25-.25s.11-.25.25-.25h.71c.14,0,.25.11.25.25s-.11.25-.25.25Z"/>
        <path class="cls-4" d="m65.89,577.05h-.71c-.14,0-.25-.11-.25-.25s.11-.25.25-.25h.71c.14,0,.25.11.25.25s-.11.25-.25.25Z"/>
        <path class="cls-4" d="m65.89,575.21c-.08,0-.15-.03-.2-.1-.08-.11-.06-.27.05-.35l.28-.21c.11-.08.27-.06.35.05.08.11.06.27-.05.35l-.28.21s-.1.05-.15.05Z"/>
        <path class="cls-4" d="m66.17,577.27c-.05,0-.11-.02-.15-.05l-.28-.21c-.11-.08-.13-.24-.05-.35s.24-.13.35-.05l.28.21c.11.08.13.24.05.35-.05.07-.12.1-.2.1Z"/>
        <path class="cls-4" d="m65.18,577.05c-.14,0-.25-.11-.25-.25v-1.85c0-.14.11-.25.25-.25s.25.11.25.25v1.85c0,.14-.11.25-.25.25Z"/>
        <path class="cls-4" d="m65.18,575.35h-1.21c-.14,0-.25-.11-.25-.25s.11-.25.25-.25h1.21c.14,0,.25.11.25.25s-.11.25-.25.25Z"/>
        <path class="cls-4" d="m65.18,576.91h-1.21c-.14,0-.25-.11-.25-.25s.11-.25.25-.25h1.21c.14,0,.25.11.25.25s-.11.25-.25.25Z"/>
        <path class="cls-4" d="m66.88,575h-.71c-.14,0-.25-.11-.25-.25s.11-.25.25-.25h.71c.14,0,.25.11.25.25s-.11.25-.25.25Z"/>
        <path class="cls-4" d="m66.88,577.27h-.71c-.14,0-.25-.11-.25-.25s.11-.25.25-.25h.71c.14,0,.25.11.25.25s-.11.25-.25.25Z"/>
        <path class="cls-4" d="m73.2,576.13h-.78c-.14,0-.25-.11-.25-.25s.11-.25.25-.25h.78c.14,0,.25.11.25.25s-.11.25-.25.25Z"/>
        <path class="cls-4" d="m80.15,576.13h-6.24c-.14,0-.25-.11-.25-.25s.11-.25.25-.25h6.24c.14,0,.25.11.25.25s-.11.25-.25.25Z"/>
        <path class="cls-4" d="m75.04,568.61h-3.41c-.14,0-.25-.11-.25-.25s.11-.25.25-.25h3.41c.14,0,.25.11.25.25s-.11.25-.25.25Z"/>
        <path class="cls-4" d="m75.04,583.51h-3.41c-.14,0-.25-.11-.25-.25s.11-.25.25-.25h3.41c.14,0,.25.11.25.25s-.11.25-.25.25Z"/>
        <path class="cls-4" d="m71.64,573.15c-.14,0-.25-.11-.25-.25v-4.54c0-.14.11-.25.25-.25s.25.11.25.25v4.54c0,.14-.11.25-.25.25Z"/>
        <path class="cls-4" d="m75.04,572.8c-.14,0-.25-.11-.25-.25v-4.19c0-.14.11-.25.25-.25s.25.11.25.25v4.19c0,.14-.11.25-.25.25Z"/>
        <path class="cls-4" d="m75.04,579.18h-3.41c-.14,0-.25-.11-.25-.25s.11-.25.25-.25h3.41c.14,0,.25.11.25.25s-.11.25-.25.25Z"/>
        <path class="cls-4" d="m75.04,572.72h-3.41c-.14,0-.25-.11-.25-.25s.11-.25.25-.25h3.41c.14,0,.25.11.25.25s-.11.25-.25.25Z"/>
        <path class="cls-4" d="m67.38,574.29c-.13,0-.24-.1-.25-.24,0-.14.1-.25.24-.26l3.33-.14h.01c.13,0,.24.1.25.24,0,.14-.1.25-.24.26l-3.33.14h-.01Z"/>
        <path class="cls-4" d="m70.71,578.05h0l-3.33-.07c-.14,0-.25-.12-.25-.26,0-.14.11-.24.25-.24h0l3.33.07c.14,0,.25.12.25.26,0,.14-.11.24-.25.24Z"/>
        <path class="cls-4" d="m76.6,578.47h-.92c-.14,0-.25-.11-.25-.25s.11-.25.25-.25h.92c.14,0,.25.11.25.25s-.11.25-.25.25Z"/>
        <path class="cls-4" d="m77.24,577.76c-.14,0-.25-.11-.25-.25v-3.69c0-.14.11-.25.25-.25s.25.11.25.25v3.69c0,.14-.11.25-.25.25Z"/>
        <path class="cls-4" d="m76.6,573.43h-.92c-.14,0-.25-.11-.25-.25s.11-.25.25-.25h.92c.14,0,.25.11.25.25s-.11.25-.25.25Z"/>
        <path class="cls-4" d="m66.97,577.65c-.11,0-.21-.07-.24-.18-.32-1.09-.32-2.23.02-3.31.04-.13.18-.21.31-.16.13.04.21.18.16.31-.31.99-.31,2.03-.02,3.02.04.13-.04.27-.17.31-.02,0-.05.01-.07.01Z"/>
        <path class="cls-4" d="m75.68,576.63c-.14,0-.25-.11-.25-.25v-.99c0-.14.11-.25.25-.25s.25.11.25.25v.99c0,.14-.11.25-.25.25Z"/>
        <path class="cls-4" d="m76.04,576.77c-.14,0-.25-.11-.25-.25v-1.28c0-.14.11-.25.25-.25s.25.11.25.25v1.28c0,.14-.11.25-.25.25Z"/>
        <path class="cls-4" d="m76.39,576.77h-.35c-.14,0-.25-.11-.25-.25s.11-.25.25-.25h.1v-.78h-.06l-.31.12c-.13.05-.27-.01-.33-.14-.05-.13.01-.27.14-.32l.36-.14s.06-.02.09-.02h.35c.14,0,.25.11.25.25v1.28c0,.14-.11.25-.25.25Z"/>
        <path class="cls-4" d="m77.81,575.92s-.05,0-.07-.01l-1.42-.43c-.13-.04-.21-.18-.17-.31.04-.13.17-.21.31-.17l1.42.43c.13.04.21.18.17.31-.03.11-.13.18-.24.18Z"/>
        <path class="cls-4" d="m76.39,576.77c-.11,0-.21-.08-.24-.19-.03-.13.05-.27.18-.3l1.42-.35c.14-.04.27.05.3.18.03.13-.05.27-.18.3l-1.42.35s-.04,0-.06,0Z"/>
        <path class="cls-4" d="m76.04,576.77s-.06,0-.09-.02l-.36-.14c-.13-.05-.19-.2-.14-.32.05-.13.2-.19.33-.14l.36.14c.13.05.19.2.14.32-.04.1-.13.16-.23.16Z"/>
        <path class="cls-4" d="m66.97,574.49s-.05,0-.07-.01c-.13-.04-.21-.18-.17-.31.08-.26.32-.44.59-.45.16.01.25.1.26.24,0,.14-.1.25-.24.26-.06,0-.11.04-.13.1-.03.11-.13.18-.24.18Z"/>
        <path class="cls-4" d="m67.33,577.9h0c-.28,0-.52-.19-.6-.46-.04-.13.04-.27.17-.31.13-.04.27.04.31.17.02.06.07.1.13.1.14,0,.25.12.24.26,0,.14-.11.24-.25.24Z"/>
        <path class="cls-4" d="m76.57,578.4c-.14,0-.25-.11-.25-.25s.11-.25.25-.25c.23,0,.42-.19.42-.42,0-.14.11-.25.25-.25s.25.11.25.25c0,.51-.41.92-.92.92Z"/>
        <path class="cls-4" d="m75.04,583.51c-.14,0-.25-.11-.25-.25v-4.4c0-.14.11-.25.25-.25s.25.11.25.25v4.4c0,.14-.11.25-.25.25Z"/>
        <path class="cls-4" d="m74.97,579.08c-.14,0-.25-.11-.25-.25,0-.51.41-.92.92-.92.14,0,.25.11.25.25s-.11.25-.25.25c-.23,0-.42.19-.42.42,0,.14-.11.25-.25.25Z"/>
        <path class="cls-4" d="m74.9,578.19h0l-2.34-.07c-.14,0-.25-.12-.24-.26,0-.14.12-.24.25-.24h0l2.34.07c.14,0,.25.12.24.26,0,.14-.12.24-.25.24Z"/>
        <path class="cls-4" d="m71.57,578.93c-.14,0-.25-.11-.25-.25,0-.39-.3-.7-.69-.71-.14,0-.25-.12-.24-.26,0-.14.11-.24.25-.24h0c.66.02,1.18.55,1.18,1.21,0,.14-.11.25-.25.25Z"/>
        <path class="cls-4" d="m72.56,578.12h0l-1.84-.07c-.14,0-.25-.12-.24-.26,0-.13.12-.24.25-.24h0l1.84.07c.14,0,.25.12.24.26,0,.13-.12.24-.25.24Z"/>
        <path class="cls-4" d="m77.24,574.04c-.14,0-.25-.11-.25-.25,0-.23-.19-.42-.42-.42-.14,0-.25-.11-.25-.25s.11-.25.25-.25c.51,0,.92.41.92.92,0,.14-.11.25-.25.25Z"/>
        <path class="cls-4" d="m75.65,573.43c-.51,0-.92-.41-.92-.92,0-.14.11-.25.25-.25s.25.11.25.25c0,.23.19.42.42.42.14,0,.25.11.25.25s-.11.25-.25.25Z"/>
        <path class="cls-4" d="m70.64,574.07c-.13,0-.25-.11-.25-.24,0-.14.1-.25.24-.26.38-.01.68-.33.68-.71,0-.14.11-.25.25-.25s.25.11.25.25c0,.65-.51,1.18-1.16,1.21h0Z"/>
        <path class="cls-4" d="m70.71,574.14c-.13,0-.24-.1-.25-.24,0-.14.1-.25.24-.26l3.05-.14c.14-.02.25.1.26.24,0,.14-.1.25-.24.26l-3.05.14s0,0-.01,0Z"/>
        <path class="cls-4" d="m71.64,583.51c-.14,0-.25-.11-.25-.25v-4.54c0-.14.11-.25.25-.25s.25.11.25.25v4.54c0,.14-.11.25-.25.25Z"/>
        <path class="cls-4" d="m116.62,604.87h-52.65c-.14,0-.25-.11-.25-.25v-57.48c0-.14.11-.25.25-.25h52.65c.14,0,.25.11.25.25v57.48c0,.14-.11.25-.25.25Zm-52.4-.5h52.15v-56.98h-52.15v56.98Z"/>
        <path class="cls-4" d="m112.79,594.3c-.14,0-.25-.11-.25-.25v-36.33c0-.14.11-.25.25-.25s.25.11.25.25v36.33c0,.14-.11.25-.25.25Z"/>
        <path class="cls-4" d="m109.92,597.14c-.14,0-.25-.11-.25-.25s.11-.25.25-.25c1.45,0,2.62-1.18,2.62-2.62,0-.14.11-.25.25-.25s.25.11.25.25c0,1.72-1.4,3.12-3.12,3.12Z"/>
        <path class="cls-4" d="m109.96,555.06h-35.48c-.14,0-.25-.11-.25-.25s.11-.25.25-.25h35.48c.14,0,.25.11.25.25s-.11.25-.25.25Z"/>
        <path class="cls-4" d="m112.79,557.93c-.14,0-.25-.11-.25-.25,0-1.45-1.18-2.62-2.62-2.62-.14,0-.25-.11-.25-.25s.11-.25.25-.25c1.72,0,3.12,1.4,3.12,3.12,0,.14-.11.25-.25.25Z"/>
        <path class="cls-4" d="m68.73,604.87c-.14,0-.25-.11-.25-.25v-57.48c0-.14.11-.25.25-.25s.25.11.25.25v57.48c0,.14-.11.25-.25.25Z"/>
        <path class="cls-4" d="m71.64,594.3c-.14,0-.25-.11-.25-.25v-36.33c0-.14.11-.25.25-.25s.25.11.25.25v36.33c0,.14-.11.25-.25.25Z"/>
        <path class="cls-4" d="m71.57,557.93c-.14,0-.25-.11-.25-.25,0-1.72,1.4-3.12,3.12-3.12.14,0,.25.11.25.25s-.11.25-.25.25c-1.45,0-2.62,1.18-2.62,2.62,0,.14-.11.25-.25.25Z"/>
        <path class="cls-4" d="m74.44,597.14c-1.72,0-3.12-1.4-3.12-3.12,0-.14.11-.25.25-.25s.25.11.25.25c0,1.45,1.18,2.62,2.62,2.62.14,0,.25.11.25.25s-.11.25-.25.25Z"/>
        <path class="cls-4" d="m109.96,597.21h-35.48c-.14,0-.25-.11-.25-.25s.11-.25.25-.25h35.48c.14,0,.25.11.25.25s-.11.25-.25.25Z"/>
        <path class="cls-4" d="m63.97,576.91c-.14,0-.25-.11-.25-.25v-1.56c0-.14.11-.25.25-.25s.25.11.25.25v1.56c0,.14-.11.25-.25.25Z"/>
        <path class="cls-4" d="m92.18,579.89c-2.23,0-4.05-1.82-4.05-4.05s1.82-4.05,4.05-4.05,4.05,1.82,4.05,4.05-1.82,4.05-4.05,4.05Zm0-7.59c-1.96,0-3.55,1.59-3.55,3.55s1.59,3.55,3.55,3.55,3.55-1.59,3.55-3.55-1.59-3.55-3.55-3.55Z"/>
        <path class="cls-4" d="m116.62,729.41h-47.9c-.14,0-.25-.11-.25-.25v-71.88c0-.14.11-.25.25-.25h47.9c.14,0,.25.11.25.25v71.88c0,.14-.11.25-.25.25Zm-47.65-.5h47.4v-71.38h-47.4v71.38Z"/>
        <path class="cls-4" d="m115.7,728.41h-45.98c-.14,0-.25-.11-.25-.25v-69.9c0-.14.11-.25.25-.25h45.98c.14,0,.25.11.25.25v69.9c0,.14-.11.25-.25.25Zm-45.73-.5h45.48v-69.4h-45.48v69.4Z"/>
        <path class="cls-4" d="m121.45,743.74h-57.48c-.14,0-.25-.11-.25-.25v-201.1c0-.14.11-.25.25-.25h57.48c.14,0,.25.11.25.25v201.1c0,.14-.11.25-.25.25Zm-57.23-.5h56.98v-200.6h-56.98v200.6Z"/>
        <path class="cls-4" d="m90.26,720.25c-5.4,0-9.79-4.39-9.79-9.79s4.39-9.79,9.79-9.79,9.79,4.39,9.79,9.79-4.39,9.79-9.79,9.79Zm0-19.09c-5.12,0-9.29,4.17-9.29,9.29s4.17,9.29,9.29,9.29,9.29-4.17,9.29-9.29-4.17-9.29-9.29-9.29Z"/>
        <path class="cls-4" d="m90.26,685.76c-5.4,0-9.79-4.39-9.79-9.79s4.39-9.79,9.79-9.79,9.79,4.39,9.79,9.79-4.39,9.79-9.79,9.79Zm0-19.09c-5.12,0-9.29,4.17-9.29,9.29s4.17,9.29,9.29,9.29,9.29-4.17,9.29-9.29-4.17-9.29-9.29-9.29Z"/>
        <path class="cls-4" d="m90.3,677.75c-.14,0-.25-.11-.25-.25v-2.98c0-.14.11-.25.25-.25s.25.11.25.25v2.98c0,.14-.11.25-.25.25Z"/>
        <path class="cls-4" d="m91.79,676.26h-2.98c-.14,0-.25-.11-.25-.25s.11-.25.25-.25h2.98c.14,0,.25.11.25.25s-.11.25-.25.25Z"/>
        <path class="cls-4" d="m90.3,712.23c-.14,0-.25-.11-.25-.25v-2.98c0-.14.11-.25.25-.25s.25.11.25.25v2.98c0,.14-.11.25-.25.25Z"/>
        <path class="cls-4" d="m91.79,710.74h-2.98c-.14,0-.25-.11-.25-.25s.11-.25.25-.25h2.98c.14,0,.25.11.25.25s-.11.25-.25.25Z"/>
        <path class="cls-4" d="m256.91,29.24h-9.58c-.14,0-.25-.11-.25-.25s.11-.25.25-.25h9.58c.14,0,.25.11.25.25s-.11.25-.25.25Z"/>
        <path class="cls-4" d="m461.92,134.54c-.14,0-.25-.11-.25-.25V28.99c0-.14.11-.25.25-.25s.25.11.25.25v105.31c0,.14-.11.25-.25.25Z"/>
        <path class="cls-4" d="m466.67,134.54c-.14,0-.25-.11-.25-.25V28.99c0-.14.11-.25.25-.25s.25.11.25.25v105.31c0,.14-.11.25-.25.25Z"/>
        <path class="cls-4" d="m512.73,134.54c-.09,0-.17-.05-.21-.12l-5.39-9.08c-.05-.08-.05-.17,0-.25.04-.08.13-.13.22-.13h10.79c.09,0,.17.05.22.13.04.08.04.17,0,.25l-5.39,9.08c-.04.08-.13.12-.21.12Zm-4.95-9.08l4.95,8.34,4.95-8.34h-9.91Z"/>
        <path class="cls-4" d="m466.67,86.65h-4.75c-.14,0-.25-.11-.25-.25s.11-.25.25-.25h4.75c.14,0,.25.11.25.25s-.11.25-.25.25Z"/>
        <path class="cls-4" d="m466.67,79.98c-.14,0-.25-.11-.25-.25v-2.91c0-.14.11-.25.25-.25s.25.11.25.25v2.91c0,.14-.11.25-.25.25Z"/>
        <path class="cls-4" d="m466.67,83.81h-2.84c-.14,0-.25-.11-.25-.25s.11-.25.25-.25h2.84c.14,0,.25.11.25.25s-.11.25-.25.25Z"/>
        <polygon class="cls-4" points="463.83 83.42 463.76 83.49 463.69 83.56 463.76 83.63 463.83 83.7 463.91 83.63 463.98 83.56 463.91 83.49 463.83 83.42"/>
        <polygon class="cls-2" points="463.83 83.42 463.76 83.49 463.69 83.56 463.76 83.63 463.83 83.7 463.91 83.63 463.98 83.56 463.91 83.49 463.83 83.42"/>
        <path class="cls-4" d="m463.83,83.81h-1.92c-.14,0-.25-.11-.25-.25s.11-.25.25-.25h1.92c.14,0,.25.11.25.25s-.11.25-.25.25Z"/>
        <path class="cls-4" d="m461.92,79.98c-.14,0-.25-.11-.25-.25v-2.91c0-.14.11-.25.25-.25s.25.11.25.25v2.91c0,.14-.11.25-.25.25Z"/>
        <path class="cls-4" d="m501.23,70.68c-.06,0-.13-.02-.18-.07l-36.54-36.54c-.1-.1-.1-.26,0-.35s.26-.1.35,0l36.54,36.54c.1.1.1.26,0,.35-.05.05-.11.07-.18.07Z"/>
        <path class="cls-4" d="m503.29,68.62c-.06,0-.13-.02-.18-.07l-36.62-36.54c-.1-.1-.1-.26,0-.35.1-.1.25-.1.35,0l36.62,36.54c.1.1.1.26,0,.35-.05.05-.11.07-.18.07Z"/>
        <path class="cls-4" d="m466.64,83.74c-.14,0-.25-.11-.25-.25s.11-.25.25-.25c13.74,0,26.66-5.35,36.38-15.07.1-.1.26-.1.35,0s.1.26,0,.35c-9.81,9.81-22.86,15.21-36.73,15.21Z"/>
        <path class="cls-4" d="m461.92,168.11h-205c-.14,0-.25-.11-.25-.25s.11-.25.25-.25h205c.14,0,.25.11.25.25s-.11.25-.25.25Z"/>
        <path class="cls-4" d="m471.5,177.69h-224.16c-.14,0-.25-.11-.25-.25s.11-.25.25-.25h224.16c.14,0,.25.11.25.25s-.11.25-.25.25Z"/>
        <path class="cls-4" d="m256.91,168.11c-.14,0-.25-.11-.25-.25v-57.48c0-.14.11-.25.25-.25s.25.11.25.25v57.48c0,.14-.11.25-.25.25Z"/>
        <path class="cls-4" d="m333.55,168.11c-.14,0-.25-.11-.25-.25v-57.23h-76.39c-.14,0-.25-.11-.25-.25s.11-.25.25-.25h76.64c.14,0,.25.11.25.25v57.48c0,.14-.11.25-.25.25Z"/>
        <path class="cls-4" d="m297.24,152.93c-.13,0-.24-.1-.25-.23,0-.14.09-.26.23-.27,2.13-.15,4.25-.53,6.29-1.15.14-.04.27.04.31.17.04.13-.04.27-.17.31-2.08.63-4.23,1.02-6.4,1.17,0,0-.01,0-.02,0Z"/>
        <path class="cls-4" d="m303.57,151.78c-.11,0-.21-.07-.24-.18-.04-.13.04-.27.17-.31,2.33-.7,4.52-1.79,6.49-3.22.11-.08.27-.06.35.06s.06.27-.05.35c-2.02,1.47-4.25,2.58-6.64,3.29-.02,0-.05.01-.07.01Z"/>
        <path class="cls-4" d="m310.21,148.59c-.08,0-.15-.04-.2-.1-.08-.11-.06-.27.05-.35,1.9-1.38,3.46-3.12,4.62-5.17.07-.12.22-.16.34-.09.12.07.16.22.09.34-1.2,2.11-2.8,3.9-4.76,5.32-.04.03-.1.05-.15.05Z"/>
        <path class="cls-4" d="m314.9,143.3s-.08-.01-.12-.03c-.12-.07-.16-.22-.09-.34.95-1.66,1.45-3.56,1.45-5.48,0-.14.11-.25.25-.25s.25.11.25.25c0,2-.52,3.98-1.52,5.73-.05.08-.13.13-.22.13Z"/>
        <path class="cls-4" d="m316.38,137.7c-.14,0-.25-.11-.25-.25,0-1.92-.5-3.81-1.45-5.48-.07-.12-.03-.27.09-.34.12-.07.27-.03.34.09.99,1.74,1.52,3.72,1.52,5.73,0,.14-.11.25-.25.25Z"/>
        <path class="cls-4" d="m314.9,132.13c-.09,0-.17-.05-.22-.13-1.16-2.04-2.72-3.78-4.62-5.17-.11-.08-.14-.24-.05-.35.08-.11.24-.14.35-.06,1.96,1.43,3.56,3.22,4.76,5.32.07.12.03.27-.09.34-.04.02-.08.03-.12.03Z"/>
        <path class="cls-4" d="m310.13,126.95c-.05,0-.1-.02-.15-.05-1.97-1.43-4.15-2.52-6.49-3.22-.13-.04-.21-.18-.17-.31.04-.13.18-.21.31-.17,2.39.72,4.62,1.83,6.64,3.29.11.08.14.24.05.35-.05.07-.12.1-.2.1Z"/>
        <path class="cls-4" d="m303.59,123.64s-.05,0-.07-.01c-2.68-.81-5.45-1.22-8.25-1.22-.14,0-.25-.11-.25-.25s.11-.25.25-.25c2.84,0,5.67.42,8.39,1.24.13.04.21.18.17.31-.03.11-.13.18-.24.18Z"/>
        <path class="cls-4" d="m286.95,123.64c-.11,0-.21-.07-.24-.18-.04-.13.04-.27.17-.31,2.72-.82,5.55-1.24,8.39-1.24.14,0,.25.11.25.25s-.11.25-.25.25c-2.8,0-5.57.41-8.25,1.22-.02,0-.05.01-.07.01Z"/>
        <path class="cls-4" d="m280.4,126.95c-.08,0-.15-.04-.2-.1-.08-.11-.06-.27.05-.35,2.02-1.47,4.25-2.58,6.64-3.29.14-.04.27.04.31.17.04.13-.04.27-.17.31-2.33.7-4.52,1.79-6.49,3.22-.04.03-.1.05-.15.05Z"/>
        <path class="cls-4" d="m275.71,132.13s-.08-.01-.12-.03c-.12-.07-.16-.22-.09-.34,1.2-2.11,2.8-3.9,4.76-5.32.11-.08.27-.06.35.06.08.11.06.27-.05.35-1.9,1.38-3.46,3.12-4.62,5.17-.05.08-.13.13-.22.13Z"/>
        <path class="cls-4" d="m274.23,137.7c-.14,0-.25-.11-.25-.25,0-2,.52-3.98,1.52-5.73.07-.12.22-.16.34-.09.12.07.16.22.09.34-.95,1.67-1.45,3.56-1.45,5.48,0,.14-.11.25-.25.25Z"/>
        <path class="cls-4" d="m275.71,143.3c-.09,0-.17-.05-.22-.13-.99-1.74-1.52-3.72-1.52-5.73,0-.14.11-.25.25-.25s.25.11.25.25c0,1.92.5,3.81,1.45,5.48.07.12.03.27-.09.34-.04.02-.08.03-.12.03Z"/>
        <path class="cls-4" d="m280.4,148.59c-.05,0-.1-.02-.15-.05-1.96-1.43-3.56-3.22-4.76-5.32-.07-.12-.03-.27.09-.34.12-.07.27-.03.34.09,1.17,2.04,2.72,3.78,4.62,5.17.11.08.14.24.05.35-.05.07-.12.1-.2.1Z"/>
        <path class="cls-4" d="m286.97,151.78s-.05,0-.07-.01c-2.39-.72-4.62-1.83-6.64-3.29-.11-.08-.14-.24-.05-.35s.24-.14.35-.06c1.97,1.43,4.15,2.52,6.49,3.22.13.04.21.18.17.31-.03.11-.13.18-.24.18Z"/>
        <path class="cls-4" d="m293.29,152.93s-.01,0-.02,0c-2.17-.15-4.32-.54-6.4-1.17-.13-.04-.21-.18-.17-.31.04-.13.17-.21.31-.17,2.04.62,4.16,1,6.29,1.15.14,0,.24.13.23.27,0,.13-.12.23-.25.23Z"/>
        <path class="cls-4" d="m302.47,158.39h-14.33c-.14,0-.25-.11-.25-.25s.11-.25.25-.25h14.33c.14,0,.25.11.25.25s-.11.25-.25.25Z"/>
        <path class="cls-4" d="m292.89,158.39s-.01,0-.02,0c-.14-.01-.24-.13-.23-.27l.85-10.72c.01-.14.14-.23.27-.23.14.01.24.13.23.27l-.85,10.72c0,.13-.12.23-.25.23Z"/>
        <path class="cls-4" d="m297.72,158.39c-.13,0-.24-.1-.25-.23l-.85-10.72c-.01-.14.09-.26.23-.27.14,0,.26.09.27.23l.85,10.72c.01.14-.09.26-.23.27,0,0-.01,0-.02,0Z"/>
        <path class="cls-4" d="m302.47,158.39c-.14,0-.25-.11-.25-.25v-4.83c0-.14.11-.25.25-.25s.25.11.25.25v4.83c0,.14-.11.25-.25.25Z"/>
        <path class="cls-4" d="m288.14,158.39c-.14,0-.25-.11-.25-.25v-4.83c0-.14.11-.25.25-.25s.25.11.25.25v4.83c0,.14-.11.25-.25.25Z"/>
        <path class="cls-4" d="m302.47,153.56h-5.11c-.14,0-.25-.11-.25-.25s.11-.25.25-.25h5.11c.14,0,.25.11.25.25s-.11.25-.25.25Z"/>
        <path class="cls-4" d="m293.32,153.56h-5.18c-.14,0-.25-.11-.25-.25s.11-.25.25-.25h5.18c.14,0,.25.11.25.25s-.11.25-.25.25Z"/>
        <path class="cls-4" d="m300.13,158.39c-.14,0-.25-.11-.25-.25v-4.83c0-.14.11-.25.25-.25s.25.11.25.25v4.83c0,.14-.11.25-.25.25Z"/>
        <path class="cls-4" d="m290.55,158.39c-.14,0-.25-.11-.25-.25v-4.83c0-.14.11-.25.25-.25s.25.11.25.25v4.83c0,.14-.11.25-.25.25Z"/>
        <path class="cls-4" d="m302.47,155.97h-4.75c-.14,0-.25-.11-.25-.25s.11-.25.25-.25h4.75c.14,0,.25.11.25.25s-.11.25-.25.25Z"/>
        <path class="cls-4" d="m300.09,158.32c-1.45,0-2.63-1.18-2.63-2.63s1.18-2.63,2.63-2.63,2.63,1.18,2.63,2.63-1.18,2.63-2.63,2.63Zm0-4.75c-1.17,0-2.13.95-2.13,2.13s.95,2.13,2.13,2.13,2.13-.95,2.13-2.13-.95-2.13-2.13-2.13Z"/>
        <path class="cls-4" d="m290.51,158.32c-1.45,0-2.63-1.18-2.63-2.63s1.18-2.63,2.63-2.63,2.63,1.18,2.63,2.63-1.18,2.63-2.63,2.63Zm0-4.75c-1.17,0-2.13.95-2.13,2.13s.95,2.13,2.13,2.13,2.13-.95,2.13-2.13-.95-2.13-2.13-2.13Z"/>
        <path class="cls-4" d="m292.89,155.97h-4.75c-.14,0-.25-.11-.25-.25s.11-.25.25-.25h4.75c.14,0,.25.11.25.25s-.11.25-.25.25Z"/>
        <path class="cls-4" d="m298.43,157.68c-.06,0-.13-.02-.18-.07-.1-.1-.1-.26,0-.35l3.41-3.41c.1-.1.26-.1.35,0s.1.26,0,.35l-3.41,3.41s-.11.07-.18.07Z"/>
        <path class="cls-4" d="m301.83,157.68c-.06,0-.13-.02-.18-.07l-3.41-3.41c-.1-.1-.1-.26,0-.35s.26-.1.35,0l3.41,3.41c.1.1.1.26,0,.35-.05.05-.11.07-.18.07Z"/>
        <path class="cls-4" d="m288.85,157.68c-.06,0-.13-.02-.18-.07-.1-.1-.1-.26,0-.35l3.41-3.41c.1-.1.26-.1.35,0s.1.26,0,.35l-3.41,3.41s-.11.07-.18.07Z"/>
        <path class="cls-4" d="m292.25,157.68c-.06,0-.13-.02-.18-.07l-3.41-3.41c-.1-.1-.1-.26,0-.35s.26-.1.35,0l3.41,3.41c.1.1.1.26,0,.35-.05.05-.11.07-.18.07Z"/>
        <path class="cls-4" d="m296.79,147.64c-.14,0-.25-.11-.25-.25,0-.7-.57-1.28-1.28-1.28s-1.28.57-1.28,1.28c0,.14-.11.25-.25.25s-.25-.11-.25-.25c0-.98.8-1.78,1.78-1.78s1.78.8,1.78,1.78c0,.14-.11.25-.25.25Z"/>
        <path class="cls-4" d="m295.2,156.9c-.67,0-1.21-.54-1.21-1.21s.54-1.21,1.21-1.21,1.21.54,1.21,1.21-.54,1.21-1.21,1.21Zm0-1.92c-.39,0-.71.32-.71.71s.32.71.71.71.71-.32.71-.71-.32-.71-.71-.71Z"/>
        <path class="cls-4" d="m296.77,147.21c-.07,0-.14-.03-.19-.09-.09-.11-.07-.26.04-.35.7-.57.96-1.52.66-2.36-.3-.85-1.11-1.42-2.01-1.42s-1.7.57-2,1.42c-.3.85-.03,1.8.66,2.36.11.09.12.24.04.35-.09.11-.25.12-.35.04-.86-.7-1.19-1.87-.82-2.92.37-1.05,1.37-1.75,2.48-1.75s2.11.7,2.48,1.75c.37,1.05.04,2.22-.82,2.92-.05.04-.1.06-.16.06Z"/>
        <path class="cls-4" d="m296.89,148.32c-.09,0-.17-.05-.22-.13-.07-.12-.02-.27.1-.34,1.25-.69,1.87-2.13,1.52-3.51-.35-1.38-1.6-2.35-3.02-2.35s-2.67.96-3.02,2.35c-.35,1.38.27,2.82,1.52,3.51.12.07.17.22.1.34s-.22.16-.34.1c-1.45-.8-2.17-2.47-1.76-4.07.41-1.6,1.85-2.72,3.51-2.72s3.1,1.12,3.51,2.72c.41,1.6-.32,3.28-1.76,4.07-.04.02-.08.03-.12.03Z"/>
        <path class="cls-4" d="m278.91,147.32s-.04,0-.06,0l-7.73-1.92c-.13-.03-.21-.17-.18-.3.03-.13.16-.21.3-.18l7.73,1.92c.13.03.21.17.18.3-.03.11-.13.19-.24.19Z"/>
        <path class="cls-4" d="m311.77,147.32c-.11,0-.21-.08-.24-.19-.03-.13.05-.27.18-.3l7.73-1.92c.13-.03.27.05.3.18s-.05.27-.18.3l-7.73,1.92s-.04,0-.06,0Z"/>
        <path class="cls-4" d="m277.3,125.3c-.07,0-.14-.03-.19-.09-.09-.11-.07-.26.04-.35,2.4-1.97,5.11-3.48,8.05-4.48.13-.04.27.03.32.16.04.13-.03.27-.16.32-2.88.98-5.54,2.46-7.9,4.39-.05.04-.1.06-.16.06Z"/>
        <path class="cls-4" d="m271.89,132.18s-.08,0-.11-.03c-.12-.06-.17-.21-.11-.34,1.36-2.69,3.22-5.02,5.55-6.93.11-.09.26-.07.35.03s.07.26-.03.35c-2.27,1.87-4.1,4.14-5.42,6.77-.04.09-.13.14-.22.14Z"/>
        <path class="cls-4" d="m270.11,139.62c-.14,0-.25-.11-.25-.25,0-2.62.62-5.24,1.8-7.57.06-.12.21-.17.34-.11.12.06.17.21.11.34-1.14,2.27-1.75,4.81-1.75,7.35,0,.14-.11.25-.25.25Z"/>
        <path class="cls-4" d="m271.89,147.08c-.09,0-.18-.05-.22-.14-1.18-2.34-1.8-4.96-1.8-7.57,0-.14.11-.25.25-.25s.25.11.25.25c0,2.54.6,5.08,1.75,7.35.06.12.01.27-.11.34-.04.02-.07.03-.11.03Z"/>
        <path class="cls-4" d="m277.38,153.98c-.06,0-.11-.02-.16-.06-2.33-1.91-4.19-4.25-5.55-6.93-.06-.12-.01-.27.11-.34.12-.06.27-.01.34.11,1.32,2.63,3.15,4.9,5.42,6.77.11.09.12.25.03.35-.05.06-.12.09-.19.09Z"/>
        <path class="cls-4" d="m285.28,158.45s-.05,0-.08-.01c-2.94-1-5.65-2.51-8.05-4.48-.11-.09-.12-.25-.04-.35.09-.11.25-.12.35-.03,2.36,1.93,5.01,3.41,7.9,4.4.13.04.2.19.16.32-.04.1-.13.17-.24.17Z"/>
        <path class="cls-4" d="m295.27,160.02c-3.42,0-6.8-.56-10.03-1.66-.13-.04-.2-.19-.16-.32.04-.13.19-.2.32-.16,3.19,1.08,6.51,1.63,9.87,1.63.14,0,.25.11.25.25s-.11.25-.25.25Z"/>
        <path class="cls-4" d="m295.27,160.02c-.14,0-.25-.11-.25-.25s.11-.25.25-.25c3.37,0,6.69-.55,9.88-1.63.13-.04.27.03.32.16.04.13-.03.27-.16.32-3.24,1.1-6.62,1.66-10.04,1.66Z"/>
        <path class="cls-4" d="m305.26,158.45c-.1,0-.2-.07-.24-.17-.04-.13.03-.27.16-.32,2.89-.98,5.54-2.46,7.9-4.4.11-.09.26-.07.35.03.09.11.07.26-.04.35-2.4,1.97-5.11,3.48-8.05,4.48-.03,0-.05.01-.08.01Z"/>
        <path class="cls-4" d="m313.23,153.98c-.07,0-.14-.03-.19-.09-.09-.11-.07-.26.04-.35,2.27-1.87,4.1-4.15,5.42-6.77.06-.12.21-.17.34-.11s.17.21.11.34c-1.36,2.69-3.22,5.02-5.55,6.93-.05.04-.1.06-.16.06Z"/>
        <path class="cls-4" d="m318.65,147.08s-.08,0-.11-.03c-.12-.06-.17-.21-.11-.34,1.14-2.27,1.75-4.81,1.75-7.35,0-.14.11-.25.25-.25s.25.11.25.25c0,2.62-.62,5.24-1.8,7.57-.04.09-.13.14-.22.14Z"/>
        <path class="cls-4" d="m320.42,139.62c-.14,0-.25-.11-.25-.25,0-2.54-.6-5.08-1.75-7.35-.06-.12-.01-.27.11-.34.12-.06.27-.01.34.11,1.18,2.34,1.8,4.96,1.8,7.57,0,.14-.11.25-.25.25Z"/>
        <path class="cls-4" d="m318.71,132.18c-.09,0-.18-.05-.22-.14-1.33-2.63-3.15-4.91-5.42-6.77-.11-.09-.12-.25-.04-.35.09-.11.25-.12.35-.03,2.33,1.91,4.19,4.24,5.55,6.93.06.12.01.27-.11.34-.04.02-.07.03-.11.03Z"/>
        <path class="cls-4" d="m313.24,125.3c-.06,0-.11-.02-.16-.06-2.36-1.93-5.01-3.41-7.9-4.39-.13-.04-.2-.19-.16-.32.04-.13.18-.2.32-.16,2.94,1,5.65,2.51,8.05,4.48.11.09.12.25.04.35-.05.06-.12.09-.19.09Z"/>
        <path class="cls-4" d="m305.22,120.94s-.05,0-.08-.01c-3.19-1.08-6.51-1.63-9.88-1.63-.14,0-.25-.11-.25-.25s.11-.25.25-.25c3.42,0,6.8.56,10.04,1.66.13.04.2.19.16.32-.04.1-.13.17-.24.17Z"/>
        <path class="cls-4" d="m285.31,120.94c-.1,0-.2-.07-.24-.17-.04-.13.03-.27.16-.32,3.24-1.1,6.61-1.66,10.03-1.66.14,0,.25.11.25.25s-.11.25-.25.25c-3.37,0-6.69.55-9.87,1.63-.03,0-.05.01-.08.01Z"/>
        <path class="cls-4" d="m276.26,124.04c-.07,0-.14-.03-.19-.09-.09-.11-.07-.26.04-.35,2.55-2.1,5.44-3.7,8.56-4.77.13-.04.27.03.32.16.04.13-.03.27-.16.32-3.07,1.04-5.9,2.62-8.41,4.68-.05.04-.1.06-.16.06Z"/>
        <path class="cls-4" d="m270.44,131.44s-.08,0-.11-.03c-.12-.06-.17-.21-.11-.34,1.46-2.89,3.47-5.4,5.97-7.46.11-.09.26-.07.35.03s.07.26-.03.35c-2.45,2.01-4.42,4.47-5.84,7.3-.04.09-.13.14-.22.14Z"/>
        <path class="cls-4" d="m268.48,139.62c-.14,0-.25-.11-.25-.25,0-2.87.68-5.74,1.98-8.31.06-.12.21-.17.34-.11.12.06.17.21.11.34-1.26,2.49-1.92,5.29-1.92,8.08,0,.14-.11.25-.25.25Z"/>
        <path class="cls-4" d="m270.43,147.81c-.09,0-.18-.05-.22-.14-1.29-2.56-1.98-5.44-1.98-8.31,0-.14.11-.25.25-.25s.25.11.25.25c0,2.79.67,5.59,1.92,8.08.06.12.01.27-.11.34-.04.02-.07.03-.11.03Z"/>
        <path class="cls-4" d="m276.34,155.24c-.06,0-.11-.02-.16-.06-2.5-2.06-4.51-4.57-5.97-7.46-.06-.12-.01-.27.11-.34.12-.06.27-.01.34.11,1.43,2.83,3.39,5.28,5.84,7.3.11.09.12.25.03.35-.05.06-.12.09-.19.09Z"/>
        <path class="cls-4" d="m284.75,159.99s-.05,0-.08-.01c-3.13-1.06-6.01-2.67-8.56-4.77-.11-.09-.12-.25-.04-.35.09-.11.25-.12.35-.03,2.51,2.06,5.34,3.63,8.41,4.68.13.04.2.19.16.32-.04.1-.13.17-.24.17Z"/>
        <path class="cls-4" d="m295.27,161.65c-3.6,0-7.15-.59-10.56-1.75-.13-.04-.2-.19-.16-.32.04-.13.19-.2.32-.16,3.36,1.14,6.86,1.72,10.4,1.72.14,0,.25.11.25.25s-.11.25-.25.25Z"/>
        <path class="cls-4" d="m295.27,161.65c-.14,0-.25-.11-.25-.25s.11-.25.25-.25c3.54,0,7.04-.58,10.4-1.72.13-.04.27.03.32.16.04.13-.03.27-.16.32-3.41,1.16-6.96,1.75-10.56,1.75Z"/>
        <path class="cls-4" d="m305.79,159.99c-.1,0-.2-.07-.24-.17-.04-.13.03-.27.16-.32,3.07-1.05,5.9-2.62,8.41-4.68.11-.09.26-.07.35.03.09.11.07.26-.04.35-2.55,2.1-5.43,3.7-8.56,4.77-.03,0-.05.01-.08.01Z"/>
        <path class="cls-4" d="m314.26,155.24c-.07,0-.14-.03-.19-.09-.09-.11-.07-.26.04-.35,2.45-2.01,4.42-4.47,5.84-7.3.06-.12.21-.17.34-.11.12.06.17.21.11.34-1.46,2.89-3.47,5.4-5.97,7.46-.05.04-.1.06-.16.06Z"/>
        <path class="cls-4" d="m320.11,147.81s-.08,0-.11-.03c-.12-.06-.17-.21-.11-.34,1.26-2.5,1.92-5.29,1.92-8.08,0-.14.11-.25.25-.25s.25.11.25.25c0,2.87-.68,5.74-1.98,8.31-.04.09-.13.14-.22.14Z"/>
        <path class="cls-4" d="m322.06,139.62c-.14,0-.25-.11-.25-.25,0-2.79-.67-5.59-1.92-8.08-.06-.12-.01-.27.11-.34.12-.06.27-.01.34.11,1.29,2.56,1.98,5.44,1.98,8.31,0,.14-.11.25-.25.25Z"/>
        <path class="cls-4" d="m320.17,131.44c-.09,0-.18-.05-.22-.14-1.43-2.83-3.39-5.28-5.84-7.3-.11-.09-.12-.25-.04-.35.09-.11.25-.12.35-.03,2.5,2.06,4.51,4.57,5.97,7.46.06.12.01.27-.11.34-.04.02-.07.03-.11.03Z"/>
        <path class="cls-4" d="m314.27,124.04c-.06,0-.11-.02-.16-.06-2.51-2.06-5.33-3.63-8.41-4.68-.13-.04-.2-.19-.16-.32.04-.13.19-.2.32-.16,3.13,1.07,6.01,2.67,8.56,4.77.11.09.12.25.03.35-.05.06-.12.09-.19.09Z"/>
        <path class="cls-4" d="m305.75,119.39s-.05,0-.08-.01c-3.36-1.14-6.86-1.72-10.4-1.72-.14,0-.25-.11-.25-.25s.11-.25.25-.25c3.6,0,7.15.59,10.56,1.75.13.04.2.19.16.32-.04.1-.13.17-.24.17Z"/>
        <path class="cls-4" d="m284.79,119.39c-.1,0-.2-.07-.24-.17-.04-.13.03-.27.16-.32,3.41-1.16,6.96-1.75,10.56-1.75.14,0,.25.11.25.25s-.11.25-.25.25c-3.54,0-7.04.58-10.4,1.72-.03,0-.05.01-.08.01Z"/>
        <path class="cls-4" d="m384.86,159.1c-.14,0-.25-.11-.25-.25v-5.75c0-.14.11-.25.25-.25h3.01v-3.23l3.76-36c.01-.14.15-.23.28-.22.14.01.24.14.22.27l-3.76,35.98v3.45c0,.14-.11.25-.25.25h-3.01v5.5c0,.14-.11.25-.25.25Z"/>
        <path class="cls-4" d="m391.89,113.84s-.02,0-.03,0c-.14-.01-.24-.14-.22-.27.79-7.46,7.04-13.09,14.54-13.09.14,0,.25.11.25.25s-.11.25-.25.25c-7.25,0-13.28,5.43-14.04,12.64-.01.13-.12.22-.25.22Z"/>
        <path class="cls-4" d="m412.17,101.05h-5.96c-.14,0-.25-.11-.25-.25s.11-.25.25-.25h5.96c.14,0,.25.11.25.25s-.11.25-.25.25Z"/>
        <path class="cls-4" d="m426.43,113.84c-.13,0-.24-.1-.25-.22-.76-7.21-6.8-12.64-14.04-12.64-.14,0-.25-.11-.25-.25s.11-.25.25-.25c7.5,0,13.75,5.63,14.54,13.09.01.14-.09.26-.22.27,0,0-.02,0-.03,0Z"/>
        <path class="cls-4" d="m430.27,166.19c-.14,0-.25-.11-.25-.25v-16.32l-3.83-35.95c-.01-.14.08-.26.22-.27.14-.01.26.08.28.22l3.83,35.98v16.35c0,.14-.11.25-.25.25Z"/>
        <path class="cls-4" d="m428.32,168.04c-.14,0-.25-.11-.25-.25s.11-.25.25-.25c.9,0,1.63-.73,1.63-1.63,0-.14.11-.25.25-.25s.25.11.25.25c0,1.17-.96,2.13-2.13,2.13Z"/>
        <path class="cls-4" d="m428.35,168.11h-38.32c-.14,0-.25-.11-.25-.25s.11-.25.25-.25h38.32c.14,0,.25.11.25.25s-.11.25-.25.25Z"/>
        <path class="cls-4" d="m390,168.04c-1.17,0-2.13-.96-2.13-2.13,0-.14.11-.25.25-.25s.25.11.25.25c0,.9.73,1.63,1.63,1.63.14,0,.25.11.25.25s-.11.25-.25.25Z"/>
        <path class="cls-4" d="m388.12,166.19c-.14,0-.25-.11-.25-.25v-6.85h-3.01c-.14,0-.25-.11-.25-.25s.11-.25.25-.25h3.26c.14,0,.25.11.25.25v7.1c0,.14-.11.25-.25.25Z"/>
        <path class="cls-4" d="m392.38,145.54s-.02,0-.03,0c-.14-.01-.24-.14-.22-.27l3.34-31.22c.01-.14.13-.24.28-.22.14.01.24.14.22.27l-3.34,31.22c-.01.13-.12.22-.25.22Z"/>
        <path class="cls-4" d="m390.67,143.49s-.02,0-.03,0c-.14-.01-.24-.14-.22-.27l3.12-29.38c.01-.14.15-.24.28-.22.14.01.24.14.22.27l-3.12,29.38c-.01.13-.12.22-.25.22Z"/>
        <path class="cls-4" d="m425.94,145.54c-.13,0-.24-.1-.25-.22l-3.26-31.22c-.01-.14.09-.26.22-.27.14-.01.26.09.28.22l3.26,31.22c.01.14-.09.26-.22.27,0,0-.02,0-.03,0Z"/>
        <path class="cls-4" d="m427.64,143.49c-.13,0-.24-.1-.25-.22l-3.12-29.38c-.01-.14.08-.26.22-.27.14-.01.26.08.28.22l3.12,29.38c.01.14-.08.26-.22.27,0,0-.02,0-.03,0Z"/>
        <path class="cls-4" d="m388.69,159.1c-.14,0-.25-.11-.25-.25v-5.75c0-.14.11-.25.25-.25s.25.11.25.25v5.75c0,.14-.11.25-.25.25Z"/>
        <path class="cls-4" d="m392.55,145.54c-.6,0-1.18-.26-1.58-.7-.4-.45-.6-1.05-.54-1.65.01-.14.14-.24.28-.22.14.01.24.14.22.27-.05.46.1.92.41,1.26s.75.54,1.21.54c.14,0,.25.11.25.25s-.11.25-.25.25Z"/>
        <path class="cls-4" d="m425.69,145.54c-.14,0-.25-.11-.25-.25s.11-.25.25-.25c.46,0,.9-.2,1.21-.54s.46-.8.41-1.26c-.01-.14.09-.26.22-.27.14-.01.26.08.28.22.06.6-.13,1.2-.54,1.65-.4.45-.98.7-1.58.7Z"/>
        <path class="cls-4" d="m425.73,145.61h-33.14c-.14,0-.25-.11-.25-.25s.11-.25.25-.25h33.14c.14,0,.25.11.25.25s-.11.25-.25.25Z"/>
        <path class="cls-4" d="m391.17,152.5c-.06,0-.12-.02-.16-.06l-3.05-2.63c-.1-.09-.12-.25-.03-.35.09-.1.25-.12.35-.03l3.05,2.63c.1.09.12.25.03.35-.05.06-.12.09-.19.09Z"/>
        <path class="cls-4" d="m427.15,152.5c-.07,0-.14-.03-.19-.09-.09-.11-.08-.26.03-.35l3.12-2.63c.11-.09.26-.08.35.03.09.11.08.26-.03.35l-3.12,2.63s-.1.06-.16.06Z"/>
        <path class="cls-4" d="m388.69,167.54c-.06,0-.13-.02-.17-.07-.1-.1-.1-.25,0-.35l2.55-2.63c.1-.1.25-.1.35,0,.1.1.1.25,0,.35l-2.55,2.63c-.05.05-.11.08-.18.08Z"/>
        <path class="cls-4" d="m429.7,167.54c-.06,0-.13-.02-.18-.07l-2.62-2.63c-.1-.1-.1-.26,0-.35s.26-.1.35,0l2.62,2.63c.1.1.1.26,0,.35-.05.05-.11.07-.18.07Z"/>
        <path class="cls-4" d="m427.36,153.1c-.14,0-.25-.11-.25-.25,0-.35-.25-.65-.6-.7-.14-.02-.23-.15-.21-.29.02-.14.15-.23.29-.21.59.09,1.02.59,1.02,1.19,0,.14-.11.25-.25.25Z"/>
        <path class="cls-4" d="m390.96,153.1c-.14,0-.25-.11-.25-.25,0-.6.43-1.1,1.02-1.19.13-.02.26.07.29.21s-.07.26-.21.29c-.35.05-.6.35-.6.7,0,.14-.11.25-.25.25Z"/>
        <path class="cls-4" d="m391.92,165.2c-.67,0-1.21-.54-1.21-1.21,0-.14.11-.25.25-.25s.25.11.25.25c0,.39.32.71.71.71.14,0,.25.11.25.25s-.11.25-.25.25Z"/>
        <path class="cls-4" d="m426.4,165.2c-.14,0-.25-.11-.25-.25s.11-.25.25-.25c.39,0,.71-.32.71-.71,0-.14.11-.25.25-.25s.25.11.25.25c0,.67-.54,1.21-1.21,1.21Z"/>
        <path class="cls-4" d="m427.36,164.28c-.14,0-.25-.11-.25-.25v-11.14c0-.14.11-.25.25-.25s.25.11.25.25v11.14c0,.14-.11.25-.25.25Z"/>
        <path class="cls-4" d="m426.44,165.2h-34.49c-.14,0-.25-.11-.25-.25s.11-.25.25-.25h34.49c.14,0,.25.11.25.25s-.11.25-.25.25Z"/>
        <path class="cls-4" d="m390.96,164.28c-.14,0-.25-.11-.25-.25v-11.14c0-.14.11-.25.25-.25s.25.11.25.25v11.14c0,.14-.11.25-.25.25Z"/>
        <path class="cls-4" d="m426.55,152.13s-.03,0-.04,0c-11.51-1.78-23.18-1.78-34.7,0-.13.02-.26-.07-.29-.21-.02-.14.07-.26.21-.29,11.56-1.78,23.29-1.78,34.85,0,.14.02.23.15.21.29-.02.12-.13.21-.25.21Z"/>
        <path class="cls-4" d="m430.23,149.87s-.03,0-.04,0c-13.95-2.56-28.09-2.56-42.04,0-.14.02-.27-.07-.29-.2-.02-.14.07-.27.2-.29,14.01-2.57,28.21-2.57,42.22,0,.14.02.23.16.2.29-.02.12-.13.21-.25.21Z"/>
        <path class="cls-4" d="m388.69,159.1h-.57c-.14,0-.25-.11-.25-.25s.11-.25.25-.25h.57c.14,0,.25.11.25.25s-.11.25-.25.25Z"/>
        <polygon class="cls-4" points="388.69 152.96 388.62 153.03 388.55 153.1 388.62 153.17 388.69 153.24 388.76 153.17 388.83 153.1 388.76 153.03 388.69 152.96"/>
        <polygon class="cls-2" points="388.69 152.96 388.62 153.03 388.55 153.1 388.62 153.17 388.69 153.24 388.76 153.17 388.83 153.1 388.76 153.03 388.69 152.96"/>
        <polygon class="cls-4" points="388.69 152.96 388.62 153.03 388.55 153.1 388.62 153.17 388.69 153.24 388.76 153.17 388.83 153.1 388.76 153.03 388.69 152.96"/>
        <polygon class="cls-2" points="388.69 152.96 388.62 153.03 388.55 153.1 388.62 153.17 388.69 153.24 388.76 153.17 388.83 153.1 388.76 153.03 388.69 152.96"/>
        <polygon class="cls-4" points="388.69 152.96 388.62 153.03 388.55 153.1 388.62 153.17 388.69 153.24 388.76 153.17 388.83 153.1 388.76 153.03 388.69 152.96"/>
        <polygon class="cls-2" points="388.69 152.96 388.62 153.03 388.55 153.1 388.62 153.17 388.69 153.24 388.76 153.17 388.83 153.1 388.76 153.03 388.69 152.96"/>
        <polygon class="cls-4" points="388.69 152.96 388.62 153.03 388.55 153.1 388.62 153.17 388.69 153.24 388.76 153.17 388.83 153.1 388.76 153.03 388.69 152.96"/>
        <polygon class="cls-2" points="388.69 152.96 388.62 153.03 388.55 153.1 388.62 153.17 388.69 153.24 388.76 153.17 388.83 153.1 388.76 153.03 388.69 152.96"/>
        <path class="cls-4" d="m388.69,153.35h-.57c-.14,0-.25-.11-.25-.25s.11-.25.25-.25h.57c.14,0,.25.11.25.25s-.11.25-.25.25Z"/>
        <path class="cls-4" d="m395.7,114.25s-.02,0-.03,0c-.14-.01-.24-.14-.22-.27.58-5.51,5.19-9.66,10.73-9.66.14,0,.25.11.25.25s-.11.25-.25.25c-5.28,0-9.68,3.96-10.23,9.21-.01.13-.12.22-.25.22Z"/>
        <path class="cls-4" d="m393.79,114.04s-.02,0-.03,0c-.14-.01-.24-.14-.22-.27.68-6.48,6.12-11.37,12.63-11.37.14,0,.25.11.25.25s-.11.25-.25.25c-6.26,0-11.48,4.7-12.14,10.92-.01.13-.12.22-.25.22Z"/>
        <path class="cls-4" d="m412.17,104.88h-5.96c-.14,0-.25-.11-.25-.25s.11-.25.25-.25h5.96c.14,0,.25.11.25.25s-.11.25-.25.25Z"/>
        <path class="cls-4" d="m412.17,102.97h-5.96c-.14,0-.25-.11-.25-.25s.11-.25.25-.25h5.96c.14,0,.25.11.25.25s-.11.25-.25.25Z"/>
        <path class="cls-4" d="m422.62,114.25c-.13,0-.24-.1-.25-.22-.55-5.25-4.95-9.21-10.23-9.21-.14,0-.25-.11-.25-.25s.11-.25.25-.25c5.54,0,10.15,4.15,10.73,9.66.01.14-.09.26-.22.27,0,0-.02,0-.03,0Z"/>
        <path class="cls-4" d="m424.53,114.04c-.13,0-.24-.1-.25-.22-.66-6.23-5.87-10.92-12.14-10.92-.14,0-.25-.11-.25-.25s.11-.25.25-.25c6.52,0,11.95,4.89,12.63,11.37.01.14-.09.26-.22.27,0,0-.02,0-.03,0Z"/>
        <path class="cls-4" d="m409.16,139.37c-2.78,0-5.04-2.26-5.04-5.04s2.26-5.04,5.04-5.04,5.04,2.26,5.04,5.04-2.26,5.04-5.04,5.04Zm0-9.58c-2.5,0-4.54,2.04-4.54,4.54s2.04,4.54,4.54,4.54,4.54-2.04,4.54-4.54-2.04-4.54-4.54-4.54Z"/>
        <path class="cls-4" d="m256.91,34.99h-9.58c-.14,0-.25-.11-.25-.25v-5.75c0-.14.11-.25.25-.25s.25.11.25.25v5.5h9.08v-5.5c0-.14.11-.25.25-.25s.25.11.25.25v5.75c0,.14-.11.25-.25.25Z"/>
        <path class="cls-4" d="m256.91,105.81c-.14,0-.25-.11-.25-.25v-5.5h-9.08v5.5c0,.14-.11.25-.25.25s-.25-.11-.25-.25v-5.75c0-.14.11-.25.25-.25h9.58c.14,0,.25.11.25.25v5.75c0,.14-.11.25-.25.25Z"/>
        <path class="cls-4" d="m254.08,100.06c-.14,0-.25-.11-.25-.25V34.74c0-.14.11-.25.25-.25s.25.11.25.25v65.07c0,.14-.11.25-.25.25Z"/>
        <path class="cls-4" d="m247.33,100.06c-.14,0-.25-.11-.25-.25V34.74c0-.14.11-.25.25-.25s.25.11.25.25v65.07c0,.14-.11.25-.25.25Z"/>
        <path class="cls-4" d="m322.06,34.99h-65.14c-.14,0-.25-.11-.25-.25s.11-.25.25-.25h65.14c.14,0,.25.11.25.25s-.11.25-.25.25Z"/>
        <path class="cls-4" d="m322.06,37.83h-65.14c-.14,0-.25-.11-.25-.25v-2.84c0-.14.11-.25.25-.25s.25.11.25.25v2.59h64.89c.14,0,.25.11.25.25s-.11.25-.25.25Z"/>
        <path class="cls-4" d="m256.88,100.06c-.14,0-.25-.11-.25-.25s.11-.25.25-.25c35.76,0,64.86-29.09,64.86-64.86,0-.14.11-.25.25-.25s.25.11.25.25c0,36.04-29.32,65.36-65.36,65.36Z"/>
        <path class="cls-4" d="m247.33,168.11c-.14,0-.25-.11-.25-.25V28.99c0-.14.11-.25.25-.25s.25.11.25.25v138.87c0,.14-.11.25-.25.25Z"/>
        <path class="cls-4" d="m256.91,37.83c-.14,0-.25-.11-.25-.25v-8.59c0-.14.11-.25.25-.25s.25.11.25.25v8.59c0,.14-.11.25-.25.25Z"/>
        <path class="cls-4" d="m256.91,168.11c-.14,0-.25-.11-.25-.25v-68.05c0-.14.11-.25.25-.25s.25.11.25.25v68.05c0,.14-.11.25-.25.25Z"/>
        <path class="cls-4" d="m256.91,105.81h-9.58c-.14,0-.25-.11-.25-.25v-5.75c0-.14.11-.25.25-.25h9.58c.14,0,.25.11.25.25v5.75c0,.14-.11.25-.25.25Zm-9.33-.5h9.08v-5.25h-9.08v5.25Z"/>
        <path class="cls-4" d="m333.55,397.95h-4.75c-.14,0-.25-.11-.25-.25v-114.88c0-.14.11-.25.25-.25h4.75c.14,0,.25.11.25.25v114.88c0,.14-.11.25-.25.25Zm-4.5-.5h4.25v-114.38h-4.25v114.38Z"/>
        <path class="cls-4" d="m338.38,388.37h-4.83c-.14,0-.25-.11-.25-.25s.11-.25.25-.25h4.58v-95.23h-4.58c-.14,0-.25-.11-.25-.25s.11-.25.25-.25h4.83c.14,0,.25.11.25.25v95.73c0,.14-.11.25-.25.25Z"/>
        <path class="cls-4" d="m328.8,395.11h-1.92c-.14,0-.25-.11-.25-.25s.11-.25.25-.25h1.92c.14,0,.25.11.25.25s-.11.25-.25.25Z"/>
        <path class="cls-4" d="m326.88,395.11c-.14,0-.25-.11-.25-.25v-109.21c0-.14.11-.25.25-.25h1.92c.14,0,.25.11.25.25s-.11.25-.25.25h-1.67v108.96c0,.14-.11.25-.25.25Z"/>
        <path class="cls-4" d="m333.2,734.09c-.1,0-.2-.06-.23-.16-.05-.13.02-.27.15-.32l5.02-1.86v-48.33l-5.02-1.86c-.13-.05-.2-.19-.15-.32.05-.13.19-.2.32-.15l5.18,1.92c.1.04.16.13.16.23v48.68c0,.1-.07.2-.16.23l-5.18,1.92s-.06.02-.09.02Z"/>
        <path class="cls-4" d="m333.2,743.74h-66.7c-.14,0-.25-.11-.25-.25v-71.81c0-.14.11-.25.25-.25h66.7c.14,0,.25.11.25.25v71.81c0,.14-.11.25-.25.25Zm-66.45-.5h66.2v-71.31h-66.2v71.31Z"/>
        <path class="cls-4" d="m270.33,743.74c-.14,0-.25-.11-.25-.25v-71.81c0-.14.11-.25.25-.25s.25.11.25.25v71.81c0,.14-.11.25-.25.25Z"/>
        <path class="cls-4" d="m557.64,522.48h-209.69c-.14,0-.25-.11-.25-.25v-57.48c0-.14.11-.25.25-.25h209.69c.14,0,.25.11.25.25v57.48c0,.14-.11.25-.25.25Zm-209.44-.5h209.19v-56.98h-209.19v56.98Z"/>
        <path class="cls-4" d="m554.81,519.65h-204.01c-.14,0-.25-.11-.25-.25v-51.73c0-.14.11-.25.25-.25h204.01c.14,0,.25.11.25.25v51.73c0,.14-.11.25-.25.25Zm-203.76-.5h203.51v-51.23h-203.51v51.23Z"/>
        <path class="cls-4" d="m554.81,492.82h-204.01c-.14,0-.25-.11-.25-.25s.11-.25.25-.25h204.01c.14,0,.25.11.25.25s-.11.25-.25.25Z"/>
        <path class="cls-4" d="m554.81,494.74h-204.01c-.14,0-.25-.11-.25-.25s.11-.25.25-.25h204.01c.14,0,.25.11.25.25s-.11.25-.25.25Z"/>
        <path class="cls-4" d="m557.64,809.87h-181.94c-.14,0-.25-.11-.25-.25v-143.69c0-.14.11-.25.25-.25h181.94c.14,0,.25.11.25.25v143.69c0,.14-.11.25-.25.25Zm-181.69-.5h181.44v-143.19h-181.44v143.19Z"/>
        <path class="cls-4" d="m524.15,809.87c-.14,0-.25-.11-.25-.25v-143.69c0-.14.11-.25.25-.25s.25.11.25.25v143.69c0,.14-.11.25-.25.25Z"/>
        <path class="cls-4" d="m494.13,809.87s-.03,0-.04,0c-.14-.02-.23-.16-.2-.29l20.44-111.48v-32.17c0-.14.11-.25.25-.25s.25.11.25.25v32.22l-20.44,111.52c-.02.12-.13.21-.25.21Z"/>
        <path class="cls-4" d="m549.98,802.21h-25.83c-.14,0-.25-.11-.25-.25v-59.39c0-.14.11-.25.25-.25h25.83c.14,0,.25.11.25.25v59.39c0,.14-.11.25-.25.25Zm-25.58-.5h25.33v-58.89h-25.33v58.89Z"/>
        <path class="cls-4" d="m549.98,733.24h-25.83c-.14,0-.25-.11-.25-.25v-59.39c0-.14.11-.25.25-.25h25.83c.14,0,.25.11.25.25v59.39c0,.14-.11.25-.25.25Zm-25.58-.5h25.33v-58.89h-25.33v58.89Z"/>
        <path class="cls-4" d="m557.64,623.04h-47.83c-.14,0-.25-.11-.25-.25v-100.55c0-.14.11-.25.25-.25h47.83c.14,0,.25.11.25.25v100.55c0,.14-.11.25-.25.25Zm-47.58-.5h47.33v-100.05h-47.33v100.05Z"/>
        <path class="cls-4" d="m509.82,594.3h-28.74c-.14,0-.25-.11-.25-.25v-43.07c0-.14.11-.25.25-.25h28.74c.14,0,.25.11.25.25v43.07c0,.14-.11.25-.25.25Zm-28.49-.5h28.24v-42.57h-28.24v42.57Z"/>
        <path class="cls-4" d="m485.83,594.3c-.14,0-.25-.11-.25-.25v-43.07c0-.14.11-.25.25-.25s.25.11.25.25v43.07c0,.14-.11.25-.25.25Z"/>
        <path class="cls-4" d="m536.14,659.58c-.14,0-.25-.11-.25-.25v-29.87c0-.14.11-.25.25-.25s.25.11.25.25v29.87c0,.14-.11.25-.25.25Z"/>
        <path class="cls-4" d="m536.11,657.24c-7.12,0-12.92-5.79-12.92-12.92s5.79-12.92,12.92-12.92,12.92,5.79,12.92,12.92-5.79,12.92-12.92,12.92Zm0-25.33c-6.85,0-12.42,5.57-12.42,12.42s5.57,12.42,12.42,12.42,12.42-5.57,12.42-12.42-5.57-12.42-12.42-12.42Z"/>
        <path class="cls-4" d="m536.11,652.63c-4.58,0-8.3-3.73-8.3-8.3s3.72-8.3,8.3-8.3,8.3,3.73,8.3,8.3-3.73,8.3-8.3,8.3Zm0-16.11c-4.3,0-7.8,3.5-7.8,7.8s3.5,7.8,7.8,7.8,7.8-3.5,7.8-7.8-3.5-7.8-7.8-7.8Z"/>
        <path class="cls-4" d="m551.04,644.61h-29.87c-.14,0-.25-.11-.25-.25s.11-.25.25-.25h29.87c.14,0,.25.11.25.25s-.11.25-.25.25Z"/>
        <path class="cls-4" d="m557.64,666.18h-43.07c-.14,0-.25-.11-.25-.25v-43.14c0-.14.11-.25.25-.25h43.07c.14,0,.25.11.25.25v43.14c0,.14-.11.25-.25.25Zm-42.82-.5h42.57v-42.64h-42.57v42.64Z"/>
        <path class="cls-4" d="m557.64,235.17h-129.5c-.14,0-.25-.11-.25-.25v-57.48c0-.14.11-.25.25-.25h129.5c.14,0,.25.11.25.25v57.48c0,.14-.11.25-.25.25Zm-129.25-.5h129v-56.98h-129v56.98Z"/>
        <path class="cls-4" d="m554.81,232.26h-123.54c-.14,0-.25-.11-.25-.25v-51.73c0-.14.11-.25.25-.25h123.54c.14,0,.25.11.25.25v51.73c0,.14-.11.25-.25.25Zm-123.29-.5h123.04v-51.23h-123.04v51.23Z"/>
        <path class="cls-4" d="m554.81,205.43h-123.54c-.14,0-.25-.11-.25-.25s.11-.25.25-.25h123.54c.14,0,.25.11.25.25s-.11.25-.25.25Z"/>
        <path class="cls-4" d="m554.81,207.35h-123.54c-.14,0-.25-.11-.25-.25s.11-.25.25-.25h123.54c.14,0,.25.11.25.25s-.11.25-.25.25Z"/>
        <path class="cls-4" d="m557.64,455.43h-181.94c-.14,0-.25-.11-.25-.25v-143.62c0-.14.11-.25.25-.25h181.94c.14,0,.25.11.25.25v143.62c0,.14-.11.25-.25.25Zm-181.69-.5h181.44v-143.12h-181.44v143.12Z"/>
        <path class="cls-4" d="m524.15,455.43c-.14,0-.25-.11-.25-.25v-143.62c0-.14.11-.25.25-.25s.25.11.25.25v143.62c0,.14-.11.25-.25.25Z"/>
        <path class="cls-4" d="m494.13,455.43s-.03,0-.04,0c-.14-.02-.23-.16-.2-.29l20.44-111.41v-32.17c0-.14.11-.25.25-.25s.25.11.25.25v32.22l-20.44,111.45c-.02.12-.13.21-.25.21Z"/>
        <path class="cls-4" d="m549.98,447.76h-25.83c-.14,0-.25-.11-.25-.25v-59.39c0-.14.11-.25.25-.25h25.83c.14,0,.25.11.25.25v59.39c0,.14-.11.25-.25.25Zm-25.58-.5h25.33v-58.89h-25.33v58.89Z"/>
        <path class="cls-4" d="m549.98,378.79h-25.83c-.14,0-.25-.11-.25-.25v-59.39c0-.14.11-.25.25-.25h25.83c.14,0,.25.11.25.25v59.39c0,.14-.11.25-.25.25Zm-25.58-.5h25.33v-58.89h-25.33v58.89Z"/>
        <path class="cls-4" d="m557.64,311.8h-47.83c-.14,0-.25-.11-.25-.25v-76.64c0-.14.11-.25.25-.25h47.83c.14,0,.25.11.25.25v76.64c0,.14-.11.25-.25.25Zm-47.58-.5h47.33v-76.14h-47.33v76.14Z"/>
        <path class="cls-4" d="m533.7,304.64c-7.12,0-12.92-5.79-12.92-12.92s5.79-12.92,12.92-12.92,12.92,5.79,12.92,12.92-5.79,12.92-12.92,12.92Zm0-25.33c-6.85,0-12.42,5.57-12.42,12.42s5.57,12.42,12.42,12.42,12.42-5.57,12.42-12.42-5.57-12.42-12.42-12.42Z"/>
        <path class="cls-4" d="m533.7,300.02c-4.58,0-8.3-3.73-8.3-8.3s3.73-8.3,8.3-8.3,8.3,3.73,8.3,8.3-3.72,8.3-8.3,8.3Zm0-16.11c-4.3,0-7.8,3.5-7.8,7.8s3.5,7.8,7.8,7.8,7.8-3.5,7.8-7.8-3.5-7.8-7.8-7.8Z"/>
        <path class="cls-4" d="m509.82,294.99h-28.74c-.14,0-.25-.11-.25-.25v-43.07c0-.14.11-.25.25-.25h28.74c.14,0,.25.11.25.25v43.07c0,.14-.11.25-.25.25Zm-28.49-.5h28.24v-42.57h-28.24v42.57Z"/>
        <path class="cls-4" d="m485.83,294.99c-.14,0-.25-.11-.25-.25v-43.07c0-.14.11-.25.25-.25s.25.11.25.25v43.07c0,.14-.11.25-.25.25Z"/>
        <path class="cls-4" d="m533.73,306.98c-.14,0-.25-.11-.25-.25v-39.45c0-.14.11-.25.25-.25s.25.11.25.25v39.45c0,.14-.11.25-.25.25Z"/>
        <path class="cls-4" d="m548.7,292.01h-29.95c-.14,0-.25-.11-.25-.25s.11-.25.25-.25h29.95c.14,0,.25.11.25.25s-.11.25-.25.25Z"/>
        <path class="cls-4" d="m193.76,879.63h-86.22c-.14,0-.25-.11-.25-.25v-42.15c0-.14.11-.25.25-.25h86.22c.14,0,.25.11.25.25v42.15c0,.14-.11.25-.25.25Zm-85.97-.5h85.72v-41.65h-85.72v41.65Z"/>
        <path class="cls-4" d="m107.54,879.63c-.09,0-.18-.05-.22-.14-.06-.12,0-.27.12-.33l86.22-42.15c.12-.06.27,0,.33.11s0,.27-.12.33l-86.22,42.15s-.07.03-.11.03Z"/>
        <path class="cls-4" d="m117.05,866.57s-.05,0-.07-.01c-.13-.04-.21-.18-.17-.31l5.82-19.16c.06-.21.41-.21.48,0l5.82,19.16c.04.13-.03.27-.17.31-.13.04-.27-.03-.31-.17l-5.58-18.37-5.58,18.37c-.03.11-.13.18-.24.18Z"/>
        <path class="cls-4" d="m126.56,860.19h-7.31c-.14,0-.25-.11-.25-.25s.11-.25.25-.25h7.31c.14,0,.25.11.25.25s-.11.25-.25.25Z"/>
        <path class="cls-4" d="m179.85,876.36h-2.91s-.09-.01-.13-.04l-1.49-.92s-.05-.03-.06-.06l-1.42-1.77s-.03-.04-.04-.06l-.78-1.84-.72-2.73s0-.04,0-.06v-4.61s0-.04,0-.06l.71-2.7.79-1.88s.02-.04.03-.06l1.42-1.85s.04-.04.07-.06l1.49-.92s.08-.04.13-.04h2.91s.1.01.14.04l1.42.92s.04.03.06.05l1.49,1.85s.03.04.04.07l.71,1.84c.05.13-.01.27-.14.32-.13.05-.27-.01-.32-.14l-.7-1.81-1.44-1.78-1.32-.86h-2.76l-1.39.86-1.37,1.78-.77,1.81-.69,2.63v4.55l.7,2.67.75,1.78,1.37,1.71,1.39.86h2.76l1.33-.86,1.44-1.71.69-1.81c.05-.13.19-.19.32-.14.13.05.19.19.14.32l-.71,1.84s-.02.05-.04.07l-1.49,1.77s-.03.04-.05.05l-1.42.92s-.09.04-.14.04Z"/>
        <path class="cls-4" d="m538.91,226.51c-.14,0-.25-.11-.25-.25v-38.32c0-.14.11-.25.25-.25s.25.11.25.25v38.32c0,.14-.11.25-.25.25Z"/>
        <path class="cls-4" d="m529.47,226.51c-.14,0-.25-.11-.25-.25v-38.32c0-.14.11-.25.25-.25s.25.11.25.25v38.32c0,.14-.11.25-.25.25Z"/>
        <path class="cls-4" d="m493.71,226.51c-.14,0-.25-.11-.25-.25v-38.32c0-.14.11-.25.25-.25s.25.11.25.25v38.32c0,.14-.11.25-.25.25Z"/>
        <path class="cls-4" d="m481.65,226.51c-.14,0-.25-.11-.25-.25v-38.32c0-.14.11-.25.25-.25s.25.11.25.25v38.32c0,.14-.11.25-.25.25Z"/>
        <path class="cls-4" d="m447.44,226.51c-.14,0-.25-.11-.25-.25v-38.32c0-.14.11-.25.25-.25s.25.11.25.25v38.32c0,.14-.11.25-.25.25Z"/>
        <path class="cls-4" d="m505.7,226.44s-.01,0-.02,0c-.14-.01-.24-.13-.23-.27l3.33-38.18c.01-.14.13-.23.27-.23.14.01.24.13.23.27l-3.33,38.18c-.01.13-.12.23-.25.23Z"/>
        <path class="cls-4" d="m457.45,226.44s-.01,0-.02,0c-.14-.01-.24-.13-.23-.27l3.33-38.18c.01-.14.14-.23.27-.23.14.01.24.13.23.27l-3.33,38.18c-.01.13-.12.23-.25.23Z"/>
        <path class="cls-4" d="m537.92,513.9c-.14,0-.25-.11-.25-.25v-38.32c0-.14.11-.25.25-.25s.25.11.25.25v38.32c0,.14-.11.25-.25.25Z"/>
        <path class="cls-4" d="m528.48,513.9c-.14,0-.25-.11-.25-.25v-38.32c0-.14.11-.25.25-.25s.25.11.25.25v38.32c0,.14-.11.25-.25.25Z"/>
        <path class="cls-4" d="m492.72,513.9c-.14,0-.25-.11-.25-.25v-38.32c0-.14.11-.25.25-.25s.25.11.25.25v38.32c0,.14-.11.25-.25.25Z"/>
        <path class="cls-4" d="m480.65,513.9c-.14,0-.25-.11-.25-.25v-38.32c0-.14.11-.25.25-.25s.25.11.25.25v38.32c0,.14-.11.25-.25.25Z"/>
        <path class="cls-4" d="m446.95,513.9c-.14,0-.25-.11-.25-.25v-38.32c0-.14.11-.25.25-.25s.25.11.25.25v38.32c0,.14-.11.25-.25.25Z"/>
        <path class="cls-4" d="m438,513.9c-.14,0-.25-.11-.25-.25v-38.32c0-.14.11-.25.25-.25s.25.11.25.25v38.32c0,.14-.11.25-.25.25Z"/>
        <path class="cls-4" d="m504.71,513.83s-.01,0-.02,0c-.14-.01-.24-.13-.23-.27l3.33-38.18c.01-.14.13-.24.27-.23.14.01.24.13.23.27l-3.33,38.18c-.01.13-.12.23-.25.23Z"/>
        <path class="cls-4" d="m456.45,513.83s-.01,0-.02,0c-.14-.01-.24-.13-.23-.27l3.34-38.18c.01-.14.14-.24.27-.23.14.01.24.13.23.27l-3.34,38.18c-.01.13-.12.23-.25.23Z"/>
        <path class="cls-4" d="m412.6,513.83c-.13,0-.24-.1-.25-.23l-3.33-38.18c-.01-.14.09-.26.23-.27.14-.01.26.09.27.23l3.33,38.18c.01.14-.09.26-.23.27,0,0-.01,0-.02,0Z"/>
        <path class="cls-4" d="m402.88,513.83c-.13,0-.24-.1-.25-.23l-3.34-38.18c-.01-.14.09-.26.23-.27.14-.01.26.09.27.23l3.34,38.18c.01.14-.09.26-.23.27,0,0-.01,0-.02,0Z"/>
        <path class="cls-4" d="m379.46,513.9c-.14,0-.25-.11-.25-.25v-38.32c0-.14.11-.25.25-.25s.25.11.25.25v38.32c0,.14-.11.25-.25.25Z"/>
        <path class="cls-4" d="m370.02,513.9c-.14,0-.25-.11-.25-.25v-38.32c0-.14.11-.25.25-.25s.25.11.25.25v38.32c0,.14-.11.25-.25.25Z"/>
        <path class="cls-4" d="m210.9,364.38c-21.25,0-38.53-17.29-38.53-38.53s17.29-38.53,38.53-38.53,38.53,17.29,38.53,38.53-17.29,38.53-38.53,38.53Zm0-76.57c-20.97,0-38.03,17.06-38.03,38.03s17.06,38.03,38.03,38.03,38.03-17.06,38.03-38.03-17.06-38.03-38.03-38.03Z"/>
        <path class="cls-4" d="m150.12,433.93H63.97c-.14,0-.25-.11-.25-.25v-215.58c0-.14.11-.25.25-.25h86.15c.14,0,.25.11.25.25v215.58c0,.14-.11.25-.25.25Zm-85.9-.5h85.65v-215.08h-85.65v215.08Z"/>
        <path class="cls-4" d="m78.31,419.52c-.14,0-.25-.11-.25-.25v-186.77c0-.14.11-.25.25-.25h71.81c.14,0,.25.11.25.25s-.11.25-.25.25h-71.56v186.52c0,.14-.11.25-.25.25Z"/>
        <path class="cls-4" d="m94.41,415.12s-.09-.01-.12-.03c-.06-.03-.1-.09-.12-.15l-11.07-41.65c-.02-.06,0-.13.03-.19.03-.06.09-.1.15-.12l17.95-4.75c.13-.04.27.04.31.18.04.13-.04.27-.18.31l-17.71,4.69,10.94,41.17,41.17-10.94-10.94-41.17-4.8,1.28c-.13.03-.27-.04-.31-.18-.04-.13.04-.27.18-.31l5.04-1.35c.07-.02.13,0,.19.03.06.03.1.09.12.15l11.07,41.65c.04.13-.04.27-.18.31l-41.65,11.07s-.04,0-.06,0Z"/>
        <path class="cls-4" d="m112.94,375.6s-.1-.01-.14-.04l-32.29-22c-.1-.07-.14-.2-.09-.31l17.17-37.11c.03-.06.08-.11.15-.13.07-.02.14-.01.2.02l37.11,22c.12.07.16.22.09.34l-22,37.11c-.04.06-.09.1-.16.12-.02,0-.04,0-.05,0Zm-31.97-22.33l31.89,21.73,21.73-36.67-36.66-21.73-16.97,36.67Z"/>
        <path class="cls-4" d="m150.12,419.52h-71.81c-.14,0-.25-.11-.25-.25s.11-.25.25-.25h71.81c.14,0,.25.11.25.25s-.11.25-.25.25Z"/>
        <path class="cls-4" d="m195.18,571.38h-43.14c-.14,0-.25-.11-.25-.25v-28.74c0-.14.11-.25.25-.25h43.14c.14,0,.25.11.25.25v28.74c0,.14-.11.25-.25.25Zm-42.89-.5h42.64v-28.24h-42.64v28.24Z"/>
        <path class="cls-4" d="m250.74,566.55h-43.14c-.14,0-.25-.11-.25-.25s.11-.25.25-.25h43.14c.14,0,.25.11.25.25s-.11.25-.25.25Z"/>
        <path class="cls-4" d="m250.74,442.02h-43.14c-.14,0-.25-.11-.25-.25s.11-.25.25-.25h43.14c.14,0,.25.11.25.25s-.11.25-.25.25Z"/>
        <path class="cls-4" d="m255.5,542.64H121.45c-.14,0-.25-.11-.25-.25v-76.64c0-.14.11-.25.25-.25h134.04c.14,0,.25.11.25.25v76.64c0,.14-.11.25-.25.25Zm-133.79-.5h133.54v-76.14H121.7v76.14Z"/>
        <path class="cls-4" d="m195.18,566.55h-43.14c-.14,0-.25-.11-.25-.25s.11-.25.25-.25h43.14c.14,0,.25.11.25.25s-.11.25-.25.25Z"/>
        <path class="cls-4" d="m250.74,571.38h-43.14c-.14,0-.25-.11-.25-.25v-28.74c0-.14.11-.25.25-.25h43.14c.14,0,.25.11.25.25v28.74c0,.14-.11.25-.25.25Zm-42.89-.5h42.64v-28.24h-42.64v28.24Z"/>
        <path class="cls-4" d="m195.18,442.02h-43.14c-.14,0-.25-.11-.25-.25s.11-.25.25-.25h43.14c.14,0,.25.11.25.25s-.11.25-.25.25Z"/>
        <path class="cls-4" d="m195.18,466h-43.14c-.14,0-.25-.11-.25-.25v-28.74c0-.14.11-.25.25-.25h43.14c.14,0,.25.11.25.25v28.74c0,.14-.11.25-.25.25Zm-42.89-.5h42.64v-28.24h-42.64v28.24Z"/>
        <path class="cls-4" d="m250.74,466h-43.14c-.14,0-.25-.11-.25-.25v-28.74c0-.14.11-.25.25-.25h43.14c.14,0,.25.11.25.25v28.74c0,.14-.11.25-.25.25Zm-42.89-.5h42.64v-28.24h-42.64v28.24Z"/>
        <path class="cls-4" d="m121.45,542.64h-57.48c-.06,0-.12-.02-.16-.06h0s-.02-.02-.03-.03c0,0,0,0,0,0h0s-.06-.1-.06-.16v-76.64c0-.14.11-.25.25-.25h57.47s.05,0,.08.01h0s0,0,0,0h0s0,0,0,0h0s.06.03.08.05c.03.02.05.05.06.08.02.03.02.06.03.1h0v76.65c0,.14-.11.25-.25.25Zm-56.98-.5h56.73v-75.64l-56.73,75.64Zm-.25-76.14v75.64l56.73-75.64h-56.73Z"/>
        <path class="cls-4" d="m572.05,896.02c-.14,0-.25-.11-.25-.25v-86.15c0-.14.11-.25.25-.25s.25.11.25.25v86.15c0,.14-.11.25-.25.25Z"/>
        <path class="cls-4" d="m121.45,743.74H48.15c-.14,0-.25-.11-.25-.25s.11-.25.25-.25h73.3c.14,0,.25.11.25.25s-.11.25-.25.25Z"/>
      </g>
    </g>
  </g>
</svg>