<?xml version="1.0" encoding="UTF-8"?>
<svg id="_圖層_2" data-name="圖層 2" xmlns="http://www.w3.org/2000/svg" viewBox="0 0 1058.61 895.34">
  <defs>
    <style>
      .cls-1 {
        stroke-miterlimit: 10;
      }

      .cls-1, .cls-2 {
        fill: none;
        stroke: #8a6e4b;
        stroke-linecap: round;
        stroke-width: 0px;
      }

      .cls-2 {
        stroke-linejoin: round;
      }

      .cls-3 {
        fill: #8a6e4b;
      }
    </style>
  </defs>
  <g id="_圖層_1-2" data-name="圖層 1">
    <g>
      <g>
        <path class="cls-3" d="m176.58,895.34H.25c-.14,0-.25-.11-.25-.25v-117.59c0-.14.11-.25.25-.25h176.33c.14,0,.25.11.25.25v117.59c0,.14-.11.25-.25.25Zm-176.08-.5h175.83v-117.09H.5v117.09Z"/>
        <path class="cls-3" d="m163.52,124.57H.25c-.14,0-.25-.11-.25-.25V.25c0-.14.11-.25.25-.25h163.27c.14,0,.25.11.25.25v124.07c0,.14-.11.25-.25.25ZM.5,124.07h162.77V.5H.5v123.57Z"/>
        <path class="cls-3" d="m6.83,292.2c-.06,0-.13-.02-.18-.07-.1-.1-.1-.26,0-.35l9.48-9.58c.1-.1.26-.1.35,0,.1.1.1.26,0,.35l-9.48,9.58s-.11.07-.18.07Z"/>
        <path class="cls-3" d="m6.83,319.88c-.06,0-.13-.02-.18-.07-.1-.1-.1-.26,0-.35l13.07-13.07c.1-.1.26-.1.35,0s.1.26,0,.35l-13.07,13.07s-.11.07-.18.07Z"/>
        <path class="cls-3" d="m19.9,321.81H6.83c-.14,0-.25-.11-.25-.25v-39.2c0-.14.11-.25.25-.25h13.07c.14,0,.25.11.25.25s-.11.25-.25.25H7.08v38.7h12.82c.14,0,.25.11.25.25s-.11.25-.25.25Z"/>
        <path class="cls-3" d="m6.83,646.9c-.06,0-.13-.02-.18-.07-.1-.1-.1-.26,0-.35l13.07-13.07c.1-.1.26-.1.35,0s.1.26,0,.35l-13.07,13.07s-.11.07-.18.07Z"/>
        <path class="cls-3" d="m10.41,665.39c-.06,0-.13-.02-.18-.07-.1-.1-.1-.26,0-.35l9.48-9.39c.1-.1.26-.1.35,0,.1.1.1.26,0,.35l-9.48,9.39s-.11.07-.18.07Z"/>
        <path class="cls-3" d="m19.9,665.39H6.83c-.14,0-.25-.11-.25-.25v-39.2c0-.14.11-.25.25-.25h13.07c.14,0,.25.11.25.25s-.11.25-.25.25H7.08v38.7h12.82c.14,0,.25.11.25.25s-.11.25-.25.25Z"/>
        <path class="cls-3" d="m43.42,578.57h-23.52c-.14,0-.25-.11-.25-.25s.11-.25.25-.25h23.52c.14,0,.25.11.25.25s-.11.25-.25.25Z"/>
        <path class="cls-3" d="m43.42,369.53h-23.52c-.14,0-.25-.11-.25-.25s.11-.25.25-.25h23.52c.14,0,.25.11.25.25s-.11.25-.25.25Z"/>
        <path class="cls-3" d="m19.9,578.57c-.14,0-.25-.11-.25-.25v-209.05c0-.14.11-.25.25-.25s.25.11.25.25v209.05c0,.14-.11.25-.25.25Z"/>
        <path class="cls-3" d="m43.42,578.57c-.14,0-.25-.11-.25-.25v-209.05c0-.14.11-.25.25-.25s.25.11.25.25v209.05c0,.14-.11.25-.25.25Z"/>
        <path class="cls-3" d="m43.42,570.73h-15.68c-.14,0-.25-.11-.25-.25s.11-.25.25-.25h15.68c.14,0,.25.11.25.25s-.11.25-.25.25Z"/>
        <path class="cls-3" d="m43.42,377.37h-15.68c-.14,0-.25-.11-.25-.25s.11-.25.25-.25h15.68c.14,0,.25.11.25.25s-.11.25-.25.25Z"/>
        <path class="cls-3" d="m32.96,570.73c-.14,0-.25-.11-.25-.25v-101.91c0-.14.11-.25.25-.25s.25.11.25.25v101.91c0,.14-.11.25-.25.25Z"/>
        <path class="cls-3" d="m38.19,479.28c-.14,0-.25-.11-.25-.25v-101.91c0-.14.11-.25.25-.25s.25.11.25.25v101.91c0,.14-.11.25-.25.25Z"/>
        <path class="cls-3" d="m27.74,578.57c-.14,0-.25-.11-.25-.25v-209.05c0-.14.11-.25.25-.25s.25.11.25.25v209.05c0,.14-.11.25-.25.25Z"/>
        <path class="cls-3" d="m48.64,474.05h-26.13c-.14,0-.25-.11-.25-.25s.11-.25.25-.25h26.13c.14,0,.25.11.25.25s-.11.25-.25.25Z"/>
        <path class="cls-3" d="m390.86,665.39h-23.52c-.14,0-.25-.11-.25-.25s.11-.25.25-.25h23.52c.14,0,.25.11.25.25s-.11.25-.25.25Z"/>
        <path class="cls-3" d="m390.86,848.3h-23.52c-.14,0-.25-.11-.25-.25s.11-.25.25-.25h23.52c.14,0,.25.11.25.25s-.11.25-.25.25Z"/>
        <path class="cls-3" d="m367.34,848.3c-.14,0-.25-.11-.25-.25v-182.92c0-.14.11-.25.25-.25s.25.11.25.25v182.92c0,.14-.11.25-.25.25Z"/>
        <path class="cls-3" d="m390.86,848.3c-.14,0-.25-.11-.25-.25v-182.92c0-.14.11-.25.25-.25s.25.11.25.25v182.92c0,.14-.11.25-.25.25Z"/>
        <path class="cls-3" d="m390.86,673.22h-15.68c-.14,0-.25-.11-.25-.25s.11-.25.25-.25h15.68c.14,0,.25.11.25.25s-.11.25-.25.25Z"/>
        <path class="cls-3" d="m390.86,840.46h-15.68c-.14,0-.25-.11-.25-.25s.11-.25.25-.25h15.68c.14,0,.25.11.25.25s-.11.25-.25.25Z"/>
        <path class="cls-3" d="m380.41,840.46c-.14,0-.25-.11-.25-.25v-88.85c0-.14.11-.25.25-.25s.25.11.25.25v88.85c0,.14-.11.25-.25.25Z"/>
        <path class="cls-3" d="m385.63,762.07c-.14,0-.25-.11-.25-.25v-88.85c0-.14.11-.25.25-.25s.25.11.25.25v88.85c0,.14-.11.25-.25.25Z"/>
        <path class="cls-3" d="m375.18,848.3c-.14,0-.25-.11-.25-.25v-182.92c0-.14.11-.25.25-.25s.25.11.25.25v182.92c0,.14-.11.25-.25.25Z"/>
        <path class="cls-3" d="m396.08,756.84h-26.13c-.14,0-.25-.11-.25-.25s.11-.25.25-.25h26.13c.14,0,.25.11.25.25s-.11.25-.25.25Z"/>
        <path class="cls-3" d="m200.2,190.48c-.14,0-.25-.11-.25-.25v-66.29c0-.14.11-.25.25-.25s.25.11.25.25v66.29c0,.14-.11.25-.25.25Z"/>
        <path class="cls-3" d="m205.81,172.87s-.1-.01-.14-.04l-1.1-.73h-.99c-.09,0-.18-.05-.22-.14-.04-.08-.03-.19.02-.26l.58-.77c.08-.11.24-.13.35-.05.11.08.13.24.05.35l-.28.37h.57s.1.01.14.04l1.02.68,2.04-1.42,2.17-3.87.57-5.56-.58-5.56-1.64-6.35-2.79-5.47c-.03-.06-.04-.13-.01-.19l1.65-4.84,1.73-7.91,1.01-5.31h-9.76c-.14,0-.25-.11-.25-.25s.11-.25.25-.25h10.07c.07,0,.15.03.19.09.05.06.07.13.05.21l-1.07,5.61-1.74,7.94-1.62,4.77,2.76,5.42,1.67,6.44.59,5.65-.58,5.67s-.01.07-.03.1l-2.23,3.97s-.04.06-.08.08l-2.23,1.55s-.09.04-.14.04Z"/>
        <path class="cls-3" d="m242.11,144.22h-21.78c-.14,0-.25-.11-.25-.25v-20.03c0-.14.11-.25.25-.25h21.78c.14,0,.25.11.25.25v20.03c0,.14-.11.25-.25.25Zm-21.53-.5h21.28v-19.53h-21.28v19.53Z"/>
        <path class="cls-3" d="m242.11,134.64h-21.78c-.14,0-.25-.11-.25-.25s.11-.25.25-.25h21.78c.14,0,.25.11.25.25s-.11.25-.25.25Z"/>
        <path class="cls-3" d="m246.56,152.93h-32.33c-.14,0-.25-.11-.25-.25s.11-.25.25-.25h32.33c.14,0,.25.11.25.25s-.11.25-.25.25Z"/>
        <path class="cls-3" d="m214.72,172.87c-.06,0-.11-.02-.16-.06-.11-.09-.12-.25-.03-.35l3.94-4.72,3.86-8.77,1.63-6.35c.04-.13.17-.22.3-.18.13.03.21.17.18.3l-1.65,6.39-3.88,8.85s-.02.04-.04.06l-3.97,4.74c-.05.06-.12.09-.19.09Z"/>
        <path class="cls-3" d="m241.04,188.84h-2.81s-.06,0-.08-.01l-2.23-.77c-.13-.05-.2-.19-.15-.32.05-.13.19-.2.32-.15l2.19.76h2.62l2.71-4.57.48-5.56v-15.7h-22.11c-.14,0-.25-.11-.25-.25s.11-.25.25-.25h22.36c.14,0,.25.11.25.25v15.97l-.48,5.63s-.01.07-.03.11l-2.81,4.74c-.04.08-.13.12-.21.12Z"/>
        <path class="cls-3" d="m214.23,188.06c-.06,0-.13-.02-.17-.07-.1-.1-.1-.25,0-.35l5.52-5.61,6.14-9.51,2.8-8.68c.04-.13.18-.2.32-.16.13.04.2.18.16.31l-2.81,8.71s-.02.04-.03.06l-6.19,9.58-5.55,5.65s-.11.07-.18.07Z"/>
        <path class="cls-3" d="m225.94,190.48c-.05,0-.11-.02-.16-.05-.11-.09-.13-.24-.04-.35l4.43-5.59,4.44-10.32,2.21-10.31c.03-.13.17-.22.3-.19.13.03.22.16.19.3l-2.23,10.36-4.47,10.4s-.02.04-.03.06l-4.45,5.61c-.05.06-.12.09-.2.09Z"/>
        <path class="cls-3" d="m310.34,129.03h-40.84c-.14,0-.25-.11-.25-.25s.11-.25.25-.25h40.84c.14,0,.25.11.25.25s-.11.25-.25.25Z"/>
        <path class="cls-3" d="m290.21,135.41c-.14,0-.25-.11-.25-.25v-12c0-.14.11-.25.25-.25s.25.11.25.25v12c0,.14-.11.25-.25.25Z"/>
        <path class="cls-3" d="m308.11,135.41h-34.65c-.14,0-.25-.11-.25-.25s.11-.25.25-.25h34.65c.14,0,.25.11.25.25s-.11.25-.25.25Z"/>
        <path class="cls-3" d="m306.95,149.74h-31.26c-.14,0-.25-.11-.25-.25v-7.94c0-.14.11-.25.25-.25h31.26c.14,0,.25.11.25.25v7.94c0,.14-.11.25-.25.25Zm-31.01-.5h30.76v-7.44h-30.76v7.44Z"/>
        <path class="cls-3" d="m311.98,164.93c-.14,0-.25-.11-.25-.25v-8.56h-41.99v8.56c0,.14-.11.25-.25.25s-.25-.11-.25-.25v-8.81c0-.14.11-.25.25-.25h42.49c.14,0,.25.11.25.25v8.81c0,.14-.11.25-.25.25Z"/>
        <path class="cls-3" d="m306.95,162.51h-31.84c-.14,0-.25-.11-.25-.25s.11-.25.25-.25h31.84c.14,0,.25.11.25.25s-.11.25-.25.25Z"/>
        <path class="cls-3" d="m280.14,173.74s-.09-.01-.14-.04c-.12-.08-.15-.23-.07-.35l7.26-11.23c.08-.12.23-.15.35-.07.12.08.15.23.07.35l-7.26,11.23c-.05.07-.13.11-.21.11Z"/>
        <path class="cls-3" d="m276.75,174.51c-.13,0-.24-.1-.25-.23,0-.14.1-.26.23-.26l26.81-1.65c.16-.01.26.1.27.23,0,.14-.1.26-.23.26l-26.81,1.65s-.01,0-.02,0Z"/>
        <path class="cls-3" d="m305.79,176.93c-.08,0-.16-.04-.21-.11l-1.06-1.65-1.66-3.21-1.72-2.39c-.08-.11-.05-.27.06-.35.11-.08.27-.06.35.06l1.74,2.42,1.67,3.23,1.05,1.62c.08.12.04.27-.07.35-.04.03-.09.04-.14.04Z"/>
        <path class="cls-3" d="m307.53,182.45h-33.58c-.14,0-.25-.11-.25-.25s.11-.25.25-.25h33.58c.14,0,.25.11.25.25s-.11.25-.25.25Z"/>
        <path class="cls-3" d="m290.21,190.48c-.14,0-.25-.11-.25-.25v-15.97c0-.14.11-.25.25-.25s.25.11.25.25v15.97c0,.14-.11.25-.25.25Z"/>
        <path class="cls-3" d="m311.4,190.48h-41.91c-.14,0-.25-.11-.25-.25s.11-.25.25-.25h41.91c.14,0,.25.11.25.25s-.11.25-.25.25Z"/>
        <path class="cls-3" d="m.25.25l163.27,124.07H.25V.25ZM163.52.25H.25l163.27,124.07V.25Z"/>
        <path class="cls-1" d="m.25.25l163.27,124.07H.25V.25ZM163.52.25H.25l163.27,124.07V.25Z"/>
        <path class="cls-3" d="m1058.36,229.1c-.14,0-.25-.11-.25-.25V.25c0-.14.11-.25.25-.25s.25.11.25.25v228.6c0,.14-.11.25-.25.25Z"/>
        <path class="cls-3" d="m163.52.25l227.34,23.52h-227.34V.25ZM390.86.25h-227.34l227.34,23.52V.25Z"/>
        <path class="cls-1" d="m163.52.25l227.34,23.52h-227.34V.25ZM390.86.25h-227.34l227.34,23.52V.25Z"/>
        <path class="cls-3" d="m367.34,23.77l23.52,131.91h-23.52V23.77Zm23.52,0h-23.52l23.52,131.91V23.77Z"/>
        <path class="cls-1" d="m367.34,23.77l23.52,131.91h-23.52V23.77Zm23.52,0h-23.52l23.52,131.91V23.77Z"/>
        <path class="cls-3" d="m1038.81,372.57l19.55,502.87h-19.55v-502.87Zm19.55,0h-19.55l19.55,502.87v-502.87Z"/>
        <path class="cls-1" d="m1038.81,372.57l19.55,502.87h-19.55v-502.87Zm19.55,0h-19.55l19.55,502.87v-502.87Z"/>
        <path class="cls-3" d="m390.86,875.44l667.5,19.65H390.86v-19.65Zm667.5,0H390.86l667.5,19.65v-19.65Z"/>
        <path class="cls-1" d="m390.86,875.44l667.5,19.65H390.86v-19.65Zm667.5,0H390.86l667.5,19.65v-19.65Z"/>
        <path class="cls-3" d="m390.86.25l667.5,19.55H390.86V.25ZM1058.36.25H390.86l667.5,19.55V.25Z"/>
        <path class="cls-1" d="m390.86.25l667.5,19.55H390.86V.25ZM1058.36.25H390.86l667.5,19.55V.25Z"/>
        <path class="cls-3" d="m1038.81,19.8l19.55,209.05h-19.55V19.8Zm19.55,0h-19.55l19.55,209.05V19.8Z"/>
        <path class="cls-1" d="m1038.81,19.8l19.55,209.05h-19.55V19.8Zm19.55,0h-19.55l19.55,209.05V19.8Z"/>
        <path class="cls-3" d="m1058.36,895.34c-.14,0-.25-.11-.25-.25V372.57c0-.14.11-.25.25-.25s.25.11.25.25v522.52c0,.14-.11.25-.25.25Z"/>
        <path class="cls-3" d="m1038.81,229.1c-.14,0-.25-.11-.25-.25V19.8c0-.14.11-.25.25-.25s.25.11.25.25v209.05c0,.14-.11.25-.25.25Z"/>
        <path class="cls-3" d="m1038.81,875.69c-.14,0-.25-.11-.25-.25v-502.87c0-.14.11-.25.25-.25s.25.11.25.25v502.87c0,.14-.11.25-.25.25Z"/>
        <path class="cls-3" d="m390.86.5h-227.34c-.14,0-.25-.11-.25-.25s.11-.25.25-.25h227.34c.14,0,.25.11.25.25s-.11.25-.25.25Z"/>
        <path class="cls-3" d="m367.34,24.02h-203.82c-.14,0-.25-.11-.25-.25s.11-.25.25-.25h203.82c.14,0,.25.11.25.25s-.11.25-.25.25Z"/>
        <path class="cls-3" d="m1038.81,20.05H390.86c-.14,0-.25-.11-.25-.25s.11-.25.25-.25h647.95c.14,0,.25.11.25.25s-.11.25-.25.25Z"/>
        <path class="cls-3" d="m1058.36.5H390.86c-.14,0-.25-.11-.25-.25s.11-.25.25-.25h667.5c.14,0,.25.11.25.25s-.11.25-.25.25Z"/>
        <path class="cls-3" d="m1058.36,372.82h-19.55c-.14,0-.25-.11-.25-.25s.11-.25.25-.25h19.55c.14,0,.25.11.25.25s-.11.25-.25.25Z"/>
        <path class="cls-3" d="m1058.36,229.1h-19.55c-.14,0-.25-.11-.25-.25s.11-.25.25-.25h19.55c.14,0,.25.11.25.25s-.11.25-.25.25Z"/>
        <path class="cls-3" d="m390.86,895.34h-214.27c-.14,0-.25-.11-.25-.25s.11-.25.25-.25h214.27c.14,0,.25.11.25.25s-.11.25-.25.25Z"/>
        <path class="cls-3" d="m367.34,871.82h-190.76c-.14,0-.25-.11-.25-.25s.11-.25.25-.25h190.76c.14,0,.25.11.25.25s-.11.25-.25.25Z"/>
        <path class="cls-3" d="m19.9,665.39c-.14,0-.25-.11-.25-.25v-86.81c0-.14.11-.25.25-.25s.25.11.25.25v86.81c0,.14-.11.25-.25.25Z"/>
        <path class="cls-3" d="m19.9,369.53c-.14,0-.25-.11-.25-.25v-86.91c0-.14.11-.25.25-.25s.25.11.25.25v86.91c0,.14-.11.25-.25.25Z"/>
        <path class="cls-3" d="m43.42,641.87c-.14,0-.25-.11-.25-.25v-63.29c0-.14.11-.25.25-.25s.25.11.25.25v63.29c0,.14-.11.25-.25.25Z"/>
        <path class="cls-3" d="m43.42,369.53c-.14,0-.25-.11-.25-.25v-63.39c0-.14.11-.25.25-.25s.25.11.25.25v63.39c0,.14-.11.25-.25.25Z"/>
        <path class="cls-3" d="m137.39,282.62c-.14,0-.25-.11-.25-.25V124.32c0-.14.11-.25.25-.25s.25.11.25.25v158.04c0,.14-.11.25-.25.25Z"/>
        <path class="cls-3" d="m117.84,282.62c-.14,0-.25-.11-.25-.25V124.32c0-.14.11-.25.25-.25s.25.11.25.25v158.04c0,.14-.11.25-.25.25Z"/>
        <path class="cls-3" d="m390.86,306.13H43.42c-.14,0-.25-.11-.25-.25s.11-.25.25-.25h347.44c.14,0,.25.11.25.25s-.11.25-.25.25Z"/>
        <path class="cls-3" d="m390.86,273.52h-104.52c-.14,0-.25-.11-.25-.25s.11-.25.25-.25h104.52c.14,0,.25.11.25.25s-.11.25-.25.25Z"/>
        <path class="cls-3" d="m390.86,155.93h-23.52c-.14,0-.25-.11-.25-.25s.11-.25.25-.25h23.52c.14,0,.25.11.25.25s-.11.25-.25.25Z"/>
        <path class="cls-3" d="m286.33,282.62H19.9c-.14,0-.25-.11-.25-.25s.11-.25.25-.25h266.44c.14,0,.25.11.25.25s-.11.25-.25.25Z"/>
        <path class="cls-3" d="m390.86,895.34c-.14,0-.25-.11-.25-.25v-47.04c0-.14.11-.25.25-.25s.25.11.25.25v47.04c0,.14-.11.25-.25.25Z"/>
        <path class="cls-3" d="m390.86,665.39c-.14,0-.25-.11-.25-.25v-23.52c0-.14.11-.25.25-.25s.25.11.25.25v23.52c0,.14-.11.25-.25.25Z"/>
        <path class="cls-3" d="m390.86,306.13c-.14,0-.25-.11-.25-.25v-32.62c0-.14.11-.25.25-.25s.25.11.25.25v32.62c0,.14-.11.25-.25.25Z"/>
        <path class="cls-3" d="m390.86,155.93c-.14,0-.25-.11-.25-.25V.25c0-.14.11-.25.25-.25s.25.11.25.25v155.43c0,.14-.11.25-.25.25Z"/>
        <path class="cls-3" d="m367.34,871.82c-.14,0-.25-.11-.25-.25v-23.52c0-.14.11-.25.25-.25s.25.11.25.25v23.52c0,.14-.11.25-.25.25Z"/>
        <path class="cls-3" d="m367.34,155.93c-.14,0-.25-.11-.25-.25V23.77c0-.14.11-.25.25-.25s.25.11.25.25v131.91c0,.14-.11.25-.25.25Z"/>
        <path class="cls-3" d="m367.34,665.39H19.9c-.14,0-.25-.11-.25-.25s.11-.25.25-.25h347.44c.14,0,.25.11.25.25s-.11.25-.25.25Z"/>
        <path class="cls-3" d="m377.79,423.47l13.07,218.14h-13.07v-218.14Zm13.07,0h-13.07l13.07,218.14v-218.14Z"/>
        <path class="cls-1" d="m377.79,423.47l13.07,218.14h-13.07v-218.14Zm13.07,0h-13.07l13.07,218.14v-218.14Z"/>
        <path class="cls-3" d="m390.86,641.87H43.42c-.14,0-.25-.11-.25-.25s.11-.25.25-.25h347.44c.14,0,.25.11.25.25s-.11.25-.25.25Z"/>
        <path class="cls-3" d="m1058.36,895.34H390.86c-.14,0-.25-.11-.25-.25s.11-.25.25-.25h667.5c.14,0,.25.11.25.25s-.11.25-.25.25Z"/>
        <path class="cls-3" d="m1038.81,875.69H390.86c-.14,0-.25-.11-.25-.25s.11-.25.25-.25h647.95c.14,0,.25.11.25.25s-.11.25-.25.25Z"/>
        <path class="cls-3" d="m1058.36,372.82c-.14,0-.25-.11-.25-.25v-7.59h-15.18v7.59c0,.14-.11.25-.25.25s-.25-.11-.25-.25v-7.84c0-.14.11-.25.25-.25h15.68c.14,0,.25.11.25.25v7.84c0,.14-.11.25-.25.25Z"/>
        <path class="cls-3" d="m1058.36,236.94h-15.68c-.14,0-.25-.11-.25-.25v-7.84c0-.14.11-.25.25-.25s.25.11.25.25v7.59h15.18v-7.59c0-.14.11-.25.25-.25s.25.11.25.25v7.84c0,.14-.11.25-.25.25Z"/>
        <path class="cls-3" d="m1042.68,364.98h-127.94c-.14,0-.25-.11-.25-.25v-3.97c0-.14.11-.25.25-.25h127.94c.14,0,.25.11.25.25v3.97c0,.14-.11.25-.25.25Zm-127.69-.5h127.44v-3.47h-127.44v3.47Z"/>
        <path class="cls-3" d="m914.64,364.93c-.14,0-.25-.11-.25-.25,0-70.71,57.53-128.24,128.24-128.24.14,0,.25.11.25.25s-.11.25-.25.25c-70.44,0-127.74,57.31-127.74,127.74,0,.14-.11.25-.25.25Z"/>
        <path class="cls-3" d="m286.33,282.62c-.14,0-.25-.11-.25-.25v-9.1c0-.14.11-.25.25-.25s.25.11.25.25v9.1c0,.14-.11.25-.25.25Z"/>
        <path class="cls-3" d="m390.86,273.52c-.14,0-.25-.11-.25-.25v-7.59h-12.57v7.59c0,.14-.11.25-.25.25s-.25-.11-.25-.25v-7.84c0-.14.11-.25.25-.25h13.07c.14,0,.25.11.25.25v7.84c0,.14-.11.25-.25.25Z"/>
        <path class="cls-3" d="m390.86,163.77h-13.07c-.14,0-.25-.11-.25-.25v-7.84c0-.14.11-.25.25-.25s.25.11.25.25v7.59h12.57v-7.59c0-.14.11-.25.25-.25s.25.11.25.25v7.84c0,.14-.11.25-.25.25Z"/>
        <path class="cls-3" d="m381.66,265.68c-.14,0-.25-.11-.25-.25v-101.91c0-.14.11-.25.25-.25s.25.11.25.25v101.91c0,.14-.11.25-.25.25Z"/>
        <path class="cls-3" d="m390.86,265.68c-.14,0-.25-.11-.25-.25v-101.91c0-.14.11-.25.25-.25s.25.11.25.25v101.91c0,.14-.11.25-.25.25Z"/>
        <path class="cls-3" d="m377.79,265.68h-101.91c-.14,0-.25-.11-.25-.25v-3.97c0-.14.11-.25.25-.25h101.91c.14,0,.25.11.25.25v3.97c0,.14-.11.25-.25.25Zm-101.66-.5h101.41v-3.47h-101.41v3.47Z"/>
        <path class="cls-3" d="m275.88,265.63c-.14,0-.25-.11-.25-.25,0-56.3,45.81-102.11,102.11-102.11.14,0,.25.11.25.25s-.11.25-.25.25c-56.03,0-101.61,45.58-101.61,101.61,0,.14-.11.25-.25.25Z"/>
        <path class="cls-3" d="m1038.81,745.13h-195.98c-.14,0-.25-.11-.25-.25s.11-.25.25-.25h195.98c.14,0,.25.11.25.25s-.11.25-.25.25Z"/>
        <path class="cls-3" d="m1038.81,751.62h-195.98c-.14,0-.25-.11-.25-.25s.11-.25.25-.25h195.98c.14,0,.25.11.25.25s-.11.25-.25.25Z"/>
        <path class="cls-3" d="m916.77,665.39s-.02,0-.03,0l-49.07-5.23h-4.72c-.14,0-.25-.11-.25-.25v-4.1h-7.59c-.14,0-.25-.11-.25-.25s.11-.25.25-.25h7.84c.14,0,.25.11.25.25v4.1h4.49l49.09,5.23c.14.01.24.14.22.28-.01.13-.12.22-.25.22Z"/>
        <path class="cls-3" d="m934.28,684.79c-.14,0-.25-.11-.25-.25,0-9.93-7.45-18.2-17.32-19.24-.14-.01-.24-.14-.22-.28.01-.14.14-.24.28-.22,10.13,1.07,17.77,9.55,17.77,19.74,0,.14-.11.25-.25.25Z"/>
        <path class="cls-3" d="m934.28,692.97c-.14,0-.25-.11-.25-.25v-8.13c0-.14.11-.25.25-.25s.25.11.25.25v8.13c0,.14-.11.25-.25.25Z"/>
        <path class="cls-3" d="m916.74,712.41c-.13,0-.24-.1-.25-.22-.01-.14.09-.26.22-.28,9.88-1.04,17.32-9.31,17.32-19.24,0-.14.11-.25.25-.25s.25.11.25.25c0,10.19-7.64,18.67-17.77,19.74,0,0-.02,0-.03,0Z"/>
        <path class="cls-3" d="m845.44,717.65c-.14,0-.25-.11-.25-.25s.11-.25.25-.25h22.26l49.04-5.13c.13-.01.26.09.28.22.01.14-.09.26-.22.28l-49.07,5.13h-22.29Z"/>
        <path class="cls-3" d="m845.39,717.55c-1.55,0-2.81-1.26-2.81-2.81,0-.14.11-.25.25-.25s.25.11.25.25c0,1.28,1.04,2.31,2.31,2.31.14,0,.25.11.25.25s-.11.25-.25.25Z"/>
        <path class="cls-3" d="m842.83,715.03c-.14,0-.25-.11-.25-.25v-52.26c0-.14.11-.25.25-.25s.25.11.25.25v52.26c0,.14-.11.25-.25.25Z"/>
        <path class="cls-3" d="m842.83,662.72c-.14,0-.25-.11-.25-.25,0-1.55,1.26-2.82,2.81-2.82.14,0,.25.11.25.25s-.11.25-.25.25c-1.28,0-2.31,1.04-2.31,2.32,0,.14-.11.25-.25.25Z"/>
        <path class="cls-3" d="m855.12,660.16h-9.68c-.14,0-.25-.11-.25-.25s.11-.25.25-.25h9.43v-4.1c0-.14.11-.25.25-.25s.25.11.25.25v4.35c0,.14-.11.25-.25.25Z"/>
        <path class="cls-3" d="m916.19,670.52s-.02,0-.03,0l-42.58-4.45c-.14-.01-.24-.14-.22-.28.01-.14.14-.24.28-.22l42.58,4.45c.14.01.24.14.22.28-.01.13-.12.22-.25.22Z"/>
        <path class="cls-3" d="m916.48,667.9s-.02,0-.03,0l-40.07-4.16c-.14-.01-.24-.14-.22-.27.01-.14.14-.24.27-.22l40.07,4.16c.14.01.24.14.22.27-.01.13-.12.22-.25.22Z"/>
        <path class="cls-3" d="m873.6,711.74c-.13,0-.24-.1-.25-.22-.01-.14.09-.26.22-.28l42.58-4.45c.14-.01.26.09.28.22.01.14-.09.26-.22.28l-42.58,4.45s-.02,0-.03,0Z"/>
        <path class="cls-3" d="m876.41,714.07c-.13,0-.24-.1-.25-.22-.01-.14.09-.26.22-.27l40.07-4.16c.14,0,.26.09.27.22.01.14-.09.26-.22.27l-40.07,4.16s-.02,0-.03,0Z"/>
        <path class="cls-3" d="m862.96,661.03h-7.84c-.14,0-.25-.11-.25-.25s.11-.25.25-.25h7.84c.14,0,.25.11.25.25s-.11.25-.25.25Z"/>
        <path class="cls-3" d="m873.5,666.31c-.14,0-.25-.11-.25-.25,0-.8.34-1.56.93-2.09.59-.53,1.38-.79,2.18-.71.14.01.24.14.22.28-.01.14-.14.24-.28.22-.65-.07-1.3.14-1.79.58-.49.44-.77,1.07-.77,1.72,0,.14-.11.25-.25.25Z"/>
        <path class="cls-3" d="m876.07,714.07c-.69,0-1.37-.25-1.88-.72-.59-.53-.93-1.29-.93-2.09,0-.14.11-.25.25-.25s.25.11.25.25c0,.66.28,1.28.77,1.72.49.44,1.14.65,1.79.58.14,0,.26.09.28.22.01.14-.09.26-.22.28-.1,0-.2.01-.29.01Z"/>
        <path class="cls-3" d="m873.5,711.55c-.14,0-.25-.11-.25-.25v-45.2c0-.14.11-.25.25-.25s.25.11.25.25v45.2c0,.14-.11.25-.25.25Z"/>
        <path class="cls-3" d="m864.12,664.42c-.06,0-.11-.02-.16-.06-.11-.09-.12-.25-.03-.35l3.58-4.26c.09-.1.25-.12.35-.03.11.09.12.25.03.35l-3.58,4.26c-.05.06-.12.09-.19.09Z"/>
        <path class="cls-3" d="m867.7,717.65c-.07,0-.14-.03-.19-.09l-3.58-4.26c-.09-.11-.08-.26.03-.35.11-.09.26-.08.35.03l3.58,4.26c.09.11.08.26-.03.35-.05.04-.1.06-.16.06Z"/>
        <path class="cls-3" d="m847.18,664.51c-.06,0-.13-.02-.18-.07l-3.58-3.58c-.1-.1-.1-.26,0-.35s.26-.1.35,0l3.58,3.58c.1.1.1.26,0,.35-.05.05-.11.07-.18.07Z"/>
        <path class="cls-3" d="m843.6,716.87c-.07,0-.13-.03-.18-.08-.1-.1-.09-.26,0-.35l3.58-3.48c.1-.1.26-.09.35,0,.1.1.09.26,0,.35l-3.58,3.48s-.11.07-.17.07Z"/>
        <path class="cls-3" d="m863.2,713.68c-.14,0-.25-.11-.25-.25s.11-.25.25-.25c.52,0,.96-.38,1.04-.9.02-.14.15-.23.29-.21.14.02.23.15.21.29-.12.76-.76,1.32-1.54,1.32Z"/>
        <path class="cls-3" d="m864.49,665.14c-.12,0-.23-.09-.25-.21-.08-.52-.52-.9-1.04-.9-.14,0-.25-.11-.25-.25s.11-.25.25-.25c.77,0,1.42.55,1.54,1.32.02.14-.07.26-.21.29-.01,0-.03,0-.04,0Z"/>
        <path class="cls-3" d="m846.7,665.34c-.14,0-.25-.11-.25-.25,0-.86.7-1.56,1.56-1.56.14,0,.25.11.25.25s-.11.25-.25.25c-.58,0-1.06.47-1.06,1.06,0,.14-.11.25-.25.25Z"/>
        <path class="cls-3" d="m848,713.68c-.86,0-1.56-.7-1.56-1.56,0-.14.11-.25.25-.25s.25.11.25.25c0,.58.47,1.06,1.06,1.06.14,0,.25.11.25.25s-.11.25-.25.25Z"/>
        <path class="cls-3" d="m863.25,713.78h-15.19c-.14,0-.25-.11-.25-.25s.11-.25.25-.25h15.19c.14,0,.25.11.25.25s-.11.25-.25.25Z"/>
        <path class="cls-3" d="m846.79,712.42c-.14,0-.25-.11-.25-.25v-47.04c0-.14.11-.25.25-.25s.25.11.25.25v47.04c0,.14-.11.25-.25.25Z"/>
        <path class="cls-3" d="m863.25,664.13h-15.19c-.14,0-.25-.11-.25-.25s.11-.25.25-.25h15.19c.14,0,.25.11.25.25s-.11.25-.25.25Z"/>
        <path class="cls-3" d="m864.52,712.57s-.03,0-.04,0c-.14-.02-.23-.15-.21-.29,2.42-15.71,2.42-31.64,0-47.35-.02-.14.07-.26.21-.29.13-.02.26.07.29.21,2.43,15.76,2.43,31.74,0,47.5-.02.12-.13.21-.25.21Z"/>
        <path class="cls-3" d="m867.6,717.59s-.03,0-.04,0c-.14-.03-.23-.16-.2-.29,3.49-19.04,3.49-38.34,0-57.37-.02-.14.07-.27.2-.29.13-.03.27.07.29.2,3.5,19.09,3.5,38.46,0,57.55-.02.12-.13.21-.25.21Z"/>
        <path class="cls-3" d="m855.12,661.03c-.14,0-.25-.11-.25-.25v-.87c0-.14.11-.25.25-.25s.25.11.25.25v.87c0,.14-.11.25-.25.25Z"/>
        <polygon class="cls-3" points="862.96 660.59 862.86 660.68 862.76 660.78 862.86 660.88 862.96 660.97 863.05 660.88 863.15 660.78 863.05 660.68 862.96 660.59"/>
        <polygon class="cls-2" points="862.96 660.59 862.86 660.68 862.76 660.78 862.86 660.88 862.96 660.97 863.05 660.88 863.15 660.78 863.05 660.68 862.96 660.59"/>
        <polygon class="cls-3" points="862.96 660.59 862.86 660.68 862.76 660.78 862.86 660.88 862.96 660.97 863.05 660.88 863.15 660.78 863.05 660.68 862.96 660.59"/>
        <polygon class="cls-2" points="862.96 660.59 862.86 660.68 862.76 660.78 862.86 660.88 862.96 660.97 863.05 660.88 863.15 660.78 863.05 660.68 862.96 660.59"/>
        <polygon class="cls-3" points="862.96 660.59 862.86 660.68 862.76 660.78 862.86 660.88 862.96 660.97 863.05 660.88 863.15 660.78 863.05 660.68 862.96 660.59"/>
        <polygon class="cls-2" points="862.96 660.59 862.86 660.68 862.76 660.78 862.86 660.88 862.96 660.97 863.05 660.88 863.15 660.78 863.05 660.68 862.96 660.59"/>
        <polygon class="cls-3" points="862.96 660.59 862.86 660.68 862.76 660.78 862.86 660.88 862.96 660.97 863.05 660.88 863.15 660.78 863.05 660.68 862.96 660.59"/>
        <polygon class="cls-2" points="862.96 660.59 862.86 660.68 862.76 660.78 862.86 660.88 862.96 660.97 863.05 660.88 863.15 660.78 863.05 660.68 862.96 660.59"/>
        <path class="cls-3" d="m862.96,661.03c-.14,0-.25-.11-.25-.25v-.87c0-.14.11-.25.25-.25s.25.11.25.25v.87c0,.14-.11.25-.25.25Z"/>
        <path class="cls-3" d="m929.06,684.79c-.14,0-.25-.11-.25-.25,0-7.25-5.44-13.28-12.64-14.04-.14-.01-.24-.14-.22-.28.01-.14.14-.24.28-.22,7.46.79,13.09,7.04,13.09,14.54,0,.14-.11.25-.25.25Z"/>
        <path class="cls-3" d="m931.67,684.79c-.14,0-.25-.11-.25-.25,0-8.59-6.44-15.74-14.98-16.64-.14-.01-.24-.14-.22-.28.01-.14.14-.24.28-.22,8.8.93,15.43,8.3,15.43,17.14,0,.14-.11.25-.25.25Z"/>
        <path class="cls-3" d="m929.06,692.97c-.14,0-.25-.11-.25-.25v-8.13c0-.14.11-.25.25-.25s.25.11.25.25v8.13c0,.14-.11.25-.25.25Z"/>
        <path class="cls-3" d="m931.67,692.97c-.14,0-.25-.11-.25-.25v-8.13c0-.14.11-.25.25-.25s.25.11.25.25v8.13c0,.14-.11.25-.25.25Z"/>
        <path class="cls-3" d="m916.19,707.21c-.13,0-.24-.1-.25-.22-.01-.14.09-.26.22-.28,7.21-.76,12.64-6.8,12.64-14.04,0-.14.11-.25.25-.25s.25.11.25.25c0,7.5-5.63,13.76-13.09,14.54,0,0-.02,0-.03,0Z"/>
        <path class="cls-3" d="m916.47,709.81c-.13,0-.24-.1-.25-.22-.01-.14.09-.26.22-.28,8.54-.9,14.98-8.05,14.98-16.64,0-.14.11-.25.25-.25s.25.11.25.25c0,8.84-6.63,16.21-15.43,17.14,0,0-.02,0-.03,0Z"/>
        <path class="cls-3" d="m884.05,684.16c-.07,0-.14-.03-.19-.08-.09-.1-.08-.26.02-.35l.87-.77,1.11-.61s.04-.02.06-.02l1.26-.29,1.2-.1c.14-.01.26.09.27.23.01.14-.09.26-.23.27l-1.16.1-1.19.28-1.03.56-.83.74s-.11.06-.17.06Z"/>
        <path class="cls-3" d="m882.12,690.35c-.12,0-.22-.08-.25-.2l-.1-.48-.1-1.29.2-1.32.4-1.2.31-.53c.07-.12.22-.16.34-.09.12.07.16.22.09.34l-.29.48-.36,1.11-.18,1.22.1,1.2.09.46c.03.14-.06.27-.2.29-.02,0-.03,0-.05,0Z"/>
        <path class="cls-3" d="m886.57,695.19s-.07,0-.1-.02l-1.06-.48-1.09-.69-1-.9-.72-1.01c-.08-.11-.05-.27.06-.35.11-.08.27-.05.35.06l.68.97.93.83,1.03.65,1.03.47c.13.06.18.21.12.33-.04.09-.13.15-.23.15Z"/>
        <path class="cls-3" d="m888.51,695.39c-.14,0-.25-.11-.25-.25s.11-.25.25-.25h.58l1.12-.19,1.11-.47,1.03-.66.34-.35c.1-.1.26-.1.35,0s.1.26,0,.35l-.39.39-1.11.71-1.2.5-1.22.21h-.62Z"/>
        <path class="cls-3" d="m894.12,692.1s-.07,0-.1-.02c-.13-.06-.18-.21-.12-.33l.48-1.06.28-1.12.09-1.22-.19-1.1c-.02-.14.07-.26.21-.29.13-.03.27.07.29.21l.19,1.16-.09,1.32-.3,1.2-.5,1.11c-.04.09-.13.15-.23.15Z"/>
        <path class="cls-3" d="m894.02,685.61c-.08,0-.17-.04-.21-.12l-.29-.48-.76-.94-.93-.74-.99-.54-.54-.09c-.14-.02-.23-.15-.21-.29.02-.14.15-.23.29-.21l.58.1s.05.01.08.03l1.06.58,1,.8.81,1.01.31.51c.07.12.03.27-.08.34-.04.02-.08.04-.13.04Z"/>
        <path class="cls-3" d="m947.35,751.62c-.14,0-.25-.11-.25-.25v-6.48c0-.14.11-.25.25-.25s.25.11.25.25v6.48c0,.14-.11.25-.25.25Z"/>
        <path class="cls-3" d="m1025.74,751.62h-3.97c-.14,0-.25-.11-.25-.25s.11-.25.25-.25h3.72v-6.23c0-.14.11-.25.25-.25s.25.11.25.25v6.48c0,.14-.11.25-.25.25Z"/>
        <path class="cls-3" d="m969.12,798.75c-.06,0-.13-.02-.18-.07-.1-.1-.1-.26,0-.35l49.94-49.94c.1-.1.26-.1.35,0s.1.26,0,.35l-49.94,49.94s-.11.07-.18.07Z"/>
        <path class="cls-3" d="m951.22,751.62h-3.87c-.14,0-.25-.11-.25-.25s.11-.25.25-.25h3.62v-5.98h-3.62c-.14,0-.25-.11-.25-.25s.11-.25.25-.25h3.87c.14,0,.25.11.25.25v6.48c0,.14-.11.25-.25.25Z"/>
        <path class="cls-3" d="m971.93,801.46c-.06,0-.13-.02-.18-.07-.1-.1-.1-.26,0-.35l49.84-49.84c.1-.1.26-.1.35,0s.1.26,0,.35l-49.84,49.84s-.11.07-.18.07Z"/>
        <path class="cls-3" d="m1025.74,751.62h-3.97c-.14,0-.25-.11-.25-.25v-6.48c0-.14.11-.25.25-.25h3.97c.14,0,.25.11.25.25s-.11.25-.25.25h-3.72v5.98h3.72c.14,0,.25.11.25.25s-.11.25-.25.25Z"/>
        <path class="cls-3" d="m855.21,821.01s-.09-.01-.13-.04l-12.39-7.36c-.08-.04-.12-.13-.12-.21s.05-.17.12-.21l12.39-7.36c.08-.05.17-.05.25,0,.08.04.13.13.13.22v14.71c0,.09-.05.17-.13.22-.04.02-.08.03-.12.03Zm-11.9-7.61l11.65,6.92v-13.83l-11.65,6.92Z"/>
        <path class="cls-3" d="m1021.77,751.62c-.07,0-.13-.03-.18-.08l-2.71-2.81c-.1-.1-.09-.26,0-.35.1-.09.26-.09.35,0l2.71,2.81c.1.1.09.26,0,.35-.05.05-.11.07-.17.07Z"/>
        <path class="cls-3" d="m971.87,801.42c-.06,0-.13-.02-.18-.07-13.36-13.36-20.72-31.13-20.72-50.03,0-.14.11-.25.25-.25s.25.11.25.25c0,18.77,7.31,36.41,20.58,49.68.1.1.1.26,0,.35-.05.05-.11.07-.18.07Z"/>
        <path class="cls-3" d="m286.34,273.27l104.52,9.1h-104.52v-9.1Zm104.52,0h-104.52l104.52,9.1v-9.1Z"/>
        <path class="cls-1" d="m286.34,273.27l104.52,9.1h-104.52v-9.1Zm104.52,0h-104.52l104.52,9.1v-9.1Z"/>
        <path class="cls-3" d="m19.9,282.37l370.96,23.52H19.9v-23.52Zm370.96,0H19.9l370.96,23.52v-23.52Z"/>
        <path class="cls-1" d="m19.9,282.37l370.96,23.52H19.9v-23.52Zm370.96,0H19.9l370.96,23.52v-23.52Z"/>
        <path class="cls-3" d="m19.9,305.88l23.52,63.39h-23.52v-63.39Zm23.52,0h-23.52l23.52,63.39v-63.39Z"/>
        <path class="cls-1" d="m19.9,305.88l23.52,63.39h-23.52v-63.39Zm23.52,0h-23.52l23.52,63.39v-63.39Z"/>
        <path class="cls-3" d="m508.45,443.12l399.71,13.07h-399.71v-13.07Zm399.71,0h-399.71l399.71,13.07v-13.07Z"/>
        <path class="cls-1" d="m508.45,443.12l399.71,13.07h-399.71v-13.07Zm399.71,0h-399.71l399.71,13.07v-13.07Z"/>
        <path class="cls-3" d="m829.76,456.19l13.07,32.61h-13.07v-32.61Zm13.07,0h-13.07l13.07,32.61v-32.61Z"/>
        <path class="cls-1" d="m829.76,456.19l13.07,32.61h-13.07v-32.61Zm13.07,0h-13.07l13.07,32.61v-32.61Z"/>
        <path class="cls-3" d="m908.15,443.12l26.13,13.07h-26.13v-13.07Zm26.13,0h-26.13l26.13,13.07v-13.07Z"/>
        <path class="cls-1" d="m908.15,443.12l26.13,13.07h-26.13v-13.07Zm26.13,0h-26.13l26.13,13.07v-13.07Z"/>
        <path class="cls-3" d="m908.15,456.19l13.07,32.61h-13.07v-32.61Zm13.07,0h-13.07l13.07,32.61v-32.61Z"/>
        <path class="cls-1" d="m908.15,456.19l13.07,32.61h-13.07v-32.61Zm13.07,0h-13.07l13.07,32.61v-32.61Z"/>
        <path class="cls-3" d="m829.76,488.8l91.46,13.07h-91.46v-13.07Zm91.46,0h-91.46l91.46,13.07v-13.07Z"/>
        <path class="cls-1" d="m829.76,488.8l91.46,13.07h-91.46v-13.07Zm91.46,0h-91.46l91.46,13.07v-13.07Z"/>
        <path class="cls-3" d="m829.76,501.87l13.07,373.57h-13.07v-373.57Zm13.07,0h-13.07l13.07,373.57v-373.57Z"/>
        <path class="cls-1" d="m829.76,501.87l13.07,373.57h-13.07v-373.57Zm13.07,0h-13.07l13.07,373.57v-373.57Z"/>
        <path class="cls-3" d="m367.34,848.05l23.52,23.52h-23.52v-23.52Zm23.52,0h-23.52l23.52,23.52v-23.52Z"/>
        <path class="cls-1" d="m367.34,848.05l23.52,23.52h-23.52v-23.52Zm23.52,0h-23.52l23.52,23.52v-23.52Z"/>
        <path class="cls-3" d="m176.59,871.57l214.27,23.52h-214.27v-23.52Zm214.27,0h-214.27l214.27,23.52v-23.52Z"/>
        <path class="cls-1" d="m176.59,871.57l214.27,23.52h-214.27v-23.52Zm214.27,0h-214.27l214.27,23.52v-23.52Z"/>
        <path class="cls-3" d="m.25,777.5l176.33,117.59H.25v-117.59Zm176.33,0H.25l176.33,117.59v-117.59Z"/>
        <path class="cls-1" d="m.25,777.5l176.33,117.59H.25v-117.59Zm176.33,0H.25l176.33,117.59v-117.59Z"/>
        <path class="cls-3" d="m19.9,578.32l23.52,63.29h-23.52v-63.29Zm23.52,0h-23.52l23.52,63.29v-63.29Z"/>
        <path class="cls-1" d="m19.9,578.32l23.52,63.29h-23.52v-63.29Zm23.52,0h-23.52l23.52,63.29v-63.29Z"/>
        <path class="cls-3" d="m19.9,641.62l370.96,23.52H19.9v-23.52Zm370.96,0H19.9l370.96,23.52v-23.52Z"/>
        <path class="cls-1" d="m19.9,641.62l370.96,23.52H19.9v-23.52Zm370.96,0H19.9l370.96,23.52v-23.52Z"/>
        <path class="cls-3" d="m842.83,489.05c-.14,0-.25-.11-.25-.25v-32.62c0-.14.11-.25.25-.25s.25.11.25.25v32.62c0,.14-.11.25-.25.25Z"/>
        <path class="cls-3" d="m829.76,489.05c-.14,0-.25-.11-.25-.25v-32.62c0-.14.11-.25.25-.25s.25.11.25.25v32.62c0,.14-.11.25-.25.25Z"/>
        <path class="cls-3" d="m842.83,875.69c-.14,0-.25-.11-.25-.25v-373.58c0-.14.11-.25.25-.25s.25.11.25.25v373.58c0,.14-.11.25-.25.25Z"/>
        <path class="cls-3" d="m829.76,875.69c-.14,0-.25-.11-.25-.25v-386.64c0-.14.11-.25.25-.25s.25.11.25.25v386.64c0,.14-.11.25-.25.25Z"/>
        <path class="cls-3" d="m921.22,502.12c-.14,0-.25-.11-.25-.25v-45.68c0-.14.11-.25.25-.25s.25.11.25.25v45.68c0,.14-.11.25-.25.25Z"/>
        <path class="cls-3" d="m934.28,456.44c-.14,0-.25-.11-.25-.25v-13.06c0-.14.11-.25.25-.25s.25.11.25.25v13.06c0,.14-.11.25-.25.25Z"/>
        <path class="cls-3" d="m908.15,489.05c-.14,0-.25-.11-.25-.25v-45.68c0-.14.11-.25.25-.25s.25.11.25.25v45.68c0,.14-.11.25-.25.25Z"/>
        <path class="cls-3" d="m390.86,423.72h-13.07c-.14,0-.25-.11-.25-.25s.11-.25.25-.25h13.07c.14,0,.25.11.25.25s-.11.25-.25.25Z"/>
        <path class="cls-3" d="m934.28,456.44h-13.07c-.14,0-.25-.11-.25-.25s.11-.25.25-.25h13.07c.14,0,.25.11.25.25s-.11.25-.25.25Z"/>
        <path class="cls-3" d="m934.28,443.37h-26.13c-.14,0-.25-.11-.25-.25s.11-.25.25-.25h26.13c.14,0,.25.11.25.25s-.11.25-.25.25Z"/>
        <path class="cls-3" d="m908.15,456.44h-65.33c-.14,0-.25-.11-.25-.25s.11-.25.25-.25h65.33c.14,0,.25.11.25.25s-.11.25-.25.25Z"/>
        <path class="cls-3" d="m908.15,489.05h-78.39c-.14,0-.25-.11-.25-.25s.11-.25.25-.25h78.39c.14,0,.25.11.25.25s-.11.25-.25.25Z"/>
        <path class="cls-3" d="m921.22,502.12h-78.39c-.14,0-.25-.11-.25-.25s.11-.25.25-.25h78.39c.14,0,.25.11.25.25s-.11.25-.25.25Z"/>
        <path class="cls-3" d="m390.86,654.93c-.14,0-.25-.11-.25-.25v-231.21c0-.14.11-.25.25-.25s.25.11.25.25v231.21c0,.14-.11.25-.25.25Z"/>
        <path class="cls-3" d="m377.79,641.87c-.14,0-.25-.11-.25-.25v-218.14c0-.14.11-.25.25-.25s.25.11.25.25v218.14c0,.14-.11.25-.25.25Z"/>
        <path class="cls-3" d="m390.86,313.97h-13.07c-.14,0-.25-.11-.25-.25v-7.84c0-.14.11-.25.25-.25s.25.11.25.25v7.59h12.57v-7.59c0-.14.11-.25.25-.25s.25.11.25.25v7.84c0,.14-.11.25-.25.25Z"/>
        <path class="cls-3" d="m390.86,423.72c-.14,0-.25-.11-.25-.25v-7.59h-12.57v7.59c0,.14-.11.25-.25.25s-.25-.11-.25-.25v-7.84c0-.14.11-.25.25-.25h13.07c.14,0,.25.11.25.25v7.84c0,.14-.11.25-.25.25Z"/>
        <path class="cls-3" d="m377.79,317.94h-101.91c-.14,0-.25-.11-.25-.25v-3.97c0-.14.11-.25.25-.25h101.91c.14,0,.25.11.25.25v3.97c0,.14-.11.25-.25.25Zm-101.66-.5h101.41v-3.47h-101.41v3.47Z"/>
        <path class="cls-3" d="m377.75,415.79c-56.3,0-102.11-45.81-102.11-102.11,0-.14.11-.25.25-.25s.25.11.25.25c0,56.03,45.58,101.61,101.61,101.61.14,0,.25.11.25.25s-.11.25-.25.25Z"/>
        <path class="cls-3" d="m1038.81,456.44h-7.84c-.14,0-.25-.11-.25-.25v-13.06c0-.14.11-.25.25-.25h7.84c.14,0,.25.11.25.25s-.11.25-.25.25h-7.59v12.56h7.59c.14,0,.25.11.25.25s-.11.25-.25.25Z"/>
        <path class="cls-3" d="m942.12,456.44h-7.84c-.14,0-.25-.11-.25-.25s.11-.25.25-.25h7.59v-12.56h-7.59c-.14,0-.25-.11-.25-.25s.11-.25.25-.25h7.84c.14,0,.25.11.25.25v13.06c0,.14-.11.25-.25.25Z"/>
        <path class="cls-3" d="m1030.97,452.47h-88.84c-.14,0-.25-.11-.25-.25s.11-.25.25-.25h88.84c.14,0,.25.11.25.25s-.11.25-.25.25Z"/>
        <path class="cls-3" d="m1030.97,443.37h-88.84c-.14,0-.25-.11-.25-.25s.11-.25.25-.25h88.84c.14,0,.25.11.25.25s-.11.25-.25.25Z"/>
        <path class="cls-3" d="m1030.97,545.18h-3.97c-.14,0-.25-.11-.25-.25v-88.75c0-.14.11-.25.25-.25h3.97c.14,0,.25.11.25.25v88.75c0,.14-.11.25-.25.25Zm-3.72-.5h3.47v-88.25h-3.47v88.25Z"/>
        <path class="cls-3" d="m1030.92,545.18c-49.1,0-89.05-39.95-89.05-89.05,0-.14.11-.25.25-.25s.25.11.25.25c0,48.82,39.72,88.55,88.55,88.55.14,0,.25.11.25.25s-.11.25-.25.25Z"/>
        <path class="cls-3" d="m908.15,489.05s-.08,0-.11-.03l-65.33-32.62c-.12-.06-.17-.21-.11-.33.06-.12.21-.17.33-.11l65.33,32.62c.12.06.17.21.11.33-.04.09-.13.14-.22.14Z"/>
        <path class="cls-3" d="m842.83,489.05c-.09,0-.18-.05-.22-.14-.06-.12-.01-.27.11-.33l65.33-32.62c.12-.06.27-.01.33.11.06.12.01.27-.11.33l-65.33,32.62s-.07.03-.11.03Z"/>
        <path class="cls-3" d="m908.15,443.37h-399.71c-.14,0-.25-.11-.25-.25s.11-.25.25-.25h399.71c.14,0,.25.11.25.25s-.11.25-.25.25Z"/>
        <path class="cls-3" d="m829.76,456.44h-321.31c-.14,0-.25-.11-.25-.25v-13.06c0-.14.11-.25.25-.25s.25.11.25.25v12.81h321.06c.14,0,.25.11.25.25s-.11.25-.25.25Z"/>
        <path class="cls-3" d="m398.7,456.44h-7.84c-.14,0-.25-.11-.25-.25s.11-.25.25-.25h7.59v-12.56h-7.59c-.14,0-.25-.11-.25-.25s.11-.25.25-.25h7.84c.14,0,.25.11.25.25v13.06c0,.14-.11.25-.25.25Z"/>
        <path class="cls-3" d="m508.45,456.44h-7.84c-.14,0-.25-.11-.25-.25v-13.06c0-.14.11-.25.25-.25h7.84c.14,0,.25.11.25.25s-.11.25-.25.25h-7.59v12.56h7.59c.14,0,.25.11.25.25s-.11.25-.25.25Z"/>
        <path class="cls-3" d="m402.57,558.25h-3.87c-.14,0-.25-.11-.25-.25v-101.81c0-.14.11-.25.25-.25h3.87c.14,0,.25.11.25.25v101.81c0,.14-.11.25-.25.25Zm-3.62-.5h3.37v-101.31h-3.37v101.31Z"/>
        <path class="cls-3" d="m398.65,558.25c-.14,0-.25-.11-.25-.25s.11-.25.25-.25c56.03,0,101.61-45.58,101.61-101.61,0-.14.11-.25.25-.25s.25.11.25.25c0,56.3-45.81,102.11-102.11,102.11Z"/>
        <path class="cls-3" d="m351.66,816.94h-175.08c-.14,0-.25-.11-.25-.25s.11-.25.25-.25h175.08c.14,0,.25.11.25.25s-.11.25-.25.25Z"/>
        <path class="cls-3" d="m19.9,777.75c-.14,0-.25-.11-.25-.25v-112.36c0-.14.11-.25.25-.25s.25.11.25.25v112.36c0,.14-.11.25-.25.25Z"/>
        <path class="cls-3" d="m98.19,777.75c-.14,0-.25-.11-.25-.25v-103.17c0-.14.11-.25.25-.25s.25.11.25.25v103.17c0,.14-.11.25-.25.25Z"/>
        <path class="cls-3" d="m248.49,816.94c-.14,0-.25-.11-.25-.25v-142.37c0-.14.11-.25.25-.25s.25.11.25.25v142.37c0,.14-.11.25-.25.25Z"/>
        <path class="cls-3" d="m261.56,816.94c-.14,0-.25-.11-.25-.25v-142.37c0-.14.11-.25.25-.25s.25.11.25.25v142.37c0,.14-.11.25-.25.25Z"/>
        <path class="cls-3" d="m268.04,816.94c-.14,0-.25-.11-.25-.25v-142.37c0-.14.11-.25.25-.25s.25.11.25.25v142.37c0,.14-.11.25-.25.25Z"/>
        <path class="cls-3" d="m248.49,816.94c-.06,0-.12-.02-.17-.07l-150.3-142.37c-.1-.09-.1-.25,0-.35.09-.1.25-.1.35,0l150.3,142.37c.1.09.1.25,0,.35-.05.05-.12.08-.18.08Z"/>
        <path class="cls-3" d="m98.19,777.75c-.08,0-.16-.04-.21-.11-.08-.11-.05-.27.06-.35l150.3-103.17c.11-.08.27-.05.35.06.08.11.05.27-.06.35l-150.3,103.17s-.09.04-.14.04Z"/>
        <path class="cls-3" d="m351.66,816.94c-.14,0-.25-.11-.25-.25v-142.12H98.19c-.14,0-.25-.11-.25-.25s.11-.25.25-.25h253.47c.14,0,.25.11.25.25v142.37c0,.14-.11.25-.25.25Z"/>
        <path class="cls-3" d="m19.9,282.62c-.14,0-.25-.11-.25-.25V124.32c0-.14.11-.25.25-.25s.25.11.25.25v158.04c0,.14-.11.25-.25.25Z"/>
        <path class="cls-3" d="m337.44,799.91h-57.49c-.14,0-.25-.11-.25-.25v-117.49c0-.14.11-.25.25-.25h57.49c.14,0,.25.11.25.25v117.49c0,.14-.11.25-.25.25Zm-57.24-.5h56.99v-116.99h-56.99v116.99Z"/>
        <path class="cls-3" d="m337.44,799.91c-.09,0-.18-.05-.22-.14l-57.49-117.49c-.06-.12,0-.27.11-.33.13-.06.27,0,.33.11l57.49,117.49c.06.12,0,.27-.11.33-.04.02-.07.03-.11.03Z"/>
        <path class="cls-3" d="m297.75,711.26c-.11,0-.21-.07-.24-.18-.04-.13.03-.27.17-.31l25.34-7.7-25.34-7.7c-.13-.04-.21-.18-.17-.31.04-.13.18-.2.31-.17l26.13,7.94c.11.03.18.13.18.24s-.07.21-.18.24l-26.13,7.94s-.05.01-.07.01Z"/>
        <path class="cls-3" d="m306.47,708.26c-.14,0-.25-.11-.25-.25v-9.87c0-.14.11-.25.25-.25s.25.11.25.25v9.87c0,.14-.11.25-.25.25Z"/>
        <path class="cls-3" d="m304.24,785.97c-.1,0-.2-.06-.23-.16-.05-.13.01-.27.14-.32l2.48-.95,2.36-1.98,1.2-1.84v-3.82l-1.2-1.94-2.36-1.98-2.48-.95-3.72-.95h-6.13l-3.65.96-2.45.94-2.45,1.98-1.2,1.94v3.82l1.2,1.84,2.46,1.98,2.48.95c.13.05.19.19.14.32s-.2.19-.32.14l-2.52-.97s-.05-.02-.07-.04l-2.52-2.03s-.04-.04-.05-.06l-1.26-1.94s-.04-.09-.04-.14v-3.97s.01-.09.04-.13l1.26-2.03s.03-.04.06-.06l2.52-2.03s.04-.03.07-.04l2.52-.97,3.7-.98s.04,0,.06,0h6.19s.04,0,.06,0l3.77.97,2.54.98s.05.02.07.04l2.42,2.03s.04.04.05.06l1.26,2.03s.04.08.04.13v3.97s-.01.1-.04.14l-1.26,1.94s-.03.04-.05.06l-2.42,2.03s-.05.03-.07.04l-2.52.97s-.06.02-.09.02Z"/>
      </g>
      <g>
        <path class="cls-3" d="m752.73,256.78c0,3.24-.91,6.1-2.73,8.58-2.99,4.1-7.92,6.15-14.81,6.15h-24.53v-1.52c3.14-.2,5.29-.89,6.45-2.05,1.11-1.16,1.67-3.32,1.67-6.46v-37.06c0-3.04-.58-5.01-1.75-5.92-.96-.71-3.09-1.16-6.38-1.37v-1.52h20.43c12.81,0,19.22,4.66,19.22,13.97,0,6.28-3.67,10.43-11.01,12.46l1.29.3c8.1,1.92,12.15,6.74,12.15,14.43Zm-7.37-26.58c0-8.05-5.47-12.08-16.4-12.08-2.13,0-3.29.03-3.49.08-.91.1-1.47.28-1.67.53-.2.25-.3.79-.3,1.59v19.67l8.58-.08c3.44-.05,5.95-.33,7.52-.84,3.85-1.42,5.77-4.38,5.77-8.89Zm1.52,26.28c0-5.92-3.19-9.97-9.57-12.15-2.38-.81-6.99-1.22-13.82-1.22v21.87c0,1.77.81,2.96,2.43,3.57.96.3,2.56.46,4.79.46,10.79,0,16.18-4.18,16.18-12.53Z"/>
        <path class="cls-3" d="m789.57,258.98c0,3.09-.94,5.87-2.81,8.35-2.58,3.44-6.48,5.16-11.69,5.16-4.25,0-7.7-1.39-10.33-4.18-2.38-2.48-3.57-5.47-3.57-8.96s.76-6.46,2.28-8.74c1.27-1.87,3.77-4.35,7.52-7.44-3.7-3.39-6.13-6.03-7.29-7.9-1.42-2.18-2.13-4.91-2.13-8.2,0-3.9,1.52-7.06,4.56-9.49,2.63-2.18,5.7-3.27,9.19-3.27,3.9,0,7.06,1.17,9.49,3.49,2.18,2.18,3.27,4.89,3.27,8.13,0,3.44-1.12,6.48-3.34,9.11-1.52,1.77-3.82,3.6-6.91,5.47,4.96,3.75,8.28,7.11,9.95,10.1,1.22,2.23,1.82,5.01,1.82,8.35Zm-5.09-33.42c0-2.63-.81-4.78-2.43-6.46-1.82-1.67-4.25-2.51-7.29-2.51-2.84,0-5.19.81-7.06,2.43-1.82,1.67-2.73,3.6-2.73,5.77,0,3.55,1.42,6.74,4.25,9.57,1.41,1.47,3.67,3.14,6.76,5.01,2.58-1.87,4.45-3.54,5.62-5.01,1.92-2.53,2.89-5.47,2.89-8.81Zm1.52,35.47c0-3.65-1.29-6.91-3.87-9.8-1.57-1.67-4.53-3.97-8.89-6.91-1.17,1.01-2.28,2-3.34,2.96-1.52,1.37-2.63,2.79-3.34,4.25-1.06,2.03-1.59,4.33-1.59,6.91,0,3.55,1.04,6.41,3.11,8.58,2.02,2.18,4.66,3.27,7.9,3.27,2.68,0,4.96-.71,6.84-2.13,2.13-1.72,3.19-4.1,3.19-7.14Z"/>
      </g>
      <g>
        <path class="cls-3" d="m787.66,307.1h-73.26c-.09,0-.17-.05-.22-.12l-36.68-63.39c-.04-.08-.04-.17,0-.25l36.68-63.49c.04-.08.13-.12.22-.12h73.26c.09,0,.17.05.22.12l36.58,63.49c.04.08.04.17,0,.25l-36.58,63.39c-.04.08-.13.12-.22.12Zm-73.12-.5h72.97l36.44-63.14-36.44-63.24h-72.97l-36.54,63.24,36.54,63.14Z"/>
        <path class="cls-3" d="m921.22,606.64h-78.39c-.14,0-.25-.11-.25-.25v-104.52c0-.14.11-.25.25-.25h78.39c.14,0,.25.11.25.25v104.52c0,.14-.11.25-.25.25Zm-78.14-.5h77.89v-104.02h-77.89v104.02Z"/>
        <path class="cls-3" d="m868.02,562.68c-.11,0-.21-.07-.24-.18-.85-2.83-1.39-5.76-1.59-8.71,0-.14.09-.26.23-.27.15-.01.26.09.27.23.2,2.92.73,5.81,1.57,8.6.04.13-.04.27-.17.31-.02,0-.05.01-.07.01Z"/>
        <path class="cls-3" d="m872.44,571.6c-.08,0-.15-.04-.2-.1-1.99-2.74-3.5-5.78-4.48-9.03-.04-.13.04-.27.17-.31.14-.04.27.04.31.17.96,3.19,2.44,6.18,4.41,8.88.08.11.06.27-.05.35-.04.03-.1.05-.15.05Z"/>
        <path class="cls-3" d="m879.6,578.01s-.08-.01-.12-.03c-2.86-1.63-5.29-3.81-7.23-6.47-.08-.11-.06-.27.05-.35.11-.08.27-.06.35.05,1.89,2.61,4.28,4.73,7.07,6.33.12.07.16.22.09.34-.05.08-.13.13-.22.13Z"/>
        <path class="cls-3" d="m887.2,580.02c-2.72,0-5.4-.71-7.76-2.06-.12-.07-.16-.22-.09-.34.07-.12.22-.16.34-.09,2.29,1.3,4.88,1.99,7.52,1.99.14,0,.25.11.25.25s-.11.25-.25.25Z"/>
        <path class="cls-3" d="m887.2,580.02c-.14,0-.25-.11-.25-.25s.11-.25.25-.25c2.63,0,5.23-.69,7.51-1.99.12-.07.27-.03.34.09.07.12.03.27-.09.34-2.36,1.35-5.04,2.06-7.76,2.06Z"/>
        <path class="cls-3" d="m894.8,578.01c-.09,0-.17-.04-.22-.13-.07-.12-.03-.27.09-.34,2.8-1.6,5.18-3.72,7.07-6.33.08-.11.24-.14.35-.05.11.08.14.24.05.35-1.94,2.66-4.37,4.84-7.23,6.47-.04.02-.08.03-.12.03Z"/>
        <path class="cls-3" d="m901.96,571.6c-.05,0-.1-.02-.15-.05-.11-.08-.14-.24-.05-.35,1.96-2.7,3.44-5.68,4.41-8.88.04-.13.18-.21.31-.17.13.04.21.18.17.31-.98,3.25-2.49,6.28-4.48,9.03-.05.07-.12.1-.2.1Z"/>
        <path class="cls-3" d="m906.38,562.68s-.05,0-.07-.01c-.13-.04-.21-.18-.17-.31,1.1-3.66,1.66-7.45,1.66-11.28,0-.14.11-.25.25-.25s.25.11.25.25c0,3.87-.57,7.71-1.68,11.42-.03.11-.13.18-.24.18Z"/>
        <path class="cls-3" d="m908.06,551.33c-.14,0-.25-.11-.25-.25,0-3.82-.56-7.62-1.66-11.28-.04-.13.04-.27.17-.31.14-.04.27.04.31.17,1.12,3.71,1.68,7.55,1.68,11.42,0,.14-.11.25-.25.25Z"/>
        <path class="cls-3" d="m906.4,539.91c-.11,0-.21-.07-.24-.18-.96-3.19-2.44-6.18-4.41-8.88-.08-.11-.06-.27.05-.35.11-.08.27-.06.35.05,1.99,2.74,3.5,5.78,4.48,9.03.04.13-.04.27-.17.31-.02,0-.05.01-.07.01Z"/>
        <path class="cls-3" d="m901.95,530.95c-.08,0-.15-.04-.2-.1-1.89-2.61-4.27-4.74-7.07-6.33-.12-.07-.16-.22-.09-.34.07-.12.22-.16.34-.09,2.86,1.63,5.29,3.8,7.23,6.47.08.11.06.27-.05.35-.04.03-.1.05-.15.05Z"/>
        <path class="cls-3" d="m894.84,524.56s-.08-.01-.12-.03c-2.29-1.3-4.88-1.99-7.51-1.99-.14,0-.25-.11-.25-.25s.11-.25.25-.25c2.72,0,5.4.71,7.76,2.06.12.07.16.22.09.34-.05.08-.13.13-.22.13Z"/>
        <path class="cls-3" d="m879.56,524.56c-.09,0-.17-.04-.22-.13-.07-.12-.03-.27.09-.34,2.36-1.35,5.05-2.06,7.76-2.06.14,0,.25.11.25.25s-.11.25-.25.25c-2.63,0-5.23.69-7.52,1.99-.04.02-.08.03-.12.03Z"/>
        <path class="cls-3" d="m872.45,530.95c-.05,0-.1-.02-.15-.05-.11-.08-.14-.24-.05-.35,1.94-2.66,4.37-4.84,7.23-6.47.12-.07.27-.03.34.09.07.12.03.27-.09.34-2.8,1.59-5.18,3.72-7.07,6.33-.05.07-.12.1-.2.1Z"/>
        <path class="cls-3" d="m868,539.91s-.05,0-.07-.01c-.13-.04-.21-.18-.17-.31.98-3.25,2.49-6.28,4.48-9.03.08-.11.24-.14.35-.05.11.08.14.24.05.35-1.96,2.69-3.44,5.68-4.41,8.88-.03.11-.13.18-.24.18Z"/>
        <path class="cls-3" d="m866.44,548.63s-.01,0-.02,0c-.14,0-.24-.13-.23-.27.2-2.95.74-5.88,1.59-8.71.04-.13.17-.21.31-.17.13.04.21.18.17.31-.84,2.79-1.37,5.68-1.57,8.6,0,.13-.12.23-.25.23Z"/>
        <path class="cls-3" d="m859.18,561.15c-.14,0-.25-.11-.25-.25v-19.55c0-.14.11-.25.25-.25s.25.11.25.25v19.55c0,.14-.11.25-.25.25Z"/>
        <path class="cls-3" d="m873.7,549.25s-.01,0-.02,0l-14.52-1.16c-.14-.01-.24-.13-.23-.27s.12-.25.27-.23l14.52,1.16c.14.01.24.13.23.27-.01.13-.12.23-.25.23Z"/>
        <path class="cls-3" d="m859.18,554.67c-.13,0-.24-.1-.25-.23-.01-.14.09-.26.23-.27l14.52-1.16c.14-.02.26.09.27.23.01.14-.09.26-.23.27l-14.52,1.16s-.01,0-.02,0Z"/>
        <path class="cls-3" d="m865.67,561.15h-6.48c-.14,0-.25-.11-.25-.25s.11-.25.25-.25h6.48c.14,0,.25.11.25.25s-.11.25-.25.25Z"/>
        <path class="cls-3" d="m865.67,541.6h-6.48c-.14,0-.25-.11-.25-.25s.11-.25.25-.25h6.48c.14,0,.25.11.25.25s-.11.25-.25.25Z"/>
        <path class="cls-3" d="m865.67,561.15c-.14,0-.25-.11-.25-.25v-7.06c0-.14.11-.25.25-.25s.25.11.25.25v7.06c0,.14-.11.25-.25.25Z"/>
        <path class="cls-3" d="m865.67,548.57c-.14,0-.25-.11-.25-.25v-6.97c0-.14.11-.25.25-.25s.25.11.25.25v6.97c0,.14-.11.25-.25.25Z"/>
        <path class="cls-3" d="m865.67,557.86h-6.48c-.14,0-.25-.11-.25-.25s.11-.25.25-.25h6.48c.14,0,.25.11.25.25s-.11.25-.25.25Z"/>
        <path class="cls-3" d="m865.67,544.8h-6.48c-.14,0-.25-.11-.25-.25s.11-.25.25-.25h6.48c.14,0,.25.11.25.25s-.11.25-.25.25Z"/>
        <path class="cls-3" d="m862.47,561.15c-.14,0-.25-.11-.25-.25v-6.48c0-.14.11-.25.25-.25s.25.11.25.25v6.48c0,.14-.11.25-.25.25Z"/>
        <path class="cls-3" d="m862.42,561.06c-1.93,0-3.49-1.57-3.49-3.49s1.57-3.49,3.49-3.49,3.49,1.57,3.49,3.49-1.57,3.49-3.49,3.49Zm0-6.48c-1.65,0-2.99,1.34-2.99,2.99s1.34,2.99,2.99,2.99,2.99-1.34,2.99-2.99-1.34-2.99-2.99-2.99Z"/>
        <path class="cls-3" d="m862.42,547.99c-1.93,0-3.49-1.57-3.49-3.49s1.57-3.49,3.49-3.49,3.49,1.57,3.49,3.49-1.57,3.49-3.49,3.49Zm0-6.48c-1.65,0-2.99,1.34-2.99,2.99s1.34,2.99,2.99,2.99,2.99-1.34,2.99-2.99-1.34-2.99-2.99-2.99Z"/>
        <path class="cls-3" d="m862.47,548.09c-.14,0-.25-.11-.25-.25v-6.48c0-.14.11-.25.25-.25s.25.11.25.25v6.48c0,.14-.11.25-.25.25Z"/>
        <path class="cls-3" d="m864.7,560.18c-.06,0-.13-.03-.18-.08l-4.55-4.65c-.1-.1-.09-.26,0-.35.1-.1.26-.09.35,0l4.55,4.65c.1.1.09.26,0,.35-.05.05-.11.07-.17.07Z"/>
        <path class="cls-3" d="m860.15,560.18c-.06,0-.13-.02-.17-.07-.1-.1-.1-.25,0-.35l4.55-4.65c.1-.1.25-.1.35,0s.1.25,0,.35l-4.55,4.65s-.11.08-.18.08Z"/>
        <path class="cls-3" d="m864.7,547.12c-.06,0-.13-.03-.18-.08l-4.55-4.65c-.1-.1-.09-.26,0-.35.1-.1.26-.09.35,0l4.55,4.65c.1.1.09.26,0,.35-.05.05-.11.07-.17.07Z"/>
        <path class="cls-3" d="m860.15,547.12c-.06,0-.13-.02-.17-.07-.1-.1-.1-.25,0-.35l4.55-4.65c.1-.1.25-.1.35,0s.1.25,0,.35l-4.55,4.65s-.11.08-.18.08Z"/>
        <path class="cls-3" d="m873.65,553.41c-.14,0-.25-.11-.25-.25s.11-.25.25-.25c1.01,0,1.83-.82,1.83-1.83s-.82-1.83-1.83-1.83c-.14,0-.25-.11-.25-.25s.11-.25.25-.25c1.29,0,2.33,1.04,2.33,2.33s-1.05,2.33-2.33,2.33Z"/>
        <path class="cls-3" d="m862.42,552.44c-.86,0-1.56-.7-1.56-1.56s.7-1.56,1.56-1.56,1.56.7,1.56,1.56-.7,1.56-1.56,1.56Zm0-2.61c-.58,0-1.06.47-1.06,1.06s.47,1.06,1.06,1.06,1.06-.47,1.06-1.06-.47-1.06-1.06-1.06Z"/>
        <path class="cls-3" d="m876.75,554.57c-1.03,0-2.04-.46-2.72-1.29-.09-.11-.07-.26.04-.35.11-.09.26-.07.35.04.8.98,2.13,1.35,3.32.93,1.19-.42,1.99-1.56,1.99-2.82s-.8-2.4-1.99-2.82c-1.2-.42-2.53-.05-3.32.93-.09.11-.25.12-.35.04-.11-.09-.12-.25-.04-.35.93-1.15,2.49-1.58,3.88-1.09,1.39.49,2.32,1.81,2.32,3.29s-.93,2.8-2.32,3.29c-.38.14-.77.2-1.16.2Z"/>
        <path class="cls-3" d="m876.75,555.93c-1.74,0-3.38-.94-4.25-2.51-.07-.12-.02-.27.1-.34.12-.07.27-.02.34.1.96,1.74,2.97,2.61,4.89,2.12,1.92-.49,3.27-2.22,3.27-4.21s-1.34-3.72-3.27-4.21c-1.92-.49-3.93.38-4.89,2.12-.07.12-.22.17-.34.1-.12-.07-.17-.22-.1-.34,1.06-1.94,3.3-2.91,5.45-2.36,2.14.55,3.64,2.48,3.64,4.69s-1.5,4.15-3.64,4.7c-.4.1-.81.15-1.21.15Z"/>
        <path class="cls-3" d="m874.18,528.92s-.04,0-.06,0c-.13-.03-.21-.17-.18-.3l2.61-10.55c.03-.13.17-.22.3-.18.13.03.21.17.18.3l-2.61,10.55c-.03.11-.13.19-.24.19Z"/>
        <path class="cls-3" d="m876.8,584.28c-.11,0-.21-.08-.24-.19l-2.61-10.55c-.03-.13.05-.27.18-.3.13-.04.27.05.3.18l2.61,10.55c.03.13-.05.27-.18.3-.02,0-.04,0-.06,0Z"/>
        <path class="cls-3" d="m910.17,537.7c-.1,0-.2-.07-.24-.17-1.34-3.94-3.36-7.58-6.01-10.8-.09-.11-.07-.26.04-.35.11-.09.26-.07.35.04,2.68,3.27,4.74,6.95,6.1,10.96.04.13-.03.27-.16.32-.03,0-.05.01-.08.01Z"/>
        <path class="cls-3" d="m904.18,526.83c-.07,0-.14-.03-.19-.09-2.55-3.11-5.67-5.6-9.26-7.42-.12-.06-.17-.21-.11-.34s.21-.17.34-.11c3.66,1.84,6.83,4.38,9.43,7.55.09.11.07.26-.04.35-.05.04-.1.06-.16.06Z"/>
        <path class="cls-3" d="m894.76,519.44s-.08,0-.11-.03c-3.11-1.57-6.59-2.39-10.06-2.39-.14,0-.25-.11-.25-.25s.11-.25.25-.25c3.56,0,7.11.85,10.29,2.45.12.06.17.21.11.34-.04.09-.13.14-.22.14Z"/>
        <path class="cls-3" d="m874.41,519.44c-.09,0-.18-.05-.22-.14-.06-.12-.01-.27.11-.34,3.17-1.6,6.73-2.45,10.29-2.45.14,0,.25.11.25.25s-.11.25-.25.25c-3.48,0-6.96.83-10.06,2.39-.04.02-.07.03-.11.03Z"/>
        <path class="cls-3" d="m865.09,526.83c-.06,0-.11-.02-.16-.06-.11-.09-.12-.25-.04-.35,2.6-3.16,5.77-5.7,9.43-7.55.12-.06.27-.01.34.11.06.12.01.27-.11.34-3.59,1.81-6.71,4.31-9.26,7.42-.05.06-.12.09-.19.09Z"/>
        <path class="cls-3" d="m859,537.7s-.05,0-.08-.01c-.13-.04-.2-.19-.16-.32,1.36-4,3.41-7.69,6.1-10.96.09-.11.25-.12.35-.04.11.09.12.25.04.35-2.65,3.22-4.67,6.85-6.01,10.8-.04.1-.13.17-.24.17Z"/>
        <path class="cls-3" d="m856.76,551.33c-.14,0-.25-.11-.25-.25,0-4.66.76-9.25,2.26-13.66.04-.13.19-.2.32-.16.13.04.2.19.16.32-1.48,4.36-2.23,8.9-2.23,13.5,0,.14-.11.25-.25.25Z"/>
        <path class="cls-3" d="m859.01,564.91c-.1,0-.2-.07-.24-.17-1.5-4.41-2.26-9-2.26-13.66,0-.14.11-.25.25-.25s.25.11.25.25c0,4.6.75,9.14,2.23,13.5.04.13-.03.27-.16.32-.03,0-.05.01-.08.01Z"/>
        <path class="cls-3" d="m865.06,575.74c-.07,0-.14-.03-.19-.09-2.68-3.27-4.74-6.95-6.1-10.96-.04-.13.03-.27.16-.32.13-.05.27.03.32.16,1.34,3.94,3.37,7.58,6.01,10.8.09.11.07.26-.04.35-.05.04-.1.06-.16.06Z"/>
        <path class="cls-3" d="m874.44,583.21s-.08,0-.11-.03c-3.66-1.84-6.83-4.38-9.43-7.55-.09-.11-.07-.26.04-.35.11-.09.26-.07.35.04,2.55,3.11,5.67,5.61,9.26,7.42.12.06.17.21.11.34-.04.09-.13.14-.22.14Z"/>
        <path class="cls-3" d="m884.59,585.64c-3.56,0-7.11-.85-10.29-2.45-.12-.06-.17-.21-.11-.34s.21-.17.34-.11c3.11,1.57,6.59,2.39,10.06,2.39.14,0,.25.11.25.25s-.11.25-.25.25Z"/>
        <path class="cls-3" d="m884.59,585.64c-.14,0-.25-.11-.25-.25s.11-.25.25-.25c3.48,0,6.96-.83,10.06-2.39.12-.06.27-.01.34.11.06.12.01.27-.11.34-3.17,1.6-6.73,2.45-10.29,2.45Z"/>
        <path class="cls-3" d="m894.83,583.21c-.09,0-.18-.05-.22-.14-.06-.12-.01-.27.11-.34,3.59-1.81,6.71-4.31,9.26-7.42.09-.11.25-.12.35-.04.11.09.12.25.04.35-2.6,3.16-5.77,5.7-9.43,7.55-.04.02-.07.03-.11.03Z"/>
        <path class="cls-3" d="m904.12,575.74c-.06,0-.11-.02-.16-.06-.11-.09-.12-.25-.04-.35,2.65-3.22,4.67-6.85,6.01-10.8.04-.13.19-.2.32-.16.13.04.2.19.16.32-1.36,4-3.41,7.69-6.1,10.96-.05.06-.12.09-.19.09Z"/>
        <path class="cls-3" d="m910.16,564.91s-.05,0-.08-.01c-.13-.04-.2-.19-.16-.32,1.48-4.35,2.23-8.9,2.23-13.5,0-.14.11-.25.25-.25s.25.11.25.25c0,4.66-.76,9.25-2.26,13.66-.04.1-.13.17-.24.17Z"/>
        <path class="cls-3" d="m912.41,551.33c-.14,0-.25-.11-.25-.25,0-4.6-.75-9.14-2.23-13.5-.04-.13.03-.27.16-.32.13-.05.27.03.32.16,1.5,4.41,2.26,9,2.26,13.66,0,.14-.11.25-.25.25Z"/>
        <path class="cls-3" d="m912.28,536.98c-.1,0-.2-.07-.24-.17-1.43-4.2-3.58-8.07-6.4-11.5-.09-.11-.07-.26.03-.35.11-.09.26-.07.35.03,2.85,3.47,5.04,7.39,6.48,11.65.04.13-.03.27-.16.32-.03,0-.05.01-.08.01Z"/>
        <path class="cls-3" d="m905.9,525.42c-.07,0-.14-.03-.19-.09-2.75-3.35-6.11-6.04-9.98-7.99-.12-.06-.17-.21-.11-.34.06-.12.21-.17.34-.11,3.94,1.99,7.35,4.72,10.14,8.12.09.11.07.26-.04.35-.05.04-.1.06-.16.06Z"/>
        <path class="cls-3" d="m895.76,517.45s-.08,0-.11-.03c-3.42-1.72-7.24-2.63-11.07-2.63-.14,0-.25-.11-.25-.25s.11-.25.25-.25c3.9,0,7.81.93,11.29,2.69.12.06.17.21.11.34-.04.09-.13.14-.22.14Z"/>
        <path class="cls-3" d="m873.41,517.45c-.09,0-.18-.05-.22-.14-.06-.12-.01-.27.11-.34,3.48-1.76,7.39-2.69,11.29-2.69.14,0,.25.11.25.25s-.11.25-.25.25c-3.82,0-7.65.91-11.07,2.63-.04.02-.07.03-.11.03Z"/>
        <path class="cls-3" d="m863.37,525.42c-.06,0-.11-.02-.16-.06-.11-.09-.12-.25-.04-.35,2.8-3.4,6.21-6.14,10.14-8.12.12-.06.27-.01.34.11.06.12.01.27-.11.34-3.87,1.95-7.23,4.64-9.98,7.99-.05.06-.12.09-.19.09Z"/>
        <path class="cls-3" d="m856.9,536.98s-.05,0-.08-.01c-.13-.04-.2-.19-.16-.32,1.45-4.26,3.63-8.18,6.48-11.65.09-.11.24-.12.35-.03.11.09.12.25.03.35-2.82,3.43-4.97,7.29-6.4,11.49-.04.1-.13.17-.24.17Z"/>
        <path class="cls-3" d="m854.54,551.33c-.14,0-.25-.11-.25-.25,0-4.9.8-9.74,2.38-14.37.04-.13.19-.2.32-.16.13.04.2.19.16.32-1.56,4.59-2.35,9.37-2.35,14.21,0,.14-.11.25-.25.25Z"/>
        <path class="cls-3" d="m856.9,565.62c-.1,0-.2-.07-.24-.17-1.58-4.64-2.38-9.47-2.38-14.38,0-.14.11-.25.25-.25s.25.11.25.25c0,4.85.79,9.63,2.35,14.21.04.13-.03.27-.16.32-.03,0-.05.01-.08.01Z"/>
        <path class="cls-3" d="m863.34,577.15c-.07,0-.14-.03-.19-.09-2.86-3.48-5.04-7.4-6.48-11.65-.04-.13.03-.27.16-.32.13-.05.27.03.32.16,1.43,4.2,3.58,8.06,6.4,11.5.09.11.07.26-.04.35-.05.04-.1.06-.16.06Z"/>
        <path class="cls-3" d="m873.44,585.2s-.08,0-.11-.03c-3.93-1.99-7.35-4.72-10.14-8.12-.09-.11-.07-.26.04-.35.11-.09.26-.07.35.04,2.75,3.35,6.11,6.04,9.98,7.99.12.06.17.21.11.34-.04.09-.13.14-.22.14Z"/>
        <path class="cls-3" d="m884.59,587.86c-3.9,0-7.81-.93-11.29-2.69-.12-.06-.17-.21-.11-.34.06-.12.21-.17.34-.11,3.42,1.72,7.24,2.63,11.07,2.63.14,0,.25.11.25.25s-.11.25-.25.25Z"/>
        <path class="cls-3" d="m884.59,587.86c-.14,0-.25-.11-.25-.25s.11-.25.25-.25c3.82,0,7.65-.91,11.07-2.63.12-.06.27-.01.34.11.06.12.01.27-.11.34-3.48,1.76-7.39,2.69-11.29,2.69Z"/>
        <path class="cls-3" d="m895.83,585.2c-.09,0-.18-.05-.22-.14-.06-.12-.01-.27.11-.34,3.87-1.95,7.23-4.64,9.98-7.99.09-.11.25-.12.35-.04.11.09.12.25.04.35-2.8,3.41-6.21,6.14-10.14,8.12-.04.02-.07.03-.11.03Z"/>
        <path class="cls-3" d="m905.84,577.15c-.06,0-.11-.02-.16-.06-.11-.09-.12-.25-.04-.35,2.82-3.43,4.97-7.3,6.4-11.5.04-.13.18-.2.32-.16.13.04.2.19.16.32-1.45,4.26-3.63,8.18-6.48,11.65-.05.06-.12.09-.19.09Z"/>
        <path class="cls-3" d="m912.27,565.62s-.05,0-.08-.01c-.13-.04-.2-.19-.16-.32,1.56-4.59,2.35-9.37,2.35-14.21,0-.14.11-.25.25-.25s.25.11.25.25c0,4.9-.8,9.74-2.38,14.38-.04.1-.13.17-.24.17Z"/>
        <path class="cls-3" d="m914.64,551.33c-.14,0-.25-.11-.25-.25,0-4.84-.79-9.63-2.35-14.21-.04-.13.03-.27.16-.32.13-.05.27.03.32.16,1.58,4.64,2.38,9.48,2.38,14.37,0,.14-.11.25-.25.25Z"/>
        <path class="cls-3" d="m620.71,22.76h-2.52c-.14,0-.25-.11-.25-.25s.11-.25.25-.25h2.52c.14,0,.25.11.25.25s-.11.25-.25.25Z"/>
        <path class="cls-3" d="m621,23.05h-3.1c-.14,0-.25-.11-.25-.25s.11-.25.25-.25h3.1c.14,0,.25.11.25.25s-.11.25-.25.25Z"/>
        <path class="cls-3" d="m620.71,22.76c-.14,0-.25-.11-.25-.25v-1.06c0-.14.11-.25.25-.25s.25.11.25.25v1.06c0,.14-.11.25-.25.25Z"/>
        <path class="cls-3" d="m618.2,22.76c-.14,0-.25-.11-.25-.25v-1.06c0-.14.11-.25.25-.25s.25.11.25.25v1.06c0,.14-.11.25-.25.25Z"/>
        <path class="cls-3" d="m621,23.05c-.06,0-.13-.02-.18-.07l-.29-.29c-.1-.1-.1-.26,0-.35s.25-.1.35,0l.29.29c.1.1.1.26,0,.35-.05.05-.11.07-.18.07Z"/>
        <path class="cls-3" d="m617.91,23.05c-.06,0-.13-.02-.18-.07-.1-.1-.1-.26,0-.35l.29-.29c.1-.1.25-.1.35,0,.1.1.1.26,0,.35l-.29.29s-.11.07-.18.07Z"/>
        <path class="cls-3" d="m620.71,21.69h-2.52c-.14,0-.25-.11-.25-.25s.11-.25.25-.25h2.52c.14,0,.25.11.25.25s-.11.25-.25.25Z"/>
        <path class="cls-3" d="m620.52,21.69c-.14,0-.25-.11-.25-.25v-1.65c0-.14.11-.25.25-.25s.25.11.25.25v1.65c0,.14-.11.25-.25.25Z"/>
        <path class="cls-3" d="m618.39,21.69c-.14,0-.25-.11-.25-.25v-1.65c0-.14.11-.25.25-.25s.25.11.25.25v1.65c0,.14-.11.25-.25.25Z"/>
        <path class="cls-3" d="m621,24.11c-.14,0-.25-.11-.25-.25v-1.06c0-.14.11-.25.25-.25s.25.11.25.25v1.06c0,.14-.11.25-.25.25Z"/>
        <path class="cls-3" d="m617.91,24.11c-.14,0-.25-.11-.25-.25v-1.06c0-.14.11-.25.25-.25s.25.11.25.25v1.06c0,.14-.11.25-.25.25Z"/>
        <path class="cls-3" d="m619.46,32.63c-.14,0-.25-.11-.25-.25v-.97c0-.14.11-.25.25-.25s.25.11.25.25v.97c0,.14-.11.25-.25.25Z"/>
        <path class="cls-3" d="m619.46,42.21c-.14,0-.25-.11-.25-.25v-8.52c0-.14.11-.25.25-.25s.25.11.25.25v8.52c0,.14-.11.25-.25.25Z"/>
        <path class="cls-3" d="m629.71,35.24c-.14,0-.25-.11-.25-.25v-4.74c0-.14.11-.25.25-.25s.25.11.25.25v4.74c0,.14-.11.25-.25.25Z"/>
        <path class="cls-3" d="m609.39,35.24c-.14,0-.25-.11-.25-.25v-4.74c0-.14.11-.25.25-.25s.25.11.25.25v4.74c0,.14-.11.25-.25.25Z"/>
        <path class="cls-3" d="m629.71,30.5h-6.19c-.14,0-.25-.11-.25-.25s.11-.25.25-.25h6.19c.14,0,.25.11.25.25s-.11.25-.25.25Z"/>
        <path class="cls-3" d="m629.71,35.24h-5.61c-.14,0-.25-.11-.25-.25s.11-.25.25-.25h5.61c.14,0,.25.11.25.25s-.11.25-.25.25Z"/>
        <path class="cls-3" d="m615.29,35.24c-.14,0-.25-.11-.25-.25v-4.74c0-.14.11-.25.25-.25s.25.11.25.25v4.74c0,.14-.11.25-.25.25Z"/>
        <path class="cls-3" d="m624.1,35.24c-.14,0-.25-.11-.25-.25v-4.74c0-.14.11-.25.25-.25s.25.11.25.25v4.74c0,.14-.11.25-.25.25Z"/>
        <path class="cls-3" d="m622.17,29.34c-.13,0-.24-.1-.25-.24l-.19-4.65c0-.14.1-.25.24-.26h.01c.13,0,.24.1.25.24l.19,4.65c0,.14-.1.25-.24.26h-.01Z"/>
        <path class="cls-3" d="m616.84,29.24h0c-.14,0-.25-.12-.25-.26l.1-4.55c0-.14.11-.24.25-.24h0c.14,0,.25.12.25.26l-.1,4.55c0,.14-.11.24-.25.24Z"/>
        <path class="cls-3" d="m616.26,37.37c-.14,0-.25-.11-.25-.25v-1.26c0-.14.11-.25.25-.25s.25.11.25.25v1.26c0,.14-.11.25-.25.25Z"/>
        <path class="cls-3" d="m622.26,38.24h-5.03c-.14,0-.25-.11-.25-.25s.11-.25.25-.25h5.03c.14,0,.25.11.25.25s-.11.25-.25.25Z"/>
        <path class="cls-3" d="m623.13,37.37c-.14,0-.25-.11-.25-.25v-1.26c0-.14.11-.25.25-.25s.25.11.25.25v1.26c0,.14-.11.25-.25.25Z"/>
        <path class="cls-3" d="m621.6,24.16s-.05,0-.07-.01c-1.36-.42-2.81-.43-4.17-.02-.13.04-.27-.04-.31-.17-.04-.13.04-.27.17-.31,1.46-.44,3.01-.43,4.46.02.13.04.21.18.17.31-.03.11-.13.18-.24.18Z"/>
        <path class="cls-3" d="m620.13,36.12h-1.36c-.14,0-.25-.11-.25-.25s.11-.25.25-.25h1.36c.14,0,.25.11.25.25s-.11.25-.25.25Z"/>
        <path class="cls-3" d="m620.33,36.6h-1.74c-.14,0-.25-.11-.25-.25s.11-.25.25-.25h1.74c.14,0,.25.11.25.25s-.11.25-.25.25Z"/>
        <path class="cls-3" d="m620.33,37.08h-1.74c-.14,0-.25-.11-.25-.25v-.48c0-.14.11-.25.25-.25s.25.11.25.25v.23h1.24v-.19l-.18-.44c-.05-.13.01-.27.14-.32.13-.05.27.01.33.14l.19.48s.02.06.02.09v.48c0,.14-.11.25-.25.25Z"/>
        <path class="cls-3" d="m619.75,39.02s-.05,0-.07-.01c-.13-.04-.21-.18-.17-.31l.58-1.94c.04-.13.17-.21.31-.17.13.04.21.18.17.31l-.58,1.94c-.03.11-.13.18-.24.18Z"/>
        <path class="cls-3" d="m619.07,39.02c-.11,0-.21-.08-.24-.19l-.48-1.94c-.03-.13.05-.27.18-.3.13-.03.27.05.3.18l.48,1.94c.03.13-.05.27-.18.3-.02,0-.04,0-.06,0Z"/>
        <path class="cls-3" d="m618.58,36.6s-.06,0-.09-.02c-.13-.05-.19-.2-.14-.32l.19-.48c.05-.13.2-.19.33-.14.13.05.19.2.14.32l-.19.48c-.04.1-.13.16-.23.16Z"/>
        <path class="cls-3" d="m621.97,24.72c-.13,0-.24-.11-.25-.24,0-.12-.08-.22-.2-.26-.13-.04-.21-.18-.16-.31.04-.13.18-.21.31-.16.32.1.54.39.55.72,0,.14-.1.25-.24.26h0Z"/>
        <path class="cls-3" d="m616.94,24.63h0c-.14,0-.25-.12-.25-.26,0-.34.23-.63.56-.73.13-.04.27.04.31.17.04.13-.04.27-.17.31-.12.03-.2.14-.2.26,0,.14-.11.24-.25.24Z"/>
        <path class="cls-3" d="m617.18,38.24c-.64,0-1.17-.52-1.17-1.17,0-.14.11-.25.25-.25s.25.11.25.25c0,.37.3.67.67.67.14,0,.25.11.25.25s-.11.25-.25.25Z"/>
        <path class="cls-3" d="m615.39,35.24h-6c-.14,0-.25-.11-.25-.25s.11-.25.25-.25h6c.14,0,.25.11.25.25s-.11.25-.25.25Z"/>
        <path class="cls-3" d="m616.26,36.07c-.14,0-.25-.11-.25-.25,0-.37-.3-.67-.67-.67-.14,0-.25-.11-.25-.25s.11-.25.25-.25c.65,0,1.17.52,1.17,1.17,0,.14-.11.25-.25.25Z"/>
        <path class="cls-3" d="m616.75,35.05c-.14,0-.25-.11-.25-.25v-3.19c0-.14.11-.25.25-.25s.25.11.25.25v3.19c0,.14-.11.25-.25.25Z"/>
        <path class="cls-3" d="m615.54,30.5c-.14,0-.25-.11-.25-.25s.11-.25.25-.25c.57,0,1.04-.46,1.06-1.03,0-.14.12-.23.26-.24.14,0,.25.12.24.26-.02.84-.72,1.52-1.56,1.52Z"/>
        <path class="cls-3" d="m616.75,31.86h0c-.14,0-.25-.12-.24-.26l.1-2.61c0-.14.15-.25.26-.24.14,0,.25.12.24.26l-.1,2.61c0,.13-.12.24-.25.24Z"/>
        <path class="cls-3" d="m622.21,38.24c-.14,0-.25-.11-.25-.25s.11-.25.25-.25c.37,0,.67-.3.67-.67,0-.14.11-.25.25-.25s.25.11.25.25c0,.65-.52,1.17-1.17,1.17Z"/>
        <path class="cls-3" d="m623.13,36.07c-.14,0-.25-.11-.25-.25,0-.64.52-1.17,1.17-1.17.14,0,.25.11.25.25s-.11.25-.25.25c-.37,0-.67.3-.67.67,0,.14-.11.25-.25.25Z"/>
        <path class="cls-3" d="m623.47,30.5c-.84,0-1.52-.66-1.56-1.5,0-.14.1-.25.24-.26h0c.13,0,.25.11.25.24.02.57.49,1.02,1.06,1.02.14,0,.25.11.25.25s-.11.25-.25.25Z"/>
        <path class="cls-3" d="m622.36,33.41c-.13,0-.24-.1-.25-.24l-.19-4.06c0-.14.1-.25.24-.26.14-.02.25.1.26.24l.19,4.06c0,.14-.1.25-.24.26,0,0,0,0-.01,0Z"/>
        <path class="cls-3" d="m615.58,30.5h-6.19c-.14,0-.25-.11-.25-.25s.11-.25.25-.25h6.19c.14,0,.25.11.25.25s-.11.25-.25.25Z"/>
        <path class="cls-3" d="m658.65,91.96h-78.39c-.14,0-.25-.11-.25-.25V19.8c0-.14.11-.25.25-.25h78.39c.14,0,.25.11.25.25v71.91c0,.14-.11.25-.25.25Zm-78.14-.5h77.89V20.05h-77.89v71.41Z"/>
        <path class="cls-3" d="m644.33,86.73h-49.65c-.14,0-.25-.11-.25-.25s.11-.25.25-.25h49.65c.14,0,.25.11.25.25s-.11.25-.25.25Z"/>
        <path class="cls-3" d="m594.63,86.64c-2.3,0-4.17-1.87-4.17-4.17,0-.14.11-.25.25-.25s.25.11.25.25c0,2.02,1.65,3.67,3.67,3.67.14,0,.25.11.25.25s-.11.25-.25.25Z"/>
        <path class="cls-3" d="m648.2,82.76c-.14,0-.25-.11-.25-.25v-48.29c0-.14.11-.25.25-.25s.25.11.25.25v48.29c0,.14-.11.25-.25.25Z"/>
        <path class="cls-3" d="m644.28,86.64c-.14,0-.25-.11-.25-.25s.11-.25.25-.25c2.02,0,3.67-1.65,3.67-3.67,0-.14.11-.25.25-.25s.25.11.25.25c0,2.3-1.87,4.17-4.17,4.17Z"/>
        <path class="cls-3" d="m658.65,26.63h-78.39c-.14,0-.25-.11-.25-.25s.11-.25.25-.25h78.39c.14,0,.25.11.25.25s-.11.25-.25.25Z"/>
        <path class="cls-3" d="m644.33,30.5h-49.65c-.14,0-.25-.11-.25-.25s.11-.25.25-.25h49.65c.14,0,.25.11.25.25s-.11.25-.25.25Z"/>
        <path class="cls-3" d="m648.2,34.42c-.14,0-.25-.11-.25-.25,0-2.02-1.65-3.67-3.67-3.67-.14,0-.25-.11-.25-.25s.11-.25.25-.25c2.3,0,4.17,1.87,4.17,4.17,0,.14-.11.25-.25.25Z"/>
        <path class="cls-3" d="m590.71,34.42c-.14,0-.25-.11-.25-.25,0-2.3,1.87-4.17,4.17-4.17.14,0,.25.11.25.25s-.11.25-.25.25c-2.02,0-3.67,1.65-3.67,3.67,0,.14-.11.25-.25.25Z"/>
        <path class="cls-3" d="m590.71,82.76c-.14,0-.25-.11-.25-.25v-48.29c0-.14.11-.25.25-.25s.25.11.25.25v48.29c0,.14-.11.25-.25.25Z"/>
        <path class="cls-3" d="m620.52,20.05h-2.13c-.14,0-.25-.11-.25-.25s.11-.25.25-.25h2.13c.14,0,.25.11.25.25s-.11.25-.25.25Z"/>
        <path class="cls-3" d="m619.41,63.79c-2.99,0-5.43-2.44-5.43-5.43s2.43-5.43,5.43-5.43,5.43,2.44,5.43,5.43-2.43,5.43-5.43,5.43Zm0-10.36c-2.72,0-4.93,2.21-4.93,4.93s2.21,4.93,4.93,4.93,4.93-2.21,4.93-4.93-2.21-4.93-4.93-4.93Z"/>
        <path class="cls-3" d="m508.45,91.96h-98.04c-.14,0-.25-.11-.25-.25V26.38c0-.14.11-.25.25-.25h98.04c.14,0,.25.11.25.25v65.33c0,.14-.11.25-.25.25Zm-97.79-.5h97.54V26.63h-97.54v64.83Z"/>
        <path class="cls-3" d="m507.09,90.6h-95.33c-.14,0-.25-.11-.25-.25V27.64c0-.14.11-.25.25-.25h95.33c.14,0,.25.11.25.25v62.71c0,.14-.11.25-.25.25Zm-95.08-.5h94.83V27.89h-94.83v62.21Z"/>
        <path class="cls-3" d="m665.14,98.44h-274.28c-.14,0-.25-.11-.25-.25V19.8c0-.14.11-.25.25-.25h274.28c.14,0,.25.11.25.25v78.39c0,.14-.11.25-.25.25Zm-274.03-.5h273.78V20.05h-273.78v77.89Z"/>
        <path class="cls-3" d="m435.91,69.02c-7.32,0-13.27-5.95-13.27-13.27s5.95-13.27,13.27-13.27,13.27,5.95,13.27,13.27-5.95,13.27-13.27,13.27Zm0-26.03c-7.04,0-12.77,5.73-12.77,12.77s5.73,12.77,12.77,12.77,12.77-5.73,12.77-12.77-5.73-12.77-12.77-12.77Z"/>
        <path class="cls-3" d="m482.95,69.02c-7.32,0-13.27-5.95-13.27-13.27s5.95-13.27,13.27-13.27,13.27,5.95,13.27,13.27-5.95,13.27-13.27,13.27Zm0-26.03c-7.04,0-12.77,5.73-12.77,12.77s5.73,12.77,12.77,12.77,12.77-5.73,12.77-12.77-5.73-12.77-12.77-12.77Z"/>
        <path class="cls-3" d="m485.03,56.05h-4.06c-.14,0-.25-.11-.25-.25s.11-.25.25-.25h4.06c.14,0,.25.11.25.25s-.11.25-.25.25Z"/>
        <path class="cls-3" d="m482.99,58.08c-.14,0-.25-.11-.25-.25v-4.06c0-.14.11-.25.25-.25s.25.11.25.25v4.06c0,.14-.11.25-.25.25Z"/>
        <path class="cls-3" d="m437.99,56.05h-4.07c-.14,0-.25-.11-.25-.25s.11-.25.25-.25h4.07c.14,0,.25.11.25.25s-.11.25-.25.25Z"/>
        <path class="cls-3" d="m435.96,58.08c-.14,0-.25-.11-.25-.25v-4.06c0-.14.11-.25.25-.25s.25.11.25.25v4.06c0,.14-.11.25-.25.25Z"/>
        <path class="cls-3" d="m750.59,27.11c-.1,0-.2-.06-.24-.17l-2.46-6.9h-66.13l-2.46,6.9c-.05.13-.19.2-.32.15-.13-.05-.2-.19-.15-.32l2.52-7.06c.04-.1.13-.17.24-.17h66.49c.11,0,.2.07.24.17l2.52,7.06c.05.13-.02.27-.15.32-.03.01-.06.01-.08.01Z"/>
        <path class="cls-3" d="m757.27,118.09h-84.88c-.14,0-.25-.11-.25-.25V26.86c0-.14.11-.25.25-.25h84.88c.14,0,.25.11.25.25v90.97c0,.14-.11.25-.25.25Zm-84.63-.5h84.38V27.11h-84.38v90.47Z"/>
        <path class="cls-3" d="m757.27,112.86h-84.88c-.14,0-.25-.11-.25-.25s.11-.25.25-.25h84.88c.14,0,.25.11.25.25s-.11.25-.25.25Z"/>
        <path class="cls-3" d="m377.79,641.87h-78.39c-.14,0-.25-.11-.25-.25v-208.95c0-.14.11-.25.25-.25h78.39c.14,0,.25.11.25.25v208.95c0,.14-.11.25-.25.25Zm-78.14-.5h77.89v-208.45h-77.89v208.45Z"/>
        <path class="cls-3" d="m373.83,638h-70.46c-.14,0-.25-.11-.25-.25v-201.21c0-.14.11-.25.25-.25h70.46c.14,0,.25.11.25.25v201.21c0,.14-.11.25-.25.25Zm-70.21-.5h69.96v-200.71h-69.96v200.71Z"/>
        <path class="cls-3" d="m337.34,638c-.14,0-.25-.11-.25-.25v-201.21c0-.14.11-.25.25-.25s.25.11.25.25v201.21c0,.14-.11.25-.25.25Z"/>
        <path class="cls-3" d="m339.95,638c-.14,0-.25-.11-.25-.25v-201.21c0-.14.11-.25.25-.25s.25.11.25.25v201.21c0,.14-.11.25-.25.25Z"/>
        <path class="cls-3" d="m887.2,272.75c-28.93,0-52.46-23.54-52.46-52.46s23.54-52.46,52.46-52.46,52.46,23.54,52.46,52.46-23.54,52.46-52.46,52.46Zm0-104.43c-28.65,0-51.96,23.31-51.96,51.96s23.31,51.96,51.96,51.96,51.96-23.31,51.96-51.96-23.31-51.96-51.96-51.96Z"/>
        <path class="cls-3" d="m299.4,641.87h-117.59c-.14,0-.25-.11-.25-.25v-65.33c0-.14.11-.25.25-.25h117.59c.14,0,.25.11.25.25v65.33c0,.14-.11.25-.25.25Zm-117.34-.5h117.09v-64.83h-117.09v64.83Z"/>
        <path class="cls-3" d="m269.98,576.54h-58.75c-.14,0-.25-.11-.25-.25v-39.2c0-.14.11-.25.25-.25h58.75c.14,0,.25.11.25.25v39.2c0,.14-.11.25-.25.25Zm-58.5-.5h58.25v-38.7h-58.25v38.7Z"/>
        <path class="cls-3" d="m269.98,543.93h-58.75c-.14,0-.25-.11-.25-.25s.11-.25.25-.25h58.75c.14,0,.25.11.25.25s-.11.25-.25.25Z"/>
        <path class="cls-3" d="m214.23,628.9c-.14,0-.25-.11-.25-.25v-40.75c0-.14.11-.25.25-.25s.25.11.25.25v40.75c0,.14-.11.25-.25.25Z"/>
        <path class="cls-3" d="m214.18,625.8c-9.66,0-17.53-7.86-17.53-17.53s7.86-17.53,17.53-17.53,17.53,7.86,17.53,17.53-7.86,17.53-17.53,17.53Zm0-34.55c-9.39,0-17.03,7.64-17.03,17.03s7.64,17.03,17.03,17.03,17.03-7.64,17.03-17.03-7.64-17.03-17.03-17.03Z"/>
        <path class="cls-3" d="m214.18,619.51c-6.19,0-11.23-5.04-11.23-11.23s5.04-11.23,11.23-11.23,11.24,5.04,11.24,11.23-5.04,11.23-11.24,11.23Zm0-21.97c-5.92,0-10.73,4.82-10.73,10.73s4.82,10.73,10.73,10.73,10.74-4.82,10.74-10.73-4.82-10.73-10.74-10.73Z"/>
        <path class="cls-3" d="m234.65,608.57h-40.75c-.14,0-.25-.11-.25-.25s.11-.25.25-.25h40.75c.14,0,.25.11.25.25s-.11.25-.25.25Z"/>
        <path class="cls-3" d="m934.28,436.79h-182.92c-.14,0-.25-.11-.25-.25v-6.48c0-.14.11-.25.25-.25h182.92c.14,0,.25.11.25.25v6.48c0,.14-.11.25-.25.25Zm-182.67-.5h182.42v-5.98h-182.42v5.98Z"/>
        <path class="cls-3" d="m921.22,443.37h-156.79c-.14,0-.25-.11-.25-.25v-6.58c0-.14.11-.25.25-.25s.25.11.25.25v6.33h156.29v-6.33c0-.14.11-.25.25-.25s.25.11.25.25v6.58c0,.14-.11.25-.25.25Z"/>
        <path class="cls-3" d="m930.41,430.3c-.14,0-.25-.11-.25-.25v-2.61c0-.14.11-.25.25-.25s.25.11.25.25v2.61c0,.14-.11.25-.25.25Z"/>
        <path class="cls-3" d="m755.34,430.3c-.14,0-.25-.11-.25-.25v-2.61c0-.14.11-.25.25-.25h175.08c.14,0,.25.11.25.25s-.11.25-.25.25h-174.83v2.36c0,.14-.11.25-.25.25Z"/>
        <path class="cls-3" d="m1038.81,137.64h-274.38c-.14,0-.25-.11-.25-.25V19.8c0-.14.11-.25.25-.25h274.38c.14,0,.25.11.25.25v117.59c0,.14-.11.25-.25.25Zm-274.12-.5h273.88V20.05h-273.88v117.09Z"/>
        <path class="cls-3" d="m784.08,137.64c-.14,0-.25-.11-.25-.25V39.45c0-.14.11-.25.25-.25h235.08c.14,0,.25.11.25.25s-.11.25-.25.25h-234.83v97.69c0,.14-.11.25-.25.25Z"/>
        <path class="cls-3" d="m998.06,118.48s-.04,0-.06,0l-56.81-15.1c-.13-.04-.21-.17-.18-.31l1.84-6.97c.04-.13.17-.21.31-.18.13.04.21.17.18.31l-1.78,6.73,56.33,14.97,14.97-56.33-56.33-14.97-6.42,24.24c-.03.13-.17.21-.31.18-.13-.04-.21-.17-.18-.31l6.48-24.49c.02-.06.06-.12.12-.15.06-.03.12-.04.19-.03l56.81,15.1c.13.04.21.17.18.31l-15.1,56.81c-.02.06-.06.12-.12.15-.04.02-.08.03-.12.03Z"/>
        <path class="cls-3" d="m908.73,116.83c-.08,0-.17-.04-.21-.12l-30-50.52c-.04-.06-.04-.13-.02-.2.02-.07.07-.12.13-.15l50.52-23.52c.11-.05.24-.02.31.09l30,44.04c.04.06.05.13.04.19s-.06.13-.12.16l-50.52,30s-.08.04-.13.04Zm-29.65-50.66l29.73,50.07,50.08-29.74-29.73-43.64-50.08,23.31Z"/>
        <path class="cls-3" d="m1019.16,137.64c-.14,0-.25-.11-.25-.25V39.45c0-.14.11-.25.25-.25s.25.11.25.25v97.94c0,.14-.11.25-.25.25Z"/>
        <path class="cls-3" d="m532.45,432.24h-32.62c-.14,0-.25-.11-.25-.25v-58.84c0-.14.11-.25.25-.25h32.62c.14,0,.25.11.25.25s-.11.25-.25.25h-32.37v58.34h32.37c.14,0,.25.11.25.25s-.11.25-.25.25Z"/>
        <path class="cls-3" d="m663.1,356.46c-.14,0-.25-.11-.25-.25v-58.75c0-.14.11-.25.25-.25s.25.11.25.25v58.75c0,.14-.11.25-.25.25Z"/>
        <path class="cls-3" d="m532.45,356.46h-32.62c-.14,0-.25-.11-.25-.25v-58.75c0-.14.11-.25.25-.25h32.62c.14,0,.25.11.25.25s-.11.25-.25.25h-32.37v58.25h32.37c.14,0,.25.11.25.25s-.11.25-.25.25Z"/>
        <path class="cls-3" d="m663.1,432.24c-.14,0-.25-.11-.25-.25v-58.84c0-.14.11-.25.25-.25s.25.11.25.25v58.84c0,.14-.11.25-.25.25Z"/>
        <path class="cls-3" d="m669.59,356.46h-32.62c-.14,0-.25-.11-.25-.25s.11-.25.25-.25h32.37v-58.25h-32.37c-.14,0-.25-.11-.25-.25s.11-.25.25-.25h32.62c.14,0,.25.11.25.25v58.75c0,.14-.11.25-.25.25Z"/>
        <path class="cls-3" d="m669.59,432.24h-32.62c-.14,0-.25-.11-.25-.25s.11-.25.25-.25h32.37v-58.34h-32.37c-.14,0-.25-.11-.25-.25s.11-.25.25-.25h32.62c.14,0,.25.11.25.25v58.84c0,.14-.11.25-.25.25Z"/>
        <path class="cls-3" d="m636.97,443.37h-104.52c-.14,0-.25-.11-.25-.25v-156.79c0-.14.11-.25.25-.25h104.52c.14,0,.25.11.25.25v156.79c0,.14-.11.25-.25.25Zm-104.27-.5h104.02v-156.29h-104.02v156.29Z"/>
        <path class="cls-3" d="m763.17,704.58h-195.98c-.14,0-.25-.11-.25-.25v-248.15c0-.14.11-.25.25-.25h195.98c.14,0,.25.11.25.25v248.15c0,.14-.11.25-.25.25Zm-195.73-.5h195.48v-247.65h-195.48v247.65Z"/>
        <path class="cls-3" d="m763.17,502.12h-195.98c-.14,0-.25-.11-.25-.25s.11-.25.25-.25h195.98c.14,0,.25.11.25.25s-.11.25-.25.25Z"/>
        <path class="cls-3" d="m763.17,543.05s-.03,0-.04,0l-152.04-27.87h-43.89c-.14,0-.25-.11-.25-.25s.11-.25.25-.25h43.94l152.09,27.88c.14.03.23.16.2.29-.02.12-.13.21-.25.21Z"/>
        <path class="cls-3" d="m752.72,502.12h-81.01c-.14,0-.25-.11-.25-.25v-35.23c0-.14.11-.25.25-.25h81.01c.14,0,.25.11.25.25v35.23c0,.14-.11.25-.25.25Zm-80.76-.5h80.51v-34.73h-80.51v34.73Z"/>
        <path class="cls-3" d="m658.65,502.12h-81.01c-.14,0-.25-.11-.25-.25v-35.23c0-.14.11-.25.25-.25h81.01c.14,0,.25.11.25.25v35.23c0,.14-.11.25-.25.25Zm-80.76-.5h80.51v-34.73h-80.51v34.73Z"/>
        <path class="cls-3" d="m537.77,506.18c-.14,0-.25-.11-.25-.25v-40.74c0-.14.11-.25.25-.25s.25.11.25.25v40.74c0,.14-.11.25-.25.25Z"/>
        <path class="cls-3" d="m537.72,502.99c-9.66,0-17.53-7.86-17.53-17.53s7.86-17.53,17.53-17.53,17.53,7.86,17.53,17.53-7.86,17.53-17.53,17.53Zm0-34.55c-9.39,0-17.03,7.64-17.03,17.03s7.64,17.03,17.03,17.03,17.03-7.64,17.03-17.03-7.64-17.03-17.03-17.03Z"/>
        <path class="cls-3" d="m537.72,496.7c-6.19,0-11.23-5.04-11.23-11.23s5.04-11.23,11.23-11.23,11.23,5.04,11.23,11.23-5.04,11.23-11.23,11.23Zm0-21.97c-5.92,0-10.73,4.82-10.73,10.73s4.82,10.73,10.73,10.73,10.73-4.82,10.73-10.73-4.82-10.73-10.73-10.73Z"/>
        <path class="cls-3" d="m558.19,485.76h-40.74c-.14,0-.25-.11-.25-.25s.11-.25.25-.25h40.74c.14,0,.25.11.25.25s-.11.25-.25.25Z"/>
        <path class="cls-3" d="m567.19,515.18h-58.75c-.14,0-.25-.11-.25-.25v-58.75c0-.14.11-.25.25-.25h58.75c.14,0,.25.11.25.25v58.75c0,.14-.11.25-.25.25Zm-58.5-.5h58.25v-58.25h-58.25v58.25Z"/>
        <path class="cls-3" d="m825.89,871.82h-313.57c-.14,0-.25-.11-.25-.25v-70.55c0-.14.11-.25.25-.25h313.57c.14,0,.25.11.25.25v70.55c0,.14-.11.25-.25.25Zm-313.32-.5h313.07v-70.05h-313.07v70.05Z"/>
        <path class="cls-3" d="m829.76,875.69h-321.31c-.14,0-.25-.11-.25-.25v-78.39c0-.14.11-.25.25-.25h321.31c.14,0,.25.11.25.25v78.39c0,.14-.11.25-.25.25Zm-321.06-.5h320.81v-77.89h-320.81v77.89Z"/>
        <path class="cls-3" d="m792.6,506.18c-.14,0-.25-.11-.25-.25v-40.74c0-.14.11-.25.25-.25s.25.11.25.25v40.74c0,.14-.11.25-.25.25Z"/>
        <path class="cls-3" d="m792.55,502.99c-9.66,0-17.53-7.86-17.53-17.53s7.86-17.53,17.53-17.53,17.53,7.86,17.53,17.53-7.86,17.53-17.53,17.53Zm0-34.55c-9.39,0-17.03,7.64-17.03,17.03s7.64,17.03,17.03,17.03,17.03-7.64,17.03-17.03-7.64-17.03-17.03-17.03Z"/>
        <path class="cls-3" d="m792.55,496.7c-6.19,0-11.23-5.04-11.23-11.23s5.04-11.23,11.23-11.23,11.24,5.04,11.24,11.23-5.04,11.23-11.24,11.23Zm0-21.97c-5.92,0-10.73,4.82-10.73,10.73s4.82,10.73,10.73,10.73,10.74-4.82,10.74-10.73-4.82-10.73-10.74-10.73Z"/>
        <path class="cls-3" d="m812.92,485.76h-40.75c-.14,0-.25-.11-.25-.25s.11-.25.25-.25h40.75c.14,0,.25.11.25.25s-.11.25-.25.25Z"/>
        <path class="cls-3" d="m821.92,515.18h-58.75c-.14,0-.25-.11-.25-.25v-58.75c0-.14.11-.25.25-.25h58.75c.14,0,.25.11.25.25v58.75c0,.14-.11.25-.25.25Zm-58.5-.5h58.25v-58.25h-58.25v58.25Z"/>
        <path class="cls-3" d="m825.89,835.24h-313.57c-.14,0-.25-.11-.25-.25s.11-.25.25-.25h313.57c.14,0,.25.11.25.25s-.11.25-.25.25Z"/>
        <path class="cls-3" d="m825.89,837.85h-313.57c-.14,0-.25-.11-.25-.25s.11-.25.25-.25h313.57c.14,0,.25.11.25.25s-.11.25-.25.25Z"/>
        <path class="cls-3" d="m784.47,861.37c-.14,0-.25-.11-.25-.25v-52.26c0-.14.11-.25.25-.25s.25.11.25.25v52.26c0,.14-.11.25-.25.25Z"/>
        <path class="cls-3" d="m705.88,861.37c-.14,0-.25-.11-.25-.25v-52.26c0-.14.11-.25.25-.25s.25.11.25.25v52.26c0,.14-.11.25-.25.25Z"/>
        <path class="cls-3" d="m689.52,861.37c-.14,0-.25-.11-.25-.25v-52.26c0-.14.11-.25.25-.25s.25.11.25.25v52.26c0,.14-.11.25-.25.25Z"/>
        <path class="cls-3" d="m643.55,861.37c-.14,0-.25-.11-.25-.25v-52.26c0-.14.11-.25.25-.25s.25.11.25.25v52.26c0,.14-.11.25-.25.25Z"/>
        <path class="cls-3" d="m631.26,861.37c-.14,0-.25-.11-.25-.25v-52.26c0-.14.11-.25.25-.25s.25.11.25.25v52.26c0,.14-.11.25-.25.25Z"/>
        <path class="cls-3" d="m660.97,861.27c-.13,0-.24-.1-.25-.23l-4.55-52.07c-.01-.14.09-.26.23-.27.15-.01.26.09.27.23l4.55,52.07c.01.14-.09.26-.23.27,0,0-.01,0-.02,0Z"/>
        <path class="cls-3" d="m592.07,861.27s-.01,0-.02,0c-.14-.01-.24-.13-.23-.27l4.55-52.07c.01-.14.13-.24.27-.23.14.01.24.13.23.27l-4.55,52.07c-.01.13-.12.23-.25.23Z"/>
        <path class="cls-3" d="m578.81,861.27s-.01,0-.02,0c-.14-.01-.24-.13-.23-.27l4.55-52.07c.01-.14.14-.24.27-.23.14.01.24.13.23.27l-4.55,52.07c-.01.13-.12.23-.25.23Z"/>
        <path class="cls-3" d="m551.42,861.37c-.14,0-.25-.11-.25-.25v-52.26c0-.14.11-.25.25-.25s.25.11.25.25v52.26c0,.14-.11.25-.25.25Z"/>
        <path class="cls-3" d="m538.55,861.37c-.14,0-.25-.11-.25-.25v-52.26c0-.14.11-.25.25-.25s.25.11.25.25v52.26c0,.14-.11.25-.25.25Z"/>
        <path class="cls-3" d="m727.85,861.27c-.13,0-.24-.1-.25-.23l-4.55-52.07c-.01-.14.09-.26.23-.27.13-.01.26.09.27.23l4.55,52.07c.01.14-.09.26-.23.27,0,0-.01,0-.02,0Z"/>
        <path class="cls-3" d="m799.27,861.27s-.01,0-.02,0c-.14-.01-.24-.13-.23-.27l4.55-52.07c.01-.14.14-.24.27-.23.14.01.24.13.23.27l-4.55,52.07c-.01.13-.12.23-.25.23Z"/>
        <path class="cls-3" d="m765.4,861.37c-.14,0-.25-.11-.25-.25v-52.26c0-.14.11-.25.25-.25s.25.11.25.25v52.26c0,.14-.11.25-.25.25Z"/>
        <path class="cls-3" d="m364.73,476.86h-52.26c-.14,0-.25-.11-.25-.25s.11-.25.25-.25h52.26c.14,0,.25.11.25.25s-.11.25-.25.25Z"/>
        <path class="cls-3" d="m364.73,460.5h-52.26c-.14,0-.25-.11-.25-.25s.11-.25.25-.25h52.26c.14,0,.25.11.25.25s-.11.25-.25.25Z"/>
        <path class="cls-3" d="m364.63,497.76s-.01,0-.02,0l-52.07-4.55c-.14-.01-.24-.13-.23-.27.01-.14.13-.25.27-.23l52.07,4.55c.14.01.24.13.23.27-.01.13-.12.23-.25.23Z"/>
        <path class="cls-3" d="m364.73,599.67h-52.26c-.14,0-.25-.11-.25-.25s.11-.25.25-.25h52.26c.14,0,.25.11.25.25s-.11.25-.25.25Z"/>
        <path class="cls-3" d="m364.73,616.03h-52.26c-.14,0-.25-.11-.25-.25s.11-.25.25-.25h52.26c.14,0,.25.11.25.25s-.11.25-.25.25Z"/>
        <path class="cls-3" d="m312.56,583.31c-.13,0-.24-.1-.25-.23-.01-.14.09-.26.23-.27l52.07-4.55c.13-.02.26.09.27.23s-.09.26-.23.27l-52.07,4.55s-.01,0-.02,0Z"/>
        <path class="cls-3" d="m364.63,532.02s-.01,0-.02,0l-52.07-4.55c-.14-.01-.24-.13-.23-.27.01-.14.13-.24.27-.23l52.07,4.55c.14.01.24.13.23.27-.01.13-.12.23-.25.23Z"/>
        <path class="cls-3" d="m364.63,551.09s-.01,0-.02,0l-52.07-4.55c-.14-.01-.24-.13-.23-.27.01-.14.13-.25.27-.23l52.07,4.55c.14.01.24.13.23.27-.01.13-.12.23-.25.23Z"/>
        <path class="cls-3" d="m508.45,875.69h-117.59c-.14,0-.25-.11-.25-.25v-65.33c0-.14.11-.25.25-.25h117.59c.14,0,.25.11.25.25v65.33c0,.14-.11.25-.25.25Zm-117.34-.5h117.09v-64.83h-117.09v64.83Z"/>
        <path class="cls-3" d="m479.03,810.36h-58.75c-.14,0-.25-.11-.25-.25v-39.2c0-.14.11-.25.25-.25h58.75c.14,0,.25.11.25.25v39.2c0,.14-.11.25-.25.25Zm-58.5-.5h58.25v-38.7h-58.25v38.7Z"/>
        <path class="cls-3" d="m479.03,777.75h-58.75c-.14,0-.25-.11-.25-.25s.11-.25.25-.25h58.75c.14,0,.25.11.25.25s-.11.25-.25.25Z"/>
        <path class="cls-3" d="m181.81,641.87H43.42c-.14,0-.25-.11-.25-.25v-245.53c0-.14.11-.25.25-.25h138.4c.14,0,.25.11.25.25v245.53c0,.14-.11.25-.25.25Zm-138.15-.5h137.9v-245.03H43.67v245.03Z"/>
        <path class="cls-3" d="m181.81,598.8H43.42c-.14,0-.25-.11-.25-.25s.11-.25.25-.25h138.4c.14,0,.25.11.25.25s-.11.25-.25.25Z"/>
        <path class="cls-3" d="m181.81,585.73h-43.94l-94.5-17.33c-.14-.03-.23-.16-.2-.29.03-.14.16-.23.29-.2l94.46,17.32h43.89c.14,0,.25.11.25.25s-.11.25-.25.25Z"/>
        <path class="cls-3" d="m153.07,634.03h-81.01c-.14,0-.25-.11-.25-.25v-35.23c0-.14.11-.25.25-.25h81.01c.14,0,.25.11.25.25v35.23c0,.14-.11.25-.25.25Zm-80.76-.5h80.51v-34.73h-80.51v34.73Z"/>
        <path class="cls-3" d="m506.51,356.46c-.14,0-.25-.11-.25-.25v-58.75c0-.14.11-.25.25-.25s.25.11.25.25v58.75c0,.14-.11.25-.25.25Z"/>
        <path class="cls-3" d="m506.51,432.24c-.14,0-.25-.11-.25-.25v-58.84c0-.14.11-.25.25-.25s.25.11.25.25v58.84c0,.14-.11.25-.25.25Z"/>
      </g>
    </g>
  </g>
</svg>