<?xml version="1.0" encoding="UTF-8"?>
<svg id="_圖層_2" data-name="圖層 2" xmlns="http://www.w3.org/2000/svg" viewBox="0 0 185.49 142.91">
  <defs>
    <style>
      .cls-1 {
        fill: #fff;
      }

      .cls-2 {
        fill: #c3a456;
      }
    </style>
  </defs>
  <g id="_圖層_6" data-name="圖層 6">
    <g>
      <g>
        <path class="cls-1" d="M23.75,92.49l.24,8.63h-.46c-.15-.37-.26-.66-.34-.85-.47-1.24-.85-2.15-1.14-2.76-.52-1.08-1.28-2.07-2.27-2.97-.75-.68-1.53-1.18-2.33-1.49-.8-.31-1.71-.46-2.71-.46-1.51,0-2.82,.32-3.93,.95-.98,.55-1.89,1.35-2.73,2.38-.84,1.04-1.53,2.22-2.07,3.54-.76,1.87-1.14,3.99-1.14,6.37,0,2.02,.26,3.84,.78,5.46s1.28,2.98,2.29,4.07c1.85,2.03,4.3,3.05,7.35,3.05,1.53,0,2.9-.25,4.11-.76,1.22-.51,2.16-1.23,2.83-2.15,.78-1.07,1.34-2.51,1.69-4.32l.46,.08c-.25,2.03-.83,3.65-1.73,4.84-.86,1.15-2.04,2.02-3.54,2.62s-3.25,.91-5.23,.91c-1.85,0-3.61-.26-5.3-.79-2.69-.85-4.79-2.38-6.3-4.6-1.51-2.22-2.27-4.87-2.27-7.94,0-2.35,.44-4.53,1.33-6.51,.88-1.99,2.11-3.59,3.69-4.8,1.22-.93,2.67-1.66,4.37-2.21,1.69-.55,3.39-.82,5.09-.82s3.33,.3,5.14,.89l1.65,.52c.32,.12,.6,.17,.84,.17,.33,0,.61-.14,.82-.41,.09-.13,.21-.34,.34-.64h.48Z"/>
        <path class="cls-1" d="M34.8,118.97v-.46c1.35,0,2.4-.37,3.13-1.1,.41-.41,.7-.94,.85-1.57,.15-.64,.23-1.61,.23-2.92v-14.22c0-1.36-.08-2.37-.25-3.02-.17-.65-.48-1.18-.93-1.59-.38-.33-.79-.58-1.25-.73-.46-.15-1.05-.24-1.78-.27v-.44h12.83v.44c-.74,.04-1.34,.14-1.81,.29-.47,.15-.88,.4-1.24,.73-.45,.42-.76,.96-.92,1.6-.16,.64-.24,1.64-.24,2.99v11.14c0,1.71,.05,2.99,.14,3.82,.09,.84,.27,1.52,.54,2.05,.47,.93,1.16,1.61,2.09,2.04,.92,.43,2.15,.65,3.67,.65s2.93-.2,4.02-.61c1.09-.41,1.98-1.03,2.68-1.88,.47-.58,.85-1.24,1.15-1.97,.3-.73,.58-1.7,.83-2.9l.48,.04-.26,7.91h-23.97Z"/>
        <path class="cls-1" d="M98.09,118.97h-13.19v-.44c1.19-.1,2.02-.3,2.49-.58,.83-.5,1.24-1.2,1.24-2.08,0-.53-.19-1.24-.56-2.12l-.34-.81-1.93-4.55h-8.83l-1.04,2.66-.5,1.2c-.6,1.42-.9,2.53-.9,3.34,0,.48,.11,.92,.33,1.33,.22,.41,.52,.75,.89,1,.52,.35,1.19,.55,2.01,.62v.44h-8.99v-.44c.71-.04,1.33-.21,1.87-.5,.54-.3,1.06-.77,1.57-1.43,.43-.53,.85-1.21,1.25-2.04,.41-.83,.95-2.07,1.62-3.73l7.35-18.2h1.14l8.73,20.28c.66,1.53,1.18,2.62,1.57,3.28,.39,.66,.81,1.15,1.26,1.49,.32,.23,.69,.41,1.1,.53,.41,.12,1.04,.23,1.87,.32v.44Zm-12.61-11.39l-4.22-10-3.97,10h8.19Z"/>
        <path class="cls-1" d="M165.21,118.97v-.44c.76-.04,1.38-.14,1.87-.31,.48-.17,.91-.44,1.28-.81,.41-.41,.7-.93,.84-1.56,.15-.63,.22-1.61,.22-2.93l.02-3.76c0-.54-.11-1.14-.34-1.79-.25-.76-.78-1.71-1.57-2.86l-5.2-7.51-.92-1.35c-.68-.98-1.35-1.65-2.01-2.01-.33-.19-.67-.33-1-.41-.33-.08-.8-.13-1.41-.15v-.44h13.09v.44c-1.11,.07-1.82,.16-2.13,.29-.75,.31-1.12,.87-1.12,1.68,0,.3,.08,.63,.25,1,.17,.37,.44,.84,.81,1.41l5.44,8.18,4.66-6.99,.52-.79c.5-.75,.74-1.48,.74-2.2,0-.82-.27-1.46-.82-1.91-.55-.45-1.32-.68-2.31-.68v-.44h9.23v.44c-.7,.08-1.23,.19-1.61,.34-.38,.15-.76,.39-1.14,.72-.91,.82-1.92,2.05-3.03,3.69l-4.58,6.72c-.55,.8-.88,1.38-1,1.76-.12,.37-.18,1-.18,1.89v4.73c0,1.38,.07,2.36,.21,2.96,.14,.6,.42,1.11,.85,1.53,.74,.75,1.79,1.12,3.15,1.12v.44h-12.83Z"/>
      </g>
      <path class="cls-2" d="M122.33,108.62c-.51-.86-1.13-1.56-1.85-2.08-.03-.03-.07-.05-.1-.07-.69-.49-1.4-.85-2.12-1.1-.76-.26-1.39-.47-1.89-.63l-4.75-1.49c-.68-.21-1.35-.45-2.02-.73-.67-.28-1.27-.61-1.81-1.02-.54-.41-.98-.91-1.31-1.49-.34-.59-.51-1.3-.51-2.14,0-1.05,.22-1.91,.65-2.59,.43-.68,.98-1.23,1.63-1.65,.66-.42,1.36-.71,2.12-.88,.03,0,.06-.01,.08-.02,.73-.16,1.4-.24,2-.24,1.13,0,2.12,.2,2.97,.61,.85,.41,1.58,.95,2.18,1.61,1.64,1.8,2.75,5.56,2.75,5.56v-8.01c-.32,.98-1.08,1.24-1.72,1.21-.37-.02-.73-.08-1.08-.24-.36-.16-.75-.33-1.2-.53-.45-.19-.98-.37-1.59-.53-.61-.16-1.38-.24-2.3-.24-.73,0-1.42,.08-2.08,.22-.48,.1-.95,.23-1.4,.41-.41,.16-.79,.36-1.15,.56-.58,.33-1.11,.72-1.58,1.16-.76,.74-1.35,1.61-1.77,2.61-.42,1.01-.63,2.1-.63,3.28,0,1.81,.54,3.25,1.63,4.32,1.09,1.07,2.69,1.94,4.81,2.59l4.52,1.37c.55,.16,1.13,.38,1.75,.67,.62,.29,1.19,.66,1.71,1.12,.52,.46,.96,1.02,1.3,1.67,.05,.1,.1,.2,.14,.31,.46,.91,.72,1.95,.72,3.05,0,1.81-.7,3.45-1.83,4.65,2.44-1.75,3.44-3.58,3.82-4.49,.46-1.11,.68-2.28,.68-3.52,0-1.34-.25-2.44-.76-3.3Z"/>
      <path class="cls-2" d="M148.98,108.76c-.51-.86-1.13-1.56-1.85-2.08-.03-.03-.07-.05-.1-.07-.69-.49-1.4-.85-2.12-1.1-.76-.26-1.39-.47-1.89-.63l-4.75-1.49c-.68-.21-1.35-.45-2.02-.73-.67-.28-1.27-.61-1.81-1.02-.54-.41-.98-.91-1.31-1.49-.34-.59-.51-1.3-.51-2.14,0-1.05,.22-1.91,.65-2.59,.43-.68,.98-1.23,1.63-1.65,.66-.42,1.36-.71,2.12-.88,.03,0,.06-.01,.08-.02,.73-.16,1.4-.24,2-.24,1.13,0,2.12,.2,2.97,.61,.85,.41,1.58,.95,2.18,1.61,1.64,1.8,2.75,5.56,2.75,5.56v-8.01c-.32,.98-1.08,1.24-1.72,1.21-.37-.02-.73-.08-1.08-.24-.36-.16-.75-.33-1.2-.53-.45-.19-.98-.37-1.59-.53-.61-.16-1.38-.24-2.3-.24-.73,0-1.42,.08-2.08,.22-.48,.1-.95,.23-1.4,.41-.41,.16-.79,.36-1.15,.56-.58,.33-1.11,.72-1.58,1.16-.76,.74-1.35,1.61-1.77,2.61-.42,1.01-.63,2.1-.63,3.28,0,1.81,.54,3.25,1.63,4.32,1.09,1.07,2.69,1.94,4.81,2.59l4.52,1.37c.55,.16,1.13,.38,1.75,.67,.62,.29,1.19,.66,1.71,1.12,.52,.46,.96,1.02,1.3,1.67,.05,.1,.1,.2,.14,.31,.46,.91,.72,1.95,.72,3.05,0,1.81-.7,3.45-1.83,4.65,2.45-1.75,3.44-3.58,3.82-4.49,.46-1.11,.68-2.28,.68-3.52,0-1.34-.25-2.44-.76-3.3Z"/>
      <g>
        <path class="cls-2" d="M60.74,76.99c-.13-.18-.3-.32-.51-.4-.21-.09-.44-.13-.67-.13-.14,0-.27,.02-.4,.05-.13,.03-.25,.08-.35,.15-.1,.07-.19,.16-.25,.27-.06,.11-.1,.24-.1,.4,0,.23,.08,.4,.24,.52s.36,.23,.59,.31c.23,.09,.49,.17,.77,.26s.54,.2,.77,.34c.23,.15,.43,.34,.59,.58,.16,.24,.24,.56,.24,.96,0,.36-.07,.68-.2,.95-.13,.27-.31,.49-.54,.67-.23,.18-.49,.31-.79,.4-.3,.09-.61,.13-.94,.13-.42,0-.82-.07-1.21-.21-.39-.14-.72-.38-1-.7l.91-.88c.15,.22,.34,.4,.58,.52,.24,.12,.49,.19,.76,.19,.14,0,.28-.02,.42-.06,.14-.04,.27-.1,.38-.17,.11-.08,.21-.17,.28-.29,.07-.12,.1-.25,.1-.41,0-.25-.08-.44-.24-.57-.16-.13-.36-.25-.59-.34-.24-.09-.49-.18-.77-.26-.28-.08-.54-.2-.77-.34-.24-.14-.43-.33-.59-.57-.16-.24-.24-.56-.24-.96,0-.35,.07-.65,.21-.91,.14-.25,.33-.47,.56-.63,.23-.17,.5-.29,.8-.38,.3-.08,.6-.12,.91-.12,.36,0,.7,.05,1.03,.16,.33,.11,.63,.29,.9,.53l-.88,.92Z"/>
        <path class="cls-2" d="M70.21,79.81c0,.41-.07,.77-.21,1.1-.14,.33-.33,.6-.57,.83-.24,.23-.53,.4-.86,.53-.33,.12-.69,.19-1.08,.19s-.75-.06-1.08-.19c-.33-.12-.62-.3-.86-.53-.24-.23-.44-.51-.57-.83-.14-.33-.21-.69-.21-1.1v-4.27h1.2v4.23c0,.17,.03,.34,.08,.52,.05,.18,.13,.35,.25,.5,.12,.15,.27,.28,.47,.38,.19,.1,.43,.15,.72,.15s.53-.05,.72-.15c.19-.1,.35-.22,.47-.38,.12-.15,.2-.32,.25-.5,.05-.18,.08-.35,.08-.52v-4.23h1.2v4.27Z"/>
        <path class="cls-2" d="M73.6,75.54h1.59l3.27,5.01h.02v-5.01h1.2v6.75h-1.52l-3.34-5.17h-.02v5.17h-1.2v-6.75Z"/>
        <path class="cls-2" d="M83.09,75.54h1.2v5.66h2.87v1.09h-4.07v-6.75Z"/>
        <path class="cls-2" d="M92.12,75.54h1.04l2.91,6.75h-1.37l-.63-1.54h-2.93l-.61,1.54h-1.34l2.94-6.75Zm1.52,4.17l-1.04-2.74-1.06,2.74h2.1Z"/>
        <path class="cls-2" d="M98.73,75.54h1.59l3.27,5.01h.02v-5.01h1.2v6.75h-1.52l-3.34-5.17h-.02v5.17h-1.2v-6.75Z"/>
        <path class="cls-2" d="M108.22,75.54h2.66c.44,0,.87,.07,1.29,.2,.41,.14,.78,.34,1.1,.62,.32,.28,.57,.63,.76,1.05,.19,.42,.29,.92,.29,1.49s-.11,1.08-.33,1.5c-.22,.42-.5,.77-.85,1.05-.35,.28-.73,.48-1.15,.62-.42,.14-.84,.2-1.24,.2h-2.52v-6.75Zm2.1,5.66c.37,0,.73-.04,1.06-.13,.33-.09,.62-.22,.87-.4,.25-.18,.44-.42,.59-.71,.14-.29,.21-.64,.21-1.05s-.06-.76-.19-1.05c-.13-.29-.3-.53-.53-.71-.23-.18-.49-.31-.8-.4-.31-.09-.65-.13-1.01-.13h-1.1v4.57h.9Z"/>
        <path class="cls-2" d="M117.17,81.07l2.62-2.53c.08-.08,.16-.16,.24-.24,.08-.09,.16-.18,.22-.27,.07-.1,.12-.2,.17-.3s.07-.21,.07-.33c0-.14-.03-.26-.08-.37-.05-.11-.13-.2-.21-.28-.09-.08-.19-.13-.31-.18-.12-.04-.24-.06-.38-.06-.29,0-.52,.08-.71,.25-.18,.16-.3,.39-.33,.67l-1.2-.1c.03-.31,.1-.59,.22-.82,.12-.24,.28-.44,.48-.6,.2-.16,.43-.28,.69-.36,.26-.08,.54-.12,.85-.12s.59,.04,.85,.12c.26,.08,.49,.2,.69,.35,.2,.16,.35,.35,.47,.6,.11,.24,.17,.52,.17,.85,0,.43-.1,.79-.29,1.1-.19,.31-.44,.6-.75,.88l-2.09,1.93h3.13v1.03h-4.52v-1.21Z"/>
        <path class="cls-2" d="M126.02,75.42c.29,0,.55,.04,.81,.12,.25,.08,.47,.19,.66,.34,.19,.15,.34,.33,.44,.55,.11,.22,.16,.47,.16,.76,0,.36-.08,.68-.25,.95-.17,.27-.42,.46-.77,.56v.02c.16,.03,.31,.1,.46,.2,.15,.1,.28,.22,.4,.36,.11,.14,.2,.31,.27,.49,.07,.18,.1,.38,.1,.59,0,.34-.06,.63-.18,.88-.12,.25-.28,.46-.49,.63-.2,.17-.44,.3-.72,.39-.28,.09-.58,.13-.89,.13s-.61-.04-.89-.13c-.28-.09-.52-.21-.72-.39-.2-.17-.37-.38-.49-.63-.12-.25-.18-.54-.18-.88,0-.21,.03-.41,.1-.59,.07-.18,.16-.35,.27-.49,.11-.14,.25-.26,.4-.36,.15-.1,.3-.16,.46-.2v-.02c-.34-.1-.6-.29-.77-.56-.17-.27-.25-.59-.25-.95,0-.29,.05-.54,.16-.76,.11-.22,.26-.4,.44-.55,.19-.15,.41-.26,.66-.34,.25-.08,.52-.12,.81-.12Zm0,3.75c-.15,0-.3,.03-.44,.08-.14,.05-.26,.12-.36,.22-.1,.1-.18,.21-.24,.34-.06,.13-.09,.27-.09,.42,0,.32,.11,.59,.32,.79,.21,.2,.48,.3,.81,.3s.6-.1,.81-.3c.21-.2,.32-.46,.32-.79,0-.15-.03-.29-.09-.42-.06-.13-.14-.24-.24-.34-.1-.1-.22-.17-.36-.22-.14-.05-.29-.08-.44-.08Zm0-2.77c-.29,0-.52,.09-.68,.27-.16,.18-.24,.39-.24,.65,0,.27,.08,.49,.25,.67,.17,.18,.39,.27,.68,.27,.13,0,.25-.02,.36-.07,.11-.05,.21-.11,.3-.2,.09-.09,.15-.19,.2-.3,.05-.11,.07-.24,.07-.37,0-.25-.09-.47-.26-.65-.17-.18-.4-.27-.66-.27Z"/>
      </g>
      <g>
        <path class="cls-1" d="M61.28,136.02h6.66v-2.89c0-.62-.04-1.08-.11-1.37-.07-.29-.21-.54-.4-.73-.18-.17-.37-.3-.6-.38-.22-.08-.51-.13-.88-.14v-.21h5.99v.21c-.36,.02-.65,.07-.87,.14-.22,.08-.42,.2-.6,.38-.19,.19-.33,.44-.4,.73-.07,.3-.11,.75-.11,1.37v6.65c0,.61,.04,1.07,.11,1.36,.07,.29,.2,.54,.4,.74,.17,.17,.37,.29,.6,.37,.22,.08,.51,.13,.87,.15v.21h-5.99v-.21c.36-.02,.65-.07,.88-.15,.22-.08,.42-.21,.6-.37,.19-.19,.33-.44,.4-.73,.07-.29,.11-.75,.11-1.37v-3.33h-6.66v3.33c0,.61,.04,1.07,.11,1.37,.07,.3,.2,.54,.4,.73,.17,.17,.36,.29,.59,.37,.22,.08,.51,.13,.88,.15v.21h-5.99v-.21c.36-.02,.65-.07,.88-.15,.22-.08,.42-.21,.59-.37,.2-.19,.33-.44,.4-.73,.07-.29,.1-.75,.1-1.37v-6.65c0-.62-.03-1.08-.1-1.37-.07-.29-.2-.54-.4-.73-.17-.17-.37-.3-.59-.38s-.52-.13-.87-.14v-.21h5.99v.21c-.36,.02-.65,.07-.87,.14-.22,.08-.42,.2-.6,.38-.19,.19-.33,.44-.4,.73-.07,.3-.11,.75-.11,1.37v2.89Z"/>
        <path class="cls-1" d="M77.16,136.53c0-1.01,.23-1.95,.67-2.81,.45-.86,1.11-1.62,1.97-2.26,.64-.48,1.34-.84,2.08-1.1,.74-.26,1.49-.38,2.25-.38,.96,0,1.89,.2,2.79,.61,.9,.41,1.69,.98,2.36,1.72,1.1,1.2,1.65,2.57,1.65,4.1,0,.77-.14,1.51-.43,2.23-.29,.72-.71,1.37-1.26,1.96-.68,.73-1.47,1.3-2.4,1.71-.92,.4-1.89,.6-2.89,.6s-1.94-.2-2.85-.59c-.91-.39-1.69-.94-2.34-1.66-.52-.56-.92-1.2-1.2-1.91s-.42-1.45-.42-2.22Zm2.27,.14c0,1.74,.49,3.22,1.48,4.41,.44,.54,.91,.92,1.41,1.17,.5,.24,1.07,.37,1.72,.37s1.23-.12,1.73-.36c.5-.24,.97-.63,1.42-1.17,.99-1.2,1.48-2.69,1.48-4.45,0-.97-.14-1.88-.41-2.75-.27-.86-.65-1.6-1.15-2.2-.4-.49-.85-.85-1.34-1.08s-1.07-.34-1.74-.34-1.24,.11-1.72,.33c-.48,.22-.93,.58-1.35,1.08-.49,.6-.88,1.33-1.14,2.19-.27,.87-.4,1.8-.4,2.79Z"/>
        <path class="cls-1" d="M112.33,130.5c-.36,.02-.64,.06-.86,.14-.22,.08-.41,.2-.6,.37-.14,.13-.24,.27-.31,.42-.07,.15-.12,.35-.14,.58-.04,.31-.07,.68-.07,1.11v6.65c0,.62,.04,1.08,.11,1.38,.08,.3,.21,.54,.4,.72,.34,.32,.83,.49,1.45,.52v.21h-5.99v-.21c.36-.02,.65-.07,.88-.15,.22-.08,.42-.21,.6-.37,.19-.19,.33-.44,.4-.73,.07-.3,.11-.75,.11-1.37v-8.06l-4.83,10.89h-.2l-4.8-10.73v7.9c0,.62,.04,1.08,.11,1.37,.07,.29,.2,.54,.4,.73,.18,.17,.37,.3,.6,.38,.22,.08,.51,.13,.87,.14v.21h-4.32v-.21c.36-.02,.65-.07,.87-.14,.22-.08,.42-.2,.6-.38,.19-.19,.33-.44,.4-.73,.07-.3,.11-.75,.11-1.37v-6.65c0-.28,0-.54-.03-.78-.03-.44-.1-.77-.22-.97-.16-.28-.37-.49-.64-.63-.27-.14-.63-.21-1.08-.24v-.21h4.07l4.06,9.64,4.21-9.64h3.85v.21Z"/>
        <path class="cls-1" d="M127.18,130.29l.16,2.98h-.22c-.08-.5-.22-.91-.4-1.24-.19-.33-.46-.62-.82-.87-.29-.21-.64-.36-1.04-.45-.4-.09-.93-.13-1.59-.13h-2.15v5.41h.56c.57,0,1-.04,1.28-.11,.29-.07,.52-.2,.7-.39,.17-.17,.3-.38,.39-.62s.15-.59,.21-1.05h.22s-.04,4.84-.04,4.84h-.22c-.06-.46-.14-.84-.25-1.12s-.26-.52-.45-.72c-.19-.19-.43-.33-.73-.42-.3-.09-.68-.14-1.14-.14h-.53v2.06c0,.82,.02,1.42,.07,1.8,.04,.38,.13,.69,.25,.94,.21,.43,.54,.75,.97,.95,.43,.2,1.01,.3,1.72,.3,.75,0,1.38-.09,1.88-.28,.51-.18,.92-.47,1.24-.85,.23-.26,.41-.55,.55-.88,.14-.33,.27-.77,.39-1.31h.22s-.12,3.6-.12,3.6h-11.19v-.21c.36-.02,.65-.07,.87-.14,.22-.08,.42-.2,.6-.38,.19-.19,.33-.44,.4-.73,.07-.3,.11-.75,.11-1.37v-6.65c0-.61-.04-1.07-.11-1.37-.07-.3-.2-.54-.4-.73-.17-.17-.36-.3-.59-.38-.22-.08-.51-.13-.88-.14v-.21h10.08Z"/>
      </g>
      <rect class="cls-1" x="0" y="136.81" width="52.83" height=".5"/>
      <rect class="cls-1" x="132.66" y="136.81" width="52.83" height=".5"/>
      <path class="cls-2" d="M92.12,61.29c0-11.91-9.75-21.66-21.66-21.66v-2.91c9.44,0,17.74,7.5,21.2,15.96,.02,.05,.07,.08,.12,.06,.05-.01,.08-.06,.07-.12-1.59-10.9-10.48-19.44-21.42-20.61v-2.89c9.85,1.23,18.2,9.34,21.46,18.55,.02,.05,.07,.08,.12,.07,.05,0,.09-.05,.08-.1-.32-12.38-9.56-22.53-21.66-23.88v-2.88c9.87,1.31,18.22,9.46,21.47,18.71,.02,.05,.07,.08,.12,.07,.05,0,.09-.05,.09-.1v-2.05c0-10.98-8.99-19.97-19.97-19.97v-2.91c8.86,0,16.64,7.22,19.77,15.22,.02,.05,.07,.07,.12,.06,.05,0,.08-.05,.08-.1v-2.68c0-7.62-6.23-13.85-13.85-13.85v-2.91c5.94,0,11.2,5.17,13.65,10.36,.02,.04,.07,.07,.12,.06,.05-.01,.08-.05,.08-.1v-4.54c0-4.39-3.59-7.98-7.98-7.98v-2.91c3.23,0,6.13,3.36,7.79,5.97,.03,.04,.07,.06,.12,.04,.05-.01,.08-.05,.08-.1l-.91-11.18h3.06l-.91,11.18s.03,.09,.08,.1c.05,.01,.09,0,.12-.04,1.66-2.61,4.56-5.97,7.79-5.97v2.91c-4.38,0-7.97,3.59-7.98,7.96v4.56s.03,.09,.08,.1c.05,.01,.1-.01,.12-.06,2.45-5.19,7.71-10.36,13.65-10.36v2.91c-7.61,0-13.85,6.23-13.85,13.83v2.7c0,.05,.03,.09,.08,.1,.05,0,.1-.02,.12-.06,3.12-8.01,10.9-15.22,19.77-15.22v2.91c-10.98,0-19.96,8.98-19.97,19.95v2.07c0,.05,.04,.09,.09,.1,.05,0,.1-.02,.12-.07,3.25-9.26,11.6-17.4,21.47-18.71v2.88c-11.96,1.35-21.34,11.36-21.66,23.88,0,.05,.03,.1,.08,.1,.05,0,.1-.02,.12-.07,3.26-9.21,11.61-17.32,21.46-18.55v2.89c-10.94,1.17-19.82,9.71-21.42,20.61,0,.05,.02,.1,.08,.12,.05,.01,.1-.01,.12-.06,3.46-8.46,11.76-15.96,21.2-15.96v2.91c-11.91,0-21.66,9.75-21.66,21.66,0,2.56,0,5.12,0,7.68h-1.24v-7.68h0Z"/>
    </g>
  </g>
</svg>