<?xml version="1.0" encoding="UTF-8"?>
<svg id="_圖層_2" data-name="圖層 2" xmlns="http://www.w3.org/2000/svg" viewBox="0 0 365.94 422.95">
  <defs>
    <style>
      .cls-1 {
        stroke: #cbcbcb;
        stroke-width: .5px;
      }

      .cls-1, .cls-2, .cls-3, .cls-4, .cls-5 {
        fill: none;
        stroke-miterlimit: 10;
      }

      .cls-2 {
        stroke: #c1272d;
      }

      .cls-3 {
        stroke: #78d1f3;
      }

      .cls-6 {
        fill: #efdab3;
      }

      .cls-7 {
        fill: #f68d1f;
      }

      .cls-8 {
        fill: #78d1f3;
      }

      .cls-9 {
        fill: #54e014;
      }

      .cls-4 {
        stroke: #54e014;
      }

      .cls-10 {
        fill: #1a1a1a;
      }

      .cls-5 {
        stroke: #8d6288;
      }

      .cls-11 {
        fill: #666;
      }
    </style>
  </defs>
  <g id="_圖層_1-2" data-name="圖層 1">
    <g>
      <line class="cls-1" y1="162.7" x2="365.89" y2="162.7"/>
      <g>
        <g>
          <circle class="cls-2" cx="17.19" cy="63.78" r="8"/>
          <line class="cls-2" x1="16.69" y1="52.28" x2="16.69" y2="55.28"/>
          <line class="cls-2" x1="5.69" y1="64.28" x2="8.69" y2="64.28"/>
          <line class="cls-2" x1="17.69" y1="75.28" x2="17.69" y2="72.28"/>
          <line class="cls-2" x1="28.69" y1="64.28" x2="25.69" y2="64.28"/>
          <line class="cls-2" x1="25.69" y1="55.28" x2="22.69" y2="58.28"/>
          <line class="cls-2" x1="11.69" y1="70.28" x2="8.69" y2="73.28"/>
          <line class="cls-2" x1="8.69" y1="55.28" x2="11.69" y2="58.28"/>
          <line class="cls-2" x1="22.69" y1="70.28" x2="25.69" y2="73.28"/>
        </g>
        <g>
          <polygon class="cls-7" points="19.19 133.93 27.28 133.93 23.24 126.93 19.19 119.93 15.15 126.93 11.11 133.93 19.19 133.93"/>
          <rect class="cls-7" x="10.69" y="134.93" width="17" height="2"/>
        </g>
        <g>
          <circle class="cls-9" cx="19.19" cy="195.1" r="6"/>
          <circle class="cls-4" cx="19.19" cy="195.1" r="8"/>
        </g>
        <g>
          <circle class="cls-5" cx="19.19" cy="260.42" r="5"/>
          <circle class="cls-5" cx="19.19" cy="260.42" r="8"/>
          <line class="cls-5" x1="19.19" y1="250.42" x2="19.19" y2="270.42"/>
          <line class="cls-5" x1="9.19" y1="260.42" x2="29.19" y2="260.42"/>
        </g>
        <g>
          <circle class="cls-3" cx="19.19" cy="323.43" r="8"/>
          <path class="cls-8" d="M19.19,331.43c-4.42,0-8-3.58-8-8s3.58-8,8-8"/>
        </g>
        <g>
          <rect class="cls-6" x="6.19" y="386.32" width="5" height="2"/>
          <rect class="cls-6" x="13.19" y="386.32" width="5" height="2"/>
          <rect class="cls-6" x="20.19" y="386.32" width="5" height="2"/>
          <rect class="cls-6" x="27.19" y="386.32" width="5" height="2"/>
        </g>
        <line class="cls-1" x1=".06" y1="32.25" x2="365.94" y2="32.25"/>
        <line class="cls-1" x1=".06" y1=".25" x2="365.94" y2=".25"/>
        <g>
          <path class="cls-10" d="M17.16,9.09c-.11,.16-.41,.29-.77,.36v14.06c-.02,.11-.68,.47-1.17,.47h-.22v-.94H3.08v.58c0,.2-.5,.54-1.12,.54h-.25V7.99l1.49,.68H14.82l.74-.86,1.6,1.28Zm-2.16,13.43V9.21H3.08v13.31H15Zm-1.82-9.43s.85,.65,1.39,1.15c-.04,.2-.22,.29-.47,.29H3.85l-.14-.52h4.65v-1.19h-1.75v.22c0,.11-.56,.4-1.08,.4h-.18v-3.58l1.35,.58h4.57l.63-.67,1.4,1.04c-.09,.11-.32,.23-.61,.27v1.85c0,.13-.67,.38-1.06,.38h-.22v-.49h-1.76v1.19h2.77l.76-.92Zm-.59,1.73l1.33,1.04c-.09,.13-.32,.25-.58,.29v5.24c-.02,.13-.63,.38-1.04,.38h-.2v-.77H5.98v.59c0,.13-.54,.4-1.04,.4h-.2v-7.08l1.33,.59h5.89l.63-.68Zm-.49,5.65v-4.45H5.98v4.45h6.12Zm-.68-8.17v-1.33H6.61v1.33h4.81Zm.11,4.99c-.07,.09-.29,.2-.5,.25v2.05c-.02,.11-.54,.34-.86,.34h-.14v-.58h-1.91v.32c0,.09-.45,.31-.86,.31h-.16v-3.51l1.1,.49h1.73l.5-.52,1.12,.85Zm-1.51,1.55v-1.35h-1.91v1.35h1.91Z"/>
          <path class="cls-10" d="M22.32,12.73c-.05,.14-.23,.27-.56,.31v10.7c-.02,.11-.59,.41-1.08,.41h-.25V14.38c-.5,.86-1.04,1.66-1.62,2.34l-.27-.16c1.17-2.25,2.3-5.71,2.92-9l2.05,.61c-.05,.22-.27,.38-.68,.38-.38,1.33-.85,2.63-1.39,3.84l.88,.34Zm4.05-3.13c-.14,.97-.36,1.91-.63,2.79h1.78l.76-.81,1.44,1.26c-.13,.16-.31,.23-.68,.27-.59,4.23-1.89,8.43-6.27,10.95l-.2-.25c2.11-1.6,3.38-3.82,4.16-6.27-.22,.29-.67,.38-1.12,.05-.18-.65-.72-1.42-1.26-2.03-.54,.94-1.21,1.82-1.98,2.63l-.23-.2c1.58-2.32,2.39-5.33,2.81-8.39h-1.73l-.14-.5h4.59l.9-1.17s1.04,.83,1.67,1.39c-.05,.2-.23,.29-.49,.29h-3.39Zm-.81,3.31c-.27,.77-.58,1.51-.95,2.21,1.67,.52,2.25,1.35,2.27,1.94,.38-1.33,.61-2.74,.77-4.16h-2.09Zm5.76,6.95c0,.14-.58,.43-1.06,.43h-.25V9.84l1.91,.22c-.05,.22-.18,.4-.59,.45v9.34Zm3.87-11.9c-.05,.27-.22,.43-.65,.5v13.79c0,1.08-.22,1.73-2.09,1.93-.05-.45-.16-.77-.45-1.01-.29-.23-.74-.4-1.62-.5v-.29s1.96,.14,2.38,.14c.34,0,.43-.11,.43-.4V7.74l2,.22Z"/>
        </g>
        <g>
          <path class="cls-10" d="M75.32,62.46s1.03,.76,1.64,1.35c-.05,.2-.23,.29-.49,.29h-15.47l-.16-.54h7.9c-.05-.02-.11-.04-.16-.07-.14-.5-.65-1.06-1.1-1.33l.14-.16c2.38-.13,2.36,1.28,1.64,1.57h5.17l.88-1.1Zm-5.73,6v2.83c0,1.04-.27,1.69-2.03,1.85-.04-.4-.11-.74-.34-.94-.23-.22-.63-.4-1.42-.49v-.27s1.64,.11,2,.11c.29,0,.36-.09,.36-.31v-2.79h-2.61v.34c0,.07-.2,.2-.49,.29l1.78,.9c-.09,.18-.25,.27-.65,.18-1.1,.97-3.11,2.05-5.08,2.56l-.16-.23c1.57-.81,3.24-2.25,4.03-3.38-.18,.07-.43,.13-.67,.13h-.22v-4.52l1.55,.65h6.48l.74-.81,1.66,1.22c-.13,.14-.4,.31-.76,.38v2.56c-.02,.13-.76,.38-1.22,.38h-.23v-.63h-2.72Zm-4.5-6.08c0,.14-.63,.43-1.21,.43h-.22v-5.89l1.53,.65h7.42l.74-.81,1.64,1.22c-.13,.14-.41,.31-.76,.38v3.83c-.02,.11-.74,.4-1.22,.4h-.22v-.68h-7.71v.47Zm0-4.29v1.37h7.71v-1.37h-7.71Zm7.71,3.3v-1.41h-7.71v1.41h7.71Zm-7.26,6.55h6.77v-2.05h-6.77v2.05Zm5.56,1.48c6.41,.65,5.46,4,3.87,3.22-.52-.79-2-2.07-3.96-2.95l.09-.27Z"/>
          <path class="cls-10" d="M81.13,71.81v.68c0,.09-.41,.42-1.04,.42h-.22v-5.55c-.36,.43-.74,.81-1.12,1.13l-.27-.18c.81-1.15,1.6-2.93,2.03-4.74l1.76,.61c-.09,.2-.29,.34-.67,.31-.13,.31-.27,.59-.43,.86l.18,.07h4.21l.72-.86s.79,.63,1.31,1.1c-.05,.2-.22,.29-.47,.29h-2.74v1.39h.97l.67-.81s.74,.58,1.22,1.04c-.05,.2-.22,.29-.45,.29h-2.41v1.42h.97l.68-.79s.74,.58,1.21,1.04c-.04,.2-.2,.29-.45,.29h-2.41v1.44h1.22l.76-.92s.86,.65,1.4,1.17c-.05,.2-.22,.29-.47,.29h-6.19Zm-2.52-13.61h2.56v-1.71l1.84,.18c-.04,.22-.2,.38-.59,.43v2.5c0,.13-.56,.38-1.01,.38h-.23v-1.24h-2.39l-.16-.54Zm3.48,1.82l1.22,.94c-.07,.11-.32,.23-.61,.29v2.23c0,.13-.54,.36-.88,.36h-.16v-.58h-1.33v.43c0,.07-.36,.34-.88,.34h-.18v-3.98l1.3,.54h.94l.59-.58Zm-.43,2.72v-1.62h-1.33v1.62h1.33Zm-.52,3.22v1.39h2.03v-1.39h-2.03Zm2.03,1.91h-2.03v1.42h2.03v-1.42Zm0,1.96h-2.03v1.44h2.03v-1.44Zm-.16-6.37c.23,.07,.45,.14,.63,.23v-3.66l1.3,.56h.97l.58-.61,1.28,.97c-.11,.11-.34,.25-.65,.29v2.16c0,.11-.54,.36-.88,.36h-.18v-.5h-1.35v.22c0,.09-.31,.34-.77,.38,1.37,.83,.31,2-.5,1.31-.05-.52-.36-1.21-.61-1.6l.2-.11Zm12.03,7.96c.36,.16,.41,.31,.41,.56,0,.5-.45,.79-2,.79h-.85c-1.04,0-1.21-.32-1.21-1.15v-4.56h-.77c-.14,3.08-.99,4.83-3.89,5.98l-.09-.25c2.07-1.35,2.54-2.9,2.61-5.17-.14,.13-.5,.29-1.01,.29l-.22,.02v-9.29c-.09,.07-.22,.11-.38,.11h-2.47v.83c0,.13-.58,.36-1.03,.36h-.25v-3.46l1.84,.18c-.02,.23-.18,.38-.56,.43v1.12h1.1l.63-.85s.67,.54,1.12,1.01v-1.51l1.51,.63h3.13l.72-.81,1.44,1.13c-.13,.14-.32,.25-.72,.32v9.08c0,.09-.5,.38-1.12,.38h-.23v-.52h-.07v4.23c0,.2,.04,.25,.31,.25h1.03c.13,0,.16-.04,.23-.18,.11-.23,.31-1.12,.49-1.94h.23l.05,2Zm-10.33-10.3v1.62h1.35v-1.62h-1.35Zm4.63-3.12v2.7h3.44v-2.7h-3.44Zm3.44,5.62v-2.38h-3.44v2.38h3.44Zm0,2.92v-2.4h-3.44v2.4h3.44Z"/>
          <path class="cls-10" d="M111.2,57.49s1.15,.86,1.85,1.49c-.05,.2-.2,.29-.47,.29h-15.63l-.14-.52h7.89c-.23-.77-1.1-1.71-1.84-2.2l.16-.16c3.01,.23,3.3,1.84,2.65,2.36h4.5l1.03-1.26Zm-.04,6.99l1.67,1.24c-.11,.13-.4,.29-.76,.36v5.26c0,1.04-.23,1.66-2.09,1.84-.05-.43-.13-.76-.38-.97-.23-.22-.65-.4-1.46-.5v-.25s1.67,.11,2.09,.11c.31,0,.4-.11,.4-.36v-5.38h-11.24v6.84c0,.14-.61,.49-1.19,.49h-.23v-8.53l1.57,.68h10.91l.7-.81Zm-3.31,.05v-.72h-5.8v.45c0,.11-.65,.41-1.21,.41h-.22v-4.66l1.51,.67h5.53l.74-.81,1.64,1.22c-.11,.14-.4,.31-.76,.38v2.7c-.02,.11-.74,.36-1.21,.36h-.23Zm.31,6.3c-.02,.11-.68,.41-1.15,.41h-.22v-.85h-3.78v.67c0,.13-.61,.43-1.15,.43h-.2v-4.9l1.44,.63h3.53l.7-.72,1.51,1.12c-.11,.13-.38,.27-.68,.32v2.88Zm-.31-7.54v-2.09h-5.8v2.09h5.8Zm-1.06,6.57v-2.11h-3.78v2.11h3.78Z"/>
          <path class="cls-10" d="M121.18,60.74c-.05,.14-.27,.32-.63,.25-.5,.77-1.48,2.03-2.4,2.99-.05,1.12-.13,2.12-.27,3.06,3.56,2.12,2.48,4.63,1.28,3.6-.14-.92-.76-2.09-1.37-3.01-.43,2.34-1.33,4.14-3.17,5.58l-.23-.32c2.95-3.19,2.54-8.08,2.54-16.24l1.94,.2c-.05,.27-.23,.45-.65,.5-.02,2.18,0,4.12-.04,5.85,.52-1.12,1.04-2.47,1.3-3.26l1.69,.79Zm-6.52-.85c2.9,2.99,1.73,5.67,.65,4.5,.04-1.39-.47-3.21-.9-4.41l.25-.09Zm4.74,4.47c1.13-.79,2.07-1.87,2.75-3.04-.18,.09-.43,.05-.7-.13-.13-.63-.67-1.42-1.15-1.85l.2-.13c1.46,.27,2,.88,2.07,1.39,.38-.74,.68-1.53,.9-2.3h-2.63l-.16-.52h2.74l.79-.79,1.42,1.22c-.13,.16-.31,.2-.72,.23-.83,2.43-2.5,4.75-5.31,6.18l-.2-.25Zm10.17,6.59s.99,.77,1.6,1.37c-.05,.2-.23,.29-.49,.29h-10.95l-.14-.52h6.14c.38-1.01,.74-2.39,.94-3.4l2.07,.58c-.07,.2-.29,.36-.68,.34-.41,.74-1.12,1.69-1.82,2.48h2.43l.9-1.13Zm-2.18-2.27v-.56h-4.68v.31c0,.11-.58,.4-1.12,.4h-.18v-4.84l1.39,.59h4.41l.72-.74,1.55,1.15c-.13,.14-.43,.31-.77,.38v2.95c-.02,.11-.68,.36-1.1,.36h-.22Zm-5.2,.14c3.31,1.48,1.85,3.87,.68,2.77-.05-.88-.49-1.98-.88-2.68l.2-.09Zm4.34-7.22s.85,.7,1.37,1.21c-.05,.2-.22,.29-.47,.29h-4.66l-.14-.52h3.15l.76-.97Zm.86,6v-2.5h-4.68v2.5h4.68Zm3.67-7.76c-.13,.16-.31,.22-.67,.09-.63,.38-1.48,.77-2.16,1.04,.9,.88,1.94,1.57,3.1,2l-.02,.2c-.52,.11-.94,.5-1.1,1.12-2.41-1.35-3.92-3.76-4.72-7.09l.31-.13c.23,.68,.54,1.35,.9,1.96,.5-.52,1.12-1.26,1.55-1.93l1.49,1.12c-.13,.16-.31,.22-.7,.09-.67,.41-1.44,.83-2.09,1.08,.27,.43,.59,.85,.94,1.22,.56-.5,1.22-1.21,1.78-1.82l1.39,1.04Z"/>
        </g>
        <g>
          <path class="cls-10" d="M170.01,70.17v1.53h-8.1v-1.22c1.08-1.08,2.12-2.21,2.99-3.11,2-2.09,2.83-3.62,2.83-5.2s-.94-2.68-2.41-2.68c-.29,0-.67,.04-1.06,.13l-.4,1.44c-.23,.9-.58,1.24-1.08,1.24-.41,0-.76-.22-.95-.59,.27-2.02,2-2.99,3.96-2.99,2.54,0,3.67,1.39,3.67,3.37,0,1.69-.92,3.04-3.94,5.91-.56,.54-1.4,1.35-2.3,2.2h6.81Z"/>
          <path class="cls-10" d="M179.82,58.97v.95l-4.63,11.78h-1.58l-.18-.18,5.29-11.02h-6.91v-1.53h8.01Z"/>
          <path class="cls-10" d="M196.58,71.09s.94,.79,1.44,1.35c-.05,.18-.22,.27-.45,.27h-15.97l-.16-.5h2.65v-4.36c-.72,.07-1.46,.11-2.2,.13l-.05-.34c2.75-.23,5.51-.81,7.8-1.57-.79-.5-1.44-1.08-1.96-1.73l-5.22,.18-.16-.52,5.02-.16c-.41-.59-.72-1.24-.94-1.94l2.11,.11c-.02,.2-.16,.38-.49,.45,.2,.47,.45,.92,.79,1.33l5.28-.16,.85-1.12s1.04,.74,1.66,1.24c-.04,.22-.22,.32-.47,.32l-6.86,.23c.47,.47,1.04,.9,1.76,1.26,1.04-.41,1.93-.86,2.61-1.33l1.42,1.08c-.14,.14-.47,.18-.9,.05-.54,.27-1.15,.52-1.82,.76,.94,.32,2.05,.58,3.37,.7,.49,.05,.7,.04,.81-.18,.18-.31,.43-.94,.59-1.51l.2,.02-.04,1.67c.67,.29,.76,.4,.7,.65-.14,.7-1.22,.68-2.5,.5l-.36-.05,1.08,.77c-.14,.18-.34,.27-.81,.34v3.17h.45l.77-1.12Zm-14.3-12.41l5.4-.22c-.4-.58-.7-1.22-.92-1.91l2.05,.09c-.02,.22-.16,.4-.47,.45,.18,.45,.43,.9,.77,1.31l5.24-.2,.86-1.13s1.03,.72,1.66,1.24c-.02,.2-.2,.31-.45,.32l-6.86,.27c.36,.36,.81,.68,1.31,.99,1.08-.34,2-.68,2.72-1.04l1.28,1.1c-.14,.13-.47,.14-.88,0-.56,.18-1.17,.36-1.84,.54,.92,.34,2.02,.59,3.31,.74,.47,.05,.65,.04,.77-.18,.14-.29,.4-.92,.56-1.48l.2,.02-.04,1.67c.67,.27,.74,.4,.67,.65-.14,.65-1.21,.61-2.41,.43-1.98-.29-3.55-.77-4.79-1.46-2.34,.5-5.08,.86-7.78,.92l-.05-.34c2.3-.2,4.75-.63,6.86-1.17-.56-.4-1.03-.85-1.42-1.33l-5.6,.22-.16-.5Zm11.92,9.07c-1.37-.27-2.52-.65-3.51-1.12-1.85,.54-4.02,.97-6.32,1.19l1.28,.54h8.1l.45-.61Zm-8.75,4.45h1.91v-3.31h-1.91v3.31Zm5.19-3.31h-1.93v3.31h1.93v-3.31Zm-.83-7.06c3.44-.27,3.13,1.96,2.02,1.64-.29-.4-1.1-1.01-2.09-1.35l.07-.29Zm.77-5.2c3.28-.34,2.95,1.82,1.85,1.51-.27-.38-.99-.94-1.94-1.22l.09-.29Zm1.4,15.57h1.96v-3.31h-1.96v3.31Z"/>
        </g>
        <g>
          <path class="cls-10" d="M318.87,71.09v.61h-7.27v-.61l2.81-.4c.02-1.04,.04-2.11,.04-3.15v-7.27l-2.63,.25v-.68l4.05-1.04,.27,.2-.07,2.83v5.73c0,1.04,.02,2.11,.04,3.15l2.77,.4Z"/>
          <path class="cls-10" d="M329.56,67.85h-2.09v3.85h-1.58v-3.85h-5.35v-.96l5.83-8.08h1.1v7.89h2.09v1.15Zm-3.67-1.15v-6.07l-4.36,6.07h4.36Z"/>
          <path class="cls-10" d="M333.14,60.74c-.22,.79-.49,1.17-1.12,1.17-.41,0-.74-.18-.92-.67,.36-1.73,1.87-2.54,3.69-2.54,2.29,0,3.73,1.26,3.73,3.08,0,1.46-.97,2.65-2.72,3.21,2.14,.4,3.13,1.6,3.13,3.22,0,2.18-1.78,3.75-4.41,3.75-1.96,0-3.42-.83-3.78-2.74,.22-.43,.54-.63,.95-.63,.61,0,.85,.4,1.08,1.3l.32,1.17c.4,.11,.77,.14,1.13,.14,1.96,0,2.97-1.1,2.97-2.9s-1.03-2.86-3.06-2.86h-.94v-.86h.77c1.76,0,2.88-.97,2.88-2.74,0-1.51-.9-2.36-2.45-2.36-.27,0-.59,.02-.95,.11l-.32,1.15Z"/>
          <path class="cls-10" d="M349.32,67.85h-2.09v3.85h-1.58v-3.85h-5.35v-.96l5.83-8.08h1.1v7.89h2.09v1.15Zm-3.67-1.15v-6.07l-4.36,6.07h4.36Z"/>
          <path class="cls-10" d="M358.39,71.09v.61h-7.27v-.61l2.81-.4c.02-1.04,.04-2.11,.04-3.15v-7.27l-2.63,.25v-.68l4.05-1.04,.27,.2-.07,2.83v5.73c0,1.04,.02,2.11,.04,3.15l2.77,.4Z"/>
        </g>
        <g>
          <path class="cls-10" d="M329.21,136.17v1.53h-8.1v-1.22c1.08-1.08,2.12-2.21,2.99-3.11,2-2.09,2.83-3.62,2.83-5.2s-.94-2.68-2.41-2.68c-.29,0-.67,.04-1.06,.13l-.4,1.44c-.23,.9-.58,1.24-1.08,1.24-.41,0-.76-.22-.95-.59,.27-2.02,2-2.99,3.96-2.99,2.54,0,3.67,1.39,3.67,3.37,0,1.69-.92,3.04-3.94,5.91-.56,.54-1.4,1.35-2.3,2.2h6.81Z"/>
          <path class="cls-10" d="M339.09,136.17v1.53h-8.1v-1.22c1.08-1.08,2.12-2.21,2.99-3.11,2-2.09,2.83-3.62,2.83-5.2s-.94-2.68-2.41-2.68c-.29,0-.67,.04-1.06,.13l-.4,1.44c-.23,.9-.58,1.24-1.08,1.24-.41,0-.76-.22-.95-.59,.27-2.02,2-2.99,3.96-2.99,2.54,0,3.67,1.39,3.67,3.37,0,1.69-.92,3.04-3.94,5.91-.56,.54-1.4,1.35-2.3,2.2h6.81Z"/>
          <path class="cls-10" d="M348.97,131.34c0,4.86-2.03,6.61-4.1,6.61s-4.14-1.75-4.14-6.61,2.02-6.64,4.14-6.64,4.1,1.8,4.1,6.64Zm-4.1,5.85c1.21,0,2.34-1.22,2.34-5.85s-1.13-5.87-2.34-5.87-2.4,1.22-2.4,5.87,1.13,5.85,2.4,5.85Z"/>
        </g>
        <g>
          <path class="cls-10" d="M321.85,197.47c3.49-1.19,5.11-3.04,5.51-5.83-.67,.67-1.57,1.01-2.65,1.01-2.11,0-3.82-1.46-3.82-3.87s1.75-4.07,4.18-4.07c2.56,0,4.12,1.98,4.12,5.15,0,3.76-2.18,7.04-7.2,8.23l-.14-.61Zm5.6-6.68c.02-.22,.02-.47,.02-.7,0-3.21-1.01-4.61-2.47-4.61-1.31,0-2.41,1.04-2.41,3.1s1.17,3.04,2.68,3.04c.86,0,1.55-.25,2.18-.83Z"/>
          <path class="cls-10" d="M331.73,197.47c3.49-1.19,5.11-3.04,5.51-5.83-.67,.67-1.57,1.01-2.65,1.01-2.11,0-3.82-1.46-3.82-3.87s1.75-4.07,4.18-4.07c2.56,0,4.12,1.98,4.12,5.15,0,3.76-2.18,7.04-7.2,8.23l-.14-.61Zm5.6-6.68c.02-.22,.02-.47,.02-.7,0-3.21-1.01-4.61-2.47-4.61-1.31,0-2.41,1.04-2.41,3.1s1.17,3.04,2.68,3.04c.86,0,1.55-.25,2.18-.83Z"/>
          <path class="cls-10" d="M342.79,190.05c.65-.2,1.28-.29,2-.29,2.56,0,4.3,1.42,4.3,3.98s-1.82,4.21-4.61,4.21c-2,0-3.28-.92-3.67-2.74,.16-.41,.5-.63,.94-.63,.58,0,.83,.29,1.06,1.24l.32,1.19c.41,.13,.79,.18,1.21,.18,1.96,0,3.02-1.28,3.02-3.26s-1.17-3.13-3.08-3.13c-.63,0-1.28,.07-1.91,.25l-.5-.14,.41-5.94h6.45v1.53h-5.69l-.25,3.55Z"/>
        </g>
        <g>
          <path class="cls-10" d="M328.84,252.97v.95l-4.63,11.78h-1.58l-.18-.18,5.29-11.02h-6.91v-1.53h8.01Z"/>
          <path class="cls-10" d="M338.79,259.34c0,4.86-2.03,6.61-4.1,6.61s-4.14-1.75-4.14-6.61,2.02-6.64,4.14-6.64,4.1,1.8,4.1,6.64Zm-4.1,5.85c1.21,0,2.34-1.22,2.34-5.85s-1.13-5.87-2.34-5.87-2.4,1.22-2.4,5.87,1.13,5.85,2.4,5.85Z"/>
          <path class="cls-10" d="M349.16,261.85h-2.09v3.85h-1.58v-3.85h-5.35v-.96l5.83-8.08h1.1v7.89h2.09v1.15Zm-3.67-1.15v-6.07l-4.36,6.07h4.36Z"/>
        </g>
        <g>
          <path class="cls-10" d="M323.73,330.09v.61h-7.27v-.61l2.81-.4c.02-1.04,.04-2.11,.04-3.15v-7.27l-2.63,.25v-.68l4.05-1.04,.27,.2-.07,2.83v5.73c0,1.04,.02,2.11,.04,3.15l2.77,.4Z"/>
          <path class="cls-10" d="M327.59,323.05c.65-.2,1.28-.29,2-.29,2.56,0,4.3,1.42,4.3,3.98s-1.82,4.21-4.61,4.21c-2,0-3.28-.92-3.67-2.74,.16-.41,.5-.63,.94-.63,.58,0,.83,.29,1.06,1.24l.32,1.19c.41,.13,.79,.18,1.21,.18,1.96,0,3.02-1.28,3.02-3.26s-1.17-3.13-3.08-3.13c-.63,0-1.28,.07-1.91,.25l-.5-.14,.41-5.94h6.45v1.53h-5.69l-.25,3.55Z"/>
          <path class="cls-10" d="M343.24,318.2c-3.76,.9-5.62,2.88-5.92,5.96,.83-.83,1.85-1.28,2.94-1.28,2.14,0,3.58,1.51,3.58,3.87,0,2.68-1.66,4.2-4.03,4.2-2.63,0-4.27-2.03-4.27-5.51,0-3.89,2.72-7.18,7.6-7.74l.11,.5Zm-5.98,6.97c0,3.38,.97,5.02,2.59,5.02,1.35,0,2.29-1.06,2.29-3.22s-.94-3.01-2.34-3.01c-.85,0-1.76,.23-2.54,.92v.29Z"/>
          <path class="cls-10" d="M346.19,330.47c3.49-1.19,5.11-3.04,5.51-5.83-.67,.67-1.57,1.01-2.65,1.01-2.11,0-3.82-1.46-3.82-3.87s1.75-4.07,4.18-4.07c2.56,0,4.12,1.98,4.12,5.15,0,3.76-2.18,7.04-7.2,8.23l-.14-.61Zm5.6-6.68c.02-.22,.02-.47,.02-.7,0-3.21-1.01-4.61-2.47-4.61-1.31,0-2.41,1.04-2.41,3.1s1.17,3.04,2.68,3.04c.86,0,1.55-.25,2.18-.83Z"/>
        </g>
        <g>
          <path class="cls-10" d="M334.81,390.85h-2.09v3.85h-1.58v-3.85h-5.35v-.96l5.83-8.08h1.1v7.89h2.09v1.15Zm-3.67-1.15v-6.07l-4.36,6.07h4.36Z"/>
          <path class="cls-10" d="M344.2,393.17v1.53h-8.1v-1.22c1.08-1.08,2.12-2.21,2.99-3.11,2-2.09,2.83-3.62,2.83-5.2s-.94-2.68-2.41-2.68c-.29,0-.67,.04-1.06,.13l-.4,1.44c-.23,.9-.58,1.24-1.08,1.24-.41,0-.76-.22-.95-.59,.27-2.02,2-2.99,3.96-2.99,2.54,0,3.67,1.39,3.67,3.37,0,1.69-.92,3.04-3.94,5.91-.56,.54-1.4,1.35-2.3,2.2h6.81Z"/>
        </g>
        <g>
          <path class="cls-11" d="M243.31,61.25v.45h-5.53v-.45l2.21-.27c.01-.84,.03-1.67,.03-2.49v-5.74l-2.1,.24v-.5l3.03-.78,.21,.17-.06,2.17v4.46c0,.83,.01,1.65,.03,2.49l2.19,.27Z"/>
          <path class="cls-11" d="M251.05,56.78c0,3.74-1.51,5.11-3.1,5.11s-3.12-1.37-3.12-5.11,1.53-5.16,3.12-5.16,3.1,1.4,3.1,5.16Zm-3.1,4.55c.98,0,1.93-1.01,1.93-4.55s-.95-4.58-1.93-4.58-1.95,.98-1.95,4.58,.94,4.55,1.95,4.55Z"/>
          <path class="cls-11" d="M259.03,58.62h-1.65v3.08h-1.05v-3.08h-4.22v-.64l4.54-6.26h.73v6.12h1.65v.79Zm-2.7-.79v-4.8l-3.46,4.8h3.46Z"/>
          <path class="cls-11" d="M273.75,51.98l-1.34,.18-2.58,9.65h-.55l-2.68-8.28-2.56,8.28h-.53l-2.73-9.69-1.32-.14v-.49h3.98v.49l-1.44,.17,2.02,7.59,2.44-7.59-1.54-.17v-.49h3.96v.49l-1.55,.18,2.4,7.63,2.02-7.62-1.46-.2v-.49h3.47v.49Z"/>
          <path class="cls-11" d="M232.45,77.45v1.05h-6.18v-.84c.87-.9,1.74-1.83,2.41-2.55,1.54-1.67,2.16-2.82,2.16-3.99,0-1.26-.73-2.12-1.93-2.12-.27,0-.59,.03-.92,.13l-.35,1.08c-.17,.6-.38,.87-.74,.87-.31,0-.52-.17-.67-.43,.24-1.47,1.54-2.21,3-2.21,1.89,0,2.77,1.05,2.77,2.59,0,1.29-.67,2.3-2.91,4.54-.39,.42-1.11,1.13-1.88,1.89h5.25Z"/>
          <path class="cls-11" d="M240.82,78.05v.45h-3.49v-.45s1.16-.17,1.16-.17l-1.69-2.44-1.82,2.42,1.19,.18v.45h-2.96v-.45l.99-.17,2.28-2.87-2.13-3.08-1.04-.14v-.49h3.25v.49l-1.02,.15,1.62,2.33,1.77-2.31-1.08-.17v-.49h2.8v.49l-.91,.14-2.26,2.8,2.24,3.15,1.08,.17Z"/>
          <path class="cls-11" d="M247.89,77.45v1.05h-6.18v-.84c.87-.9,1.74-1.83,2.41-2.55,1.54-1.67,2.16-2.82,2.16-3.99,0-1.26-.73-2.12-1.93-2.12-.27,0-.59,.03-.92,.13l-.35,1.08c-.17,.6-.38,.87-.74,.87-.31,0-.52-.17-.67-.43,.24-1.47,1.54-2.21,3-2.21,1.89,0,2.77,1.05,2.77,2.59,0,1.29-.67,2.3-2.91,4.54-.39,.42-1.11,1.13-1.88,1.89h5.25Z"/>
          <path class="cls-11" d="M255.84,75.42h-1.65v3.08h-1.05v-3.08h-4.22v-.64l4.54-6.26h.73v6.12h1.65v.79Zm-2.7-.79v-4.8l-3.46,4.8h3.46Z"/>
          <path class="cls-11" d="M264.38,75.71l-.13,2.79h-7.47v-.5l1.46-.15c.04-1.34,.04-2.7,.04-4.05v-.79c0-1.39,0-2.75-.04-4.08l-1.46-.15v-.49h4.16v.49l-1.46,.15c-.04,1.34-.04,2.72-.04,4.15v.98c0,1.13,0,2.48,.04,3.81h3.7l.45-2.16h.74Z"/>
          <path class="cls-11" d="M273.62,75.85l-.1,2.65h-7.77v-.5l1.46-.15c.04-1.33,.04-2.69,.04-4.06v-.77c0-1.36,0-2.73-.04-4.08l-1.46-.15v-.49h7.49l.1,2.63h-.69l-.38-2.02h-3.82c-.04,1.32-.04,2.69-.04,4.12h2.45l.21-1.51h.57v3.54h-.57l-.2-1.47h-2.47c0,1.55,0,2.93,.04,4.29h4.1l.36-2.02h.7Z"/>
          <path class="cls-11" d="M279.27,68.29c2.97,0,4.93,1.81,4.93,5.11s-2.14,5.1-5.18,5.1h-4.1v-.5l1.46-.15c.04-1.33,.04-2.72,.04-4.3v-.5c0-1.39,0-2.76-.04-4.1l-1.46-.15v-.49h4.36Zm-.38,9.64c2.59,0,3.96-1.69,3.96-4.52s-1.37-4.54-3.81-4.54h-1.43c-.04,1.34-.04,2.75-.04,4.17v.5c0,1.58,0,3,.04,4.38h1.27Z"/>
        </g>
        <g>
          <path class="cls-11" d="M251.02,117.84v.64l-3.64,9.22h-1.02l-.14-.14,4.01-8.67h-5.32v-1.05h6.12Z"/>
          <path class="cls-11" d="M266.2,117.98l-1.34,.18-2.58,9.65h-.55l-2.68-8.28-2.56,8.28h-.53l-2.73-9.69-1.32-.14v-.49h3.98v.49l-1.44,.17,2.02,7.59,2.44-7.59-1.54-.17v-.49h3.96v.49l-1.55,.18,2.4,7.63,2.02-7.62-1.46-.2v-.49h3.47v.49Z"/>
          <path class="cls-11" d="M243.72,144.05v.45h-5.53v-.45l2.21-.27c.01-.84,.03-1.67,.03-2.49v-5.74l-2.1,.24v-.5l3.03-.78,.21,.17-.06,2.17v4.46c0,.83,.01,1.65,.03,2.49l2.19,.27Z"/>
          <path class="cls-11" d="M252.89,141.71l-.13,2.79h-7.47v-.5l1.46-.15c.04-1.34,.04-2.7,.04-4.05v-.79c0-1.39,0-2.75-.04-4.08l-1.46-.15v-.49h4.16v.49l-1.46,.15c-.04,1.34-.04,2.72-.04,4.15v.98c0,1.13,0,2.48,.04,3.81h3.7l.45-2.16h.74Z"/>
          <path class="cls-11" d="M262.13,141.85l-.1,2.65h-7.77v-.5l1.46-.15c.04-1.33,.04-2.69,.04-4.06v-.77c0-1.36,0-2.73-.04-4.08l-1.46-.15v-.49h7.49l.1,2.63h-.69l-.38-2.02h-3.82c-.04,1.32-.04,2.69-.04,4.12h2.45l.21-1.51h.57v3.54h-.57l-.2-1.47h-2.47c0,1.55,0,2.93,.04,4.29h4.1l.36-2.02h.7Z"/>
          <path class="cls-11" d="M267.78,134.29c2.97,0,4.93,1.81,4.93,5.11s-2.14,5.1-5.18,5.1h-4.1v-.5l1.46-.15c.04-1.33,.04-2.72,.04-4.3v-.5c0-1.39,0-2.76-.04-4.1l-1.46-.15v-.49h4.36Zm-.38,9.64c2.59,0,3.96-1.69,3.96-4.52s-1.37-4.54-3.81-4.54h-1.43c-.04,1.34-.04,2.75-.04,4.17v.5c0,1.58,0,3,.04,4.38h1.27Z"/>
        </g>
        <g>
          <path class="cls-11" d="M247.71,188.62h-1.65v3.08h-1.05v-3.08h-4.22v-.64l4.54-6.26h.73v6.12h1.65v.79Zm-2.7-.79v-4.8l-3.46,4.8h3.46Z"/>
          <path class="cls-11" d="M254.63,191.25v.45h-5.53v-.45l2.21-.27c.01-.84,.03-1.67,.03-2.49v-5.74l-2.1,.24v-.5l3.03-.78,.21,.17-.06,2.17v4.46c0,.83,.01,1.65,.03,2.49l2.19,.27Z"/>
          <path class="cls-11" d="M269.98,181.98l-1.34,.18-2.58,9.65h-.55l-2.68-8.28-2.56,8.28h-.53l-2.73-9.69-1.32-.14v-.49h3.98v.49l-1.44,.17,2.02,7.59,2.44-7.59-1.54-.17v-.49h3.96v.49l-1.55,.18,2.4,7.63,2.02-7.62-1.46-.2v-.49h3.47v.49Z"/>
          <path class="cls-11" d="M243.25,208.05v.45h-5.53v-.45l2.21-.27c.01-.84,.03-1.67,.03-2.49v-5.74l-2.1,.24v-.5l3.03-.78,.21,.17-.06,2.17v4.46c0,.83,.01,1.65,.03,2.49l2.19,.27Z"/>
          <path class="cls-11" d="M253.07,205.75l-.04,2.21c-.95,.55-1.96,.76-3.04,.76-3.05,0-5.13-2.2-5.13-5.34s2.17-5.34,5.13-5.34c.91,0,1.91,.17,2.9,.76l.06,2.2h-.77l-.34-1.89c-.57-.31-1.13-.43-1.69-.43-2.23,0-3.91,1.71-3.91,4.71s1.58,4.71,3.81,4.71c.64,0,1.3-.13,1.93-.43l.34-1.91h.76Z"/>
          <path class="cls-11" d="M263.73,203.39c0,3.32-2.2,5.34-4.58,5.34s-4.62-1.92-4.62-5.34,2.23-5.34,4.62-5.34,4.58,1.92,4.58,5.34Zm-4.58,4.72c2.19,0,3.22-2.3,3.22-4.72s-1.04-4.71-3.22-4.71-3.25,2.3-3.25,4.71,1.04,4.72,3.25,4.72Z"/>
          <path class="cls-11" d="M269.47,198.29c2.13,0,3.29,.99,3.29,2.46,0,1.09-.7,2.06-2.4,2.42,2.04,.27,2.91,1.27,2.91,2.55,0,1.42-1.13,2.77-3.91,2.77h-4.12v-.5l1.46-.15c.04-1.34,.04-2.7,.04-4.08v-.77c0-1.34,0-2.72-.04-4.06l-1.46-.15v-.49h4.22Zm-1.51,.57c-.04,1.32-.04,2.66-.04,4.06h.88c1.9,0,2.79-.7,2.79-2.13s-.78-1.93-2.49-1.93h-1.13Zm1.13,9.06c1.95,0,2.94-.78,2.94-2.2s-.95-2.24-3.14-2.24h-.98c0,1.64,0,3.07,.04,4.44h1.13Z"/>
        </g>
        <g>
          <path class="cls-11" d="M247.08,256.25v.45h-5.53v-.45l2.21-.27c.01-.84,.03-1.67,.03-2.49v-5.74l-2.1,.24v-.5l3.03-.78,.21,.17-.06,2.17v4.46c0,.83,.01,1.65,.03,2.49l2.19,.27Z"/>
          <path class="cls-11" d="M250.27,248.18c-.14,.57-.31,.83-.76,.83-.29,0-.53-.13-.66-.49,.31-1.29,1.47-1.89,2.8-1.89,1.72,0,2.82,.98,2.82,2.4,0,1.15-.76,2.06-2.09,2.48,1.61,.28,2.41,1.22,2.41,2.52,0,1.67-1.36,2.87-3.33,2.87-1.44,0-2.55-.62-2.86-2.04,.14-.28,.36-.43,.66-.43,.42,0,.57,.28,.76,.9l.27,.87c.35,.11,.69,.15,1.01,.15,1.55,0,2.37-.87,2.37-2.27s-.81-2.26-2.47-2.26h-.71v-.6h.6c1.4,0,2.3-.78,2.3-2.16,0-1.16-.7-1.85-1.93-1.85-.28,0-.57,.03-.91,.11l-.27,.87Z"/>
          <path class="cls-11" d="M269.98,246.98l-1.34,.18-2.58,9.65h-.55l-2.68-8.28-2.56,8.28h-.53l-2.73-9.69-1.32-.14v-.49h3.98v.49l-1.44,.17,2.02,7.59,2.44-7.59-1.54-.17v-.49h3.96v.49l-1.55,.18,2.4,7.63,2.02-7.62-1.46-.2v-.49h3.47v.49Z"/>
          <path class="cls-11" d="M243.25,273.05v.45h-5.53v-.45l2.21-.27c.01-.84,.03-1.67,.03-2.49v-5.74l-2.1,.24v-.5l3.03-.78,.21,.17-.06,2.17v4.46c0,.83,.01,1.65,.03,2.49l2.19,.27Z"/>
          <path class="cls-11" d="M253.07,270.75l-.04,2.21c-.95,.55-1.96,.76-3.04,.76-3.05,0-5.13-2.2-5.13-5.34s2.17-5.34,5.13-5.34c.91,0,1.91,.17,2.9,.76l.06,2.2h-.77l-.34-1.89c-.57-.31-1.13-.43-1.69-.43-2.23,0-3.91,1.71-3.91,4.71s1.58,4.71,3.81,4.71c.64,0,1.3-.13,1.93-.43l.34-1.91h.76Z"/>
          <path class="cls-11" d="M263.73,268.39c0,3.32-2.2,5.34-4.58,5.34s-4.62-1.92-4.62-5.34,2.23-5.34,4.62-5.34,4.58,1.92,4.58,5.34Zm-4.58,4.72c2.19,0,3.22-2.3,3.22-4.72s-1.04-4.71-3.22-4.71-3.25,2.3-3.25,4.71,1.04,4.72,3.25,4.72Z"/>
          <path class="cls-11" d="M269.47,263.29c2.13,0,3.29,.99,3.29,2.46,0,1.09-.7,2.06-2.4,2.42,2.04,.27,2.91,1.27,2.91,2.55,0,1.42-1.13,2.77-3.91,2.77h-4.12v-.5l1.46-.15c.04-1.34,.04-2.7,.04-4.08v-.77c0-1.34,0-2.72-.04-4.06l-1.46-.15v-.49h4.22Zm-1.51,.57c-.04,1.32-.04,2.66-.04,4.06h.88c1.9,0,2.79-.7,2.79-2.13s-.78-1.93-2.49-1.93h-1.13Zm1.13,9.06c1.95,0,2.94-.78,2.94-2.2s-.95-2.24-3.14-2.24h-.98c0,1.64,0,3.07,.04,4.44h1.13Z"/>
        </g>
        <g>
          <path class="cls-11" d="M245.08,319.25v.45h-5.53v-.45l2.21-.27c.01-.84,.03-1.67,.03-2.49v-5.74l-2.1,.24v-.5l3.03-.78,.21,.17-.06,2.17v4.46c0,.83,.01,1.65,.03,2.49l2.19,.27Z"/>
          <path class="cls-11" d="M252.85,318.65v1.05h-6.18v-.84c.87-.9,1.74-1.83,2.41-2.55,1.54-1.67,2.16-2.82,2.16-3.99,0-1.26-.73-2.12-1.93-2.12-.27,0-.59,.03-.92,.13l-.35,1.08c-.17,.6-.38,.87-.74,.87-.31,0-.52-.17-.67-.43,.24-1.47,1.54-2.21,3-2.21,1.89,0,2.77,1.05,2.77,2.59,0,1.29-.67,2.3-2.91,4.54-.39,.42-1.11,1.13-1.88,1.89h5.25Z"/>
          <path class="cls-11" d="M267.98,309.98l-1.34,.18-2.58,9.65h-.55l-2.68-8.28-2.56,8.28h-.53l-2.73-9.69-1.32-.14v-.49h3.98v.49l-1.44,.17,2.02,7.59,2.44-7.59-1.54-.17v-.49h3.96v.49l-1.55,.18,2.4,7.63,2.02-7.62-1.46-.2v-.49h3.47v.49Z"/>
          <path class="cls-11" d="M241.88,326.64v.64l-3.64,9.22h-1.02l-.14-.14,4.01-8.67h-5.32v-1.05h6.12Z"/>
          <path class="cls-11" d="M250.89,333.71l-.13,2.79h-7.47v-.5l1.46-.15c.04-1.34,.04-2.7,.04-4.05v-.79c0-1.39,0-2.75-.04-4.08l-1.46-.15v-.49h4.16v.49l-1.46,.15c-.04,1.34-.04,2.72-.04,4.15v.98c0,1.13,0,2.48,.04,3.81h3.7l.45-2.16h.74Z"/>
          <path class="cls-11" d="M260.13,333.85l-.1,2.65h-7.77v-.5l1.46-.15c.04-1.33,.04-2.69,.04-4.06v-.77c0-1.36,0-2.73-.04-4.08l-1.46-.15v-.49h7.49l.1,2.63h-.69l-.38-2.02h-3.82c-.04,1.32-.04,2.69-.04,4.12h2.45l.21-1.51h.57v3.54h-.57l-.2-1.47h-2.47c0,1.55,0,2.93,.04,4.29h4.1l.36-2.02h.7Z"/>
          <path class="cls-11" d="M265.78,326.29c2.97,0,4.93,1.81,4.93,5.11s-2.14,5.1-5.18,5.1h-4.1v-.5l1.46-.15c.04-1.33,.04-2.72,.04-4.3v-.5c0-1.39,0-2.76-.04-4.1l-1.46-.15v-.49h4.36Zm-.38,9.64c2.59,0,3.96-1.69,3.96-4.52s-1.37-4.54-3.81-4.54h-1.43c-.04,1.34-.04,2.75-.04,4.17v.5c0,1.58,0,3,.04,4.38h1.27Z"/>
        </g>
        <g>
          <path class="cls-11" d="M247.08,381.25v.45h-5.53v-.45l2.21-.27c.01-.84,.03-1.67,.03-2.49v-5.74l-2.1,.24v-.5l3.03-.78,.21,.17-.06,2.17v4.46c0,.83,.01,1.65,.03,2.49l2.19,.27Z"/>
          <path class="cls-11" d="M254.85,380.65v1.05h-6.18v-.84c.87-.9,1.74-1.83,2.41-2.55,1.54-1.67,2.16-2.82,2.16-3.99,0-1.26-.73-2.12-1.93-2.12-.27,0-.59,.03-.92,.13l-.35,1.08c-.17,.6-.38,.87-.74,.87-.31,0-.52-.17-.67-.43,.24-1.47,1.54-2.21,3-2.21,1.89,0,2.77,1.05,2.77,2.59,0,1.29-.67,2.3-2.91,4.54-.39,.42-1.11,1.13-1.88,1.89h5.25Z"/>
          <path class="cls-11" d="M269.98,371.98l-1.34,.18-2.58,9.65h-.55l-2.68-8.28-2.56,8.28h-.53l-2.73-9.69-1.32-.14v-.49h3.98v.49l-1.44,.17,2.02,7.59,2.44-7.59-1.54-.17v-.49h3.96v.49l-1.55,.18,2.4,7.63,2.02-7.62-1.46-.2v-.49h3.47v.49Z"/>
          <path class="cls-11" d="M240.57,395.42h-1.65v3.08h-1.05v-3.08h-4.22v-.64l4.54-6.26h.73v6.12h1.65v.79Zm-2.7-.79v-4.8l-3.46,4.8h3.46Z"/>
          <path class="cls-11" d="M247.64,396.15c0,1.51-1.3,2.55-3.07,2.55s-3.08-.87-3.08-2.44c0-1.16,.77-1.92,2.24-2.65-1.34-.71-1.9-1.62-1.9-2.67,0-1.56,1.23-2.51,2.77-2.51s2.56,.97,2.56,2.35c0,.77-.45,1.67-1.86,2.46,1.62,.77,2.34,1.58,2.34,2.9Zm-1.06,.1c0-.92-.57-1.57-2.38-2.41-1.11,.66-1.65,1.26-1.65,2.31,0,1.19,.81,2,2.06,2s1.98-.81,1.98-1.91Zm-1.74-3.21c.99-.69,1.39-1.32,1.39-2.23,0-1-.59-1.81-1.65-1.81-.92,0-1.74,.63-1.74,1.65,0,.85,.42,1.64,2,2.38Z"/>
          <path class="cls-11" d="M256.66,395.71l-.13,2.79h-7.47v-.5l1.46-.15c.04-1.34,.04-2.7,.04-4.05v-.79c0-1.39,0-2.75-.04-4.08l-1.46-.15v-.49h4.16v.49l-1.46,.15c-.04,1.34-.04,2.72-.04,4.15v.98c0,1.13,0,2.48,.04,3.81h3.7l.45-2.16h.74Z"/>
          <path class="cls-11" d="M265.9,395.85l-.1,2.65h-7.77v-.5l1.46-.15c.04-1.33,.04-2.69,.04-4.06v-.77c0-1.36,0-2.73-.04-4.08l-1.46-.15v-.49h7.49l.1,2.63h-.69l-.38-2.02h-3.82c-.04,1.32-.04,2.69-.04,4.12h2.45l.21-1.51h.57v3.54h-.57l-.2-1.47h-2.47c0,1.55,0,2.93,.04,4.29h4.1l.36-2.02h.7Z"/>
          <path class="cls-11" d="M271.55,388.29c2.97,0,4.93,1.81,4.93,5.11s-2.14,5.1-5.18,5.1h-4.1v-.5l1.46-.15c.04-1.33,.04-2.72,.04-4.3v-.5c0-1.39,0-2.76-.04-4.1l-1.46-.15v-.49h4.36Zm-.38,9.64c2.59,0,3.96-1.69,3.96-4.52s-1.37-4.54-3.81-4.54h-1.43c-.04,1.34-.04,2.75-.04,4.17v.5c0,1.58,0,3,.04,4.38h1.27Z"/>
        </g>
        <g>
          <path class="cls-10" d="M169.39,134.88v.61h-7.27v-.61l2.81-.4c.02-1.04,.04-2.11,.04-3.15v-7.27l-2.63,.25v-.68l4.05-1.04,.27,.2-.07,2.83v5.73c0,1.04,.02,2.11,.04,3.15l2.77,.4Z"/>
          <path class="cls-10" d="M179.52,122.77v.96l-4.63,11.78h-1.58l-.18-.18,5.29-11.02h-6.91v-1.53h8.01Z"/>
          <path class="cls-10" d="M196.28,134.88s.94,.79,1.44,1.35c-.05,.18-.22,.27-.45,.27h-15.97l-.16-.5h2.65v-4.36c-.72,.07-1.46,.11-2.2,.13l-.05-.34c2.75-.23,5.51-.81,7.8-1.57-.79-.5-1.44-1.08-1.96-1.73l-5.22,.18-.16-.52,5.02-.16c-.41-.59-.72-1.24-.94-1.95l2.11,.11c-.02,.2-.16,.38-.49,.45,.2,.47,.45,.92,.79,1.33l5.28-.16,.85-1.12s1.04,.74,1.66,1.24c-.04,.22-.22,.32-.47,.32l-6.86,.23c.47,.47,1.04,.9,1.76,1.26,1.04-.41,1.93-.86,2.61-1.33l1.42,1.08c-.14,.14-.47,.18-.9,.05-.54,.27-1.15,.52-1.82,.76,.94,.32,2.05,.58,3.37,.7,.49,.05,.7,.04,.81-.18,.18-.31,.43-.94,.59-1.51l.2,.02-.04,1.67c.67,.29,.76,.4,.7,.65-.14,.7-1.22,.68-2.5,.5l-.36-.05,1.08,.77c-.14,.18-.34,.27-.81,.34v3.17h.45l.77-1.12Zm-14.3-12.41l5.4-.22c-.4-.58-.7-1.22-.92-1.91l2.05,.09c-.02,.22-.16,.4-.47,.45,.18,.45,.43,.9,.77,1.31l5.24-.2,.86-1.13s1.03,.72,1.66,1.24c-.02,.2-.2,.31-.45,.32l-6.86,.27c.36,.36,.81,.68,1.31,.99,1.08-.34,2-.68,2.72-1.04l1.28,1.1c-.14,.13-.47,.14-.88,0-.56,.18-1.17,.36-1.84,.54,.92,.34,2.02,.59,3.31,.74,.47,.05,.65,.04,.77-.18,.14-.29,.4-.92,.56-1.48l.2,.02-.04,1.67c.67,.27,.74,.4,.67,.65-.14,.65-1.21,.61-2.41,.43-1.98-.29-3.55-.77-4.79-1.46-2.34,.5-5.08,.86-7.78,.92l-.05-.34c2.3-.2,4.75-.63,6.86-1.17-.56-.4-1.03-.85-1.42-1.33l-5.6,.22-.16-.5Zm11.92,9.08c-1.37-.27-2.52-.65-3.51-1.12-1.85,.54-4.02,.97-6.32,1.19l1.28,.54h8.1l.45-.61Zm-8.75,4.45h1.91v-3.31h-1.91v3.31Zm5.19-3.31h-1.93v3.31h1.93v-3.31Zm-.83-7.06c3.44-.27,3.13,1.96,2.02,1.64-.29-.4-1.1-1.01-2.09-1.35l.07-.29Zm.77-5.2c3.28-.34,2.95,1.82,1.85,1.51-.27-.38-.99-.94-1.94-1.22l.09-.29Zm1.4,15.57h1.96v-3.31h-1.96v3.31Z"/>
        </g>
        <g>
          <path class="cls-10" d="M169.9,199.07c0,2-1.71,3.35-4.03,3.35s-4.05-1.1-4.05-3.13c0-1.46,1.01-2.47,2.86-3.37-1.71-.92-2.45-2.11-2.45-3.47,0-2.03,1.64-3.28,3.69-3.28s3.39,1.26,3.39,3.03c0,.97-.56,2.12-2.38,3.13,2.02,.99,2.97,2.02,2.97,3.75Zm-1.58,.2c0-1.17-.74-1.94-3.02-3.04-1.28,.81-1.91,1.53-1.91,2.86,0,1.57,1.03,2.59,2.54,2.59s2.4-1.01,2.4-2.41Zm-1.98-4.23c1.13-.88,1.57-1.67,1.57-2.79,0-1.28-.74-2.3-2.02-2.3-1.15,0-2.16,.79-2.16,2.07,0,1.06,.54,2.04,2.61,3.03Z"/>
          <path class="cls-10" d="M173.55,194.51c.65-.2,1.28-.29,2-.29,2.56,0,4.3,1.42,4.3,3.98s-1.82,4.21-4.61,4.21c-2,0-3.28-.92-3.67-2.74,.16-.41,.5-.63,.94-.63,.58,0,.83,.29,1.06,1.24l.32,1.19c.41,.13,.79,.18,1.21,.18,1.96,0,3.02-1.28,3.02-3.26s-1.17-3.13-3.08-3.13c-.63,0-1.28,.07-1.91,.25l-.5-.14,.41-5.94h6.45v1.53h-5.69l-.25,3.55Z"/>
          <path class="cls-10" d="M196.58,201.55s.94,.79,1.44,1.35c-.05,.18-.22,.27-.45,.27h-15.97l-.16-.5h2.65v-4.36c-.72,.07-1.46,.11-2.2,.13l-.05-.34c2.75-.23,5.51-.81,7.8-1.57-.79-.5-1.44-1.08-1.96-1.73l-5.22,.18-.16-.52,5.02-.16c-.41-.59-.72-1.24-.94-1.94l2.11,.11c-.02,.2-.16,.38-.49,.45,.2,.47,.45,.92,.79,1.33l5.28-.16,.85-1.12s1.04,.74,1.66,1.24c-.04,.22-.22,.32-.47,.32l-6.86,.23c.47,.47,1.04,.9,1.76,1.26,1.04-.41,1.93-.86,2.61-1.33l1.42,1.08c-.14,.14-.47,.18-.9,.05-.54,.27-1.15,.52-1.82,.76,.94,.32,2.05,.58,3.37,.7,.49,.05,.7,.04,.81-.18,.18-.31,.43-.94,.59-1.51l.2,.02-.04,1.67c.67,.29,.76,.4,.7,.65-.14,.7-1.22,.68-2.5,.5l-.36-.05,1.08,.77c-.14,.18-.34,.27-.81,.34v3.17h.45l.77-1.12Zm-14.3-12.41l5.4-.22c-.4-.58-.7-1.22-.92-1.91l2.05,.09c-.02,.22-.16,.4-.47,.45,.18,.45,.43,.9,.77,1.31l5.24-.2,.86-1.13s1.03,.72,1.66,1.24c-.02,.2-.2,.31-.45,.32l-6.86,.27c.36,.36,.81,.68,1.31,.99,1.08-.34,2-.68,2.72-1.04l1.28,1.1c-.14,.13-.47,.14-.88,0-.56,.18-1.17,.36-1.84,.54,.92,.34,2.02,.59,3.31,.74,.47,.05,.65,.04,.77-.18,.14-.29,.4-.92,.56-1.48l.2,.02-.04,1.67c.67,.27,.74,.4,.67,.65-.14,.65-1.21,.61-2.41,.43-1.98-.29-3.55-.77-4.79-1.46-2.34,.5-5.08,.86-7.78,.92l-.05-.34c2.3-.2,4.75-.63,6.86-1.17-.56-.4-1.03-.85-1.42-1.33l-5.6,.22-.16-.5Zm11.92,9.07c-1.37-.27-2.52-.65-3.51-1.12-1.85,.54-4.02,.97-6.32,1.19l1.28,.54h8.1l.45-.61Zm-8.75,4.45h1.91v-3.31h-1.91v3.31Zm5.19-3.31h-1.93v3.31h1.93v-3.31Zm-.83-7.06c3.44-.27,3.13,1.96,2.02,1.64-.29-.4-1.1-1.01-2.09-1.35l.07-.29Zm.77-5.2c3.28-.34,2.95,1.82,1.85,1.51-.27-.38-.99-.94-1.94-1.22l.09-.29Zm1.4,15.57h1.96v-3.31h-1.96v3.31Z"/>
        </g>
        <g>
          <path class="cls-10" d="M170.01,265.96v1.53h-8.1v-1.22c1.08-1.08,2.12-2.21,2.99-3.11,2-2.09,2.83-3.62,2.83-5.2s-.94-2.68-2.41-2.68c-.29,0-.67,.04-1.06,.12l-.4,1.44c-.23,.9-.58,1.24-1.08,1.24-.41,0-.76-.22-.95-.59,.27-2.02,2-2.99,3.96-2.99,2.54,0,3.67,1.39,3.67,3.37,0,1.69-.92,3.04-3.94,5.91-.56,.54-1.4,1.35-2.3,2.2h6.81Z"/>
          <path class="cls-10" d="M179.89,261.13c0,4.86-2.03,6.61-4.1,6.61s-4.14-1.75-4.14-6.61,2.02-6.64,4.14-6.64,4.1,1.8,4.1,6.64Zm-4.1,5.85c1.21,0,2.34-1.22,2.34-5.85s-1.13-5.87-2.34-5.87-2.4,1.22-2.4,5.87,1.13,5.85,2.4,5.85Z"/>
          <path class="cls-10" d="M196.58,266.88s.94,.79,1.44,1.35c-.05,.18-.22,.27-.45,.27h-15.97l-.16-.5h2.65v-4.36c-.72,.07-1.46,.11-2.2,.13l-.05-.34c2.75-.23,5.51-.81,7.8-1.57-.79-.5-1.44-1.08-1.96-1.73l-5.22,.18-.16-.52,5.02-.16c-.41-.59-.72-1.24-.94-1.95l2.11,.11c-.02,.2-.16,.38-.49,.45,.2,.47,.45,.92,.79,1.33l5.28-.16,.85-1.12s1.04,.74,1.66,1.24c-.04,.22-.22,.32-.47,.32l-6.86,.23c.47,.47,1.04,.9,1.76,1.26,1.04-.41,1.93-.87,2.61-1.33l1.42,1.08c-.14,.14-.47,.18-.9,.05-.54,.27-1.15,.52-1.82,.76,.94,.32,2.05,.58,3.37,.7,.49,.05,.7,.04,.81-.18,.18-.31,.43-.94,.59-1.51l.2,.02-.04,1.67c.67,.29,.76,.4,.7,.65-.14,.7-1.22,.68-2.5,.5l-.36-.05,1.08,.78c-.14,.18-.34,.27-.81,.34v3.17h.45l.77-1.12Zm-14.3-12.41l5.4-.22c-.4-.58-.7-1.22-.92-1.91l2.05,.09c-.02,.22-.16,.4-.47,.45,.18,.45,.43,.9,.77,1.31l5.24-.2,.86-1.13s1.03,.72,1.66,1.24c-.02,.2-.2,.31-.45,.32l-6.86,.27c.36,.36,.81,.68,1.31,.99,1.08-.34,2-.68,2.72-1.04l1.28,1.1c-.14,.12-.47,.14-.88,0-.56,.18-1.17,.36-1.84,.54,.92,.34,2.02,.59,3.31,.74,.47,.05,.65,.04,.77-.18,.14-.29,.4-.92,.56-1.48l.2,.02-.04,1.67c.67,.27,.74,.4,.67,.65-.14,.65-1.21,.61-2.41,.43-1.98-.29-3.55-.78-4.79-1.46-2.34,.5-5.08,.86-7.78,.92l-.05-.34c2.3-.2,4.75-.63,6.86-1.17-.56-.4-1.03-.85-1.42-1.33l-5.6,.22-.16-.5Zm11.92,9.07c-1.37-.27-2.52-.65-3.51-1.12-1.85,.54-4.02,.97-6.32,1.19l1.28,.54h8.1l.45-.61Zm-8.75,4.45h1.91v-3.31h-1.91v3.31Zm5.19-3.31h-1.93v3.31h1.93v-3.31Zm-.83-7.06c3.44-.27,3.13,1.96,2.02,1.64-.29-.4-1.1-1.01-2.09-1.35l.07-.29Zm.77-5.2c3.28-.34,2.95,1.82,1.85,1.51-.27-.38-.99-.94-1.94-1.22l.09-.29Zm1.4,15.57h1.96v-3.31h-1.96v3.31Z"/>
        </g>
        <g>
          <path class="cls-10" d="M169.39,329.88v.61h-7.27v-.61l2.81-.4c.02-1.04,.04-2.11,.04-3.15v-7.27l-2.63,.25v-.68l4.05-1.04,.27,.2-.07,2.83v5.73c0,1.04,.02,2.11,.04,3.15l2.77,.4Z"/>
          <path class="cls-10" d="M172.08,330.26c3.49-1.19,5.11-3.04,5.51-5.83-.67,.67-1.57,1.01-2.65,1.01-2.11,0-3.82-1.46-3.82-3.87s1.75-4.07,4.18-4.07c2.56,0,4.12,1.98,4.12,5.15,0,3.76-2.18,7.04-7.2,8.23l-.14-.61Zm5.6-6.68c.02-.22,.02-.47,.02-.7,0-3.21-1.01-4.61-2.47-4.61-1.31,0-2.41,1.04-2.41,3.1s1.17,3.04,2.68,3.04c.86,0,1.55-.25,2.18-.83Z"/>
          <path class="cls-10" d="M196.28,329.88s.94,.79,1.44,1.35c-.05,.18-.22,.27-.45,.27h-15.97l-.16-.5h2.65v-4.36c-.72,.07-1.46,.11-2.2,.13l-.05-.34c2.75-.23,5.51-.81,7.8-1.57-.79-.5-1.44-1.08-1.96-1.73l-5.22,.18-.16-.52,5.02-.16c-.41-.59-.72-1.24-.94-1.95l2.11,.11c-.02,.2-.16,.38-.49,.45,.2,.47,.45,.92,.79,1.33l5.28-.16,.85-1.12s1.04,.74,1.66,1.24c-.04,.22-.22,.32-.47,.32l-6.86,.23c.47,.47,1.04,.9,1.76,1.26,1.04-.41,1.93-.86,2.61-1.33l1.42,1.08c-.14,.14-.47,.18-.9,.05-.54,.27-1.15,.52-1.82,.76,.94,.32,2.05,.58,3.37,.7,.49,.05,.7,.04,.81-.18,.18-.31,.43-.94,.59-1.51l.2,.02-.04,1.67c.67,.29,.76,.4,.7,.65-.14,.7-1.22,.68-2.5,.5l-.36-.05,1.08,.77c-.14,.18-.34,.27-.81,.34v3.17h.45l.77-1.12Zm-14.3-12.41l5.4-.22c-.4-.58-.7-1.22-.92-1.91l2.05,.09c-.02,.22-.16,.4-.47,.45,.18,.45,.43,.9,.77,1.31l5.24-.2,.86-1.13s1.03,.72,1.66,1.24c-.02,.2-.2,.31-.45,.32l-6.86,.27c.36,.36,.81,.68,1.31,.99,1.08-.34,2-.68,2.72-1.04l1.28,1.1c-.14,.13-.47,.14-.88,0-.56,.18-1.17,.36-1.84,.54,.92,.34,2.02,.59,3.31,.74,.47,.05,.65,.04,.77-.18,.14-.29,.4-.92,.56-1.48l.2,.02-.04,1.67c.67,.27,.74,.4,.67,.65-.14,.65-1.21,.61-2.41,.43-1.98-.29-3.55-.77-4.79-1.46-2.34,.5-5.08,.86-7.78,.92l-.05-.34c2.3-.2,4.75-.63,6.86-1.17-.56-.4-1.03-.85-1.42-1.33l-5.6,.22-.16-.5Zm11.92,9.08c-1.37-.27-2.52-.65-3.51-1.12-1.85,.54-4.02,.97-6.32,1.19l1.28,.54h8.1l.45-.61Zm-8.75,4.45h1.91v-3.31h-1.91v3.31Zm5.19-3.31h-1.93v3.31h1.93v-3.31Zm-.83-7.06c3.44-.27,3.13,1.96,2.02,1.64-.29-.4-1.1-1.01-2.09-1.35l.07-.29Zm.77-5.2c3.28-.34,2.95,1.82,1.85,1.51-.27-.38-.99-.94-1.94-1.22l.09-.29Zm1.4,15.57h1.96v-3.31h-1.96v3.31Z"/>
        </g>
        <g>
          <path class="cls-10" d="M151.44,383.74c-.22,.79-.49,1.17-1.12,1.17-.41,0-.74-.18-.92-.67,.36-1.73,1.87-2.54,3.69-2.54,2.29,0,3.73,1.26,3.73,3.08,0,1.46-.97,2.65-2.72,3.21,2.14,.4,3.13,1.6,3.13,3.22,0,2.18-1.78,3.75-4.41,3.75-1.96,0-3.42-.83-3.78-2.74,.22-.43,.54-.63,.95-.63,.61,0,.85,.4,1.08,1.3l.32,1.17c.4,.11,.77,.14,1.13,.14,1.96,0,2.97-1.1,2.97-2.9s-1.03-2.86-3.06-2.86h-.94v-.86h.77c1.76,0,2.88-.97,2.88-2.74,0-1.51-.9-2.36-2.45-2.36-.27,0-.59,.02-.95,.11l-.32,1.15Z"/>
          <path class="cls-10" d="M167.03,391.6c0,2-1.71,3.35-4.03,3.35s-4.05-1.1-4.05-3.13c0-1.46,1.01-2.47,2.86-3.37-1.71-.92-2.45-2.11-2.45-3.47,0-2.03,1.64-3.28,3.69-3.28s3.39,1.26,3.39,3.03c0,.97-.56,2.12-2.38,3.13,2.02,.99,2.97,2.02,2.97,3.75Zm-1.58,.2c0-1.17-.74-1.94-3.02-3.04-1.28,.81-1.91,1.53-1.91,2.86,0,1.57,1.03,2.59,2.54,2.59s2.4-1.01,2.4-2.41Zm-1.98-4.23c1.13-.88,1.57-1.67,1.57-2.79,0-1.28-.74-2.3-2.02-2.3-1.15,0-2.16,.79-2.16,2.07,0,1.06,.54,2.04,2.61,3.03Z"/>
          <path class="cls-10" d="M177.5,390.85h-2.09v3.85h-1.58v-3.85h-5.35v-.96l5.83-8.08h1.1v7.89h2.09v1.15Zm-3.67-1.15v-6.07l-4.36,6.07h4.36Z"/>
          <path class="cls-10" d="M179.45,393.64c0-.76,.59-1.37,1.33-1.37s1.35,.61,1.35,1.37c0,.7-.59,1.31-1.35,1.31s-1.33-.61-1.33-1.31Z"/>
          <path class="cls-10" d="M187.01,383.74c-.22,.79-.49,1.17-1.12,1.17-.41,0-.74-.18-.92-.67,.36-1.73,1.87-2.54,3.69-2.54,2.29,0,3.73,1.26,3.73,3.08,0,1.46-.97,2.65-2.72,3.21,2.14,.4,3.13,1.6,3.13,3.22,0,2.18-1.78,3.75-4.41,3.75-1.96,0-3.42-.83-3.78-2.74,.22-.43,.54-.63,.95-.63,.61,0,.85,.4,1.08,1.3l.32,1.17c.4,.11,.77,.14,1.13,.14,1.96,0,2.97-1.1,2.97-2.9s-1.03-2.86-3.06-2.86h-.94v-.86h.77c1.76,0,2.88-.97,2.88-2.74,0-1.51-.9-2.36-2.45-2.36-.27,0-.59,.02-.95,.11l-.32,1.15Z"/>
          <path class="cls-10" d="M210.79,394.09v.61h-4.52v-.61l1.46-.22c.02-.99,.04-2.36,.04-3.31v-1.85c0-1.84-.52-2.36-1.66-2.36-.83,0-1.66,.36-2.7,1.31,.04,.31,.05,.63,.05,1.01v1.89c0,.95,.02,2.32,.05,3.31l1.35,.22v.61h-4.54v-.61l1.49-.22c.02-.99,.04-2.36,.04-3.31v-1.82c0-1.8-.5-2.39-1.62-2.39-.9,0-1.67,.38-2.68,1.3v2.92c0,.92,.02,2.3,.04,3.31l1.37,.22v.61h-4.54v-.61l1.46-.22c.02-1.01,.04-2.39,.04-3.31v-1.03c0-1.12,0-1.8-.05-2.59l-1.57-.16v-.59l2.77-1.08,.27,.18,.16,1.6c.97-1.1,2.23-1.8,3.44-1.8s2,.56,2.34,1.85c1.04-1.26,2.3-1.85,3.56-1.85,1.6,0,2.52,.99,2.52,3.42v2.05c0,.95,.02,2.32,.04,3.31l1.39,.22Z"/>
        </g>
        <g>
          <path class="cls-10" d="M75.98,126.77c-.59,.49-1.31,1.1-2.21,1.82v6.05c0,1.15-.22,1.85-2.11,2.05-.04-.5-.14-.88-.38-1.12-.27-.27-.72-.45-1.53-.58v-.27s1.8,.13,2.18,.13c.32,0,.41-.09,.41-.36v-4.81c-.45,.36-.92,.72-1.44,1.1-.02,.22-.13,.41-.31,.52l-.94-1.66c.52-.2,1.51-.68,2.68-1.28v-3.58h-2.48l-.14-.52h2.63v-4.18l2.07,.22c-.04,.25-.22,.43-.65,.5v3.46h.5l.81-1.12s.94,.77,1.48,1.35c-.04,.2-.22,.29-.47,.29h-2.32v2.86c.68-.36,1.37-.72,2.07-1.1l.14,.22Zm9.31,2.11c-.14,.16-.34,.2-.77,.23-.7,1.6-1.67,3.02-3.01,4.21,1.4,.92,3.11,1.55,5.02,1.94l-.02,.22c-.61,.09-1.06,.52-1.28,1.19-1.89-.59-3.44-1.4-4.68-2.56-1.58,1.15-3.58,2.04-6.05,2.61l-.14-.29c2.21-.72,4.03-1.76,5.49-3.04-1.03-1.19-1.76-2.65-2.27-4.5h-1.35l-.16-.52h6.9l.88-.83,1.44,1.33Zm-9.83-.99c1.96-1.51,2.25-3.42,2.25-5.1v-2.12l1.58,.65h2.77l.72-.77,1.42,1.21c-.13,.13-.34,.22-.67,.27v3.53c0,.2,.04,.27,.31,.27h.61c.23,0,.47,0,.59-.02h.27c.11-.02,.25-.05,.34-.07h.16l.07,.02c.36,.14,.5,.25,.5,.54,0,.52-.45,.79-2.07,.79h-.88c-1.08,0-1.22-.31-1.22-1.15v-4.09h-3.19v.95c0,1.58-.34,3.91-3.4,5.31l-.18-.22Zm2.5,1.01c.56,1.55,1.48,2.79,2.67,3.75,1.03-1.1,1.82-2.36,2.36-3.75h-5.02Z"/>
          <path class="cls-10" d="M95.36,127.73l1.24,.61c-.11,.18-.29,.27-.72,.2-.16,.25-.34,.52-.52,.79v5.55c0,1.04-.2,1.66-1.98,1.84-.05-.41-.14-.76-.38-.95-.27-.22-.7-.4-1.49-.5v-.29s1.75,.14,2.12,.14c.32,0,.41-.13,.41-.4v-3.73c-1.6,1.82-3.73,3.6-6.23,4.79l-.18-.23c2.2-1.42,4.16-3.48,5.58-5.51-1.17,.32-2.63,.72-4.45,1.17-.09,.23-.29,.36-.47,.4l-.58-1.75c.38-.02,.9-.04,1.55-.09v-7.89l1.51,.63h.36c.11-.67,.25-1.67,.32-2.39l2.18,.34c-.05,.27-.27,.43-.65,.45-.31,.47-.77,1.12-1.12,1.6h1.98l.68-.81,1.58,1.24c-.13,.13-.41,.29-.77,.34v4.45Zm-4.81-4.7v1.76h3.49v-1.76h-3.49Zm3.49,2.29h-3.49v1.82h3.49v-1.82Zm-3.49,4.36c.94-.07,1.98-.16,3.08-.25,.14-.22,.29-.45,.41-.67v-1.12h-3.49v2.03Zm12.62-6.09s.94,.85,1.49,1.44c-.05,.2-.23,.29-.47,.29h-2.12v9.42c0,1.12-.23,1.78-2.16,1.98-.07-.47-.18-.81-.45-1.04-.29-.25-.76-.43-1.64-.56v-.27s1.98,.14,2.38,.14c.34,0,.43-.11,.43-.38v-9.29h-4.72l-.14-.52h4.86v-4.48l2.09,.23c-.04,.25-.22,.43-.65,.49v3.76h.25l.85-1.21Zm-6.27,3.24c3.82,2.27,2.25,5.37,.95,4.03,.05-1.3-.56-2.88-1.17-3.94l.22-.09Z"/>
          <path class="cls-10" d="M112.37,124.29c-.05,.14-.27,.32-.63,.25-.5,.77-1.48,2.04-2.4,2.99-.05,1.12-.13,2.12-.27,3.06,3.56,2.12,2.48,4.63,1.28,3.6-.14-.92-.76-2.09-1.37-3.01-.43,2.34-1.33,4.14-3.17,5.58l-.23-.32c2.95-3.19,2.54-8.08,2.54-16.24l1.94,.2c-.05,.27-.23,.45-.65,.5-.02,2.18,0,4.12-.04,5.85,.52-1.12,1.04-2.47,1.3-3.26l1.69,.79Zm-6.52-.85c2.9,2.99,1.73,5.67,.65,4.5,.04-1.39-.47-3.21-.9-4.41l.25-.09Zm4.74,4.46c1.13-.79,2.07-1.87,2.75-3.04-.18,.09-.43,.05-.7-.13-.13-.63-.67-1.42-1.15-1.85l.2-.13c1.46,.27,2,.88,2.07,1.39,.38-.74,.68-1.53,.9-2.3h-2.63l-.16-.52h2.74l.79-.79,1.42,1.22c-.13,.16-.31,.2-.72,.23-.83,2.43-2.5,4.75-5.31,6.18l-.2-.25Zm10.17,6.59s.99,.77,1.6,1.37c-.05,.2-.23,.29-.49,.29h-10.95l-.14-.52h6.14c.38-1.01,.74-2.39,.94-3.4l2.07,.58c-.07,.2-.29,.36-.68,.34-.41,.74-1.12,1.69-1.82,2.48h2.43l.9-1.13Zm-2.18-2.27v-.56h-4.68v.31c0,.11-.58,.4-1.12,.4h-.18v-4.84l1.39,.59h4.41l.72-.74,1.55,1.15c-.13,.14-.43,.31-.77,.38v2.95c-.02,.11-.68,.36-1.1,.36h-.22Zm-5.2,.14c3.31,1.48,1.85,3.87,.68,2.77-.05-.88-.49-1.98-.88-2.68l.2-.09Zm4.34-7.22s.85,.7,1.37,1.21c-.05,.2-.22,.29-.47,.29h-4.66l-.14-.52h3.15l.76-.97Zm.86,6v-2.5h-4.68v2.5h4.68Zm3.67-7.76c-.13,.16-.31,.22-.67,.09-.63,.38-1.48,.77-2.16,1.04,.9,.88,1.94,1.57,3.1,2l-.02,.2c-.52,.11-.94,.5-1.1,1.12-2.41-1.35-3.92-3.76-4.72-7.09l.31-.13c.23,.68,.54,1.35,.9,1.96,.5-.52,1.12-1.26,1.55-1.93l1.49,1.12c-.13,.16-.31,.22-.7,.09-.67,.41-1.44,.83-2.09,1.08,.27,.43,.59,.85,.94,1.22,.56-.5,1.22-1.21,1.78-1.82l1.39,1.04Z"/>
        </g>
        <g>
          <path class="cls-10" d="M72.83,193.98c0,2.95-.18,6.82-2.99,9.49l-.25-.18c1.66-2.74,1.8-6.14,1.8-9.31v-5.17l1.69,.68h10.75l.95-1.21s1.06,.85,1.71,1.46c-.05,.2-.23,.29-.49,.29h-13.18v3.94Zm5.67,1.84c-.13,.16-.29,.22-.67,.23-.36,1.57-.88,3.01-1.78,4.27,1.33,.99,3.15,1.22,5.73,1.22,1.08,0,3.55,0,4.75-.04v.23c-.52,.11-.77,.58-.79,1.12h-4.05c-2.86,0-4.77-.4-6.16-1.91-.86,1.01-2.05,1.84-3.66,2.47l-.14-.27c1.44-.79,2.48-1.78,3.24-2.97-.47-.74-.86-1.62-1.19-2.75l.23-.13c.36,.97,.77,1.71,1.3,2.3,.58-1.1,.95-2.34,1.19-3.69h-1.28l-.54,.49-1.22-.97c.18-.11,.41-.23,.67-.31,.5-.86,1.19-2.16,1.6-3.08h-2.12l-.16-.52h2.3l.72-.74,1.46,1.31c-.16,.18-.5,.27-.9,.29-.41,.79-1.1,2.07-1.64,2.99h1.01l.74-.76,1.37,1.21Zm-1.4-9.09c4.12,.65,3.02,3.51,1.53,2.58-.25-.83-1.04-1.86-1.67-2.47l.14-.11Zm4.14,12.57v-3.46h-2.3l-.14-.52h2.45v-2.94c-.97,.16-2.02,.27-2.99,.32l-.07-.31c2.18-.41,4.79-1.28,6.12-1.96l1.4,1.26c-.16,.16-.47,.16-.9-.02-.63,.18-1.39,.34-2.23,.5v3.13h.79l.83-1.12s.95,.79,1.51,1.35c-.04,.2-.22,.29-.45,.29h-2.68v3.46h1.4l.85-1.1s.95,.77,1.55,1.33c-.05,.2-.22,.29-.47,.29h-7.58l-.14-.52h3.06Z"/>
          <path class="cls-10" d="M104.13,188.29c-.13,.16-.41,.29-.77,.36v14.04c-.02,.14-.7,.54-1.22,.54h-.22v-1.19h-11.56v.76c0,.2-.54,.58-1.15,.58h-.27v-16.21l1.57,.7h11.24l.77-.86,1.62,1.28Zm-2.21,.11h-11.56v13.13h11.56v-13.13Zm-4.74,10.96c-.68,.36-2.03,1.15-3.38,1.87-.07,.13-.18,.23-.27,.29l-.81-1.1c.5-.34,.59-.47,.59-.72v-1.22c-.83,.36-1.69,.65-2.63,.9l-.16-.31c1.6-.61,3.06-1.48,4.12-2.47h-1.19v.27c0,.11-.58,.36-1.06,.36h-.18v-3.92l1.33,.56h5.04l.63-.63,1.35,.99c-.09,.11-.31,.25-.58,.29v2.04l1.08,1.01c-.09,.13-.23,.14-.56,.02-.41,.23-1.04,.56-1.62,.83,2.88,1.44,2.2,2.97,1.19,2.47-.63-.83-2.25-2.2-4.29-3.26l.13-.27c.99,.25,1.82,.54,2.48,.85,.45-.43,.95-.97,1.31-1.4-.23,.11-.54,.2-.79,.2h-.2v-.38h-2.52c-.47,.47-1.04,.86-1.67,1.24v2.02c.76-.22,1.66-.49,2.57-.77l.07,.27Zm2.88-8.07s.9,.67,1.44,1.19c-.05,.2-.22,.29-.47,.29h-10.05l-.14-.52h4.59v-1.31h-3.56l-.14-.54h3.71v-1.55l1.84,.18c-.04,.22-.16,.36-.52,.41v.95h1.78l.76-.9s.85,.65,1.4,1.15c-.05,.2-.22,.29-.47,.29h-3.48v1.31h2.54l.77-.95Zm-6.61,4.77h5.28v-1.67h-5.28v1.67Z"/>
          <path class="cls-10" d="M112.45,190.95c-.05,.14-.27,.32-.63,.25-.5,.77-1.48,2.03-2.4,2.99-.05,1.12-.13,2.12-.27,3.06,3.56,2.12,2.48,4.63,1.28,3.6-.14-.92-.76-2.09-1.37-3.01-.43,2.34-1.33,4.14-3.17,5.58l-.23-.32c2.95-3.19,2.54-8.08,2.54-16.24l1.94,.2c-.05,.27-.23,.45-.65,.5-.02,2.18,0,4.12-.04,5.85,.52-1.12,1.04-2.47,1.3-3.26l1.69,.79Zm-6.52-.85c2.9,2.99,1.73,5.67,.65,4.5,.04-1.39-.47-3.21-.9-4.41l.25-.09Zm4.74,4.47c1.13-.79,2.07-1.87,2.75-3.04-.18,.09-.43,.05-.7-.13-.13-.63-.67-1.42-1.15-1.85l.2-.13c1.46,.27,2,.88,2.07,1.39,.38-.74,.68-1.53,.9-2.3h-2.63l-.16-.52h2.74l.79-.79,1.42,1.22c-.13,.16-.31,.2-.72,.23-.83,2.43-2.5,4.75-5.31,6.18l-.2-.25Zm10.17,6.59s.99,.77,1.6,1.37c-.05,.2-.23,.29-.49,.29h-10.95l-.14-.52h6.14c.38-1.01,.74-2.39,.94-3.4l2.07,.58c-.07,.2-.29,.36-.68,.34-.41,.74-1.12,1.69-1.82,2.48h2.43l.9-1.13Zm-2.18-2.27v-.56h-4.68v.31c0,.11-.58,.4-1.12,.4h-.18v-4.84l1.39,.59h4.41l.72-.74,1.55,1.15c-.13,.14-.43,.31-.77,.38v2.95c-.02,.11-.68,.36-1.1,.36h-.22Zm-5.2,.14c3.31,1.48,1.85,3.87,.68,2.77-.05-.88-.49-1.98-.88-2.68l.2-.09Zm4.34-7.22s.85,.7,1.37,1.21c-.05,.2-.22,.29-.47,.29h-4.66l-.14-.52h3.15l.76-.97Zm.86,6v-2.5h-4.68v2.5h4.68Zm3.67-7.76c-.13,.16-.31,.22-.67,.09-.63,.38-1.48,.77-2.16,1.04,.9,.88,1.94,1.57,3.1,2l-.02,.2c-.52,.11-.94,.5-1.1,1.12-2.41-1.35-3.92-3.76-4.72-7.09l.31-.13c.23,.68,.54,1.35,.9,1.96,.5-.52,1.12-1.26,1.55-1.93l1.49,1.12c-.13,.16-.31,.22-.7,.09-.67,.41-1.44,.83-2.09,1.08,.27,.43,.59,.85,.94,1.22,.56-.5,1.22-1.21,1.78-1.82l1.39,1.04Z"/>
        </g>
        <g>
          <path class="cls-10" d="M76.42,253.29s.99,.79,1.6,1.37c-.05,.2-.23,.29-.49,.29h-2.99l.23,1.73c-.2,.29-.72,.41-1.33,.4l-.27-2.12h-3.37l-.14-.52h3.44l-.29-2.27,1.96,.16c-.04,.22-.16,.4-.52,.49l.22,1.62h1.1l.85-1.13Zm-6.5,10.28c1.71-1.39,3.58-3.8,4.72-6.48l2.02,.92c-.09,.2-.32,.34-.74,.27-.47,.79-1.01,1.49-1.58,2.18l.88,.32c-.07,.14-.23,.27-.56,.31v7.24c-.02,.13-.63,.4-1.15,.4h-.27v-7.15c-.97,.94-2.05,1.66-3.11,2.21l-.2-.22Zm15.63,3.12c.47,.18,.59,.34,.59,.63,0,.65-.68,.92-3.75,.92h-2.03c-1.62,0-2.03-.34-2.03-1.49v-9.42l2.03,.22c-.04,.23-.2,.41-.61,.47v3.33h3.26l.92-1.21s1.03,.85,1.67,1.44c-.05,.2-.23,.29-.49,.29h-5.37v4.54c0,.36,.13,.49,.88,.49h1.85c.81,0,1.44,0,1.71-.04,.2-.04,.31-.09,.41-.27,.16-.31,.4-1.39,.65-2.58h.23l.05,2.68Zm-.68-13.4s1.01,.79,1.6,1.37c-.04,.2-.22,.29-.47,.29h-3.87l-.31,1.84c-.27,.2-.83,.29-1.4,.14l.31-1.98h-2.05l-.14-.52h2.27l.38-2.3,1.94,.45c-.05,.22-.23,.4-.67,.4l-.25,1.46h1.82l.85-1.13Z"/>
          <path class="cls-10" d="M102.77,259.76s.99,.76,1.6,1.3c-.05,.2-.23,.29-.47,.29h-8.66v7c0,.09-.41,.38-1.12,.38h-.22v-2.21c-1.22,.31-2.83,.7-4.97,1.17-.09,.22-.25,.34-.43,.38l-.76-1.58c.49-.02,1.24-.05,2.12-.11v-5.02h-1.94l-.14-.5h7.49v-1.28h-5.35l-.13-.5h5.47v-1.19h-6.18l-.16-.52h4.57c-.07-.04-.16-.09-.23-.14-.05-.61-.49-1.35-.92-1.75h-4.29l-.14-.52h3.75c-.09-.04-.18-.07-.27-.14-.11-.76-.74-1.67-1.35-2.2l.2-.13c2.66,.61,2.61,2.18,1.93,2.47h1.49v-2.86l1.91,.2c-.02,.22-.16,.38-.54,.45v2.21h1.82v-2.86l1.91,.2c-.04,.22-.14,.38-.56,.45v2.21h.86c.52-.74,1.08-1.76,1.42-2.52l1.89,.61c-.09,.2-.32,.32-.7,.29-.5,.5-1.28,1.13-2.02,1.62h2.05l.86-1.06s1.01,.74,1.62,1.3c-.05,.2-.2,.29-.47,.29h-4.63l1.26,.41c-.09,.2-.32,.32-.7,.29-.41,.38-1.01,.83-1.62,1.19h2.79l.86-1.04s.97,.74,1.58,1.28c-.04,.2-.22,.29-.47,.29h-6.09v1.19h3.42l.79-.97s.9,.68,1.46,1.19c-.04,.2-.2,.29-.45,.29h-5.22v1.28h5.19l.85-1.08Zm-8.86,1.58h-2.68v1.22h2.68v-1.22Zm0,1.75h-2.68v1.26h2.68v-1.26Zm-2.68,3.19c.85-.05,1.75-.13,2.68-.2v-1.22h-2.68v1.42Zm6.21-8.93c.34-.54,.74-1.28,.99-1.89h-5.28c1.66,.52,1.55,1.6,.97,1.89h3.31Zm5.74,5.64c-.14,.16-.32,.2-.76,.23-.5,1.01-1.21,1.94-2.11,2.74,1.15,.65,2.47,1.12,3.85,1.42l-.04,.2c-.54,.11-.94,.52-1.12,1.17-1.39-.5-2.61-1.17-3.64-2.05-1.03,.72-2.25,1.3-3.67,1.73l-.14-.27c1.22-.52,2.3-1.22,3.19-2.05-.81-.83-1.46-1.84-1.93-3.03h-.85l-.16-.5h5.13l.85-.79,1.39,1.21Zm-5.94,.09c.52,.92,1.3,1.69,2.2,2.32,.63-.7,1.15-1.49,1.51-2.32h-3.71Z"/>
          <path class="cls-10" d="M112.36,256.3c-.05,.14-.27,.32-.63,.25-.5,.77-1.48,2.03-2.4,2.99-.05,1.12-.13,2.12-.27,3.06,3.56,2.12,2.48,4.63,1.28,3.6-.14-.92-.76-2.09-1.37-3.01-.43,2.34-1.33,4.14-3.17,5.58l-.23-.32c2.95-3.19,2.54-8.08,2.54-16.24l1.94,.2c-.05,.27-.23,.45-.65,.5-.02,2.18,0,4.12-.04,5.85,.52-1.12,1.04-2.47,1.3-3.26l1.69,.79Zm-6.52-.85c2.9,2.99,1.73,5.67,.65,4.5,.04-1.39-.47-3.21-.9-4.41l.25-.09Zm4.74,4.47c1.13-.79,2.07-1.87,2.75-3.04-.18,.09-.43,.05-.7-.13-.13-.63-.67-1.42-1.15-1.85l.2-.13c1.46,.27,2,.88,2.07,1.39,.38-.74,.68-1.53,.9-2.3h-2.63l-.16-.52h2.74l.79-.79,1.42,1.22c-.13,.16-.31,.2-.72,.23-.83,2.43-2.5,4.75-5.31,6.18l-.2-.25Zm10.17,6.59s.99,.77,1.6,1.37c-.05,.2-.23,.29-.49,.29h-10.95l-.14-.52h6.14c.38-1.01,.74-2.39,.94-3.4l2.07,.58c-.07,.2-.29,.36-.68,.34-.41,.74-1.12,1.69-1.82,2.48h2.43l.9-1.13Zm-2.18-2.27v-.56h-4.68v.31c0,.11-.58,.4-1.12,.4h-.18v-4.84l1.39,.59h4.41l.72-.74,1.55,1.15c-.13,.14-.43,.31-.77,.38v2.95c-.02,.11-.68,.36-1.1,.36h-.22Zm-5.2,.14c3.31,1.48,1.85,3.87,.68,2.77-.05-.88-.49-1.98-.88-2.68l.2-.09Zm4.34-7.22s.85,.7,1.37,1.21c-.05,.2-.22,.29-.47,.29h-4.66l-.14-.52h3.15l.76-.97Zm.86,6v-2.5h-4.68v2.5h4.68Zm3.67-7.76c-.13,.16-.31,.22-.67,.09-.63,.38-1.48,.77-2.16,1.04,.9,.88,1.94,1.57,3.1,2l-.02,.2c-.52,.11-.94,.5-1.1,1.12-2.41-1.35-3.92-3.76-4.72-7.09l.31-.13c.23,.68,.54,1.35,.9,1.96,.5-.52,1.12-1.26,1.55-1.93l1.49,1.12c-.13,.16-.31,.22-.7,.09-.67,.41-1.44,.83-2.09,1.08,.27,.43,.59,.85,.94,1.22,.56-.5,1.22-1.21,1.78-1.82l1.39,1.04Z"/>
        </g>
        <g>
          <path class="cls-10" d="M76.81,320.73c-.13,.16-.31,.22-.7,.25-.85,3.46-2.59,6.95-6.3,9.08l-.2-.22c2.74-2.21,4.32-5.67,4.97-9.06h-4.45l-.14-.5h4.5l.85-.86,1.48,1.31Zm9.18-1.21c-.13,.18-.29,.25-.7,.16-1.03,.99-2.74,2.36-4.41,3.38,1.55,2.63,3.64,4.3,5.74,5.44l-.05,.18c-.61,.09-1.12,.58-1.35,1.26-3.02-2.3-5.31-5.38-6.39-11.31v11.05c0,1.15-.23,1.84-2.27,2.04-.05-.49-.18-.83-.47-1.08-.32-.25-.79-.43-1.76-.56v-.29s2.16,.16,2.59,.16c.32,0,.43-.11,.43-.4v-14.44l2.11,.23c-.05,.25-.18,.41-.63,.49v1.49c.4,2.12,1.04,3.91,1.85,5.38,1.3-1.35,2.68-3.19,3.42-4.38l1.89,1.17Z"/>
          <path class="cls-10" d="M103.98,319.36c-.11,.14-.4,.31-.76,.38v6.09c-.02,.13-.76,.43-1.26,.43h-.25v-1.5h-4.9v6.37c0,.2-.65,.58-1.21,.58h-.29v-6.95h-4.9v1.22c0,.14-.63,.5-1.24,.5h-.23v-8.26l1.62,.7h4.75v-3.84l2.16,.23c-.05,.25-.2,.45-.67,.52v3.08h4.72l.79-.83,1.66,1.26Zm-8.66,4.88v-4.79h-4.9v4.79h4.9Zm6.39,0v-4.79h-4.9v4.79h4.9Z"/>
          <path class="cls-10" d="M112.42,319.29c-.05,.14-.27,.32-.63,.25-.5,.77-1.48,2.04-2.4,2.99-.05,1.12-.13,2.12-.27,3.06,3.56,2.12,2.48,4.63,1.28,3.6-.14-.92-.76-2.09-1.37-3.01-.43,2.34-1.33,4.14-3.17,5.58l-.23-.32c2.95-3.19,2.54-8.08,2.54-16.24l1.94,.2c-.05,.27-.23,.45-.65,.5-.02,2.18,0,4.12-.04,5.85,.52-1.12,1.04-2.47,1.3-3.26l1.69,.79Zm-6.52-.85c2.9,2.99,1.73,5.67,.65,4.5,.04-1.39-.47-3.21-.9-4.41l.25-.09Zm4.74,4.46c1.13-.79,2.07-1.87,2.75-3.04-.18,.09-.43,.05-.7-.13-.13-.63-.67-1.42-1.15-1.85l.2-.13c1.46,.27,2,.88,2.07,1.39,.38-.74,.68-1.53,.9-2.3h-2.63l-.16-.52h2.74l.79-.79,1.42,1.22c-.13,.16-.31,.2-.72,.23-.83,2.43-2.5,4.75-5.31,6.18l-.2-.25Zm10.17,6.59s.99,.77,1.6,1.37c-.05,.2-.23,.29-.49,.29h-10.95l-.14-.52h6.14c.38-1.01,.74-2.39,.94-3.4l2.07,.58c-.07,.2-.29,.36-.68,.34-.41,.74-1.12,1.69-1.82,2.48h2.43l.9-1.13Zm-2.18-2.27v-.56h-4.68v.31c0,.11-.58,.4-1.12,.4h-.18v-4.84l1.39,.59h4.41l.72-.74,1.55,1.15c-.13,.14-.43,.31-.77,.38v2.95c-.02,.11-.68,.36-1.1,.36h-.22Zm-5.2,.14c3.31,1.48,1.85,3.87,.68,2.77-.05-.88-.49-1.98-.88-2.68l.2-.09Zm4.34-7.22s.85,.7,1.37,1.21c-.05,.2-.22,.29-.47,.29h-4.66l-.14-.52h3.15l.76-.97Zm.86,6v-2.5h-4.68v2.5h4.68Zm3.67-7.76c-.13,.16-.31,.22-.67,.09-.63,.38-1.48,.77-2.16,1.04,.9,.88,1.94,1.57,3.1,2l-.02,.2c-.52,.11-.94,.5-1.1,1.12-2.41-1.35-3.92-3.76-4.72-7.09l.31-.13c.23,.68,.54,1.35,.9,1.96,.5-.52,1.12-1.26,1.55-1.93l1.49,1.12c-.13,.16-.31,.22-.7,.09-.67,.41-1.44,.83-2.09,1.08,.27,.43,.59,.85,.94,1.22,.56-.5,1.22-1.21,1.78-1.82l1.39,1.04Z"/>
        </g>
        <g>
          <path class="cls-10" d="M74.63,391.85v3.31c0,.09-.43,.41-1.1,.41h-.22v-3.73h-3.46l-.14-.52h3.6v-2.09h-1.55v.54c0,.11-.52,.4-1.01,.4h-.2v-7.15l1.3,.58h1.44v-1.49h-3.39l-.14-.52h3.53v-2.57l1.94,.18c-.04,.25-.18,.41-.59,.47v1.93h1.53l.81-1.06s.94,.74,1.49,1.3c-.05,.2-.22,.29-.45,.29h-3.39v1.49h1.28l.61-.63,1.31,1.01c-.09,.09-.31,.22-.58,.25v5.28c-.02,.14-.61,.47-1.03,.47h-.18v-.74h-1.44v2.09h1.4l.83-1.06s.97,.76,1.55,1.3c-.05,.2-.22,.29-.45,.29h-3.33Zm-2.86-7.72v2.04h1.58v-2.04h-1.58Zm0,4.59h1.58v-2.04h-1.58v2.04Zm2.83-4.59v2.04h1.48v-2.04h-1.48Zm1.48,4.59v-2.04h-1.48v2.04h1.48Zm6.09-3.29c.36,3.73,1.39,6.7,4.43,8.55l-.04,.22c-.72,.11-1.15,.52-1.31,1.39-2.09-1.73-2.92-4.77-3.26-8.14-.41,3.01-1.42,5.85-5.22,8.21l-.25-.31c3.89-3.24,4.27-7.02,4.36-11.25l2.03,.5c-.07,.2-.29,.38-.7,.38l-.04,.45Zm4.48-2.11c-.13,.14-.32,.18-.7,.2-.56,.94-1.58,2.32-2.38,3.17l-.25-.13c.34-.88,.83-2.29,1.12-3.29h-4.29c-.61,1.4-1.35,2.63-2.2,3.6l-.25-.14c.94-1.98,1.78-4.92,2.18-7.71l2.12,.54c-.07,.23-.27,.4-.65,.4-.27,.95-.61,1.89-.97,2.79h3.98l.81-.85,1.48,1.42Z"/>
          <path class="cls-10" d="M94.39,383.19c-.05,.14-.27,.32-.63,.25-.5,.77-1.48,2.04-2.4,2.99-.05,1.12-.13,2.12-.27,3.06,3.56,2.12,2.48,4.63,1.28,3.6-.14-.92-.76-2.09-1.37-3.01-.43,2.34-1.33,4.14-3.17,5.58l-.23-.32c2.95-3.19,2.54-8.08,2.54-16.24l1.94,.2c-.05,.27-.23,.45-.65,.5-.02,2.18,0,4.12-.04,5.85,.52-1.12,1.04-2.47,1.3-3.26l1.69,.79Zm-6.52-.85c2.9,2.99,1.73,5.67,.65,4.5,.04-1.39-.47-3.21-.9-4.41l.25-.09Zm4.74,4.46c1.13-.79,2.07-1.87,2.75-3.04-.18,.09-.43,.05-.7-.13-.13-.63-.67-1.42-1.15-1.85l.2-.13c1.46,.27,2,.88,2.07,1.39,.38-.74,.68-1.53,.9-2.3h-2.63l-.16-.52h2.74l.79-.79,1.42,1.22c-.13,.16-.31,.2-.72,.23-.83,2.43-2.5,4.75-5.31,6.18l-.2-.25Zm10.17,6.59s.99,.77,1.6,1.37c-.05,.2-.23,.29-.49,.29h-10.95l-.14-.52h6.14c.38-1.01,.74-2.39,.94-3.4l2.07,.58c-.07,.2-.29,.36-.68,.34-.41,.74-1.12,1.69-1.82,2.48h2.43l.9-1.13Zm-2.18-2.27v-.56h-4.68v.31c0,.11-.58,.4-1.12,.4h-.18v-4.84l1.39,.59h4.41l.72-.74,1.55,1.15c-.13,.14-.43,.31-.77,.38v2.95c-.02,.11-.68,.36-1.1,.36h-.22Zm-5.2,.14c3.31,1.48,1.85,3.87,.68,2.77-.05-.88-.49-1.98-.88-2.68l.2-.09Zm4.34-7.22s.85,.7,1.37,1.21c-.05,.2-.22,.29-.47,.29h-4.66l-.14-.52h3.15l.76-.97Zm.86,6v-2.5h-4.68v2.5h4.68Zm3.67-7.76c-.13,.16-.31,.22-.67,.09-.63,.38-1.48,.77-2.16,1.04,.9,.88,1.94,1.57,3.1,2l-.02,.2c-.52,.11-.94,.5-1.1,1.12-2.41-1.35-3.92-3.76-4.72-7.09l.31-.13c.23,.68,.54,1.35,.9,1.96,.5-.52,1.12-1.26,1.55-1.93l1.49,1.12c-.13,.16-.31,.22-.7,.09-.67,.41-1.44,.83-2.09,1.08,.27,.43,.59,.85,.94,1.22,.56-.5,1.22-1.21,1.78-1.82l1.39,1.04Z"/>
          <path class="cls-10" d="M110.97,379.64c-.07,.23-.29,.38-.7,.38-.43,1.39-.94,2.72-1.53,3.98l.83,.31c-.05,.16-.22,.27-.54,.32v10.57c-.02,.11-.59,.43-1.1,.43h-.25v-9.65c-.54,.88-1.12,1.69-1.75,2.36l-.25-.16c1.26-2.27,2.54-5.78,3.21-9.17l2.09,.63Zm.72,12.48c0,.16-.58,.45-1.06,.45h-.25v-10.7l1.91,.18c-.05,.23-.2,.4-.59,.47v9.6Zm-.56,2.47c1.3-1.15,2.45-3.01,2.95-4.38l1.85,.83c-.11,.2-.25,.29-.67,.23-.79,1.21-2.29,2.65-3.96,3.53l-.18-.22Zm9.54-12.73c-.49,1.21-1.24,2.21-2.2,3.04,1.12,.47,2.45,.83,4,1.04l-.04,.2c-.54,.16-.9,.56-1.01,1.24-1.64-.41-2.93-.99-4-1.69-1.35,.88-3.02,1.53-5.01,2l-.13-.27c1.78-.59,3.26-1.33,4.41-2.29-.85-.7-1.53-1.55-2.11-2.52-.81,.94-1.67,1.71-2.59,2.29l-.2-.2c1.19-1.3,2.47-3.46,3.24-5.73l1.96,.81c-.09,.2-.32,.34-.7,.31-.23,.41-.49,.85-.76,1.24h4.18l.86-1.13s1.01,.79,1.64,1.37c-.05,.2-.23,.29-.49,.29h-1.08Zm-2.9,7.54v5.78c0,.14-.61,.43-1.13,.43h-.25v-6.21h-3.8l-.14-.54h3.94v-2.02l2.05,.22c-.04,.25-.2,.43-.67,.49v1.31h1.82l.86-1.08s.99,.76,1.62,1.33c-.05,.2-.23,.29-.49,.29h-3.82Zm-2.57-7.54c-.11,.14-.22,.29-.32,.43,.65,.85,1.53,1.58,2.59,2.16,.74-.76,1.28-1.64,1.64-2.59h-3.91Zm3.21,8.64c4.99,1.58,4.02,4.84,2.48,3.82-.34-1.24-1.62-2.77-2.66-3.67l.18-.14Z"/>
        </g>
        <g>
          <path class="cls-10" d="M95.66,17.72c-.13,.14-.41,.31-.79,.38v5.55c-.02,.11-.74,.45-1.26,.45h-.23v-1.33h-7.13v.97c0,.11-.49,.49-1.22,.49h-.25v-6.01c-1.51,.65-3.15,1.21-4.93,1.64l-.14-.29c5.37-1.84,9.97-5.13,12.28-9.08h-5.64c-.4,.47-.81,.94-1.22,1.39,3.91,1.46,2.72,4.16,1.33,3.12-.2-.9-.94-1.98-1.66-2.77-1.39,1.4-2.99,2.68-4.61,3.58l-.18-.22c2.45-1.87,5.02-5.2,6.28-8.01l2.2,.67c-.09,.2-.23,.29-.72,.23-.31,.49-.63,.97-1.01,1.48h5.29l1.03-.9,1.55,1.5c-.16,.18-.38,.23-.85,.25-1.66,2.57-4.07,4.81-7.17,6.5h6.59l.79-.85,1.67,1.28Zm-2.29,4.52v-4.43h-7.13v4.43h7.13Z"/>
          <path class="cls-10" d="M113.35,18.26s.79,.79,1.22,1.35c-.05,.2-.22,.29-.47,.29h-1.4v2.18c0,1.03-.2,1.6-1.85,1.78-.05-.41-.13-.74-.32-.95-.25-.22-.63-.38-1.33-.47v-.29s1.51,.11,1.85,.11c.29,0,.36-.09,.36-.34v-2.02h-5.6v3.83c0,.14-.52,.47-1.08,.47h-.22v-4.3h-1.8l-.14-.54h1.94v-5.67c-.07,.11-.22,.16-.41,.16h-2.52v.83c3.37,1.39,2.3,3.62,1.21,2.72-.16-.72-.7-1.66-1.21-2.32v8.7c0,.13-.45,.43-1.1,.43h-.22v-6.84c-.67,1.37-1.49,2.65-2.54,3.75l-.23-.23c1.24-1.95,2.03-4.5,2.48-7.02h-2.16l-.13-.52h2.57v-3.44c-.79,.14-1.64,.27-2.41,.36l-.11-.29c1.82-.54,4.09-1.58,5.24-2.29l1.62,1.4c-.18,.18-.52,.2-.97,.02-.58,.16-1.28,.36-2.05,.52v3.71h.83l.76-1.03s.81,.67,1.35,1.21v-.23l1.4,.65h2.03v-1.48l1.8,.2c-.04,.23-.16,.4-.56,.45v.83h2.03l.65-.77,1.58,1.17c-.13,.14-.4,.29-.76,.36v4.59l.65-1.01Zm-9.51-8.79c2.79-.43,6.3-1.3,7.99-1.96l1.48,1.39c-.13,.13-.41,.13-.74-.02-1.93,.36-5.58,.83-8.7,.85l-.04-.25Zm.79,.74c3.39,1.08,2.2,3.46,1.03,2.54-.14-.79-.74-1.82-1.22-2.41l.2-.13Zm1.17,4.23v2.12h2.14v-2.12h-2.14Zm0,4.92h2.14v-2.27h-2.14v2.27Zm1.62-9.62c3.31,.76,2.34,3.13,1.12,2.34-.16-.76-.79-1.67-1.31-2.2l.2-.14Zm1.76,4.7v2.12h2.21v-2.12h-2.21Zm2.21,4.92v-2.27h-2.21v2.27h2.21Zm-1.4-6.36c.49-.86,.99-2.25,1.35-3.57l1.85,.67c-.07,.2-.29,.36-.67,.32-.61,1.04-1.46,2.07-2.27,2.75l-.27-.18Z"/>
        </g>
        <g>
          <path class="cls-10" d="M159.81,11.59h-1.13l-.14-.52h1.28v-2.4l1.46,.61h1.44v-1.73l1.94,.2c-.05,.25-.22,.43-.67,.5v1.03h1.51l.65-.68,1.39,1.06c-.11,.11-.34,.25-.63,.31v1.1h.23l.67-.88s.77,.63,1.24,1.12c-.04,.2-.22,.29-.45,.29h-1.69v1.78c-.02,.13-.65,.4-1.04,.4h-.2v-.4h-1.67v1.17h1.78l.63-.63,1.33,.99c-.09,.11-.31,.23-.58,.29v2.05c-.02,.13-.63,.4-1.03,.4h-.22v-.5h-5.15v.23c0,.09-.41,.4-1.03,.4h-.2v-3.82l1.42,.59h1.75v-1.17h-1.67v.09c0,.09-.4,.4-1.01,.4h-.22v-2.27Zm8.44,7.4c-.65,.09-1.37,.18-2.2,.27-.22,.76-.56,1.48-1.15,2.11,2.75,.9,2.07,2.38,.99,2.07-.5-.36-1.28-.76-2.14-1.1-1.1,.72-2.65,1.31-4.88,1.73l-.13-.27c1.87-.47,3.21-1.08,4.16-1.78-1.06-.4-2.18-.74-3.04-.94,.2-.31,.41-.74,.65-1.24l-.85,.09c-.13,.22-.32,.32-.49,.36l-.49-1.5c.56,.02,1.37,.02,2.3,0,.29-.63,.52-1.21,.63-1.58l1.89,.36c-.05,.23-.2,.4-.74,.41-.11,.23-.23,.5-.38,.77l2.54-.04c.07-.38,.13-.74,.14-1.13l1.85,.45c-.07,.25-.31,.38-.68,.38l-.05,.27,2.03-.04,.02,.34Zm-7.49-2.39h1.94v-1.53h-1.94v1.53Zm.27-5.53h1.67v-1.26h-1.67v1.26Zm1.67,1.76v-1.24h-1.67v1.24h1.67Zm-.76,6.86c-.18,.38-.38,.76-.56,1.12,.95,.05,1.78,.16,2.45,.29,.43-.52,.74-1.08,.92-1.69-.85,.09-1.78,.2-2.81,.29Zm2.03-9.88v1.26h1.67v-1.26h-1.67Zm1.67,1.78h-1.67v1.24h1.67v-1.24Zm-1.67,3.48v1.53h1.93v-1.53h-1.93Zm10.12-3.03c-.32,2.79-.97,5.26-2.21,7.36,.9,1.42,2.03,2.63,3.53,3.53l-.05,.16c-.63,.11-1.08,.41-1.28,1.04-1.24-.99-2.2-2.25-2.9-3.69-1.12,1.46-2.59,2.72-4.61,3.73l-.16-.23c1.93-1.33,3.28-2.92,4.25-4.72-.65-1.66-1.06-3.53-1.31-5.51-.45,.85-.97,1.64-1.55,2.3l-.25-.16c1.01-2.11,1.85-5.24,2.18-8.26l2.12,.47c-.05,.25-.25,.41-.63,.43-.25,1.04-.56,2.07-.9,3.03h2.45l.88-1.17s1.04,.81,1.66,1.4c-.05,.2-.23,.29-.47,.29h-.74Zm-4,0c-.14,.36-.29,.72-.45,1.04,.32,1.82,.83,3.51,1.53,5,.77-1.84,1.17-3.85,1.35-6.05h-2.43Z"/>
          <path class="cls-10" d="M191.35,22.03s1.1,.85,1.75,1.44c-.04,.18-.22,.27-.47,.27h-15.72l-.14-.5h7.36v-1.49h-5.85l-.14-.52h6v-1.35h-3.17v.4c0,.14-.63,.45-1.24,.45h-.2v-5.82l1.55,.67h7.54l.74-.85,1.69,1.26c-.13,.16-.43,.32-.79,.4v3.58c-.02,.11-.77,.41-1.22,.41h-.23v-.5h-3.24v1.35h3.85l.88-1.1s.99,.77,1.6,1.35c-.05,.2-.23,.27-.49,.27h-5.85v1.49h4.88l.92-1.21Zm-14.39-7.63l-.14-.52h13.63l.88-1.12s1.03,.77,1.62,1.35c-.04,.2-.2,.29-.45,.29h-15.54Zm4.16-1.35c0,.13-.65,.45-1.22,.45h-.2V7.92l1.53,.67h7.15l.76-.83,1.64,1.24c-.13,.14-.41,.29-.77,.36v3.57c-.02,.13-.74,.41-1.21,.41h-.23v-.63h-7.44v.34Zm-.16,3.04v1.35h3.17v-1.35h-3.17Zm3.17,3.26v-1.39h-3.17v1.39h3.17Zm-3.01-10.25v1.24h7.44v-1.24h-7.44Zm7.44,3.08v-1.3h-7.44v1.3h7.44Zm-3.01,3.91v1.35h3.24v-1.35h-3.24Zm3.24,3.26v-1.39h-3.24v1.39h3.24Z"/>
        </g>
        <g>
          <path class="cls-10" d="M253.41,22.1c.43,.16,.54,.34,.54,.65,0,.65-.61,.9-3.56,.9h-1.93c-1.58,0-1.93-.31-1.93-1.42v-7.17h-2.32c-.38,4.7-1.89,7.53-7.04,9.11l-.09-.25c4.14-2,5.28-4.68,5.47-8.86h-5.2l-.14-.5h7.51V7.57l2.14,.2c-.04,.25-.22,.43-.65,.5v6.28h4.79l.99-1.26s1.15,.86,1.82,1.48c-.05,.2-.23,.29-.47,.29h-5.33v6.81c0,.32,.09,.43,.74,.43h1.71c.76,0,1.31-.02,1.58-.05,.23-.02,.31-.07,.4-.27,.16-.36,.41-1.62,.68-2.93h.23l.05,3.06Zm-14.33-13.43c4.86,2.41,3.55,5.92,1.98,4.61-.18-1.46-1.28-3.29-2.2-4.48l.22-.13Zm13.59,.86c-.09,.2-.34,.32-.74,.27-1.12,1.46-2.52,2.93-3.76,3.89l-.23-.18c.79-1.17,1.85-3.17,2.63-4.95l2.11,.97Z"/>
          <path class="cls-10" d="M255.28,11.87c3.94,.38,2.97,3.15,1.53,2.29-.23-.77-1.01-1.64-1.69-2.14l.16-.14Zm4.92-1.06c-.65,2.21-1.87,6.37-2.09,7.26-.16,.59-.25,1.19-.23,1.64,.02,.85,.58,1.64,.52,3.15-.04,.81-.45,1.31-1.12,1.31-.36,0-.63-.31-.68-.9,.27-1.84,.16-3.35-.23-3.62-.23-.18-.49-.23-.85-.27v-.38h.76c.22,0,.29-.02,.45-.38q.31-.65,3.15-7.89l.32,.07Zm-3.78-3.1c4.2,.54,3.17,3.42,1.71,2.5-.27-.85-1.13-1.8-1.87-2.34l.16-.16Zm13.83,.16s1.03,.81,1.67,1.4c-.05,.2-.23,.29-.49,.29h-5.13l1.67,.41c-.07,.2-.29,.36-.65,.38-.32,.49-.76,.97-1.17,1.37h2.99l.7-.76,1.53,1.15c-.11,.14-.38,.29-.72,.36v5.17c-.02,.11-.68,.38-1.13,.38h-.22v-.67h-1.76v4.84c0,1.04-.23,1.76-1.93,1.93-.02-.41-.11-.77-.31-.99-.23-.22-.63-.38-1.39-.49v-.27s1.55,.11,1.91,.11c.29,0,.36-.09,.36-.32v-4.81h-1.82v.43c0,.11-.58,.4-1.12,.4h-.2v-7.08l1.4,.61h1.08c.14-.58,.29-1.4,.36-2.16h-4v3.69c0,3.26-.22,7.76-3.19,10.84l-.25-.18c1.85-3.17,2.07-7.09,2.07-10.64v-4.9l1.6,.65h7.18l.92-1.15Zm-4.72,11.49c-.09,.2-.25,.29-.67,.22-.77,1.19-2.14,2.72-3.69,3.69l-.2-.22c1.21-1.26,2.29-3.19,2.75-4.52l1.8,.83Zm-1.15-7.11v2.09h4.93v-2.09h-4.93Zm4.93,4.59v-1.98h-4.93v1.98h4.93Zm-.92,1.94c4.59,1.96,3.53,4.99,2.12,3.94-.29-1.24-1.42-2.84-2.34-3.82l.22-.13Z"/>
        </g>
        <g>
          <path class="cls-10" d="M306.92,11.8c4.12,.41,3.21,3.29,1.73,2.45-.27-.83-1.15-1.76-1.87-2.29l.14-.16Zm5.37-.31c-.77,2.03-2.23,5.89-2.5,6.7-.16,.54-.29,1.1-.27,1.55,0,.83,.59,1.62,.52,3.12-.04,.83-.47,1.31-1.15,1.31-.34,0-.63-.31-.7-.9,.27-1.87,.18-3.35-.23-3.62-.23-.18-.5-.23-.88-.27v-.38h.79c.23,0,.31,0,.5-.36q.36-.61,3.62-7.22l.31,.07Zm-3.96-3.71c4.25,.63,3.21,3.6,1.73,2.66-.25-.9-1.15-1.91-1.89-2.52l.16-.14Zm4.65,7.94l1.94,.22c-.05,.22-.18,.4-.61,.45v1.57c-.02,2.07-.54,4.75-3.55,6.25l-.22-.22c2.11-1.64,2.43-4.09,2.43-6.07v-2.2Zm-1.26-5.49h3.1c.54-.99,1.01-1.98,1.26-2.7l2.16,.88c-.07,.18-.31,.32-.67,.29-.29,.49-.67,.99-1.06,1.53h4.21l.9-1.17s1.04,.81,1.67,1.42c-.05,.2-.23,.29-.47,.29h-6.73c-.88,1.08-1.91,2.21-2.88,3.1,1.58-.07,4.03-.25,6.66-.47-.41-.52-.9-.99-1.33-1.35l.18-.14c4.63,1.28,3.73,4.39,2.25,3.44-.13-.49-.43-1.03-.83-1.55-1.73,.36-4.25,.86-7.13,1.33-.14,.23-.31,.36-.47,.43l-.63-1.64s.34-.09,.5-.22c.65-.63,1.42-1.76,2.11-2.93h-2.66l-.14-.54Zm4.34,5.49l1.93,.2c-.04,.23-.2,.4-.61,.45v6.93c0,.14-.59,.41-1.06,.41h-.25v-8Zm7,6.77c.36,.14,.52,.27,.52,.52,0,.54-.52,.77-2.21,.77h-.92c-1.1,0-1.28-.32-1.28-1.19v-6.9l1.85,.2c-.04,.22-.2,.4-.54,.45v5.91c0,.23,.05,.31,.34,.31h1.37c.09-.02,.2-.02,.27-.02,.11,0,.25-.04,.34-.07h.18l.07,.02Z"/>
          <path class="cls-10" d="M326.83,18.77v1.75c0,.13-.43,.5-1.13,.5h-.23V8.41l1.58,.67h2.68l.72-.85,1.6,1.22c-.13,.16-.41,.31-.77,.38v9.9c-.02,.14-.67,.5-1.15,.5h-.22v-1.48h-3.08Zm0-9.18v4h3.08v-4h-3.08Zm3.08,8.66v-4.14h-3.08v4.14h3.08Zm11.24-9.08c-.11,.14-.4,.29-.76,.36v12.64c0,1.1-.23,1.76-2.27,1.98-.07-.47-.2-.81-.49-1.03-.31-.25-.85-.41-1.84-.56v-.29s2.27,.16,2.72,.16c.38,0,.49-.11,.49-.43v-4.41h-4.52c-.43,2.52-1.64,4.9-4.83,6.57l-.22-.22c3.29-2.5,3.89-5.69,3.89-9.43v-6.43l1.62,.67h3.87l.67-.86,1.66,1.28Zm-2.14,7.89v-3.67h-4.3v1.12c0,.85-.04,1.71-.14,2.56h4.45Zm-4.3-7.8v3.6h4.3v-3.6h-4.3Z"/>
          <path class="cls-10" d="M343.98,11.58h-1.13l-.14-.52h1.28v-2.39l1.46,.61h1.44v-1.73l1.94,.2c-.05,.25-.22,.43-.67,.5v1.03h1.51l.65-.68,1.39,1.06c-.11,.11-.34,.25-.63,.31v1.1h.23l.67-.88s.77,.63,1.24,1.12c-.04,.2-.22,.29-.45,.29h-1.69v1.78c-.02,.13-.65,.4-1.04,.4h-.2v-.4h-1.67v1.17h1.78l.63-.63,1.33,.99c-.09,.11-.31,.23-.58,.29v2.05c-.02,.13-.63,.4-1.03,.4h-.22v-.5h-5.15v.23c0,.09-.41,.4-1.03,.4h-.2v-3.82l1.42,.59h1.75v-1.17h-1.67v.09c0,.09-.4,.4-1.01,.4h-.22v-2.27Zm8.44,7.4c-.65,.09-1.37,.18-2.2,.27-.22,.76-.56,1.48-1.15,2.11,2.75,.9,2.07,2.38,.99,2.07-.5-.36-1.28-.76-2.14-1.1-1.1,.72-2.65,1.31-4.88,1.73l-.13-.27c1.87-.47,3.21-1.08,4.16-1.78-1.06-.4-2.18-.74-3.04-.94,.2-.31,.41-.74,.65-1.24l-.85,.09c-.13,.22-.32,.32-.49,.36l-.49-1.49c.56,.02,1.37,.02,2.3,0,.29-.63,.52-1.21,.63-1.58l1.89,.36c-.05,.23-.2,.4-.74,.41-.11,.23-.23,.5-.38,.77l2.54-.04c.07-.38,.13-.74,.14-1.13l1.85,.45c-.07,.25-.31,.38-.68,.38l-.05,.27,2.03-.04,.02,.34Zm-7.49-2.4h1.94v-1.53h-1.94v1.53Zm.27-5.53h1.67v-1.26h-1.67v1.26Zm1.67,1.76v-1.24h-1.67v1.24h1.67Zm-.76,6.86c-.18,.38-.38,.76-.56,1.12,.95,.05,1.78,.16,2.45,.29,.43-.52,.74-1.08,.92-1.69-.85,.09-1.78,.2-2.81,.29Zm2.03-9.88v1.26h1.67v-1.26h-1.67Zm1.67,1.78h-1.67v1.24h1.67v-1.24Zm-1.67,3.47v1.53h1.93v-1.53h-1.93Zm10.12-3.02c-.32,2.79-.97,5.26-2.21,7.36,.9,1.42,2.03,2.63,3.53,3.53l-.05,.16c-.63,.11-1.08,.41-1.28,1.04-1.24-.99-2.2-2.25-2.9-3.69-1.12,1.46-2.59,2.72-4.61,3.73l-.16-.23c1.93-1.33,3.28-2.92,4.25-4.72-.65-1.66-1.06-3.53-1.31-5.51-.45,.85-.97,1.64-1.55,2.3l-.25-.16c1.01-2.11,1.85-5.24,2.18-8.26l2.12,.47c-.05,.25-.25,.41-.63,.43-.25,1.04-.56,2.07-.9,3.02h2.45l.88-1.17s1.04,.81,1.66,1.4c-.05,.2-.23,.29-.47,.29h-.74Zm-4,0c-.14,.36-.29,.72-.45,1.04,.32,1.82,.83,3.51,1.53,5.01,.77-1.84,1.17-3.85,1.35-6.05h-2.43Z"/>
        </g>
        <line class="cls-1" y1="97.7" x2="365.89" y2="97.7"/>
        <line class="cls-1" y1="227.7" x2="365.89" y2="227.7"/>
        <line class="cls-1" y1="292.7" x2="365.89" y2="292.7"/>
        <line class="cls-1" y1="357.7" x2="365.89" y2="357.7"/>
        <line class="cls-1" y1="422.7" x2="365.89" y2="422.7"/>
      </g>
    </g>
  </g>
</svg>