<?xml version="1.0" encoding="UTF-8"?>
<svg id="_圖層_2" data-name="圖層 2" xmlns="http://www.w3.org/2000/svg" viewBox="0 0 32.71 32.71">
  <defs>
    <style>
      .cls-1 {
        fill: #c1a257;
      }
    </style>
  </defs>
  <g id="_圖層_1-2" data-name="圖層 1">
    <g>
      <path class="cls-1" d="M16.35,8.18c-4.52,0-8.18,3.66-8.18,8.18s3.66,8.18,8.18,8.18,8.18-3.66,8.18-8.18-3.66-8.18-8.18-8.18h0Zm0,15.26c-3.91,0-7.09-3.18-7.09-7.09s3.18-7.09,7.09-7.09,7.09,3.18,7.09,7.09-3.18,7.09-7.09,7.09Z"/>
      <path class="cls-1" d="M15.81,0h1.09V6.55h-1.09V0h0Z"/>
      <path class="cls-1" d="M15.81,26.18h1.09v6.53h-1.09v-6.53h0Z"/>
      <path class="cls-1" d="M0,15.81H6.54v1.09H0v-1.09h0Z"/>
      <path class="cls-1" d="M26.17,15.81h6.54v1.09h-6.54v-1.09h0Z"/>
      <path class="cls-1" d="M27.54,4.37l.77,.77-4.56,4.56-.77-.77,4.56-4.56h0Z"/>
      <path class="cls-1" d="M5.18,28.27l-.77-.77,4.56-4.56,.77,.77-4.56,4.56h0Z"/>
      <path class="cls-1" d="M5.18,4.37l4.56,4.56-.77,.77L4.41,5.14l.77-.77h0Z"/>
      <path class="cls-1" d="M27.54,28.27l-4.56-4.56,.77-.77,4.56,4.56-.77,.77Z"/>
    </g>
  </g>
</svg>