<?xml version="1.0" encoding="UTF-8"?>
<svg id="_圖層_2" data-name="圖層 2" xmlns="http://www.w3.org/2000/svg" viewBox="0 0 27.3 28.62">
  <defs>
    <style>
      .cls-1 {
        fill: #c1a257;
      }
    </style>
  </defs>
  <g id="_圖層_1-2" data-name="圖層 1">
    <path class="cls-1" d="M14.25,28.62C6.38,28.62,0,22.24,0,14.37,0,7.2,5.33,1.15,12.44,.24l1.87-.24-1.23,1.43c-4.34,5.04-3.78,12.65,1.27,16.99,3.06,2.64,7.24,3.56,11.12,2.47l1.82-.5-1.01,1.59c-2.6,4.13-7.15,6.64-12.03,6.63ZM10.83,2.04C4.02,3.93,.03,10.97,1.92,17.78c1.89,6.81,8.94,10.8,15.74,8.91,2.45-.68,4.65-2.08,6.3-4.01-.57,.08-1.14,.11-1.71,.11-7.46,0-13.52-6.04-13.53-13.5,0-2.57,.73-5.09,2.11-7.26Z"/>
  </g>
</svg>