<?xml version="1.0" encoding="UTF-8"?>
<svg id="_圖層_2" data-name="圖層 2" xmlns="http://www.w3.org/2000/svg" viewBox="0 0 209.87 45.9">
  <defs>
    <style>
      .cls-1 {
        fill: #7b5d58;
      }

      .cls-2 {
        fill: #f6dfa4;
      }
    </style>
  </defs>
  <g id="_圖層_1-2" data-name="圖層 1">
    <g>
      <path class="cls-1" d="M192.74,28.88v-2.57l1.84,.16c.33,.05,.51,.14,.51,.3,0,.09-.12,.26-.35,.47v1.63h3.36v1.91h-3.36v.09c.47,.56,.93,.98,1.38,1.31,.56,.42,1.33,.82,2.26,1.24l-1.63,1.73c-.79-.49-1.47-1.05-2.01-1.66v4.57h-2.01v-4.43c-.14,.23-.3,.42-.44,.61-.75,1.03-1.61,1.98-2.57,2.82l-2.01-1.35c1.17-.75,2.19-1.54,3.03-2.4,.56-.51,1.21-1.31,1.98-2.36v-.16h-4.29v-1.91h4.29Zm5.02-9.22v-2.26l1.84,.14c.33,.05,.51,.14,.51,.3,0,.12-.14,.28-.37,.47v1.35h8.4v1.91h-8.12c1.31,.75,2.64,1.35,3.99,1.77,1.28,.42,3.08,.82,5.41,1.24l-2.1,1.91c-1.94-.54-3.45-1.07-4.57-1.63-1.05-.47-2.05-1.03-3.01-1.73v3.36h-1.98v-3.38c-1.12,.75-2.22,1.38-3.29,1.89-1.33,.58-2.92,1.07-4.74,1.49l-1.73-1.73c2.24-.42,4.18-.96,5.83-1.56,1.03-.37,2.15-.91,3.31-1.63h-7.7v-1.91h8.31Zm5.18,9.22v-2.57l1.84,.16c.35,.05,.54,.14,.54,.3,0,.09-.14,.26-.37,.47v1.63h4.11v1.91h-4.11v.12c.7,1.14,1.38,2.03,2.03,2.68,.72,.7,1.68,1.4,2.89,2.12l-1.63,1.73c-1.1-.84-2.01-1.75-2.75-2.75-.19-.23-.37-.47-.54-.75v4.04h-2.01v-4.76c-.33,.47-.63,.86-.93,1.24-.89,1.12-1.87,2.15-2.99,3.08l-2.01-1.38c1.33-.79,2.47-1.68,3.43-2.61,.65-.61,1.42-1.54,2.36-2.75h-3.5v-1.91h3.64Z"/>
      <g>
        <polygon class="cls-2" points="44.36 .77 44.36 0 32.66 0 23.01 27.32 22.9 27.32 13.41 0 1.32 0 1.32 .77 4.36 .77 5.23 .77 5.34 .77 18.89 39.06 19.77 39.06 33.27 .77 33.38 .77 33.38 38.29 30.39 38.29 30.39 39.06 44.36 39.06 44.36 38.29 41.33 38.29 41.33 .77 44.36 .77"/>
        <circle class="cls-2" cx="4.87" cy="34.87" r="4.87"/>
      </g>
      <g>
        <path class="cls-1" d="M57.61,17.31c6.29,0,10.26,4.68,10.26,9.98,0,7.11-5.17,10.68-10.44,10.68-6.74,0-10.57-5.03-10.57-10.2,0-6.75,5.62-10.46,10.75-10.46Zm-.54,1.77c-1.92,0-3.79,1.99-3.79,7.42s1.83,9.67,4.64,9.67c1.7,0,3.52-1.15,3.52-7.59s-1.61-9.49-4.37-9.49Z"/>
        <path class="cls-1" d="M82.37,37.44h-11.78v-1.5c2.36-.26,2.59-.49,2.59-3.13v-9.67c0-2.21-.18-2.43-2.28-2.87v-1.37c2.77-.31,5.26-.84,8.03-1.68v4.77c2.01-3.05,3.61-4.68,5.44-4.68,1.65,0,2.9,1.1,2.9,2.65,0,2.16-1.56,3.4-2.27,3.75-.62,.26-1.07,.04-1.38-.22-.76-.62-1.34-1.32-2.1-1.32-.67,0-1.78,.57-2.59,2.25v8.39c0,2.65,.31,2.78,3.43,3.13v1.5Z"/>
        <path class="cls-1" d="M89.47,37.44v-1.5c2.41-.31,2.68-.49,2.68-3.62v-8.61c0-2.96-.22-3.13-2.32-3.4v-1.46c2.81-.31,5.62-.88,8.07-1.59v15.05c0,3,.18,3.31,2.77,3.62v1.5h-11.2Zm5.22-22.87c-1.7,0-3.21-1.41-3.21-3.13,0-1.81,1.52-3.13,3.26-3.13s3.21,1.32,3.21,3.13-1.43,3.13-3.26,3.13Z"/>
        <path class="cls-1" d="M133.01,33.46c-1.96,2.56-4.95,4.5-7.63,4.5-5.67,0-9.01-4.55-9.01-9.27,0-3.49,1.52-6.4,4.51-8.65,2.36-1.81,5.04-2.52,6.78-2.52,2.01,0,3.48,.62,4.15,1.19,.62,.49,.71,.79,.71,1.28,0,1.06-1.12,1.99-1.61,1.99-.22,0-.4-.09-.85-.44-1.38-1.24-2.9-1.85-4.51-1.85-2.94,0-5.53,2.47-5.53,7.06-.04,6.14,4.19,8.17,6.78,8.17,1.87,0,3.39-.49,5.44-2.43l.76,.97Z"/>
        <path class="cls-1" d="M149.56,37.97c-.67,0-1.65-.35-2.1-.84-.58-.57-.85-1.19-1.07-1.99-1.78,1.19-3.97,2.83-5.35,2.83-3.17,0-5.44-2.6-5.44-5.43,0-2.16,1.2-3.58,3.66-4.41,2.72-.93,6.07-2.07,7.05-2.87v-.88c0-3.13-1.61-4.94-3.93-4.94-1.03,0-1.65,.49-2.1,1.02-.49,.62-.8,1.59-1.2,2.87-.22,.71-.62,1.02-1.29,1.02-.85,0-1.96-.88-1.96-1.94,0-.62,.58-1.15,1.47-1.77,1.29-.93,3.88-2.56,6.42-3.09,1.34,0,2.72,.4,3.75,1.19,1.56,1.32,2.27,2.83,2.27,5.12v8.52c0,2.03,.76,2.65,1.56,2.65,.54,0,1.12-.22,1.61-.49l.45,1.24-3.79,2.21Zm-3.26-11.17c-.98,.49-3.12,1.41-4.15,1.85-1.7,.75-2.72,1.59-2.72,3.22,0,2.34,1.78,3.4,3.21,3.4,1.16,0,2.77-.71,3.66-1.59v-6.89Z"/>
        <path class="cls-1" d="M157.91,18.06v-1.19c0-3.18,1.12-6.45,3.93-8.83,1.56-1.37,3.26-2.12,5-2.34,1.52,.04,2.9,.57,3.61,1.41,.4,.49,.49,.93,.27,1.54-.13,.44-.62,1.06-1.07,1.41-.49,.31-.85,.22-1.29-.09-.89-.79-2.14-1.81-3.61-1.81-3.3,0-3.3,4.46-3.3,7.81v2.07h4.73c.27,.4,.04,1.5-.45,1.81h-4.28v12.76c0,3.18,.49,3.22,3.84,3.58v1.24h-10.48v-1.24c2.81-.26,3.12-.44,3.12-3.31v-13.02h-3.17l-.18-.49,.98-1.32h2.36Z"/>
        <path class="cls-1" d="M184.05,33.69c-2.85,3.53-5.98,4.28-7.4,4.28-5.44,0-8.74-4.41-8.74-9.49,0-3,1.07-5.78,2.9-7.73,1.87-2.07,4.33-3.22,6.65-3.22,3.88,0,6.83,3.31,6.83,6.84-.04,.88-.18,1.28-.89,1.46-.89,.18-6.6,.57-11.91,.75-.13,5.92,3.52,8.34,6.69,8.34,1.83,0,3.52-.75,5.17-2.25l.71,1.02Zm-7.67-14.48c-2.05,0-4.06,1.9-4.68,5.47,2.5,0,5,0,7.63-.13,.8,0,1.07-.22,1.07-.88,.04-2.34-1.52-4.46-4.01-4.46Z"/>
      </g>
      <rect class="cls-1" x="85.32" y="22.78" width="63.95" height=".59" transform="translate(18.04 89.7) rotate(-45)"/>
    </g>
  </g>
</svg>