<?xml version="1.0" encoding="UTF-8"?>
<svg id="_圖層_2" data-name="圖層 2" xmlns="http://www.w3.org/2000/svg" viewBox="0 0 511.51 373.28">
  <defs>
    <style>
      .cls-1 {
        fill: #333;
      }
    </style>
  </defs>
  <g id="_圖層_1-2" data-name="圖層 1">
    <g>
      <g>
        <path class="cls-1" d="M7.66,56.14l-.58,.74c-.58-.72-1.34-1.46-2.27-2.23v4.54h-.9v-4.25c-.75,1.09-1.61,2.04-2.58,2.85l-.53-.7c1.1-.88,2.14-2.12,3.12-3.71H.93v-.86H3.92v-1.28H1.36v-.81H3.92v-1.42l-2.33,.24-.3-.81c1.07-.06,1.95-.16,2.63-.27v-1.22h.9v1.08c.57-.09,1.23-.23,1.96-.43l.4,.74c-.74,.25-1.52,.42-2.36,.54v1.56h2.21v.81h-2.21v1.28h2.56v.86h-2.56v.22c1.08,.82,2.03,1.67,2.85,2.55Zm.52-10.58h-2.09v.98h-.9v-.98H.91v-.81H5.19v-1.34h.9v1.34h2.09v.81Zm8.24,6.14H7.66v-.82h2.08v-1.78h-1.94v-.83h1.94v-1.38h.92v1.38h2.68v-1.38h.91v1.38h1.78v.83h-1.78v1.78h2.16v.82Zm-.98,7.49h-.9v-.92h-5.13v.92h-.9v-6.3h6.93v6.3Zm.98-13.63h-4.19v.98h-.96v-.98h-2.23v-.81h2.23v-1.34h.96v1.34h4.19v.81Zm-1.87,9.56v-1.41h-5.13v1.41h5.13Zm0,2.32v-1.44h-5.13v1.44h5.13Zm-1.2-6.56v-1.78h-2.68v1.78h2.68Z"/>
        <path class="cls-1" d="M35.45,59.17h-.94v-1.27h-12.08v1.26h-.97v-12.94h6.53v-2.79h.94v2.79h6.51v12.96Zm-7.45-7.68v-4.3h-5.56v4.3h5.56Zm0,5.41v-4.44h-5.56v4.44h5.56Zm6.5-5.41v-4.3h-5.55v4.3h5.55Zm0,5.41v-4.44h-5.55v4.44h5.55Z"/>
        <path class="cls-1" d="M46.68,47.45c-.61,4.31-2.51,7.71-5.7,10.19l-.67-.76c2.84-2.23,4.59-5.05,5.24-8.47h-4.55v-.96h5.69Zm9.47,9.25l-.64,.84c-2.91-1.85-5.1-4.26-6.59-7.23v7.51c0,.4-.07,.7-.22,.9s-.34,.31-.56,.36-.7,.07-1.44,.07c-.6,0-1.05-.01-1.36-.04l-.32-.97c1.21,.04,2.04,.05,2.48,.05,.31,0,.47-.16,.47-.47v-14.39h.96v3.89c0,.87,.3,1.8,.9,2.77,2.01-1.54,3.55-3.01,4.63-4.41l.77,.63c-1.25,1.56-2.9,3.1-4.93,4.62,1.07,2.12,3.02,4.07,5.86,5.85Z"/>
        <path class="cls-1" d="M75.84,53.34h-7.35v5.91h-.97v-5.91h-7.37v-.96h7.37v-7.56h-6.92v-.95h14.82v.95h-6.93v7.56h7.35v.96Zm-10.87-2.65l-.88,.45c-.36-1.14-1.11-2.55-2.27-4.23l.77-.43c1.1,1.42,1.89,2.82,2.37,4.21Zm9.4-3.85c-.54,1.49-1.39,2.9-2.54,4.23l-.9-.48c1.11-1.22,1.96-2.59,2.56-4.1l.88,.36Z"/>
        <path class="cls-1" d="M95.73,58.47l-.61,.81c-2.11-1.08-3.7-2.25-4.77-3.49s-1.91-2.86-2.5-4.84c-.76,3.39-3.17,6.18-7.23,8.35l-.72-.77c4.12-2.02,6.5-4.81,7.13-8.38h-6.64v-.91h6.79c.16-1.15,.27-2.63,.34-4.45h-6.24v-.93h13.17v.93h-5.99c-.04,1.74-.13,3.22-.27,4.45h7.11v.91h-6.64c.46,1.96,1.24,3.59,2.34,4.88s2.68,2.44,4.75,3.44Z"/>
        <path class="cls-1" d="M103.24,49.06c1.01,1.29,1.52,2.55,1.52,3.8,0,.66-.2,1.18-.61,1.56s-.93,.57-1.56,.57c-.12,0-.24,0-.37-.02l-.36-.9c.8,.04,1.33-.04,1.59-.25s.39-.52,.39-.93c0-1.24-.54-2.47-1.61-3.7,.43-1.3,.87-2.8,1.31-4.5h-2.2v14.45h-.91v-15.31h4.12v.86c-.47,1.66-.91,3.12-1.32,4.36Zm5.42,6.03c-1.02,1.21-2.19,2.29-3.52,3.25l-.65-.72c1.12-.73,2.29-1.78,3.49-3.15l.69,.62Zm-3.69-5.91l-.27-.77c.84-.21,1.56-.47,2.14-.77l.31,.79c-.26,.13-.98,.38-2.18,.76Zm5.49-4.23c-.59,2.88-2.33,5.02-5.22,6.44l-.45-.76c1.52-.76,2.65-1.64,3.4-2.66-.43-.47-1.03-.96-1.82-1.46-.27,.31-.56,.61-.86,.9l-.69-.59c1.25-1.18,2.09-2.33,2.5-3.45l.77,.33-.3,.74,2.66,.51Zm4.45,8.42h-4.17v5.79h-.9v-5.79h-4.43v-.88h9.49v.88Zm-5.53-7.73l-2.06-.4c-.17,.28-.3,.48-.4,.6,.67,.45,1.25,.9,1.73,1.37,.32-.61,.56-1.13,.72-1.57Zm3.09,5.22h-4.41v-.88h4.41v.88Zm3.08-.19l-.54,.72c-2.3-1.58-3.71-3.32-4.23-5.22l.76-.24c.23,.66,.54,1.26,.93,1.8,.7-.74,1.27-1.66,1.71-2.77h-3.14v-.85h4.03v.87c-.39,1.16-1.08,2.31-2.09,3.45,.65,.77,1.5,1.51,2.56,2.23Zm-.11,7.23l-.74,.53c-.66-1.16-1.51-2.29-2.58-3.38l.76-.53c.91,.91,1.76,2.04,2.56,3.38Z"/>
        <path class="cls-1" d="M121.57,54.78c-.22,1.52-.6,3.01-1.16,4.46l-.86-.46c.47-1.08,.85-2.44,1.13-4.08l.89,.07Zm4.44-8.1c-1.02,1.92-2.59,4.02-4.71,6.3,.96-.12,1.93-.35,2.92-.67-.12-.36-.28-.74-.47-1.13l.87-.19c.4,.79,.75,1.69,1.04,2.7l-.86,.34c-.05-.23-.14-.54-.27-.92-1.39,.48-2.94,.81-4.62,.98l-.21-.72c1.29-1.28,2.49-2.66,3.61-4.14-1.25,.22-2.3,.35-3.13,.4l-.05-.74c1.5-1.82,2.58-3.64,3.23-5.46l.92,.34c-.67,1.66-1.59,3.25-2.76,4.79,.86-.04,1.69-.17,2.5-.38,.48-.73,.85-1.34,1.1-1.85l.9,.36Zm-2.1,11.92l-.98,.24c-.01-1.34-.15-2.69-.41-4.05l.88-.09c.28,1.29,.45,2.59,.51,3.9Zm2.16-2.11l-.83,.2c-.21-.77-.48-1.46-.83-2.09l.88-.14c.35,.69,.61,1.36,.78,2.03Zm3.2-4.26c-.16,2.69-1.34,4.82-3.54,6.39l-.6-.76c1.8-1.18,2.84-2.77,3.13-4.77h-2.14v-.86h3.15Zm6.16,5.48l-.67,.71c-1.56-.98-2.81-2.28-3.76-3.9v3.33c0,.38-.12,.7-.35,.96s-.8,.39-1.71,.39c-.31,0-.59-.01-.83-.04l-.31-.9c.26,.02,.6,.03,1.04,.03,.53,0,.86-.04,.99-.12s.2-.22,.2-.41v-7.04h-3.49v-5.6h2.41c.35-.49,.68-1.09,.99-1.8l.9,.4c-.25,.53-.52,1-.83,1.41h4.31v5.6h-3.33v2.05c.09,.26,.27,.59,.52,1.01,.81-.6,1.55-1.34,2.21-2.21l.63,.72c-.67,.79-1.45,1.54-2.35,2.25,.88,1.23,2.02,2.29,3.41,3.17Zm-2.06-10.23v-1.51h-5.89v1.51h5.89Zm0,2.4v-1.53h-5.89v1.53h5.89Z"/>
        <path class="cls-1" d="M154.97,54.87c-.05,1.85-.27,2.98-.66,3.39s-.88,.62-1.47,.62h-2.9c-.45,0-.8-.15-1.05-.44s-.38-.68-.38-1.14v-6.16h-3.08c-.04,1.83-.45,3.42-1.23,4.76s-2.18,2.46-4.2,3.36l-.7-.85c3.49-1.28,5.2-3.7,5.13-7.27h-4.9v-.98h7.11v-6.79h.97v6.79h7.2v.98h-5.33v6.16c0,.18,.06,.33,.18,.45s.26,.19,.44,.19h2.7c.47,0,.79-.25,.95-.74s.25-1.37,.25-2.62l.98,.29Zm-10.68-6.25l-.83,.54c-.58-1.34-1.4-2.7-2.46-4.09l.79-.58c1.27,1.8,2.1,3.17,2.5,4.12Zm8.96-3.85c-.84,1.82-1.68,3.26-2.51,4.34l-.82-.54c1.02-1.32,1.83-2.72,2.42-4.19l.91,.4Z"/>
        <path class="cls-1" d="M174.81,46.05h-3.11v1.43c0,.12,.05,.23,.15,.33s.21,.15,.34,.15h2.25v.86h-2.3c-.9,0-1.35-.41-1.35-1.24v-1.53h-1.85v2.87h-4.32v-2.87h-1.82c-.13,1.62-.96,2.84-2.49,3.67l-.74-.69c1.43-.76,2.18-1.75,2.25-2.98h-2.66v-.92h2.78l.05-1.71h.88c.02,.52,0,1.09-.04,1.71h1.78v-1.69h.93v1.69h2.45v-1.69h.93v1.69h1.85v-1.71h.92v1.71h3.11v.92Zm-.7,7.75h-.9v-2.8h-5.73v2h4.88v3.95c0,.45-.13,.79-.38,1.03s-1.17,.35-2.75,.35l-.33-.97c1.41,0,2.18-.02,2.33-.06s.22-.16,.22-.35v-3.03h-3.98v5.2h-.91v-5.2h-4v4.41h-.91v-5.33h4.91v-2h-5.7v2.8h-.96v-3.71h14.2v3.71Zm-6.12-5.77v-1.98h-2.45v1.98h2.45Z"/>
        <path class="cls-1" d="M194.59,55.03h-15.63v-.91h1.35l-.07-9.36c.95-.19,2.14-.62,3.58-1.31l.45,.81c-.96,.46-2,.86-3.11,1.2-.02,.79-.02,1.47,0,2.07h2.73v.89h-2.72c.02,.8,.02,1.59,0,2.36h2.59v.92h-2.56v2.43h11.13c.04-1.4,.05-2.22,.05-2.45h-2.47v-.9h2.49c.01-.38,.02-1.17,.02-2.36h-2.49v-.91h2.49c.04-.49,.05-1.01,.05-1.55,0-.3,0-.57-.02-.83h-2.44v-.88h3.4c-.07,4.74-.13,8.03-.18,9.86h1.35v.91Zm-9.62,1.42c-1.55,1.15-3.25,2.06-5.11,2.72l-.67-.79c2-.63,3.68-1.46,5.02-2.5l.76,.57Zm.99-7.06c-.27,1.82-.79,3.25-1.55,4.31l-.77-.6c.76-.93,1.24-2.24,1.46-3.92l.86,.21Zm3.18-3.9h-3.09c-.1,.71-.2,1.35-.29,1.91h3.28c-.08,3.21-.26,5.05-.54,5.54s-.77,.73-1.47,.73c-.38,0-.63,0-.76-.02l-.31-.92c.42,.02,.75,.04,.99,.04,.48,0,.78-.19,.89-.56s.21-1.68,.29-3.92h-3.48c.2-1.03,.46-2.69,.77-4.97l.87,.09c-.04,.39-.09,.8-.15,1.23h2.99v.86Zm5.24,12.88l-.68,.65c-1.48-.97-3.12-1.81-4.94-2.54l.65-.68c2.14,.91,3.8,1.77,4.97,2.57Z"/>
        <path class="cls-1" d="M200.5,54.97c-.21,1.69-.52,3.07-.94,4.12l-.83-.38c.43-1.14,.74-2.47,.91-3.99l.86,.25Zm3.71-1.34l-.83,.31c-.1-.45-.2-.79-.31-1.03-1.44,.59-2.79,1.03-4.03,1.34l-.27-.84c1-1,2-2.47,3.01-4.43-.9,.21-1.77,.39-2.61,.53l-.21-.79c1.01-1.39,1.79-3.21,2.34-5.46l.86,.29c-.54,1.95-1.25,3.59-2.12,4.91,.54-.05,1.29-.2,2.23-.47,.39-.83,.7-1.58,.93-2.23l.86,.31c-1.22,3.04-2.55,5.37-3.99,7,.82-.21,1.73-.53,2.72-.97-.11-.37-.25-.72-.43-1.06l.77-.33c.39,.77,.75,1.74,1.08,2.92Zm-1.49,4.68l-.89,.2c0-1.21-.18-2.44-.55-3.69l.84-.2c.36,1.31,.56,2.54,.6,3.69Zm2.01-.48l-.86,.33c-.06-1.03-.35-2.21-.87-3.55l.82-.26c.47,1.16,.78,2.32,.91,3.49Zm3.13-14.2c-.91,1.79-1.96,3.23-3.16,4.34l-.52-.76c1.12-1.04,2.07-2.35,2.86-3.93l.83,.34Zm-.57,5.24c-.18,.46-.43,.96-.74,1.49v8.8h-.88v-7.41c-.29,.38-.59,.72-.91,1.04l-.55-.76c1.03-1.14,1.79-2.33,2.3-3.59l.77,.43Zm7.32,9.11l-.3,.94c-1.74,0-2.99-.29-3.76-.84s-1.32-1.41-1.66-2.58c-.35,1.59-.79,2.8-1.33,3.63l-.62-.7c.97-1.79,1.49-4.52,1.56-8.18h.89c0,.52-.04,1.24-.11,2.16l-.11,1.17c0,.25,.12,.76,.37,1.52s.66,1.45,1.23,2.07v-7.66h.89v2.61h2.41v.88h-2.41v4.72c.68,.19,1.42,.29,2.21,.29,.24,0,.48,0,.73-.03Zm-3.9-11.43l-.54,.74c-.21-.29-.46-.61-.76-.94-.43,.91-.87,1.65-1.3,2.21l-.72-.52c.97-1.35,1.64-2.93,2-4.74l.83,.25c-.12,.67-.28,1.31-.49,1.91,.44,.42,.76,.78,.98,1.08Zm3.88,1.58l-.57,.74c-.61-.87-1.22-1.62-1.84-2.23-.39,.86-.83,1.59-1.32,2.21l-.69-.52c1.01-1.44,1.7-3.12,2.08-5.04l.83,.25c-.15,.8-.34,1.55-.59,2.25,.85,.77,1.55,1.55,2.1,2.34Z"/>
        <path class="cls-1" d="M233.42,57.7c0,.98-.5,1.47-1.49,1.47h-2.5l-.34-.93h2.99c.09,0,.19-.05,.28-.14s.14-.18,.14-.28v-11.07h-12.11v12.46h-.93v-13.39h3.49c.65-.84,1.15-1.67,1.51-2.49l.95,.2c-.33,.76-.79,1.52-1.36,2.29h9.4v11.88Zm-3.66-1.99h-6.73v-6.41h6.73v6.41Zm-.95-.91v-4.55h-4.83v4.55h4.83Z"/>
        <path class="cls-1" d="M244.32,47.47h-2.34v3.6l1.72-.7,.22,.91c-.83,.36-1.47,.63-1.94,.8v5.54c0,.59-.13,.99-.38,1.2s-.81,.32-1.67,.32c-.31,0-.59-.01-.85-.04l-.34-.95c.83,.04,1.42,.05,1.75,.05,.15,0,.28-.06,.4-.18s.18-.26,.18-.42v-5.16c-.66,.29-1.49,.59-2.5,.91l-.29-.91c1.08-.33,2.01-.67,2.79-.99v-3.98h-2.61v-.91h2.61v-3.11h.92v3.11h2.34v.91Zm9.92,10.85l-.56,.91c-1.88-.66-3.4-1.43-4.57-2.31-1.31,.91-3.11,1.69-5.38,2.33l-.54-.85c2.31-.61,4.03-1.31,5.15-2.1-1.45-1.37-2.41-2.82-2.88-4.34h-.59v-.97h7.87c-.15,2.03-1.09,3.8-2.81,5.33,1.12,.76,2.56,1.43,4.32,2.01Zm-.31-8.42h-1.8c-.94,0-1.41-.45-1.41-1.35v-3.8h-3.58c-.07,2.46-.81,4.3-2.21,5.53l-.76-.67c.63-.47,1.12-1.14,1.49-2s.54-2.12,.54-3.77h5.48v4.71c0,.06,.04,.14,.13,.24s.16,.14,.23,.14h1.89v.98Zm-2.36,2.05h-5.07c.55,1.54,1.44,2.79,2.66,3.74,1.27-1.04,2.07-2.29,2.41-3.74Z"/>
        <path class="cls-1" d="M273.77,54.87c-.05,1.85-.27,2.98-.66,3.39s-.88,.62-1.47,.62h-2.9c-.45,0-.8-.15-1.05-.44s-.38-.68-.38-1.14v-6.16h-3.08c-.04,1.83-.45,3.42-1.23,4.76s-2.18,2.46-4.2,3.36l-.7-.85c3.49-1.28,5.2-3.7,5.13-7.27h-4.9v-.98h7.11v-6.79h.97v6.79h7.2v.98h-5.33v6.16c0,.18,.06,.33,.18,.45s.26,.19,.44,.19h2.7c.47,0,.79-.25,.95-.74s.25-1.37,.25-2.62l.98,.29Zm-10.68-6.25l-.83,.54c-.58-1.34-1.4-2.7-2.46-4.09l.79-.58c1.27,1.8,2.1,3.17,2.5,4.12Zm8.96-3.85c-.84,1.82-1.68,3.26-2.51,4.34l-.82-.54c1.02-1.32,1.83-2.72,2.42-4.19l.91,.4Z"/>
        <path class="cls-1" d="M279.85,51.23l-.77,.46c-.21-1.55-.59-3.05-1.15-4.5l.83-.36c.52,1.38,.89,2.84,1.1,4.4Zm3.62,5.22l-.62,.76c-.59-.88-1.25-1.67-1.98-2.37-.47,1.65-1.21,3.09-2.2,4.33l-.63-.64c.79-.96,1.38-2.11,1.79-3.48s.61-3.36,.61-5.99v-5.58h.91v4.95c.47-.47,.97-1.08,1.48-1.8l.58,.74c-.53,.73-1.22,1.46-2.09,2.2,.02,1.48-.06,2.89-.25,4.25,.94,.84,1.74,1.72,2.39,2.65Zm4.41-11.75c0,.22-.36,.95-1.08,2.2s-1.83,2.44-3.33,3.58l-.63-.64c1.03-.77,1.84-1.52,2.43-2.27-.45-.35-1.08-.76-1.89-1.23l.45-.69c.75,.45,1.38,.88,1.89,1.28,.52-.69,.92-1.44,1.19-2.23h-3.33v-.84h4.31v.84Zm5.58,14.02h-9.96v-.91h2.9c-.3-.93-.64-1.78-1.01-2.58l.54-.4h-1.34v-3.85h7.38v3.85h-1.16l.42,.34c-.25,.8-.64,1.68-1.15,2.63h3.38v.91Zm-2.43-4.81v-2.05h-5.53v2.05h5.53Zm-.43-4.33h-4.72v-.88h4.72v.88Zm-.22,5.26h-4.19c.45,1,.82,1.99,1.12,2.97h1.84c.56-1.07,.97-2.06,1.24-2.97Zm3.33-5.04l-.57,.72c-2.34-1.61-3.95-3.87-4.83-6.79l.81-.26c.09,.36,.3,.9,.62,1.62,.55-.43,1.05-.88,1.51-1.37l.61,.54c-.64,.64-1.23,1.15-1.78,1.55,.2,.42,.41,.78,.62,1.06,.63-.4,1.28-.96,1.94-1.68l.62,.56c-.64,.67-1.34,1.26-2.07,1.76,.64,.81,1.48,1.58,2.52,2.29Z"/>
        <path class="cls-1" d="M303.47,55.26c-1.35,1.14-3.06,2.08-5.12,2.81l-.6-.8c2.33-.86,3.99-1.74,4.97-2.63l.76,.62Zm9.51-1.39l-.81,.54c-.28-.42-.63-.89-1.06-1.41-2.33,.25-3.95,.41-4.84,.48v4.56c0,.26-.09,.49-.26,.67s-.37,.3-.59,.34-.62,.07-1.2,.07c-.33,0-.63,0-.91-.03l-.4-.95c.33,.02,.68,.03,1.05,.03,.62,0,.99-.01,1.13-.04s.21-.17,.21-.41v-4.14c-2.64,.16-4.62,.27-5.96,.32l-.28-.79c2.2-.8,4.36-1.76,6.48-2.89-2.08,.12-3.93,.21-5.56,.25l-.24-.66c2.72-.99,4.89-2.23,6.52-3.73l.9,.52c-1.24,1.08-2.74,2.04-4.48,2.9,.59-.02,1.15-.05,1.68-.07s1.06-.06,1.58-.1c.99-.08,1.54-.16,1.64-.22,.77-.49,1.52-1.01,2.24-1.57l.83,.58c-1.93,1.48-4.82,3.08-8.68,4.81,2.91-.11,5.72-.33,8.43-.69-.28-.32-.73-.75-1.37-1.31l.81-.54c1.35,1.22,2.4,2.38,3.16,3.49Zm-5.49-10.04c-1.68,1.52-4.2,2.72-7.56,3.59l-.72-.83c3.35-.73,5.84-1.83,7.47-3.3l.81,.53Zm5.94,13.5l-.62,.77c-1.29-1.07-2.81-2.01-4.54-2.81l.62-.76c1.72,.82,3.23,1.75,4.54,2.79Z"/>
        <path class="cls-1" d="M319.52,54.87c-.31,1.89-.67,3.3-1.09,4.23l-.85-.31c.49-1.19,.85-2.57,1.06-4.14l.88,.22Zm4.34-1.12l-.83,.29c-.09-.41-.18-.76-.29-1.05-1.57,.5-3.16,.91-4.75,1.24l-.26-.83c1.27-1.29,2.45-2.77,3.54-4.45-.95,.2-2.01,.38-3.18,.53l-.24-.85c1.37-1.78,2.36-3.54,2.97-5.29l.84,.31c-.52,1.53-1.4,3.14-2.63,4.83,.95-.11,1.89-.28,2.83-.52,.21-.32,.45-.77,.72-1.35l.83,.36c-.94,1.96-2.31,3.98-4.12,6.06,.71-.12,1.77-.42,3.16-.9-.12-.35-.27-.72-.45-1.12l.81-.34c.56,1.33,.91,2.36,1.05,3.08Zm-2.13,4.59l-.91,.18c-.04-1.32-.23-2.55-.58-3.67l.91-.14c.37,1.68,.57,2.89,.59,3.63Zm2.06-1.42l-.84,.27c-.15-.8-.39-1.66-.72-2.56l.83-.25c.3,.76,.54,1.61,.74,2.53Zm9.41-10.58h-5.51c-.81,1.68-1.61,3.03-2.41,4.05,1.77-.08,3.65-.28,5.63-.6-.42-.61-.87-1.17-1.34-1.67l.79-.5c1.14,1.35,2.02,2.61,2.65,3.76l-.76,.55c-.25-.49-.53-.94-.83-1.34l-1.67,.26v6.71c0,.26,.14,.4,.41,.4h1.27c.17,0,.31-.05,.41-.16s.19-.47,.27-1.1,.12-1.34,.13-2.13l.91,.33c-.03,1.35-.12,2.28-.27,2.77s-.38,.82-.67,.97-.79,.23-1.5,.23-1.2-.08-1.47-.25-.4-.49-.4-.97v-6.69c-1,.12-1.61,.18-1.85,.18,0,3.62-1.12,6.28-3.35,8.01l-.62-.64c.98-.79,1.73-1.73,2.25-2.83s.79-2.59,.8-4.44c-.3,.05-.96,.08-1.98,.11l-.2-.82c.93-.9,1.86-2.29,2.79-4.19h-3.05v-.88h3.46c.21-.46,.49-1.17,.84-2.13l.88,.27c-.3,.83-.56,1.45-.76,1.85h5.12v.88Z"/>
        <path class="cls-1" d="M344.95,52.94c-.43-.23-.65-.52-.65-.87,0-.17,.07-.34,.22-.52s.35-.27,.62-.27c.56,0,.84,.37,.84,1.11,0,.6-.35,1.19-1.06,1.75l-.38-.29c.27-.36,.4-.66,.4-.91Z"/>
        <path class="cls-1" d="M372.32,51.69h-.96v-1.64h-12.71v1.62h-.9v-2.46h14.56v2.49Zm-12.3-5.56l-.79,.43c-.45-.8-.91-1.46-1.39-2l.76-.51c.66,.82,1.14,1.51,1.42,2.07Zm4.69-1.49c-.8,.53-1.8,1.02-2.99,1.48l-.11,.38c1.25,.6,2.21,1.1,2.9,1.51l-.53,.77c-.53-.37-1.45-.89-2.77-1.56-.76,.82-1.66,1.37-2.72,1.65l-.54-.76c.84-.21,1.52-.52,2.04-.93s.83-.92,.95-1.53,.18-1.35,.18-2.22h.88c-.02,.75-.05,1.3-.09,1.66,.65-.23,1.39-.6,2.23-1.12l.55,.67Zm6.85,14.52h-.94v-.68h-11.21v.66h-.91v-3.97h5.34c.25-.47,.42-.87,.52-1.2h-4.39v-2.83h10.12v2.83h-4.68c-.21,.49-.39,.89-.54,1.2h6.7v3.99Zm-.94-1.53v-1.58h-11.21v1.58h11.21Zm-1.48-4.52v-1.12h-8.24v1.12h8.24Zm3.14-5.02l-.49,.81c-1.18-.71-2.26-1.25-3.25-1.62-.74,.69-1.78,1.21-3.1,1.56l-.52-.79c1.44-.35,2.42-.81,2.92-1.38s.74-1.65,.7-3.25h.9c0,.43-.03,1-.09,1.7,.9-.39,1.67-.82,2.32-1.31l.55,.68c-.79,.56-1.8,1.09-3.04,1.59-.04,.16-.1,.33-.18,.48,.99,.38,2.08,.89,3.28,1.53Zm-4.88-2.11l-.82,.38c-.23-.51-.65-1.16-1.24-1.94l.74-.45c.55,.63,.99,1.3,1.32,2.01Z"/>
        <path class="cls-1" d="M392.77,57.89l-.18,.92c-.6,.01-2.76,.02-6.46,.02-3.05,0-5.22-.66-6.5-1.99-.72,1.01-1.42,1.8-2.08,2.38l-.7-.63c1.68-1.37,2.84-3.28,3.51-5.76h-3.02v-.83c.83-1,1.76-2.22,2.79-3.68h-3.14v-.94h4.34v.94c-.52,.74-1.42,1.95-2.7,3.63h2.72v.89c-.32,1.18-.74,2.27-1.28,3.25,.62,.59,1.28,1.02,2,1.28s1.48,.42,2.27,.48,2.4,.09,4.82,.09c1.8,0,3.01-.02,3.61-.05Zm-12.08-11.79l-.7,.62c-.75-.98-1.63-1.87-2.65-2.66l.65-.67c1.13,.86,2.03,1.76,2.7,2.71Zm11.87,4.04h-10.63v-.88h4.96v-2.59h-2.9c-.54,.83-.92,1.39-1.13,1.68l-.77-.49c.98-1.23,1.72-2.63,2.21-4.21l.88,.2c-.24,.79-.49,1.44-.74,1.94h2.45v-2.38h.91v2.38h3.88v.88h-3.88v2.59h4.75v.88Zm-1.08,5.85h-8.19v-4.32h8.19v4.32Zm-.94-.88v-2.52h-6.31v2.52h6.31Z"/>
        <path class="cls-1" d="M401.84,46.9c-.19,.57-.5,1.28-.95,2.13l-.68,1.26v8.83h-.93v-7.43c-.63,.84-1.27,1.57-1.94,2.21l-.62-.74c1.83-1.79,3.24-3.99,4.23-6.6l.89,.34Zm10.46-.74h-15.3v-.91h7.47c-.27-.46-.65-.97-1.13-1.51l.91-.45c.35,.4,.82,1.06,1.41,1.96h6.64v.91Zm.28,12.2l-.43,.89c-2.23-.74-3.98-1.56-5.26-2.45-1.24,.88-2.89,1.68-4.95,2.37l-.57-.83c1.98-.64,3.56-1.36,4.73-2.15-1.26-1.15-2.31-2.46-3.15-3.95-.57,.56-1,.96-1.28,1.2l-.74-.61c1.96-1.67,3.51-3.71,4.65-6.13l.86,.36c-.26,.56-.53,1.08-.81,1.56h5.74c-.56,3.41-1.8,5.93-3.71,7.55,1.32,.87,2.96,1.59,4.91,2.17Zm-3.78-4.95c-1.31-.87-2.89-1.68-4.75-2.43-.11,.17-.25,.36-.43,.57,1.11,1.87,2.21,3.21,3.29,4.02,.79-.64,1.42-1.36,1.89-2.16Zm1.41-3.83h-5.13c-.16,.27-.31,.49-.43,.65,1.99,.82,3.52,1.61,4.61,2.36,.39-.78,.7-1.78,.95-3.01Z"/>
        <path class="cls-1" d="M423.66,49.63h-5.36v9.48h-.96v-15.31h6.32v5.83Zm-.93-3.42v-1.51h-4.43v1.51h4.43Zm0,2.54v-1.64h-4.43v1.64h4.43Zm5.2,8.73h-7.04v-6.39h7.04v6.39Zm-.92-3.71v-1.8h-5.2v1.8h5.2Zm0,2.83v-1.93h-5.2v1.93h5.2Zm4.52,1.08c0,.45-.13,.81-.4,1.06s-.75,.39-1.45,.39h-.96l-.34-.93c.28,.02,.82,.04,1.62,.04,.17,0,.31-.06,.43-.18s.17-.27,.17-.43v-7.99h-5.3v-5.83h6.23v13.88Zm-.93-11.47v-1.51h-4.38v1.51h4.38Zm0,2.54v-1.64h-4.38v1.64h4.38Z"/>
        <path class="cls-1" d="M441.75,55.5c-1.84,.96-3.54,1.71-5.1,2.25l-.25-.91c.73-.24,1.48-.54,2.25-.9v-7.11h-2.07v-.92h2.07v-4.28h.94v4.28h1.96v.92h-1.96v6.71c1-.5,1.67-.84,2.01-1.03l.15,.98Zm10.34,.21c-.06,1.2-.24,2.02-.54,2.44s-.59,.66-.87,.71-1.24,.07-2.86,.07c-2.2,0-3.51-.02-3.91-.05s-.7-.18-.89-.45-.29-.57-.29-.93v-7.33l-1.6,.54-.14-.92,1.74-.59v-3.74h.89v3.45l2.84-.97v-4.48h.92v4.16l3.92-1.35c-.03,2.37-.35,4.9-.95,7.59l-.91-.26c.5-2.17,.81-4.19,.91-6.06l-2.97,1.01v7.02h-.92v-6.7l-2.84,.99v7.68c0,.05,.04,.12,.11,.21s.14,.14,.2,.17,.42,.05,1.07,.07,1.32,.03,2,.03c2.04,0,3.22-.06,3.54-.17s.54-.92,.65-2.43l.9,.28Z"/>
        <path class="cls-1" d="M461.71,51.28l-.7,.62c-.27-.66-.74-1.44-1.42-2.36v9.61h-.91v-8.75c-.79,1.76-1.44,3.02-1.94,3.76l-.65-.76c1.03-1.47,1.86-3.28,2.5-5.43h-2.29v-.89h2.37v-3.67h.91v3.67h1.82v.89h-1.82v.21c.92,1.1,1.63,2.13,2.13,3.09Zm3.42,4.65c-1.11,1.24-2.18,2.19-3.2,2.84l-.63-.71c1.03-.62,2.07-1.54,3.13-2.74l.7,.62Zm6.71-1.6h-4.64v4.82h-.94v-4.82h-4.75v-.87h10.34v.87Zm-.04-9.67h-3.3v1.36h2.75v3.93h-9.14v-3.93h2.72v-1.36h-3.22v-.89h10.19v.89Zm-.62,7.4h-8.93v-.85h8.93v.85Zm-6.35-2.95v-2.25h-1.79v2.25h1.79Zm2.76-3.08v-1.36h-1.84v1.36h1.84Zm0,3.08v-2.25h-1.84v2.25h1.84Zm4.32,9l-.67,.64c-.71-.84-1.7-1.75-2.96-2.73l.62-.65c1.35,1.09,2.36,2,3.01,2.74Zm-1.55-11.25h-1.85v2.25h1.85v-2.25Z"/>
        <path class="cls-1" d="M491.66,57.98l-.22,.96c-1.08,.03-2.12,.04-3.09,.04-2.12,0-3.62-.05-4.52-.16s-1.79-.32-2.66-.62-1.65-.81-2.33-1.51c-.86,1.08-1.67,1.92-2.43,2.52l-.64-.74c.9-.7,1.69-1.53,2.39-2.49-.67-.9-1.23-2.08-1.69-3.54l.84-.34c.34,1.27,.79,2.27,1.34,3.01,.63-1.31,.99-2.85,1.06-4.61h-3.33v-.84c1.11-1.4,2.22-3.01,3.33-4.84h-3.69v-.9h4.7v.9c-1.1,1.85-2.15,3.44-3.16,4.77h3.12c-.12,2.65-.58,4.75-1.39,6.3,.57,.58,1.21,1.03,1.92,1.36s1.47,.54,2.28,.65,2.4,.15,4.78,.15c1.18,0,2.31-.02,3.38-.06Zm-.14-9.76h-1.28v2.56h-4.1v1.49h4.46v.88h-4.46v1.48h5.08v.89h-5.08v1.78h-.9v-1.78h-4.46v-.89h4.46v-1.48h-3.78v-.88h3.78v-1.49h-3.44v-.9h3.44v-1.66h-4.45v-.91h4.45v-1.56h-3.42v-.89h3.42v-1.34h.9v1.34h4.1v2.45h1.28v.91Zm-2.2-.91v-1.53h-3.19v1.53h3.19Zm0,2.58v-1.66h-3.19v1.66h3.19Z"/>
        <path class="cls-1" d="M503.58,45.51h-5.05c-.53,.69-1.18,1.36-1.95,2.01l-.81-.55c1.28-1.01,2.34-2.24,3.17-3.71l.9,.33c-.21,.37-.44,.72-.69,1.06h4.43v.86Zm7.83,9.11h-7.35v4.52h-.97v-4.52h-7.33v-.84h7.33v-.83h.97v.83h7.35v.84Zm-9.77,1.48c-1.32,.93-3.05,1.81-5.2,2.65l-.65-.81c2.07-.72,3.81-1.55,5.2-2.48l.65,.64Zm1.05-7.3h-2.59v2.63c.62-.1,1.47-.29,2.58-.58v.89c-2.24,.52-4.33,.94-6.27,1.26l-.25-.83,2.99-.54v-2.82h-2.63v-.87h6.18v.87Zm-.94-1.6l-.81,.41c-.41-.62-.79-1.1-1.15-1.44l.83-.4c.53,.54,.91,1.02,1.13,1.42Zm9.74,3.29c0,.68-.14,1.2-.41,1.55s-.76,.53-1.46,.53c-.97,0-1.46-.34-1.46-1.03v-2.7h-1.74c-.08,.76-.24,1.37-.47,1.82,.46,.28,.98,.67,1.55,1.19l-.62,.55c-.45-.39-.92-.75-1.41-1.07-.54,.57-1.15,.99-1.84,1.27l-.76-.67c.82-.31,1.44-.67,1.85-1.08-.58-.36-1.06-.63-1.44-.81l.62-.63c.4,.2,.83,.45,1.29,.74,.19-.39,.29-.82,.31-1.31h-1.96v-.84h5.55v3.38c0,.2,.21,.3,.62,.3,.37,0,.61-.14,.72-.41s.16-.64,.16-1.08l.91,.31Zm-.04-4.97h-5.51c-.72,.85-1.41,1.51-2.07,2l-.83-.55c1.35-1,2.46-2.2,3.32-3.62l.87,.36c-.22,.36-.43,.68-.65,.96h4.86v.86Zm.07,12.6l-.62,.7c-1.42-.94-3.13-1.8-5.15-2.59l.65-.74c2.02,.84,3.73,1.72,5.12,2.63Zm-2.54-10.77l-.83,.38c-.32-.66-.66-1.18-1-1.56l.86-.33c.45,.49,.77,.99,.97,1.51Z"/>
        <path class="cls-1" d="M16.44,86.73H7.1c-1.12,2.81-3.03,5.2-5.7,7.18l-.65-.74c2.62-1.89,4.4-4.05,5.34-6.5H.88v-.91H6.42c.12-.26,.25-.69,.39-1.28s.24-.98,.29-1.16l.91,.19c-.13,.64-.33,1.39-.58,2.25h9.02v.96Zm-.72-1.84h-.95v-2.25H2.44v2.25h-.94v-3.15h6.95c-.23-.66-.59-1.33-1.1-2.02l.91-.38c.45,.71,.84,1.51,1.19,2.4h6.27v3.15Zm.43,9.7l-.84,.55c-.15-.34-.46-.87-.91-1.6-3.36,.66-6.44,1.06-9.24,1.2l-.24-1.02c.61-.17,1.39-.89,2.36-2.17s1.73-2.54,2.31-3.81l.88,.38c-1.06,2.16-2.38,4.03-3.96,5.63,2.29-.1,4.74-.44,7.37-1.01-.5-.73-1.2-1.57-2.1-2.54l.76-.54c1.72,1.91,2.93,3.55,3.61,4.91Z"/>
        <path class="cls-1" d="M24.74,79.44c-.24,.77-.47,1.43-.68,2l-.69,1.78v11.93h-.92v-9.93c-.52,.96-1.01,1.74-1.48,2.36l-.57-.86c1.41-1.87,2.56-4.38,3.44-7.52l.9,.25Zm11.3,4.52h-11.6v-.83h3.29c.29-.74,.5-1.37,.65-1.89h-2.97v-.81h3.21c.11-.27,.21-.65,.33-1.15l.91,.2-.27,.95h4.52v2.7h1.94v.83Zm.18,8.98h-5.33v2.22h-.92v-2.22h-4.76l.72-2.63h-1.27v-.85h5.31v-1.22h-4.17v-3.18h8.81v3.18h-3.71v1.22h4.64v.85h-4.64v1.78h5.33v.85Zm-6.25-.85v-1.78h-3.13l-.43,1.78h3.56Zm3.69-4.71v-1.51h-6.91v1.51h6.91Zm-.52-4.25v-1.89h-3.8c-.14,.5-.35,1.13-.62,1.89h4.41Z"/>
        <path class="cls-1" d="M46.77,92.62h-2.73v2.5h-.83v-2.5h-2.83v-.85h2.83v-1.58h-2.23v-6.91h2.23v-1.51h-2.59v-.85h2.59v-1.49h.83v1.49h2.72v.85h-2.72v1.51h2.2v6.91h-2.2v1.58h2.73v.85Zm-3.56-6.39v-2.09h-1.39v2.09h1.39Zm0,3.09v-2.23h-1.39v2.23h1.39Zm2.2-3.08v-2.11h-1.37v2.11h1.37Zm0,3.08v-2.23h-1.37v2.23h1.37Zm10.62-5.85l-.56,.72c-1.89-1.2-3.24-2.36-4.06-3.49-1.01,1.24-2.41,2.43-4.22,3.58l-.57-.79c2.12-1.23,3.65-2.62,4.61-4.17l.84,.34c-.01,.1-.06,.21-.16,.33,.88,1.21,2.25,2.38,4.12,3.49Zm-.7,10.53c0,.73-.42,1.1-1.27,1.1-.15,0-.3-.01-.46-.04l-.3-.91c.11,.01,.36,.02,.76,.02,.25,0,.38-.11,.38-.34v-3.3h-1.48v4h-.92v-4h-1.46v4h-.88v-4h-1.44v4.59h-.86v-9.09h7.94v7.97Zm-5.63-4.33v-2.76h-1.42v2.76h1.42Zm4.19-5.15h-5.14v-.91h5.14v.91Zm-1.85,5.15v-2.76h-1.46v2.76h1.46Zm2.4,0v-2.76h-1.48v2.76h1.48Z"/>
        <path class="cls-1" d="M75.86,81.6h-13.33v5.31c0,1.42-.14,2.88-.43,4.35s-.67,2.68-1.16,3.59l-.77-.58c.97-2.02,1.46-4.29,1.46-6.8v-6.7h6.57c-.09-.15-.35-.5-.77-1.05l.9-.38c.35,.45,.67,.93,.96,1.42h6.58v.83Zm-5.79,9.46l-.02,.88c-.98,.19-1.92,.34-2.83,.45v1.48c0,.4-.11,.72-.34,.96s-.68,.35-1.34,.35c-.29,0-.65-.02-1.08-.05l-.29-.91c.29,.04,.62,.06,.98,.06,.54,0,.87-.03,.99-.09s.18-.19,.18-.39v-1.3c-1.1,.14-2.17,.25-3.23,.33l-.27-.88c.82-.04,1.99-.14,3.5-.31v-.74c.56-.33,1.1-.69,1.62-1.06h-4.39v-.86h5.89v.84c-.42,.29-1.15,.79-2.21,1.48v.24c.69-.08,1.64-.24,2.85-.47Zm-.2-6.86h-6.63v-.84h3.05c-.1-.23-.29-.61-.58-1.13l.88-.27c.3,.47,.53,.94,.69,1.41h2.59v.84Zm-.55,3.95h-5.22v-3.02h5.22v3.02Zm-.92-.87v-1.31h-3.4v1.31h3.4Zm5.51,.51c1.05,1.36,1.58,2.67,1.58,3.92,0,.45-.13,.83-.39,1.16s-.54,.53-.85,.61-.87,.11-1.7,.11l-.26-.93c.28,.04,.56,.05,.84,.05,.97,0,1.45-.38,1.45-1.14,0-1.2-.58-2.41-1.74-3.65,.65-1.42,1.19-2.71,1.62-3.85h-2.8v11.1h-.89v-12.01h4.68v.91c-.69,1.72-1.2,2.96-1.55,3.71Z"/>
        <path class="cls-1" d="M87.82,85.52c.5,0,.93,.17,1.29,.52s.54,.78,.54,1.3-.16,.95-.49,1.29-.75,.51-1.27,.51c-.47,0-.88-.15-1.24-.45s-.54-.76-.54-1.38c0-.58,.18-1.02,.55-1.33s.75-.46,1.17-.46Zm1.09,1.83c0-.31-.11-.56-.32-.75s-.47-.29-.76-.29-.54,.1-.73,.31-.29,.45-.29,.73c0,.26,.09,.5,.28,.73s.44,.34,.76,.34c.3,0,.56-.1,.76-.3s.3-.46,.3-.77Z"/>
      </g>
      <g>
        <path d="M7.69,2.25s.67,.55,1.26,1.09c.44-.82,.82-1.62,1.13-2.39l2.12,1.03c-.13,.23-.36,.31-.88,.23-.82,1.6-1.91,3.28-3.28,4.89h1.16l1.01-1.26s1.11,.88,1.8,1.55c-.06,.23-.27,.34-.57,.34h-3.95c-.73,.82-1.53,1.6-2.39,2.35h3.02l.84-.92,1.83,1.39c-.13,.17-.46,.34-.88,.42v7.68c-.02,.13-.82,.48-1.32,.48h-.25v-1.53H4.18v1.32c0,.13-.52,.52-1.32,.52h-.23v-7.47c-.76,.5-1.55,.97-2.39,1.39l-.23-.27c.92-.59,1.79-1.24,2.62-1.93v-1.76l1.32,.55c.71-.69,1.39-1.45,2.02-2.2H.42l-.17-.63h3.97v-2.96H1.03l-.17-.61h3.36V.36l2.37,.23c-.04,.29-.23,.5-.78,.59V3.53h.95l.92-1.28Zm-3.3,8.42l-.21,.17v2.67h4.16v-2.83h-3.95Zm3.95,6.32v-2.88H4.18v2.88h4.16Zm-1.87-9.89c.76-.97,1.43-1.97,2.02-2.96h-2.67v2.96h.65ZM20.03,2.71c-.17,.19-.46,.23-.95,.25-.76,1.39-2.14,3.93-3.15,5.29,2.5,1.68,3.44,3.65,3.44,5.35,.02,2.06-.82,3.15-3.15,3.23,0-.5-.08-1.09-.27-1.32-.19-.17-.67-.29-1.2-.38v-.34h1.83c.23,0,.36-.02,.54-.1,.38-.21,.61-.65,.61-1.49,0-1.55-.63-3.25-2.35-4.89,.55-1.43,1.39-4.03,1.87-5.79h-3.25V19.02c0,.13-.52,.55-1.34,.55h-.27V.97l1.89,.94h2.94l.97-.97,1.85,1.76Z"/>
        <path d="M40.74,2.2s1.32,1.01,2.16,1.76c-.06,.23-.27,.34-.59,.34h-8.29v2.86h4.16l.82-.97,1.97,1.47c-.13,.15-.46,.34-.88,.42v6.57c0,1.24-.27,1.97-2.46,2.18-.06-.52-.17-.9-.44-1.18-.29-.23-.78-.46-1.74-.57v-.31s1.97,.13,2.48,.13c.38,0,.46-.13,.46-.4V7.77h-4.37v11.32c-.02,.13-.57,.52-1.45,.52h-.29V7.77h-4.37v8.4c0,.17-.71,.57-1.41,.57h-.27V6.38l1.83,.78h4.22v-2.86h-8.61l-.19-.61h16.04l1.22-1.49ZM31.08,.21c5,.69,3.7,4.28,1.87,3.15-.25-1.05-1.24-2.29-2.06-2.98l.19-.17Z"/>
        <path d="M56.28,8.67c.84,3.4,3.28,6.87,9.49,9.09l-.04,.25c-.92,.1-1.49,.48-1.68,1.45-5.75-2.69-7.52-7.03-8.19-10.79h-4.2c-.17,3.67-1.05,7.89-4.91,10.85l-.27-.21c3.07-3.63,3.55-8.13,3.55-12.43V1.09l1.97,.8h9.01l.88-.97,1.89,1.45c-.15,.17-.46,.36-.88,.44v6.66c-.02,.15-.86,.48-1.41,.48h-.27v-1.28h-4.93Zm-4.58-1.81c0,.38,0,.78-.02,1.2h9.53V2.5h-9.51V6.87Z"/>
        <path d="M73.39,8.31c0,3.55-.21,8.17-3.53,11.34l-.31-.21c1.99-3.28,2.16-7.35,2.16-11.11V2.23l1.97,.78h12.2l1.11-1.43s1.26,.99,2.02,1.7c-.06,.23-.27,.34-.57,.34h-15.05v4.7Zm12.98,4.43c-.17,.21-.4,.27-.94,.27-.9,1.32-2.06,2.46-3.46,3.36,2.08,.78,4.56,1.2,7.29,1.39l-.02,.25c-.74,.17-1.22,.73-1.39,1.53-2.92-.44-5.35-1.13-7.33-2.35-2.33,1.22-5.19,1.97-8.59,2.37l-.13-.34c2.96-.59,5.58-1.51,7.68-2.77-1.22-.94-2.16-2.18-2.9-3.72h-1.6l-.19-.63h8.78l1.13-.94,1.66,1.57Zm-3.76-1.57v-.88h-4.2v.71c0,.15-.71,.44-1.3,.44h-.32V7.12h-2.83l-.17-.63h3v-2.31l2.35,.25c-.04,.27-.21,.46-.74,.55v1.51h4.2v-2.31l2.37,.25c-.04,.27-.23,.46-.76,.55v1.51h1.51l.97-1.34s1.13,.94,1.78,1.64c-.06,.23-.27,.34-.57,.34h-3.7v3.59c0,.15-.71,.46-1.3,.46h-.32Zm-5.5,1.57c.82,1.28,2.02,2.27,3.44,3.02,1.22-.88,2.2-1.89,2.92-3.02h-6.36Zm1.07-12.74c4.66,.48,3.42,3.76,1.7,2.75-.29-.88-1.18-1.97-1.89-2.6l.19-.15Zm4.43,9.68v-2.56h-4.2v2.56h4.2Z"/>
      </g>
      <g>
        <path class="cls-1" d="M16.55,197.79H.78v-.71H3.51v-4.25H13.76v4.25h2.79v.71Zm-.5-3.96h-.88v-1.84H2.1v1.84h-.92v-2.52h14.87v2.52Zm-8.01-3.33H1.63v-3.42h6.41v3.42Zm-3.59-1.98v-.83h-1.98v.83h1.98Zm0,1.41v-.85h-1.98v.85h1.98Zm9.72-3.69H3.07v-3.42H14.18v3.42Zm-6.01-1.97v-.81H3.95v.81h4.21Zm0,1.37v-.79H3.95v.79h4.21Zm4.68,8.64v-.79H4.42v.79H12.84Zm0,1.41v-.81H4.42v.81H12.84Zm0,1.39v-.8H4.42v.8H12.84Zm-5.65-8.55v-.83h-1.91v.83h1.91Zm0,1.41v-.85h-1.91v.85h1.91Zm6.11-5.66v-.81h-4.24v.81h4.24Zm0,1.37v-.79h-4.24v.79h4.24Zm2.32,4.86h-6.41v-3.42h6.41v3.42Zm-3.59-1.98v-.83h-1.96v.83h1.96Zm0,1.41v-.85h-1.96v.85h1.96Zm2.76-1.41v-.83h-1.91v.83h1.91Zm0,1.41v-.85h-1.91v.85h1.91Z"/>
        <path class="cls-1" d="M26.18,184.06h-1.96c-.33,1.78-.75,3.29-1.26,4.52h2.94v8.52h-.9v-1.08h-1.94v1.27h-.91v-7.09c-.26,.47-.6,1-1.02,1.56l-.67-.69c1.33-1.69,2.25-4.03,2.77-7h-2.39v-.88h5.33v.88Zm-1.17,11.05v-5.67h-1.94v5.67h1.94Zm6.05-8.38l-2.56,.41v6.86c.71-.44,1.32-.87,1.8-1.29l.29,.86c-1,.79-1.96,1.44-2.88,1.96l-.45-.91c.23-.16,.34-.4,.34-.72v-6.55l-2.07,.3v-.88l2.07-.33v-4.1h.9v3.93l2.5-.41,.05,.88Zm4.75-3.67c0,3.4-.04,6.4-.12,8.99s-.2,4.14-.34,4.64-.38,.85-.69,1.05-.93,.31-1.85,.31h-.54l-.3-.94c.5,.02,.9,.03,1.18,.03,.49,0,.83-.08,1.01-.25s.31-.5,.4-1,.16-2.02,.23-4.56,.12-4.98,.13-7.32h-2.03c0,3.67-.11,6.19-.33,7.58s-.61,2.64-1.17,3.75-1.27,2.06-2.14,2.84l-.64-.61c.96-.91,1.72-2.03,2.27-3.36s.87-2.9,.97-4.72,.15-3.65,.15-5.48h-1.8v-.94h5.63Z"/>
        <path class="cls-1" d="M55.07,198.17h-.97v-.84h-12.67v-6.05h.94v5.12h5.43v-6.92h-5.62v-5.92h.98v4.98h4.64v-6.13h.91v6.13h4.58v-4.98h.95v5.92h-5.48v6.92h5.34v-5.13h.97v6.91Z"/>
        <path class="cls-1" d="M74.91,196.57c0,.42-.12,.74-.35,.98s-.53,.38-.9,.4-.85,.04-1.44,.04c-.42,0-.81,0-1.19-.03l-.4-.99c.94,.09,1.82,.13,2.65,.13,.16,0,.31-.06,.45-.19s.2-.29,.2-.49v-9.77h-5.17c.29,2.54,1.83,5.03,4.62,7.47l-.68,.66c-2.51-2.27-4.03-4.49-4.58-6.65-.88,2.34-2.43,4.54-4.64,6.58l-.67-.69c2.23-1.83,3.84-4.29,4.83-7.37h-5.6v11.5h-.97v-12.47h6.64c-.06-.56-.11-1.34-.16-2.34h-1.7v-.94h2.63c-.02,.28-.03,.57-.03,.88,0,.7,.05,1.5,.16,2.4h6.28v10.89Z"/>
        <path class="cls-1" d="M85.51,183.79c0,.16-.53,1.3-1.6,3.42,.96,1.24,1.43,2.42,1.43,3.56,0,.54-.11,.96-.33,1.27s-.48,.51-.77,.61-.85,.14-1.67,.14l-.34-.97c.3,.03,.62,.04,.95,.04,.52,0,.85-.08,1-.24s.23-.38,.23-.66c0-1.31-.53-2.53-1.58-3.66,.57-1.07,1.13-2.24,1.67-3.52h-2.97v14.38h-.93v-15.28h4.91v.9Zm10.19,6.1h-6.19c-.3,.56-.62,1.06-.96,1.49h6.61c-.02,1.19-.1,2.37-.24,3.55s-.28,1.92-.42,2.23-.36,.55-.66,.73-.89,.26-1.8,.26c-.3,0-.62-.01-.97-.04l-.34-.93c.47,.02,.93,.04,1.39,.04,.63,0,1.03-.04,1.18-.11s.27-.2,.35-.39,.19-.79,.33-1.83,.21-1.92,.21-2.66h-1.08c-.84,2.5-2.75,4.46-5.72,5.88l-.63-.7c2.77-1.31,4.56-3.03,5.37-5.18h-1.41c-1.34,1.97-3.19,3.47-5.56,4.48l-.67-.72c2.31-.92,4.01-2.17,5.1-3.76h-1.78c-.86,.86-1.92,1.63-3.16,2.3l-.65-.74c2.15-1.08,3.64-2.38,4.48-3.91h-2.68v-.9h9.91v.9Zm-1.26-2.08h-7.83v-4.93h7.83v4.93Zm-.96-2.9v-1.17h-5.92v1.17h5.92Zm0,2.01v-1.15h-5.92v1.15h5.92Z"/>
        <path class="cls-1" d="M115.51,189.15l-.77,.6c-.4-.59-.91-1.19-1.51-1.82-3.71,.77-8.04,1.24-13,1.42l-.26-.86c2.67-2.07,4.53-4.12,5.58-6.14l.97,.33c-.98,1.78-2.6,3.66-4.86,5.65,3.94-.13,7.54-.55,10.78-1.24-.73-.8-1.69-1.71-2.9-2.72l.83-.62c2.03,1.78,3.75,3.58,5.15,5.4Zm-1.72,9.04h-.99v-1.12h-10.39v1.09h-.98v-7.05h12.37v7.08Zm-.99-2.07v-4.03h-10.39v4.03h10.39Z"/>
        <path class="cls-1" d="M135.19,194.03h-15.63v-.91h1.35l-.07-9.36c.95-.19,2.14-.62,3.58-1.31l.45,.81c-.96,.46-2,.86-3.11,1.2-.02,.79-.02,1.47,0,2.07h2.73v.89h-2.72c.02,.8,.02,1.59,0,2.36h2.59v.92h-2.56v2.43h11.13c.04-1.4,.05-2.22,.05-2.45h-2.47v-.9h2.49c.01-.38,.02-1.17,.02-2.36h-2.49v-.91h2.49c.04-.49,.05-1.01,.05-1.55,0-.3,0-.57-.02-.83h-2.44v-.88h3.4c-.07,4.74-.13,8.03-.18,9.86h1.35v.91Zm-9.62,1.42c-1.55,1.15-3.25,2.06-5.11,2.72l-.67-.79c2-.63,3.68-1.46,5.02-2.5l.76,.57Zm.99-7.06c-.27,1.82-.79,3.25-1.55,4.31l-.77-.6c.76-.93,1.24-2.24,1.46-3.92l.86,.21Zm3.18-3.9h-3.09c-.1,.71-.2,1.35-.29,1.91h3.28c-.08,3.21-.26,5.05-.54,5.54s-.77,.73-1.47,.73c-.38,0-.63,0-.76-.02l-.31-.92c.42,.02,.75,.04,.99,.04,.48,0,.78-.19,.89-.56s.21-1.68,.29-3.92h-3.48c.2-1.03,.46-2.69,.77-4.97l.87,.09c-.04,.39-.09,.8-.15,1.23h2.99v.86Zm5.24,12.88l-.68,.65c-1.48-.97-3.12-1.81-4.94-2.54l.65-.68c2.14,.91,3.8,1.77,4.97,2.57Z"/>
        <path class="cls-1" d="M147.71,184.82c-.05,2.83-.62,5.41-1.71,7.73s-2.98,4.19-5.64,5.58l-.62-.79c2.39-1.28,4.05-2.77,4.97-4.46-.93-1.47-2.02-2.77-3.29-3.9-.28,.49-.7,1.09-1.25,1.82l-.74-.69c1.72-2.12,2.88-4.68,3.48-7.71l.95,.24c-.08,.41-.27,1.14-.57,2.18h4.42Zm-1.02,.91h-3.71c-.38,1-.72,1.78-1.03,2.35,1.36,1.29,2.45,2.55,3.26,3.78,.83-1.81,1.32-3.85,1.48-6.13Zm8.38,6.14l-.48,.91c-1.14-1.34-2.55-2.63-4.23-3.88v9.33h-.98v-15.79h.98v5.21c1.86,1.39,3.43,2.8,4.71,4.22Z"/>
        <path class="cls-1" d="M174.88,197.67h-15.66v-.88h4.97c-.34-3.2-1.15-6.33-2.43-9.4l.56-.4h-2.49v-.91h7.16c-.36-1.1-.88-2.25-1.56-3.44l.93-.29c.65,1.19,1.19,2.43,1.63,3.73h6.26v.91h-2.34l.54,.43c-.83,3.73-1.71,6.85-2.66,9.36h5.09v.88Zm-3.33-10.67h-8.82c1.3,3.95,2.1,7.21,2.41,9.79h3.62c1.03-2.59,1.95-5.85,2.79-9.79Z"/>
        <path class="cls-1" d="M194.61,183.75h-7.08c-.39,.93-.76,1.71-1.12,2.34h6.97v12.01h-.94v-1.08h-11.27v1.08h-.95v-12.01h5.09c.56-.85,.95-1.63,1.17-2.34h-7.51v-.9h15.63v.9Zm-10.87,12.31v-9.04h-2.56v9.04h2.56Zm5.22-6.8v-2.23h-4.25v2.23h4.25Zm0,3.33v-2.42h-4.25v2.42h4.25Zm0,3.47v-2.59h-4.25v2.59h4.25Zm3.49,0v-9.04h-2.56v9.04h2.56Z"/>
        <path class="cls-1" d="M202.24,189.42l-.61,.72c-.79-.83-1.74-1.57-2.87-2.21l.6-.7c1.18,.7,2.14,1.43,2.87,2.2Zm-.18,2.73c-.67,2.29-1.5,4.28-2.5,5.96l-.77-.57c.97-1.58,1.78-3.56,2.43-5.92l.84,.54Zm.52-7.52l-.61,.72c-.86-.93-1.78-1.7-2.78-2.32l.63-.69c.95,.58,1.87,1.34,2.75,2.29Zm11.92,11.54l-.57,.74c-2.49-1.6-4.17-3.23-5.03-4.9v6.08h-.93v-6.12c-1.05,1.83-2.76,3.49-5.12,4.97l-.57-.76c2.45-1.49,4.08-3.04,4.9-4.64h-4.29v-.92h5.08v-1.42h.93v1.42h5.34v.92h-4.52c.7,1.61,2.29,3.15,4.77,4.62Zm-6.79-11.32c-.08,2.38-1.38,3.98-3.9,4.81l-.67-.83c2.38-.54,3.59-1.87,3.64-3.98h.93Zm6.15,1.08h-.9v-2.21h-8.76v2.21h-.91v-3.16h10.56v3.16Zm0,2.88h-2.93c-.87,0-1.3-.47-1.3-1.41v-2.56h.91v2.58c0,.13,.06,.24,.18,.35s.25,.15,.37,.15h2.77v.89Z"/>
        <path class="cls-1" d="M234.07,184.8h-13v5.02c0,3.26-.66,5.96-1.98,8.09l-.82-.6c1.26-1.96,1.89-4.76,1.89-8.4v-5.01h6.64c-.26-.49-.56-.93-.88-1.34l1.05-.25c.38,.58,.69,1.11,.93,1.6h6.16v.91Zm.41,12.56l-.58,.87c-2.46-.4-4.47-.98-6.05-1.71-1.83,.82-4.05,1.37-6.68,1.63l-.47-.93c2.58-.2,4.59-.61,6.05-1.24-1.4-.86-2.48-1.96-3.23-3.31h-.68v-.94h9.11v.94c-.7,1.37-1.74,2.46-3.11,3.28,1.35,.59,3.23,1.06,5.63,1.42Zm-.41-9.68h-3.1v2.93h-6.46v-2.93h-2.73v-.89h2.73v-1.48h.94v1.48h4.59v-1.48h.93v1.48h3.1v.89Zm-3.24,4.98h-6.18c.76,1.23,1.81,2.17,3.14,2.8,1.39-.77,2.41-1.7,3.04-2.8Zm-.79-2.95v-2.03h-4.59v2.03h4.59Z"/>
        <path class="cls-1" d="M253.97,193.44c-.09,.79-.28,1.54-.57,2.27s-.62,1.09-1,1.09c-.43,0-.97-.45-1.62-1.34s-1.13-1.96-1.44-3.2c-.73,.77-1.44,1.38-2.14,1.84l-.62-.63c1.07-.8,1.9-1.56,2.49-2.29-.29-1.7-.48-3.65-.58-5.85h-7.63c.09,4.15-.52,7.14-1.84,8.96l-.7-.62c1.12-1.6,1.68-4.19,1.68-7.77,0-.42,0-.91-.02-1.46h8.44c-.02-.26-.03-.58-.03-.96s0-.72,.03-1.06h.94c-.03,.48-.04,.91-.04,1.29,0,.27,0,.51,.02,.73h4.46v.88h-4.4c.11,2.19,.26,3.81,.47,4.88,.91-1.27,1.69-2.54,2.34-3.81l.72,.5c-.7,1.44-1.65,2.93-2.87,4.48,.33,1.47,.75,2.57,1.27,3.3s.85,1.09,.99,1.09c.13,0,.28-.33,.47-.98s.29-1.26,.33-1.84l.84,.5Zm-12.78,.7c-.33,1.22-.83,2.29-1.49,3.18l-.72-.55c.62-.83,1.1-1.85,1.44-3.08l.77,.45Zm6.42-6.54h-5.89v-.83h5.89v.83Zm-.25,7.98c-.06,.68-.18,1.2-.38,1.56s-.45,.59-.77,.68-.92,.14-1.79,.14c-1.08,0-1.77-.1-2.06-.29s-.43-.56-.43-1.1v-3.11h.86v3.04c0,.19,.07,.34,.22,.44s.62,.16,1.42,.16c.87,0,1.42-.09,1.63-.28s.36-.74,.44-1.67l.86,.42Zm-.36-3.28h-4.86v-3.53h4.86v3.53Zm-.88-.84v-1.84h-3.09v1.84h3.09Zm-.38,3.37l-.76,.45c-.3-.53-.76-1.17-1.37-1.91l.74-.46c.57,.65,1.04,1.29,1.39,1.92Zm4.19,1.98l-.76,.48c-.39-.93-.88-1.79-1.48-2.58l.72-.5c.62,.84,1.12,1.71,1.51,2.59Zm2.83-13.25l-.7,.64c-.32-.37-.7-.72-1.15-1.06l.66-.64c.46,.34,.86,.69,1.2,1.06Z"/>
        <path class="cls-1" d="M265.75,191.94c-.43-.23-.65-.52-.65-.87,0-.17,.07-.34,.22-.52s.35-.27,.62-.27c.56,0,.84,.37,.84,1.11,0,.6-.35,1.19-1.06,1.75l-.38-.29c.27-.36,.4-.66,.4-.91Z"/>
        <path class="cls-1" d="M293.66,196.98l-.22,.96c-1.08,.03-2.12,.04-3.09,.04-2.12,0-3.62-.05-4.52-.16s-1.79-.32-2.66-.62-1.65-.81-2.33-1.51c-.86,1.08-1.67,1.92-2.43,2.52l-.64-.74c.9-.7,1.69-1.53,2.39-2.49-.67-.9-1.23-2.08-1.69-3.54l.84-.34c.34,1.27,.79,2.27,1.34,3.01,.63-1.31,.99-2.85,1.06-4.61h-3.33v-.84c1.11-1.4,2.22-3.01,3.33-4.84h-3.69v-.9h4.7v.9c-1.1,1.85-2.15,3.44-3.16,4.77h3.12c-.12,2.65-.58,4.75-1.39,6.3,.57,.58,1.21,1.03,1.92,1.36s1.47,.54,2.28,.65,2.4,.15,4.78,.15c1.18,0,2.31-.02,3.38-.06Zm-.14-9.76h-1.28v2.56h-4.1v1.49h4.46v.88h-4.46v1.48h5.08v.89h-5.08v1.78h-.9v-1.78h-4.46v-.89h4.46v-1.48h-3.78v-.88h3.78v-1.49h-3.44v-.9h3.44v-1.66h-4.45v-.91h4.45v-1.56h-3.42v-.89h3.42v-1.34h.9v1.34h4.1v2.45h1.28v.91Zm-2.2-.91v-1.53h-3.19v1.53h3.19Zm0,2.58v-1.66h-3.19v1.66h3.19Z"/>
        <path class="cls-1" d="M302.86,190.27l-.69,.74c-.39-.88-.76-1.6-1.13-2.14v9.28h-.94v-8.73c-.55,1.54-1.11,2.8-1.69,3.8l-.67-.7c.89-1.48,1.66-3.39,2.3-5.72h-2.03v-.9h2.08v-3.44h.94v3.44h1.65v.9h-1.65v.63c.69,.89,1.29,1.84,1.82,2.84Zm10.62,4.68h-1.22v1.8c0,.39-.08,.69-.24,.9s-.34,.36-.54,.43-.56,.11-1.08,.11c-.33,0-.69-.01-1.09-.04l-.36-.91c.39,.04,1.01,.05,1.87,.05,.36,0,.54-.18,.54-.54v-1.8h-6.89v3.2h-.88v-3.2h-1.25v-.84h1.25v-4.22h3.88v-1.24h-4.93v-.81h2.75v-1.26h-1.85v-.83h1.85v-1.2h-2.34v-.81h2.34v-1.26h.89v1.26h3.52v-1.26h.91v1.26h2.31v.81h-2.31v1.2h1.84v.83h-1.84v1.26h2.67v.81h-4.94v1.24h3.91v4.22h1.22v.84Zm-6.01-2.97v-1.26h-3.01v1.26h3.01Zm0,2.13v-1.28h-3.01v1.28h3.01Zm2.23-8.36v-1.2h-3.52v1.2h3.52Zm0,2.09v-1.26h-3.52v1.26h3.52Zm1.65,4.14v-1.26h-3.01v1.26h3.01Zm0,2.13v-1.28h-3.01v1.28h3.01Z"/>
        <path class="cls-1" d="M332.27,198.17h-.97v-.84h-12.67v-6.05h.94v5.12h5.43v-6.92h-5.62v-5.92h.98v4.98h4.64v-6.13h.91v6.13h4.58v-4.98h.95v5.92h-5.48v6.92h5.34v-5.13h.97v6.91Z"/>
        <path class="cls-1" d="M353.06,196.98l-.22,.96c-1.08,.03-2.12,.04-3.09,.04-2.12,0-3.62-.05-4.52-.16s-1.79-.32-2.66-.62-1.65-.81-2.33-1.51c-.86,1.08-1.67,1.92-2.43,2.52l-.64-.74c.9-.7,1.69-1.53,2.39-2.49-.67-.9-1.23-2.08-1.69-3.54l.84-.34c.34,1.27,.79,2.27,1.34,3.01,.63-1.31,.99-2.85,1.06-4.61h-3.33v-.84c1.11-1.4,2.22-3.01,3.33-4.84h-3.69v-.9h4.7v.9c-1.1,1.85-2.15,3.44-3.16,4.77h3.12c-.12,2.65-.58,4.75-1.39,6.3,.57,.58,1.21,1.03,1.92,1.36s1.47,.54,2.28,.65,2.4,.15,4.78,.15c1.18,0,2.31-.02,3.38-.06Zm-.14-9.76h-1.28v2.56h-4.1v1.49h4.46v.88h-4.46v1.48h5.08v.89h-5.08v1.78h-.9v-1.78h-4.46v-.89h4.46v-1.48h-3.78v-.88h3.78v-1.49h-3.44v-.9h3.44v-1.66h-4.45v-.91h4.45v-1.56h-3.42v-.89h3.42v-1.34h.9v1.34h4.1v2.45h1.28v.91Zm-2.2-.91v-1.53h-3.19v1.53h3.19Zm0,2.58v-1.66h-3.19v1.66h3.19Z"/>
        <path class="cls-1" d="M364.98,184.51h-5.05c-.53,.69-1.18,1.36-1.95,2.01l-.81-.55c1.28-1.01,2.34-2.24,3.17-3.71l.9,.33c-.21,.37-.44,.72-.69,1.06h4.43v.86Zm7.83,9.11h-7.35v4.52h-.97v-4.52h-7.33v-.84h7.33v-.83h.97v.83h7.35v.84Zm-9.77,1.48c-1.32,.93-3.05,1.81-5.2,2.65l-.65-.81c2.07-.72,3.81-1.55,5.2-2.48l.65,.64Zm1.05-7.3h-2.59v2.63c.62-.1,1.47-.29,2.58-.58v.89c-2.24,.52-4.33,.94-6.27,1.26l-.25-.83,2.99-.54v-2.82h-2.63v-.87h6.18v.87Zm-.94-1.6l-.81,.41c-.41-.62-.79-1.1-1.15-1.44l.83-.4c.53,.54,.91,1.02,1.13,1.42Zm9.74,3.29c0,.68-.14,1.2-.41,1.55s-.76,.53-1.46,.53c-.97,0-1.46-.34-1.46-1.03v-2.7h-1.74c-.08,.76-.24,1.37-.47,1.82,.46,.28,.98,.67,1.55,1.19l-.62,.55c-.45-.39-.92-.75-1.41-1.07-.54,.57-1.15,.99-1.84,1.27l-.76-.67c.82-.31,1.44-.67,1.85-1.08-.58-.36-1.06-.63-1.44-.81l.62-.63c.4,.2,.83,.45,1.29,.74,.19-.39,.29-.82,.31-1.31h-1.96v-.84h5.55v3.38c0,.2,.21,.3,.62,.3,.37,0,.61-.14,.72-.41s.16-.64,.16-1.08l.91,.31Zm-.04-4.97h-5.51c-.72,.85-1.41,1.51-2.07,2l-.83-.55c1.35-1,2.46-2.2,3.32-3.62l.87,.36c-.22,.36-.43,.68-.65,.96h4.86v.86Zm.07,12.6l-.62,.7c-1.42-.94-3.13-1.8-5.15-2.59l.65-.74c2.02,.84,3.73,1.72,5.12,2.63Zm-2.54-10.77l-.83,.38c-.32-.66-.66-1.18-1-1.56l.86-.33c.45,.49,.77,.99,.97,1.51Z"/>
        <path class="cls-1" d="M392.68,197.67h-15.66v-.88h4.97c-.34-3.2-1.15-6.33-2.43-9.4l.56-.4h-2.49v-.91h7.16c-.36-1.1-.88-2.25-1.56-3.44l.93-.29c.65,1.19,1.19,2.43,1.63,3.73h6.26v.91h-2.34l.54,.43c-.83,3.73-1.71,6.85-2.66,9.36h5.09v.88Zm-3.33-10.67h-8.82c1.3,3.95,2.1,7.21,2.41,9.79h3.62c1.03-2.59,1.95-5.85,2.79-9.79Z"/>
        <path class="cls-1" d="M412.41,183.75h-7.08c-.39,.93-.76,1.71-1.12,2.34h6.97v12.01h-.94v-1.08h-11.27v1.08h-.95v-12.01h5.09c.56-.85,.95-1.63,1.17-2.34h-7.51v-.9h15.63v.9Zm-10.87,12.31v-9.04h-2.56v9.04h2.56Zm5.22-6.8v-2.23h-4.25v2.23h4.25Zm0,3.33v-2.42h-4.25v2.42h4.25Zm0,3.47v-2.59h-4.25v2.59h4.25Zm3.49,0v-9.04h-2.56v9.04h2.56Z"/>
        <path class="cls-1" d="M420.44,182.55c-.12,.57-.33,1.32-.63,2.24l-.45,1.32v12.04h-.91v-9.9c-.59,1.21-1.12,2.13-1.6,2.77l-.58-.86c1.2-1.65,2.29-4.27,3.28-7.87l.89,.25Zm6.44,9.93l-.65,.77c-.54-.94-1.23-1.85-2.07-2.75v7.66h-.88v-7.75c-.91,1.88-1.83,3.36-2.75,4.45l-.74-.63c1.25-1.41,2.42-3.44,3.51-6.08h-2.92v-.91h2.9v-2.66c-.96,.29-1.75,.49-2.36,.62l-.33-.88c2.06-.45,3.79-1.05,5.2-1.8l.57,.77c-.62,.32-1.35,.63-2.21,.95v3.01h2.63v.91h-2.63v1.02c1.11,1.17,2.02,2.27,2.72,3.31Zm1.82,2.2h-.91v-11.01h.91v11.01Zm3.01,2.2c0,.25-.09,.49-.26,.73s-.38,.39-.62,.47-.83,.12-1.77,.12c-.27,0-.52,0-.76-.03l-.34-.93c1.41,.05,2.23,.03,2.46-.05s.36-.24,.36-.48v-14.26h.92v14.43Z"/>
        <path class="cls-1" d="M440.12,193.54c-.9,1.67-1.93,3.19-3.09,4.55l-.67-.74c1.03-1.12,2.03-2.58,3.02-4.39l.74,.57Zm-.41-2.52l-.57,.8c-.71-.66-1.63-1.27-2.76-1.85l.56-.76c1.29,.69,2.22,1.29,2.77,1.81Zm4.07-6.35h-2.27v1.28h-.92v-1.28h-4.19v-.9h4.19v-1.39h.92v1.39h2.27v.9Zm-3.3,3.17l-.55,.79c-.69-.64-1.65-1.3-2.9-1.98l.54-.74c1.2,.63,2.17,1.27,2.92,1.92Zm11.65,4.02l-.38,.9c-2.39-.4-4.32-.99-5.77-1.77-1.72,.8-3.57,1.39-5.55,1.75l-.54-.83c2.13-.38,3.85-.88,5.14-1.49-.56-.39-1.24-.99-2.03-1.8-.77,.53-1.41,.92-1.92,1.19l-.62-.72c1.88-.97,3.44-2.18,4.67-3.61l.84,.4c-.21,.3-.52,.65-.92,1.05h5.48v.87c-1.03,1.01-2.22,1.9-3.59,2.68,1.34,.64,3.06,1.1,5.19,1.39Zm-1.72,6.21h-.96v-.98h-6.63v.98h-.97v-4.97h8.55v4.97Zm-.96-1.91v-2.16h-6.63v2.16h6.63Zm-.27-8.37h-5.07c-.09,.11-.21,.21-.34,.31,.69,.76,1.43,1.39,2.21,1.87,1.05-.54,2.12-1.27,3.2-2.18Zm2.87-3.12h-4.26v1.28h-.92v-1.28h-2.27v-.9h2.27v-1.39h.92v1.39h4.26v.9Z"/>
        <path class="cls-1" d="M471.86,185.41h-8.91c-.44,.75-.88,1.42-1.33,2.02h8.85v9.38c0,.53-.17,.89-.5,1.09s-1.12,.29-2.36,.29c-.47,0-.94-.02-1.4-.05l-.45-.93c.54,.05,1.13,.07,1.75,.07,.98,0,1.57-.04,1.75-.13s.28-.24,.28-.46v-2.35h-8.86c-.32,1.59-.98,2.9-2,3.93l-.9-.53c1.49-1.32,2.23-3.65,2.23-6.98,0-.35,0-.8-.03-1.34-1.17,1.15-2.25,2.07-3.25,2.73l-.72-.71c2.51-1.68,4.44-3.69,5.81-6.04h-5.63v-.93h6.18c.35-.62,.69-1.33,1.05-2.13l.97,.27c-.35,.77-.65,1.39-.91,1.85h8.38v.93Zm-2.32,8.05v-2.16h-8.62c0,.93-.03,1.65-.09,2.16h8.71Zm0-3.09v-2.06h-8.57v2.06h8.57Z"/>
        <path class="cls-1" d="M491.63,185.01h-13.1v6.03h7.42c-1.46-.85-2.89-1.51-4.29-2l.56-.74c.79,.28,1.78,.7,2.95,1.25,1.31-.61,2.46-1.32,3.47-2.14h-8.5v-.89h9.85v.91c-.91,.89-2.21,1.76-3.89,2.61,.33,.19,.66,.4,.98,.61l-.31,.4h4.54v.94c-.69,1.28-1.49,2.36-2.43,3.24l-.77-.6c.9-.81,1.61-1.7,2.15-2.66h-4.52v4.81c0,.93-.51,1.4-1.53,1.4-.87,0-1.49,0-1.85-.02l-.31-1c.65,.03,1.19,.04,1.61,.04,.56,0,.89-.03,.97-.09s.13-.15,.13-.28v-4.86h-6.27c-.08,2.35-.65,4.44-1.71,6.28l-.86-.54c1.09-1.71,1.63-3.82,1.63-6.35v-7.25h6.32c-.22-.5-.49-.96-.79-1.37l.92-.36c.3,.42,.64,1,1.02,1.73h6.61v.91Z"/>
        <path class="cls-1" d="M502.01,197.79h-.91v-1.55h-3.88v1.91h-.91v-12.76h1.67c.45-.8,.88-1.83,1.28-3.09l.9,.18c-.21,.63-.62,1.6-1.22,2.91h3.08v12.4Zm-.91-7.63v-3.87h-3.88v3.87h3.88Zm0,5.17v-4.26h-3.88v4.26h3.88Zm9.92-9.92c-.07,2.7-.2,5.2-.39,7.51s-.38,3.68-.58,4.09-.44,.7-.74,.87-.87,.26-1.72,.26c-.37,0-.85,0-1.45-.03l-.29-.91c.49,.02,1.02,.03,1.59,.03,.53,0,.87,0,1.02-.02s.31-.09,.47-.22,.28-.3,.35-.48,.16-.87,.28-2.07,.21-2.51,.29-3.95,.13-2.83,.17-4.19h-4.69c-.63,1.25-1.35,2.43-2.18,3.56l-.74-.52c1.58-2.07,2.69-4.37,3.35-6.92l.91,.24c-.29,.96-.62,1.88-.98,2.75h5.33Zm-3.31,8.07l-.76,.54c-.58-1.34-1.45-2.73-2.61-4.19l.77-.5c1.08,1.3,1.94,2.69,2.59,4.16Z"/>
        <path class="cls-1" d="M6.36,229.67c-1.92,1.09-3.67,2.03-5.26,2.81l-.4-.79,2.45-1.24v-4.99H1.04v-.84H3.16v-4.09H.85v-.88H6.26v.88h-2.18v4.09h1.91v.84h-1.91v4.48c.66-.35,1.35-.72,2.07-1.13l.21,.86Zm10.15,1.34c-.06,.82-.18,1.44-.38,1.86s-.42,.7-.69,.85-.78,.22-1.54,.22c-.4,0-.75,0-1.05-.03s-.54-.12-.71-.32-.26-.51-.26-.93v-4.21h-1.66c-.26,2.94-1.9,4.86-4.9,5.77l-.57-.76c2.82-.74,4.34-2.41,4.55-5.01h-1.85v-9.55h7.8v9.55h-2.45v4.21c0,.13,.06,.24,.17,.31s.47,.11,1.06,.11c.56,0,.91-.06,1.04-.17s.26-.42,.39-.91,.19-.96,.19-1.42l.86,.43Zm-2.18-9.31v-1.94h-5.98v1.94h5.98Zm0,2.9v-2.03h-5.98v2.03h5.98Zm0,2.97v-2.11h-5.98v2.11h5.98Z"/>
        <path class="cls-1" d="M25.25,218.67c-.18,.47-.43,1.07-.76,1.78l-.49,1.05v12.67h-.97v-10.81c-.76,1.29-1.44,2.28-2.06,2.97l-.54-.89c1.43-1.75,2.72-4.11,3.87-7.09l.94,.33Zm11,5.06l-6.44,.64c.09,2.13,.4,3.86,.93,5.2s1.15,2.3,1.88,2.89,1.23,.87,1.49,.87c.13,0,.23-.05,.31-.14s.2-.53,.37-1.3,.26-1.54,.26-2.29l.97,.41c-.08,.97-.21,1.82-.4,2.55s-.39,1.2-.6,1.41-.48,.31-.81,.31c-.59,0-1.32-.37-2.21-1.11s-1.6-1.83-2.15-3.28-.89-3.25-1.01-5.43l-3.85,.4-.09-.98,3.87-.38c-.09-1.59-.14-2.93-.14-4.02,0-.38,0-.75,.02-1.1h.95c-.02,1.95,.02,3.62,.13,5.01l6.44-.63,.09,.96Zm-1.53-2.11l-.81,.48c-.63-.97-1.44-1.9-2.45-2.77l.83-.5c1.14,.94,1.95,1.87,2.43,2.79Z"/>
        <path class="cls-1" d="M55.7,220.35h-11.9c-1.03,1.57-2.03,2.75-3.02,3.52l-.54-.81c1.41-1.19,2.62-2.76,3.64-4.72l.97,.25c-.15,.3-.31,.58-.48,.83h11.34v.92Zm-10.26,5.54c-1.57,1.89-3.09,3.19-4.55,3.91l-.49-.76c1.47-.77,2.88-1.97,4.22-3.6l.83,.45Zm4.76,2.67c-.02,1-.09,1.99-.22,2.99s-.26,1.6-.37,1.81-.32,.4-.6,.57-.81,.25-1.58,.25c-.28,0-.55-.01-.83-.04l-.27-.91,1.78,.02c.35,0,.61-.23,.77-.68s.28-1.49,.35-3.12h-2.7c-.16,1.07-.72,2.04-1.67,2.94s-2.04,1.5-3.27,1.84l-.52-.82c1.18-.3,2.18-.81,3.01-1.53s1.32-1.52,1.47-2.43h-2.49v-.9h7.15Zm5.91,2.05c-.13,.83-.32,1.58-.56,2.24s-.45,1.05-.61,1.17-.34,.18-.55,.18c-.59,0-1.01-.66-1.28-1.97s-.4-2.52-.4-3.63v-4.03h-10.72v-.88h11.66v4.71c0,.62,.05,1.3,.14,2.07s.19,1.37,.31,1.82,.19,.69,.22,.72,.06,.04,.09,.04c.22,0,.5-.99,.86-2.96l.84,.54Zm-1.38-8.17h-10.7v-.91h10.7v.91Zm-2.52,6.46l-.62,.65c-.95-1.21-2.09-2.33-3.44-3.37l.58-.69c1.51,1.24,2.67,2.38,3.47,3.4Z"/>
        <path class="cls-1" d="M75.05,234.26h-.94v-.91h-12.16v.89h-.91v-15.3h14.02v15.32Zm-.94-1.7v-12.81h-6.6l.61,.43-.28,.83h4.25v1.97h1.08v.76h-10.41v-.76h3.3l.47-1.2h-2.88v-.77h3.19l.43-1.26h-5.31v12.81h6.1v-1.42h-4.41l.44-2.05h-1.32v-.76h5.29v-1.05h-4.32v-2.58h8.62v2.58h-3.37v1.05h3.61v.76h-3.61v1.29h4.19v.76h-4.19v1.42h5.12Zm-2.68-6.03v-1.06h-6.75v1.06h6.75Zm-3.38,3.85v-1.29h-2.97l-.28,1.29h3.25Zm3.09-7.41v-1.2h-3.61l-.47,1.2h4.08Z"/>
        <path class="cls-1" d="M87.82,224.52c.5,0,.93,.17,1.29,.52s.54,.78,.54,1.3-.16,.95-.49,1.29-.75,.51-1.27,.51c-.47,0-.88-.15-1.24-.45s-.54-.76-.54-1.38c0-.58,.18-1.02,.55-1.33s.75-.46,1.17-.46Zm1.09,1.83c0-.31-.11-.56-.32-.75s-.47-.29-.76-.29-.54,.1-.73,.31-.29,.45-.29,.73c0,.26,.09,.5,.28,.73s.44,.34,.76,.34c.3,0,.56-.1,.76-.3s.3-.46,.3-.77Z"/>
      </g>
      <g>
        <path d="M7.52,147.86c-.15,.19-.34,.25-.8,.29-.34,2.25-.84,4.39-1.97,6.28,2.25,1.62,5.42,1.95,9.89,1.95,1.15,0,3.76,0,5.12-.02v.27c-.71,.13-1.07,.69-1.11,1.36h-4.16c-4.79,0-8.06-.52-10.33-2.69-.9,1.26-2.14,2.35-3.82,3.23l-.19-.29c1.47-1.05,2.5-2.35,3.25-3.8-.99-1.22-1.72-2.81-2.35-4.96l.31-.15c.63,1.87,1.43,3.23,2.44,4.26,.71-1.72,1.11-3.67,1.3-5.67H3.07l-.63,.59-1.49-1.13c.19-.13,.48-.27,.78-.38,.76-1.39,1.87-3.67,2.48-5.17H.5l-.19-.61h3.88l.86-.88,1.74,1.57c-.19,.19-.59,.29-1.03,.34-.61,1.32-1.72,3.57-2.52,5.06h1.72l.9-.94,1.64,1.47Zm10.92-4.91s1.03,.92,1.62,1.57c-.06,.23-.25,.34-.55,.34h-2.31v3c-.02,.15-.8,.48-1.32,.48h-.25v-.69h-2.71v2.16h2.62l.97-1.26s1.13,.88,1.8,1.53c-.06,.23-.25,.34-.54,.34h-4.85v2.2h3.44l1.07-1.36s1.24,.94,2.02,1.64c-.06,.23-.29,.34-.59,.34h-5.94v2.18c0,.19-.69,.5-1.3,.5h-.31v-2.69H6.36l-.17-.61h5.1v-2.2h-3.82l-.17-.61h3.99v-2.16h-3.55l-.19-.61h3.74v-2.18H6.07l-.17-.61h5.4v-2.14h-3.61l-.19-.63h3.8v-2.25l2.35,.25c-.04,.29-.19,.5-.74,.59v1.41h2.5l.84-.88,1.83,1.36c-.15,.17-.46,.34-.88,.42v1.87h.36l.88-1.3Zm-5.52,1.3h2.71v-2.14h-2.71v2.14Zm2.71,.61h-2.71v2.18h2.71v-2.18Z"/>
        <path d="M27.68,141.62c-1.18,1.41-2.62,2.48-4.05,3.17l-.25-.27c1.45-1.18,2.94-3.17,3.82-5.46l2.27,.97c-.11,.23-.36,.38-.82,.29-.15,.23-.29,.46-.46,.67h3.09l.9-1.13s1.01,.82,1.62,1.43c-.04,.23-.25,.34-.54,.34h-5.56Zm-4.01,16.31c2.12-1.11,4.3-2.98,5.38-4.45l2.06,1.26c-.12,.19-.31,.27-.8,.17-1.39,1.24-3.93,2.6-6.45,3.3l-.19-.27Zm4.93-12.22v3.53c1.01-.17,2.14-.34,3.25-.52l.04,.34c-1.49,.55-3.59,1.26-6.51,2.16-.08,.25-.27,.42-.48,.48l-.88-1.81c.67-.06,1.74-.21,3.02-.4v-3.78h-2.44l-.17-.61h4.83l.84-1.07c-.17,0-.36-.04-.55-.15-.15-.65-.78-1.39-1.34-1.76l.19-.17c2.83,.08,2.71,1.83,1.83,2.04,.25,.21,1.07,.88,1.64,1.39-.06,.23-.27,.34-.57,.34h-2.71Zm11.86,5.27s1.28,1.01,2.08,1.72c-.06,.23-.27,.34-.57,.34h-7.98v5c0,.15-.76,.48-1.43,.48h-.32v-5.48h-7.98l-.17-.61h8.15v-1.7l2.52,.27c-.04,.27-.23,.48-.78,.57v.86h5.33l1.13-1.45Zm1.6-1.76c.4,.17,.48,.31,.48,.59,0,.55-.53,.86-2.08,.86h-.82c-1.09,0-1.24-.36-1.24-1.22v-3.86h-2.79v.65c0,.44-.06,.94-.25,1.47,2.37,.97,2.14,2.56,.97,2.31-.38-.38-.95-.82-1.57-1.24-.69,.84-1.93,1.64-4.16,2.23l-.19-.31c1.85-.76,2.77-1.66,3.25-2.54-.61-.36-1.24-.65-1.81-.86l.17-.29c.76,.04,1.39,.15,1.95,.27,.08-.36,.13-.69,.13-1.03v-.65h-1.66l-.19-.63h5.96l.78-.78,1.47,1.28c-.13,.15-.34,.25-.69,.31v3.32c0,.21,.04,.25,.29,.25h.97c.11,0,.17-.02,.25-.15,.11-.19,.29-.9,.46-1.57h.25l.06,1.6Zm-1.03-9.47s1.13,.86,1.85,1.51c-.06,.23-.27,.34-.57,.34h-6.57c-.84,1.11-1.87,2.06-2.9,2.69l-.27-.21c.96-1.18,1.95-3.07,2.56-5l2.25,.9c-.08,.23-.36,.4-.8,.34-.13,.23-.27,.46-.42,.67h3.91l.97-1.24Zm-5.56,14.11c7.47,.88,7.33,4.81,5.25,4.18-1.09-1.32-3.59-3.07-5.42-3.95l.17-.23Zm1.22-11.88c3.48,.23,2.33,2.73,1.01,1.85-.13-.61-.69-1.3-1.2-1.66l.19-.19Z"/>
        <path d="M56.28,147.67c.84,3.4,3.28,6.87,9.49,9.09l-.04,.25c-.92,.1-1.49,.48-1.68,1.45-5.75-2.69-7.52-7.03-8.19-10.79h-4.2c-.17,3.67-1.05,7.89-4.91,10.85l-.27-.21c3.07-3.63,3.55-8.13,3.55-12.43v-5.79l1.97,.8h9.01l.88-.97,1.89,1.45c-.15,.17-.46,.36-.88,.44v6.66c-.02,.15-.86,.48-1.41,.48h-.27v-1.28h-4.93Zm-4.58-1.81c0,.38,0,.78-.02,1.2h9.53v-5.56h-9.51v4.37Z"/>
        <path d="M73.39,147.31c0,3.55-.21,8.17-3.53,11.34l-.31-.21c1.99-3.28,2.16-7.35,2.16-11.11v-6.11l1.97,.78h12.2l1.11-1.43s1.26,.99,2.02,1.7c-.06,.23-.27,.34-.57,.34h-15.05v4.7Zm12.98,4.43c-.17,.21-.4,.27-.94,.27-.9,1.32-2.06,2.46-3.46,3.36,2.08,.78,4.56,1.2,7.29,1.39l-.02,.25c-.74,.17-1.22,.73-1.39,1.53-2.92-.44-5.35-1.13-7.33-2.35-2.33,1.22-5.19,1.97-8.59,2.37l-.13-.34c2.96-.59,5.58-1.51,7.68-2.77-1.22-.94-2.16-2.18-2.9-3.72h-1.6l-.19-.63h8.78l1.13-.94,1.66,1.57Zm-3.76-1.57v-.88h-4.2v.71c0,.15-.71,.44-1.3,.44h-.32v-4.33h-2.83l-.17-.63h3v-2.31l2.35,.25c-.04,.27-.21,.46-.74,.55v1.51h4.2v-2.31l2.37,.25c-.04,.27-.23,.46-.76,.55v1.51h1.51l.97-1.34s1.13,.94,1.78,1.64c-.06,.23-.27,.34-.57,.34h-3.7v3.59c0,.15-.71,.46-1.3,.46h-.32Zm-5.5,1.57c.82,1.28,2.02,2.27,3.44,3.02,1.22-.88,2.2-1.89,2.92-3.02h-6.36Zm1.07-12.74c4.66,.48,3.42,3.76,1.7,2.75-.29-.88-1.18-1.97-1.89-2.6l.19-.15Zm4.43,9.68v-2.56h-4.2v2.56h4.2Z"/>
      </g>
      <g>
        <path class="cls-1" d="M5.52,324.12H.83v-.89H3.05c-.12-.46-.35-1-.7-1.63l.82-.38c.28,.54,.55,1.21,.81,2.01h1.55v.89Zm-.18,2.53H1.19v-.84H5.33v.84Zm0,2.72H1.19v-.85H5.33v.85Zm-.25,7.34h-.91v-.97H2.08v1.4h-.89v-5.99h3.89v5.56Zm-.91-1.84v-2.86H2.08v2.86h2.1Zm12.23-2.57h-5.91c-.59,.71-1.2,1.27-1.82,1.65v2.13c.66-.15,1.5-.39,2.5-.72v.86c-1.33,.45-2.48,.77-3.44,.98l-.24-.83c.21-.16,.31-.38,.31-.64v-1.25c-.6,.34-1.25,.64-1.96,.91l-.53-.77c1.68-.5,3.04-1.27,4.09-2.3h-3.63v-.83h3.02v-.97h-2.47v-.81h2.47v-.94h-2.74v-.76h2.74v-.86h.88v.86h2.99v-.86h.9v.86h2.52v.76h-2.52v.94h2.09v.81h-2.09v.97h2.83v.83Zm-.17-8.84H6.22v-.81h4.5c-.11-.32-.29-.65-.54-.99l.77-.36c.25,.42,.47,.87,.69,1.35h4.61v.81Zm-5.61,3.18h-3.91v-2.37h3.91v2.37Zm-.82-.76v-.86h-2.29v.86h2.29Zm2.87,3.81v-.94h-2.99v.94h2.99Zm0,1.78v-.97h-2.99v.97h2.99Zm3.78,5.12l-.43,.76c-2.18-.84-3.76-2.19-4.75-4.03l.74-.36c.33,.63,.71,1.14,1.12,1.53,.49-.42,.97-.95,1.44-1.58l.67,.48c-.35,.48-.87,1.03-1.55,1.64,.78,.66,1.7,1.18,2.77,1.56Zm-.74-9.94h-3.98v-2.37h3.98v2.37Zm-.83-.76v-.86h-2.32v.86h2.32Z"/>
        <path class="cls-1" d="M36.26,335.98l-.22,.96c-1.08,.03-2.12,.04-3.09,.04-2.12,0-3.62-.05-4.52-.16s-1.79-.32-2.66-.62-1.65-.81-2.33-1.51c-.86,1.08-1.67,1.92-2.43,2.52l-.64-.74c.9-.7,1.69-1.53,2.39-2.49-.67-.9-1.23-2.08-1.69-3.54l.84-.34c.34,1.27,.79,2.27,1.34,3.01,.63-1.31,.99-2.85,1.06-4.61h-3.33v-.84c1.11-1.4,2.22-3.01,3.33-4.84h-3.69v-.9h4.7v.9c-1.1,1.85-2.15,3.44-3.16,4.77h3.12c-.12,2.65-.58,4.75-1.39,6.3,.57,.58,1.21,1.03,1.92,1.36s1.47,.54,2.28,.65,2.4,.15,4.78,.15c1.18,0,2.31-.02,3.38-.06Zm-.14-9.76h-1.28v2.56h-4.1v1.49h4.46v.88h-4.46v1.48h5.08v.89h-5.08v1.78h-.9v-1.78h-4.46v-.89h4.46v-1.48h-3.78v-.88h3.78v-1.49h-3.44v-.9h3.44v-1.66h-4.45v-.91h4.45v-1.56h-3.42v-.89h3.42v-1.34h.9v1.34h4.1v2.45h1.28v.91Zm-2.2-.91v-1.53h-3.19v1.53h3.19Zm0,2.58v-1.66h-3.19v1.66h3.19Z"/>
        <path class="cls-1" d="M48.18,323.51h-5.05c-.53,.69-1.18,1.36-1.95,2.01l-.81-.55c1.28-1.01,2.34-2.24,3.17-3.71l.9,.33c-.21,.37-.44,.72-.69,1.06h4.43v.86Zm7.83,9.11h-7.35v4.52h-.97v-4.52h-7.33v-.84h7.33v-.83h.97v.83h7.35v.84Zm-9.77,1.48c-1.32,.93-3.05,1.81-5.2,2.65l-.65-.81c2.07-.72,3.81-1.55,5.2-2.48l.65,.64Zm1.05-7.3h-2.59v2.63c.62-.1,1.47-.29,2.58-.58v.89c-2.24,.52-4.33,.94-6.27,1.26l-.25-.83,2.99-.54v-2.82h-2.63v-.87h6.18v.87Zm-.94-1.6l-.81,.41c-.41-.62-.79-1.1-1.15-1.44l.83-.4c.53,.54,.91,1.02,1.13,1.42Zm9.74,3.29c0,.68-.14,1.2-.41,1.55s-.76,.53-1.46,.53c-.97,0-1.46-.34-1.46-1.03v-2.7h-1.74c-.08,.76-.24,1.37-.47,1.82,.46,.28,.98,.67,1.55,1.19l-.62,.55c-.45-.39-.92-.75-1.41-1.07-.54,.57-1.15,.99-1.84,1.27l-.76-.67c.82-.31,1.44-.67,1.85-1.08-.58-.36-1.06-.63-1.44-.81l.62-.63c.4,.2,.83,.45,1.29,.74,.19-.39,.29-.82,.31-1.31h-1.96v-.84h5.55v3.38c0,.2,.21,.3,.62,.3,.37,0,.61-.14,.72-.41s.16-.64,.16-1.08l.91,.31Zm-.04-4.97h-5.51c-.72,.85-1.41,1.51-2.07,2l-.83-.55c1.35-1,2.46-2.2,3.32-3.62l.87,.36c-.22,.36-.43,.68-.65,.96h4.86v.86Zm.07,12.6l-.62,.7c-1.42-.94-3.13-1.8-5.15-2.59l.65-.74c2.02,.84,3.73,1.72,5.12,2.63Zm-2.54-10.77l-.83,.38c-.32-.66-.66-1.18-1-1.56l.86-.33c.45,.49,.77,.99,.97,1.51Z"/>
        <path class="cls-1" d="M65.11,322.74c0,.18-.48,1.61-1.43,4.3,.88,1.37,1.33,2.69,1.33,3.98,0,.63-.15,1.13-.44,1.49s-1,.52-2.1,.47l-.3-1c.28,.04,.59,.06,.92,.06,.45,0,.73-.08,.84-.25s.17-.47,.17-.91c0-1.24-.46-2.48-1.38-3.73,.71-1.94,1.2-3.41,1.44-4.41h-2.49v14.4h-.9v-15.31h4.33v.91Zm2.06,11.18c-.63,1.06-1.34,1.94-2.14,2.65l-.76-.6c.74-.62,1.46-1.47,2.14-2.58l.76,.53Zm8.35-6.2h-9.97v-.81h4.57v-.84h-3.73v-.81h8.26v.81h-3.64v.84h4.5v.81Zm.36,3.33h-1.48v1.75h-7.99v-.81h7.08v-.94h-7.94v-.79h7.94v-.9h-7.08v-.83h7.99v1.73h1.48v.79Zm-.97-8.85c-2.32,.6-5.12,.94-8.41,1.04l-.34-.88c3.21-.04,5.96-.35,8.24-.94l.51,.78Zm-6.37,2.32l-.78,.5c-.26-.36-.63-.71-1.12-1.06l.8-.48c.36,.28,.73,.62,1.1,1.05Zm4.52,10.42c-.12,.9-.32,1.46-.61,1.67s-.59,.31-.91,.31l-2.71-.04c-.29,0-.55-.09-.76-.28s-.32-.46-.32-.84v-2.32h.92v2.14c0,.19,.08,.33,.23,.4s.58,.11,1.28,.11c.85,0,1.36-.03,1.52-.1s.26-.2,.3-.4l.16-.97,.89,.33Zm-1.66-.27l-.74,.57c-.41-.61-.81-1.1-1.2-1.46l.69-.57c.47,.41,.89,.9,1.26,1.46Zm-.25-10.01l-.84,.29c-.12-.45-.33-.9-.62-1.34l.81-.28c.33,.45,.55,.89,.66,1.33Zm3.31-1.03c-.4,.47-.85,.88-1.34,1.21l-.7-.54c.45-.28,.91-.67,1.39-1.17l.66,.5Zm1.34,12.33l-.84,.54c-.5-1-1.18-1.91-2.02-2.74l.76-.52c.87,.87,1.58,1.78,2.11,2.72Z"/>
        <path class="cls-1" d="M92.22,325.57c-1.68,1.95-3.81,3.58-6.41,4.9,0,.15,.08,.26,.25,.32s.87,.09,2.1,.09,2.09-.05,2.45-.15,.58-.79,.66-2.06l.87,.45c-.04,.76-.16,1.34-.39,1.74s-.5,.66-.82,.76-.99,.15-2,.15c-1.75,0-2.8-.03-3.17-.1s-.65-.31-.85-.74c-1.54,.69-3.03,1.3-4.47,1.82l-.44-.76c1.82-.63,3.42-1.29,4.83-1.97v-5.11h.94v4.62c2.32-1.18,4.25-2.68,5.77-4.52l.67,.56Zm-8.01,.69c-1.14,1.41-2.32,2.58-3.55,3.52l-.65-.67c1.1-.8,2.25-1.92,3.45-3.37l.76,.52Zm10.72,.13h-.91v-2.7h-12.38v2.7h-.92v-3.6h6.75c-.1-.38-.28-.8-.54-1.26l.84-.29c.25,.46,.46,.98,.65,1.55h6.51v3.6Zm-1.19,10.78h-.94v-.47h-11v-3.69h.94v2.83h4.45v-3.6h.93v3.6h4.68v-2.83h.94v4.16Zm-4.59-10.71l-.74,.48c-.53-.84-1.1-1.57-1.71-2.2l.79-.48c.56,.56,1.11,1.29,1.66,2.2Zm6.41,3.64l-.69,.62c-.71-1.05-1.67-2.16-2.87-3.31l.69-.57c1.28,1.25,2.24,2.34,2.87,3.26Z"/>
        <path class="cls-1" d="M107.11,325.31h-4.32c-.03,1.17-.06,2.01-.09,2.54h3.54c.02,1.88-.04,3.66-.18,5.35s-.28,2.68-.44,2.99-.4,.54-.72,.69-1,.21-2.05,.17l-.28-.95c.71,.06,1.17,.09,1.36,.09,.26,0,.51-.09,.75-.27s.4-1.06,.48-2.63,.13-2.68,.13-3.31c0-.42,0-.82-.03-1.2h-2.63c-.26,3.38-.99,6.2-2.2,8.45l-.76-.54c.9-1.73,1.47-3.4,1.74-5.02s.4-3.73,.43-6.33h-1.85v-.92h3.26c-.23-.97-.56-1.87-.99-2.68l.83-.34c.41,.85,.79,1.86,1.13,3.02h2.88v.92Zm8.49,1.96l-.59,.79c-1.29-.91-2.64-2.52-4.05-4.83-1.15,1.96-2.43,3.57-3.83,4.83l-.62-.62c1.99-1.92,3.43-3.95,4.34-6.11l.88,.31c-.05,.12-.14,.35-.29,.67,1.29,2.22,2.67,3.88,4.16,4.97Zm-1.55,9.14l-.61,.69c-1.51-1.42-3.37-2.8-5.56-4.16l.59-.77c2.36,1.49,4.22,2.9,5.58,4.25Zm-.36-5.36l-.64,.7c-1.13-1.15-2.54-2.22-4.22-3.23l.56-.69c1.47,.81,2.9,1.88,4.3,3.22Z"/>
        <path class="cls-1" d="M135.23,333.41c-.11,1.3-.26,2.14-.45,2.53s-.46,.65-.79,.81-1.12,.23-2.36,.23c-1.03,0-1.73-.02-2.11-.05s-.65-.18-.83-.44-.28-.55-.28-.86v-4.35h-2.58c-.42,3.1-2.31,5.11-5.67,6.03l-.7-.84c3.3-.81,5.09-2.54,5.38-5.19h-3.33v-9.41h11.72v9.41h-3.84v4.23c0,.15,.05,.27,.16,.38s.23,.16,.37,.16l3.26-.02c.38,0,.64-.22,.78-.66s.25-1.23,.33-2.36l.94,.41Zm-2.99-8.78v-1.87h-9.76v1.87h9.76Zm0,2.81v-1.9h-9.76v1.9h9.76Zm0,2.94v-2.01h-9.76v2.01h9.76Z"/>
        <path class="cls-1" d="M154.97,332.87c-.05,1.85-.27,2.98-.66,3.39s-.88,.62-1.47,.62h-2.9c-.45,0-.8-.15-1.05-.44s-.38-.68-.38-1.14v-6.16h-3.08c-.04,1.83-.45,3.42-1.23,4.76s-2.18,2.46-4.2,3.36l-.7-.85c3.49-1.28,5.2-3.7,5.13-7.27h-4.9v-.98h7.11v-6.79h.97v6.79h7.2v.98h-5.33v6.16c0,.18,.06,.33,.18,.45s.26,.19,.44,.19h2.7c.47,0,.79-.25,.95-.74s.25-1.37,.25-2.62l.98,.29Zm-10.68-6.25l-.83,.54c-.58-1.34-1.4-2.7-2.46-4.09l.79-.58c1.27,1.8,2.1,3.17,2.5,4.12Zm8.96-3.85c-.84,1.82-1.68,3.26-2.51,4.34l-.82-.54c1.02-1.32,1.83-2.72,2.42-4.19l.91,.4Z"/>
        <path class="cls-1" d="M175.12,332.24l-.6,.77c-2.69-2.14-5.01-3.71-6.96-4.71v8.95h-1.01v-10.13c-1.7,2.03-3.98,3.99-6.86,5.88l-.63-.83c4.42-2.64,7.42-5.76,9-9.36h-8.64v-.97h15.3v.97h-5.56c-.43,.93-.97,1.91-1.6,2.94v1.44c3.36,1.95,5.88,3.63,7.56,5.05Z"/>
        <path class="cls-1" d="M194.63,333.41c-.11,1.3-.26,2.14-.45,2.53s-.46,.65-.79,.81-1.12,.23-2.36,.23c-1.03,0-1.73-.02-2.11-.05s-.65-.18-.83-.44-.28-.55-.28-.86v-4.35h-2.58c-.42,3.1-2.31,5.11-5.67,6.03l-.7-.84c3.3-.81,5.09-2.54,5.38-5.19h-3.33v-9.41h11.72v9.41h-3.84v4.23c0,.15,.05,.27,.16,.38s.23,.16,.37,.16l3.26-.02c.38,0,.64-.22,.78-.66s.25-1.23,.33-2.36l.94,.41Zm-2.99-8.78v-1.87h-9.76v1.87h9.76Zm0,2.81v-1.9h-9.76v1.9h9.76Zm0,2.94v-2.01h-9.76v2.01h9.76Z"/>
        <path class="cls-1" d="M200.65,329.23l-.77,.46c-.21-1.55-.59-3.05-1.15-4.5l.83-.36c.52,1.38,.89,2.84,1.1,4.4Zm3.62,5.22l-.62,.76c-.59-.88-1.25-1.67-1.98-2.37-.47,1.65-1.21,3.09-2.2,4.33l-.63-.64c.79-.96,1.38-2.11,1.79-3.48s.61-3.36,.61-5.99v-5.58h.91v4.95c.47-.47,.97-1.08,1.48-1.8l.58,.74c-.53,.73-1.22,1.46-2.09,2.2,.02,1.48-.06,2.89-.25,4.25,.94,.84,1.74,1.72,2.39,2.65Zm4.41-11.75c0,.22-.36,.95-1.08,2.2s-1.83,2.44-3.33,3.58l-.63-.64c1.03-.77,1.84-1.52,2.43-2.27-.45-.35-1.08-.76-1.89-1.23l.45-.69c.75,.45,1.38,.88,1.89,1.28,.52-.69,.92-1.44,1.19-2.23h-3.33v-.84h4.31v.84Zm5.58,14.02h-9.96v-.91h2.9c-.3-.93-.64-1.78-1.01-2.58l.54-.4h-1.34v-3.85h7.38v3.85h-1.16l.42,.34c-.25,.8-.64,1.68-1.15,2.63h3.38v.91Zm-2.43-4.81v-2.05h-5.53v2.05h5.53Zm-.43-4.33h-4.72v-.88h4.72v.88Zm-.22,5.26h-4.19c.45,1,.82,1.99,1.12,2.97h1.84c.56-1.07,.97-2.06,1.24-2.97Zm3.33-5.04l-.57,.72c-2.34-1.61-3.95-3.87-4.83-6.79l.81-.26c.09,.36,.3,.9,.62,1.62,.55-.43,1.05-.88,1.51-1.37l.61,.54c-.64,.64-1.23,1.15-1.78,1.55,.2,.42,.41,.78,.62,1.06,.63-.4,1.28-.96,1.94-1.68l.62,.56c-.64,.67-1.34,1.26-2.07,1.76,.64,.81,1.48,1.58,2.52,2.29Z"/>
        <path class="cls-1" d="M224.81,336.79h-.91v-1.55h-3.88v1.91h-.91v-12.76h1.67c.45-.8,.88-1.83,1.28-3.09l.9,.18c-.21,.63-.62,1.6-1.22,2.91h3.08v12.4Zm-.91-7.63v-3.87h-3.88v3.87h3.88Zm0,5.17v-4.26h-3.88v4.26h3.88Zm9.92-9.92c-.07,2.7-.2,5.2-.39,7.51s-.38,3.68-.58,4.09-.44,.7-.74,.87-.87,.26-1.72,.26c-.37,0-.85,0-1.45-.03l-.29-.91c.49,.02,1.02,.03,1.59,.03,.53,0,.87,0,1.02-.02s.31-.09,.47-.22,.28-.3,.35-.48,.16-.87,.28-2.07,.21-2.51,.29-3.95,.13-2.83,.17-4.19h-4.69c-.63,1.25-1.35,2.43-2.18,3.56l-.74-.52c1.58-2.07,2.69-4.37,3.35-6.92l.91,.24c-.29,.96-.62,1.88-.98,2.75h5.33Zm-3.31,8.07l-.76,.54c-.58-1.34-1.45-2.73-2.61-4.19l.77-.5c1.08,1.3,1.94,2.69,2.59,4.16Z"/>
        <path class="cls-1" d="M253.7,323.35h-11.9c-1.03,1.57-2.03,2.75-3.02,3.52l-.54-.81c1.41-1.19,2.62-2.76,3.64-4.72l.97,.25c-.15,.3-.31,.58-.48,.83h11.34v.92Zm-10.26,5.54c-1.57,1.89-3.09,3.19-4.55,3.91l-.49-.76c1.47-.77,2.88-1.97,4.22-3.6l.83,.45Zm4.76,2.67c-.02,1-.09,1.99-.22,2.99s-.26,1.6-.37,1.81-.32,.4-.6,.57-.81,.25-1.58,.25c-.28,0-.55-.01-.83-.04l-.27-.91,1.78,.02c.35,0,.61-.23,.77-.68s.28-1.49,.35-3.12h-2.7c-.16,1.07-.72,2.04-1.67,2.94s-2.04,1.5-3.27,1.84l-.52-.82c1.18-.3,2.18-.81,3.01-1.53s1.32-1.52,1.47-2.43h-2.49v-.9h7.15Zm5.91,2.05c-.13,.83-.32,1.58-.56,2.24s-.45,1.05-.61,1.17-.34,.18-.55,.18c-.59,0-1.01-.66-1.28-1.97s-.4-2.52-.4-3.63v-4.03h-10.72v-.88h11.66v4.71c0,.62,.05,1.3,.14,2.07s.19,1.37,.31,1.82,.19,.69,.22,.72,.06,.04,.09,.04c.22,0,.5-.99,.86-2.96l.84,.54Zm-1.38-8.17h-10.7v-.91h10.7v.91Zm-2.52,6.46l-.62,.65c-.95-1.21-2.09-2.33-3.44-3.37l.58-.69c1.51,1.24,2.67,2.38,3.47,3.4Z"/>
        <path class="cls-1" d="M273.05,337.26h-.94v-.91h-12.16v.89h-.91v-15.3h14.02v15.32Zm-.94-1.7v-12.81h-6.6l.61,.43-.28,.83h4.25v1.97h1.08v.76h-10.41v-.76h3.3l.47-1.2h-2.88v-.77h3.19l.43-1.26h-5.31v12.81h6.1v-1.42h-4.41l.44-2.05h-1.32v-.76h5.29v-1.05h-4.32v-2.58h8.62v2.58h-3.37v1.05h3.61v.76h-3.61v1.29h4.19v.76h-4.19v1.42h5.12Zm-2.68-6.03v-1.06h-6.75v1.06h6.75Zm-3.38,3.85v-1.29h-2.97l-.28,1.29h3.25Zm3.09-7.41v-1.2h-3.61l-.47,1.2h4.08Z"/>
        <path class="cls-1" d="M283.78,328.08c-.28,.74-.74,1.48-1.37,2.23,.58,.56,1.02,1.05,1.32,1.48l-.63,.63c-.72-.87-1.39-1.56-2.01-2.06v6.79h-.94v-6.94c-.37,.47-.92,1.07-1.65,1.8l-.62-.72c1.83-1.86,3.17-3.87,4.02-6.05h-3.95v-.91h4.91v.91c-.53,1.43-1.12,2.64-1.78,3.63v.31c.22,.18,.44,.37,.66,.56,.52-.57,.93-1.25,1.25-2.06l.79,.4Zm-2.27-4.84l-.79,.58c-.34-.57-.88-1.17-1.61-1.82l.76-.54c.64,.52,1.19,1.11,1.64,1.78Zm12.09,13.52h-10.53v-.9h4.9v-2.73h-3.87v-.91h3.87v-2.36h-3.62v-7.94h8.46v7.94h-3.91v2.36h3.96v.91h-3.96v2.73h4.7v.9Zm-5.63-11.37v-2.56h-2.72v2.56h2.72Zm0,3.59v-2.66h-2.72v2.66h2.72Zm3.9-3.59v-2.56h-2.97v2.56h2.97Zm0,3.59v-2.66h-2.97v2.66h2.97Z"/>
        <path class="cls-1" d="M305.35,330.94c-.43-.23-.65-.52-.65-.87,0-.17,.07-.34,.22-.52s.35-.27,.62-.27c.56,0,.84,.37,.84,1.11,0,.6-.35,1.19-1.06,1.75l-.38-.29c.27-.36,.4-.66,.4-.91Z"/>
        <path class="cls-1" d="M333.21,336.7h-15.59v-.86h7.33v-2.14h-6.16v-.88h6.16v-1.2h.93v1.2h6.09v.88h-6.09v2.14h7.33v.86Zm-7.2-11.86h-3.66v3.35h1.91v-2.31h.9v3.14h-2.87c-.42,1.58-1.53,2.7-3.31,3.37l-.52-.79c1.58-.57,2.53-1.43,2.86-2.58h-2.66v-3.14h.86v2.31h1.95v-3.35h-3.69v-.85h8.24v.85Zm-4.81-1.63l-.84,.36c-.3-.62-.71-1.25-1.23-1.89l.77-.38c.62,.7,1.05,1.34,1.3,1.91Zm3.6-1.56c-.36,.66-.83,1.29-1.41,1.89l-.76-.45c.53-.56,.99-1.17,1.38-1.84l.78,.4Zm7.61,8.64c0,.87-.53,1.3-1.58,1.3-.56,0-1.13-.02-1.7-.06l-.29-.91c.54,.02,1.01,.03,1.41,.03,.52,0,.86-.04,1-.11s.22-.22,.22-.44v-1.91h-4.01c-.32,1.11-.81,2.12-1.49,3.01l-.74-.62c1.12-1.31,1.69-3.41,1.69-6.3v-2.46h5.49v8.47Zm-.94-2.99v-1.94h-3.63c-.02,.45-.09,1.09-.22,1.94h3.85Zm0-2.84v-1.77h-3.61v1.77h3.61Z"/>
        <path class="cls-1" d="M353.17,335.89l-.18,.92c-.6,.01-2.76,.02-6.46,.02-3.05,0-5.22-.66-6.5-1.99-.72,1.01-1.42,1.8-2.08,2.38l-.7-.63c1.68-1.37,2.84-3.28,3.51-5.76h-3.02v-.83c.83-1,1.76-2.22,2.79-3.68h-3.14v-.94h4.34v.94c-.52,.74-1.42,1.95-2.7,3.63h2.72v.89c-.32,1.18-.74,2.27-1.28,3.25,.62,.59,1.28,1.02,2,1.28s1.48,.42,2.27,.48,2.4,.09,4.82,.09c1.8,0,3.01-.02,3.61-.05Zm-12.08-11.79l-.7,.62c-.75-.98-1.63-1.87-2.65-2.66l.65-.67c1.13,.86,2.03,1.76,2.7,2.71Zm11.87,4.04h-10.63v-.88h4.96v-2.59h-2.9c-.54,.83-.92,1.39-1.13,1.68l-.77-.49c.98-1.23,1.72-2.63,2.21-4.21l.88,.2c-.24,.79-.49,1.44-.74,1.94h2.45v-2.38h.91v2.38h3.88v.88h-3.88v2.59h4.75v.88Zm-1.08,5.85h-8.19v-4.32h8.19v4.32Zm-.94-.88v-2.52h-6.31v2.52h6.31Z"/>
        <path class="cls-1" d="M372.59,323.89h-15.15v-.86h7.13c-.05-.35-.22-.83-.52-1.44l.91-.29c.21,.41,.4,.99,.58,1.73h7.05v.86Zm-.77,11.85c0,.42-.11,.76-.33,1.02s-.74,.39-1.56,.39c-.27,0-.6,0-.98-.03l-.31-.93c.73,.03,1.21,.04,1.46,.04,.53,0,.79-.22,.79-.66v-5h-11.7v6.57h-.92v-7.47h13.55v6.07Zm-1.76-7.28h-10.08v-3.42h10.08v3.42Zm-.99-.88v-1.63h-8.12v1.63h8.12Zm-.36,7.73h-7.38v-3.52h7.38v3.52Zm-.96-.87v-1.77h-5.45v1.77h5.45Z"/>
        <path class="cls-1" d="M384.52,325.13h-2.03v1.71h-.94v-1.71h-2.39c-.29,1.21-.81,2.11-1.55,2.69l-.65-.65c.94-.76,1.42-2.06,1.42-3.89,0-.29,0-.62-.03-1,2.12-.13,3.86-.38,5.22-.76l.5,.79c-1.42,.37-3.01,.62-4.77,.76,0,.13-.02,.54-.05,1.22h5.27v.84Zm5.91,9.25h-7.66l.45,.65c-1.63,1-3.56,1.69-5.78,2.08l-.47-.79c2.35-.47,4.19-1.12,5.53-1.94h-3.19v-6.93h11.13v6.93Zm-.91-4.93v-1.13h-9.25v1.13h9.25Zm0,2.01v-1.19h-9.25v1.19h9.25Zm0,2.09v-1.28h-9.25v1.28h9.25Zm3.02-8.43h-2.78v1.73h-.9v-1.73h-2.7c-.29,.87-.68,1.52-1.17,1.95l-.69-.62c.8-.67,1.2-1.82,1.2-3.44,0-.22,0-.46-.02-.72,1.82-.05,3.74-.32,5.76-.81l.49,.79c-1.97,.43-3.75,.7-5.35,.81,0,.52-.02,.91-.05,1.19h6.2v.84Zm.12,11.29l-.48,.78c-1.61-.6-3.46-1.1-5.56-1.49l.52-.83c2.37,.49,4.21,1,5.53,1.55Z"/>
        <path class="cls-1" d="M412.37,332.44c-.09,.79-.28,1.54-.57,2.27s-.62,1.09-1,1.09c-.43,0-.97-.45-1.62-1.34s-1.13-1.96-1.44-3.2c-.73,.77-1.44,1.38-2.14,1.84l-.62-.63c1.07-.8,1.9-1.56,2.49-2.29-.29-1.7-.48-3.65-.58-5.85h-7.63c.09,4.15-.52,7.14-1.84,8.96l-.7-.62c1.12-1.6,1.68-4.19,1.68-7.77,0-.42,0-.91-.02-1.46h8.44c-.02-.26-.03-.58-.03-.96s0-.72,.03-1.06h.94c-.03,.48-.04,.91-.04,1.29,0,.27,0,.51,.02,.73h4.46v.88h-4.4c.11,2.19,.26,3.81,.47,4.88,.91-1.27,1.69-2.54,2.34-3.81l.72,.5c-.7,1.44-1.65,2.93-2.87,4.48,.33,1.47,.75,2.57,1.27,3.3s.85,1.09,.99,1.09c.13,0,.28-.33,.47-.98s.29-1.26,.33-1.84l.84,.5Zm-12.78,.7c-.33,1.22-.83,2.29-1.49,3.18l-.72-.55c.62-.83,1.1-1.85,1.44-3.08l.77,.45Zm6.42-6.54h-5.89v-.83h5.89v.83Zm-.25,7.98c-.06,.68-.18,1.2-.38,1.56s-.45,.59-.77,.68-.92,.14-1.79,.14c-1.08,0-1.77-.1-2.06-.29s-.43-.56-.43-1.1v-3.11h.86v3.04c0,.19,.07,.34,.21,.44s.62,.16,1.42,.16c.87,0,1.42-.09,1.63-.28s.36-.74,.44-1.67l.86,.42Zm-.36-3.28h-4.86v-3.53h4.86v3.53Zm-.88-.84v-1.84h-3.09v1.84h3.09Zm-.38,3.37l-.76,.45c-.3-.53-.76-1.17-1.37-1.91l.74-.46c.57,.65,1.04,1.29,1.39,1.92Zm4.19,1.98l-.76,.48c-.39-.93-.88-1.79-1.48-2.58l.72-.5c.62,.84,1.12,1.71,1.51,2.59Zm2.83-13.25l-.7,.64c-.32-.37-.7-.72-1.15-1.06l.66-.64c.46,.34,.86,.69,1.2,1.06Z"/>
        <path class="cls-1" d="M421.39,321.62c-.23,.57-.53,1.22-.88,1.97l-.53,1.07v12.44h-.91v-10.67c-.6,1.03-1.3,1.99-2.09,2.88l-.55-.91c1.72-2.1,3.07-4.46,4.07-7.06l.9,.27Zm10.94,10.7c-.04,.76-.15,1.47-.36,2.14s-.4,1.09-.59,1.26-.4,.25-.64,.25c-.72,0-1.43-.87-2.11-2.61s-1.13-3.68-1.32-5.82h-4.12v5.76c.87-.28,2.04-.72,3.51-1.33l.11,.98c-1.15,.5-2.57,1-4.27,1.51l-.52-.91c.16-.42,.25-.78,.25-1.08v-9.36c3.66-.46,6.56-1.05,8.68-1.77l.59,.87c-.98,.31-2.21,.63-3.69,.95,.05,1.07,.14,2.21,.25,3.44h4.14v.94h-4.02c.18,1.99,.55,3.71,1.12,5.16s1.01,2.18,1.34,2.18c.36,0,.62-1.01,.78-3.04l.86,.49Zm-3.37,4.37h-6.6v-.91h6.6v.91Zm-1.8-10.1l-.28-3.23c-1.38,.25-2.61,.43-3.69,.55v2.68h3.97Z"/>
        <path class="cls-1" d="M451.97,332.87c-.05,1.85-.27,2.98-.66,3.39s-.88,.62-1.47,.62h-2.9c-.45,0-.8-.15-1.05-.44s-.38-.68-.38-1.14v-6.16h-3.08c-.04,1.83-.45,3.42-1.23,4.76s-2.18,2.46-4.2,3.36l-.7-.85c3.49-1.28,5.2-3.7,5.13-7.27h-4.9v-.98h7.11v-6.79h.97v6.79h7.2v.98h-5.33v6.16c0,.18,.06,.33,.18,.45s.26,.19,.44,.19h2.7c.47,0,.79-.25,.95-.74s.25-1.37,.25-2.62l.98,.29Zm-10.68-6.25l-.83,.54c-.58-1.34-1.4-2.7-2.46-4.09l.79-.58c1.27,1.8,2.1,3.17,2.5,4.12Zm8.96-3.85c-.84,1.82-1.68,3.26-2.51,4.34l-.82-.54c1.02-1.32,1.83-2.72,2.42-4.19l.91,.4Z"/>
        <path class="cls-1" d="M471.9,331.1h-15.75v-.88h7.44v-1.56h-5.72v-.87h5.72v-1.45c-1.41,.08-2.92,.13-4.55,.16l-.29-.88c1.62,0,3.24-.06,4.84-.17v-1.15h.9v1.08c1.38-.08,2.86-.3,4.45-.67l.49,.77c-1.46,.33-3.11,.58-4.94,.74v1.56h5.73v.87h-5.73v1.56h7.42v.88Zm-.72-5.09h-.93v-2.32h-12.35v2.21h-.92v-3.06h6.81c-.18-.52-.38-.94-.58-1.26l.91-.31c.28,.59,.49,1.11,.62,1.56h6.44v3.17Zm-1.38,11.12h-.98v-.77h-9.63v.77h-.93v-4.59h11.54v4.59Zm-.98-1.72v-1.98h-9.63v1.98h9.63Z"/>
        <path class="cls-1" d="M482.21,336.79h-.91v-1.55h-3.88v1.91h-.91v-12.76h1.67c.45-.8,.88-1.83,1.28-3.09l.9,.18c-.21,.63-.62,1.6-1.22,2.91h3.08v12.4Zm-.91-7.63v-3.87h-3.88v3.87h3.88Zm0,5.17v-4.26h-3.88v4.26h3.88Zm9.92-9.92c-.07,2.7-.2,5.2-.39,7.51s-.38,3.68-.58,4.09-.44,.7-.74,.87-.87,.26-1.72,.26c-.37,0-.85,0-1.45-.03l-.29-.91c.49,.02,1.02,.03,1.59,.03,.53,0,.87,0,1.02-.02s.31-.09,.47-.22,.28-.3,.35-.48,.16-.87,.28-2.07,.21-2.51,.29-3.95,.13-2.83,.17-4.19h-4.69c-.63,1.25-1.35,2.43-2.18,3.56l-.74-.52c1.58-2.07,2.69-4.37,3.35-6.92l.91,.24c-.29,.96-.62,1.88-.98,2.75h5.33Zm-3.31,8.07l-.76,.54c-.58-1.34-1.45-2.73-2.61-4.19l.77-.5c1.08,1.3,1.94,2.69,2.59,4.16Z"/>
        <path class="cls-1" d="M504.23,325.26l-.65,.69c-1.08-1.3-2.22-2.39-3.44-3.28-.6,.79-1.54,1.74-2.81,2.86h5.17v.91h-2.2v2.01h2.9v.91h-2.9v2h2.68v5.81h-.91v-.84h-4.36v.84h-.93v-5.81h2.63v-2h-3.24v-.91h3.24v-2.01h-2.14v-.83c-.37,.31-.72,.59-1.05,.83l-.52-.83c1.95-1.4,3.35-2.83,4.19-4.29l.96,.29c-.08,.14-.15,.26-.22,.36,1.28,.9,2.48,2,3.6,3.3Zm-2.16,10.15v-3.14h-4.36v3.14h4.36Zm9.22-7.42c-.23,1.94-.61,3.46-1.12,4.55l-.91-.31c.41-.86,.74-1.98,.98-3.37h-2.52v7.08c0,.28-.12,.54-.35,.8s-.78,.39-1.63,.39c-.32,0-.62-.01-.9-.04l-.34-.9c1.27,0,1.98-.04,2.12-.12s.21-.26,.21-.53v-6.68h-2.94v-.88h4.12c-.9-1.07-2-2.1-3.31-3.09l.65-.58c.76,.56,1.48,1.16,2.16,1.8,.75-1.03,1.42-2.1,2.01-3.23h-5.63v-.9h6.7v.9c-.65,1.24-1.47,2.52-2.47,3.82,.23,.26,.48,.54,.74,.86l-.45,.41h2.88Z"/>
        <path class="cls-1" d="M16.48,372.06l-.31,.86-7.16-.07c-2.5,0-4.4-.62-5.69-1.85-.54,.84-1.2,1.61-1.98,2.29l-.63-.7c1.58-1.26,2.7-3.17,3.35-5.72H1v-.82c.71-.74,1.69-1.96,2.95-3.65H.76v-.89H5.07v.91l-2.85,3.59h2.79v.85c-.15,.88-.57,2.02-1.27,3.42,.79,.75,1.8,1.25,3.04,1.49s4.46,.34,9.69,.29Zm-11.92-12.08l-.72,.62c-.87-1.04-1.71-1.87-2.53-2.47l.64-.64c1.11,.85,1.98,1.68,2.61,2.5Zm11.74-.12h-2.94l.61,.48c-.22,.5-.51,1.02-.88,1.55h2.61v8.17c0,.34-.13,.61-.38,.82s-.85,.28-1.8,.23l-.23-.9c.42,.02,.75,.04,.98,.04,.36,0,.54-.17,.54-.51v-6.98h-3.46v1.34h2.61v.83h-2.61v1.49h1.84v3.35h-4.52v-3.35h1.8v-1.49h-2.65v-.83h2.65v-1.34h-3.45v8.4h-.88v-9.27h2.44c-.23-.6-.49-1.13-.76-1.58l.6-.45h-2.76v-.84h4.72c-.17-.31-.44-.73-.81-1.25l.88-.36c.38,.53,.73,1.07,1.05,1.61h4.79v.84Zm-3.14,0h-4.48c.36,.7,.67,1.38,.92,2.03h2.41c.4-.6,.78-1.27,1.15-2.03Zm-.83,9.09v-1.72h-2.79v1.72h2.79Z"/>
        <path class="cls-1" d="M36.17,368.87c-.05,1.85-.27,2.98-.66,3.39s-.88,.62-1.47,.62h-2.9c-.45,0-.8-.15-1.05-.44s-.38-.68-.38-1.14v-6.16h-3.08c-.04,1.83-.45,3.42-1.23,4.76s-2.18,2.46-4.2,3.36l-.7-.85c3.49-1.28,5.2-3.7,5.13-7.27h-4.9v-.98h7.11v-6.79h.97v6.79h7.2v.98h-5.33v6.16c0,.18,.06,.33,.18,.45s.26,.19,.44,.19h2.7c.47,0,.79-.25,.95-.74s.25-1.37,.25-2.62l.98,.29Zm-10.68-6.25l-.83,.54c-.58-1.34-1.4-2.7-2.46-4.09l.79-.58c1.27,1.8,2.1,3.17,2.5,4.12Zm8.96-3.85c-.84,1.82-1.68,3.26-2.51,4.34l-.82-.54c1.02-1.32,1.83-2.72,2.42-4.19l.91,.4Z"/>
        <path class="cls-1" d="M45.48,368.82c-2.05,1.29-3.65,2.21-4.81,2.77l-.4-.81c.67-.33,1.36-.71,2.07-1.13v-5.15h-1.76v-.84h1.76v-4.12h-1.98v-.86h4.79v.86h-1.89v4.12h1.67v.84h-1.67v4.63c.77-.45,1.45-.87,2.05-1.27l.17,.96Zm9.55-1.15h-5.07c-.46,.67-1.05,1.29-1.75,1.85v2.41c.97-.28,1.94-.62,2.9-1.01l.18,.85c-1.68,.64-3.01,1.12-3.99,1.44l-.38-.83c.26-.21,.4-.43,.4-.68v-1.51c-.88,.55-1.56,.93-2.04,1.15l-.45-.76c1.73-.77,3.1-1.74,4.1-2.92h-2.7v-3.04h8.8v3.04Zm.94-4.17h-10.62v-.89h10.62v.89Zm-.7-2.09h-9.33v-3.51h9.33v3.51Zm-6.48-.84v-1.84h-1.92v1.84h1.92Zm5.33,6.28v-1.35h-6.99v1.35h6.99Zm-2.54-6.28v-1.84h-1.87v1.84h1.87Zm4.5,11.82l-.43,.82c-1.04-.39-2-1.01-2.87-1.86s-1.47-1.75-1.78-2.72l.77-.28c.27,.63,.57,1.16,.91,1.6,.83-.39,1.55-.88,2.16-1.49l.65,.55c-.5,.52-1.24,1.06-2.21,1.63,.64,.71,1.57,1.29,2.8,1.76Zm-1.72-11.82v-1.84h-1.82v1.84h1.82Z"/>
        <path class="cls-1" d="M65.11,369.61c-1.83,.87-3.4,1.51-4.71,1.94l-.29-.84,2.03-.76v-6.87h-1.89v-.87h1.89v-4.55h.89v4.55h1.41v.87h-1.41v6.5c.68-.27,1.32-.56,1.92-.86l.16,.9Zm10.78,.54c-.05,.91-.12,1.52-.21,1.83s-.27,.56-.53,.73-.76,.26-1.49,.26c-.93,0-1.55-.08-1.85-.25s-.45-.49-.45-.98v-2.94h-2.05c-.09,.96-.58,1.88-1.47,2.77s-2.11,1.43-3.67,1.63l-.4-.82c2.71-.38,4.24-1.57,4.59-3.58h-2.25v-5.17h8.73v5.17h-2.59v2.86c0,.24,.12,.36,.36,.36l1.24,.04c.42,0,.68-.04,.8-.11s.21-.27,.28-.59,.11-.83,.11-1.52l.86,.32Zm0-7.79h-10.78v-.85h2.94c-.15-.64-.35-1.24-.61-1.79h-1.87v-.87h4.46c-.13-.38-.3-.79-.51-1.26l.84-.25c.29,.55,.49,1.05,.6,1.51h4.54v.87h-1.91c-.19,.53-.45,1.13-.77,1.79h3.08v.85Zm-1.96,3.44v-1.3h-6.89v1.3h6.89Zm0,2.16v-1.3h-6.89v1.3h6.89Zm-1.39-8.24h-4.1c.24,.64,.43,1.24,.58,1.79h2.79c.31-.57,.56-1.17,.74-1.79Z"/>
        <path class="cls-1" d="M87.82,363.52c.5,0,.93,.17,1.29,.52s.54,.78,.54,1.3-.16,.95-.49,1.29-.75,.51-1.27,.51c-.47,0-.88-.15-1.24-.45s-.54-.76-.54-1.38c0-.58,.18-1.02,.55-1.33s.75-.46,1.17-.46Zm1.09,1.83c0-.31-.11-.56-.32-.75s-.47-.29-.76-.29-.54,.1-.73,.31-.29,.45-.29,.73c0,.26,.09,.5,.28,.73s.44,.34,.76,.34c.3,0,.56-.1,.76-.3s.3-.46,.3-.77Z"/>
      </g>
      <g>
        <path d="M11.04,278.9c-.04,.31-.21,.52-.76,.59,.46,7.83,2.35,13.12,9.59,16.27l-.04,.23c-.88,.13-1.49,.61-1.74,1.53-5.54-3.02-7.35-7.92-7.96-14.3-.4,5.17-1.91,10.48-9.47,14.34l-.27-.34c8.15-5.31,8.06-12.11,8.08-18.6l2.56,.27Z"/>
        <path d="M31.02,283.86c-.12,.21-.31,.31-.84,.23-.48,.67-1.11,1.41-1.83,2.18l.71,.27c-.08,.17-.27,.31-.63,.38v10.16c-.04,.15-.71,.5-1.37,.5h-.31v-9.74c-1.01,.94-2.14,1.85-3.3,2.58l-.23-.23c2.21-2.14,4.45-5.4,5.52-7.58l2.27,1.24Zm-.29-4.3c-.13,.21-.34,.29-.8,.21-1.36,1.45-3.7,3.4-6.07,4.64l-.21-.23c1.91-1.64,3.95-4.16,4.91-5.9l2.16,1.28Zm10.33,4.12s1.26,.97,1.97,1.66c-.04,.23-.25,.34-.54,.34h-3.36v9.43c0,1.28-.38,2.2-2.86,2.39-.04-.55-.23-.97-.61-1.22-.42-.29-1.11-.5-2.41-.67v-.31s3.02,.21,3.59,.21c.44,0,.59-.15,.59-.46v-9.36h-6.63l-.17-.61h9.38l1.05-1.39Zm-9.11-2.83l-.17-.63h7.39l1.07-1.34s1.2,.97,1.93,1.64c-.04,.23-.27,.34-.57,.34h-9.66Z"/>
        <path d="M56.28,286.67c.84,3.4,3.28,6.87,9.49,9.09l-.04,.25c-.92,.1-1.49,.48-1.68,1.45-5.75-2.69-7.52-7.03-8.19-10.79h-4.2c-.17,3.67-1.05,7.89-4.91,10.85l-.27-.21c3.07-3.63,3.55-8.13,3.55-12.43v-5.79l1.97,.8h9.01l.88-.97,1.89,1.45c-.15,.17-.46,.36-.88,.44v6.66c-.02,.15-.86,.48-1.41,.48h-.27v-1.28h-4.93Zm-4.58-1.81c0,.38,0,.78-.02,1.2h9.53v-5.56h-9.51v4.37Z"/>
        <path d="M73.39,286.31c0,3.55-.21,8.17-3.53,11.34l-.31-.21c1.99-3.28,2.16-7.35,2.16-11.11v-6.11l1.97,.78h12.2l1.11-1.43s1.26,.99,2.02,1.7c-.06,.23-.27,.34-.57,.34h-15.05v4.7Zm12.98,4.43c-.17,.21-.4,.27-.94,.27-.9,1.32-2.06,2.46-3.46,3.36,2.08,.78,4.56,1.2,7.29,1.39l-.02,.25c-.74,.17-1.22,.73-1.39,1.53-2.92-.44-5.35-1.13-7.33-2.35-2.33,1.22-5.19,1.97-8.59,2.37l-.13-.34c2.96-.59,5.58-1.51,7.68-2.77-1.22-.94-2.16-2.18-2.9-3.72h-1.6l-.19-.63h8.78l1.13-.94,1.66,1.57Zm-3.76-1.57v-.88h-4.2v.71c0,.15-.71,.44-1.3,.44h-.32v-4.33h-2.83l-.17-.63h3v-2.31l2.35,.25c-.04,.27-.21,.46-.74,.55v1.51h4.2v-2.31l2.37,.25c-.04,.27-.23,.46-.76,.55v1.51h1.51l.97-1.34s1.13,.94,1.78,1.64c-.06,.23-.27,.34-.57,.34h-3.7v3.59c0,.15-.71,.46-1.3,.46h-.32Zm-5.5,1.57c.82,1.28,2.02,2.27,3.44,3.02,1.22-.88,2.2-1.89,2.92-3.02h-6.36Zm1.07-12.74c4.66,.48,3.42,3.76,1.7,2.75-.29-.88-1.18-1.97-1.89-2.6l.19-.15Zm4.43,9.68v-2.56h-4.2v2.56h4.2Z"/>
      </g>
    </g>
  </g>
</svg>