<?xml version="1.0" encoding="UTF-8"?>
<svg id="_圖層_2" data-name="圖層 2" xmlns="http://www.w3.org/2000/svg" viewBox="0 0 511.52 203.15">
  <defs>
    <style>
      .cls-1 {
        fill: #333;
      }
    </style>
  </defs>
  <g id="_圖層_1-2" data-name="圖層 1">
    <g>
      <g>
        <path class="cls-1" d="M8.59,45.98H3.38c-.53,.78-1.22,1.58-2.06,2.4l-.76-.65c1.31-1.1,2.38-2.54,3.23-4.34l.84,.4c-.15,.36-.38,.81-.69,1.34h4.64v.86Zm-3.02,3.16c-.43,.83-.93,1.62-1.51,2.36v7.66h-.91v-6.6c-.61,.68-1.33,1.34-2.16,2l-.4-.9c1.61-1.2,2.97-2.79,4.09-4.79l.9,.27Zm1.01-.99l-.86,.36c-.21-.6-.57-1.23-1.1-1.87l.84-.38c.5,.6,.87,1.23,1.12,1.89Zm9.72,3.52h-2.63v6.11c0,.4-.13,.74-.4,1s-.57,.4-.92,.4c-1.82,0-2.84,0-3.08-.02l-.31-.91c.74,.05,1.41,.08,2.01,.08,.89,0,1.4-.04,1.54-.12s.21-.24,.21-.47v-6.06H5.41v-.88h7.32v-1.77h.94v1.77h2.63v.88Zm-6.21,3.96l-.77,.58c-.53-.84-1.43-1.81-2.72-2.92l.7-.62c1.17,.97,2.1,1.96,2.79,2.95Zm6.25-9.65h-5.74c-.56,.83-1.24,1.63-2.02,2.42l-.81-.51c1.62-1.69,2.72-3.22,3.29-4.57l.84,.45c-.23,.52-.47,.97-.74,1.35h5.17v.86Zm-2.39,2.11l-.87,.34c-.31-.62-.72-1.21-1.22-1.78l.84-.4c.53,.58,.94,1.19,1.25,1.84Z"/>
        <path class="cls-1" d="M36.21,48.62l-.61,.79c-3.02-1.26-5.47-2.86-7.33-4.8-1.62,1.63-4.05,3.24-7.29,4.82l-.6-.81c3.28-1.39,5.9-3.19,7.87-5.38l.91,.36c-.05,.13-.13,.27-.26,.4,1.88,1.89,4.32,3.43,7.3,4.62Zm-2.27,10.59h-.95v-1.2h-9.41v1.2h-.97v-7.15h11.34v7.15Zm-.95-2.14v-4.05h-9.41v4.05h9.41Zm-.04-7.51h-9.33v-.96h9.33v.96Z"/>
        <path class="cls-1" d="M55.85,48.86l-.51,.84c-3.43-1.51-5.87-3.16-7.32-4.95-1.42,1.95-3.9,3.59-7.42,4.95l-.48-.9c3.08-1.09,5.32-2.46,6.71-4.12h-1.75v-.92h3.42c1.32,1.95,3.77,3.64,7.35,5.1Zm-.43,9.91h-14.85v-.9h6.97v-3.45h-4.96v-.91h4.96v-3.33h-4.93v-.88h10.78v.88h-4.91v3.33h4.9v.91h-4.9v3.45h6.95v.9Z"/>
        <path class="cls-1" d="M65.62,54.65c-1.45,.83-3.22,1.78-5.33,2.83l-.4-.79c1.09-.53,1.95-.97,2.58-1.32v-4.9h-2.13v-.84h2.13v-4.14h-2.3v-.86h5.41v.86h-2.21v4.14h1.89v.84h-1.89v4.39c.66-.31,1.39-.72,2.2-1.22l.05,1Zm3.37-.55c-1.53,1.69-2.77,2.87-3.73,3.52l-.59-.74c1.17-.83,2.44-2.02,3.83-3.58l.48,.79Zm6.8,2.94l-.54,.77c-1.93-1.72-3.36-3.83-4.29-6.34v6.21c0,.42-.13,.78-.38,1.08-.25,.31-.83,.46-1.72,.46-.39,0-.76-.02-1.12-.07l-.25-.9c.52,.05,.99,.07,1.42,.07,.47,0,.78-.05,.93-.15,.14-.1,.22-.29,.22-.55v-10.13h-4.59v-.86h4.59v-3.21h.91v3.21h4.77v.86h-4.77v.89c.1,1.02,.41,2.07,.92,3.15,1.07-.79,1.98-1.68,2.73-2.68l.72,.59c-.74,.97-1.78,1.95-3.09,2.94,.64,1.39,1.82,2.95,3.54,4.67Zm-6.71-5.53l-.77,.55c-.56-.98-1.31-1.96-2.27-2.93l.76-.56c1.06,1.12,1.82,2.1,2.29,2.94Zm5.84-6.1l-.74,.62c-.43-.59-1.02-1.15-1.75-1.71l.65-.65c.7,.5,1.31,1.08,1.84,1.73Z"/>
        <path class="cls-1" d="M95.57,58.13l-.31,.83h-4.89c-2.86,0-4.93-.31-6.2-.93-1.27-.62-2.22-1.43-2.84-2.44-.16,1.15-.42,2.32-.77,3.52l-.81-.45c.64-2.1,.96-4.63,.97-7.58l.84,.12c0,.73-.05,1.75-.15,3.06,.49,.84,1.06,1.54,1.7,2.09v-6.51h-3.24v-.91h3.08v-2.52h-2.67v-.84h2.67v-2.18h.9v2.18h1.91v.84h-1.91v2.52h2.65v.91h-2.49v3.01h1.73v.88h-1.73v3.26c1.31,.76,3.23,1.13,5.77,1.13h5.79Zm-.79-6.86c0,2.88-.15,4.6-.44,5.18s-.97,.86-2.03,.86c-.19,0-.43,0-.71-.03l-.31-.83c.34,.02,.64,.03,.91,.03,.57,0,.95-.07,1.12-.22,.17-.14,.28-.27,.33-.37,.04-.1,.09-.61,.14-1.52s.08-1.67,.08-2.28h-5.48c-.6,.56-1.18,.96-1.75,1.22l-.54-.67c1.12-.54,2.03-1.31,2.73-2.3l.77,.36c-.08,.12-.22,.31-.41,.55h5.58Zm0-6.42c-.04,2.72-.19,4.34-.43,4.86-.25,.51-.82,.77-1.71,.77-.16,0-.38,0-.68-.03l-.29-.84c.61,.04,.98,.05,1.12,.05,.5,0,.8-.25,.91-.75s.17-1.58,.17-3.23h-5.65c-.44,.55-.94,1.01-1.49,1.39l-.51-.65c1.1-.78,1.94-1.79,2.52-3.04l.74,.4c-.18,.4-.39,.76-.63,1.08h5.94Zm-2.11,10.34h-2.37c-.24,1.14-1.26,1.87-3.06,2.18l-.47-.77c1.39-.15,2.26-.62,2.61-1.41h-2.14v-2.06h.81v1.25h1.49c.06-.51,.09-1.08,.09-1.71l.83,.02c0,.65-.02,1.22-.06,1.7h1.46v-1.25h.81v2.06Zm.02-6.63h-2.22c-.38,1.15-1.41,1.8-3.08,1.92l-.3-.77c1.28-.09,2.09-.48,2.43-1.15h-1.96v-1.91h.83v1.1h1.37c.06-.41,.09-.91,.09-1.51h.81c.02,.35,0,.86-.05,1.51h1.26v-1.1h.84v1.91Z"/>
        <path class="cls-1" d="M107.79,49.29h-1.7c-.73,0-1.09-.36-1.09-1.08v-.95h-1.77c-.49,1.27-1.53,2.24-3.14,2.89l-.43-.74c1.32-.52,2.2-1.24,2.63-2.15h-2.61v-.83h3.71v-1.13h-2.8v-.83h2.8v-.98h.89v.98h3.09v.83h-3.09v1.13h3.37v.83h-1.78v.95c0,.19,.11,.29,.34,.29h1.58v.79Zm-.29,3.38c-2.51,.35-5,.62-7.49,.83l-.09-.88c1.42-.1,2.58-.2,3.47-.31v-1.39h-2.64v-.83h2.64v-1.44h.89v1.44h2.82v.83h-2.82v1.3c.76-.08,1.83-.21,3.22-.41v.86Zm6.3,1.82c-.08,1.58-.21,2.67-.41,3.26s-.47,.98-.83,1.16c-.35,.19-.91,.28-1.67,.28l-1.52-.03-.36-.95c.53,.04,1.36,.05,2.5,.05,.51,0,.85-.26,1.02-.79s.26-1.23,.26-2.11h-5.4c-1.1,2.37-3.35,3.66-6.77,3.88l-.47-.91c3.26-.22,5.33-1.21,6.19-2.97h-5.51v-.88h5.91c.15-.38,.27-.8,.38-1.26l.92,.09c-.04,.35-.13,.74-.27,1.17h6.03Zm1.53-3.9c-.23,1.92-.72,2.87-1.45,2.87-.46,0-.84-.34-1.12-1.01-.29-.67-.43-1.62-.43-2.86v-3.09h-1.35c-.11,1.27-.24,2.29-.39,3.06,.44,.56,.88,1.16,1.32,1.82l-.65,.57c-.25-.43-.58-.9-.98-1.42-.37,.99-.86,1.84-1.48,2.56l-.82-.4c.84-1.01,1.39-1.99,1.64-2.94-.35-.47-.83-1-1.44-1.6l.63-.6c.36,.35,.71,.71,1.05,1.1,.12-.72,.2-1.44,.24-2.15h-1.82v-.89h1.85c.01-.33,.02-1.05,.02-2.14h.92c-.01,1.01-.03,1.72-.05,2.14h2.19v3.89c0,.85,.08,1.57,.23,2.15s.3,.88,.44,.88c.22,0,.42-.79,.6-2.36l.86,.4Z"/>
        <path class="cls-1" d="M119.14,51.61c0-2.19,.59-3.93,1.78-5.24s2.79-1.96,4.81-1.96c1.88,0,3.38,.64,4.53,1.92s1.72,2.92,1.72,4.94c0,2.17-.58,3.92-1.74,5.24s-2.74,1.98-4.74,1.98-3.46-.64-4.62-1.92-1.74-2.93-1.74-4.95Zm1.57-.14c0,1.63,.43,2.99,1.3,4.06,.87,1.07,2.03,1.6,3.48,1.6,1.55,0,2.76-.5,3.63-1.52,.86-1.01,1.3-2.38,1.3-4.12s-.42-3.19-1.25-4.2-2.02-1.51-3.55-1.51-2.68,.54-3.57,1.61c-.89,1.07-1.34,2.43-1.34,4.07Z"/>
        <path class="cls-1" d="M143.33,46.01h-5.35v4.8h4.96v1.37h-4.96v6.07h-1.49v-13.61h6.85v1.37Z"/>
        <path class="cls-1" d="M154.58,46.01h-5.35v4.8h4.96v1.37h-4.96v6.07h-1.49v-13.61h6.85v1.37Z"/>
        <path class="cls-1" d="M162.88,43.69l-1.26,2.92v12.56h-.96v-10.74c-.7,1.19-1.34,2.14-1.92,2.84l-.57-.88c1.28-1.52,2.57-3.89,3.87-7.11l.84,.41Zm11.27,12.24l-.62,.77c-2.34-2.33-4-4.87-4.96-7.63v10.11h-.95v-10.05c-.84,2.32-2.48,4.83-4.91,7.54l-.67-.79c2.61-2.68,4.35-5.43,5.24-8.26h-4.72v-.92h5.06v-3.26h.95v3.26h5.1v.92h-4.79c1.07,3.15,2.82,5.92,5.27,8.31Z"/>
        <path class="cls-1" d="M184.61,46.83h-3.83c0,.9-.01,1.83-.04,2.8h3.46c0,2.19-.04,4.06-.13,5.63s-.19,2.51-.32,2.83-.36,.58-.71,.78-.95,.31-1.81,.31l-.34-.95c.19,.01,.56,.02,1.1,.02,.6,0,.95-.35,1.06-1.06s.2-2.92,.26-6.64h-2.58c-.12,3.98-.72,6.9-1.8,8.77l-.74-.63c.64-1.1,1.08-2.47,1.31-4.13s.36-4.23,.4-7.73h-1.66v-.94h2.95c-.13-.62-.38-1.38-.76-2.29l.89-.29c.3,.79,.57,1.64,.81,2.58h2.48v.94Zm9.1-.25h-6.81c-.6,1-1.26,1.88-1.96,2.65l-.72-.65c1.31-1.33,2.38-3.07,3.22-5.22l.9,.36c-.3,.71-.61,1.36-.91,1.94h6.29v.92Zm-.98,1.87c-1.68,.67-3.63,1.22-5.85,1.65v7.8c.87-.27,1.84-.65,2.92-1.13l.22,.91c-1.38,.63-2.73,1.15-4.04,1.56l-.34-.89c.22-.13,.32-.33,.32-.59v-8.43c2.44-.41,4.53-.98,6.25-1.72l.52,.84Zm1.29,10.15l-.76,.69c-2.25-2.01-3.6-4.84-4.04-8.48l.91-.25c.04,.66,.21,1.57,.5,2.72,.84-.67,1.66-1.51,2.45-2.5l.65,.69c-.84,1.04-1.78,1.94-2.81,2.7,.53,1.54,1.56,3.02,3.09,4.45Z"/>
        <path class="cls-1" d="M201.37,53.25c-.7,2.1-1.61,4.09-2.73,5.98l-.74-.63c1.07-1.78,1.96-3.69,2.66-5.74l.81,.4Zm.04-2.81l-.62,.7c-.88-.93-1.83-1.73-2.87-2.43l.58-.74c1.24,.79,2.21,1.61,2.91,2.46Zm.13-4.75l-.76,.69c-.84-1.03-1.64-1.82-2.4-2.36l.65-.72c.8,.58,1.63,1.38,2.5,2.39Zm6.32,10.56h-2.58v2.91h-.89v-2.91h-2.72v-.85h2.72v-1.69h-2.01v-6.1h2.01v-1.64h-2.53v-.86h2.53v-1.7h.9v1.7h2.37v.86h-2.37v1.64h1.94v6.1h-1.96v1.69h2.58v.85Zm-1.49-6.13v-1.69h-3.07v1.69h3.07Zm0,2.74v-1.89h-3.07v1.89h3.07Zm6.87,5c0,.44-.14,.77-.41,.98-.28,.21-.75,.32-1.43,.32-.26,0-.55-.01-.85-.04l-.27-.88c.6,.06,1.05,.09,1.37,.09,.21,0,.38-.07,.52-.21s.22-.31,.22-.51v-4.23h-2.74c-.12,2.47-.57,4.41-1.35,5.84l-.77-.49c.37-.65,.68-1.58,.94-2.8s.39-3.1,.39-5.65v-6.42h4.39v14.02Zm-.86-5.34v-3.5h-2.63v1.42l-.04,2.07h2.67Zm0-4.41v-3.38h-2.63v3.38h2.63Z"/>
        <path class="cls-1" d="M225.37,52.96c-.43-.23-.65-.52-.65-.87,0-.17,.07-.34,.22-.52,.15-.18,.35-.27,.62-.27,.56,0,.84,.37,.84,1.11,0,.6-.35,1.19-1.06,1.75l-.38-.29c.27-.36,.4-.66,.4-.91Z"/>
        <path class="cls-1" d="M253.28,55.92h-3.8v1.76c0,1.01-.56,1.51-1.68,1.51-.44,0-1-.01-1.67-.04l-.43-.9c.38,.02,.85,.03,1.42,.03,.7,0,1.11-.03,1.23-.1s.18-.18,.18-.36v-1.91h-10.89v-.84h10.89v-.91h.96v.91h3.8v.84Zm-.24-10.51h-7.08v1.24h5.69v4.9h-.94c.86,.74,1.59,1.55,2.2,2.42l-.76,.52c-.33-.48-.62-.84-.86-1.08-4.84,.37-9.19,.56-13.05,.58l-.24-.83c2.19,.02,4.53-.03,7.02-.14v-1.46h-5.72v-4.9h5.72v-1.24h-7.15v-.83h7.15v-1.12h.94v1.12h7.08v.83Zm-8.02,3.25v-1.2h-4.79v1.2h4.79Zm0,2.07v-1.27h-4.79v1.27h4.79Zm-1.17,7.23l-.6,.72c-.85-.73-1.73-1.32-2.65-1.78l.6-.69c.84,.4,1.72,.98,2.65,1.76Zm6.87-9.31v-1.2h-4.76v1.2h4.76Zm0,2.07v-1.27h-4.76v1.27h4.76Zm-.21,1.89c-.33-.33-.56-.54-.67-.63l.59-.45h-4.47v1.41c1.89-.1,3.4-.21,4.55-.33Z"/>
        <path class="cls-1" d="M260.7,49.4c-.74,3.28-1.58,5.86-2.52,7.74l-.88-.62c1.02-1.83,1.83-4.3,2.43-7.43l.98,.3Zm8.88,4.65c-.07,1.14-.17,2.08-.31,2.84-.14,.76-.3,1.25-.48,1.48s-.43,.39-.73,.47-1.02,.13-2.13,.13c-.83,0-1.53-.02-2.08-.06-.55-.04-.95-.17-1.2-.39-.24-.23-.36-.55-.36-.97v-9.99h.97v9.72c0,.16,.05,.31,.15,.44s.2,.21,.3,.23,.55,.04,1.35,.04h2.34c.18,0,.36-.07,.54-.22,.18-.16,.33-.68,.45-1.57s.17-1.72,.16-2.5l1.03,.34Zm-1.68-5.8l-.81,.65c-.91-1.64-2.26-3.27-4.05-4.9l.74-.67c1.7,1.57,3.07,3.21,4.12,4.91Zm5.17,7.85l-1.01,.36c-.45-2-1.38-4.28-2.77-6.84l.88-.52c1.37,2.7,2.34,5.03,2.9,7Z"/>
        <path class="cls-1" d="M292.95,58.34h-15.73v-.93h7.37v-12.26h-6.61v-.99h14.15v.99h-6.57v12.26h7.39v.93Z"/>
        <path class="cls-1" d="M302.01,43.6c-.38,.86-.74,1.64-1.07,2.34l-.5,.99v12.25h-.97v-10.53c-1.03,1.45-1.72,2.37-2.09,2.76l-.52-.91c1.71-2,3.13-4.4,4.25-7.22l.9,.31Zm10.65,3.18h-5.7v3.14h4.91v.91h-4.91v3.37h5.26v.94h-5.26v4.04h-.96v-12.4h-1.67c-.59,1.36-1.44,2.77-2.56,4.22l-.63-.77c1.48-1.83,2.65-4.16,3.5-6.99l.84,.36c-.11,.4-.36,1.15-.76,2.25h7.94v.93Z"/>
        <path class="cls-1" d="M331.69,59.17h-1.01v-1.55h-12.11v1.55h-.98v-15.37h14.1v15.37Zm-1.01-2.51v-11.9h-12.11v11.9h12.11Zm-2.66-2.79h-6.84v-6.46h6.84v6.46Zm-.95-.95v-4.57h-4.94v4.57h4.94Z"/>
        <path class="cls-1" d="M343.12,46.54l-.56,.67c-.33-.35-.63-.65-.9-.91v.74h-3.12v-.5c-.58,.63-1.12,1.14-1.62,1.55l-.43-.83c1.44-1.22,2.51-2.53,3.23-3.93l.84,.27c-.02,.09-.08,.23-.18,.41,1.08,.86,2,1.7,2.74,2.52Zm-.29,10.94l-.7,.55c-.1-.23-.24-.49-.43-.77-1.01,.52-2.34,1.13-4,1.84l-.38-.86c.13-.1,.2-.23,.2-.4v-9.67h4.69v5.72h-3.81v3.91c.98-.36,1.93-.8,2.85-1.3-.3-.46-.58-.83-.83-1.13l.72-.5c.69,.92,1.25,1.79,1.7,2.61Zm-1.53-6.87v-1.59h-2.9v1.59h2.9Zm0,2.44v-1.62h-2.9v1.62h2.9Zm.25-6.86c-.52-.5-1.06-.97-1.62-1.41-.29,.45-.64,.92-1.06,1.41h2.68Zm9.94,10.26h-4.98l.41,.6c-.9,.81-2.15,1.54-3.76,2.16l-.45-.8c1.54-.59,2.73-1.25,3.56-1.96h-2.59v-6.35h7.81v6.35Zm.84-7.34h-9.47v-.79h4.23v-1.05h-3.45v-2.83h3.45v-1.03h.87v1.03h3.52v2.83h-3.52v1.05h4.37v.79Zm-5.24-2.61v-1.3h-2.56v1.3h2.56Zm3.45,5.41v-1.05h-5.95v1.05h5.95Zm0,1.85v-1.1h-5.95v1.1h5.95Zm0,1.89v-1.13h-5.95v1.13h5.95Zm.04-9.16v-1.3h-2.63v1.3h2.63Zm1.74,11.86l-.54,.77c-.97-.52-2.1-.99-3.38-1.42l.52-.76c1.11,.32,2.25,.78,3.4,1.4Z"/>
        <path class="cls-1" d="M370.43,59.17h-.97v-1.26h-10.41v1.26h-.97v-13.68h4.95c.43-.69,.76-1.41,.98-2.16l.95,.22c-.24,.7-.53,1.34-.88,1.94h6.35v13.68Zm-.97-10.05v-2.65h-10.41v2.65h10.41Zm0,3.8v-2.83h-10.41v2.83h10.41Zm0,4.07v-3.12h-10.41v3.12h10.41Z"/>
        <path class="cls-1" d="M391.54,54.17c-.13,1.96-.36,3.21-.66,3.76s-.9,.83-1.77,.84-3.06,.02-6.57,.02c-1.69,0-2.79,0-3.32-.03s-.95-.17-1.27-.46c-.32-.29-.48-.84-.48-1.67v-6.88h11.71v-5h-12.76v-.93h13.73v6.86h-11.73v6.37c0,.19,.07,.36,.2,.5,.13,.14,.28,.22,.44,.24s.84,.04,2.03,.06,2.31,.03,3.38,.03c2.44,0,3.92-.02,4.44-.06s.86-.13,1.01-.27,.28-.56,.4-1.25,.2-1.54,.23-2.54l.98,.41Z"/>
        <path class="cls-1" d="M403.47,47.08h-4.54c0,.77-.01,1.64-.04,2.59h3.6c0,2.18-.05,4.08-.16,5.69-.11,1.61-.23,2.56-.38,2.84s-.35,.49-.61,.63-.76,.21-1.49,.21c-.22,0-.52,0-.9-.02l-.31-.95c.43,.04,.85,.05,1.26,.05,.54,0,.88-.05,1.02-.16,.13-.11,.23-.25,.28-.43s.13-1.09,.22-2.73c.1-1.64,.13-3.04,.1-4.21h-2.7c-.11,3.22-.81,6.08-2.11,8.6l-.79-.61c.57-1.08,1.02-2.2,1.35-3.38s.54-2.46,.61-3.87c.07-1.41,.11-2.83,.13-4.26h-2.02v-.9h3.48c-.22-.71-.56-1.52-1.04-2.42l.9-.34c.37,.68,.75,1.6,1.15,2.76h2.97v.9Zm8.24,11.27l-.59,.83c-1.63-.85-2.95-1.84-3.93-2.96-.87,1.01-2.07,2-3.62,2.96l-.64-.71c1.65-.99,2.88-2.01,3.69-3.05-.73-1.18-1.28-2.55-1.64-4.1l.92-.25c.3,1.37,.75,2.54,1.33,3.52,1.09-1.74,1.71-4.24,1.87-7.49h-3.09c-.5,1.72-1.21,3.35-2.14,4.88l-.79-.54c1.42-2.18,2.36-4.9,2.81-8.16l.91,.24c-.18,1.11-.37,2.01-.55,2.68h5.36v.9h-1.55c-.23,3.51-.98,6.29-2.27,8.33,.93,1.17,2.23,2.14,3.92,2.92Z"/>
        <path class="cls-1" d="M431.48,53.9h-6.87v3.89c0,.39-.11,.7-.32,.93-.21,.22-.56,.36-1.03,.39-.47,.04-1.1,.06-1.89,.06-.38,0-.72,0-1.05-.02l-.4-.98c.52,.02,1.05,.04,1.61,.04,1.09,0,1.71-.05,1.88-.14,.16-.09,.24-.26,.24-.51v-3.66h-7.81v-.97h7.81v-3.23h-6.58v-.93h6.58v-3.19c-2.11,.24-4.22,.38-6.34,.41l-.41-.91c5.4-.1,9.67-.63,12.8-1.6l.56,.83c-1.74,.5-3.62,.87-5.65,1.12v3.35h5.83v.93h-5.83v3.23h6.87v.97Z"/>
        <path class="cls-1" d="M451.23,55.87h-6.97v2.05c0,.34-.12,.61-.37,.82-.25,.21-.54,.31-.87,.31h-2.75l-.4-.91h2.97c.11,0,.23-.06,.34-.18s.18-.23,.18-.35v-1.74h-7.76v-.89h7.76v-.97c1.41-.37,2.64-.74,3.69-1.12h-10.35v-.87h12.53v.87c-1.49,.57-3.15,1.14-4.97,1.71v.38h6.97v.89Zm-.18-10.01h-15.37v-.9h7.28c-.2-.37-.5-.8-.91-1.28l.83-.43c.38,.44,.78,1.01,1.2,1.71h6.96v.9Zm-1.81,4.74h-11.65v-3.37h11.65v3.37Zm-.94-.91v-1.55h-9.76v1.55h9.76Z"/>
        <path class="cls-1" d="M461.34,56.06c-1.73,1.15-3.54,2.09-5.41,2.81l-.62-.83c1.66-.57,3.48-1.46,5.44-2.66l.59,.69Zm9.69-1.6h-7.29v4.73h-.95v-4.73h-7.35v-.96h7.35v-1.15h.95v1.15h7.29v.96Zm-10.2-2.56l-.76,.41c-.11-.4-.19-.7-.26-.88l-4.05,.52-.19-.84c1.02-.91,1.95-1.97,2.8-3.17l-2.44,.31-.17-.76c.88-1.05,1.72-2.45,2.52-4.17l.83,.31c-.56,1.19-1.27,2.4-2.13,3.64l2.04-.22c.4-.59,.74-1.11,.99-1.55l.77,.43c-1.38,2.16-2.7,3.85-3.95,5.06l2.66-.33c-.06-.27-.2-.62-.41-1.05l.69-.4c.39,.67,.74,1.57,1.05,2.68Zm4.64-.02h-4.28v-6.89h1.24c.31-.5,.59-1.08,.84-1.73l.9,.2c-.17,.46-.42,.97-.76,1.53h2.05v6.89Zm-.91-4.02v-1.98h-2.49v1.98h2.49Zm0,3.17v-2.29h-2.49v2.29h2.49Zm6.6,7l-.62,.7c-1.46-.94-3.2-1.82-5.22-2.65l.59-.72c2.25,.96,4,1.85,5.26,2.66Zm.04-6.15l-.76,.47c-.05-.18-.14-.49-.28-.91l-4.05,.47-.2-.79c1.06-.97,1.97-2.05,2.74-3.24l-2.54,.25-.17-.7c.91-1.11,1.7-2.46,2.38-4.07l.83,.31c-.64,1.42-1.29,2.59-1.96,3.52l2.03-.21c.25-.39,.54-.89,.86-1.49l.83,.36c-1.2,2.12-2.42,3.83-3.66,5.13l2.59-.29c-.12-.38-.29-.76-.51-1.15l.74-.38c.5,.93,.88,1.84,1.12,2.73Z"/>
        <path class="cls-1" d="M482.77,52.96c-.43-.23-.65-.52-.65-.87,0-.17,.07-.34,.22-.52,.15-.18,.35-.27,.62-.27,.56,0,.84,.37,.84,1.11,0,.6-.35,1.19-1.06,1.75l-.38-.29c.27-.36,.4-.66,.4-.91Z"/>
        <path class="cls-1" d="M510.7,58.34h-15.68v-.95h15.68v.95Zm-1.27-13.17h-13.14v-.99h13.14v.99Z"/>
        <path class="cls-1" d="M5.8,87.26l-.73,.55c-.38-.79-.8-1.52-1.29-2.2v9.49h-.91v-8.56c-.64,1.75-1.21,2.96-1.7,3.63l-.61-.76c1.04-1.67,1.8-3.49,2.3-5.47H.85v-.91H2.87v-3.67h.91v3.67h1.29v.91h-1.29v.38c.83,.93,1.51,1.9,2.02,2.93Zm10.51,3.76h-2.82c-.36,.67-.83,1.29-1.41,1.88,1.76,.7,2.98,1.23,3.66,1.58l-.53,.73c-1.55-.76-2.85-1.32-3.91-1.67-1.52,1-3.42,1.54-5.71,1.62l-.47-.91c2.1,.04,3.82-.31,5.17-1.06-.78-.29-1.95-.63-3.52-1.01,.47-.38,.92-.76,1.33-1.16h-2.52v-.83h3.22c.33-.3,.71-.7,1.13-1.2h-3.31v-2.94h3.88v-.88h-3.63v-2.07h-1.24v-.82h1.24v-2h3.63v-.88h.92v.88h3.68v2h1.21v.82h-1.21v2.07h-3.68v.88h3.87v2.94h-4.21c-.26,.28-.64,.68-1.13,1.2h2.96c.11-.2,.22-.43,.32-.7l.86,.21c-.04,.16-.1,.33-.2,.49h2.43v.83Zm-5.82-2.84v-1.33h-2.96v1.33h2.96Zm0-5.92v-1.2h-2.72v1.2h2.72Zm0,2.08v-1.27h-2.72v1.27h2.72Zm1.97,6.67h-3.2c-.21,.19-.51,.45-.89,.76,.93,.23,1.84,.5,2.75,.8,.57-.51,1.01-1.03,1.34-1.56Zm1.71-8.75v-1.2h-2.75v1.2h2.75Zm0,2.08v-1.27h-2.75v1.27h2.75Zm.21,3.83v-1.33h-2.96v1.33h2.96Z"/>
        <path class="cls-1" d="M33.44,80.34h-4.21v6.89h-.98v-7.81h5.19v.92Z"/>
        <path class="cls-1" d="M55.97,94.74h-15.7v-.88h7.74v-2.01h-5.72v-.92h5.72v-1.94h-4.98c-.61,.75-1.27,1.41-1.99,1.98l-.83-.61c1.26-.9,2.43-2.22,3.52-3.96l.91,.36c-.3,.5-.62,.95-.96,1.35h4.32v-1.46h.93v1.46h6.21v.88h-6.21v1.94h5.77v.92h-5.77v2.01h7.02v.88Zm-1.48-8.73h-12.54v-6.13h12.54v6.13Zm-.95-3.59v-1.67h-10.64v1.67h10.64Zm0,2.71v-1.78h-10.64v1.78h10.64Z"/>
        <path class="cls-1" d="M75.65,90.89c-.05,1.85-.27,2.98-.66,3.39s-.88,.62-1.47,.62h-2.9c-.45,0-.8-.15-1.05-.44-.25-.29-.38-.67-.38-1.14v-6.16h-3.08c-.04,1.83-.45,3.42-1.23,4.76-.78,1.34-2.18,2.46-4.2,3.36l-.7-.85c3.49-1.28,5.2-3.7,5.13-7.27h-4.9v-.98h7.11v-6.79h.97v6.79h7.2v.98h-5.33v6.16c0,.18,.06,.33,.18,.45,.12,.13,.26,.19,.44,.19h2.7c.47,0,.79-.25,.95-.74,.17-.5,.25-1.37,.25-2.62l.98,.29Zm-10.68-6.25l-.83,.54c-.58-1.34-1.4-2.7-2.46-4.09l.79-.58c1.27,1.8,2.1,3.17,2.5,4.12Zm8.96-3.85c-.84,1.82-1.68,3.26-2.51,4.34l-.82-.54c1.02-1.32,1.83-2.72,2.42-4.19l.91,.4Z"/>
        <path class="cls-1" d="M86.74,94.02c-2.32,.4-4.6,.74-6.85,1.01l-.16-.74c.54-.07,.95-.13,1.2-.19v-3.17h.81v3.08c.6-.05,1.13-.12,1.59-.23v-3.96h-2.51v-3.04h5.24v3.04h-1.84v1.44h1.75v.77h-1.75v1.58c.73-.08,1.52-.2,2.37-.36l.13,.77Zm8.28-8.75h-.87v-2.61h-6.03v3.44h-.86v-3.44h-6.12v2.61h-.87v-3.45h6.99v-1.12h-6.32v-.84h13.39v.84h-6.21v1.12h6.9v3.45Zm-9.81,3.74v-1.46h-3.55v1.46h3.55Zm.97-3.47c-1.45,.34-2.7,.56-3.76,.67l-.25-.76c1.25-.12,2.5-.33,3.76-.63l.25,.72Zm-.09-1.91l-.17,.72c-1.48-.25-2.69-.36-3.61-.34l.25-.74c1.25,.04,2.43,.16,3.53,.36Zm9.54,7.44l-.47,.71c-.52-.14-.9-.24-1.15-.3v3.76h-.9v-.74h-4.5v.74h-.91v-3.76c-.21,.06-.5,.13-.86,.19l-.43-.69c1.64-.46,2.8-.86,3.49-1.2-.29-.16-.88-.57-1.77-1.24-.52,.39-.86,.63-1,.72l-.63-.54c1.27-.83,2.23-1.71,2.87-2.65l.74,.29c-.12,.22-.27,.43-.44,.65h4.48v.79c-.66,.68-1.48,1.33-2.44,1.94,1.14,.52,2.45,.96,3.92,1.32Zm-1.82,.33c-1.07-.32-2.07-.7-3.01-1.15-.76,.41-1.72,.79-2.91,1.15h5.91Zm-.69,2.29v-1.44h-4.5v1.44h4.5Zm-.19-5.89h-3.94s-.1,.1-.22,.19c.67,.53,1.35,.97,2.03,1.32,.79-.44,1.5-.94,2.13-1.51Zm.17-4.03c-1.12,.34-2.36,.59-3.71,.74l-.43-.72c1.36-.18,2.56-.41,3.61-.7l.53,.69Zm.18,1.75l-.26,.74c-.93-.22-2.23-.38-3.9-.49l.26-.77c1.41,.08,2.71,.25,3.9,.53Z"/>
        <path class="cls-1" d="M115.4,94.49l-.61,.81c-2.11-1.08-3.7-2.25-4.77-3.49-1.07-1.24-1.91-2.86-2.5-4.84-.76,3.39-3.17,6.18-7.23,8.35l-.72-.77c4.12-2.02,6.5-4.81,7.13-8.38h-6.64v-.91h6.79c.16-1.15,.27-2.63,.34-4.45h-6.24v-.93h13.18v.93h-5.99c-.04,1.74-.13,3.22-.27,4.45h7.11v.91h-6.64c.46,1.96,1.24,3.59,2.34,4.88,1.1,1.29,2.68,2.44,4.75,3.44Z"/>
        <path class="cls-1" d="M123.11,89.12c-.69,1.85-1.68,3.87-2.97,6.05l-.76-.62c1.08-1.72,2.05-3.7,2.92-5.94l.81,.52Zm-.26-3.16l-.59,.74c-.76-.67-1.67-1.33-2.74-1.96l.58-.77c1.01,.64,1.93,1.3,2.75,2Zm.81-4.09l-.66,.63c-1.11-.98-2.1-1.77-2.97-2.35l.61-.72c1.31,.92,2.31,1.73,3.02,2.43Zm3.81,4.12c-.29,2.74-1.71,5.44-4.24,8.1l-.72-.62c2.09-2.07,3.38-4.24,3.86-6.51h-2.85v-.98h3.95Zm7.75,7.16l-.76,.65c-2.29-2.04-3.93-4.48-4.91-7.33v7.64c0,.23-.09,.45-.28,.67s-.43,.35-.73,.39-.65,.06-1.05,.06c-.29,0-.61-.01-.96-.04l-.36-.95c.75,.03,1.29,.04,1.63,.04,.53,0,.8-.15,.8-.46v-10.12h-4.45v-.94h5.38v.65c.27,1.18,.7,2.42,1.28,3.73,1.45-1.18,2.58-2.26,3.37-3.24l.81,.58c-1.04,1.18-2.3,2.36-3.8,3.54,.73,1.73,2.07,3.45,4.03,5.13Zm-2.79-11.87l-.43,.83c-2.29-.84-4.26-1.44-5.91-1.78l.38-.86c2.49,.61,4.48,1.21,5.96,1.81Z"/>
        <path class="cls-1" d="M143.9,89.2c-1.35,2.62-2.65,4.61-3.88,5.97l-.68-.68c1.39-1.64,2.67-3.61,3.83-5.91l.72,.62Zm-.76-2.83l-.56,.81c-.86-.86-1.93-1.62-3.22-2.29l.57-.76c1.34,.73,2.41,1.47,3.21,2.23Zm1-4.62l-.55,.76c-1.05-.93-2.12-1.69-3.21-2.3l.53-.76c1.06,.59,2.14,1.36,3.23,2.31Zm10.77,9.57c-.02,1.03-.16,1.81-.4,2.36s-.58,.89-1.02,1.04c-.44,.15-1.66,.22-3.67,.22-1.79,0-2.88-.02-3.26-.06-.38-.04-.68-.18-.9-.43s-.33-.54-.33-.87v-7.7l-1.72,.52-.11-.95,1.83-.54v-3.94h.91v3.68l3.08-.9v-4.41h.9v4.14l4.2-1.27c-.1,3.3-.55,5.93-1.35,7.88l-.86-.31c.73-1.79,1.15-3.89,1.24-6.3l-3.23,.96v7.3h-.9v-7.01l-3.08,.9v7.81c0,.23,.11,.39,.32,.46,.21,.07,1.31,.11,3.28,.11s3.15-.06,3.4-.17c.25-.11,.44-.45,.56-1.02,.12-.56,.18-1.18,.18-1.83l.93,.33Z"/>
        <path class="cls-1" d="M161.67,94.34h4.21v-6.89h.98v7.81h-5.19v-.92Z"/>
        <path class="cls-1" d="M184.11,81.03h-1.87v12.78c0,.38-.11,.69-.34,.93-.23,.24-.57,.37-1.03,.39s-.99,.03-1.58,0l-.25-.97c.43,.02,.81,.04,1.16,.04,.5,0,.81-.05,.94-.15,.13-.1,.19-.24,.19-.42v-12.61h-2.81v-.94h5.6v.94Zm10.44-.11h-3.97c-.28,.76-.55,1.43-.84,2h3.96v8.73h-5.56l.54,.58c-1.01,1.02-2.41,2.02-4.19,2.99l-.62-.74c1.62-.82,2.96-1.76,4.04-2.83h-2.39v-8.73h3.22c.36-.73,.63-1.4,.81-2h-4.43v-.9h9.43v.9Zm-1.77,4.5v-1.56h-6.33v1.56h6.33Zm0,2.58v-1.63h-6.33v1.63h6.33Zm0,2.76v-1.84h-6.33v1.84h6.33Zm1.71,3.83l-.58,.74c-.83-.77-2-1.6-3.49-2.49l.58-.74c1.35,.77,2.51,1.6,3.49,2.49Z"/>
        <path class="cls-1" d="M214.39,94.29l-.54,.98c-4-1.27-6.45-3.13-7.37-5.56-.94,2.68-3.36,4.53-7.25,5.55l-.51-.98c3.64-.79,5.92-2.4,6.85-4.84h-6.82v-.97h7.05c.15-.47,.24-.97,.27-1.49h.94c-.02,.41-.09,.91-.2,1.49h7.45v.97h-6.87c.83,2.13,3.16,3.75,7,4.86Zm-10.62-13.43c-1.27,2.14-2.55,3.83-3.87,5.04l-.8-.65c1.46-1.31,2.74-2.93,3.84-4.86l.83,.47Zm3.2,5.37h-.95v-6.79h.95v6.79Zm6.71-.85l-.81,.56c-.93-1.69-2.12-3.31-3.58-4.84l.77-.58c1.37,1.44,2.57,3.06,3.61,4.86Z"/>
        <path class="cls-1" d="M224.72,79.76c-1.06,3.28-2.97,5.9-5.72,7.88l-.72-.72c2.64-1.79,4.48-4.29,5.5-7.49l.94,.33Zm8.17,15.09l-.84,.48c-.38-.93-.75-1.69-1.12-2.29-3.4,.88-6.78,1.46-10.13,1.76l-.27-.91c1.83-2.16,3.59-5.24,5.26-9.25l.91,.4c-1.52,3.6-3.11,6.5-4.76,8.7,2.32-.16,5.16-.67,8.53-1.53-.54-.96-1.27-2.07-2.2-3.33l.83-.49c1.66,2.29,2.93,4.45,3.8,6.47Zm1.35-8.07l-.61,.79c-2.16-1.41-3.88-3.72-5.17-6.94h-1.2v-.98h1.94c1.05,3.25,2.73,5.63,5.04,7.13Z"/>
        <path class="cls-1" d="M244.63,82.18h-6.37v-.94h2.81c-.16-.52-.4-1.05-.72-1.58l.83-.38c.36,.58,.65,1.23,.88,1.96h2.58v.94Zm-.5,5.26h-5.53v-.91h5.53v.91Zm.02-2.65h-5.53v-.91h5.53v.91Zm-.27,10h-.93v-.98h-3.26v1.33h-.93v-5.99h5.12v5.65Zm-.93-1.91v-2.79h-3.26v2.79h3.26Zm10.98,1.57l-.54,.77c-1.82-.6-3.23-1.29-4.22-2.07-1.15,.82-2.59,1.48-4.32,1.98l-.56-.77c1.81-.53,3.17-1.15,4.09-1.84-1.24-1.14-2.15-2.67-2.72-4.59h-.62v-.91h7.54v.91c-.77,2.1-1.67,3.64-2.7,4.61,1.02,.73,2.36,1.37,4.03,1.92Zm-.07-8.5h-1.75c-.86,0-1.29-.41-1.29-1.24v-3.88h-3.17c-.03,1.66-.25,2.89-.66,3.7-.41,.8-.98,1.44-1.71,1.9l-.7-.65c.71-.45,1.26-1.07,1.65-1.86,.38-.79,.56-2.12,.53-3.99h4.97v4.5c0,.4,.2,.61,.6,.61h1.55v.91Zm-2.29,1.98h-4.95c.62,1.77,1.46,3.1,2.53,4,1.07-.99,1.88-2.32,2.42-4Z"/>
        <path class="cls-1" d="M264.84,87.35h-2.77c-.19,2.66-1.23,5.03-3.13,7.11l-.79-.58c1.83-1.94,2.82-4.12,2.96-6.53h-3.01v-.94h3.08c.06-1.21,.09-2.29,.09-3.26h-2.78v-.88h2.79v-2.75h.9v2.75h2.36v.88h-2.36c-.02,1.14-.05,2.23-.09,3.26h2.73v.94Zm.02,4.69l-.72,.65c-.5-1.17-1.11-2.24-1.83-3.23l.69-.59c.73,1.05,1.35,2.1,1.85,3.16Zm8.89-.52c0,1.55-.15,2.52-.45,2.9-.3,.39-.84,.58-1.63,.58-.87,0-1.42-.14-1.63-.43-.21-.29-.32-.56-.32-.81v-4.34h-1.72c-.06,2.79-1.51,4.71-4.34,5.76l-.59-.76c2.73-.98,4.05-2.65,3.96-5h-1.63v-9.55h7.4v9.55h-2.14v4.17c0,.14,.05,.26,.15,.37,.1,.11,.39,.16,.87,.16,.43,0,.73-.11,.9-.33s.25-.81,.25-1.78c0-.24,0-.49-.02-.75l.97,.24Zm-1.91-8.74v-2.05h-5.53v2.05h5.53Zm0,2.85v-2h-5.53v2h5.53Zm0,2.97v-2.11h-5.53v2.11h5.53Z"/>
        <path class="cls-1" d="M283.56,86.59l-.68,.66c-.31-.64-.73-1.26-1.25-1.87v9.74h-.91v-8.9c-.77,1.74-1.55,3.1-2.34,4.08l-.63-.79c1.19-1.48,2.16-3.29,2.9-5.45h-2.44v-.92h2.51v-3.69h.91v3.69h1.82v.92h-1.82v.11c.68,.64,1.32,1.46,1.92,2.43Zm10.1,.74l-.57,.83c-1.68-.64-3.16-1.39-4.45-2.25-1.58,1-3.14,1.75-4.68,2.23l-.53-.79c1.7-.56,3.16-1.25,4.39-2.06-.84-.71-1.5-1.45-1.96-2.23-.41,.35-.81,.67-1.2,.94l-.77-.65c1.85-1.28,3.15-2.64,3.93-4.09l.93,.29c-.2,.4-.49,.84-.88,1.31h4.62v.89c-.94,1.49-1.95,2.7-3.04,3.61,1.18,.77,2.58,1.43,4.19,1.97Zm-1.36,7.79h-.92v-.77h-5.54v.77h-.94v-6.6h7.4v6.6Zm-.92-1.69v-3.96h-5.54v3.96h5.54Zm0-11.68h-4.19c-.12,.16-.33,.38-.63,.68,.51,.88,1.21,1.67,2.09,2.35,1.11-.86,2.03-1.87,2.73-3.02Z"/>
        <path class="cls-1" d="M305.22,88.96c-.43-.23-.65-.52-.65-.87,0-.17,.07-.34,.22-.52,.15-.18,.36-.27,.62-.27,.56,0,.84,.37,.84,1.11,0,.6-.36,1.19-1.06,1.75l-.38-.29c.27-.36,.4-.66,.4-.91Z"/>
        <path class="cls-1" d="M322.1,89.2c-1.35,2.62-2.64,4.61-3.88,5.97l-.68-.68c1.39-1.64,2.67-3.61,3.83-5.91l.72,.62Zm-.76-2.83l-.56,.81c-.86-.86-1.93-1.62-3.22-2.29l.57-.76c1.34,.73,2.4,1.47,3.21,2.23Zm1-4.62l-.55,.76c-1.05-.93-2.12-1.69-3.21-2.3l.53-.76c1.06,.59,2.14,1.36,3.23,2.31Zm10.77,9.57c-.02,1.03-.16,1.81-.4,2.36s-.58,.89-1.02,1.04c-.44,.15-1.66,.22-3.67,.22-1.79,0-2.88-.02-3.26-.06-.38-.04-.68-.18-.9-.43s-.33-.54-.33-.87v-7.7l-1.72,.52-.11-.95,1.83-.54v-3.94h.9v3.68l3.08-.9v-4.41h.9v4.14l4.2-1.27c-.1,3.3-.55,5.93-1.35,7.88l-.86-.31c.73-1.79,1.15-3.89,1.24-6.3l-3.23,.96v7.3h-.9v-7.01l-3.08,.9v7.81c0,.23,.11,.39,.32,.46,.21,.07,1.31,.11,3.28,.11s3.15-.06,3.4-.17c.25-.11,.43-.45,.56-1.02,.12-.56,.19-1.18,.19-1.83l.93,.33Z"/>
        <path class="cls-1" d="M352.83,82.07h-13.1v4.98c0,3.37-.55,6.06-1.64,8.08l-.79-.57c.45-.83,.81-1.94,1.09-3.33,.28-1.39,.42-3.4,.42-6.05v-4.02h6.64c-.11-.4-.35-.93-.74-1.58l.94-.25c.29,.54,.57,1.16,.83,1.84h6.35v.91Zm.16,9.3c-.22,1.29-.5,2.25-.83,2.89-.33,.63-.78,.95-1.34,.95-.84,0-1.62-.75-2.36-2.26-.73-1.51-1.18-3.14-1.34-4.89h-4.36v3.82c1.56-.3,2.9-.64,4.02-.99v.91c-1.46,.49-3.2,.89-5.22,1.2l-.25-.87c.35-.11,.52-.32,.52-.62v-7.29c3.63-.12,6.76-.54,9.4-1.26l.52,.81c-1.33,.38-2.63,.66-3.91,.83-.02,1.05,.03,1.91,.13,2.58h4.43v.9h-4.31c.19,1.68,.58,3.14,1.18,4.37s1.1,1.85,1.49,1.85c.56,0,1.01-1.12,1.34-3.37l.88,.47Zm-4.98,3.42h-6.25v-.88h6.25v.88Zm-.99-7.63c-.09-.96-.14-1.76-.14-2.41-1.28,.16-2.65,.27-4.1,.34v2.07h4.25Z"/>
        <path class="cls-1" d="M360.66,86.55l-.62,.72c-.7-.74-1.68-1.51-2.94-2.3l.62-.7c1.1,.61,2.08,1.37,2.94,2.29Zm.38,2.61c-1.03,2.5-2.09,4.49-3.19,5.98l-.72-.62c1.04-1.45,2.08-3.41,3.12-5.89l.79,.54Zm.16-7.44l-.59,.74c-.7-.78-1.65-1.56-2.87-2.35l.67-.74c1.14,.78,2.07,1.56,2.79,2.35Zm11.63,9h-5.11v3.08c0,.33-.09,.61-.26,.84-.17,.22-.36,.37-.55,.44-.2,.07-.65,.1-1.36,.1-.47,0-.95-.02-1.42-.05l-.31-.93c1.64,.03,2.54,.02,2.71-.03s.25-.17,.25-.37v-3.08h-5.19v-.91h5.19v-1.15c1.64-.83,2.69-1.4,3.14-1.71h-7.8v-.92h9.61v.88c-1.41,.91-2.74,1.67-4.01,2.29v.61h5.11v.91Zm-.9-10.37c-2.36,.66-5.66,1.14-9.92,1.46l-.35-.92c3.62-.19,6.9-.65,9.84-1.4l.43,.86Zm-7.63,4.74l-.87,.33c-.26-.76-.75-1.67-1.46-2.75l.85-.29c.6,.8,1.1,1.7,1.48,2.71Zm3.45-.2l-.84,.29c-.32-.98-.72-1.9-1.21-2.76l.91-.28c.51,.9,.89,1.82,1.15,2.75Zm4.39-2.83c-.6,1.32-1.28,2.44-2.03,3.37l-.86-.47c.75-.83,1.43-1.9,2.05-3.22l.84,.32Z"/>
        <path class="cls-1" d="M382.44,90.69c-1.92,1.09-3.67,2.03-5.26,2.81l-.39-.79,2.45-1.24v-4.99h-2.13v-.84h2.13v-4.09h-2.31v-.88h5.4v.88h-2.18v4.09h1.91v.84h-1.91v4.48c.66-.35,1.35-.72,2.07-1.13l.21,.86Zm10.15,1.34c-.06,.82-.19,1.44-.38,1.86s-.42,.7-.69,.85c-.27,.14-.78,.21-1.54,.21-.4,0-.75,0-1.04-.03s-.54-.12-.71-.32c-.17-.2-.26-.5-.26-.93v-4.21h-1.66c-.26,2.94-1.89,4.86-4.89,5.77l-.57-.76c2.82-.74,4.34-2.41,4.55-5.01h-1.85v-9.55h7.79v9.55h-2.45v4.21c0,.13,.05,.24,.17,.31s.47,.11,1.06,.11c.56,0,.91-.06,1.04-.17,.13-.11,.26-.42,.39-.91s.19-.96,.19-1.42l.86,.43Zm-2.18-9.31v-1.94h-5.98v1.94h5.98Zm0,2.9v-2.03h-5.98v2.03h5.98Zm0,2.97v-2.11h-5.98v2.11h5.98Z"/>
        <path class="cls-1" d="M412.1,89.86h-7.63c-.9,2.77-3.39,4.53-7.47,5.29l-.5-.84c3.77-.66,6.1-2.14,6.98-4.45h-6.69v-.9h1.71v-3.95h5.56v-1.71h.93v1.71h5.37v3.95h1.74v.9Zm-8.03-7.59h-2.29v1.82h-.94v-1.82h-4.21v-.88h4.21v-1.97h.94v1.97h2.29v.88Zm-.07,3.66h-4.55v3.04h4.26c.17-.84,.27-1.86,.29-3.04Zm5.41,3.04v-3.04h-4.43c-.04,1.04-.12,2.05-.26,3.04h4.69Zm2.88-6.7h-4.19v1.82h-.94v-1.82h-2.29v-.88h2.29v-1.97h.94v1.97h4.19v.88Zm.05,12.16l-.54,.83c-1.93-1.37-4.18-2.57-6.73-3.62l.5-.84c2.3,.94,4.55,2.15,6.77,3.63Z"/>
        <path class="cls-1" d="M432.15,94.49l-.65,.84c-2.84-.91-5.24-2.23-7.2-3.95-1.95,1.69-4.36,2.99-7.21,3.89l-.69-.79c3.02-.88,5.43-2.14,7.21-3.78-1.7-1.77-3.02-3.91-3.97-6.42l.86-.4c.9,2.47,2.17,4.55,3.81,6.23,1.73-1.95,2.95-4.26,3.67-6.93h-11.52v-.94h7.52c-.46-.94-.99-1.8-1.58-2.59l.94-.36c.73,1.07,1.28,2.06,1.65,2.95h7.15v.94h-3.2c-.8,3.04-2.1,5.55-3.91,7.54,1.79,1.61,4.16,2.85,7.11,3.74Z"/>
        <path class="cls-1" d="M451.81,93.57l-.63,.81c-2.26-1.17-3.96-2.6-5.1-4.3,.09,.49,.13,1.01,.13,1.56,0,1.5-.24,2.46-.71,2.87-.47,.41-1.26,.62-2.35,.62-.33,0-.64-.01-.91-.04l-.31-.93c.37,.05,.76,.07,1.19,.07,.73,0,1.21-.07,1.44-.22,.23-.15,.41-.38,.54-.69s.19-.88,.19-1.71c0-.49-.04-.99-.11-1.49-2.23,1.76-5.03,3.17-8.4,4.25l-.51-.81c3.83-1.19,6.71-2.68,8.64-4.48-.13-.57-.3-1.02-.48-1.36-1.78,1.37-4.19,2.49-7.22,3.37l-.53-.89c2.92-.67,5.36-1.78,7.33-3.33-.16-.3-.4-.65-.72-1.06-1.78,.88-3.65,1.53-5.63,1.95l-.5-.87c3.08-.61,5.45-1.51,7.13-2.7h-5.24v-.91h10.22v.91h-3.6c-.42,.38-.95,.77-1.6,1.19,.64,.84,1.17,1.85,1.58,3.02,1.83-.95,3.2-1.92,4.1-2.93l.67,.66c-.96,1.03-2.28,2-3.96,2.9,1.14,1.91,2.93,3.42,5.35,4.54Zm-.62-9.55h-.93v-2.25h-12.31v2.25h-.94v-3.16h6.85c-.14-.46-.32-.9-.53-1.31l.92-.31c.16,.35,.37,.88,.62,1.62h6.32v3.16Z"/>
        <path class="cls-1" d="M459.68,83.81c-.09,.3-.3,.79-.61,1.46l-.47,.99v8.98h-.93v-7.44c-.34,.52-.76,1.07-1.25,1.63l-.47-.9c1.22-1.44,2.2-3.15,2.92-5.12l.81,.38Zm.05-3.97c-1.05,1.89-2.1,3.27-3.13,4.14l-.56-.69c1.11-1.01,2.07-2.3,2.88-3.86l.81,.4Zm2.21,12.29c-.56,.84-1.33,1.63-2.32,2.36l-.65-.62c.97-.74,1.72-1.47,2.25-2.2l.72,.45Zm4.72-1.1l-.74,.44c-.1-.26-.23-.52-.4-.8l-1.87,.22v3.33c0,.42-.13,.7-.4,.84-.27,.15-.82,.2-1.66,.17l-.36-.89c.78,0,1.23-.02,1.36-.05,.13-.04,.19-.13,.19-.27v-3.02c-.8,.09-1.79,.17-2.97,.24l-.21-.72c1.15-.46,2.2-1.09,3.13-1.89l-2.66,.14-.24-.74c1.15-.63,2.01-1.37,2.58-2.23h-2.63v-.83h6.39v.83h-2.63c-.63,.83-1.38,1.55-2.25,2.16,.8-.02,1.6-.07,2.4-.16,.6-.6,.92-.92,.95-.96l.83,.4c-1.31,1.37-2.6,2.4-3.88,3.08,1.35-.09,2.54-.21,3.57-.33-.22-.37-.42-.67-.6-.89l.72-.41c.5,.66,.96,1.44,1.39,2.36Zm-.54-7.18h-5.85v-3.31h.89v2.47h1.65v-3.49h.87v3.49h1.56v-2.47h.88v3.31Zm.12,9.65l-.68,.47c-.42-.79-.81-1.4-1.2-1.85l.72-.43c.43,.53,.81,1.13,1.15,1.82Zm5.62,1.1l-.59,.7c-1.01-.83-1.8-1.7-2.38-2.59-.58,.88-1.34,1.74-2.29,2.58l-.72-.56c1.22-1.08,2.05-2.03,2.49-2.84-.59-1.11-1.04-2.6-1.35-4.45l.83-.24c.29,1.66,.63,2.88,1,3.64,.63-1.46,1.03-3.9,1.18-7.31h-1.52c-.52,1.53-1.06,2.68-1.62,3.46l-.77-.46c1.16-1.73,1.95-4.08,2.37-7.03l.91,.16c-.21,1.28-.42,2.29-.65,3.01h3.06v.86h-.86c-.16,3.78-.68,6.55-1.55,8.32,.47,.86,1.29,1.78,2.46,2.75Z"/>
        <path class="cls-1" d="M482.23,82.18h-6.37v-.94h2.81c-.16-.52-.4-1.05-.72-1.58l.83-.38c.36,.58,.65,1.23,.88,1.96h2.57v.94Zm-.5,5.26h-5.53v-.91h5.53v.91Zm.02-2.65h-5.53v-.91h5.53v.91Zm-.27,10h-.93v-.98h-3.26v1.33h-.93v-5.99h5.12v5.65Zm-.93-1.91v-2.79h-3.26v2.79h3.26Zm10.98,1.57l-.54,.77c-1.82-.6-3.23-1.29-4.22-2.07-1.15,.82-2.59,1.48-4.31,1.98l-.56-.77c1.81-.53,3.17-1.15,4.09-1.84-1.24-1.14-2.15-2.67-2.71-4.59h-.62v-.91h7.54v.91c-.77,2.1-1.67,3.64-2.7,4.61,1.02,.73,2.37,1.37,4.04,1.92Zm-.07-8.5h-1.75c-.86,0-1.29-.41-1.29-1.24v-3.88h-3.17c-.03,1.66-.25,2.89-.66,3.7-.41,.8-.98,1.44-1.71,1.9l-.7-.65c.71-.45,1.26-1.07,1.65-1.86,.38-.79,.56-2.12,.53-3.99h4.97v4.5c0,.4,.2,.61,.6,.61h1.55v.91Zm-2.29,1.98h-4.95c.62,1.77,1.46,3.1,2.53,4,1.07-.99,1.88-2.32,2.42-4Z"/>
        <path class="cls-1" d="M503.12,82.52h-7.45v-.94h3.4c-.26-.61-.62-1.25-1.07-1.92l.9-.36c.4,.55,.8,1.31,1.22,2.29h3.01v.94Zm-.91,2.58h-5.7v-.91h5.7v.91Zm0,2.53h-5.7v-.88h5.7v.88Zm0,7.38h-.92v-.88h-3.85v1.02h-.93v-5.79h5.7v5.65Zm-.92-1.84v-2.92h-3.85v2.92h3.85Zm10.08-7.63h-3.59v9.64h-.98v-9.64h-3.59v-.96h3.59v-5.12h.98v5.12h3.59v.96Z"/>
        <path class="cls-1" d="M8.22,124.96c-.43-.23-.65-.52-.65-.87,0-.17,.07-.34,.22-.52,.15-.18,.36-.27,.62-.27,.56,0,.84,.37,.84,1.11,0,.6-.36,1.19-1.06,1.75l-.38-.29c.27-.36,.4-.66,.4-.91Z"/>
        <path class="cls-1" d="M25.46,122.99l-.65,.64c-.53-.8-.95-1.39-1.24-1.78v9.33h-.89v-8.83c-.65,1.86-1.24,3.21-1.76,4.05l-.58-.89c.91-1.51,1.67-3.52,2.29-6.05h-2.08v-.86h2.14v-3.17h.89v3.17h1.58v.86h-1.58v1.08c.66,.7,1.29,1.51,1.89,2.43Zm5.52-6.23h-.83v14.46h-.9v-3.84c-1.73,.63-3.18,1.06-4.34,1.28l-.21-.92,1.48-.33v-10.65h-1.1v-.9h5.9v.9Zm-1.72,2.66v-2.66h-2.18v2.66h2.18Zm0,3.6v-2.7h-2.18v2.7h2.18Zm0,3.4v-2.47h-2.18v3.21c.79-.24,1.51-.49,2.18-.74Zm5.09-4c1.18,1.45,1.78,2.9,1.78,4.35,0,.76-.15,1.34-.45,1.74s-.85,.6-1.65,.6c-.21,0-.44,0-.7-.03l-.25-.96c.29,.03,.6,.04,.92,.04,.54,0,.89-.11,1.03-.33,.14-.22,.21-.55,.21-.99,0-.68-.17-1.42-.51-2.21s-.79-1.48-1.35-2.06c.61-1.93,1.13-3.76,1.56-5.49h-2.3v14.12h-.9v-15.06h4.14v.94c-.37,1.46-.88,3.24-1.53,5.33Z"/>
        <path class="cls-1" d="M47.6,124.04l-.63,.74c-.48-.8-1.21-1.7-2.18-2.72v9.11h-.91v-9.5c-.95,1.96-1.99,3.64-3.13,5.06l-.58-.82c1.4-1.72,2.61-3.8,3.62-6.24h-3.17v-.92h3.26v-3.35h.91v3.35h2.54v.92h-2.54v1.15c1.09,1.03,2.03,2.1,2.81,3.22Zm8.42,3.14l-.62,.7c-1.14-1.31-2.29-3.3-3.45-5.98v9.26h-.93v-9.3c-1.14,2.4-2.4,4.41-3.78,6.01l-.58-.79c1.75-2.1,3.19-4.58,4.32-7.42h-2.87v-.92h2.9v-3.35h.93v3.35h3.81v.92h-3.71c.91,2.84,2.24,5.34,3.97,7.51Z"/>
        <path class="cls-1" d="M64.99,129.81h-.91v-.87h-2.5v1.54h-.9v-13.79h4.32v13.12Zm-.91-7.54v-4.7h-2.5v4.7h2.5Zm0,5.79v-4.9h-2.5v4.9h2.5Zm11.61-.33c-.06,1.02-.2,1.8-.42,2.35-.22,.55-.72,.82-1.49,.82-1.02,0-1.66-.02-1.92-.06s-.47-.15-.62-.33c-.15-.18-.23-.51-.23-1v-4.45h-.21c-.28,1.22-.89,2.38-1.84,3.49-.94,1.11-2.06,2-3.35,2.67l-.65-.72c2.68-1.42,4.3-3.23,4.88-5.44h-3.37v-4.61c-.33,.26-.57,.45-.74,.55l-.68-.55c1.63-1.32,2.98-3.04,4.03-5.13l.85,.34c-.18,.42-.4,.84-.67,1.26h4.17v.89c-.43,.67-.98,1.45-1.65,2.34h3.23v4.91h-3.08v4.5c0,.15,.08,.26,.23,.34,.16,.07,.5,.11,1.04,.11,.45,0,.78-.03,1-.08,.21-.05,.37-.41,.46-1.05,.09-.64,.14-1.14,.14-1.48l.88,.33Zm-3.38-9.91h-3.57c-.64,.9-1.28,1.68-1.92,2.34h3.83c.64-.76,1.19-1.54,1.66-2.34Zm-2.07,3.26h-2.84v3.09h2.63c.14-.97,.21-2,.21-3.09Zm3.86,3.09v-3.09h-2.9c-.04,1.3-.12,2.33-.24,3.09h3.14Z"/>
        <path class="cls-1" d="M95.82,127.66c-.04,.45-.17,1.08-.4,1.89-.23,.81-.45,1.28-.65,1.41-.2,.12-.41,.19-.63,.19-.35,0-.64-.16-.86-.47s-.39-1.07-.52-2.25-.19-2.43-.19-3.75v-7.92h-9.93v5.4c0,3.45-.74,6.44-2.23,8.98l-.79-.7c1.4-2.58,2.1-5.38,2.1-8.4v-6.19h11.76v10.4c0,.65,.07,1.45,.21,2.39s.24,1.43,.31,1.46c.06,.03,.11,.05,.13,.05,.32,0,.59-1,.8-3l.89,.52Zm-3.35,2.92l-.83,.47c-.18-.5-.39-.92-.62-1.27-1.89,.32-4.65,.62-8.28,.91l-.34-.88c2.17-.11,3.78-.23,4.83-.36v-3.14h-2.99v-4.78h2.99v-2.04h-3.71v-.91h8.38v.91h-3.78v2.04h2.95v4.78h-2.95v3.03c.85-.08,1.67-.2,2.47-.36-.21-.36-.52-.8-.94-1.34l.8-.45c1,1.37,1.67,2.49,2.01,3.38Zm-5.24-5.17v-2.99h-2.07v2.99h2.07Zm2.94,0v-2.99h-2.04v2.99h2.04Z"/>
        <path class="cls-1" d="M109.2,124.4l-.63,.69c-.87-.96-1.84-1.81-2.9-2.58l.67-.7c1.2,.9,2.15,1.76,2.87,2.59Z"/>
        <path class="cls-1" d="M127.45,124.93l-.62,.76c-1-1.28-1.91-2.26-2.73-2.92v8.35h-.94v-7.83c-.97,1.84-2.04,3.35-3.23,4.52l-.6-.76c.61-.64,1.16-1.3,1.66-2s.98-1.51,1.46-2.46,.71-1.5,.71-1.64v-.07h-3.71v-.88h3.71v-2.72c-1.15,.18-2.12,.31-2.9,.4l-.33-.9c2.84-.29,5.1-.77,6.79-1.42l.57,.81c-.69,.26-1.75,.57-3.18,.92v2.92h3.35v.88h-3.35v.74c1.16,.9,2.28,2.01,3.35,3.31Zm7.68,5.86l-.91,.46c-.28-1.08-.47-1.77-.56-2.06-2.6,.77-4.88,1.37-6.86,1.8l-.29-.9c.66-1.1,1.25-2.61,1.78-4.54,.53-1.93,.96-5.32,1.3-10.16l.99,.08c-.35,4.48-.76,7.7-1.24,9.65-.47,1.95-.98,3.5-1.53,4.66,2.46-.59,4.31-1.11,5.55-1.56-.37-1.14-1.04-2.85-2.03-5.12l.9-.43c1.32,2.99,2.29,5.69,2.9,8.11Z"/>
        <path class="cls-1" d="M151.5,119.59c-1.68,1.95-3.81,3.58-6.41,4.9,0,.15,.08,.26,.25,.32,.17,.06,.87,.09,2.1,.09s2.09-.05,2.45-.15c.36-.1,.58-.79,.66-2.06l.87,.45c-.04,.76-.16,1.34-.39,1.74-.22,.41-.5,.66-.82,.76-.32,.1-.99,.15-2,.15-1.75,0-2.8-.03-3.17-.1-.37-.07-.65-.32-.85-.74-1.54,.69-3.03,1.3-4.47,1.82l-.44-.76c1.82-.63,3.42-1.29,4.83-1.97v-5.11h.94v4.62c2.32-1.18,4.25-2.68,5.77-4.52l.67,.56Zm-8.01,.69c-1.14,1.41-2.32,2.58-3.55,3.52l-.65-.67c1.1-.8,2.25-1.92,3.45-3.37l.76,.52Zm10.72,.13h-.91v-2.7h-12.38v2.7h-.92v-3.6h6.75c-.1-.38-.28-.8-.54-1.26l.84-.29c.25,.46,.46,.98,.65,1.55h6.51v3.6Zm-1.19,10.78h-.94v-.47h-11v-3.69h.94v2.83h4.45v-3.6h.93v3.6h4.68v-2.83h.94v4.16Zm-4.59-10.71l-.74,.48c-.53-.84-1.1-1.57-1.71-2.2l.79-.48c.56,.56,1.11,1.29,1.66,2.2Zm6.41,3.64l-.69,.62c-.71-1.05-1.67-2.16-2.87-3.31l.69-.57c1.28,1.25,2.24,2.34,2.87,3.26Z"/>
        <path class="cls-1" d="M174.79,127.85h-3.47v2c0,.37-.11,.65-.33,.84-.22,.19-.49,.31-.8,.35s-.83,.06-1.53,.06h-1.05l-.34-.91c.58,.05,1.1,.07,1.56,.07,.77,0,1.22-.05,1.35-.14,.13-.09,.19-.22,.19-.4v-1.87h-11.27v-.85h11.27v-1.2h-9.86v-6.41h4.16c.04-.4,.05-.88,.05-1.44h-5.5v-.88h15.29v.88h-5.45v1.44h4.25v6.41h-1.98v1.2h3.47v.85Zm-2.44-2.92v-2.65h-2.88c-.9,0-1.35-.46-1.35-1.37v-.67h-2.65c-.34,1.36-1.49,2.3-3.45,2.83l-.55-.53v2.38h10.89Zm-7.87-4.68h-3.02v2.04c1.7-.39,2.71-1.07,3.02-2.04Zm.95,9.62l-.61,.76c-.69-.59-1.55-1.17-2.59-1.75l.57-.76c.87,.42,1.74,1,2.63,1.75Zm-1-13.45l-.77,.5c-.4-.42-.81-.76-1.23-1.04l.7-.54c.47,.31,.9,.67,1.3,1.08Zm6.96,7.61h-8.85v-.76h8.85v.76Zm-3.28-4.64v-1.44h-2.46c0,.58-.02,1.06-.05,1.44h2.51Zm4.24,2.03v-1.17h-3.3v.74c0,.29,.16,.43,.47,.43h2.83Zm-.94-5.59c-.42,.41-.86,.79-1.33,1.13l-.83-.53c.5-.35,.94-.72,1.32-1.12l.84,.51Z"/>
        <path class="cls-1" d="M184.67,128.01c-1,.93-2.72,1.88-5.15,2.85l-.63-.83c2.09-.69,3.79-1.57,5.12-2.65l.67,.63Zm9.64-1.71h-7.14v4.88h-.97v-4.88h-7.16v-.88h7.16v-1.55h.97v1.55h7.14v.88Zm-8.06-5.55l-.58,.68c-1.04-.87-1.96-1.51-2.75-1.92-.54,.86-1.56,1.56-3.04,2.11l-.55-.81c.8-.26,1.49-.59,2.06-.98s.95-.89,1.12-1.5,.27-1.55,.27-2.81h.9c.02,.42-.01,1.05-.09,1.87,.67-.32,1.36-.78,2.08-1.39l.56,.74c-.8,.67-1.75,1.26-2.83,1.75l-.05,.21c1.31,.8,2.28,1.48,2.9,2.06Zm-4.79-2.69l-.79,.47c-.23-.54-.65-1.28-1.26-2.21l.76-.43c.54,.63,.97,1.35,1.29,2.17Zm12.4,6.59h-.91v-1.58h-12.55v1.58h-.95v-2.49h14.41v2.49Zm.29-3.83l-.55,.7c-.98-.71-2.1-1.36-3.35-1.95-.64,.76-1.66,1.39-3.04,1.92l-.54-.77c1.43-.57,2.37-1.16,2.83-1.74,.46-.59,.67-1.74,.62-3.44h.92c.02,.61-.01,1.26-.09,1.96,.67-.29,1.53-.83,2.57-1.6l.6,.64c-.94,.8-2.05,1.46-3.31,1.99-.05,.13-.08,.22-.11,.26,1.49,.74,2.64,1.42,3.45,2.04Zm-5.12-2.76l-.79,.42c-.35-.83-.75-1.57-1.2-2.23l.77-.49c.45,.67,.85,1.44,1.22,2.3Zm5.42,12.12l-.58,.72c-1.2-.88-2.92-1.79-5.16-2.74l.7-.76c2.47,1.18,4.15,2.1,5.04,2.78Z"/>
        <path class="cls-1" d="M206.22,124.96c-.43-.23-.65-.52-.65-.87,0-.17,.07-.34,.22-.52,.15-.18,.36-.27,.62-.27,.56,0,.84,.37,.84,1.11,0,.6-.36,1.19-1.06,1.75l-.38-.29c.27-.36,.4-.66,.4-.91Z"/>
        <path class="cls-1" d="M234.08,127.87h-6.97v2.05c0,.34-.12,.61-.37,.82-.25,.21-.54,.31-.87,.31h-2.75l-.39-.91h2.97c.11,0,.22-.06,.34-.18s.18-.23,.18-.35v-1.74h-7.76v-.89h7.76v-.97c1.41-.37,2.64-.74,3.69-1.12h-10.35v-.87h12.53v.87c-1.49,.57-3.15,1.14-4.97,1.71v.38h6.97v.89Zm-.19-10.01h-15.37v-.9h7.28c-.2-.37-.5-.8-.91-1.28l.84-.43c.38,.44,.78,1.01,1.2,1.71h6.96v.9Zm-1.81,4.74h-11.64v-3.37h11.64v3.37Zm-.94-.91v-1.55h-9.76v1.55h9.76Z"/>
        <path class="cls-1" d="M253.99,130.27l-.47,.9c-2.77-.47-5.24-1.28-7.42-2.44-1.9,1.08-4.37,1.88-7.42,2.39l-.5-.9c2.89-.46,5.23-1.14,7.02-2.04-1.42-1.06-2.58-2.25-3.47-3.58h-.63v-.9h9.86v.9c-1.51,1.78-2.8,2.97-3.87,3.58,1.69,.88,3.98,1.58,6.89,2.09Zm-.52-5.55h-.92v-2.95h-12.92v2.94h-.96v-3.81h14.8v3.83Zm-.81-8.44c-3.76,.72-8.07,1.09-12.93,1.12l-.43-.96c.8,.02,1.55,.04,2.27,.04,3.74,0,7.28-.35,10.62-1.05l.47,.85Zm-10.08,3.94l-.91,.33c-.18-.54-.64-1.33-1.36-2.37l.86-.36c.64,.86,1.11,1.66,1.41,2.41Zm7.15,4.38h-6.82c1.02,1.39,2.11,2.41,3.27,3.06,1.07-.58,2.26-1.6,3.55-3.06Zm-2.7-4.48l-.87,.31c-.25-.84-.63-1.65-1.15-2.42l.91-.36c.58,1.01,.95,1.83,1.12,2.47Zm5.27-2.61c-.47,1.08-1.06,2.07-1.77,2.97l-.88-.4c.65-.76,1.23-1.72,1.74-2.87l.91,.29Z"/>
        <path class="cls-1" d="M273.65,130.7h-15.59v-.88h4.97c-.26-.63-.52-1.15-.78-1.55h-2.15v-2.95h11.51v2.95h-2.27c-.17,.53-.38,1.05-.64,1.55h4.95v.88Zm-1.03-8.26h-13.55v-6.58h.88v5.76h2.35v-1.1h-1.66v-.7h1.66v-1.06h-1.42v-.72h1.42v-.95h-1.66v-.69h1.66v-.76h.79v.76h1.58v.69h-1.58v.95h1.43v.72h-1.43v1.06h1.6v.7h-1.6v1.1h2.32v-6.21h.93v6.21h2.27v-1.1h-1.53v-.7h1.53v-1.06h-1.34v-.72h1.34v-.95h-1.51l-.02-.69h1.53v-.76h.82v.76h1.56v.69h-1.56v.95h1.33v.72h-1.33v1.06h1.56v.7h-1.56v1.1h2.29v-5.76h.91v6.58Zm-.57,1.85h-12.35v-.83h12.35v.83Zm-1.35,3.17v-1.35h-9.69v1.35h9.69Zm-2.25,.81h-5.19c.23,.47,.46,.99,.69,1.55h3.83c.25-.47,.47-.99,.67-1.55Z"/>
        <path class="cls-1" d="M293.05,126.31h-7.24c-.35,1.08-1.02,1.99-2.03,2.72s-2.81,1.45-5.42,2.15l-.54-.83c1.89-.45,3.44-.99,4.65-1.62,1.21-.63,2-1.44,2.37-2.43h-6.44v-.84h6.65c.11-.33,.17-.79,.19-1.38l.93,.04c-.03,.62-.08,1.06-.14,1.34h7.02v.84Zm.48-2.79h-15.66v-.91h7.35v-1.68h-5.84v-.86h5.84v-1.64h-6.56v-.88h14.06v.88h-6.57v1.64h5.85v.86h-5.85v1.68h7.38v.91Zm-9.6-6.8l-.84,.55c-.43-.47-1.05-.95-1.87-1.43l.89-.56c.74,.43,1.35,.91,1.83,1.44Zm9.46,13.79l-.58,.77c-1.88-1.2-4.05-2.25-6.51-3.16l.5-.79c2.19,.77,4.39,1.83,6.59,3.17Zm-3.53-14.67c-.52,.52-1.16,.99-1.94,1.43l-.86-.55c.71-.37,1.38-.84,1.98-1.41l.83,.53Z"/>
        <path class="cls-1" d="M302.63,130.29h-.94v-1.42h-2.51v1.82h-.93v-14.17h4.38v13.77Zm-.94-8.1v-4.73h-2.51v4.73h2.51Zm0,5.75v-4.84h-2.51v4.84h2.51Zm11.27-9.62h-4.19v2.61h3.71v.91h-8.43v-.91h3.78v-2.61h-4.4v-.95h4.4v-1.97h.94v1.97h4.19v.95Zm.41,6.64h-1.99v4.66c0,.6-.16,1-.49,1.2-.33,.2-.96,.29-1.91,.29-.28,0-.63,0-1.04-.02l-.38-.97c.58,.04,1.09,.06,1.53,.06,.59,0,.97-.04,1.12-.14,.16-.09,.24-.25,.24-.47v-4.62h-7.03v-.92h7.03v-1.67h.92v1.67h1.99v.92Zm-5.41,3.64l-.81,.48c-.63-.97-1.41-1.89-2.33-2.75l.79-.54c.77,.73,1.55,1.67,2.35,2.81Z"/>
        <path class="cls-1" d="M332,130.02c0,.32-.08,.57-.24,.76s-.39,.31-.69,.36-.83,.07-1.59,.07h-.95l-.29-.98c.78,.04,1.56,.05,2.36,.05,.33,0,.49-.14,.49-.41v-8.28h-11.52v9.62h-.92v-10.56h6.23v-5.24h.91v5.24h6.21v9.36Zm-9.48-10.36l-.91,.45c-.47-1.07-1.29-2.26-2.44-3.55l.79-.5c1.1,1.28,1.95,2.48,2.56,3.6Zm5.99,8.96h-6.39v-5.03h6.39v5.03Zm-.96-.92v-3.22h-4.52v3.22h4.52Zm3.98-11.07c-.64,1.09-1.51,2.25-2.59,3.47l-.84-.5c.94-.95,1.81-2.08,2.61-3.38l.83,.41Z"/>
        <path class="cls-1" d="M343.49,130.81h-.91v-1.55h-3.88v1.91h-.91v-12.76h1.67c.45-.8,.88-1.83,1.28-3.09l.9,.18c-.21,.63-.62,1.6-1.22,2.91h3.08v12.4Zm-.91-7.63v-3.87h-3.88v3.87h3.88Zm0,5.17v-4.26h-3.88v4.26h3.88Zm9.92-9.92c-.07,2.7-.2,5.2-.39,7.51-.19,2.31-.38,3.68-.58,4.09s-.44,.7-.74,.87c-.3,.17-.88,.26-1.72,.26-.37,0-.85,0-1.45-.03l-.29-.91c.49,.02,1.02,.03,1.59,.03,.53,0,.87,0,1.02-.02,.15-.01,.31-.09,.47-.22,.16-.14,.28-.3,.35-.48,.07-.19,.16-.88,.28-2.07s.21-2.51,.29-3.95c.08-1.44,.13-2.83,.17-4.19h-4.69c-.63,1.25-1.35,2.43-2.18,3.56l-.74-.52c1.58-2.07,2.69-4.37,3.35-6.92l.91,.24c-.29,.96-.62,1.88-.98,2.75h5.33Zm-3.31,8.07l-.76,.54c-.58-1.34-1.45-2.73-2.61-4.19l.77-.5c1.08,1.3,1.94,2.69,2.59,4.16Z"/>
        <path class="cls-1" d="M364.17,118.61l-.67,.6c-.96-1.17-1.85-2.06-2.68-2.69-.42,.65-.88,1.23-1.4,1.75h3.08v.88h-3.19v-.72c-.42,.49-1.01,1.04-1.76,1.66l-.62-.74c1.63-1.27,2.82-2.63,3.56-4.09l.89,.29c-.01,.07-.05,.17-.11,.29,.95,.69,1.92,1.61,2.9,2.77Zm-.83,7.38h-4.36v3.78c1.45-.69,2.42-1.18,2.92-1.46-.13-.3-.36-.69-.69-1.17l.7-.53c.57,.8,1.04,1.72,1.41,2.76l-.7,.54c-.09-.29-.21-.56-.36-.81-1.41,.76-2.76,1.44-4.05,2.03l-.47-.86c.22-.23,.33-.49,.33-.76v-9.27h5.27v5.75Zm-.91-3.37v-1.48h-3.45v1.48h3.45Zm0,2.43v-1.56h-3.45v1.56h3.45Zm10.31,5.56l-.57,.7c-1.25-.77-2.3-1.64-3.14-2.63-.98,.96-2.1,1.77-3.35,2.44l-.61-.74c1.38-.7,2.5-1.52,3.38-2.44-1.04-1.62-1.71-3.96-2.02-7.02h-.67c-.02,2.75-.15,4.85-.4,6.31-.25,1.46-.72,2.76-1.41,3.91l-.83-.43c.66-1.06,1.11-2.27,1.37-3.62,.25-1.35,.38-3.21,.38-5.57v-5.69h7.65v.9h-6.72v3.3h6.1c-.13,3.4-.89,6.06-2.27,7.95,.74,.94,1.78,1.81,3.11,2.63Zm-1.84-9.69h-3.56c.22,2.71,.8,4.8,1.72,6.25,1.05-1.56,1.66-3.64,1.84-6.25Z"/>
        <path class="cls-1" d="M392.54,118.05h-12.92v5.55c0,2.95-.67,5.44-2,7.47l-.79-.54c1.22-1.88,1.84-4.1,1.84-6.68v-6.71h6.21c-.16-.48-.39-1-.7-1.56l1-.22c.26,.52,.53,1.12,.82,1.78h6.55v.91Zm-.79,3.79h-5.71v2.86h5.22v6.52h-.94v-1.18h-8.37v1.18h-.96v-6.52h4.11v-5.77h.94v2h5.71v.92Zm-1.42,7.27v-3.44h-8.37v3.44h8.37Z"/>
        <path class="cls-1" d="M412.32,127.3c-.53,2.7-1.3,4.05-2.3,4.05-.23,0-.47-.07-.7-.22-.23-.15-.55-.52-.96-1.1s-.78-1.31-1.11-2.17c-.33-.87-.57-2.09-.73-3.67-.16-1.59-.28-3.16-.35-4.72h-9.41v-.97h9.33c-.05-1.34-.06-2.37-.05-3.1h.94c0,1.42,.02,2.46,.05,3.1h5.24v.97h-5.2c.05,1.25,.2,2.93,.45,5.04s.68,3.62,1.29,4.53c.61,.91,1.02,1.37,1.23,1.37,.29,0,.58-.43,.86-1.29,.28-.86,.45-1.62,.52-2.3l.91,.5Zm-6.66,.7c-2.91,.74-5.65,1.34-8.21,1.8l-.23-.94c.97-.16,2.2-.38,3.69-.66v-5.22h-3.19v-.98h7.44v.98h-3.33v5c1.41-.3,2.68-.6,3.83-.91v.93Zm5.82-10.39l-.79,.54c-.68-.8-1.35-1.44-2.02-1.91l.77-.62c.6,.4,1.28,1.06,2.04,1.98Z"/>
        <path class="cls-1" d="M423.24,131.15h-.93v-1.27h-3.98v1.27h-.97v-7.88h5.88v7.88Zm-.95-2.19v-4.75h-3.96v4.75h3.96Zm7.56-7.74h-10.6v-5.34h10.6v5.34Zm-.94-.9v-3.53h-8.71v3.53h8.71Zm2.38,10.83h-.96v-1.27h-4.01v1.27h-.96v-7.88h5.92v7.88Zm-.96-2.19v-4.75h-4.01v4.75h4.01Z"/>
        <path class="cls-1" d="M441.37,127.88h-.94v-.87h-2.72v1.55h-.91v-11.91h4.57v11.23Zm-.94-1.8v-8.5h-2.72v8.5h2.72Zm11.67,2.79l-.69,.72c-1.37-1.04-2.77-2.9-4.22-5.58v7.21h-.91v-7.24c-1.62,2.71-3.16,4.58-4.61,5.62l-.63-.76c1.72-1.25,3.34-3.28,4.86-6.08h-3.9v-.91h4.28v-3.07h-3.76v-.91h3.76v-2.43h.91v2.43h4.09v.91h-4.09v3.07h4.58v.91h-4.14c1.11,2.53,2.6,4.56,4.46,6.12Z"/>
        <path class="cls-1" d="M463.62,124.96c-.43-.23-.65-.52-.65-.87,0-.17,.07-.34,.22-.52,.15-.18,.35-.27,.62-.27,.56,0,.84,.37,.84,1.11,0,.6-.35,1.19-1.06,1.75l-.38-.29c.27-.36,.4-.66,.4-.91Z"/>
        <path class="cls-1" d="M491.39,130.7h-15.61v-.9h7.31v-2.43h-6.3v-.9h6.3v-2.06c-2.25,.15-4.19,.24-5.82,.27l-.19-.84c1.69-.68,3.27-1.78,4.75-3.31h-3.74v-.88h11.02v.88h-6.06c-1.01,1.2-2.3,2.26-3.88,3.19,2.34-.04,5.18-.26,8.52-.65-.51-.41-1.17-.84-1.98-1.3l.73-.62c1.79,1.07,3.18,2.14,4.15,3.2l-.7,.63c-.33-.39-.71-.75-1.13-1.1l-4.68,.43v2.16h6.25v.9h-6.25v2.43h7.33v.9Zm-.58-10.44h-.91v-2.32h-12.62v2.32h-.91v-3.2h6.86c-.09-.25-.33-.74-.74-1.46l.93-.31c.29,.47,.59,1.06,.89,1.77h6.51v3.2Z"/>
        <path class="cls-1" d="M510.38,129.59c0,.42-.12,.74-.35,.98s-.53,.38-.9,.4-.85,.04-1.44,.04c-.42,0-.81,0-1.19-.03l-.4-.99c.94,.09,1.82,.13,2.65,.13,.16,0,.31-.06,.45-.19s.2-.29,.2-.49v-9.77h-5.17c.29,2.54,1.83,5.03,4.62,7.47l-.68,.66c-2.51-2.27-4.03-4.49-4.58-6.65-.88,2.34-2.43,4.54-4.64,6.58l-.67-.69c2.23-1.83,3.84-4.29,4.82-7.37h-5.6v11.5h-.97v-12.47h6.63c-.06-.56-.11-1.34-.16-2.34h-1.7v-.94h2.63c-.02,.28-.03,.57-.03,.88,0,.7,.05,1.5,.16,2.4h6.28v10.89Z"/>
        <path class="cls-1" d="M5.14,151.69l-1.26,2.92v12.56h-.96v-10.74c-.7,1.19-1.34,2.14-1.92,2.84l-.57-.88c1.28-1.52,2.57-3.89,3.87-7.11l.84,.41Zm11.27,12.24l-.62,.77c-2.34-2.33-4-4.87-4.96-7.63v10.11h-.95v-10.05c-.84,2.32-2.48,4.83-4.91,7.54l-.67-.79c2.61-2.68,4.35-5.43,5.24-8.26H4.81v-.92h5.06v-3.26h.95v3.26h5.1v.92h-4.79c1.07,3.15,2.82,5.92,5.27,8.31Z"/>
        <path class="cls-1" d="M23.44,162.94c-.81,1.58-1.58,2.73-2.3,3.45l-.81-.55c.88-.88,1.65-1.98,2.29-3.28l.83,.38Zm4.55-7.49h-3.16v1.94h2.61v4.07h-6.03v-4.07h2.52v-1.94h-3.35v-.88h3.35v-1.87h-2.81v-.88h6.46v.88h-2.75v1.87h3.16v.88Zm-1.49,5.12v-2.29h-4.18v2.29h4.18Zm6.01,3.97c-.08,.93-.24,1.55-.47,1.88-.23,.33-.55,.52-.94,.58s-1.26,.08-2.59,.08-2.24-.03-2.54-.08c-.3-.06-.53-.22-.7-.48s-.25-.62-.25-1.07v-3.08h.94v3.2c0,.28,.12,.46,.36,.54,.24,.09,1.14,.13,2.71,.13,1.08,0,1.69-.02,1.85-.07,.15-.04,.29-.16,.43-.35,.13-.19,.23-.71,.3-1.54l.91,.26Zm-2.53-.19l-.89,.31c-.67-1.01-1.3-1.82-1.87-2.43l.89-.31c.9,1.03,1.52,1.84,1.87,2.43Zm5.38-2.88h-6.55v-8.53h2.03c.4-.47,.73-.99,.99-1.56l.88,.27c-.21,.4-.49,.83-.83,1.29h3.47v8.53Zm-.91-6.08v-1.58h-4.74v1.58h4.74Zm0,2.59v-1.71h-4.74v1.71h4.74Zm0,2.63v-1.77h-4.74v1.77h4.74Zm1.6,5.07l-.79,.46c-.68-1.1-1.58-2.24-2.7-3.45l.77-.47c1.17,1.29,2.08,2.45,2.72,3.45Z"/>
        <path class="cls-1" d="M55.88,166.76h-12.6c-.53,0-.98-.17-1.34-.51-.36-.34-.54-.81-.54-1.39v-12.09h-1.12v-.91h15.25v.91h-13.17v12.13c0,.25,.11,.47,.33,.67s.42,.29,.62,.29h12.59v.91Zm-7.52-2.58h-4.72v-4.52h4.72v4.52Zm-.94-.88v-2.73h-2.82v2.73h2.82Zm5.17-5.19h-7.32v-3.9h7.32v3.9Zm-.93-.9v-2.11h-5.44v2.11h5.44Zm3.01,6.99h-4.65v-4.53h4.65v4.53Zm-.91-.89v-2.73h-2.8v2.73h2.8Z"/>
        <path class="cls-1" d="M68.26,152.84h-2.7v2.34h2.18v11.92h-.91v-1.05h-5.33v1.03h-.91v-11.9h2.2v-2.34h-2.74v-.86h8.21v.86Zm-1.42,12.31v-4.62h-.83c-.88,0-1.33-.4-1.33-1.2v-3.28h-1.1c.02,2.74-.54,4.62-1.68,5.65l-.38-.33v3.78h5.31Zm-4.1-9.11h-1.2v4.71c.8-.88,1.2-2.46,1.2-4.71Zm3.35,7.13h-3.88v-.83h3.88v.83Zm-1.4-8v-2.34h-1.05v2.34h1.05Zm2.15,4.45v-3.58h-1.27v3.13c0,.3,.17,.45,.52,.45h.76Zm8.82,3.4c-.07,1.55-.2,2.51-.38,2.89s-.44,.63-.76,.76-1.06,.18-2.21,.18c-1.27,0-2.01-.02-2.24-.07-.23-.04-.43-.17-.62-.38-.18-.21-.27-.52-.27-.94v-7.95h4.8v-4.7h-5.07v-.9h6.01v6.5h-4.84v6.97c0,.13,.05,.25,.16,.35s.25,.16,.43,.17c.19,0,1.16,.01,2.91,.01,.54,0,.88-.31,.99-.93s.18-1.37,.18-2.25l.91,.28Z"/>
        <path class="cls-1" d="M95.48,166.77h-15.57v-.79h2.11v-7.61h4.19l.45-1.27h-6.62v-.82h6.91l.34-1.19h-6.53v-3.23h13.8v3.23h-6.29l-.36,1.19h7.3v.82h-7.59l-.41,1.27h6.13v7.61h2.14v.79Zm-10.44-12.42v-1.72h-3.37v1.72h3.37Zm7.38,5.89v-1.12h-9.47v1.12h9.47Zm0,1.85v-1.12h-9.47v1.12h9.47Zm0,1.96v-1.24h-9.47v1.24h9.47Zm0,1.92v-1.17h-9.47v1.17h9.47Zm-3.06-11.63v-1.72h-3.38v1.72h3.38Zm4.26,0v-1.72h-3.33v1.72h3.33Z"/>
        <path class="cls-1" d="M101.46,163.01c-.34,1.89-.73,3.28-1.17,4.17l-.84-.3c.53-1.24,.92-2.6,1.19-4.1l.83,.23Zm4.43-1.33l-.81,.36c-.12-.47-.23-.83-.33-1.1-1.77,.53-3.35,.92-4.75,1.15l-.29-.77c1.24-1.24,2.37-2.68,3.38-4.34-1.54,.36-2.53,.59-2.96,.69l-.38-.79c1.27-1.73,2.27-3.5,3.02-5.33l.9,.36c-.84,1.77-1.77,3.34-2.77,4.71,1.06-.16,1.97-.35,2.73-.57,.38-.63,.8-1.39,1.29-2.3l.77,.43c-1.54,2.87-3.09,5.16-4.66,6.87,.68-.06,1.83-.33,3.46-.81-.16-.44-.33-.83-.5-1.19l.76-.34c.61,1.3,.99,2.29,1.13,2.97Zm-2.34,4.77l-.87,.21c.04-.86-.08-2.1-.36-3.74l.83-.14c.3,1.53,.44,2.75,.4,3.67Zm2.03-2.02l-.72,.38c-.18-.66-.42-1.33-.72-2.01l.74-.33c.44,1.2,.67,1.85,.7,1.96Zm9.67-5.7h-4.41v7.32c0,.79-.55,1.18-1.66,1.18-.33,0-.71-.01-1.12-.04l-.26-.93c.33,.02,.62,.04,.88,.04,.59,0,.95-.05,1.09-.14s.21-.28,.21-.56v-6.86h-4.32v-.9h5.75l.41-1.35h-5.03l1.71-4.98,.93,.09-.39,1.15h4.75l-1.46,5.1h2.92v.9Zm-6.05,4.79c-1.02,.98-1.95,1.76-2.78,2.36l-.62-.74c.89-.59,1.82-1.36,2.8-2.3l.6,.69Zm-.1-2.23l-.59,.69c-.57-.53-1.24-1-2.01-1.42l.57-.69c.68,.37,1.36,.84,2.03,1.42Zm3.52-7.64h-3.87l-.67,1.95h3.97l.56-1.95Zm2.46,11.49l-.61,.7c-.84-.86-1.75-1.59-2.74-2.21l.56-.7c1.38,.96,2.31,1.7,2.79,2.21Zm-.36-4.61c-.71,.62-1.44,1.14-2.19,1.55l-.67-.69c.85-.47,1.56-.99,2.14-1.56l.71,.7Z"/>
        <path class="cls-1" d="M134.96,163.21c-.02,.67-.11,1.3-.27,1.88s-.34,.98-.52,1.21c-.18,.23-.42,.39-.7,.5-.28,.11-.89,.17-1.81,.19s-2.03,.03-3.33,.03c-1.03,0-2.18,0-3.47-.03s-2.03-.04-2.23-.08-.39-.12-.58-.27c-.18-.14-.33-.32-.42-.54-.1-.21-.14-.46-.14-.73v-9h5.91l2.76-2.59h-5.85c-1.31,1.34-2.78,2.43-4.39,3.27l-.59-.76c2.5-1.33,4.42-3,5.77-5.02l.98,.36c-.27,.4-.57,.8-.91,1.19h6.45v.81c-.72,.75-1.68,1.66-2.87,2.74h4.9v5.12h-11.21v3.86c0,.12,.07,.26,.2,.43,.13,.16,.37,.26,.72,.29s1.85,.05,4.52,.05c2.86,0,4.46-.03,4.81-.08,.35-.06,.61-.19,.78-.4s.31-.58,.41-1.09c.1-.52,.16-1.1,.18-1.75l.91,.41Zm-7.93-2.65v-3.26h-4.61v3.26h4.61Zm5.63,0v-3.26h-4.64v3.26h4.64Z"/>
        <path class="cls-1" d="M154.79,166.7h-15.61v-.9h7.31v-2.43h-6.3v-.9h6.3v-2.06c-2.25,.15-4.19,.24-5.82,.27l-.19-.84c1.69-.68,3.27-1.78,4.75-3.31h-3.74v-.88h11.02v.88h-6.06c-1.01,1.2-2.3,2.26-3.88,3.19,2.34-.04,5.18-.26,8.52-.65-.51-.41-1.17-.84-1.98-1.3l.73-.62c1.79,1.07,3.18,2.14,4.15,3.2l-.7,.63c-.33-.39-.71-.75-1.13-1.1l-4.68,.43v2.16h6.25v.9h-6.25v2.43h7.33v.9Zm-.58-10.44h-.91v-2.32h-12.62v2.32h-.91v-3.2h6.86c-.09-.25-.33-.74-.74-1.46l.93-.31c.29,.47,.59,1.06,.89,1.77h6.51v3.2Z"/>
        <path class="cls-1" d="M173.79,165.59c0,.42-.12,.74-.35,.98s-.54,.38-.9,.4c-.37,.03-.85,.04-1.44,.04-.42,0-.81,0-1.19-.03l-.4-.99c.94,.09,1.82,.13,2.65,.13,.16,0,.31-.06,.45-.19s.2-.29,.2-.49v-9.77h-5.17c.29,2.54,1.83,5.03,4.62,7.47l-.68,.66c-2.51-2.27-4.03-4.49-4.58-6.65-.88,2.34-2.43,4.54-4.64,6.58l-.67-.69c2.23-1.83,3.84-4.29,4.83-7.37h-5.6v11.5h-.97v-12.47h6.64c-.06-.56-.11-1.34-.16-2.34h-1.7v-.94h2.63c-.02,.28-.03,.57-.03,.88,0,.7,.05,1.5,.16,2.4h6.28v10.89Z"/>
        <path class="cls-1" d="M184.62,159.38l-.72,.57c-.38-.59-.92-1.31-1.63-2.14v9.33h-.88v-9.38c-.62,1.85-1.32,3.4-2.09,4.65l-.55-.81c1.08-1.88,1.94-3.89,2.57-6.06h-2.34v-.88h2.41v-3.24h.88v3.24h1.87v.88h-1.87v.99c.97,1.03,1.75,1.98,2.35,2.85Zm9.9,7.36h-10.89v-.88h1.55v-9.98h3.01c.13-.39,.29-.96,.48-1.71h-4.46v-.92h4.66c.12-.54,.25-1.2,.38-1.96l.9,.22c-.06,.43-.17,1.01-.34,1.74h4.27v.92h-4.48c-.13,.56-.28,1.13-.45,1.71h3.76v9.98h1.62v.88Zm-2.52-8.35v-1.62h-5.9v1.62h5.9Zm0,2.43v-1.57h-5.9v1.57h5.9Zm0,2.48v-1.6h-5.9v1.6h5.9Zm0,2.56v-1.73h-5.9v1.73h5.9Z"/>
        <path class="cls-1" d="M207.98,160.71h-3.8v.49c1.22,.75,2.3,1.55,3.22,2.41l-.6,.74c-.91-.87-1.78-1.57-2.63-2.11v4.9h-.93v-5.24c-.97,1.55-2.36,2.98-4.18,4.27l-.54-.81c1.99-1.35,3.47-2.9,4.43-4.65h-4.1v-.86h4.39v-1.66h.93v1.66h3.8v.86Zm6.39,3.16c-.16,.81-.43,1.57-.8,2.28s-.81,1.05-1.32,1.05c-.45,0-.88-.29-1.29-.88s-.72-1.27-.95-2.06c-1.11,1.04-2.3,1.94-3.55,2.72l-.72-.67c1.51-.88,2.84-1.91,4.02-3.09-.29-1.45-.53-3.39-.7-5.82h-10.42v-.9h4.61v-2.13h-4.04v-.86h4.04v-2.09h.94v2.09h3.71v.86h-3.71v2.13h4.81c-.06-1.63-.09-3.33-.09-5.1h.93c0,2.1,.03,3.8,.09,5.1h4.36v.9h-4.29c.08,1.77,.27,3.42,.56,4.96,.79-.98,1.49-2.18,2.09-3.59l.81,.47c-.76,1.66-1.65,3.07-2.66,4.24,.18,.7,.41,1.34,.72,1.9,.3,.57,.54,.85,.72,.85s.39-.28,.66-.84,.49-1.27,.66-2.13l.84,.62Zm-.77-8.96l-.77,.55c-.45-.79-1.09-1.61-1.91-2.44l.72-.56c.7,.62,1.35,1.44,1.96,2.45Z"/>
        <path class="cls-1" d="M223.81,158.73c-.46,.26-1.12,.6-1.97,1.01v5.99c0,.42-.11,.74-.34,.98s-.52,.36-.88,.36c-.74,0-1.18,0-1.31-.02l-.27-.95c.43,.03,.78,.04,1.04,.04,.36,0,.59-.04,.69-.11,.09-.07,.14-.17,.14-.29v-5.56c-.7,.31-1.42,.6-2.18,.88l-.31-.84c.73-.26,1.56-.61,2.49-1.05v-3.54h-2.38v-.92h2.38v-3.31h.93v3.31h1.91v.92h-1.91v3.08c.47-.19,1.07-.48,1.79-.88l.18,.9Zm10.38,1.42l-.57,.83c-.89-.52-1.63-1.01-2.21-1.46v.69h-5.58v-.63c-.8,.6-1.47,1.05-2.01,1.35l-.67-.74c2.47-1.39,4.28-3.01,5.41-4.86l.96,.27-.24,.38c1.04,1.58,2.68,2.97,4.91,4.17Zm-5.92-6.14h-1.51v1.85h-.93v-1.85h-2.52v-.88h2.52v-1.65h.93v1.65h1.51v.88Zm4.43,13.2h-.93v-1.06h-6.16v1.06h-.95v-5.42h8.04v5.42Zm-.93-2v-2.48h-6.16v2.48h6.16Zm-.65-5.92c-.95-.76-1.77-1.6-2.45-2.51-.77,.94-1.61,1.78-2.5,2.51h4.95Zm3.02-5.24h-2.58v1.84h-.93v-1.84h-1.61v-.91h1.61v-1.65h.93v1.65h2.58v.91Z"/>
        <path class="cls-1" d="M246.46,152.84h-2.7v2.34h2.18v11.92h-.91v-1.05h-5.33v1.03h-.91v-11.9h2.2v-2.34h-2.74v-.86h8.21v.86Zm-1.42,12.31v-4.62h-.83c-.88,0-1.33-.4-1.33-1.2v-3.28h-1.1c.02,2.74-.54,4.62-1.68,5.65l-.38-.33v3.78h5.31Zm-4.1-9.11h-1.2v4.71c.8-.88,1.2-2.46,1.2-4.71Zm3.35,7.13h-3.88v-.83h3.88v.83Zm-1.4-8v-2.34h-1.05v2.34h1.05Zm2.15,4.45v-3.58h-1.27v3.13c0,.3,.17,.45,.52,.45h.76Zm8.82,3.4c-.07,1.55-.2,2.51-.38,2.89s-.44,.63-.76,.76-1.06,.18-2.21,.18c-1.27,0-2.01-.02-2.24-.07-.23-.04-.43-.17-.62-.38-.18-.21-.27-.52-.27-.94v-7.95h4.8v-4.7h-5.07v-.9h6.01v6.5h-4.84v6.97c0,.13,.05,.25,.16,.35s.25,.16,.44,.17c.18,0,1.16,.01,2.91,.01,.54,0,.88-.31,.99-.93s.18-1.37,.18-2.25l.91,.28Z"/>
        <path class="cls-1" d="M262.97,165.88c0,.86-.42,1.29-1.26,1.29-.5,0-.88-.01-1.13-.04l-.36-.91h1.55c.07,0,.14-.04,.21-.11,.07-.07,.1-.14,.1-.21v-3.11h-2.18c-.08,1.48-.46,2.96-1.13,4.45l-.76-.63c.71-1.54,1.06-3.33,1.06-5.4v-6.04h3.9v10.71Zm2.49-12.45h-2.18v.98h-.9v-.98h-4.32v-.89h4.32v-1.07h.9v1.07h2.18v.89Zm-3.38,5.12v-2.51h-2.11v2.51h2.11Zm0,3.38v-2.53h-2.11v2.53h2.11Zm11.83,.31l-.6,.76c-1.63-.72-2.87-1.72-3.73-3.01h-2.11c-.89,1.15-2.08,2.15-3.56,2.99l-.65-.69c1.27-.67,2.3-1.44,3.09-2.3h-2.68v-.83h3.33c.32-.53,.56-1,.72-1.39h-3.4v-.83h3.73c.12-.32,.3-1,.54-2.05l.91,.11c-.15,.81-.32,1.46-.49,1.94h3.86v.83h-4.14c-.24,.53-.47,1-.69,1.39h5.69v.83h-3.06c.74,.91,1.82,1.66,3.24,2.25Zm-6.64,2.63c-1.34,.68-2.45,1.16-3.33,1.44l-.38-.81c1.03-.33,2.18-.82,3.47-1.46l.24,.83Zm-.18-8.76l-.76,.48c-.43-.53-.83-.93-1.2-1.2l.7-.5c.41,.3,.83,.71,1.26,1.22Zm.4,6.89l-.52,.65c-.53-.39-.99-.7-1.39-.93l.51-.63c.39,.15,.85,.46,1.4,.91Zm6.23-9.57h-4.3v.98h-.94v-.98h-2.2v-.89h2.2v-1.07h.94v1.07h4.3v.89Zm-4.77,12.51c0,.5-.11,.83-.32,1-.21,.17-.55,.25-1.01,.25-.25,0-.56,0-.95-.03l-.33-.91c.59,.02,1.06,.04,1.42,.04,.07,0,.14-.04,.21-.11,.07-.08,.11-.15,.11-.21v-5h.86v4.98Zm2.5-3.24c-.47,.46-.94,.8-1.41,1.03l-.55-.69c.46-.25,.92-.56,1.38-.95l.58,.61Zm2.01,3.1l-.5,.72c-1.14-.71-2.28-1.26-3.44-1.66l.5-.72c1.39,.52,2.53,1.08,3.44,1.66Zm-.97-10.41c-.28,.35-.71,.75-1.28,1.2l-.83-.52c.61-.45,1.07-.84,1.37-1.19l.74,.5Z"/>
        <path class="cls-1" d="M293.55,161.77h-8.1c-.77,.71-1.64,1.34-2.61,1.89v2.32c1.26-.21,2.51-.51,3.74-.9v.93c-1.75,.49-3.33,.85-4.74,1.1l-.31-.83c.24-.1,.36-.28,.36-.54v-1.53c-1.31,.63-2.45,1.05-3.4,1.27l-.5-.86c2.37-.57,4.41-1.53,6.12-2.87h-6.25v-.88h7.62c-.09-.17-.2-.38-.34-.62l.86-.34c.15,.26,.31,.58,.48,.96h7.06v.88Zm-5.38-6.3h-4.54v1.03h3.61v1.98c0,.23-.09,.45-.27,.65s-.37,.31-.57,.31l-1.77,.05-.28-.88c.25,.02,.51,.03,.78,.03,.56,0,.89-.03,1.01-.1s.17-.18,.17-.35v-.84h-2.68v2.78h-.94v-2.78h-2.86v2.14h-.96v-2.99h3.81v-1.03h-4.79v-.86h4.79v-1.1h-2.95c-.13,.23-.31,.47-.54,.7l-.86-.4c.67-.69,1.17-1.47,1.51-2.36l.86,.28c-.19,.41-.34,.72-.47,.94h2.44v-1.25h.94v1.25h3.8v.83h-3.8v1.1h4.54v.86Zm5.34,10.92l-.55,.82c-3.04-1.06-5.05-2.59-6.05-4.6l.83-.34c.39,.69,.89,1.31,1.51,1.87,1.17-.57,2.1-1.2,2.8-1.89l.72,.6c-.57,.56-1.49,1.19-2.75,1.89,.79,.57,1.95,1.12,3.49,1.65Zm-3.33-9.09h-.95v-5.02h.95v5.02Zm2.88,1.08c0,.43-.17,.76-.5,.99s-1.35,.32-3.03,.26l-.28-.93c1.05,0,1.76,0,2.11,0s.57-.05,.66-.16c.08-.12,.13-.22,.13-.33v-6.79h.92v6.95Z"/>
        <path class="cls-1" d="M313.21,165.57l-.63,.81c-2.26-1.17-3.96-2.6-5.1-4.3,.09,.49,.13,1.01,.13,1.56,0,1.5-.24,2.46-.71,2.87-.47,.41-1.26,.62-2.35,.62-.33,0-.64-.01-.91-.04l-.31-.93c.37,.05,.76,.07,1.19,.07,.73,0,1.21-.07,1.44-.22s.41-.38,.54-.69,.19-.88,.19-1.71c0-.49-.04-.99-.12-1.49-2.23,1.76-5.03,3.17-8.4,4.25l-.51-.81c3.83-1.19,6.71-2.68,8.64-4.48-.13-.57-.3-1.02-.48-1.36-1.78,1.37-4.19,2.49-7.21,3.37l-.53-.89c2.92-.67,5.36-1.78,7.33-3.33-.16-.3-.4-.65-.72-1.06-1.78,.88-3.65,1.53-5.63,1.95l-.5-.87c3.08-.61,5.45-1.51,7.13-2.7h-5.24v-.91h10.22v.91h-3.6c-.42,.38-.95,.77-1.6,1.19,.64,.84,1.17,1.85,1.58,3.02,1.83-.95,3.2-1.92,4.1-2.93l.67,.66c-.96,1.03-2.28,2-3.96,2.9,1.14,1.91,2.93,3.42,5.35,4.54Zm-.62-9.55h-.93v-2.25h-12.31v2.25h-.94v-3.16h6.85c-.14-.46-.32-.9-.53-1.31l.92-.31c.16,.35,.37,.88,.62,1.62h6.32v3.16Z"/>
        <path class="cls-1" d="M323.45,164.98c-1.39,.87-3.19,1.65-5.4,2.34l-.6-.77c2.21-.64,3.98-1.4,5.31-2.27l.69,.7Zm9.79-1.46h-15.75v-.91h1.82v-10.67h12.02v10.65h1.91v.92Zm-2.84-8.98v-1.73h-10.12v1.73h10.12Zm0,2.61v-1.75h-10.12v1.75h10.12Zm0,2.68v-1.85h-10.12v1.85h10.12Zm0,2.75v-1.91h-10.12v1.91h10.12Zm2.8,4l-.61,.76c-1.56-.88-3.37-1.62-5.44-2.23l.46-.79c2.3,.71,4.16,1.46,5.58,2.27Z"/>
        <path class="cls-1" d="M344.82,160.96c-.43-.23-.65-.52-.65-.87,0-.17,.07-.34,.22-.52,.15-.18,.35-.27,.62-.27,.56,0,.84,.37,.84,1.11,0,.6-.35,1.19-1.06,1.75l-.38-.29c.27-.36,.4-.66,.4-.91Z"/>
        <path class="cls-1" d="M372.2,159.71h-.96v-1.64h-12.71v1.62h-.9v-2.46h14.56v2.49Zm-12.3-5.56l-.79,.43c-.45-.8-.91-1.46-1.39-2l.76-.51c.66,.82,1.14,1.51,1.42,2.07Zm4.69-1.49c-.8,.53-1.8,1.02-2.99,1.48l-.11,.38c1.25,.6,2.21,1.1,2.9,1.51l-.53,.77c-.53-.37-1.45-.89-2.77-1.56-.76,.82-1.66,1.37-2.72,1.65l-.54-.76c.84-.21,1.52-.52,2.04-.93s.83-.92,.95-1.53c.12-.61,.18-1.35,.18-2.22h.88c-.02,.75-.05,1.3-.09,1.66,.65-.23,1.39-.6,2.23-1.12l.55,.67Zm6.85,14.52h-.94v-.68h-11.21v.66h-.91v-3.97h5.34c.25-.47,.42-.87,.52-1.2h-4.39v-2.83h10.12v2.83h-4.68c-.21,.49-.39,.89-.54,1.2h6.7v3.99Zm-.94-1.53v-1.58h-11.21v1.58h11.21Zm-1.48-4.52v-1.12h-8.24v1.12h8.24Zm3.14-5.02l-.49,.81c-1.18-.71-2.26-1.25-3.25-1.62-.74,.69-1.78,1.21-3.1,1.56l-.52-.79c1.44-.35,2.42-.81,2.92-1.38,.51-.57,.74-1.65,.7-3.25h.9c0,.43-.03,1-.09,1.7,.9-.39,1.67-.82,2.32-1.31l.55,.68c-.79,.56-1.8,1.09-3.04,1.59-.04,.16-.1,.33-.18,.48,.99,.38,2.08,.89,3.28,1.53Zm-4.88-2.11l-.82,.38c-.23-.51-.65-1.16-1.24-1.94l.74-.45c.55,.63,.99,1.3,1.32,2.01Z"/>
        <path class="cls-1" d="M392.64,165.91l-.18,.92c-.6,.01-2.76,.02-6.46,.02-3.05,0-5.22-.66-6.5-1.99-.72,1.01-1.41,1.8-2.08,2.38l-.7-.63c1.68-1.37,2.84-3.28,3.51-5.76h-3.02v-.83c.83-1,1.76-2.22,2.79-3.68h-3.14v-.94h4.34v.94c-.52,.74-1.42,1.95-2.7,3.63h2.72v.89c-.32,1.18-.74,2.27-1.28,3.25,.62,.59,1.28,1.02,2,1.28,.72,.26,1.48,.42,2.27,.48,.79,.06,2.4,.09,4.82,.09,1.8,0,3.01-.02,3.61-.05Zm-12.08-11.79l-.7,.62c-.75-.98-1.63-1.87-2.65-2.66l.65-.67c1.13,.86,2.03,1.76,2.7,2.71Zm11.87,4.04h-10.63v-.88h4.96v-2.59h-2.9c-.54,.83-.92,1.39-1.13,1.68l-.77-.49c.98-1.23,1.72-2.63,2.21-4.21l.88,.2c-.24,.79-.49,1.44-.74,1.94h2.45v-2.38h.91v2.38h3.88v.88h-3.88v2.59h4.76v.88Zm-1.08,5.85h-8.19v-4.32h8.19v4.32Zm-.94-.88v-2.52h-6.31v2.52h6.31Z"/>
        <path class="cls-1" d="M401.14,151.69l-1.26,2.92v12.56h-.96v-10.74c-.7,1.19-1.34,2.14-1.92,2.84l-.57-.88c1.28-1.52,2.57-3.89,3.87-7.11l.84,.41Zm11.27,12.24l-.62,.77c-2.34-2.33-4-4.87-4.96-7.63v10.11h-.95v-10.05c-.84,2.32-2.48,4.83-4.91,7.54l-.67-.79c2.61-2.68,4.35-5.43,5.24-8.26h-4.72v-.92h5.06v-3.26h.95v3.26h5.1v.92h-4.79c1.07,3.15,2.82,5.92,5.27,8.31Z"/>
        <path class="cls-1" d="M423.51,157.22h-5.34v9.97h-.94v-15.33h6.28v5.36Zm-.91-3.19v-1.29h-4.43v1.29h4.43Zm0,2.33v-1.46h-4.43v1.46h4.43Zm5.47,8.6c0,.28-.08,.55-.24,.8s-.38,.41-.65,.46c-.27,.05-.91,.08-1.92,.08l-.34-.93c1.18,0,1.84-.02,2-.08,.16-.05,.23-.19,.23-.42v-1.27h-5.46c-.26,1.2-.64,2.15-1.15,2.87l-.77-.58c.81-1.16,1.22-2.9,1.22-5.22v-2.21h7.07v6.5Zm-.91-2.21v-1.3h-5.22c0,.38-.03,.81-.09,1.3h5.31Zm0-2.18v-1.22h-5.2v1.22h5.2Zm4.25,5.26c0,.4-.13,.73-.4,.97s-.58,.36-.95,.36c-.62,0-1.05,0-1.32-.02l-.29-.93c.36,.02,.66,.04,.9,.04,.56,0,.89-.06,.99-.18,.1-.12,.15-.25,.15-.38v-8.46h-5.34v-5.36h6.25v13.97Zm-.91-11.79v-1.29h-4.41v1.29h4.41Zm0,2.33v-1.46h-4.41v1.46h4.41Z"/>
        <path class="cls-1" d="M451.85,162.46c-.09,.79-.28,1.54-.57,2.27s-.62,1.09-1,1.09c-.43,0-.97-.45-1.62-1.34-.65-.89-1.13-1.96-1.44-3.2-.73,.77-1.44,1.38-2.14,1.84l-.62-.63c1.07-.8,1.9-1.56,2.49-2.29-.29-1.7-.48-3.65-.58-5.85h-7.63c.09,4.15-.52,7.14-1.84,8.96l-.7-.62c1.12-1.6,1.68-4.19,1.68-7.77,0-.42,0-.91-.02-1.46h8.44c-.02-.26-.03-.58-.03-.96s0-.72,.03-1.06h.94c-.03,.48-.04,.91-.04,1.29,0,.27,0,.51,.02,.73h4.46v.88h-4.4c.11,2.19,.26,3.81,.47,4.88,.91-1.27,1.69-2.54,2.34-3.81l.72,.5c-.7,1.44-1.65,2.93-2.87,4.48,.33,1.47,.75,2.57,1.27,3.3s.85,1.09,.99,1.09c.13,0,.28-.33,.47-.98s.29-1.26,.33-1.84l.84,.5Zm-12.78,.7c-.33,1.22-.83,2.29-1.49,3.18l-.72-.55c.62-.83,1.1-1.85,1.44-3.08l.77,.45Zm6.42-6.54h-5.89v-.83h5.89v.83Zm-.25,7.98c-.06,.68-.18,1.2-.38,1.56s-.45,.59-.77,.68c-.32,.09-.92,.14-1.79,.14-1.08,0-1.77-.1-2.06-.29-.29-.2-.43-.56-.43-1.1v-3.11h.86v3.04c0,.19,.07,.33,.22,.44,.14,.11,.62,.16,1.42,.16,.87,0,1.42-.09,1.63-.28,.21-.18,.36-.74,.44-1.67l.86,.42Zm-.36-3.28h-4.86v-3.53h4.86v3.53Zm-.88-.84v-1.84h-3.09v1.84h3.09Zm-.38,3.37l-.76,.45c-.3-.53-.76-1.17-1.37-1.91l.74-.46c.57,.65,1.04,1.29,1.39,1.92Zm4.19,1.98l-.76,.48c-.39-.93-.88-1.79-1.48-2.58l.72-.5c.62,.84,1.12,1.71,1.51,2.59Zm2.83-13.25l-.7,.64c-.32-.37-.7-.72-1.15-1.06l.66-.64c.46,.34,.86,.69,1.2,1.06Z"/>
        <path class="cls-1" d="M462.29,166.81h-.91v-1.55h-3.88v1.91h-.91v-12.76h1.67c.45-.8,.88-1.83,1.28-3.09l.9,.18c-.21,.63-.62,1.6-1.22,2.91h3.08v12.4Zm-.91-7.63v-3.87h-3.88v3.87h3.88Zm0,5.17v-4.26h-3.88v4.26h3.88Zm9.92-9.92c-.07,2.7-.2,5.2-.39,7.51-.19,2.31-.38,3.68-.58,4.09s-.44,.7-.74,.87c-.3,.17-.87,.26-1.72,.26-.37,0-.85,0-1.45-.03l-.29-.91c.49,.02,1.02,.03,1.59,.03,.53,0,.88,0,1.02-.02,.15-.01,.31-.09,.47-.22,.16-.14,.28-.3,.35-.48,.07-.19,.16-.88,.28-2.07s.21-2.51,.29-3.95c.08-1.44,.13-2.83,.17-4.19h-4.69c-.63,1.25-1.35,2.43-2.18,3.56l-.74-.52c1.58-2.07,2.69-4.37,3.35-6.92l.91,.24c-.29,.96-.62,1.88-.98,2.75h5.33Zm-3.31,8.07l-.76,.54c-.58-1.34-1.45-2.73-2.61-4.19l.77-.5c1.08,1.3,1.94,2.69,2.59,4.16Z"/>
        <path class="cls-1" d="M479.55,161.4c-.76,1.92-1.76,3.86-2.99,5.84l-.77-.65c1.17-1.83,2.18-3.77,3.02-5.8l.74,.62Zm0-2.99l-.62,.72c-.95-1.03-1.99-1.9-3.13-2.61l.6-.7c1.27,.83,2.31,1.7,3.15,2.59Zm.45-4.55l-.62,.72c-.87-.95-1.85-1.77-2.95-2.45l.61-.74c1.25,.84,2.24,1.66,2.97,2.47Zm11.56,.14h-9.83v2.16h2.23v-1.44h.88v1.44h3.53v-1.44h.91v1.44h2.07v.84h-2.07v2.68h-5.33v-2.68h-2.23v1.32c0,4.07-.71,7.05-2.14,8.96l-.76-.58c1.32-1.83,1.98-4.47,1.98-7.92v-5.69h4.94c-.19-.56-.42-1.06-.67-1.49l1.03-.24c.3,.64,.54,1.22,.69,1.73h4.76v.9Zm.04,12.33l-.5,.91c-1.83-.44-3.31-1-4.45-1.7-1.08,.61-2.67,1.18-4.75,1.71l-.59-.89c1.79-.33,3.25-.81,4.39-1.42-1.2-.96-2.06-1.99-2.57-3.09h-.87v-.93h7.85v.93c-.64,1.32-1.52,2.36-2.61,3.12,1.31,.67,2.68,1.13,4.11,1.36Zm-2.58-4.48h-4.84c.54,1.01,1.35,1.86,2.43,2.56,1.07-.7,1.87-1.56,2.41-2.56Zm-.64-3.04v-1.8h-3.53v1.8h3.53Z"/>
        <path class="cls-1" d="M499.35,151.59c-.12,.53-.3,1.17-.54,1.91l-.34,1.06v12.61h-.94v-10.33c-.5,1.09-1.01,2.01-1.51,2.77l-.55-.9c1.22-1.9,2.23-4.37,3.02-7.38l.86,.25Zm5.87,12.04h-4.09v3.54h-.92v-15.28h4.88v4.95h-3.96v2.43h3.71v.91h-3.71v2.54h4.09v.91Zm-1.04-7.71v-3.15h-3.04v3.15h3.04Zm7.35,10.59l-.69,.74c-1.12-.93-1.94-1.77-2.45-2.52-.86,.93-1.91,1.73-3.16,2.43l-.67-.68c1.48-.76,2.56-1.61,3.26-2.56-.8-1.41-1.36-2.92-1.68-4.54h-.55v-.94h5.16c-.19,2.23-.79,4.05-1.79,5.46,.39,.73,1.25,1.6,2.58,2.61Zm-.67-9.69h-4.9v-.86h3.96v-3.21h-3.96v-.86h4.9v4.93Zm-1.13,2.56h-2.63c.26,1.38,.7,2.6,1.31,3.65,.66-1.14,1.1-2.36,1.32-3.65Z"/>
        <path class="cls-1" d="M16.26,202.72H.64v-.93h7.37v-4.14H2.32v-.92H14.66v.92h-5.71v4.14h7.31v.93Zm-.67-10.06h-.93v-2.48h-4.03v3.3c0,.33,.22,.5,.65,.5h4.21v.91h-4.25c-1.01,0-1.51-.47-1.51-1.42v-3.3h-2.34c-.42,2.88-2.32,4.69-5.69,5.43l-.52-.84c3.24-.64,4.97-2.17,5.2-4.59H2.26v2.41h-.92v-3.33h6.75c-.19-.5-.43-1.03-.72-1.56l.86-.33c.28,.49,.56,1.12,.85,1.89h6.51v3.4Z"/>
        <path class="cls-1" d="M27.53,193.65h-5.36v9.48h-.96v-15.31h6.32v5.83Zm-.93-3.42v-1.51h-4.43v1.51h4.43Zm0,2.54v-1.64h-4.43v1.64h4.43Zm5.2,8.73h-7.04v-6.39h7.04v6.39Zm-.92-3.71v-1.8h-5.2v1.8h5.2Zm0,2.83v-1.93h-5.2v1.93h5.2Zm4.52,1.08c0,.45-.13,.81-.4,1.06s-.75,.39-1.45,.39h-.96l-.34-.93c.28,.02,.82,.04,1.62,.04,.17,0,.31-.06,.43-.18s.17-.27,.17-.43v-7.99h-5.3v-5.83h6.23v13.88Zm-.93-11.47v-1.51h-4.38v1.51h4.38Zm0,2.54v-1.64h-4.38v1.64h4.38Z"/>
        <path class="cls-1" d="M48.09,193.54c.5,0,.93,.17,1.29,.52s.54,.78,.54,1.3-.16,.95-.49,1.29-.75,.51-1.27,.51c-.47,0-.88-.15-1.24-.45-.36-.3-.54-.76-.54-1.38,0-.58,.18-1.02,.55-1.33,.37-.3,.75-.46,1.17-.46Zm1.09,1.83c0-.31-.11-.56-.32-.75-.21-.19-.47-.29-.76-.29s-.54,.1-.73,.31c-.2,.21-.29,.45-.29,.73,0,.26,.09,.5,.28,.73s.44,.34,.76,.34c.3,0,.56-.1,.76-.3,.2-.2,.3-.46,.3-.77Z"/>
      </g>
      <g>
        <path d="M5.42,13.84c3.78,2.33,2.29,5.21,1.01,3.93,0-.48-.13-1.03-.29-1.6-.94,.69-2.41,1.74-3.99,2.79-.15,.27-.36,.44-.53,.5l-.88-1.76c.61-.32,.69-.48,.69-.88V6.66c-.38,.4-.78,.78-1.18,1.09l-.25-.17C1.45,5.67,2.81,2.33,3.32,.17l2.56,.63c-.06,.23-.27,.38-.8,.42,5.5,2.1,3.51,5,2.18,3.84-.29-.99-1.11-2.37-2.31-3.55-.52,1.16-1.28,2.42-2.18,3.59h2.21l.84-1.03s.95,.73,1.53,1.3c-.06,.23-.25,.34-.53,.34H2.69l-.1-.38c-.36,.46-.74,.92-1.13,1.3l1.6,.69h3.23l.78-.82,1.62,1.26c-.11,.13-.38,.27-.71,.34v4.87c-.02,.15-.76,.5-1.26,.5h-.23v-.63H2.94v4.14c.9-.34,1.97-.78,3.07-1.22-.23-.65-.55-1.3-.84-1.83l.25-.1Zm-2.48-4.14h3.53v-1.76H2.94v1.76Zm3.53,2.52v-1.91H2.94v1.91h3.53Zm12.77-4.72c-.15,.21-.36,.27-.8,.32-.53,2.62-1.3,5.02-2.75,7.03,1.07,1.28,2.42,2.22,3.99,2.88l-.04,.23c-.78,.25-1.32,.8-1.45,1.53-1.43-.84-2.56-1.97-3.46-3.46-1.37,1.47-3.17,2.67-5.67,3.55l-.17-.27c2.33-1.13,4.01-2.65,5.23-4.45-.92-1.95-1.51-4.37-1.83-7.29h-1.13v.52c0,3.67-.21,8.34-3.42,11.51l-.31-.19c1.99-3.3,2.16-7.41,2.16-11.3V1.32l1.85,.76h5.42l1.05-1.34s1.16,.94,1.87,1.62c-.06,.23-.25,.34-.55,.34H11.15V6.93h5.35l.99-.97,1.74,1.53Zm-6.45,.06c.36,2.48,1.05,4.47,2.02,6.07,.97-1.8,1.53-3.84,1.85-6.07h-3.86Z"/>
        <path d="M40.78,2.18s1.24,.99,1.99,1.72c-.06,.23-.27,.34-.57,.34h-14.97v4.51c0,3.42-.25,7.85-3.72,10.9l-.27-.21c2.08-3.11,2.31-7.01,2.31-10.69V2.83l1.95,.78h12.16l1.11-1.43Zm-.73,4.22s1.24,.99,2.02,1.7c-.06,.23-.29,.34-.57,.34h-6.24v3.61h3.19l.8-.92,1.7,1.28c-.15,.17-.36,.29-.8,.38v6.21c0,.11-.57,.44-1.36,.44h-.27v-1.64h-8.17v1.3c0,.13-.5,.46-1.32,.46h-.27V11.3l1.85,.76h2.98V4.47l2.46,.23c-.04,.29-.25,.5-.78,.59v2.54h3.7l1.09-1.43Zm-9.7,6.26v4.54h8.17v-4.54h-8.17ZM31.77,.19c4.98,.9,3.67,4.33,1.93,3.19-.34-1.01-1.32-2.29-2.12-3.02l.19-.17Z"/>
        <path d="M65.12,17.51c.63,.97,.74,1.39,.48,1.64-.65,.76-2.08,.06-3-.74-3.42-2.79-4.83-7.41-5.29-12.91h-10.52l-.19-.61h10.67c-.13-1.47-.17-3-.17-4.58l2.54,.29c-.04,.25-.23,.5-.74,.59-.02,1.24,0,2.48,.08,3.7h3.57l1.11-1.41s1.32,.97,2.1,1.68c-.06,.23-.27,.34-.57,.34h-6.17c.36,4.7,1.55,8.99,4.54,11.21,.31,.29,.46,.27,.67-.08,.27-.55,.73-1.6,1.03-2.46l.23,.06-.38,3.28Zm-12.16-1.64c1.45-.34,3.04-.74,4.66-1.13l.08,.34c-2.14,.9-5.08,2.1-9.24,3.59-.08,.23-.27,.42-.48,.48l-1.13-1.93c.92-.17,2.5-.5,4.41-.94v-6.49h-3.67l-.17-.61h6.74l1.07-1.34s1.2,.95,1.95,1.62c-.06,.23-.27,.34-.57,.34h-3.65v6.09ZM60.33,.88c4.75,.27,3.93,3.4,2.27,2.62-.44-.84-1.58-1.87-2.46-2.44l.19-.19Z"/>
        <path d="M88.89,4.09c-.15,.17-.38,.21-.8,.23-.59,.73-1.66,1.76-2.52,2.37l-.21-.15c.23-.69,.52-1.74,.71-2.56h-3.76v3.07c0,.55,.02,.55,.67,.55h3.55c.13,0,.32,0,.57-.06h.17l.12,.02c.61,.19,.69,.29,.69,.57,0,.63-.4,.9-2.25,.9h-3.02c-1.95,0-2.14-.19-2.14-1.97V3.99h-7.94c.12,1.49-.44,2.5-1.11,2.92-.59,.42-1.39,.38-1.66-.21-.21-.53,.15-1.01,.63-1.28,.82-.5,1.53-1.81,1.37-3.23l.34-.02c.17,.44,.27,.82,.36,1.2h13.33l1.05-1.05,1.85,1.79Zm-10.23,1.2c-.08,.25-.31,.4-.9,.38-1.37,2.21-3.36,3.86-7.2,4.51l-.17-.27c3.53-1.36,5.21-3.32,6-5.75l2.27,1.13Zm7.47,11.27s1.28,1.01,2.04,1.74c-.06,.23-.27,.34-.59,.34h-16.88l-.19-.61h7.75v-6.49h-5.19l-.17-.61h10.1l1.03-1.32s1.22,.92,1.93,1.6c-.06,.23-.27,.34-.54,.34h-5.44v6.49h5.04l1.11-1.47ZM77.66,.02c4.51,1.05,2.71,4.37,1.07,3-.06-.99-.67-2.18-1.26-2.88l.19-.13Z"/>
        <path d="M111.51,5.21c-.13,.17-.46,.36-.88,.44v7.1c-.02,.15-.88,.5-1.47,.5h-.29v-1.74h-5.71v7.43c0,.23-.76,.67-1.41,.67h-.34V11.51h-5.71v1.43c0,.17-.74,.59-1.45,.59h-.27V3.88l1.89,.82h5.54V.23l2.52,.27c-.06,.29-.23,.52-.78,.61v3.59h5.5l.92-.97,1.93,1.47Zm-10.1,5.69V5.31h-5.71v5.59h5.71Zm7.45,0V5.31h-5.71v5.59h5.71Z"/>
        <path d="M118.27,3.97c.08,1.24-.44,2.08-1.03,2.44-.52,.34-1.24,.29-1.45-.25-.19-.48,.12-.9,.61-1.13,.69-.4,1.28-1.45,1.13-2.58l.36-.02c.12,.31,.23,.65,.29,.94h6.28v-1.34h-5.96l-.17-.61h11.53l1.01-1.2s1.11,.84,1.83,1.47c-.06,.23-.27,.34-.57,.34h-6v1.34h6.59l.92-.99,1.76,1.66c-.17,.17-.4,.21-.8,.23-.5,.65-1.37,1.53-2.08,2.04l-.25-.13c.19-.59,.42-1.49,.57-2.21h-6.72V8c0,.11-.55,.42-1.39,.42h-.27V3.97h-6.19Zm3.28,13.1c1.01-.15,2.1-.31,3.17-.48l.06,.34c-1.66,.57-3.99,1.32-7.31,2.27-.08,.27-.27,.44-.48,.48l-.97-1.89c.38-.04,.86-.08,1.47-.15v-3.74l1.85,.19c-.04,.23-.19,.38-.55,.44v2.94l1.34-.19v-4.89h-1.09v.17c0,.11-.65,.42-1.22,.42h-.21v-4.66l1.53,.65h3.15l.76-.78,1.64,1.24c-.13,.13-.42,.29-.76,.36v2.56c-.02,.13-.76,.44-1.22,.44h-.23v-.4h-.95v1.72h.55l.82-.99s.9,.71,1.47,1.26c-.04,.23-.23,.34-.52,.34h-2.31v2.35Zm-3.15-10.1c.94-.06,3.11-.36,5.23-.65l.06,.34c-.9,.36-2.29,.88-4.12,1.49-.11,.27-.27,.4-.46,.44l-.71-1.62Zm.48-2.42c4.68-.46,4.96,1.81,3.7,1.7-.88-.5-2.54-1.09-3.82-1.34l.13-.36Zm3.61,7.22v-2.18h-3.44v2.18h3.44Zm11.04-2.04c-.17,.19-.38,.25-.88,.25-.63,.86-1.41,1.68-2.35,2.42,1.34,.48,2.88,.82,4.45,1.01l-.02,.23c-.59,.15-.96,.59-1.11,1.26-.46-.13-.94-.25-1.41-.42l.86,.65c-.11,.13-.36,.27-.67,.32v3.44c-.02,.15-.78,.46-1.28,.46h-.25v-.76h-3.82v.38c0,.13-.5,.5-1.26,.5h-.25v-4.62c-.46,.15-.92,.29-1.41,.42l-.19-.34c1.64-.61,3.15-1.43,4.45-2.44-.69-.52-1.28-1.16-1.76-1.89-.69,.86-1.53,1.68-2.39,2.23l-.25-.21c1.11-1.15,2.21-3.17,2.71-4.79l2.12,.44c-.08,.21-.25,.29-.76,.27-.13,.21-.25,.44-.4,.67h3.42l.94-.84,1.51,1.34Zm-2.29,4.41c-.74-.29-1.41-.63-2.02-1.03-.78,.5-1.64,.95-2.56,1.32l.63,.25h3.4l.55-.55Zm-4.35-7.64c5.5-.17,5.71,2.21,4.35,2.06-.99-.55-3.02-1.34-4.45-1.7l.1-.36Zm4.89-1.01c-.12,.08-.31,.06-.54-.13-.84,.23-2.81,.59-4.3,.74l-.08-.29c1.24-.46,3.17-1.36,3.99-1.83l.94,1.51Zm-4.56,4.35c-.08,.13-.19,.27-.29,.4,.59,.65,1.34,1.2,2.21,1.64,.71-.63,1.32-1.32,1.8-2.04h-3.72Zm3.63,8.15v-2.67h-3.82v2.67h3.82Z"/>
        <path d="M149.22,8.99c.8,3.34,3.13,6.76,9.2,8.97l-.04,.25c-.9,.12-1.47,.46-1.64,1.43-5.52-2.62-7.24-6.87-7.89-10.5-.67,4.58-2.79,8.04-9.87,10.52l-.23-.36c5.96-2.71,7.75-6.09,8.31-10.31h-7.58l-.19-.61h7.83c.17-1.68,.17-3.49,.19-5.44h-6.57l-.19-.61h13.02l1.16-1.45s1.32,1.01,2.14,1.72c-.06,.23-.27,.34-.57,.34h-7.08c-.04,1.95-.08,3.76-.27,5.44h5.82l1.22-1.47s1.34,1.01,2.18,1.74c-.06,.23-.29,.34-.59,.34h-8.36Z"/>
        <path d="M162.04,5.12c4.74,.5,3.65,3.82,1.97,2.81-.29-.97-1.3-2.04-2.16-2.62l.19-.19Zm6.15-1.3c-.92,2.67-2.58,7.64-2.88,8.73-.19,.67-.34,1.37-.34,1.91,.02,.97,.69,1.87,.63,3.61-.04,.92-.52,1.51-1.32,1.51-.42,0-.73-.36-.82-1.05,.31-2.12,.19-3.84-.27-4.16-.29-.21-.61-.27-1.03-.31v-.44h.92c.25,0,.34-.02,.55-.44q.42-.76,4.18-9.47l.38,.11Zm-4.45-3.3c4.91,.5,3.88,3.97,2.14,3.02-.34-1.03-1.45-2.2-2.33-2.86l.19-.17Zm9.03,8.59c-.13,.19-.31,.25-.78,.29-.71,3.36-2.25,6.72-5.71,8.84l-.21-.27c2.48-2.16,3.74-5.48,4.24-8.73h-3.15l-.19-.63h3.21l.92-.92,1.66,1.43Zm8.65-1.87c-.13,.19-.34,.29-.78,.19-1.01,.95-2.62,2.16-4.22,3.04,1.3,3,3.25,4.81,5.29,6.05l-.08,.21c-.69,.11-1.24,.71-1.51,1.58-2.54-2.35-4.16-5.23-5-10.65v9.72c0,1.26-.27,2-2.48,2.2-.06-.52-.19-.9-.5-1.18-.34-.25-.86-.46-1.85-.61v-.32s2.23,.15,2.67,.15c.38,0,.48-.13,.48-.44V5.31h-4.28l-.19-.63h4.26l.84-.99,1.95,1.49c-.15,.17-.48,.36-.9,.42v.31c.25,1.6,.63,2.94,1.11,4.14,1.15-1.28,2.41-3.02,3.02-4.14l2.16,1.32ZM171.13,.34c5.98-.06,5.92,3.72,3.95,3.19-.82-1.09-2.69-2.33-4.09-2.96l.15-.23Z"/>
        <path d="M185.18,5.25c4.66,.46,3.53,3.72,1.87,2.73-.29-.92-1.24-1.95-2.06-2.56l.19-.17Zm6.05-1.15c-.86,2.6-2.48,7.41-2.73,8.46-.19,.65-.34,1.32-.32,1.87,.02,.99,.69,1.89,.63,3.67-.04,.92-.55,1.53-1.32,1.53-.42,0-.74-.36-.8-1.07,.32-2.16,.21-3.91-.27-4.22-.29-.21-.59-.27-1.03-.32v-.44h.9c.27,0,.36-.02,.55-.44q.4-.73,3.99-9.13l.4,.08Zm-4.58-3.65c4.93,.63,3.78,4.01,2.08,2.98-.36-1.01-1.37-2.14-2.27-2.79l.19-.19Zm16.99,16.69c.63,.21,.82,.4,.82,.74,0,.86-1.01,1.09-5.77,1.07h-3.3c-2.31,0-3.07-.4-3.07-2.02v-7.85l-1.87,.82-.42-.48,2.29-.97V3.11l2.37,.25c-.02,.29-.23,.5-.73,.59v3.76l2.79-1.18V.17l2.39,.27c-.04,.29-.21,.5-.78,.59V5.82l2.9-1.24,.15-.06,.88-.92,1.64,1.7c-.17,.17-.4,.23-.84,.27-.46,2.5-1.41,6.13-2.65,8.57l-.32-.15c.61-2.58,1.07-6.26,1.26-8.78l-3.02,1.3V14.87c0,.19-.71,.57-1.3,.57h-.32V7.18l-2.79,1.22v8.17c0,.65,.25,.86,1.55,.86h3.25c1.43,0,2.52-.02,2.98-.06,.34-.04,.5-.13,.65-.34,.23-.38,.55-1.47,.9-2.96h.25l.08,3.07Z"/>
        <path d="M225.81,6.26c-.57,.13-1.16,.25-1.85,.38-.23,2.73-.78,5.31-1.95,7.54,4.07,2.56,2.75,4.56,1.32,3.76-.48-.76-1.28-1.6-2.18-2.41-1.22,1.68-2.92,3.09-5.31,4.12l-.23-.23c2.1-1.24,3.57-2.81,4.62-4.68-1.26-1.01-2.65-1.95-3.82-2.62,.36-1.07,.78-2.62,1.22-4.3l-.95,.17c-.12,.27-.34,.42-.57,.46l-.67-1.97c.61,0,1.49-.04,2.52-.08,.57-2.33,1.05-4.66,1.24-6.07l2.39,.42c-.08,.25-.21,.46-.8,.5-.27,1.26-.69,3.13-1.2,5.06,.86-.06,1.78-.11,2.75-.17,.04-.76,.04-1.49,.04-2.25l2.52,.44c-.06,.36-.36,.53-.82,.57-.02,.36-.04,.76-.06,1.13l1.76-.13,.02,.38Zm-3.51,.71c-.92,.17-1.91,.36-3.04,.57-.42,1.64-.9,3.3-1.36,4.66,1.18,.44,2.12,.86,2.94,1.3,.86-2,1.28-4.22,1.47-6.53Zm12.35-3.13c-.15,.19-.5,.38-.94,.46v13.12c-.04,.15-.84,.59-1.43,.59h-.27v-1.76h-4.26v1.66c0,.21-.61,.61-1.34,.61h-.29V2.54l1.74,.8h3.93l.92-1.05,1.95,1.55Zm-2.64,11.8V3.97h-4.26V15.64h4.26Z"/>
        <path d="M244.54,8.48c4.98,1.76,3.74,5.02,2.14,3.88-.29-1.09-1.24-2.37-2.14-3.34v10.06c-.02,.13-.57,.55-1.37,.55h-.29V10.94c-1.05,1.85-2.46,3.49-4.14,4.85l-.25-.27c1.87-2.23,3.28-5.29,4.03-8.27h-3.63l-.17-.61h4.16V3.09c-1.3,.23-2.69,.42-3.97,.54l-.08-.34c2.67-.67,6-1.99,7.66-2.94l1.97,1.74c-.21,.21-.63,.23-1.15,0-.8,.23-1.74,.46-2.77,.67v3.86h1.34l1.07-1.43s1.22,.99,1.95,1.7c-.06,.23-.27,.34-.57,.34h-3.8v1.24Zm8.92,1.81c6.05,5.52,5,10.2,3.11,8.5-.13-.8-.4-1.72-.74-2.62-1.91,.59-4.62,1.43-7.81,2.27-.12,.19-.27,.31-.44,.38l-1.05-2.23s.59-.19,.73-.46c1.53-3.36,3.86-11.09,4.47-15.41l2.79,1.05c-.13,.27-.42,.46-.9,.46-1.09,4.12-3.57,10.37-5.82,14.32,1.74-.15,4.68-.5,7.83-.9-.71-1.85-1.7-3.76-2.5-5.25l.32-.11Z"/>
        <path d="M272.49,.92c-.04,.32-.21,.52-.76,.59,.46,7.83,2.35,13.12,9.6,16.27l-.04,.23c-.88,.13-1.49,.61-1.74,1.53-5.54-3.02-7.35-7.92-7.96-14.3-.4,5.17-1.91,10.48-9.47,14.34l-.27-.34c8.15-5.31,8.06-12.11,8.08-18.6l2.56,.27Z"/>
        <path d="M284.97,5.08c4.62,.78,3.42,4.01,1.8,2.96-.23-1.01-1.18-2.14-1.99-2.79l.19-.17Zm5.65-.95c-.76,2.54-2.23,7.27-2.48,8.29-.17,.67-.29,1.32-.29,1.87,.04,.97,.67,1.93,.61,3.7-.04,.95-.5,1.51-1.26,1.51-.42,0-.73-.36-.78-1.05,.32-2.14,.19-3.93-.25-4.24-.29-.21-.61-.27-1.03-.31v-.44h.9c.23,0,.34-.02,.53-.44q.38-.74,3.67-8.97l.38,.08Zm-4.18-3.76c4.72,.86,3.49,4.09,1.85,3.04-.29-1.01-1.24-2.18-2.04-2.88l.19-.17Zm6.13,8.36c0,3.51-.19,7.96-3.42,10.96l-.29-.19c1.97-3.11,2.14-7.03,2.14-10.77V2.25l1.87,.84h8.57l1.05-1.37s1.22,.95,1.93,1.64c-.06,.23-.27,.34-.54,.34h-11.3v5.04Zm10.48,3.51c-.15,.17-.4,.23-.9,.25-.78,1.45-1.83,2.69-3.15,3.76,1.53,.82,3.36,1.34,5.44,1.66v.25c-.67,.15-1.15,.63-1.37,1.41-2.14-.55-3.86-1.34-5.25-2.46-1.81,1.13-4.01,1.99-6.68,2.52l-.15-.32c2.35-.69,4.39-1.7,6-2.96-1.03-1.09-1.78-2.42-2.35-4.09h-1.47l-.19-.61h7.43l1.03-.9,1.6,1.49Zm-3.67-1.34v-1.01h-2.96v.73c0,.15-.65,.44-1.18,.44h-.29v-3.93h-1.89l-.17-.61h2.06v-2.5l2.16,.23c-.04,.27-.21,.44-.69,.52v1.74h2.96v-2.5l2.16,.23c-.04,.27-.23,.44-.69,.52v1.74h.34l.94-1.22s1.09,.86,1.74,1.49c-.04,.23-.25,.34-.55,.34h-2.48v3.32c0,.17-.65,.44-1.18,.44h-.29Zm-4.26,1.36c.65,1.36,1.6,2.48,2.79,3.32,1.05-.97,1.89-2.1,2.48-3.32h-5.27Zm1.11-12.26c4.22,.94,2.6,3.99,1.11,2.75-.08-.88-.71-1.97-1.32-2.6l.21-.15Zm3.15,9.28v-2.14h-2.96v2.14h2.96Z"/>
        <path d="M307.84,10.67c1.34-2.6,2.62-6.61,3.34-10.41l2.44,.71c-.06,.25-.34,.44-.8,.44-.46,1.55-1.01,3.09-1.66,4.49l1.03,.38c-.06,.17-.27,.31-.65,.36v12.47c-.02,.13-.69,.48-1.26,.48h-.29V8.21c-.57,.96-1.2,1.87-1.85,2.64l-.29-.19Zm7.41,4.2v4.03c0,.23-.57,.65-1.3,.65h-.27V.76l1.68,.8h2.73l.84-.92,1.8,1.41c-.1,.15-.4,.27-.8,.36V7.56c-.02,.13-.84,.48-1.39,.48h-.25v-1.11h-3.04v3.36h1.93l.92-1.22s1.03,.86,1.66,1.47c-.06,.23-.25,.34-.55,.34h-3.97v3.4h1.95l.97-1.3s1.09,.92,1.76,1.57c-.06,.21-.27,.32-.57,.32h-4.12Zm0-12.75V6.34h3.04V2.12h-3.04Zm12.14,7.94c-.15,.21-.36,.25-.82,.29-.53,1.91-1.3,3.65-2.5,5.14,1.01,1.11,2.23,1.99,3.59,2.65l-.04,.21c-.65,.08-1.18,.53-1.47,1.26-1.22-.84-2.23-1.85-3.02-3.09-1.28,1.24-2.94,2.27-5.12,3.02l-.17-.32c2.02-.97,3.55-2.23,4.7-3.74-.78-1.49-1.32-3.25-1.66-5.35h-.86l-.19-.61h4.98l.94-.95,1.64,1.47Zm-2.67-3.63V2.16h-3.7l-.19-.61h3.7l.84-.95,1.83,1.43c-.1,.15-.4,.27-.78,.36V7.54c-.02,.15-.88,.5-1.43,.5h-.27v-1.01h-3.74l-.17-.61h3.91Zm-3.42,3.72c.42,1.66,1.07,3.09,1.93,4.3,.78-1.3,1.32-2.75,1.66-4.3h-3.59Z"/>
        <path d="M348.49,8.25s1.32,.97,2.1,1.68c-.06,.23-.27,.34-.55,.34h-13.94v1.76h11.02l.92-.92,1.76,1.45c-.15,.17-.4,.25-.82,.31-.17,3.65-.61,5.48-1.47,6.15-.55,.44-1.28,.63-2.12,.63,0-.48-.08-.94-.32-1.16-.25-.25-.84-.44-1.51-.57v-.11c-.25,.15-.74,.32-1.13,.32h-.27v-.63h-8.12l-.63,.84-1.89-1.09c.19-.19,.48-.4,.78-.53v-3l2.29,.23c-.04,.29-.25,.48-.71,.55v2.39h3.34v-3.76l2.21,.23c-.04,.25-.19,.42-.61,.48v3.04h3.36v-3.13l2.18,.23c-.04,.23-.19,.4-.61,.46v3.15c.67,.04,1.62,.12,1.97,.12,.34,0,.5-.04,.67-.19,.44-.36,.76-2.02,.92-4.91h-11.21v.31c0,.19-.69,.59-1.41,.59h-.27V1.58l1.81,.78h2.37c.19-.67,.44-1.58,.59-2.23l2.56,.5c-.1,.31-.38,.48-.8,.48-.36,.38-.86,.82-1.3,1.24h4.56l.88-.94,1.89,1.43c-.13,.17-.46,.36-.88,.44v5.14c-.02,.15-.84,.5-1.41,.5h-.27v-.99h-8.31v1.72h11.27l1.11-1.41Zm-12.39-5.29v1.87h8.31v-1.87h-8.31Zm8.31,4.37v-1.89h-8.31v1.89h8.31Z"/>
      </g>
    </g>
  </g>
</svg>