<?xml version="1.0" encoding="UTF-8"?>
<svg id="_圖層_2" data-name="圖層 2" xmlns="http://www.w3.org/2000/svg" viewBox="0 0 511 279">
  <defs>
    <style>
      .cls-1 {
        fill: none;
      }
    </style>
  </defs>
  <g id="_圖層_1-2" data-name="圖層 1">
    <g>
      <rect class="cls-1" width="511" height="279"/>
      <g>
        <path d="M6.71,9.56H3.02l-.17-.63h3.8l-.23-1.7,2.29,.17c-.02,.25-.19,.46-.59,.59l.13,.94h1.55l.86-1.07s.99,.78,1.6,1.36c-.06,.23-.25,.34-.55,.34h-3.36l.08,.63c-.08,.13-.21,.21-.38,.29l1.49,.17c-.04,.23-.17,.4-.59,.46v.65h.73l.8-.97s.94,.71,1.55,1.26c-.06,.23-.25,.34-.54,.34h-2.54v1.18h1.74l.84-.94s.97,.69,1.6,1.22c-.04,.23-.25,.34-.54,.34h-2.21v.71c0,.19,.04,.27,.25,.27h.95c.08,0,.19-.02,.25-.02,.08,0,.23-.04,.31-.06h.19l.08,.02c.4,.13,.54,.21,.54,.48,0,.46-.42,.63-2.02,.63h-.73c-.53,0-.82-.08-.97-.27-.1,.1-.25,.17-.46,.21v.94h.97l.78-.84s.88,.59,1.47,1.11c-.04,.23-.23,.34-.53,.34h-2.69v1.2c1.11-.1,2.29-.25,3.44-.4l.04,.34c-1.72,.55-3.97,1.18-7.03,1.83-.12,.27-.31,.42-.52,.46l-.82-1.81c.8-.02,2.06-.13,3.49-.27v-1.34h-2.58l-.17-.61h2.75v-1.6l1.74,.19c-.02-.15-.04-.31-.04-.52v-.99h-1.36c-.5,1.34-1.51,2.31-3.88,2.83l-.27-.31c1.62-.48,2.31-1.43,2.6-2.52h-2.08l-.17-.61h3.61v-1.18h-2.69l-.17-.63h2.86v-1.11c-.21,0-.42,.02-.67,.02l-.15-1.11Zm12.53,11.53s1.16,.84,1.89,1.47c-.04,.23-.27,.34-.57,.34H11.04l1.2,.55c-.08,.19-.4,.38-.97,.23-.99,.4-2.42,.86-3.8,1.18,2.25-.04,5.44-.17,8.88-.31-.5-.4-1.03-.8-1.6-1.15l.15-.29c5.92,1.03,4.85,4.05,3.32,3.32-.25-.36-.71-.86-1.32-1.39-2.65,.34-6.4,.76-10.69,1.13-.15,.23-.32,.36-.48,.42l-.69-1.87s.38-.04,.54-.08c1.37-.25,3-1.09,4.03-1.72H3.58l-.19-.61h14.82l1.03-1.2Zm-3.53-1.72s1.13,.82,1.87,1.45c-.04,.23-.25,.34-.54,.34H7.47l-.17-.61h7.43l.99-1.18Zm.99-8.1c-.02,.25-.21,.46-.65,.52-.02,.4-.02,.76-.04,1.13h1.53l.8-.82,1.55,1.28c-.13,.13-.42,.25-.78,.29-.08,1.78,.15,4.01,.76,4.68,.13,.13,.19,.1,.27-.08,.17-.42,.36-.97,.54-1.51l.23,.04-.19,2.02c.34,.46,.46,.76,.27,1.05-.34,.57-1.24,.29-1.76-.17-1.22-1.18-1.47-3.57-1.51-6.17h-1.74c-.04,.73-.12,1.39-.25,2.04,2.54,1.22,1.83,3.04,.67,2.48-.21-.36-.59-.8-1.09-1.26-.57,1.36-1.72,2.46-3.88,3.34l-.25-.34c1.87-1.01,2.69-2.29,3.07-3.86-.46-.29-1.01-.63-1.6-.9l.15-.31c.59,.1,1.13,.21,1.62,.36,.08-.48,.11-.99,.13-1.53h-1.76l-.19-.61h1.97c.02-.59,.02-1.22,.02-1.87l2.12,.21Zm3.55-3.53s1.05,.84,1.7,1.49c-.06,.23-.27,.34-.57,.34h-4.01l-.21,1.11c-.31,.25-.96,.36-1.64,.19l.23-1.3h-2.79l-.17-.63h3.07l.31-1.76,2.25,.44c-.02,.27-.23,.48-.78,.48l-.15,.84h1.85l.9-1.2Z"/>
        <path d="M31.66,12.96c-.13,.21-.31,.31-.82,.23-.38,.67-.88,1.45-1.47,2.25l.92,.34c-.06,.19-.27,.34-.65,.4v9.87c-.02,.13-.69,.48-1.3,.48h-.29v-9.45c-.73,.86-1.53,1.64-2.41,2.33l-.23-.23c1.72-2.1,3.3-5.25,4.01-7.37l2.25,1.15Zm-.19-4.58c-.1,.23-.31,.31-.78,.23-1.07,1.45-2.88,3.4-4.87,4.68l-.21-.23c1.51-1.64,3-4.14,3.67-5.82l2.18,1.13Zm.44,6.24l1.99,.21c-.04,.25-.21,.46-.71,.52v1.87c-.02,2.08-.38,5.1-2.42,6.97l-.32-.25c1.28-1.93,1.45-4.72,1.45-6.76v-2.56Zm3.82-2.1v13.21c0,.21-.67,.57-1.22,.57h-.31V12.52h-2.77l-.17-.61h2.94V7.31l2.29,.25c-.06,.29-.23,.52-.76,.59v3.76h1.18l.92-1.22s1.07,.86,1.72,1.49c-.04,.23-.25,.34-.53,.34h-3.3Zm.88-4.58c3.02,1.15,1.79,3.28,.73,2.39-.08-.76-.54-1.7-.99-2.27l.25-.13Zm2.92,13.73c.38,.15,.55,.23,.55,.52,0,.5-.48,.71-1.72,.71h-.52c-.94,0-1.07-.36-1.07-1.13v-7.18l1.89,.23c-.02,.27-.23,.46-.61,.52v6.07c0,.23,.04,.31,.21,.31h.48c.08,0,.17,0,.21-.02,.08,0,.23-.04,.32-.06h.21l.06,.02Zm3.93-8.97s1.13,.92,1.85,1.6c-.06,.23-.25,.34-.55,.34h-1.87v9.72c0,1.18-.27,1.99-2.18,2.18-.02-.46-.1-.86-.31-1.11-.25-.25-.69-.44-1.51-.55v-.31s1.66,.13,2.02,.13,.44-.13,.44-.4V14.64h-2.46l-.17-.61h3.72l1.03-1.32Zm-4.07-2.73l-.17-.63h2.83l.99-1.28s1.13,.9,1.83,1.57c-.04,.23-.25,.34-.55,.34h-4.93Z"/>
        <path d="M56.21,8.01c-.11,.25-.38,.42-.84,.4-.67,1.68-1.47,3.25-2.35,4.66l.99,.38c-.06,.19-.25,.34-.63,.38v12.18c-.04,.13-.71,.52-1.39,.52h-.29V15c-.88,1.18-1.85,2.23-2.83,3.09l-.29-.19c1.95-2.54,3.99-6.66,5.14-10.75l2.5,.86Zm5.46,4.05v3.8h2.79l1.05-1.34s1.18,.94,1.91,1.62c-.06,.23-.25,.34-.57,.34h-5.19v3.91h3l1.09-1.41s1.26,.97,2.06,1.68c-.06,.23-.27,.34-.57,.34h-5.58v5.02c0,.13-.55,.5-1.43,.5h-.29V12.06h-1.32c-1.2,1.95-2.6,3.63-4.12,4.85l-.27-.21c1.72-2.25,3.55-5.88,4.62-9.53l2.48,.9c-.11,.25-.36,.42-.84,.38-.44,1.05-.95,2.06-1.49,3h6.15l1.11-1.41s1.28,.99,2.06,1.68c-.06,.23-.27,.34-.57,.34h-6.09Z"/>
        <path d="M79.31,16.74l1.87,1.43c-.15,.17-.46,.34-.86,.42v6.89c-.02,.15-.84,.52-1.41,.52h-.25v-1.55h-4.05v1.39c0,.17-.67,.55-1.37,.55h-.25v-9.43l1.72,.73h3.74l.86-.94Zm-.65,7.1v-5.54h-4.05v5.54h4.05Zm-.65-8.13c0,.15-.71,.55-1.43,.55h-.25V7.71l1.81,.78h6.82l.88-.99,1.89,1.47c-.13,.17-.46,.34-.88,.42v6.21c-.02,.15-.84,.52-1.41,.52h-.27v-1.55h-7.16v1.13Zm0-6.61v4.85h7.16v-4.85h-7.16Zm13.1,9.07c-.15,.17-.44,.34-.88,.44v7.05c-.02,.13-.86,.46-1.39,.46h-.27v-1.68h-4.2v1.43c0,.17-.69,.55-1.39,.55h-.25v-9.47l1.74,.73h3.88l.86-.94,1.89,1.43Zm-2.54,5.67v-5.54h-4.2v5.54h4.2Z"/>
        <path d="M99.4,10.99c.84,0,1.51,.69,1.51,1.51s-.67,1.51-1.51,1.51-1.51-.67-1.51-1.51,.65-1.51,1.51-1.51Zm0,10.08c.84,0,1.51,.69,1.51,1.51s-.67,1.51-1.51,1.51-1.51-.67-1.51-1.51,.65-1.51,1.51-1.51Z"/>
        <path d="M116.14,15.56c-.17,.17-.42,.27-.86,.34-.19,5.92-.67,8.63-1.6,9.53-.57,.55-1.3,.78-2.14,.78,0-.46-.06-.88-.32-1.09-.25-.23-.84-.42-1.49-.55l.02-.36c.65,.06,1.72,.15,2.12,.15,.34,0,.52-.04,.71-.23,.61-.55,.99-3.25,1.16-8.44h-2.12c-.25,4.05-1.01,7.83-3.93,10.81l-.34-.34c2.69-4.12,2.65-9.3,2.67-14.24h-2.31l-.17-.61h6.19l1.01-1.34s1.18,.94,1.85,1.62c-.04,.23-.23,.34-.55,.34h-4.3c-.02,1.07-.04,2.1-.08,3.13h1.89l.88-.92,1.7,1.43Zm-5.94-8.44c4.45,1.45,2.88,4.85,1.32,3.53-.02-1.13-.78-2.56-1.55-3.36l.23-.17Zm16.94,17.36v.27c-.5,.1-.76,.65-.76,1.3h-2.65c-3,0-4.83-.92-5.88-4.35-.74,2.23-1.91,3.84-3.63,4.96l-.27-.23c2.08-2.29,3.15-5.4,3.15-9.7l2.31,.29c-.04,.29-.27,.5-.73,.52-.13,1.28-.34,2.44-.59,3.44,.54,1.49,1.32,2.37,2.33,2.88V14.41h-3.46l-.19-.61h7.5l.9-.94,1.66,1.62c-.17,.15-.4,.19-.82,.21-.59,.67-1.64,1.72-2.42,2.31l-.27-.15c.32-.63,.74-1.66,.99-2.44h-2.35v4.39h1.76l1.01-1.3s1.13,.9,1.83,1.57c-.06,.23-.25,.34-.55,.34h-4.05v4.96c.57,.08,1.2,.13,1.89,.13h3.3Zm-11.51-10.29c1.15-1.7,2.18-4.33,2.67-7.05l2.5,.76c-.08,.23-.34,.42-.8,.42-.31,.86-.69,1.66-1.09,2.39h5.08l1.09-1.41s1.22,.99,1.95,1.68c-.06,.23-.27,.34-.57,.34h-7.92c-.76,1.24-1.66,2.27-2.62,3.07l-.29-.19Z"/>
        <path d="M148.63,19.58s1.01,.88,1.58,1.51c-.06,.23-.27,.34-.53,.34h-2.71v3.02c0,1.26-.25,1.95-2.31,2.14-.04-.46-.15-.86-.4-1.11-.27-.23-.74-.42-1.58-.55v-.31s1.87,.13,2.25,.13c.34,0,.42-.08,.42-.38v-2.94h-6.03c.15,.13,.29,.25,.42,.38-.04,.23-.25,.34-.52,.34h-3.4v3.88c0,.1-.53,.48-1.3,.48h-.27v-4.37h-3.42l-.17-.61h3.59v-2.5h-1.3v.78c0,.15-.61,.48-1.2,.48h-.23V11.83l1.51,.67h1.22v-1.78h-3.25l-.17-.63h3.42v-2.94l2.29,.23c-.04,.27-.23,.46-.71,.55v2.16h1.13l.99-1.26s1.13,.88,1.8,1.55c-.04,.23-.27,.34-.54,.34h-3.38v1.78h1.13l.74-.82,1.64,1.28c-.1,.15-.42,.31-.8,.36v6.21c-.02,.17-.71,.55-1.2,.55h-.21v-1.05h-1.3v2.5h1.11l.99-1.26s.73,.57,1.39,1.13l-.17-.61h6.21v-1.89l2.31,.23c-.02,.31-.23,.44-.69,.5v1.15h.8l.86-1.22Zm-15.68-6.45v2.31h1.41v-2.31h-1.41Zm0,5.29h1.41v-2.37h-1.41v2.37Zm4.18-5.29h-1.41v2.31h1.41v-2.31Zm0,5.29v-2.37h-1.41v2.37h1.41Zm2.14-9.22h4.2v-2.02l2.27,.25c-.06,.29-.21,.5-.76,.57v1.2h2.16l1.01-1.26s1.16,.9,1.85,1.53c-.06,.23-.27,.34-.54,.34h-4.47v1.45h2.04l.76-.82,1.68,1.24c-.11,.15-.38,.29-.69,.36v4.22c-.02,.15-.8,.55-1.3,.55h-.25v-.76h-2.23v1.87l2.1-.17c-.38-.4-.8-.73-1.18-1.01l.21-.19c4.43,.76,3.65,3.59,2.2,2.83-.17-.4-.48-.84-.86-1.26-1.64,.42-3.86,.92-6.84,1.53-.13,.27-.34,.4-.55,.44l-.8-1.78c.88-.02,2.39-.13,4.2-.27v-1.99h-2.08v.59c0,.15-.65,.48-1.28,.48h-.23v-6.55l1.6,.69h1.99v-1.45h-4.05l-.15-.61Zm1.62,12.32c3.86,1.09,2.25,3.88,.84,2.65-.04-.84-.55-1.89-1.07-2.54l.23-.1Zm.5-9.66v1.47h2.08v-1.47h-2.08Zm2.08,3.57v-1.49h-2.08v1.49h2.08Zm1.51-3.57v1.47h2.23v-1.47h-2.23Zm2.23,3.57v-1.49h-2.23v1.49h2.23Z"/>
        <path d="M162.89,11.47c-.15,.17-.48,.34-.9,.44v12.74c-.02,.15-.8,.55-1.37,.55h-.23v-1.62h-4.07v1.68c0,.19-.61,.59-1.28,.59h-.29V10.21l1.68,.78h.55c.21-1.07,.5-2.67,.69-3.78l2.54,.59c-.08,.29-.36,.46-.8,.46-.46,.8-1.11,1.87-1.68,2.73h2.46l.86-.99,1.85,1.47Zm-6.57,.13v5.23h4.07v-5.23h-4.07Zm4.07,11.38v-5.54h-4.07v5.54h4.07Zm12.72-11.51c-.17,.19-.42,.29-.9,.36-.15,7.96-.5,12.39-1.51,13.61-.63,.73-1.49,1.05-2.62,1.05,0-.55-.08-1.01-.42-1.26-.34-.29-1.2-.55-2.12-.71l.02-.36c.99,.1,2.46,.23,2.98,.23,.42,0,.59-.06,.78-.29,.8-.73,1.09-5.35,1.22-12.51h-4.77c-.9,1.74-2,3.28-3.19,4.41l-.29-.19c1.28-2.1,2.56-5.38,3.21-8.59l2.48,.69c-.08,.25-.34,.44-.78,.44-.34,.92-.71,1.78-1.11,2.62h4.24l.99-1.07,1.8,1.57Zm-8.8,3.8c5.33,2.14,3.84,5.88,2.12,4.49-.21-1.43-1.32-3.23-2.33-4.35l.21-.15Z"/>
        <path d="M195.94,24.66c.38,.92,.46,1.53,.15,1.76-.71,.46-1.53-.17-2.1-1.03-1.93-2.6-1.93-9.76-1.87-16h-11.4v4.3c0,3.82-.21,9.09-3.59,12.81l-.32-.19c2.08-3.8,2.27-8.44,2.27-12.6v-5.69l1.93,.76h10.88l.96-1.05,1.91,1.64c-.15,.15-.44,.31-.92,.4-.29,4.51-.17,11.88,1.16,13.71,.17,.25,.25,.21,.36-.08,.25-.78,.46-1.55,.65-2.35l.25,.06-.32,3.55Zm-6.78-3.84c4.75,2.65,3.21,6.09,1.72,4.68-.04-.61-.25-1.26-.53-1.93-2.12,.46-4.91,1.01-8.69,1.66-.13,.25-.36,.4-.57,.44l-.9-2.06c1.13-.02,3.09-.1,5.44-.25v-3.53h-2.29v.88c0,.13-.61,.46-1.18,.46h-.21v-6.99l1.49,.65h2.18v-2.73h-4.12l-.17-.61h7.73l.88-1.22s1.03,.86,1.62,1.49c-.06,.23-.25,.34-.52,.34h-3.91v2.73h2.06l.71-.73,1.51,1.15c-.06,.15-.34,.29-.65,.34v4.64c-.02,.15-.71,.44-1.18,.44h-.23v-.84h-2.23v3.44c.99-.04,1.97-.1,3-.19-.34-.78-.8-1.51-1.24-2.12l.25-.15Zm-3.53-1.6v-3.78h-2.29v3.78h2.29Zm1.51-3.78v3.78h2.23v-3.78h-2.23Z"/>
        <path d="M217.17,14.05s1.2,.88,1.91,1.57c-.06,.23-.27,.34-.57,.34h-18.04l-.19-.63h9.22c-.06-.02-.12-.04-.19-.08-.17-.59-.76-1.24-1.28-1.55l.17-.19c2.77-.15,2.75,1.49,1.91,1.83h6.03l1.03-1.28Zm-6.68,6.99v3.3c0,1.22-.32,1.97-2.37,2.16-.04-.46-.13-.86-.4-1.09-.27-.25-.74-.46-1.66-.57v-.31s1.91,.13,2.33,.13c.34,0,.42-.1,.42-.36v-3.25h-3.04v.4c0,.08-.23,.23-.57,.34l2.08,1.05c-.11,.21-.29,.31-.76,.21-1.28,1.13-3.63,2.39-5.92,2.98l-.19-.27c1.83-.94,3.78-2.62,4.7-3.95-.21,.08-.5,.15-.78,.15h-.25v-5.27l1.8,.76h7.56l.86-.94,1.93,1.43c-.15,.17-.46,.36-.88,.44v2.98c-.02,.15-.88,.44-1.43,.44h-.27v-.73h-3.17Zm-5.25-7.1c0,.17-.73,.5-1.41,.5h-.25V7.59l1.78,.76h8.65l.86-.94,1.91,1.43c-.15,.17-.48,.36-.88,.44v4.47c-.02,.13-.86,.46-1.43,.46h-.25v-.8h-8.99v.55Zm0-5v1.6h8.99v-1.6h-8.99Zm8.99,3.84v-1.64h-8.99v1.64h8.99Zm-8.46,7.64h7.89v-2.39h-7.89v2.39Zm6.49,1.72c7.47,.76,6.36,4.66,4.51,3.76-.61-.92-2.33-2.41-4.62-3.44l.1-.31Z"/>
      </g>
    </g>
  </g>
</svg>