<svg width="439" height="201" viewBox="0 0 439 201" fill="none" xmlns="http://www.w3.org/2000/svg"
    xmlns:xlink="http://www.w3.org/1999/xlink">
    <rect x="30" width="404" height="306" rx="6" fill="#ebebeb" />
    <g filter="url(#filter0_d_665_3)">
        <path
            d="M46 84C46 70.7452 56.7452 60 70 60H425C428.314 60 431 62.6863 431 66V102C431 105.314 428.314 108 425 108H70C56.7452 108 46 97.2548 46 84Z"
            fill="white" />
    </g>
    <path d="M30 6C30 2.68629 32.6863 0 36 0H428C431.314 0 434 2.68629 434 6V50H30V6Z" fill="#00303C"
        fill-opacity="0.95" />
    <path
        d="M216.052 28.576H215.92C215.656 29.404 215.452 30.004 215.296 30.232C215.188 30.352 215.068 30.4 214.876 30.412C214.636 30.436 214.144 30.448 213.52 30.448H211.912C211.312 30.448 211.156 30.34 211.156 29.992V25.324L212.176 24.868V29.476H212.416C212.908 29.476 213.472 29.224 213.472 29.092V24.304L214.648 23.8C214.612 25.192 214.432 27.232 214.204 28.72L214.348 28.804C215.08 27.496 215.668 25.504 215.968 24.136C216.232 24.112 216.352 24.076 216.448 23.968L215.296 22.768L214.684 23.392L213.472 23.932V21.304C213.796 21.256 213.892 21.136 213.916 20.968L212.176 20.8V24.496L211.156 24.94V23.032C211.444 22.996 211.564 22.864 211.576 22.72L209.836 22.528V24.352C209.476 23.908 208.912 23.32 208.912 23.32L208.336 24.28H208.072V21.58C208.408 21.532 208.492 21.4 208.516 21.232L206.728 21.076V24.28H205.324L205.42 24.628H206.728V28.684C206.104 28.828 205.588 28.948 205.276 29.008L206.068 30.616C206.212 30.568 206.332 30.436 206.38 30.28C207.976 29.332 209.044 28.564 209.74 28.036L209.704 27.904C209.152 28.06 208.6 28.204 208.072 28.348V24.628H209.596C209.692 24.628 209.776 24.604 209.836 24.556V25.516L208.564 26.068L208.804 26.332L209.836 25.876V30.328C209.836 31.432 210.328 31.672 211.756 31.672H213.412C216.04 31.672 216.664 31.468 216.664 30.832C216.664 30.592 216.532 30.436 216.1 30.28L216.052 28.576ZM228.196 30.376H228.064C227.8 30.46 227.548 30.52 227.38 30.544C227.188 30.568 226.9 30.604 226.672 30.616C226.312 30.652 225.388 30.676 224.356 30.676H221.452C220.408 30.676 220.084 30.508 220.084 29.968V22.324V22H228.424C228.592 22 228.724 21.94 228.76 21.808C228.268 21.364 227.464 20.704 227.464 20.704L226.744 21.664H218.26L218.368 22H218.788V30.148C218.788 31.516 219.652 31.72 221.596 31.72H224.248C228.292 31.72 229.096 31.6 229.096 30.94C229.096 30.7 228.94 30.508 228.268 30.388L228.196 30.376ZM225.904 29.128V27.1H226.936V29.128H225.904ZM227.14 30.016C227.524 30.016 228.124 29.776 228.136 29.704V27.244C228.328 27.208 228.472 27.124 228.532 27.052L227.38 26.176L226.828 26.752H225.952L224.74 26.272V30.148H224.908C225.388 30.148 225.904 29.896 225.904 29.788V29.476H226.936V30.016H227.14ZM221.908 29.128V27.1H222.904V29.128H221.908ZM223.096 30.064C223.48 30.064 224.056 29.836 224.068 29.752V27.232C224.26 27.208 224.404 27.112 224.464 27.04L223.336 26.188L222.796 26.752H221.956L220.756 26.272V30.34H220.924C221.404 30.34 221.908 30.076 221.908 29.98V29.476H222.904V30.064H223.096ZM223.228 25.072V23.332H225.616V25.072H223.228ZM225.616 25.96H225.856C226.276 25.96 226.96 25.72 226.972 25.636V23.524C227.188 23.476 227.332 23.38 227.404 23.296L226.12 22.324L225.508 22.984H223.288L221.896 22.444V26.164H222.088C222.628 26.164 223.228 25.876 223.228 25.756V25.42H225.616V25.96Z"
        fill="white" />
    <path
        d="M65.832 23.164H64.332L64.44 23.5H65.832V25.552H64.332L64.308 25.48C63.876 25.624 63.444 25.756 63.024 25.888V23.98H64.368C64.524 23.98 64.644 23.92 64.668 23.788C64.344 23.356 63.684 22.648 63.684 22.648L63.108 23.644H63.024V21.292C63.324 21.256 63.444 21.136 63.468 20.968L61.74 20.788V23.644H60.384L60.48 23.98H61.74V26.284C61.068 26.476 60.516 26.632 60.204 26.704L60.792 28.288C60.924 28.24 61.044 28.108 61.08 27.94C61.308 27.796 61.524 27.64 61.74 27.496V30.412C61.74 30.556 61.692 30.616 61.524 30.616C61.308 30.616 60.36 30.544 60.36 30.544V30.712C60.84 30.796 61.068 30.94 61.212 31.144C61.356 31.348 61.416 31.66 61.44 32.08C62.844 31.936 63.024 31.432 63.024 30.496V26.608C63.552 26.224 63.984 25.9 64.32 25.636L64.404 25.888H65.832V26.548C65.832 26.872 65.82 27.172 65.796 27.472C64.836 27.676 63.96 27.844 63.552 27.916L64.104 29.512C64.248 29.476 64.38 29.356 64.428 29.2C64.932 28.792 65.364 28.42 65.724 28.108C65.472 29.704 64.776 30.952 63.324 31.96L63.42 32.092C66.24 31.012 67.14 29.116 67.164 26.548V21.436C67.464 21.388 67.548 21.256 67.572 21.088L65.832 20.92V23.164ZM69.936 28.348H69.396V25.948H71.244C71.412 25.948 71.532 25.888 71.568 25.756C71.148 25.312 70.428 24.676 70.428 24.676L69.804 25.6H69.396V23.5H71.364C71.532 23.5 71.664 23.452 71.688 23.32C71.256 22.876 70.524 22.216 70.524 22.216L69.864 23.164H69.396V21.46C69.708 21.412 69.804 21.28 69.828 21.112L68.028 20.932V32.068H68.28C68.808 32.068 69.396 31.732 69.396 31.588V28.696H71.484C71.664 28.696 71.784 28.636 71.82 28.504C71.376 28.048 70.608 27.364 70.608 27.364L69.936 28.348ZM77.88 30.688V27.628H81.852V30.688H77.88ZM82.416 26.524L81.72 27.28H78.12C80.064 26.188 81.588 24.772 82.656 23.104C82.992 23.08 83.124 23.044 83.22 22.9L81.852 21.592L80.928 22.42H78.06C78.3 22.108 78.516 21.796 78.708 21.484C79.032 21.508 79.128 21.448 79.188 21.316L77.22 20.764C76.452 22.732 74.82 25.072 73.236 26.356L73.332 26.476C74.472 25.888 75.612 25.024 76.584 24.076C76.896 24.568 77.208 25.168 77.28 25.732C78.492 26.68 79.752 24.508 76.896 23.764C77.208 23.428 77.508 23.092 77.784 22.756H80.928C79.476 25.36 76.488 27.64 73.056 28.936L73.128 29.092C74.316 28.852 75.408 28.516 76.416 28.096V32.104H76.692C77.436 32.104 77.88 31.78 77.88 31.672V31.036H81.852V31.96H82.092C82.596 31.96 83.316 31.648 83.328 31.54V27.892C83.604 27.844 83.772 27.724 83.856 27.616L82.416 26.524Z"
        fill="white" />
    <path
        d="M359.288 27.172H356.696V22.156H360.812C360.992 22.156 361.124 22.096 361.16 21.964C360.572 21.484 359.636 20.788 359.636 20.788L358.784 21.808H350.912L351.02 22.156H355.232V27.172H350.384L350.48 27.508H355.232V32.068H355.496C356.24 32.068 356.696 31.756 356.696 31.66V27.508H361.304C361.484 27.508 361.616 27.448 361.652 27.316C361.076 26.824 360.128 26.128 360.128 26.128L359.288 27.172ZM351.896 22.876C352.328 23.788 352.748 24.988 352.784 26.068C354.104 27.328 355.508 24.52 352.028 22.828L351.896 22.876ZM357.584 26.536C358.484 25.84 359.372 24.808 360.104 23.68C360.38 23.704 360.524 23.596 360.572 23.464L358.712 22.78C358.364 24.076 357.86 25.552 357.452 26.464L357.584 26.536ZM365.816 24.532H367.352C367.52 24.532 367.64 24.472 367.676 24.34C367.316 23.884 366.644 23.176 366.644 23.176L366.044 24.196H365.816V21.52C366.14 21.484 366.236 21.352 366.26 21.184L364.448 21.016V24.196H363.044L363.14 24.532H364.448V28.42C363.824 28.528 363.32 28.6 362.996 28.648L363.68 30.328C363.824 30.304 363.956 30.184 364.016 30.028C365.78 29.14 366.992 28.456 367.76 27.952L367.736 27.82C367.076 27.952 366.428 28.072 365.816 28.18V24.532ZM373.268 22.312L372.512 23.08H369.452C369.716 22.576 369.944 22.084 370.124 21.592C370.388 21.58 370.532 21.46 370.568 21.316L368.708 20.86C368.42 22.624 367.796 24.664 367.016 25.924L367.172 26.02C368 25.36 368.72 24.424 369.272 23.428H372.644C372.56 25.528 372.44 27.232 372.272 28.42C371.816 28.012 371.252 27.532 371.252 27.532L370.58 28.444H367.808L367.904 28.792H372.128C372.152 28.792 372.188 28.792 372.212 28.792C372.068 29.608 371.9 30.136 371.696 30.316C371.54 30.46 371.432 30.496 371.192 30.496C370.868 30.496 369.956 30.436 369.344 30.376L369.332 30.544C369.932 30.664 370.448 30.856 370.664 31.084C370.868 31.276 370.952 31.612 370.94 32.056C371.744 32.056 372.296 31.864 372.752 31.408C373.508 30.664 373.844 28.24 374 23.656C374.288 23.62 374.444 23.536 374.54 23.44L373.268 22.312ZM370.232 25.78H368.216L368.312 26.116H371.78C371.948 26.116 372.08 26.056 372.104 25.924C371.66 25.492 370.916 24.88 370.916 24.88L370.232 25.78ZM384.776 21.94V23.5H378.668V21.94H384.776ZM378.668 23.848H384.776V24.304H385.016C385.112 24.304 385.208 24.292 385.316 24.28L384.68 25.048H378.788L378.884 25.384H381.032C380.588 25.924 379.796 26.668 379.148 26.932C379.028 26.98 378.764 27.016 378.764 27.016L379.364 28.54C379.484 28.492 379.58 28.396 379.676 28.252C381.8 27.868 383.552 27.508 384.74 27.22C385.004 27.52 385.232 27.82 385.388 28.12C386.816 28.756 387.368 25.972 383.324 25.804L383.24 25.912C383.636 26.164 384.068 26.524 384.464 26.92C382.76 26.98 381.176 27.016 380.036 27.04C381.02 26.608 382.172 25.972 382.916 25.384H386.408C386.588 25.384 386.708 25.324 386.744 25.192C386.336 24.856 385.76 24.412 385.52 24.244C385.844 24.16 386.144 24.052 386.156 24.004V22.168C386.396 22.12 386.576 22.012 386.648 21.916L385.292 20.908L384.656 21.592H378.884L377.228 21.016V24.7C377.228 27.136 377.108 29.812 375.74 31.96L375.86 32.044C378.5 30.064 378.668 27.004 378.668 24.688V23.848ZM385.076 31.228H383.012V29.62H385.928C386.096 29.62 386.216 29.56 386.252 29.428C385.76 28.996 384.956 28.396 384.956 28.396L384.26 29.272H383.012V28.348C383.3 28.3 383.384 28.192 383.408 28.036L381.632 27.892V29.272H378.68L378.776 29.62H381.632V31.228H377.756L377.852 31.576H386.768C386.936 31.576 387.068 31.516 387.092 31.384C386.624 30.916 385.796 30.268 385.796 30.268L385.076 31.228ZM388.592 24.34H394.448C394.616 24.34 394.724 24.28 394.76 24.148C394.364 23.764 393.692 23.248 393.692 23.248L393.104 24.004H392.372V22.66H393.932C394.1 22.66 394.22 22.6 394.244 22.468C393.884 22.096 393.284 21.604 393.284 21.604L392.756 22.312H392.372V21.256C392.648 21.208 392.744 21.1 392.756 20.944L391.268 20.812V24.004H390.632V21.952C390.896 21.904 390.992 21.808 391.004 21.664L389.6 21.532V24.004H388.496L388.592 24.34ZM391.772 24.712C391.76 25.3 391.664 25.864 391.508 26.356C391.448 26.2 391.28 26.02 390.932 25.876C391.004 25.66 391.052 25.444 391.112 25.228C391.364 25.204 391.484 25.084 391.52 24.928L390.368 24.724C390.344 25.624 390.188 26.512 389.912 27.16L390.104 27.268C390.392 26.98 390.62 26.608 390.8 26.188C390.872 26.344 390.92 26.524 390.932 26.68C391.064 26.824 391.232 26.836 391.352 26.764C391.292 26.908 391.232 27.04 391.16 27.16L391.352 27.28C391.7 27.004 391.964 26.644 392.168 26.2C392.276 26.428 392.36 26.692 392.372 26.92C392.864 27.352 393.476 26.512 392.312 25.888C392.408 25.672 392.48 25.444 392.54 25.204C392.792 25.192 392.9 25.084 392.948 24.928L391.772 24.712ZM391.724 27.412H390.02L390.116 27.76H392.552C392.708 27.76 392.816 27.7 392.84 27.568C392.576 27.292 392.12 26.932 392.12 26.932L391.724 27.412ZM391.34 30.52C391.664 30.244 391.916 29.884 392.12 29.476C392.228 29.728 392.324 29.992 392.348 30.232C392.864 30.688 393.488 29.788 392.264 29.116C392.348 28.9 392.408 28.66 392.468 28.42C392.72 28.396 392.84 28.276 392.876 28.132L391.724 27.94C391.712 28.504 391.628 29.044 391.496 29.536C391.412 29.368 391.22 29.2 390.872 29.044C390.944 28.84 391.004 28.636 391.064 28.42C391.304 28.408 391.424 28.288 391.46 28.132L390.344 27.94C390.308 28.828 390.152 29.716 389.888 30.364L390.092 30.46C390.38 30.16 390.596 29.776 390.776 29.332C390.848 29.512 390.908 29.728 390.92 29.908C391.052 30.04 391.208 30.064 391.328 30.016C391.268 30.148 391.208 30.28 391.148 30.4L391.34 30.52ZM393.008 24.772V30.784H389.888V25.168C390.104 25.132 390.2 25.048 390.224 24.916L388.868 24.772V30.676C388.736 30.772 388.592 30.892 388.508 30.988L389.624 31.528L389.972 31.132H393.008V31.72H393.212C393.608 31.72 394.064 31.504 394.064 31.384V25.192C394.328 25.156 394.4 25.048 394.424 24.916L393.008 24.772ZM397.64 26.908H394.628L394.736 27.244H397.712C397.52 27.988 397.172 28.924 396.812 29.728C396.404 29.548 395.9 29.392 395.288 29.296L395.18 29.392C395.96 29.98 396.896 31 397.244 31.828C398.24 32.356 398.852 30.88 397.184 29.908C397.928 29.2 398.636 28.276 399.068 27.52C399.32 27.496 399.464 27.46 399.56 27.364L398.324 26.2L397.64 26.908ZM396.824 25.048H395.564C396.38 24.172 396.944 23.116 397.292 22.072C397.508 23.152 397.856 24.196 398.324 25.072C397.94 24.712 397.412 24.28 397.412 24.28L396.824 25.048ZM396.116 20.848C395.972 22.456 395.336 24.544 394.184 25.984L394.304 26.092C394.76 25.816 395.144 25.48 395.492 25.108L395.576 25.396H398.144C398.276 25.396 398.384 25.36 398.444 25.276C398.612 25.564 398.804 25.828 399.008 26.056C399.08 25.6 399.404 25.264 399.872 25.036L399.908 24.88C398.888 24.184 397.856 23.008 397.448 21.592C397.76 21.556 397.868 21.46 397.904 21.316L396.116 20.848Z"
        fill="white" />
    <path
        d="M206.168 81.848C206.408 81.848 206.568 81.768 206.616 81.592C205.944 80.936 204.792 79.976 204.792 79.976L203.768 81.4H202.936V78.104C203.384 78.04 203.496 77.864 203.528 77.64L200.696 77.368V81.4H198.616C197.992 80.792 197.128 80.024 197.128 80.024L196.232 81.304V78.072C196.68 78.008 196.792 77.848 196.824 77.608L193.992 77.336V81.4H191.576L191.704 81.848H193.864C193.448 84.296 192.632 86.84 191.32 88.616L191.496 88.776C192.472 88.088 193.304 87.288 193.992 86.408V92.504H194.44C195.288 92.504 196.232 92.056 196.232 91.88V83.16C196.52 83.912 196.728 84.84 196.664 85.704C198.312 87.352 200.504 84.056 196.232 82.696V81.848H198.376C198.456 81.848 198.536 81.832 198.6 81.816L198.616 81.848H200.28C199.736 84.76 198.552 87.768 196.664 89.8L196.84 89.96C198.44 88.952 199.72 87.736 200.696 86.328V92.488H201.128C201.96 92.488 202.936 91.928 202.936 91.704V81.848H202.984C203.288 84.92 203.864 88.088 205.256 89.832C205.4 88.584 205.864 87.608 206.872 86.84V86.648C205.336 85.848 203.96 84.104 203.288 81.848H206.168ZM214.088 89.272V80.312H221V89.272H214.088ZM221.992 78.472L220.792 79.864H214.28L211.592 78.824V91.976H211.992C213.048 91.976 214.088 91.384 214.088 91.08V89.72H221V91.576H221.368C222.296 91.576 223.496 91.048 223.528 90.888V80.888C223.992 80.792 224.248 80.584 224.408 80.392L221.992 78.472ZM242.024 89.96H241.864C241.448 90.104 241.048 90.2 240.776 90.232C240.488 90.264 240.024 90.328 239.704 90.344C239.208 90.376 238.12 90.408 237.016 90.408H233.288C232.008 90.408 231.528 90.216 231.528 89.496V79.432V78.968H242.472C242.696 78.968 242.872 78.888 242.92 78.712C242.2 78.056 241 77.08 241 77.08L239.928 78.52H228.744L228.872 78.968H229.4V89.8C229.4 91.816 230.728 92.072 233.528 92.072H236.856C242.328 92.072 243.448 91.88 243.448 90.856C243.448 90.504 243.192 90.168 242.12 89.992L242.024 89.96ZM239.368 88.456V85.768H240.248V88.456H239.368ZM240.584 89.64C241.192 89.64 242.152 89.288 242.168 89.176V85.992C242.424 85.944 242.6 85.832 242.68 85.736L240.952 84.44L240.104 85.32H239.432L237.496 84.568V89.864H237.768C238.536 89.864 239.368 89.464 239.368 89.288V88.904H240.248V89.64H240.584ZM234.088 88.456V85.768H234.904V88.456H234.088ZM235.224 89.704C235.832 89.704 236.76 89.368 236.776 89.256V85.992C237.032 85.944 237.208 85.816 237.288 85.72L235.592 84.456L234.76 85.32H234.136L232.248 84.568V90.12H232.504C233.272 90.12 234.088 89.72 234.088 89.56V88.904H234.904V89.704H235.224ZM235.768 83V80.68H238.424V83H235.768ZM238.424 84.216H238.808C239.496 84.216 240.6 83.848 240.616 83.736V80.984C240.92 80.92 241.096 80.792 241.192 80.68L239.224 79.208L238.264 80.232H235.848L233.608 79.384V84.52H233.912C234.792 84.52 235.768 84.056 235.768 83.864V83.448H238.424V84.216Z"
        fill="black" fill-opacity="0.8" />
    <path
        d="M205.872 124.284V128.928H202.248C202.572 127.692 202.956 125.976 203.316 124.284H205.872ZM207.624 128.928H207.036V124.476C207.288 124.416 207.444 124.32 207.528 124.224L206.352 123.3L205.752 123.936H203.388C203.64 122.772 203.856 121.644 204.036 120.708H208.596C208.764 120.708 208.896 120.648 208.932 120.516C208.428 120.048 207.6 119.4 207.6 119.4L206.868 120.36H199.128L199.224 120.708H202.848C202.68 121.632 202.452 122.772 202.2 123.936H199.68L199.788 124.284H202.128C201.768 125.964 201.384 127.68 201.048 128.928H198.384L198.492 129.276H209.304C209.484 129.276 209.604 129.216 209.64 129.084C209.172 128.616 208.356 127.92 208.356 127.92L207.624 128.928ZM216.96 124.212C218.892 123.264 219.108 121.692 219.108 120.66V120.036H220.728V122.664C220.728 123.288 220.824 123.516 221.568 123.516H222.096C223.14 123.516 223.5 123.3 223.5 122.916C223.5 122.712 223.392 122.616 223.128 122.508L223.08 122.496H222.972C222.888 122.52 222.792 122.532 222.732 122.544C222.684 122.544 222.588 122.556 222.528 122.556H222.228H221.904C221.748 122.556 221.724 122.508 221.724 122.376V120.156C221.928 120.132 222.084 120.06 222.156 119.976L221.148 119.136L220.608 119.688H219.276L218.088 119.22V120.672C218.088 121.752 217.956 123.036 216.84 124.068L216.96 124.212ZM214.02 122.196C214.476 122.4 214.968 122.688 215.232 122.952C215.376 122.976 215.496 122.952 215.592 122.916V124.14C214.956 124.476 214.356 124.764 213.996 124.932C214.02 124.356 214.02 123.804 214.02 123.288V122.196ZM215.592 119.952V122.064C215.328 121.848 214.824 121.704 214.02 121.812V119.952H215.592ZM216.588 120.108C216.804 120.06 216.972 119.964 217.044 119.88L215.964 119.04L215.484 119.604H214.2L213.036 119.136V123.288C213.036 125.532 213.036 127.992 212.208 129.924L212.376 130.02C213.516 128.676 213.864 126.924 213.972 125.268L214.428 126.084C214.548 126.024 214.62 125.88 214.632 125.736C215.004 125.316 215.328 124.944 215.592 124.632V128.556C215.592 128.724 215.544 128.808 215.34 128.808C215.124 128.808 214.116 128.724 214.116 128.724V128.916C214.596 128.988 214.848 129.108 214.992 129.264C215.136 129.396 215.196 129.66 215.232 129.984C216.432 129.864 216.588 129.42 216.588 128.676V120.108ZM221.184 124.728C220.884 125.64 220.44 126.48 219.828 127.224C219.072 126.588 218.508 125.76 218.136 124.728H221.184ZM221.808 123.768L221.16 124.38H216.936L217.044 124.728H217.896C218.196 125.988 218.676 126.996 219.312 127.8C218.508 128.616 217.476 129.3 216.228 129.792L216.324 129.96C217.74 129.576 218.892 129.036 219.804 128.328C220.536 129.048 221.448 129.564 222.528 129.972C222.684 129.456 223.008 129.144 223.464 129.06L223.488 128.928C222.372 128.664 221.352 128.28 220.512 127.728C221.328 126.912 221.928 125.964 222.36 124.896C222.636 124.872 222.756 124.836 222.852 124.728L221.808 123.768ZM236.352 128.508H236.208C235.992 128.592 235.776 128.652 235.632 128.664C235.464 128.688 235.248 128.724 235.008 128.736C234.636 128.76 233.628 128.784 232.452 128.784H229.452C228.312 128.784 228.036 128.604 228.036 128.076V120.348V120.036H236.508C236.676 120.036 236.796 119.976 236.832 119.844C236.376 119.436 235.656 118.86 235.656 118.86L234.996 119.688H226.44L226.536 120.036H226.992V128.208C226.992 129.444 227.724 129.66 229.572 129.66H232.356C236.352 129.66 237.108 129.564 237.108 128.988C237.108 128.784 236.964 128.628 236.412 128.532L236.352 128.508ZM233.808 127.188V125.136H235.164V127.188H233.808ZM235.32 128.064C235.644 128.064 236.136 127.86 236.148 127.788V125.268C236.34 125.232 236.508 125.136 236.568 125.064L235.536 124.272L235.056 124.788H233.868L232.848 124.368V128.172H232.992C233.376 128.172 233.808 127.98 233.808 127.884V127.536H235.164V128.064H235.32ZM229.788 127.188V125.136H231.108V127.188H229.788ZM231.264 128.112C231.588 128.112 232.056 127.92 232.068 127.836V125.244C232.26 125.22 232.404 125.124 232.464 125.052L231.48 124.296L231 124.788H229.836L228.828 124.368V128.352H228.972C229.368 128.352 229.788 128.136 229.788 128.052V127.536H231.108V128.112H231.264ZM231.132 123.156V121.392H233.892V123.156H231.132ZM233.892 124.02H234.072C234.42 124.02 234.972 123.804 234.984 123.72V121.548C235.2 121.5 235.356 121.404 235.428 121.32L234.312 120.468L233.772 121.044H231.192L230.052 120.576V124.188H230.208C230.652 124.188 231.132 123.96 231.132 123.864V123.504H233.892V124.02Z"
        fill="black" fill-opacity="0.65" />
    <path
        d="M201.852 166.548C204.06 165.96 205.08 165.168 205.548 164.184C206.484 164.784 207.648 165.756 208.164 166.512C209.268 166.932 209.64 165.144 206.7 164.232C207.48 163.776 208.308 163.176 208.728 162.816C208.98 162.876 209.148 162.792 209.208 162.684L207.792 161.892C207.528 162.444 206.94 163.44 206.436 164.148C206.196 164.076 205.932 164.016 205.644 163.968C205.944 163.2 205.98 162.348 206.016 161.376C206.268 161.34 206.388 161.22 206.412 161.076L204.84 160.944C204.816 163.392 204.9 165.108 201.732 166.368L201.852 166.548ZM201.804 167.028C202.32 167.664 202.536 168.6 202.644 169.164C203.34 170.088 204.66 168.204 201.936 166.932L201.804 167.028ZM202.128 161.952C202.632 162.588 202.836 163.512 202.956 164.088C203.664 164.976 204.912 163.056 202.248 161.844L202.128 161.952ZM199.32 161.112C199.788 161.508 200.352 162.192 200.532 162.804C201.636 163.488 202.464 161.34 199.416 161.016L199.32 161.112ZM198.408 163.824C198.852 164.196 199.368 164.808 199.524 165.372C200.592 166.032 201.384 163.956 198.516 163.74L198.408 163.824ZM201.864 163.512C199.764 167.844 199.764 167.844 199.512 168.264C199.38 168.504 199.32 168.504 199.152 168.504H198.612V168.744C198.864 168.768 199.056 168.816 199.224 168.936C199.512 169.116 199.572 170.148 199.368 171.408C199.428 171.828 199.656 172.02 199.896 172.02C200.388 172.02 200.724 171.672 200.748 171.096C200.784 170.076 200.376 169.572 200.352 168.984C200.34 168.696 200.436 168.3 200.532 167.94C200.7 167.364 201.588 164.892 202.068 163.548L201.864 163.512ZM207.828 166.872C207.552 167.352 206.964 168.228 206.472 168.84C206.112 168.3 205.908 167.652 205.776 166.92C205.788 166.668 205.8 166.416 205.812 166.152C206.076 166.116 206.184 166.008 206.208 165.84L204.636 165.696C204.612 168.408 204.684 170.388 201.132 171.828L201.24 172.02C204.564 171.072 205.416 169.692 205.68 167.94C206.004 169.776 206.736 171.228 208.62 172.032C208.704 171.42 209.016 171.156 209.544 171.048L209.556 170.904C208.116 170.472 207.192 169.86 206.604 169.044C207.396 168.684 208.284 168.156 208.728 167.82C208.968 167.904 209.148 167.82 209.208 167.712L207.828 166.872ZM216 163.716L215.364 164.352H212.472L212.58 164.7H215.436C215.016 166.968 214.008 169.284 212.208 170.76L212.328 170.904C214.872 169.512 216.06 167.184 216.624 164.856C216.888 164.844 217.008 164.796 217.092 164.688L216 163.716ZM221.82 162.996C221.364 163.788 220.488 165.012 219.672 165.948C219.144 164.988 218.736 163.848 218.484 162.468V161.388C218.796 161.34 218.88 161.232 218.916 161.064L217.32 160.896V170.436C217.32 170.616 217.248 170.688 217.032 170.688C216.732 170.688 215.28 170.58 215.28 170.58V170.76C215.952 170.856 216.252 171 216.468 171.18C216.672 171.372 216.756 171.648 216.804 172.02C218.292 171.888 218.484 171.384 218.484 170.52V163.32C219.156 167.268 220.56 169.296 222.528 170.844C222.708 170.304 223.068 169.92 223.56 169.836L223.608 169.716C222.216 168.984 220.836 167.928 219.816 166.2C220.932 165.528 222.06 164.652 222.78 164.004C223.044 164.052 223.164 164.004 223.236 163.884L221.82 162.996ZM236.352 170.508H236.208C235.992 170.592 235.776 170.652 235.632 170.664C235.464 170.688 235.248 170.724 235.008 170.736C234.636 170.76 233.628 170.784 232.452 170.784H229.452C228.312 170.784 228.036 170.604 228.036 170.076V162.348V162.036H236.508C236.676 162.036 236.796 161.976 236.832 161.844C236.376 161.436 235.656 160.86 235.656 160.86L234.996 161.688H226.44L226.536 162.036H226.992V170.208C226.992 171.444 227.724 171.66 229.572 171.66H232.356C236.352 171.66 237.108 171.564 237.108 170.988C237.108 170.784 236.964 170.628 236.412 170.532L236.352 170.508ZM233.808 169.188V167.136H235.164V169.188H233.808ZM235.32 170.064C235.644 170.064 236.136 169.86 236.148 169.788V167.268C236.34 167.232 236.508 167.136 236.568 167.064L235.536 166.272L235.056 166.788H233.868L232.848 166.368V170.172H232.992C233.376 170.172 233.808 169.98 233.808 169.884V169.536H235.164V170.064H235.32ZM229.788 169.188V167.136H231.108V169.188H229.788ZM231.264 170.112C231.588 170.112 232.056 169.92 232.068 169.836V167.244C232.26 167.22 232.404 167.124 232.464 167.052L231.48 166.296L231 166.788H229.836L228.828 166.368V170.352H228.972C229.368 170.352 229.788 170.136 229.788 170.052V169.536H231.108V170.112H231.264ZM231.132 165.156V163.392H233.892V165.156H231.132ZM233.892 166.02H234.072C234.42 166.02 234.972 165.804 234.984 165.72V163.548C235.2 163.5 235.356 163.404 235.428 163.32L234.312 162.468L233.772 163.044H231.192L230.052 162.576V166.188H230.208C230.652 166.188 231.132 165.96 231.132 165.864V165.504H233.892V166.02Z"
        fill="black" fill-opacity="0.65" />
    <path
        d="M203.94 146.376C204.108 146.376 204.216 146.316 204.252 146.184C203.868 145.8 203.22 145.272 203.22 145.272L202.656 146.028H201.84V144.588H204.204C204.372 144.588 204.492 144.528 204.516 144.396C204.108 144 203.412 143.436 203.412 143.436L202.824 144.24H201.936C202.428 143.712 202.92 143.088 203.22 142.608C203.472 142.632 203.616 142.536 203.664 142.392L202.344 141.972H203.808C203.976 141.972 204.096 141.912 204.132 141.78C203.724 141.384 203.064 140.856 203.064 140.856L202.476 141.624H201.516C202.2 141.516 202.44 140.244 200.352 139.824L200.232 139.896C200.556 140.28 200.892 140.916 200.964 141.444C201.096 141.552 201.228 141.6 201.336 141.624H198.576L198.672 141.972H199.536L199.428 142.02C199.704 142.548 200.016 143.34 200.028 143.976C200.832 144.78 201.852 143.112 199.584 141.972H202.224C202.092 142.644 201.852 143.544 201.624 144.24H198.396L198.492 144.588H200.748V146.028H198.588L198.684 146.376H200.748V147.276L199.572 146.772C199.416 147.708 198.996 149.112 198.408 150.048L198.54 150.168C199.44 149.448 200.1 148.368 200.496 147.528C200.604 147.54 200.688 147.54 200.748 147.528V151.008H200.94C201.492 151.008 201.84 150.792 201.84 150.72V146.376H203.94ZM201.996 146.988C202.368 147.564 202.74 148.428 202.74 149.16C203.604 149.976 204.6 148.104 202.128 146.916L201.996 146.988ZM207.768 144.084H205.644V141.588C206.772 141.432 207.96 141.156 208.74 140.904C209.064 141.012 209.28 140.988 209.4 140.868L208.152 139.872C207.624 140.268 206.652 140.832 205.74 141.24L204.54 140.832V144.828C204.54 146.988 204.36 149.16 202.908 150.864L203.064 151.008C205.44 149.412 205.644 146.94 205.644 144.852V144.432H207.072V151.02H207.264C207.828 151.02 208.188 150.756 208.188 150.684V144.432H209.364C209.532 144.432 209.664 144.372 209.688 144.24C209.22 143.808 208.452 143.172 208.452 143.172L207.768 144.084ZM212.52 141.672H214.44L214.596 142.872C215.112 142.872 215.52 142.776 215.676 142.56L215.556 141.672H217.692C217.86 141.672 217.98 141.612 218.016 141.48C217.596 141.072 216.912 140.496 216.912 140.496L216.3 141.324H215.508L215.376 140.34C215.616 140.268 215.712 140.16 215.724 140.016L214.224 139.896L214.404 141.324H212.424L212.52 141.672ZM215.412 142.932V145.488H214.128V143.544C214.392 143.508 214.5 143.4 214.524 143.244L213.096 143.088V145.38C212.928 145.464 212.748 145.596 212.652 145.704L213.828 146.376L214.224 145.836H215.412V147.192H212.484L212.58 147.54H213.372C213.348 148.668 213.252 149.82 212.448 150.816L212.592 150.996C213.996 150.108 214.32 148.824 214.404 147.54H215.412V151.02H215.616C216.024 151.02 216.48 150.804 216.48 150.696V143.4C216.78 143.352 216.876 143.244 216.9 143.088L215.412 142.932ZM221.46 145.8H220.38V143.388C220.644 143.34 220.728 143.244 220.752 143.088L219.264 142.944V145.8H216.66L216.756 146.148H219.264V150.048H216.996L217.092 150.396H222.888C223.044 150.396 223.164 150.336 223.2 150.204C222.756 149.772 221.988 149.172 221.988 149.172L221.328 150.048H220.38V146.148H223.044C223.212 146.148 223.332 146.088 223.368 145.956C222.912 145.512 222.144 144.888 222.144 144.888L221.46 145.8ZM221.724 141.324H220.728L220.86 140.472C221.172 140.472 221.28 140.352 221.316 140.196L219.84 139.884L219.624 141.324H218.244L218.34 141.672H219.576L219.408 142.728C219.864 142.824 220.308 142.752 220.512 142.596L220.668 141.672H223.128C223.296 141.672 223.416 141.612 223.44 141.48C223.032 141.072 222.348 140.496 222.348 140.496L221.724 141.324ZM236.352 149.508H236.208C235.992 149.592 235.776 149.652 235.632 149.664C235.464 149.688 235.248 149.724 235.008 149.736C234.636 149.76 233.628 149.784 232.452 149.784H229.452C228.312 149.784 228.036 149.604 228.036 149.076V141.348V141.036H236.508C236.676 141.036 236.796 140.976 236.832 140.844C236.376 140.436 235.656 139.86 235.656 139.86L234.996 140.688H226.44L226.536 141.036H226.992V149.208C226.992 150.444 227.724 150.66 229.572 150.66H232.356C236.352 150.66 237.108 150.564 237.108 149.988C237.108 149.784 236.964 149.628 236.412 149.532L236.352 149.508ZM233.808 148.188V146.136H235.164V148.188H233.808ZM235.32 149.064C235.644 149.064 236.136 148.86 236.148 148.788V146.268C236.34 146.232 236.508 146.136 236.568 146.064L235.536 145.272L235.056 145.788H233.868L232.848 145.368V149.172H232.992C233.376 149.172 233.808 148.98 233.808 148.884V148.536H235.164V149.064H235.32ZM229.788 148.188V146.136H231.108V148.188H229.788ZM231.264 149.112C231.588 149.112 232.056 148.92 232.068 148.836V146.244C232.26 146.22 232.404 146.124 232.464 146.052L231.48 145.296L231 145.788H229.836L228.828 145.368V149.352H228.972C229.368 149.352 229.788 149.136 229.788 149.052V148.536H231.108V149.112H231.264ZM231.132 144.156V142.392H233.892V144.156H231.132ZM233.892 145.02H234.072C234.42 145.02 234.972 144.804 234.984 144.72V142.548C235.2 142.5 235.356 142.404 235.428 142.32L234.312 141.468L233.772 142.044H231.192L230.052 141.576V145.188H230.208C230.652 145.188 231.132 144.96 231.132 144.864V144.504H233.892V145.02Z"
        fill="black" fill-opacity="0.65" />
    <path
        d="M204.06 185.34C205.452 184.98 206.112 184.476 206.436 183.9C206.868 184.224 207.312 184.68 207.516 185.076C208.356 185.472 208.8 184.044 206.88 183.648C207.42 183.48 208.092 183.264 208.476 183.108C208.704 183.18 208.824 183.156 208.884 183.048L207.888 182.292C207.576 182.592 207.06 183.084 206.616 183.444C206.712 183.06 206.736 182.676 206.76 182.244C207 182.208 207.108 182.088 207.12 181.944L205.824 181.836C205.812 183.312 205.824 184.38 203.928 185.148L204.06 185.34ZM203.928 182.4C204.228 182.724 204.576 183.264 204.648 183.732C205.404 184.332 206.22 182.856 204.048 182.316L203.928 182.4ZM200.088 185.316C201.12 184.932 201.636 184.452 201.9 183.888C202.344 184.236 202.8 184.716 202.992 185.136C203.868 185.58 204.336 184.02 202.104 183.66C202.608 183.492 203.28 183.276 203.664 183.12C203.904 183.18 204.012 183.144 204.072 183.048L203.136 182.388C202.884 182.64 202.464 183.012 202.092 183.324C202.164 182.988 202.188 182.64 202.212 182.28C202.452 182.256 202.56 182.124 202.572 181.98L201.3 181.872C201.276 183.228 201.288 184.332 199.944 185.136L200.088 185.316ZM199.452 182.46C199.764 182.796 200.1 183.348 200.16 183.828C200.928 184.464 201.78 182.952 199.584 182.376L199.452 182.46ZM200.28 190.92C200.208 191.364 199.704 191.7 199.296 191.82C198.972 191.94 198.732 192.192 198.816 192.552C198.912 192.924 199.392 193.02 199.74 192.888C200.268 192.684 200.748 191.988 200.472 190.932L200.28 190.92ZM203.22 190.992C203.472 191.352 203.712 191.916 203.712 192.42C204.492 193.152 205.536 191.568 203.352 190.92L203.22 190.992ZM205.98 186.9V187.524H201.732V186.9H205.98ZM201.732 188.424V187.86H205.98V188.424H201.732ZM207.78 190.26H201.732V189.684H208.488C208.656 189.684 208.788 189.624 208.812 189.492C208.368 189.096 207.636 188.556 207.636 188.556L206.988 189.336H201.732V188.76H205.98V189.096H206.172C206.532 189.096 207.072 188.88 207.084 188.784V187.032C207.288 186.996 207.444 186.912 207.504 186.828L206.4 186L205.872 186.552H203.472C203.676 186.444 203.892 186.324 204.036 186.228C204.3 186.228 204.468 186.144 204.504 185.976L203.352 185.724H208.056C207.972 186.132 207.84 186.648 207.744 186.972L207.888 187.056C208.296 186.768 208.872 186.264 209.172 185.928C209.412 185.904 209.544 185.88 209.64 185.796L208.596 184.776L207.996 185.376H199.932C199.896 185.184 199.848 184.98 199.764 184.764H199.572C199.608 185.352 199.248 185.904 198.876 186.12C198.576 186.264 198.36 186.528 198.468 186.852C198.588 187.2 199.02 187.26 199.356 187.08C199.692 186.888 199.98 186.408 199.956 185.724H203.004C202.956 185.976 202.896 186.288 202.836 186.552H201.804L200.628 186.06V191.172H200.784C201.048 191.172 201.312 191.088 201.492 191.004C201.588 191.4 201.636 191.988 201.528 192.468C202.188 193.344 203.484 192.024 201.636 190.956L201.504 191.004C201.648 190.932 201.732 190.86 201.732 190.812V190.608H207.852C207.756 191.304 207.612 191.736 207.456 191.844C207.384 191.904 207.288 191.916 207.12 191.916C207 191.916 206.748 191.904 206.496 191.892C206.664 191.556 206.388 190.992 205.128 190.896L205.02 190.992C205.332 191.22 205.644 191.652 205.716 192.048C205.932 192.204 206.148 192.204 206.304 192.12C206.52 192.18 206.676 192.264 206.772 192.36C206.916 192.492 206.964 192.756 206.952 193.032C207.396 193.032 207.792 192.936 208.092 192.768C208.548 192.48 208.788 191.844 208.92 190.764C209.136 190.728 209.28 190.668 209.364 190.572L208.332 189.744L207.78 190.26ZM218.532 186.444C218.928 185.952 219.3 185.34 219.624 184.692H222.144C222.036 185.376 221.868 186.336 221.724 186.936L221.856 187.02C222.324 186.456 222.888 185.508 223.2 184.896C223.44 184.872 223.56 184.848 223.644 184.752L222.636 183.756L222.06 184.344H219.792C220.068 183.768 220.296 183.168 220.488 182.544C220.764 182.532 220.896 182.424 220.956 182.268L219.408 181.872C219.192 183.432 218.784 185.184 218.352 186.348L218.532 186.444ZM216.732 183.084V186.756H216.912C217.44 186.756 217.764 186.564 217.764 186.516V183.084H218.52C218.688 183.084 218.796 183.024 218.832 182.892C218.4 182.484 217.692 181.956 217.692 181.956L217.068 182.736H212.436L212.532 183.084H216.732ZM214.044 185.76V184.32H215.112V185.76H214.044ZM215.268 186.492C215.58 186.492 216.036 186.276 216.048 186.192V184.464C216.252 184.416 216.432 184.332 216.504 184.248L215.472 183.48L214.992 183.972H214.092L213.108 183.552V186.768H213.252C213.612 186.768 214.044 186.564 214.044 186.48V186.108H215.112V186.492H215.268ZM213.9 190.404V188.76H215.04V190.404H213.9ZM215.988 188.904C216.192 188.856 216.36 188.772 216.432 188.688L215.412 187.92L214.932 188.412H213.948L212.976 187.992V191.484H213.108C213.492 191.484 213.9 191.28 213.9 191.208V190.752H215.04V191.112H215.208C215.52 191.112 215.976 190.884 215.988 190.8V188.904ZM217.8 187.476H218.868C219.036 187.476 219.156 187.416 219.192 187.284C218.76 186.876 218.052 186.336 218.052 186.336L217.428 187.128H212.364L212.46 187.476H216.768V191.664C216.768 191.808 216.72 191.88 216.528 191.88C216.3 191.88 215.304 191.808 215.304 191.808V191.976C215.808 192.048 216.048 192.156 216.192 192.288C216.336 192.432 216.396 192.66 216.408 192.924C217.632 192.828 217.8 192.396 217.8 191.688V187.476ZM220.98 185.856C221.268 185.856 221.388 185.748 221.424 185.604L219.96 185.256C219.924 188.22 219.744 191.208 217.56 192.876L217.704 193.044C219.948 191.844 220.584 189.792 220.836 187.632C221.028 190.008 221.496 191.988 222.708 193.032C222.804 192.408 223.128 192.084 223.632 191.964L223.644 191.832C221.76 190.716 221.148 188.796 220.968 185.964L220.98 185.856ZM236.352 191.508H236.208C235.992 191.592 235.776 191.652 235.632 191.664C235.464 191.688 235.248 191.724 235.008 191.736C234.636 191.76 233.628 191.784 232.452 191.784H229.452C228.312 191.784 228.036 191.604 228.036 191.076V183.348V183.036H236.508C236.676 183.036 236.796 182.976 236.832 182.844C236.376 182.436 235.656 181.86 235.656 181.86L234.996 182.688H226.44L226.536 183.036H226.992V191.208C226.992 192.444 227.724 192.66 229.572 192.66H232.356C236.352 192.66 237.108 192.564 237.108 191.988C237.108 191.784 236.964 191.628 236.412 191.532L236.352 191.508ZM233.808 190.188V188.136H235.164V190.188H233.808ZM235.32 191.064C235.644 191.064 236.136 190.86 236.148 190.788V188.268C236.34 188.232 236.508 188.136 236.568 188.064L235.536 187.272L235.056 187.788H233.868L232.848 187.368V191.172H232.992C233.376 191.172 233.808 190.98 233.808 190.884V190.536H235.164V191.064H235.32ZM229.788 190.188V188.136H231.108V190.188H229.788ZM231.264 191.112C231.588 191.112 232.056 190.92 232.068 190.836V188.244C232.26 188.22 232.404 188.124 232.464 188.052L231.48 187.296L231 187.788H229.836L228.828 187.368V191.352H228.972C229.368 191.352 229.788 191.136 229.788 191.052V190.536H231.108V191.112H231.264ZM231.132 186.156V184.392H233.892V186.156H231.132ZM233.892 187.02H234.072C234.42 187.02 234.972 186.804 234.984 186.72V184.548C235.2 184.5 235.356 184.404 235.428 184.32L234.312 183.468L233.772 184.044H231.192L230.052 183.576V187.188H230.208C230.652 187.188 231.132 186.96 231.132 186.864V186.504H233.892V187.02Z"
        fill="black" fill-opacity="0.65" />
    <path
        d="M361.822 90.216C361.806 89.208 361.79 88.184 361.79 87.208V81.624L361.854 79.016L361.614 78.856L357.278 79.832V80.424L359.166 80.248V87.208C359.166 88.184 359.15 89.208 359.134 90.216L356.846 90.504V91H363.966V90.504L361.822 90.216ZM368.724 79.048V81.032H375.332L369.956 90.84L370.116 91H372.228L376.388 80.28V79.048H368.724Z"
        fill="#DC0000" />
    <path
        d="M359.803 125.872C360.415 125.272 360.979 124.684 361.339 124.348C363.367 122.368 364.159 121.492 364.159 120.328C364.159 118.948 363.355 117.964 361.627 117.964C360.247 117.964 359.035 118.648 358.879 119.98C359.023 120.256 359.251 120.412 359.539 120.412C359.887 120.412 360.151 120.196 360.295 119.548L360.583 118.528C360.811 118.468 361.039 118.444 361.219 118.444C362.203 118.444 362.815 119.2 362.815 120.34C362.815 121.456 362.215 122.404 360.931 123.856C360.343 124.516 359.647 125.332 358.927 126.136V127H364.483V125.872H359.803ZM368.496 125.872C369.108 125.272 369.672 124.684 370.032 124.348C372.06 122.368 372.852 121.492 372.852 120.328C372.852 118.948 372.048 117.964 370.32 117.964C368.94 117.964 367.728 118.648 367.572 119.98C367.716 120.256 367.944 120.412 368.232 120.412C368.58 120.412 368.844 120.196 368.988 119.548L369.276 118.528C369.504 118.468 369.732 118.444 369.912 118.444C370.896 118.444 371.508 119.2 371.508 120.34C371.508 121.456 370.908 122.404 369.624 123.856C369.036 124.516 368.34 125.332 367.62 126.136V127H373.176V125.872H368.496Z"
        fill="black" fill-opacity="0.65" />
    <path
        d="M359.803 169.872C360.415 169.272 360.979 168.684 361.339 168.348C363.367 166.368 364.159 165.492 364.159 164.328C364.159 162.948 363.355 161.964 361.627 161.964C360.247 161.964 359.035 162.648 358.879 163.98C359.023 164.256 359.251 164.412 359.539 164.412C359.887 164.412 360.151 164.196 360.295 163.548L360.583 162.528C360.811 162.468 361.039 162.444 361.219 162.444C362.203 162.444 362.815 163.2 362.815 164.34C362.815 165.456 362.215 166.404 360.931 167.856C360.343 168.516 359.647 169.332 358.927 170.136V171H364.483V169.872H359.803ZM368.004 167.496L370.896 163.284V167.496H368.004ZM373.476 167.496H372.108V162.06H371.22L367.332 167.664V168.384H370.896V171H372.108V168.384H373.476V167.496Z"
        fill="black" fill-opacity="0.65" />
    <path
        d="M359.803 148.872C360.415 148.272 360.979 147.684 361.339 147.348C363.367 145.368 364.159 144.492 364.159 143.328C364.159 141.948 363.355 140.964 361.627 140.964C360.247 140.964 359.035 141.648 358.879 142.98C359.023 143.256 359.251 143.412 359.539 143.412C359.887 143.412 360.151 143.196 360.295 142.548L360.583 141.528C360.811 141.468 361.039 141.444 361.219 141.444C362.203 141.444 362.815 142.2 362.815 143.34C362.815 144.456 362.215 145.404 360.931 146.856C360.343 147.516 359.647 148.332 358.927 149.136V150H364.483V148.872H359.803ZM368.004 146.496L370.896 142.284V146.496H368.004ZM373.476 146.496H372.108V141.06H371.22L367.332 146.664V147.384H370.896V150H372.108V147.384H373.476V146.496Z"
        fill="black" fill-opacity="0.65" />
    <path
        d="M359.803 190.872C360.415 190.272 360.979 189.684 361.339 189.348C363.367 187.368 364.159 186.492 364.159 185.328C364.159 183.948 363.355 182.964 361.627 182.964C360.247 182.964 359.035 183.648 358.879 184.98C359.023 185.256 359.251 185.412 359.539 185.412C359.887 185.412 360.151 185.196 360.295 184.548L360.583 183.528C360.811 183.468 361.039 183.444 361.219 183.444C362.203 183.444 362.815 184.2 362.815 185.34C362.815 186.456 362.215 187.404 360.931 188.856C360.343 189.516 359.647 190.332 358.927 191.136V192H364.483V190.872H359.803ZM370.452 191.7C369.444 191.7 368.808 190.56 368.808 188.22C368.808 188.1 368.808 187.992 368.82 187.872C369.312 187.428 369.876 187.284 370.404 187.284C371.328 187.284 371.904 187.968 371.904 189.444C371.904 190.98 371.304 191.7 370.452 191.7ZM372.732 182.964C369.444 183.336 367.476 185.652 367.476 188.412C367.476 190.776 368.604 192.18 370.44 192.18C372.096 192.18 373.224 191.064 373.224 189.252C373.224 187.632 372.276 186.588 370.824 186.588C370.08 186.588 369.396 186.876 368.856 187.416C369.096 185.292 370.368 183.864 372.804 183.3L372.732 182.964Z"
        fill="black" fill-opacity="0.65" />
    <circle cx="70" cy="84" r="21" fill="#C4A657" />
    <line x1="46" y1="133.75" x2="406" y2="133.75" stroke="#D5D5D5" stroke-width="0.5" />
    <line x1="46" y1="175.75" x2="406" y2="175.75" stroke="#D5D5D5" stroke-width="0.5" />
    <line x1="46" y1="154.75" x2="406" y2="154.75" stroke="#D5D5D5" stroke-width="0.5" />
    <path
        d="M71.92 90.02C71.9 88.76 71.88 87.48 71.88 86.26V79.28L71.96 76.02L71.66 75.82L66.24 77.04V77.78L68.6 77.56V86.26C68.6 87.48 68.58 88.76 68.56 90.02L65.7 90.38V91H74.6V90.38L71.92 90.02Z"
        fill="white" />
    <path
        d="M66.848 126.516C67.548 125.858 68.22 125.228 68.64 124.85C71.104 122.68 72.196 121.616 72.196 120.202C72.196 118.564 71.23 117.402 69.116 117.402C67.394 117.402 65.924 118.242 65.756 119.81C65.91 120.132 66.204 120.342 66.582 120.342C66.988 120.342 67.366 120.104 67.52 119.278L67.856 117.99C68.08 117.948 68.304 117.92 68.514 117.92C69.648 117.92 70.32 118.788 70.32 120.132C70.32 121.532 69.648 122.526 68.122 124.262C67.436 125.046 66.624 125.97 65.798 126.908V128H72.518V126.516H66.848Z"
        fill="black" fill-opacity="0.6" />
    <path
        d="M66.218 166.94L69.592 161.984V166.94H66.218ZM72.84 166.94H71.258V160.542H69.984L65.476 167.15V168.158H69.592V171H71.258V168.158H72.84V166.94Z"
        fill="black" fill-opacity="0.6" />
    <path
        d="M68.024 139.976C68.234 139.934 68.43 139.92 68.626 139.92C69.76 139.92 70.404 140.62 70.404 141.964C70.404 143.504 69.55 144.288 68.248 144.288H67.73V144.862H68.346C69.844 144.862 70.628 145.758 70.628 147.326C70.628 148.838 69.816 149.706 68.346 149.706C68.108 149.706 67.884 149.678 67.66 149.622L67.408 148.418C67.268 147.592 66.988 147.326 66.47 147.326C66.148 147.326 65.826 147.494 65.672 147.886C65.854 149.426 66.988 150.224 68.878 150.224C71.118 150.224 72.532 149.034 72.532 147.326C72.532 145.898 71.762 144.848 69.76 144.526C71.482 144.12 72.224 143.126 72.224 141.88C72.224 140.424 71.16 139.402 69.116 139.402C67.548 139.402 66.19 140.074 66.05 141.614C66.19 141.922 66.47 142.076 66.792 142.076C67.268 142.076 67.618 141.824 67.73 141.166L68.024 139.976Z"
        fill="black" fill-opacity="0.6" />
    <path
        d="M67.394 184.124H72.266V182.612H66.848L66.512 187.47L66.918 187.666C67.408 187.512 67.912 187.428 68.43 187.428C69.788 187.428 70.656 188.352 70.656 190.004C70.656 191.712 69.802 192.706 68.43 192.706C68.094 192.706 67.842 192.664 67.59 192.58L67.352 191.376C67.226 190.606 66.946 190.326 66.442 190.326C66.078 190.326 65.756 190.508 65.616 190.886C65.798 192.356 66.904 193.224 68.71 193.224C71.006 193.224 72.602 191.964 72.602 189.892C72.602 187.82 71.188 186.672 68.976 186.672C68.332 186.672 67.772 186.756 67.212 186.924L67.394 184.124Z"
        fill="black" fill-opacity="0.6" />
    <rect x="0.945312" y="58.2698" width="29.0903" height="51.6119" transform="rotate(-8.16996 0.945312 58.2698)"
        fill="url(#pattern0)" />
    <defs>
        <filter id="filter0_d_665_3" x="42" y="57" width="397" height="60" filterUnits="userSpaceOnUse"
            color-interpolation-filters="sRGB">
            <feFlood flood-opacity="0" result="BackgroundImageFix" />
            <feColorMatrix in="SourceAlpha" type="matrix" values="0 0 0 0 0 0 0 0 0 0 0 0 0 0 0 0 0 0 127 0"
                result="hardAlpha" />
            <feOffset dx="2" dy="3" />
            <feGaussianBlur stdDeviation="3" />
            <feComposite in2="hardAlpha" operator="out" />
            <feColorMatrix type="matrix" values="0 0 0 0 0 0 0 0 0 0 0 0 0 0 0 0 0 0 0.25 0" />
            <feBlend mode="normal" in2="BackgroundImageFix" result="effect1_dropShadow_665_3" />
            <feBlend mode="normal" in="SourceGraphic" in2="effect1_dropShadow_665_3" result="shape" />
        </filter>
        <pattern id="pattern0" patternContentUnits="objectBoundingBox" width="1" height="1">
            <use xlink:href="#image0_665_3" transform="matrix(0.000439174 0 0 0.000247535 0 -0.00695094)" />
        </pattern>

    </defs>
</svg>