<?xml version="1.0" encoding="UTF-8"?>
<svg id="_圖層_2" data-name="圖層 2" xmlns="http://www.w3.org/2000/svg" viewBox="0 0 457 265.28">
  <defs>
    <style>
      .cls-1 {
        fill: #fff;
      }

      .cls-2 {
        fill: #c1a257;
      }
    </style>
  </defs>
  <g id="_圖層_1-2" data-name="圖層 1">
    <g>
      <circle class="cls-2" cx="399" cy="207.28" r="58"/>
      <g>
        <path class="cls-1" d="M396.12,219.54h-5.92v4.9c0,.15,.07,.26,.2,.34s.82,.11,2.06,.11c1.1,0,1.76-.04,1.97-.13s.35-.97,.4-2.66l.97,.36c-.04,1.56-.22,2.51-.56,2.86s-1.2,.52-2.58,.52c-1.56,0-2.44-.04-2.65-.11s-.38-.23-.53-.45-.22-.5-.22-.83v-4.9h-2.92c.01,3.46-1.76,5.63-5.31,6.53l-.63-.84c3.4-.75,5.04-2.65,4.91-5.69h-4.9v-.91h15.7v.91Zm-.65-3.16h-.98v-3.21h-12.44v3.21h-1.01v-4.14h6.68c-.47-.94-.77-1.53-.91-1.77l.99-.32c.45,.77,.79,1.47,1.03,2.09h6.64v4.14Zm-2.25-.38h-9.91v-.89h9.91v.89Z"/>
        <path class="cls-1" d="M415.87,222.54c-.09,1.03-.28,1.89-.58,2.59s-.66,1.04-1.09,1.04c-.46,0-1-.39-1.63-1.16s-1.09-1.57-1.38-2.4c-1.36,1.38-2.79,2.55-4.28,3.52l-.7-.74c1.99-1.29,3.52-2.56,4.59-3.82-.58-2.12-.95-4.56-1.12-7.32h-6.65v2.44h4.81c-.02,1.49-.09,2.81-.22,3.98s-.27,1.88-.42,2.15-.37,.48-.65,.64-.81,.23-1.59,.23c-.24,0-.54,0-.89-.03l-.3-.98c.42,.06,.82,.1,1.22,.1,.51,0,.85-.04,1.01-.12s.3-.18,.4-.3,.21-.69,.34-1.7,.19-2.02,.19-3.04h-3.88c-.11,3.3-.81,6.15-2.11,8.57l-.74-.67c1.28-2.31,1.92-5.27,1.92-8.86v-3.35h7.49c-.05-1.31-.07-2.32-.07-3.02h.94c0,.92,.03,1.93,.09,3.02h4.97v.92h-4.93c.09,2.31,.39,4.47,.9,6.46,1.01-1.38,1.82-3.04,2.43-4.98l.95,.31c-.84,2.3-1.86,4.24-3.04,5.81,.33,.93,.74,1.71,1.25,2.33s.84,.93,1,.93c.18,0,.36-.34,.55-1.02s.28-1.35,.28-2.01l.96,.48Zm-.98-10.04l-.81,.58c-.52-.63-1.21-1.26-2.07-1.89l.76-.62c.83,.55,1.53,1.19,2.12,1.93Z"/>
      </g>
      <g>
        <path class="cls-1" d="M386.57,194.2c0-2.4,.39-4.22,1.17-5.46s1.91-1.85,3.39-1.85c2.83,0,4.25,2.33,4.25,6.98,0,2.26-.39,4.01-1.16,5.24-.78,1.23-1.91,1.85-3.39,1.85-1.38,0-2.44-.59-3.16-1.78s-1.09-2.84-1.09-4.98Zm1.49-.08c0,3.73,.97,5.59,2.92,5.59s2.89-1.89,2.89-5.67-.94-5.9-2.82-5.9c-1.99,0-2.99,1.99-2.99,5.98Z"/>
        <path class="cls-1" d="M405,188.68c-.71-.36-1.46-.54-2.22-.54-1.25,0-2.23,.55-2.95,1.64-.72,1.09-1.08,2.56-1.07,4.4h.04c.63-1.3,1.67-1.95,3.12-1.95,1.19,0,2.14,.39,2.85,1.16s1.06,1.79,1.06,3.05-.4,2.37-1.2,3.23c-.8,.86-1.81,1.29-3.05,1.29-1.42,0-2.5-.55-3.24-1.66s-1.11-2.62-1.11-4.54c0-2.3,.48-4.19,1.45-5.66s2.32-2.21,4.07-2.21c.95,0,1.7,.13,2.25,.39v1.4Zm-6.14,7.59c0,.96,.26,1.77,.77,2.44,.51,.67,1.18,1,2.01,1s1.45-.29,1.94-.88,.74-1.32,.74-2.21c0-.99-.24-1.76-.72-2.31s-1.14-.83-1.98-.83c-.77,0-1.42,.27-1.96,.81s-.8,1.2-.8,1.98Z"/>
        <path class="cls-1" d="M407.66,199.91c0-.29,.1-.53,.31-.73,.21-.2,.44-.3,.71-.3s.52,.1,.72,.3c.2,.2,.3,.45,.3,.73s-.1,.52-.3,.72c-.2,.2-.44,.3-.72,.3s-.51-.1-.71-.29c-.21-.2-.31-.44-.31-.73Z"/>
      </g>
      <circle class="cls-2" cx="399" cy="58" r="58"/>
      <g>
        <path class="cls-1" d="M386.02,62.7h-1.96c-.33,1.78-.75,3.29-1.26,4.52h2.94v8.52h-.9v-1.08h-1.94v1.27h-.91v-7.09c-.26,.47-.6,1-1.02,1.56l-.67-.69c1.33-1.69,2.25-4.03,2.77-7h-2.39v-.88h5.33v.88Zm-1.17,11.05v-5.67h-1.94v5.67h1.94Zm6.05-8.38l-2.56,.41v6.86c.71-.44,1.32-.87,1.8-1.29l.29,.86c-1,.79-1.96,1.44-2.88,1.96l-.45-.91c.23-.16,.34-.4,.34-.72v-6.55l-2.07,.3v-.88l2.07-.33v-4.1h.9v3.93l2.5-.41,.05,.88Zm4.75-3.67c0,3.4-.04,6.4-.12,8.99s-.2,4.14-.34,4.64c-.15,.49-.38,.84-.69,1.05s-.93,.31-1.85,.31h-.54l-.3-.94c.5,.02,.9,.03,1.18,.03,.49,0,.83-.08,1.01-.25s.31-.5,.4-1,.16-2.02,.23-4.56,.12-4.98,.13-7.32h-2.03c0,3.67-.11,6.2-.33,7.58-.22,1.39-.61,2.64-1.16,3.75-.55,1.12-1.27,2.06-2.14,2.84l-.64-.61c.96-.91,1.72-2.04,2.27-3.36,.55-1.33,.87-2.9,.97-4.72s.15-3.65,.15-5.48h-1.8v-.94h5.63Z"/>
        <path class="cls-1" d="M405.73,62.99h-1.7c-.3,1.52-.73,2.94-1.29,4.26h2.87v8.53h-.92v-.99h-1.72v1.17h-.91v-7.25c-.32,.56-.76,1.19-1.33,1.91l-.6-.67c1.49-2.02,2.48-4.34,2.97-6.96h-2.59v-.91h5.22v.91Zm-1.05,10.89v-5.75h-1.72v5.75h1.72Zm11.21-10.82h-4.33v1.13h3.56v4.64h-.83c.69,.76,1.2,1.48,1.53,2.16l-.74,.45c-.12-.25-.26-.49-.43-.7-2.54,.19-5.19,.33-7.94,.43l-.2-.86c1.27-.02,2.64-.06,4.12-.14v-1.34h-3.58v-4.64h3.58v-1.13h-4.19v-.81h4.19v-1.17h.92v1.17h4.33v.81Zm-.02,10.19h-2.27v2.47c0,.29-.09,.54-.28,.76s-.65,.33-1.38,.33c-.25,0-.58-.01-.98-.04l-.24-.93c.32,.04,.7,.06,1.14,.06,.38,0,.61-.03,.69-.09,.09-.06,.13-.19,.13-.38v-2.18h-6.23v-.83h6.23v-1.01h.91v1.01h2.27v.83Zm-5.79,2.01l-.69,.54c-.68-.7-1.3-1.23-1.87-1.6l.69-.58c.78,.58,1.4,1.12,1.87,1.63Zm.55-9.21v-1.03h-2.66v1.03h2.66Zm0,1.94v-1.12h-2.66v1.12h2.66Zm3.6-1.94v-1.03h-2.68v1.03h2.68Zm0,1.94v-1.12h-2.68v1.12h2.68Zm-.17,.84h-2.51v1.27c1.21-.07,2.04-.13,2.5-.17-.13-.18-.33-.41-.59-.7l.61-.4Z"/>
      </g>
      <g>
        <path class="cls-1" d="M386.57,44.92c0-2.4,.39-4.22,1.17-5.46s1.91-1.85,3.39-1.85c2.83,0,4.25,2.33,4.25,6.98,0,2.26-.39,4.01-1.16,5.24s-1.91,1.85-3.39,1.85c-1.38,0-2.44-.59-3.16-1.78s-1.09-2.84-1.09-4.98Zm1.49-.08c0,3.73,.97,5.59,2.92,5.59s2.89-1.89,2.89-5.67-.94-5.9-2.82-5.9c-1.99,0-2.99,1.99-2.99,5.98Z"/>
        <path class="cls-1" d="M397.41,49.32c.93,.74,1.98,1.11,3.15,1.11,.94,0,1.7-.24,2.29-.71s.88-1.13,.88-1.96c0-1.82-1.28-2.72-3.84-2.72h-1.12v-1.26h1.07c2.27,0,3.41-.85,3.41-2.55,0-1.58-.87-2.36-2.6-2.36-.96,0-1.86,.33-2.71,.99v-1.47c.87-.52,1.89-.78,3.08-.78,1.08,0,1.97,.3,2.68,.89s1.06,1.38,1.06,2.36c0,1.78-.91,2.94-2.73,3.46v.04c.97,.08,1.74,.42,2.33,1.02s.88,1.34,.88,2.23c0,1.24-.45,2.23-1.34,2.97s-2.03,1.11-3.42,1.11c-1.28,0-2.3-.24-3.06-.73v-1.63Z"/>
        <path class="cls-1" d="M407.66,50.63c0-.29,.1-.53,.31-.73,.21-.2,.44-.3,.71-.3s.52,.1,.72,.3c.2,.2,.3,.45,.3,.73s-.1,.52-.3,.73c-.2,.2-.44,.3-.72,.3s-.51-.1-.71-.29c-.21-.2-.31-.44-.31-.73Z"/>
      </g>
      <circle class="cls-2" cx="58" cy="58" r="58"/>
      <g>
        <path class="cls-1" d="M46.89,64.69h-4.54c0,.77-.01,1.64-.04,2.59h3.6c0,2.18-.05,4.08-.16,5.69-.11,1.61-.23,2.56-.38,2.84s-.35,.49-.61,.63-.76,.21-1.49,.21c-.22,0-.52,0-.9-.02l-.31-.95c.43,.04,.85,.05,1.26,.05,.54,0,.88-.05,1.02-.16,.13-.11,.23-.25,.28-.43s.13-1.09,.22-2.73c.1-1.64,.13-3.04,.1-4.21h-2.7c-.11,3.22-.81,6.08-2.11,8.6l-.79-.61c.57-1.08,1.02-2.2,1.35-3.38s.54-2.46,.61-3.87c.07-1.41,.11-2.83,.13-4.26h-2.02v-.9h3.48c-.22-.71-.57-1.52-1.05-2.42l.9-.34c.37,.68,.75,1.6,1.15,2.76h2.97v.9Zm8.24,11.27l-.59,.83c-1.63-.85-2.94-1.84-3.93-2.96-.87,1.01-2.07,2-3.62,2.96l-.64-.71c1.65-.99,2.88-2.01,3.69-3.05-.73-1.18-1.28-2.55-1.64-4.1l.92-.25c.3,1.37,.75,2.54,1.33,3.52,1.09-1.74,1.71-4.24,1.87-7.49h-3.09c-.5,1.72-1.21,3.35-2.14,4.88l-.79-.54c1.42-2.18,2.36-4.9,2.81-8.16l.91,.24c-.18,1.11-.37,2.01-.55,2.68h5.36v.9h-1.55c-.23,3.51-.98,6.29-2.27,8.33,.93,1.17,2.23,2.14,3.92,2.92Z"/>
        <path class="cls-1" d="M64.99,68.76l-.56,.72c-.59-.86-1.1-1.53-1.55-2v9.32h-.93v-9.5c-.7,1.96-1.46,3.49-2.28,4.57l-.55-.77c1.04-1.42,1.95-3.42,2.73-5.99h-2.56v-.9h2.65v-3.16h.93v3.16h1.73v.9h-1.73v1.15c.74,.74,1.45,1.58,2.11,2.5Zm3.63,3.47c-.54,1.85-1.83,3.23-3.85,4.16l-.52-.69c1.33-.59,2.36-1.48,3.08-2.65h-2.54v-.81h3.83Zm6.16-4.59h-9.72v-.83h4.3v-1.13h-3.58v-.81h3.58v-1.06h-3.97v-.79h9.09v.79h-4.21v1.06h3.76v.81h-3.76v1.13h4.52v.83Zm.12,8.09l-.62,.72c-1.49-.73-2.79-1.8-3.92-3.21v2.07c0,.49-.12,.85-.36,1.07-.24,.22-.48,.34-.73,.36s-.76,.03-1.57,.03l-.29-.9c1.03,.05,1.63,.03,1.8-.05s.25-.23,.25-.43v-4.39h-4.27v-.83h5.17v1.62c0,.14,.05,.26,.16,.36,1.06-.57,2.06-1.29,3.01-2.14l.53,.76c-.97,.8-1.96,1.49-2.95,2.07,1.13,1.31,2.4,2.28,3.8,2.9Zm-6.19-13.6l-.74,.47c-.37-.45-.79-.86-1.25-1.25l.74-.47c.33,.23,.75,.64,1.25,1.24Zm3.74,6.99l-.38,.76c-1.49-.45-3.23-.78-5.24-.98l.41-.83c1.96,.24,3.7,.59,5.2,1.05Zm.57-7.73c-.36,.41-.81,.83-1.35,1.25l-.79-.45c.56-.43,1.01-.84,1.34-1.23l.81,.43Z"/>
      </g>
      <g>
        <path class="cls-1" d="M45.57,44.92c0-2.4,.39-4.22,1.17-5.46s1.91-1.85,3.39-1.85c2.83,0,4.25,2.33,4.25,6.98,0,2.26-.39,4.01-1.16,5.24s-1.91,1.85-3.39,1.85c-1.38,0-2.44-.59-3.16-1.78s-1.09-2.84-1.09-4.98Zm1.49-.08c0,3.73,.97,5.59,2.92,5.59s2.89-1.89,2.89-5.67-.94-5.9-2.82-5.9c-1.99,0-2.99,1.99-2.99,5.98Z"/>
        <path class="cls-1" d="M64.49,51.45h-7.65v-1.31h3.09v-10.71l-3.17,.96v-1.42l4.64-1.45v12.61h3.08v1.31Z"/>
        <path class="cls-1" d="M66.66,50.63c0-.29,.1-.53,.31-.73,.21-.2,.44-.3,.71-.3s.52,.1,.72,.3c.2,.2,.3,.45,.3,.73s-.1,.52-.3,.73c-.2,.2-.44,.3-.72,.3s-.51-.1-.71-.29c-.21-.2-.31-.44-.31-.73Z"/>
      </g>
      <circle class="cls-2" cx="58" cy="207.28" r="58"/>
      <g>
        <path class="cls-1" d="M44.88,217.87l-.63,.77c-.43-.71-.9-1.35-1.39-1.93v9.36h-.95v-9.45c-.36,1.31-1.02,2.78-1.98,4.39l-.65-.83c1.07-1.59,1.89-3.52,2.46-5.77h-2.21v-.88h2.37v-3.22h.95v3.22h1.75v.88h-1.75v1.03c.77,.81,1.45,1.62,2.02,2.42Zm9.77-2.87h-8.28v1.91c0,3.75-.65,6.77-1.96,9.05l-.74-.63c1.17-2.07,1.76-4.79,1.76-8.13v-6.44h9.22v4.24Zm-5.15-.88v-2.47h-3.13v2.47h3.13Zm5.15,11.99h-.94v-1.12h-5.14v1.12h-.98v-9.7h7.06v9.7Zm-.94-7.22v-1.56h-5.14v1.56h5.14Zm0,2.58v-1.71h-5.14v1.71h5.14Zm0,2.66v-1.76h-5.14v1.76h5.14Zm-.02-10v-2.47h-3.2v2.47h3.2Z"/>
        <path class="cls-1" d="M64.28,217.38l-.72,.62c-.25-.49-.67-1.1-1.27-1.82v9.96h-.91v-8.81c-.54,1.58-1.12,2.89-1.73,3.91l-.61-.78c1-1.65,1.76-3.63,2.3-5.95h-2.03v-.87h2.03v-3.27h.95v3.27h1.66v.87h-1.66v.5c.88,.9,1.55,1.69,1.99,2.37Zm3.37,4.93c-1.17,1.35-2.3,2.37-3.38,3.07l-.67-.65c1.01-.64,2.11-1.62,3.28-2.92l.77,.5Zm7.01-1.55h-4.91v5.37h-.93v-5.37h-4.74v-.88h4.74v-1.26h.93v1.26h4.91v.88Zm-7.75-4.19c-.65,.81-1.38,1.56-2.2,2.25l-.48-.74c.74-.62,1.45-1.37,2.14-2.23l.54,.72Zm-.04-4.59l-.65,.65c-.74-.77-1.35-1.3-1.84-1.61l.6-.66c.56,.38,1.19,.91,1.89,1.62Zm-.08,2.68l-.57,.69c-.53-.56-1.13-1.08-1.8-1.56l.58-.67c.47,.3,1.07,.81,1.79,1.55Zm8.07,.11l-.4,.83c-.42-.35-.82-.67-1.22-.96-.07,1.82-.23,2.91-.47,3.27s-.73,.54-1.45,.54c-.25,0-.47,0-.67-.03l-.25-.91c.26,.02,.56,.04,.9,.04,.42,0,.68-.06,.79-.18s.2-.9,.29-2.34,.13-2.57,.14-3.38h-1.89c-.18,3.14-1.14,5.45-2.9,6.93l-.72-.55c.94-.81,1.63-1.75,2.07-2.81-.45-.46-1.06-.93-1.82-1.4l.52-.72c.63,.39,1.15,.77,1.56,1.15,.19-.6,.33-1.47,.41-2.59h-2.53v-.84h6.19l-.11,2.84c.65,.43,1.17,.81,1.56,1.13Zm-.12,10.03l-.69,.65c-.86-1.05-1.93-2.05-3.23-2.99l.7-.63c1.34,1.03,2.41,2.02,3.21,2.97Z"/>
      </g>
      <g>
        <path class="cls-1" d="M45.57,194.2c0-2.4,.39-4.22,1.17-5.46s1.91-1.85,3.39-1.85c2.83,0,4.25,2.33,4.25,6.98,0,2.26-.39,4.01-1.16,5.24-.78,1.23-1.91,1.85-3.39,1.85-1.38,0-2.44-.59-3.16-1.78s-1.09-2.84-1.09-4.98Zm1.49-.08c0,3.73,.97,5.59,2.92,5.59s2.89-1.89,2.89-5.67-.94-5.9-2.82-5.9c-1.99,0-2.99,1.99-2.99,5.98Z"/>
        <path class="cls-1" d="M64.94,197.07h-1.76v3.66h-1.46v-3.66h-6.43v-.97l6.08-8.99h1.81v8.74h1.76v1.21Zm-3.22-1.21v-5.99c0-.42,.01-.89,.04-1.41h-.04c-.05,.13-.22,.48-.52,1.04l-4.28,6.36h4.8Z"/>
        <path class="cls-1" d="M66.66,199.91c0-.29,.1-.53,.31-.73,.21-.2,.44-.3,.71-.3s.52,.1,.72,.3c.2,.2,.3,.45,.3,.73s-.1,.52-.3,.72c-.2,.2-.44,.3-.72,.3s-.51-.1-.71-.29c-.21-.2-.31-.44-.31-.73Z"/>
      </g>
      <circle class="cls-2" cx="228.5" cy="58" r="58"/>
      <g>
        <path class="cls-1" d="M216.36,69.23c-.93,.46-1.83,.86-2.7,1.21v5.14c0,.43-.17,.74-.51,.93-.34,.19-.97,.29-1.89,.29-.28,0-.58,0-.9-.03l-.3-1c.48,.03,.93,.04,1.36,.04,.61,0,.98-.02,1.1-.07,.12-.04,.18-.14,.18-.29v-4.67c-.98,.33-1.92,.61-2.81,.83l-.16-.92c1.08-.27,2.07-.57,2.97-.91v-4.39h-2.66v-.93h2.66v-3.52h.95v3.52h2.7v.93h-2.7v4c.67-.23,1.56-.62,2.65-1.17l.05,1Zm9.15-6.7h-3.17v12.79c0,.38-.1,.68-.31,.9-.21,.22-.46,.36-.77,.43s-.85,.1-1.64,.1c-.4,0-.88,0-1.44-.03l-.26-.97c.67,.02,1.29,.04,1.85,.04,.77,0,1.23-.03,1.38-.1,.15-.07,.23-.21,.23-.43v-12.73h-4.97v-.97h9.11v.97Z"/>
        <path class="cls-1" d="M245.3,63.69h-13.1v4.98c0,3.37-.55,6.06-1.64,8.08l-.79-.57c.45-.83,.81-1.94,1.09-3.33,.28-1.39,.42-3.4,.42-6.05v-4.02h6.64c-.11-.4-.35-.93-.74-1.58l.94-.25c.29,.54,.57,1.16,.83,1.84h6.35v.91Zm.16,9.3c-.22,1.29-.5,2.25-.83,2.89-.33,.63-.78,.95-1.34,.95-.84,0-1.62-.75-2.36-2.26-.73-1.51-1.18-3.14-1.34-4.89h-4.36v3.82c1.56-.3,2.9-.64,4.02-.99v.91c-1.46,.49-3.2,.89-5.22,1.2l-.25-.87c.35-.11,.52-.32,.52-.62v-7.29c3.63-.12,6.76-.54,9.4-1.26l.52,.81c-1.33,.38-2.63,.66-3.91,.83-.02,1.05,.03,1.91,.13,2.58h4.43v.9h-4.31c.19,1.68,.58,3.14,1.18,4.37s1.1,1.85,1.49,1.85c.56,0,1.01-1.12,1.34-3.37l.88,.47Zm-4.98,3.42h-6.25v-.88h6.25v.88Zm-.99-7.63c-.09-.96-.14-1.76-.14-2.41-1.28,.16-2.65,.27-4.1,.34v2.07h4.25Z"/>
      </g>
      <g>
        <path class="cls-1" d="M216.07,44.92c0-2.4,.39-4.22,1.17-5.46s1.91-1.85,3.39-1.85c2.83,0,4.25,2.33,4.25,6.98,0,2.26-.39,4.01-1.16,5.24s-1.91,1.85-3.39,1.85c-1.38,0-2.44-.59-3.16-1.78s-1.09-2.84-1.09-4.98Zm1.49-.08c0,3.73,.97,5.59,2.92,5.59s2.89-1.89,2.89-5.67-.94-5.9-2.82-5.9c-1.99,0-2.99,1.99-2.99,5.98Z"/>
        <path class="cls-1" d="M234.73,51.45h-8.15v-1.33l3.96-3.99c1.31-1.32,2.12-2.28,2.42-2.88s.45-1.23,.45-1.89c0-.8-.23-1.42-.68-1.85s-1.11-.65-1.96-.65c-1.21,0-2.38,.52-3.5,1.57v-1.56c1.05-.84,2.28-1.26,3.69-1.26,1.17,0,2.11,.33,2.82,.98s1.06,1.53,1.06,2.65c0,.86-.23,1.7-.7,2.53-.47,.83-1.35,1.89-2.64,3.19l-3.17,3.14v.04h6.39v1.34Z"/>
        <path class="cls-1" d="M237.16,50.63c0-.29,.1-.53,.31-.73,.21-.2,.44-.3,.71-.3s.52,.1,.72,.3c.2,.2,.3,.45,.3,.73s-.1,.52-.3,.73c-.2,.2-.44,.3-.72,.3s-.51-.1-.71-.29c-.21-.2-.31-.44-.31-.73Z"/>
      </g>
      <ellipse class="cls-2" cx="228.5" cy="207.03" rx="58" ry="58.25"/>
      <g>
        <path class="cls-1" d="M205.55,210.28c-.18,.52-.44,1.16-.8,1.91l-.54,1.09v12.61h-.91v-10.95c-.67,1.13-1.38,2.15-2.14,3.05l-.55-.86c1.58-1.85,2.94-4.23,4.1-7.14l.85,.29Zm10.12,11.5h-4.27v4.13h-.9v-4.13h-4.31v-9.14h4.31v-2.55h.9v2.55h4.27v9.14Zm-5.17-5.16v-3.07h-3.35v3.07h3.35Zm0,4.21v-3.26h-3.35v3.26h3.35Zm4.23-4.21v-3.07h-3.33v3.07h3.33Zm0,4.21v-3.26h-3.33v3.26h3.33Z"/>
        <path class="cls-1" d="M226.37,220.37l-.76,.33c-.1-.42-.21-.79-.33-1.09-1.71,.68-3.16,1.14-4.36,1.39l-.34-.7c1.19-1.41,2.28-2.94,3.28-4.6-1.05,.26-1.99,.44-2.79,.53l-.18-.67c1.27-2.17,2.1-4.05,2.48-5.64l.85,.36c-.41,1.41-1.14,3.06-2.2,4.93,.85-.12,1.64-.3,2.37-.54,.29-.45,.63-1.19,1.01-2.22l.77,.43c-.73,1.94-2.15,4.28-4.28,7.04,1.2-.37,2.23-.74,3.09-1.12-.05-.15-.19-.52-.43-1.12l.76-.33c.37,.8,.72,1.81,1.05,3.02Zm-4.01,1.3c-.13,1.3-.44,2.69-.92,4.16l-.83-.31c.36-.92,.68-2.25,.94-4.01l.81,.16Zm2.3,3.42l-.83,.2c-.05-.94-.25-2.18-.6-3.71l.79-.2c.33,1.37,.54,2.61,.63,3.71Zm2.03-.9l-.79,.27c-.25-1.29-.52-2.32-.83-3.1l.81-.26c.39,1.14,.66,2.17,.81,3.09Zm2.88-10.2c-.09,.37-.24,.85-.47,1.45l-.33,.87v9.61h-.84v-7.8c-.33,.59-.65,1.11-.96,1.55l-.65-.71c.99-1.47,1.8-3.24,2.43-5.3l.81,.33Zm6.17,.09h-.93v-1.43h-7.2v1.43h-.92v-2.29h4.05c-.12-.32-.36-.76-.72-1.34l.79-.43c.39,.58,.71,1.17,.96,1.77h3.97v2.29Zm.47,1.36h-2.42c-.06,.54-.17,1.12-.33,1.77h2.21v8.71h-.88v-1.26h-3.37v1.26h-.9v-8.71h2c.15-.58,.27-1.17,.36-1.77h-2.97v-.82h6.28v.82Zm-1.41,5v-2.4h-3.37v2.4h3.37Zm0,3.38v-2.57h-3.37v2.57h3.37Z"/>
        <path class="cls-1" d="M246.21,220.39l-.8,.25c-.05-.24-.15-.59-.32-1.04-1.85,.69-3.3,1.13-4.36,1.32l-.38-.71c1.25-1.5,2.28-2.98,3.09-4.44-.91,.22-1.79,.4-2.63,.52l-.26-.79c1.2-1.97,2.02-3.8,2.44-5.48l.86,.24c-.41,1.5-1.17,3.18-2.29,5.06,.65-.08,1.43-.25,2.34-.5,.37-.58,.74-1.41,1.12-2.48l.83,.34c-.8,2.18-2.21,4.58-4.25,7.19,1.01-.25,2.08-.59,3.21-1.02-.09-.31-.25-.7-.48-1.17l.77-.31c.49,1.01,.85,2.02,1.1,3.04Zm-4.07,1.26c-.15,1.53-.44,2.93-.87,4.19l-.81-.25c.45-1.19,.75-2.58,.91-4.18l.77,.23Zm2.27,3.4l-.83,.15c-.06-1.27-.25-2.5-.58-3.67l.79-.19c.37,1.42,.57,2.65,.62,3.71Zm1.76-1.71l-.81,.21c-.2-.96-.4-1.71-.61-2.26l.81-.19c.21,.55,.41,1.3,.61,2.24Zm10.23,1.32l-.27,.93c-2.55,.02-4.4-.05-5.55-.23s-2.23-.65-3.25-1.42c-.36,.56-.88,1.22-1.56,1.99l-.69-.54c1.75-1.95,2.82-3.98,3.22-6.11h-2.01v-.87c.7-1.25,1.25-2.49,1.67-3.71h-2.08v-.87h3.01v.87c-.46,1.22-.99,2.45-1.59,3.71h1.97c-.08,1.55-.57,3.14-1.48,4.75,.45,.42,1.1,.79,1.98,1.11,.87,.32,2.17,.48,3.88,.48,.79,0,1.71-.03,2.77-.09Zm-8-12.2l-.74,.49c-.63-.87-1.34-1.64-2.12-2.31l.65-.62c.87,.76,1.6,1.57,2.21,2.45Zm7.8,2.89l-.47,.72-2.9-1.62c-.9,.59-1.97,1.14-3.2,1.62l-.49-.72c1.06-.41,2.01-.86,2.85-1.35-.41-.23-1-.54-1.77-.94-.28,.28-.48,.46-.62,.56l-.65-.51c.94-.8,1.85-1.85,2.75-3.14l.76,.36c-.43,.65-.67,.99-.72,1.03h3.8v.79c-.59,.67-1.22,1.25-1.91,1.76,.79,.42,1.65,.9,2.58,1.44Zm-.23,6.53h-2.79v1.9h-.86v-1.9h-2.85v-.78h2.85v-1.48h-2.18v-.79h2.18v-1.36h-2.47v-.79h2.47v-1.21h.86v1.21h2.43v.79h-2.43v1.36h2.27v.79h-2.27v1.48h2.79v.78Zm-1.61-9.73h-3.27c-.04,.06-.11,.16-.22,.29l1.92,1.01c.56-.39,1.08-.83,1.56-1.3Z"/>
      </g>
      <g>
        <path class="cls-1" d="M216.93,193.89c0-2.41,.39-4.24,1.17-5.48,.78-1.24,1.91-1.86,3.39-1.86,2.83,0,4.25,2.34,4.25,7.01,0,2.27-.39,4.03-1.16,5.26-.78,1.24-1.91,1.86-3.39,1.86-1.38,0-2.44-.59-3.16-1.78s-1.09-2.86-1.09-5Zm1.49-.08c0,3.74,.97,5.61,2.92,5.61s2.89-1.9,2.89-5.69-.94-5.92-2.82-5.92c-1.99,0-2.99,2-2.99,6Z"/>
        <path class="cls-1" d="M228.1,198.52c.93,.61,1.87,.91,2.83,.91s1.74-.28,2.35-.83c.6-.56,.91-1.29,.91-2.21s-.3-1.64-.91-2.14-1.47-.76-2.61-.76c-.36,0-1.07,.04-2.14,.11v-6.81h6.52v1.34h-5.12v4.1c.51-.03,.9-.04,1.16-.04,1.43,0,2.55,.36,3.36,1.08s1.22,1.73,1.22,3.04-.44,2.43-1.32,3.21-2.03,1.17-3.46,1.17c-1.25,0-2.18-.19-2.79-.56v-1.6Z"/>
        <path class="cls-1" d="M238.03,199.63c0-.29,.1-.53,.31-.74s.44-.3,.71-.3,.52,.1,.72,.3,.3,.45,.3,.74-.1,.53-.3,.73-.44,.3-.72,.3-.51-.1-.71-.3-.31-.44-.31-.74Z"/>
      </g>
      <path class="cls-2" d="M141.25,68.85c-.19,0-.38-.07-.53-.22-.29-.29-.29-.77,0-1.06l9.97-9.98-9.83-9.83c-.29-.29-.29-.77,0-1.06s.77-.29,1.06,0l10.36,10.36c.29,.29,.29,.77,0,1.06l-10.5,10.51c-.15,.15-.34,.22-.53,.22h0Z"/>
      <path class="cls-2" d="M135.25,217.85c-.19,0-.38-.07-.53-.22-.29-.29-.29-.77,0-1.06l9.97-9.98-9.83-9.83c-.29-.29-.29-.77,0-1.06s.77-.29,1.06,0l10.36,10.36c.29,.29,.29,.77,0,1.06l-10.5,10.51c-.15,.15-.34,.22-.53,.22h0Z"/>
      <path class="cls-2" d="M308.25,217.85c-.19,0-.38-.07-.53-.22-.29-.29-.29-.77,0-1.06l9.97-9.98-9.83-9.83c-.29-.29-.29-.77,0-1.06s.77-.29,1.06,0l10.36,10.36c.29,.29,.29,.77,0,1.06l-10.5,10.51c-.15,.15-.34,.22-.53,.22h0Z"/>
      <path class="cls-2" d="M308.25,69.85c-.19,0-.38-.07-.53-.22-.29-.29-.29-.77,0-1.06l9.97-9.98-9.83-9.83c-.29-.29-.29-.77,0-1.06s.77-.29,1.06,0l10.36,10.36c.29,.29,.29,.77,0,1.06l-10.5,10.51c-.15,.15-.34,.22-.53,.22h0Z"/>
    </g>
  </g>
</svg>