<?xml version="1.0" encoding="UTF-8"?>
<svg id="_圖層_2" data-name="圖層 2" xmlns="http://www.w3.org/2000/svg" viewBox="0 0 752 549.26">
  <defs>
    <style>
      .cls-1, .cls-2, .cls-3 {
        fill: #3d3a39;
      }

      .cls-4 {
        fill: #fff;
      }

      .cls-5 {
        stroke-miterlimit: 10;
      }

      .cls-5, .cls-6, .cls-7, .cls-8, .cls-9 {
        fill: none;
      }

      .cls-5, .cls-6, .cls-9 {
        stroke: #3d3a39;
      }

      .cls-10 {
        letter-spacing: .1em;
      }

      .cls-2 {
        font-family: NotoSansTC-Medium-90ms-RKSJ-H, 'Noto Sans TC';
        font-size: 13.26px;
      }

      .cls-11 {
        letter-spacing: 0em;
      }

      .cls-6 {
        stroke-width: .5px;
      }

      .cls-6, .cls-7, .cls-8, .cls-9 {
        stroke-linecap: round;
        stroke-linejoin: round;
      }

      .cls-12 {
        font-family: NotoSerifTC-Medium-90ms-RKSJ-H, 'Noto Serif TC';
        font-size: 21px;
      }

      .cls-13 {
        letter-spacing: -.02em;
      }

      .cls-7 {
        stroke: #f6f8f7;
      }

      .cls-7, .cls-8 {
        stroke-width: 3.5px;
      }

      .cls-14 {
        fill: #333;
        font-family: MicrosoftJhengHeiRegular, 'Microsoft JhengHei';
        font-size: 18px;
        letter-spacing: .1em;
      }

      .cls-15 {
        letter-spacing: .1em;
      }

      .cls-3 {
        font-family: NotoSansTC-Bold-90ms-RKSJ-H, 'Noto Sans TC';
        font-size: 9.29px;
      }

      .cls-16 {
        letter-spacing: -.15em;
      }

      .cls-8 {
        stroke: #fff;
      }

      .cls-17 {
        fill: #f8f9fa;
      }

      .cls-18 {
        letter-spacing: -.15em;
      }
    </style>
  </defs>
  <g id="_圖層_1-2" data-name="圖層 1">
    <g>
      <g>
        <text class="cls-14" transform="translate(77 59.12)"><tspan x="0" y="0">使用除菌級濾材，利用「靜電吸附」效果，能有效去除水中99.9%病菌。</tspan></text>
        <text class="cls-12" transform="translate(77 21.77)"><tspan class="cls-15" x="0" y="0">內建除菌淨水模</tspan><tspan class="cls-18" x="161.7" y="0">組，</tspan><tspan class="cls-15" x="197.4" y="0">飲用水即開即飲</tspan></text>
        <g>
          <path class="cls-1" d="M13.92,43.24c-.06-.6-.09-1.2-.09-1.81,0-4.51,1.5-8.75,4.35-12.26,.02-.03,.04-.06,.06-.09C27.4,16.66,31.79,6.7,33.33,2.75c1.54,3.95,5.93,13.91,15.08,26.31,.02,.04,.05,.07,.07,.11,2.84,3.51,4.34,7.75,4.34,12.26,0,.61-.04,1.22-.09,1.81h1.41c.05-.6,.09-1.2,.09-1.81,0-4.73-1.63-9.37-4.59-13.07-.01-.02-.03-.04-.04-.06C37.85,12.41,34.04,.61,34,.49c-.1-.3-.37-.49-.67-.49h0c-.3,0-.58,.19-.67,.49-.04,.12-3.85,11.91-15.6,27.81-.01,.01-.02,.03-.03,.04-2.97,3.7-4.61,8.34-4.61,13.08,0,.61,.04,1.21,.09,1.81h1.41Z"/>
          <path class="cls-1" d="M51.42,48.66c-2.88,7.18-9.9,12.27-18.09,12.27-3.14,0-6.09-.76-8.72-2.09-.45,.15-.96,.44-1.23,.95,2.96,1.62,6.34,2.55,9.95,2.55,8.98,0,16.64-5.71,19.59-13.68h-1.5Z"/>
          <path class="cls-1" d="M17.1,52.56c.05-.05,.08-.13,.12-.2-.79-1.15-1.47-2.39-1.99-3.7h-1.5c.56,1.52,1.3,2.96,2.18,4.29,.41-.02,.94-.11,1.19-.38"/>
          <line class="cls-9" x1="10.12" y1="45.95" x2="56.53" y2="45.95"/>
          <path class="cls-1" d="M49.22,39.72c0,.48-.39,.87-.87,.87s-.87-.39-.87-.87,.39-.87,.87-.87,.87,.39,.87,.87"/>
          <path class="cls-1" d="M18.33,40.09c0,.48-.39,.87-.87,.87s-.87-.39-.87-.87,.39-.87,.87-.87,.87,.39,.87,.87"/>
          <path class="cls-1" d="M42.2,25.99c0,.48-.39,.87-.87,.87s-.87-.39-.87-.87,.39-.87,.87-.87,.87,.39,.87,.87"/>
          <path class="cls-1" d="M33.34,40.09c0,.48-.39,.87-.87,.87s-.87-.39-.87-.87,.39-.87,.87-.87,.87,.39,.87,.87"/>
          <path class="cls-1" d="M33.97,11.35c0,.48-.39,.87-.87,.87s-.87-.39-.87-.87,.39-.87,.87-.87,.87,.39,.87,.87"/>
          <path class="cls-1" d="M36.65,32.2c0,.48-.39,.87-.87,.87s-.87-.39-.87-.87,.39-.87,.87-.87,.87,.39,.87,.87"/>
          <path class="cls-1" d="M26.28,24.87c0,.48-.39,.87-.87,.87s-.87-.39-.87-.87,.39-.87,.87-.87,.87,.39,.87,.87"/>
          <path class="cls-9" d="M26.6,34.38c.7,2.53,.17,4.89-1.19,5.26-1.36,.38-3.03-1.37-3.73-3.9-.7-2.53-.17-4.89,1.19-5.26,1.36-.38,3.03,1.37,3.73,3.9Z"/>
          <path class="cls-1" d="M23.54,33.62c.08,.28-.09,.58-.37,.66-.28,.08-.58-.09-.66-.37-.08-.28,.09-.58,.37-.66,.28-.08,.58,.09,.66,.37"/>
          <path class="cls-1" d="M25.28,35.16c.08,.28-.09,.58-.37,.66-.28,.08-.58-.09-.66-.37-.08-.28,.09-.58,.37-.66,.28-.08,.58,.09,.66,.37"/>
          <path class="cls-1" d="M24.87,37.69c.08,.28-.09,.58-.37,.66-.28,.08-.58-.09-.66-.37-.08-.28,.09-.58,.37-.66,.28-.08,.58,.09,.66,.37"/>
          <line class="cls-9" x1="22.87" y1="30.48" x2="22.19" y2="28.03"/>
          <line class="cls-9" x1="26.09" y1="42.1" x2="25.41" y2="39.65"/>
          <line class="cls-9" x1="26.6" y1="34.38" x2="29.05" y2="33.7"/>
          <line class="cls-9" x1="19.23" y1="36.42" x2="21.68" y2="35.74"/>
          <line class="cls-9" x1="25.71" y1="32.28" x2="26.96" y2="30.07"/>
          <line class="cls-9" x1="21.3" y1="40.08" x2="22.55" y2="37.87"/>
          <line class="cls-9" x1="26.93" y1="36.66" x2="29.14" y2="37.91"/>
          <line class="cls-9" x1="19.12" y1="32.25" x2="21.34" y2="33.5"/>
          <path class="cls-9" d="M35.86,21.46c0,1.39-1.12,2.51-2.51,2.51s-2.51-1.12-2.51-2.51,1.12-2.51,2.51-2.51,2.51,1.12,2.51,2.51Z"/>
          <path class="cls-1" d="M33.94,21.46c0,.33-.27,.6-.6,.6s-.6-.27-.6-.6,.27-.6,.6-.6,.6,.27,.6,.6"/>
          <line class="cls-9" x1="33.34" y1="18.95" x2="33.34" y2="16.11"/>
          <line class="cls-9" x1="33.34" y1="26.82" x2="33.34" y2="23.97"/>
          <line class="cls-9" x1="35.86" y1="21.46" x2="38.7" y2="21.46"/>
          <line class="cls-9" x1="27.99" y1="21.46" x2="30.84" y2="21.46"/>
          <line class="cls-9" x1="35.12" y1="19.69" x2="37.14" y2="17.68"/>
          <line class="cls-9" x1="29.56" y1="25.25" x2="31.57" y2="23.24"/>
          <line class="cls-9" x1="35.12" y1="23.24" x2="37.14" y2="25.25"/>
          <line class="cls-9" x1="29.56" y1="17.67" x2="31.57" y2="19.69"/>
          <path class="cls-9" d="M37.8,38.57l2.24-3.61,2.3-3.7c.81-1.3,2.53-1.7,3.84-.9,1.3,.81,1.7,2.54,.9,3.84l-4.54,7.31c-.81,1.3-2.53,1.7-3.84,.9-1.3-.81-1.71-2.53-.9-3.84Z"/>
          <line class="cls-9" x1="40.12" y1="34.83" x2="44.75" y2="37.65"/>
          <path class="cls-9" d="M20.31,51.14s.41,4.67-4.67,4.67c0,0,4.67,.49,4.67,4.67"/>
          <path class="cls-9" d="M20.33,51.14s-.41,4.67,4.67,4.67c0,0-4.67,.49-4.67,4.67"/>
          <path class="cls-9" d="M38.57,49.27s.35,4.06-4.06,4.06c0,0,4.06,.42,4.06,4.06"/>
          <path class="cls-9" d="M38.58,49.27s-.35,4.06,4.06,4.06c0,0-4.06,.42-4.06,4.06"/>
          <path class="cls-1" d="M25,55.07c-1.35,0-2.36-.36-3.02-1.07-1.02-1.11-.91-2.76-.91-2.79,.01-.15-.03-.29-.1-.41h0c-.04-.08-.1-.15-.17-.21-.01,0-.02-.02-.03-.03-.06-.04-.12-.08-.19-.1-.03-.01-.07-.02-.1-.03-.03,0-.06-.02-.09-.03-.03,0-.05,0-.07,0s-.05-.01-.07,0c-.03,0-.06,.02-.09,.03-.03,0-.07,.02-.1,.03-.07,.03-.14,.06-.2,.11,0,0-.01,.01-.02,.02-.18,.15-.3,.38-.27,.63,0,.02,.11,1.67-.9,2.78-.66,.72-1.68,1.08-3.03,1.08-.4,0-.72,.31-.75,.71-.02,.4,.27,.74,.67,.78,.16,.02,4.01,.48,4.01,3.93,0,.41,.33,.75,.75,.75,0,0,0,0,0,0s0,0,0,0c.41,0,.75-.33,.75-.75,0-3.45,3.84-3.91,4.01-3.93,.39-.04,.69-.39,.67-.78-.02-.4-.35-.71-.74-.71m-4.68,2.71c-.48-.78-1.16-1.37-1.87-1.79,.51-.25,.95-.58,1.32-.99,.22-.24,.4-.5,.55-.76,.16,.26,.33,.52,.55,.76,.37,.41,.82,.74,1.32,.99-.72,.42-1.39,1.01-1.88,1.79"/>
        </g>
      </g>
      <g>
        <text class="cls-14" transform="translate(77 155.92)"><tspan x="0" y="0">開啟熱水時，停止補充冷水，可連續供應3L95度以上的熱水。</tspan></text>
        <text class="cls-12" transform="translate(77 118.57)"><tspan class="cls-15" x="0" y="0">獨特進水設</tspan><tspan class="cls-16" x="115.5" y="0">計，</tspan><tspan class="cls-10" x="151.2" y="0">使用中熱水溫度穩定不降溫</tspan></text>
        <g>
          <path class="cls-9" d="M16.48,126.35c.45,.13,.88,.2,1.31,.2,.99,0,1.77-.33,2.59-.68,.85-.36,1.72-.74,2.86-.74s2.01,.38,2.86,.74c.82,.35,1.59,.68,2.59,.68s1.77-.33,2.59-.68c.85-.36,1.73-.74,2.86-.74s2.01,.38,2.86,.74c.82,.35,1.6,.68,2.59,.68s1.77-.33,2.59-.68c.85-.36,1.72-.74,2.86-.74s2.01,.38,2.86,.74c.82,.35,1.59,.68,2.59,.68,.43,0,.86-.06,1.32-.2"/>
          <path class="cls-9" d="M43.26,155.98H25.02c-1.3,0-2.41-.9-2.69-2.17l-7.85-36.19c-.37-1.72,.93-3.34,2.69-3.34H51.11c1.76,0,3.07,1.62,2.69,3.34l-7.86,36.19c-.27,1.27-1.4,2.17-2.69,2.17Z"/>
          <path class="cls-9" d="M25.54,99.5l-.1,.12c-.45,.58-1.99,2.91,.11,5.53,2.44,3.03-.12,5.65-.12,5.65"/>
          <path class="cls-9" d="M34.16,107.97s-2.44-2.64,0-5.67c2.13-2.65,.44-4.99-.01-5.53l-.1-.12"/>
          <path class="cls-9" d="M42.75,99.5l-.1,.12c-.45,.58-1.99,2.91,.12,5.53,2.44,3.03-.12,5.65-.12,5.65"/>
          <path class="cls-4" d="M18.46,131.62s0-.07,0-.1v-21.61c0-2.62-2.14-4.77-4.77-4.77s-4.77,2.14-4.77,4.77v21.61c0,.08,0,.16,.01,.23-2.28,1.56-3.78,4.18-3.78,7.15,0,4.78,3.87,8.65,8.65,8.65s8.65-3.87,8.65-8.65c0-3.06-1.6-5.74-4-7.28"/>
          <path class="cls-5" d="M18.46,131.62s0-.07,0-.1v-21.61c0-2.62-2.14-4.77-4.77-4.77s-4.77,2.14-4.77,4.77v21.61c0,.08,0,.16,.01,.23-2.28,1.56-3.78,4.18-3.78,7.15,0,4.78,3.87,8.65,8.65,8.65s8.65-3.87,8.65-8.65c0-3.06-1.6-5.74-4-7.28Z"/>
          <path class="cls-1" d="M16.52,134.65l-1.69-1.08s.04-2.1,.04-2.14v-11.81h-2.34v11.84l.11,2.14-1.67,1.14c-1.38,.94-2.21,2.51-2.21,4.18,0,2.78,2.27,5.05,5.05,5.05s5.05-2.27,5.05-5.05c0-1.73-.87-3.31-2.34-4.25"/>
          <text class="cls-3" transform="translate(25.62 142.92) scale(1 1.12)"><tspan x="0" y="0">9</tspan></text>
          <text class="cls-3" transform="translate(30.72 142.92) scale(1 1.12)"><tspan x="0" y="0">5 C</tspan></text>
          <path class="cls-6" d="M38.47,134.31c0,.46-.37,.82-.82,.82s-.82-.37-.82-.82,.37-.82,.82-.82,.82,.37,.82,.82Z"/>
        </g>
      </g>
      <g>
        <text class="cls-14" transform="translate(77 252.71)"><tspan x="0" y="0">316不銹鋼加熱管搭配304不鏽鋼熱膽，安心使用。</tspan></text>
        <text class="cls-12" transform="translate(77 215.37)"><tspan class="cls-15" x="0" y="0">嚴選不銹鋼加熱管材</tspan><tspan class="cls-16" x="207.9" y="0">質，</tspan><tspan class="cls-15" x="243.6" y="0">飲水超安心</tspan></text>
        <g>
          <path class="cls-9" d="M39.37,204.73v45.13c0,3.35-2.72,6.07-6.07,6.07s-6.07-2.72-6.07-6.07v-36.28c0-1.05,.85-1.9,1.9-1.9s1.9,.85,1.9,1.9v36.28c0,3.35-2.72,6.07-6.07,6.07s-6.07-2.72-6.07-6.07v-45.13"/>
          <path class="cls-9" d="M22.3,204.73h-6.15c-1.09,0-1.98-.89-1.98-1.98s.89-1.98,1.98-1.98h6.15c1.09,0,1.98,.89,1.98,1.98s-.89,1.98-1.98,1.98Z"/>
          <rect class="cls-9" x="15.86" y="196.47" width="6.75" height="4.29"/>
          <path class="cls-9" d="M42.44,204.73h-6.15c-1.09,0-1.98-.89-1.98-1.98s.89-1.98,1.98-1.98h6.15c1.09,0,1.98,.89,1.98,1.98s-.89,1.98-1.98,1.98Z"/>
          <rect class="cls-9" x="35.99" y="196.47" width="6.75" height="4.29"/>
          <path class="cls-8" d="M2.38,227.24l.13,.11c.62,.49,3.11,2.13,5.92-.12,3.25-2.61,6.05,.13,6.05,.13"/>
          <path class="cls-8" d="M14.35,227.26c2.84,2.28,5.34,.47,5.92-.01l.13-.11c.62-.49,3.11-2.13,5.92,.12,3.25,2.61,6.05-.13,6.05-.13"/>
          <path class="cls-8" d="M32.27,227.22c2.84-2.28,5.34-.47,5.92,.02l.13,.11c.62,.49,3.11,2.13,5.92-.12,3.25-2.61,6.05,.13,6.05,.13"/>
          <path class="cls-8" d="M50.17,227.26c2.84,2.28,5.34,.47,5.92-.01l.13-.11"/>
          <path class="cls-9" d="M2.38,227.24l.13,.11c.62,.49,3.11,2.13,5.92-.12,3.25-2.61,6.05,.13,6.05,.13"/>
          <path class="cls-9" d="M14.35,227.26c2.84,2.28,5.34,.47,5.92-.01l.13-.11c.62-.49,3.11-2.13,5.92,.12,3.25,2.61,6.05-.13,6.05-.13"/>
          <path class="cls-9" d="M32.27,227.22c2.84-2.28,5.34-.47,5.92,.02l.13,.11c.62,.49,3.11,2.13,5.92-.12,3.25-2.61,6.05,.13,6.05,.13"/>
          <path class="cls-9" d="M50.17,227.26c2.84,2.28,5.34,.47,5.92-.01l.13-.11"/>
          <path class="cls-9" d="M11.8,236.02c0,1-.81,1.8-1.8,1.8s-1.81-.81-1.81-1.8,.81-1.81,1.81-1.81,1.8,.81,1.8,1.81Z"/>
          <path class="cls-9" d="M5.99,246.43c0,1-.81,1.81-1.81,1.81s-1.8-.81-1.8-1.81,.81-1.8,1.8-1.8,1.81,.81,1.81,1.8Z"/>
          <path class="cls-9" d="M48.6,242.06c0,1-.81,1.81-1.81,1.81s-1.8-.81-1.8-1.81,.81-1.8,1.8-1.8,1.81,.81,1.81,1.8Z"/>
          <path class="cls-9" d="M56.8,250.04c0,1-.81,1.8-1.81,1.8s-1.8-.81-1.8-1.8,.81-1.81,1.8-1.81,1.81,.81,1.81,1.81Z"/>
          <path class="cls-9" d="M56.8,236.02c0,1-.81,1.8-1.81,1.8s-1.8-.81-1.8-1.8,.81-1.81,1.8-1.81,1.81,.81,1.81,1.81Z"/>
        </g>
      </g>
      <g>
        <text class="cls-14" transform="translate(77 349.51)"><tspan x="0" y="0">適合就寢或外出，8小時內保溫不加熱，節省能源。</tspan></text>
        <text class="cls-12" transform="translate(77 312.17)"><tspan class="cls-15" x="0" y="0">內建節能</tspan><tspan class="cls-16" x="92.4" y="0">鍵，</tspan><tspan class="cls-15" x="128.1" y="0">不重覆加熱</tspan></text>
        <g>
          <text class="cls-2" transform="translate(14.15 316.24) scale(1.05 1)"><tspan class="cls-13" x="0" y="0">EC</tspan><tspan class="cls-11" x="16.02" y="0">O</tspan></text>
          <circle class="cls-9" cx="28.04" cy="321.51" r="22.96" transform="translate(-120.9 35.2) rotate(-22.5)"/>
          <path class="cls-9" d="M54.3,321.51c0,14.5-11.76,26.26-26.26,26.26s-26.26-11.76-26.26-26.26,11.76-26.26,26.26-26.26,26.26,11.76,26.26,26.26Z"/>
          <path class="cls-17" d="M13.1,350.9c-.13-.51-3.09-12.63,2.5-23.5,4.7-9.14,13.47-9.84,19.87-10.35,1.75-.14,3.41-.27,4.64-.56,3.51-.82,4.37-1.4,4.4-1.42l1,1.32s-.02,.02-.04,.06l3.19-.21,.21,1.3c.03,.46,1.87,10.83-5.96,19.2-4.64,4.96-9.37,5.91-13.8,6.2-9.48,.62-9.41,4.59-9.41,4.63l.02,.71-.06,.63q-.03,.28-.03,.64v1.3s-6.36,.76-6.36,.76l-.18-.71Z"/>
          <path class="cls-9" d="M20.44,342.04c3.84-2.52,8.84-2.25,13.14-3.36,8.53-2.21,14.09-13.03,13.33-21.45,0,0-1.44,1.46-6.04,2.49-6.15,1.38-17.24-.67-22.32,9.2-2.64,5.12-3.14,10.63-3.01,14.74,.12,3.81,.77,6.43,.77,6.43-.32-1.26,.53-3.38,1.04-4.47,.75-1.61,1.81-2.74,3.08-3.57Z"/>
          <path class="cls-9" d="M46.91,317.23s-2.8,6.22-13.46,8.35c-10.65,2.13-14.06,12.61-14.06,12.61"/>
          <path class="cls-9" d="M32.43,334.87c-5.28-2.64-11.15-.51-11.15-.51,0,0,.33-1.67-.95-4.01"/>
          <path class="cls-9" d="M37.45,330.35c-6.84-3.4-11.69-1.15-11.69-1.15,0,0,.27-1.62-.75-4.16"/>
          <path class="cls-9" d="M42.14,326.78c-3.2-2.05-7.44-1.37-7.44-1.37"/>
        </g>
      </g>
      <g>
        <text class="cls-14" transform="translate(77 446.32)"><tspan x="0" y="0">可依需求情境設定熱水保溫溫度(70、85、100度)，方便又節能。</tspan></text>
        <text class="cls-12" transform="translate(77 408.97)"><tspan class="cls-15" x="0" y="0">貼心溫度模式</tspan><tspan class="cls-16" x="138.6" y="0">鍵，</tspan><tspan class="cls-15" x="174.3" y="0">依需求設定熱水溫度</tspan></text>
        <g>
          <line class="cls-9" x1="36.57" y1="409.03" x2="41.84" y2="409.03"/>
          <line class="cls-9" x1="36.57" y1="412.93" x2="41.84" y2="412.93"/>
          <line class="cls-9" x1="36.57" y1="416.82" x2="41.84" y2="416.82"/>
          <line class="cls-9" x1="36.57" y1="420.72" x2="41.84" y2="420.72"/>
          <path class="cls-1" d="M28,394.11c-13.56,0-24.58,11.03-24.58,24.58,0,8.78,4.64,16.48,11.58,20.83,0-.09-.01-.17-.01-.26,0-.55,.05-1.1,.11-1.64-6.04-4.13-10.02-11.07-10.02-18.93,0-12.64,10.28-22.92,22.92-22.92s22.92,10.28,22.92,22.92c0,7.86-3.98,14.8-10.02,18.93,.07,.54,.11,1.09,.11,1.64,0,.09-.01,.17-.01,.26,6.94-4.35,11.58-12.05,11.58-20.83,0-13.56-11.03-24.58-24.58-24.58"/>
          <path class="cls-1" d="M28,390.69c-15.44,0-28,12.56-28,28,0,11.08,6.49,20.65,15.85,25.19-.27-.7-.48-1.43-.62-2.18-8.08-4.5-13.56-13.12-13.56-23.01,0-14.52,11.81-26.33,26.33-26.33s26.33,11.81,26.33,26.33c0,9.88-5.48,18.51-13.56,23.01-.14,.75-.36,1.48-.62,2.18,9.36-4.54,15.85-14.11,15.85-25.19,0-15.44-12.56-28-28-28"/>
          <path class="cls-5" d="M32.9,431.31s0-.07,0-.1v-22.79c0-2.77-2.26-5.03-5.03-5.03s-5.03,2.26-5.03,5.03v22.79c0,.08,0,.16,.01,.25-2.41,1.64-3.99,4.41-3.99,7.54,0,5.04,4.09,9.12,9.12,9.12s9.12-4.08,9.12-9.12c0-3.23-1.68-6.06-4.21-7.68Z"/>
          <path class="cls-1" d="M30.86,434.5l-1.79-1.14s.04-2.21,.04-2.25v-12.46h-2.47v12.49l.12,2.25-1.76,1.2c-1.46,1-2.33,2.64-2.33,4.41,0,2.94,2.39,5.33,5.33,5.33s5.33-2.39,5.33-5.33c0-1.82-.92-3.5-2.47-4.49"/>
        </g>
      </g>
      <g>
        <text class="cls-14" transform="translate(77 543.12)"><tspan x="0" y="0">內建過熱、防空燒保護裝置，以及漏水保護器、漏電斷路器，確保使用安全。</tspan></text>
        <text class="cls-12" transform="translate(77 505.77)"><tspan class="cls-15" x="0" y="0">多重安全防護裝</tspan><tspan class="cls-18" x="161.7" y="0">置，</tspan><tspan class="cls-15" x="197.4" y="0">確保飲用安全</tspan></text>
        <g>
          <path class="cls-9" d="M4.78,524.33c-2.04-9.77-1-18.46-.87-19.41l.49-3.62h3.63"/>
          <path class="cls-9" d="M37.98,541.68c-2.36,1.81-4.8,3.67-7.08,5.96l-.64,.64-1.91,.49-1.9-.49-.63-.63c-1.88-1.88-4.03-3.52-6.31-5.26"/>
          <path class="cls-9" d="M48.71,501.29h3.63l.49,3.61c.13,.97,1.17,9.65-.87,19.42"/>
          <path class="cls-9" d="M49.55,505.34l-.1-.75h-.74c-8.71,0-13.8-3.63-16.59-5.52-.14-.1-.29-.2-.42-.3-.05-.03-.09-.07-.14-.1h0c-1.18-.92-1.94-1.81-2.42-2.51-.23-.34-.4-.63-.51-.85l-.25-.47-.26,.47h0c-.11,.22-.27,.51-.51,.85-.48,.69-1.24,1.59-2.42,2.5h0s-.1,.08-.14,.11c-.13,.1-.28,.2-.42,.3-2.8,1.89-7.88,5.52-16.59,5.52h-.74l-.1,.75c-.05,.36-1.14,8.86,.83,18.31,2.65,12.65,13.01,14.52,20.15,21.65l.21,.05,.21-.05c8.17-8.17,17.5-9,20.14-21.65,1.98-9.44,.88-17.95,.83-18.31Z"/>
          <path class="cls-7" d="M19.22,495.01c0-5.05,4.1-9.14,9.14-9.14s9.15,4.09,9.15,9.14v16.13"/>
          <path class="cls-9" d="M40.98,520.25c0,6.96-5.65,12.61-12.61,12.61s-12.62-5.65-12.62-12.61,5.65-12.61,12.62-12.61,12.61,5.65,12.61,12.61Z"/>
          <path class="cls-9" d="M37.51,511.13v-16.13c0-5.05-4.1-9.14-9.14-9.14s-9.15,4.1-9.15,9.14"/>
          <path class="cls-9" d="M32.18,518.01c0,2.11-1.71,3.81-3.81,3.81s-3.82-1.71-3.82-3.81,1.71-3.82,3.82-3.82,3.81,1.71,3.81,3.82Z"/>
          <line class="cls-9" x1="28.37" y1="522.09" x2="28.37" y2="526.3"/>
        </g>
      </g>
    </g>
  </g>
</svg>