<?xml version="1.0" encoding="UTF-8"?>
<svg id="_圖層_2" data-name="圖層 2" xmlns="http://www.w3.org/2000/svg" viewBox="0 0 186.91 30.16">
  <defs>
    <style>
      .cls-1 {
        fill: #bc1c21;
      }
    </style>
  </defs>
  <g id="_圖層_1-2" data-name="圖層 1">
    <g>
      <path class="cls-1" d="M146.83,18.78l8.66,11.38h-7.86l-13.42-17.37h10.73c1.59,0,3.06-1.57,3.06-3.34s-1.47-3.35-3.06-3.35h-12.31V30.16h-6.33V.06h18.69c5.39,0,9.33,4.64,9.33,9.38,0,6.05-4.87,8.97-7.5,9.33"/>
      <polygon class="cls-1" points="71.15 16.22 82.98 30.12 90.94 30.12 77.37 14.3 89.76 .08 81.82 .08 71.15 12.07 71.15 .08 64.81 .08 64.81 30.16 71.15 30.16 71.15 16.22"/>
      <path class="cls-1" d="M49.39,0l13.33,30.12h-6.5l-3.08-7.18h-14.18l-3.08,7.18h-6.47L42.73,0h6.66Zm1.1,16.97l-4.43-10.22-4.36,10.22h8.79Z"/>
      <path class="cls-1" d="M9.2,6.06c-1.61,0-2.78,1.53-2.78,2.93,0,1.69,1.37,3.02,2.99,3.02h9.66c5.57,0,9.38,3.88,9.38,8.91s-3.44,9.24-9.04,9.24H1.29v-5.96H19.01c1.6,0,2.99-1.61,2.99-3.25s-1.61-2.98-3.08-2.98H9.21C3.59,17.97,0,13.75,0,8.89,0,4.87,3.38,.04,8.91,.04H26.54V6.06H9.2Z"/>
      <path class="cls-1" d="M173.61,0l13.29,30.12h-6.49l-3.06-7.18h-14.2l-3.06,7.18h-6.49L166.91,0h6.7Zm1.12,16.97l-4.46-10.22-4.39,10.22h8.84Z"/>
      <path class="cls-1" d="M110.41,30.12c7.72,0,10.64-7.25,10.64-10.32V.08h-6.32V19.97c0,1.85-1.53,4.24-4.11,4.24h-7.89c-2.54,0-4.08-2.39-4.08-4.24V.08h-6.27V19.8c0,3.07,2.89,10.32,10.62,10.32h7.41Z"/>
    </g>
  </g>
</svg>